%TF.GenerationSoftware,KiCad,Pcbnew,9.0.7*%
%TF.CreationDate,2026-02-22T12:09:29+01:00*%
%TF.ProjectId,horsesense,686f7273-6573-4656-9e73-652e6b696361,1.0*%
%TF.SameCoordinates,Original*%
%TF.FileFunction,Soldermask,Bot*%
%TF.FilePolarity,Negative*%
%FSLAX46Y46*%
G04 Gerber Fmt 4.6, Leading zero omitted, Abs format (unit mm)*
G04 Created by KiCad (PCBNEW 9.0.7) date 2026-02-22 12:09:29*
%MOMM*%
%LPD*%
G01*
G04 APERTURE LIST*
G04 Aperture macros list*
%AMRoundRect*
0 Rectangle with rounded corners*
0 $1 Rounding radius*
0 $2 $3 $4 $5 $6 $7 $8 $9 X,Y pos of 4 corners*
0 Add a 4 corners polygon primitive as box body*
4,1,4,$2,$3,$4,$5,$6,$7,$8,$9,$2,$3,0*
0 Add four circle primitives for the rounded corners*
1,1,$1+$1,$2,$3*
1,1,$1+$1,$4,$5*
1,1,$1+$1,$6,$7*
1,1,$1+$1,$8,$9*
0 Add four rect primitives between the rounded corners*
20,1,$1+$1,$2,$3,$4,$5,0*
20,1,$1+$1,$4,$5,$6,$7,0*
20,1,$1+$1,$6,$7,$8,$9,0*
20,1,$1+$1,$8,$9,$2,$3,0*%
G04 Aperture macros list end*
%ADD10C,1.060000*%
%ADD11RoundRect,0.030000X0.500000X0.500000X-0.500000X0.500000X-0.500000X-0.500000X0.500000X-0.500000X0*%
%ADD12RoundRect,0.050000X0.200000X0.350000X-0.200000X0.350000X-0.200000X-0.350000X0.200000X-0.350000X0*%
%ADD13C,0.314000*%
%ADD14C,0.710000*%
%ADD15O,2.160000X1.060000*%
%ADD16O,1.860000X1.060000*%
%ADD17RoundRect,0.102000X-0.270000X0.275000X-0.270000X-0.275000X0.270000X-0.275000X0.270000X0.275000X0*%
%ADD18RoundRect,0.030000X-0.175000X-0.275000X0.175000X-0.275000X0.175000X0.275000X-0.175000X0.275000X0*%
%ADD19RoundRect,0.030000X-0.625000X-0.725000X0.625000X-0.725000X0.625000X0.725000X-0.625000X0.725000X0*%
G04 APERTURE END LIST*
D10*
%TO.C,J4*%
X1550000Y33415000D03*
X1550000Y32145000D03*
X1550000Y30875000D03*
D11*
X1550000Y29605000D03*
%TD*%
D12*
%TO.C,D3*%
X14350000Y16305000D03*
X14350000Y14855000D03*
X15000000Y16305000D03*
X15000000Y14855000D03*
X15650000Y16305000D03*
X15650000Y14855000D03*
%TD*%
%TO.C,D2*%
X14300000Y31160000D03*
X14300000Y29710000D03*
X14950000Y31160000D03*
X14950000Y29710000D03*
X15600000Y31160000D03*
X15600000Y29710000D03*
%TD*%
D13*
%TO.C,U1*%
X18175000Y31580000D03*
X18575000Y31580000D03*
%TD*%
D14*
%TO.C,J1*%
X6305000Y44070000D03*
X6305000Y38290000D03*
D15*
X6805000Y45500000D03*
D16*
X2625000Y45500000D03*
D15*
X6805000Y36860000D03*
D16*
X2625000Y36860000D03*
%TD*%
D17*
%TO.C,D6*%
X13000000Y27910000D03*
X14310000Y27910000D03*
X15690000Y27910000D03*
X17000000Y27910000D03*
X17000000Y25530000D03*
X15690000Y25530000D03*
X14310000Y25530000D03*
X13000000Y25530000D03*
%TD*%
D10*
%TO.C,TP4*%
X2360000Y55080000D03*
%TD*%
D18*
%TO.C,D1*%
X14290000Y22555000D03*
D19*
X15340000Y23000000D03*
D18*
X14290000Y23445000D03*
%TD*%
D17*
%TO.C,D4*%
X13000000Y20470000D03*
X14310000Y20470000D03*
X15690000Y20470000D03*
X17000000Y20470000D03*
X17000000Y18090000D03*
X15690000Y18090000D03*
X14310000Y18090000D03*
X13000000Y18090000D03*
%TD*%
D10*
%TO.C,TP3*%
X25440000Y3270000D03*
%TD*%
M02*
