%TF.GenerationSoftware,KiCad,Pcbnew,9.0.5*%
%TF.CreationDate,2025-11-01T11:22:36+01:00*%
%TF.ProjectId,horsesense,686f7273-6573-4656-9e73-652e6b696361,1.0*%
%TF.SameCoordinates,Original*%
%TF.FileFunction,Copper,L2,Inr*%
%TF.FilePolarity,Positive*%
%FSLAX46Y46*%
G04 Gerber Fmt 4.6, Leading zero omitted, Abs format (unit mm)*
G04 Created by KiCad (PCBNEW 9.0.5) date 2025-11-01 11:22:36*
%MOMM*%
%LPD*%
G01*
G04 APERTURE LIST*
%TA.AperFunction,HeatsinkPad*%
%ADD10C,0.600000*%
%TD*%
%TA.AperFunction,ComponentPad*%
%ADD11R,1.000000X1.000000*%
%TD*%
%TA.AperFunction,ComponentPad*%
%ADD12C,1.000000*%
%TD*%
%TA.AperFunction,HeatsinkPad*%
%ADD13C,0.500000*%
%TD*%
%TA.AperFunction,HeatsinkPad*%
%ADD14O,2.100000X1.000000*%
%TD*%
%TA.AperFunction,HeatsinkPad*%
%ADD15O,1.800000X1.000000*%
%TD*%
%TA.AperFunction,ViaPad*%
%ADD16C,0.600000*%
%TD*%
G04 APERTURE END LIST*
D10*
%TO.N,GND*%
%TO.C,U9*%
X16550000Y51570000D03*
X16550000Y50170000D03*
X17250000Y52270000D03*
X17250000Y50870000D03*
X17250000Y49470000D03*
X17950000Y51570000D03*
X17950000Y50170000D03*
X18650000Y52270000D03*
X18650000Y50870000D03*
X18650000Y49470000D03*
X19350000Y51570000D03*
X19350000Y50170000D03*
%TD*%
D11*
%TO.N,+3.3V*%
%TO.C,J4*%
X1940000Y30695000D03*
D12*
%TO.N,Net-(J4-Pin_2)*%
X1940000Y31965000D03*
%TO.N,Net-(J4-Pin_3)*%
X1940000Y33235000D03*
%TO.N,GND*%
X1940000Y34505000D03*
%TD*%
D13*
%TO.N,GND*%
%TO.C,U3*%
X13440000Y4177500D03*
X14540000Y4177500D03*
X15640000Y4177500D03*
X13440000Y5277500D03*
X14540000Y5277500D03*
X15640000Y5277500D03*
X13440000Y6377500D03*
X14540000Y6377500D03*
X15640000Y6377500D03*
%TD*%
D14*
%TO.N,GND*%
%TO.C,J1*%
X6795000Y45450000D03*
D15*
X2615000Y45450000D03*
D14*
X6795000Y36810000D03*
D15*
X2615000Y36810000D03*
%TD*%
D16*
%TO.N,+3.3V*%
X4490000Y56960000D03*
X11530000Y11740000D03*
X13440000Y31000000D03*
X21430000Y30600000D03*
X3930000Y27290000D03*
X7260000Y34010000D03*
X25200000Y25470000D03*
X9330000Y30440000D03*
X26740000Y12850000D03*
X4660000Y53540000D03*
X1080000Y870000D03*
X13930000Y38936513D03*
%TO.N,GND*%
X2230000Y8400000D03*
X24185602Y33167021D03*
X11810000Y38770000D03*
X20320000Y6930000D03*
X9960000Y1481000D03*
X18111147Y32460553D03*
X2330000Y4980000D03*
X24921000Y29190000D03*
X10690000Y23400000D03*
X5070000Y1481000D03*
X12390000Y58630000D03*
X19160000Y39130000D03*
X28399000Y20190000D03*
X26900000Y58690000D03*
X4390000Y50550000D03*
X20730000Y37970000D03*
X2040000Y24940000D03*
X8270000Y32980000D03*
X11360000Y10360000D03*
X14740000Y24470000D03*
X18620000Y9000000D03*
X1570000Y27290000D03*
X21740000Y15580000D03*
X5165000Y8595000D03*
X27774265Y23555735D03*
X5365152Y29236194D03*
X17360000Y1181000D03*
X12079315Y31391131D03*
X11498045Y34132415D03*
X27870000Y39770000D03*
X10640000Y25610000D03*
X28020000Y19620000D03*
X3770000Y2100000D03*
X4430000Y58860000D03*
X24119000Y28420000D03*
X11840000Y36760000D03*
X8400000Y19510000D03*
X28399000Y12610000D03*
X5360000Y15280000D03*
X4410000Y34860000D03*
X19646949Y29413051D03*
X8100000Y54290000D03*
X25222000Y27130000D03*
X12280000Y7700000D03*
%TO.N,+1.8V*%
X13940000Y36760000D03*
X18321279Y31688641D03*
X23474000Y31790000D03*
%TO.N,VBUS*%
X12790000Y780000D03*
X8300000Y38730000D03*
X8450000Y43530000D03*
%TO.N,+BATT*%
X23150000Y8110000D03*
X16570000Y8990000D03*
%TO.N,Net-(U3-REGN)*%
X8100000Y2510000D03*
X19990000Y780000D03*
%TO.N,Vsys*%
X12420000Y9120000D03*
X7160000Y6160000D03*
X29199000Y26710000D03*
X5860000Y3830000D03*
%TO.N,SDA*%
X4420000Y32420000D03*
X17279527Y2689686D03*
X12290000Y49700000D03*
X9000000Y18850000D03*
%TO.N,SCL*%
X10040000Y17860000D03*
X11113955Y33430649D03*
X13085000Y48430000D03*
X16346615Y2694517D03*
%TO.N,Net-(U9-IO0)*%
X800000Y51440000D03*
X22230000Y57262000D03*
%TO.N,MAX_MOSI_1_8*%
X19246611Y37949490D03*
X16761405Y36792178D03*
%TO.N,MAX_SCLK_1_8*%
X15532987Y35658976D03*
X19503765Y37191946D03*
%TO.N,MAX_MISO_1_8*%
X19017074Y36513000D03*
X16090000Y36357185D03*
%TO.N,INT_BAT*%
X23295029Y16354971D03*
X24250000Y53870000D03*
%TO.N,CE_BAT*%
X17450000Y5020000D03*
X13690000Y43070000D03*
%TO.N,PSEL_BAT*%
X12530000Y2440000D03*
X12000000Y54780000D03*
%TO.N,GPS_JAM*%
X17720000Y47010000D03*
X22830000Y12660000D03*
%TO.N,ICM_FSYNC*%
X9530918Y33995347D03*
X12180000Y53530000D03*
%TO.N,GPS_REQ*%
X26670000Y49780000D03*
X25450000Y15110000D03*
%TO.N,GPS_TX*%
X14594265Y45960000D03*
X23260000Y17870000D03*
%TO.N,ICM_INT2*%
X8754971Y33786499D03*
X11970000Y51050000D03*
%TO.N,GPS_RST*%
X24119000Y25550000D03*
X24857363Y48424038D03*
%TO.N,ICM_INT*%
X9340784Y52283250D03*
X9326149Y40961899D03*
%TO.N,GPS_PP1*%
X26030000Y50900000D03*
X24477815Y15272185D03*
%TO.N,FLASH_SCLK*%
X20740000Y38900000D03*
X15530000Y42660000D03*
%TO.N,GPS_SEL*%
X26170000Y47000000D03*
X24622000Y26172085D03*
%TO.N,Net-(J4-Pin_3)*%
X26500000Y53510000D03*
%TO.N,GPS_RX*%
X13530000Y47160000D03*
X23290000Y18980000D03*
%TO.N,ICM_AD0*%
X26440000Y57310000D03*
X9710000Y40260000D03*
%TO.N,GPS_REF*%
X25430000Y52240000D03*
X23918083Y12040000D03*
%TO.N,Net-(J4-Pin_2)*%
X25560000Y54830000D03*
%TO.N,GPS_FIX*%
X28179000Y40690000D03*
X24760000Y12620000D03*
%TO.N,Net-(U1-PD2_IN)*%
X14060000Y21560000D03*
%TO.N,Net-(D2-K)*%
X13491469Y22967996D03*
%TO.N,Net-(D1-K)*%
X16530000Y31660000D03*
%TO.N,Net-(D3-K)*%
X16030000Y33100000D03*
X10841000Y15980000D03*
X13030000Y15660000D03*
%TO.N,Net-(U1-PD1_IN)*%
X18010000Y27950000D03*
%TO.N,PD_GND*%
X17630000Y13940000D03*
X17110000Y26780000D03*
%TO.N,FLASH_SID3*%
X13710000Y44660000D03*
X21740000Y36180000D03*
%TO.N,FLASH_SID1*%
X23980000Y42510000D03*
X24190000Y34958527D03*
%TO.N,+3.3V_LED*%
X15980000Y13470000D03*
X16460000Y15100000D03*
X16420000Y22520000D03*
X16509000Y30010000D03*
%TD*%
%TA.AperFunction,Conductor*%
%TO.N,GND*%
G36*
X29442539Y59459815D02*
G01*
X29488294Y59407011D01*
X29499500Y59355500D01*
X29499500Y27617505D01*
X29479815Y27550466D01*
X29427011Y27504711D01*
X29357853Y27494767D01*
X29351310Y27495887D01*
X29277842Y27510500D01*
X29120158Y27510500D01*
X29120155Y27510500D01*
X28965510Y27479739D01*
X28965498Y27479736D01*
X28819827Y27419398D01*
X28819814Y27419391D01*
X28688711Y27331790D01*
X28688707Y27331787D01*
X28577213Y27220293D01*
X28577210Y27220289D01*
X28489609Y27089186D01*
X28489602Y27089173D01*
X28429264Y26943502D01*
X28429261Y26943490D01*
X28398500Y26788847D01*
X28398500Y26631154D01*
X28429261Y26476511D01*
X28429264Y26476499D01*
X28489602Y26330828D01*
X28489609Y26330815D01*
X28577210Y26199712D01*
X28577213Y26199708D01*
X28688707Y26088214D01*
X28688711Y26088211D01*
X28819814Y26000610D01*
X28819827Y26000603D01*
X28898498Y25968017D01*
X28965503Y25940263D01*
X29120153Y25909501D01*
X29120156Y25909500D01*
X29120158Y25909500D01*
X29277844Y25909500D01*
X29277845Y25909501D01*
X29296658Y25913243D01*
X29351309Y25924113D01*
X29420900Y25917886D01*
X29476077Y25875023D01*
X29499322Y25809133D01*
X29499500Y25802496D01*
X29499500Y604500D01*
X29479815Y537461D01*
X29427011Y491706D01*
X29375500Y480500D01*
X20897703Y480500D01*
X20830664Y500185D01*
X20784909Y552989D01*
X20774965Y622147D01*
X20776086Y628691D01*
X20790499Y701154D01*
X20790500Y701156D01*
X20790500Y858845D01*
X20790499Y858847D01*
X20759738Y1013490D01*
X20759737Y1013497D01*
X20722456Y1103502D01*
X20699397Y1159173D01*
X20699390Y1159186D01*
X20611789Y1290289D01*
X20611786Y1290293D01*
X20500292Y1401787D01*
X20500288Y1401790D01*
X20369185Y1489391D01*
X20369172Y1489398D01*
X20223501Y1549736D01*
X20223489Y1549739D01*
X20068845Y1580500D01*
X20068842Y1580500D01*
X19911158Y1580500D01*
X19911155Y1580500D01*
X19756510Y1549739D01*
X19756498Y1549736D01*
X19610827Y1489398D01*
X19610814Y1489391D01*
X19479711Y1401790D01*
X19479707Y1401787D01*
X19368213Y1290293D01*
X19368210Y1290289D01*
X19280609Y1159186D01*
X19280602Y1159173D01*
X19220264Y1013502D01*
X19220261Y1013490D01*
X19189500Y858847D01*
X19189500Y701154D01*
X19203914Y628691D01*
X19197687Y559100D01*
X19154824Y503922D01*
X19088934Y480678D01*
X19082297Y480500D01*
X13697703Y480500D01*
X13630664Y500185D01*
X13584909Y552989D01*
X13574965Y622147D01*
X13576086Y628691D01*
X13590499Y701154D01*
X13590500Y701156D01*
X13590500Y858845D01*
X13590499Y858847D01*
X13559738Y1013490D01*
X13559737Y1013497D01*
X13522456Y1103502D01*
X13499397Y1159173D01*
X13499390Y1159186D01*
X13411789Y1290289D01*
X13411786Y1290293D01*
X13300292Y1401787D01*
X13300288Y1401790D01*
X13169185Y1489391D01*
X13169172Y1489398D01*
X13023501Y1549736D01*
X13023486Y1549741D01*
X13020411Y1550352D01*
X13018951Y1551116D01*
X13017665Y1551506D01*
X13017739Y1551750D01*
X12958503Y1582742D01*
X12923934Y1643461D01*
X12927680Y1713230D01*
X12968551Y1769899D01*
X12975710Y1775061D01*
X13040289Y1818211D01*
X13151789Y1929711D01*
X13239394Y2060821D01*
X13299737Y2206503D01*
X13330500Y2361158D01*
X13330500Y2518842D01*
X13330500Y2518845D01*
X13330499Y2518847D01*
X13312200Y2610842D01*
X13299737Y2673497D01*
X13270745Y2743490D01*
X13239397Y2819173D01*
X13239390Y2819186D01*
X13151789Y2950289D01*
X13151786Y2950293D01*
X13040292Y3061787D01*
X13040288Y3061790D01*
X12909185Y3149391D01*
X12909172Y3149398D01*
X12763501Y3209736D01*
X12763489Y3209739D01*
X12608845Y3240500D01*
X12608842Y3240500D01*
X12451158Y3240500D01*
X12451155Y3240500D01*
X12296510Y3209739D01*
X12296498Y3209736D01*
X12150827Y3149398D01*
X12150814Y3149391D01*
X12019711Y3061790D01*
X12019707Y3061787D01*
X11908213Y2950293D01*
X11908210Y2950289D01*
X11820609Y2819186D01*
X11820602Y2819173D01*
X11760264Y2673502D01*
X11760261Y2673490D01*
X11729500Y2518847D01*
X11729500Y2361154D01*
X11760261Y2206511D01*
X11760264Y2206499D01*
X11820602Y2060828D01*
X11820609Y2060815D01*
X11908210Y1929712D01*
X11908213Y1929708D01*
X12019707Y1818214D01*
X12019711Y1818211D01*
X12150814Y1730610D01*
X12150827Y1730603D01*
X12295931Y1670500D01*
X12296503Y1670263D01*
X12296507Y1670263D01*
X12296508Y1670262D01*
X12299578Y1669651D01*
X12301037Y1668888D01*
X12302335Y1668494D01*
X12302260Y1668248D01*
X12361489Y1637266D01*
X12396063Y1576550D01*
X12392323Y1506781D01*
X12351456Y1450109D01*
X12344278Y1444932D01*
X12279707Y1401787D01*
X12168213Y1290293D01*
X12168210Y1290289D01*
X12080609Y1159186D01*
X12080602Y1159173D01*
X12020264Y1013502D01*
X12020261Y1013490D01*
X11989500Y858847D01*
X11989500Y701154D01*
X12003914Y628691D01*
X11997687Y559100D01*
X11954824Y503922D01*
X11888934Y480678D01*
X11882297Y480500D01*
X1969609Y480500D01*
X1902570Y500185D01*
X1856815Y552989D01*
X1846871Y622147D01*
X1848725Y630493D01*
X1848549Y630528D01*
X1880499Y791154D01*
X1880500Y791156D01*
X1880500Y948845D01*
X1880499Y948847D01*
X1849737Y1103497D01*
X1849735Y1103502D01*
X1789397Y1249173D01*
X1789390Y1249186D01*
X1701789Y1380289D01*
X1701786Y1380293D01*
X1590292Y1491787D01*
X1590288Y1491790D01*
X1459185Y1579391D01*
X1459172Y1579398D01*
X1313501Y1639736D01*
X1313489Y1639739D01*
X1158845Y1670500D01*
X1158842Y1670500D01*
X1001158Y1670500D01*
X1001155Y1670500D01*
X846510Y1639739D01*
X846498Y1639736D01*
X700827Y1579398D01*
X700816Y1579392D01*
X693386Y1574427D01*
X626707Y1553553D01*
X559328Y1572041D01*
X512640Y1624022D01*
X500500Y1677533D01*
X500500Y2588847D01*
X7299500Y2588847D01*
X7299500Y2431154D01*
X7330261Y2276511D01*
X7330264Y2276499D01*
X7390602Y2130828D01*
X7390609Y2130815D01*
X7478210Y1999712D01*
X7478213Y1999708D01*
X7589707Y1888214D01*
X7589711Y1888211D01*
X7720814Y1800610D01*
X7720827Y1800603D01*
X7866498Y1740265D01*
X7866503Y1740263D01*
X8002406Y1713230D01*
X8021153Y1709501D01*
X8021156Y1709500D01*
X8021158Y1709500D01*
X8178844Y1709500D01*
X8178845Y1709501D01*
X8333497Y1740263D01*
X8479179Y1800606D01*
X8610289Y1888211D01*
X8721789Y1999711D01*
X8809394Y2130821D01*
X8869737Y2276503D01*
X8900500Y2431158D01*
X8900500Y2588842D01*
X8900500Y2588845D01*
X8900499Y2588847D01*
X8896124Y2610842D01*
X8869737Y2743497D01*
X8857366Y2773364D01*
X8809397Y2889173D01*
X8809390Y2889186D01*
X8721789Y3020289D01*
X8721786Y3020293D01*
X8610292Y3131787D01*
X8610288Y3131790D01*
X8479185Y3219391D01*
X8479172Y3219398D01*
X8333501Y3279736D01*
X8333489Y3279739D01*
X8178845Y3310500D01*
X8178842Y3310500D01*
X8021158Y3310500D01*
X8021155Y3310500D01*
X7866510Y3279739D01*
X7866498Y3279736D01*
X7720827Y3219398D01*
X7720814Y3219391D01*
X7589711Y3131790D01*
X7589707Y3131787D01*
X7478213Y3020293D01*
X7478210Y3020289D01*
X7390609Y2889186D01*
X7390602Y2889173D01*
X7330264Y2743502D01*
X7330261Y2743490D01*
X7299500Y2588847D01*
X500500Y2588847D01*
X500500Y3908847D01*
X5059500Y3908847D01*
X5059500Y3751154D01*
X5090261Y3596511D01*
X5090264Y3596499D01*
X5150602Y3450828D01*
X5150609Y3450815D01*
X5238210Y3319712D01*
X5238213Y3319708D01*
X5349707Y3208214D01*
X5349711Y3208211D01*
X5480814Y3120610D01*
X5480827Y3120603D01*
X5605750Y3068859D01*
X5626503Y3060263D01*
X5781153Y3029501D01*
X5781156Y3029500D01*
X5781158Y3029500D01*
X5938844Y3029500D01*
X5938845Y3029501D01*
X6093497Y3060263D01*
X6239179Y3120606D01*
X6370289Y3208211D01*
X6481789Y3319711D01*
X6569394Y3450821D01*
X6589733Y3499923D01*
X13115975Y3499923D01*
X13221236Y3456322D01*
X13221240Y3456321D01*
X13366126Y3427501D01*
X13366129Y3427500D01*
X13513871Y3427500D01*
X13513873Y3427501D01*
X13658760Y3456321D01*
X13658775Y3456325D01*
X13764024Y3499922D01*
X13764024Y3499923D01*
X14215975Y3499923D01*
X14321236Y3456322D01*
X14321240Y3456321D01*
X14466126Y3427501D01*
X14466129Y3427500D01*
X14613871Y3427500D01*
X14613873Y3427501D01*
X14758760Y3456321D01*
X14758775Y3456325D01*
X14864024Y3499922D01*
X14864024Y3499923D01*
X15315975Y3499923D01*
X15421236Y3456322D01*
X15421240Y3456321D01*
X15566126Y3427501D01*
X15566129Y3427500D01*
X15648157Y3427500D01*
X15715196Y3407815D01*
X15760951Y3355011D01*
X15770895Y3285853D01*
X15741870Y3222297D01*
X15735838Y3215819D01*
X15724828Y3204810D01*
X15724825Y3204806D01*
X15637224Y3073703D01*
X15637217Y3073690D01*
X15576879Y2928019D01*
X15576876Y2928007D01*
X15546115Y2773364D01*
X15546115Y2615671D01*
X15576876Y2461028D01*
X15576879Y2461016D01*
X15637217Y2315345D01*
X15637224Y2315332D01*
X15724825Y2184229D01*
X15724828Y2184225D01*
X15836322Y2072731D01*
X15836326Y2072728D01*
X15967429Y1985127D01*
X15967442Y1985120D01*
X16113113Y1924782D01*
X16113118Y1924780D01*
X16267768Y1894018D01*
X16267771Y1894017D01*
X16267773Y1894017D01*
X16425459Y1894017D01*
X16425460Y1894018D01*
X16580112Y1924780D01*
X16725794Y1985123D01*
X16740562Y1994991D01*
X16807236Y2015871D01*
X16874617Y1997389D01*
X16878333Y1995002D01*
X16900348Y1980292D01*
X16900350Y1980291D01*
X16900354Y1980289D01*
X17034362Y1924782D01*
X17046030Y1919949D01*
X17176393Y1894018D01*
X17200680Y1889187D01*
X17200683Y1889186D01*
X17200685Y1889186D01*
X17358371Y1889186D01*
X17358372Y1889187D01*
X17513024Y1919949D01*
X17658706Y1980292D01*
X17789816Y2067897D01*
X17901316Y2179397D01*
X17988921Y2310507D01*
X18049264Y2456189D01*
X18080027Y2610844D01*
X18080027Y2768528D01*
X18080027Y2768531D01*
X18080026Y2768533D01*
X18049265Y2923176D01*
X18049264Y2923183D01*
X18047261Y2928019D01*
X17988924Y3068859D01*
X17988917Y3068872D01*
X17901316Y3199975D01*
X17901313Y3199979D01*
X17789819Y3311473D01*
X17789815Y3311476D01*
X17658712Y3399077D01*
X17658699Y3399084D01*
X17513028Y3459422D01*
X17513016Y3459425D01*
X17358372Y3490186D01*
X17358369Y3490186D01*
X17200685Y3490186D01*
X17200682Y3490186D01*
X17046037Y3459425D01*
X17046025Y3459422D01*
X16900349Y3399082D01*
X16885574Y3389209D01*
X16818896Y3368333D01*
X16751517Y3386819D01*
X16747797Y3389210D01*
X16725794Y3403912D01*
X16725792Y3403913D01*
X16580116Y3464253D01*
X16580104Y3464256D01*
X16425460Y3495017D01*
X16425457Y3495017D01*
X16267773Y3495017D01*
X16267770Y3495017D01*
X16113125Y3464256D01*
X16113107Y3464251D01*
X16109450Y3462736D01*
X16107383Y3462514D01*
X16107291Y3462486D01*
X16107285Y3462504D01*
X16039980Y3455273D01*
X15977504Y3486554D01*
X15974327Y3489620D01*
X15640001Y3823946D01*
X15640000Y3823946D01*
X15315975Y3499923D01*
X14864024Y3499923D01*
X14540001Y3823946D01*
X14540000Y3823946D01*
X14215975Y3499923D01*
X13764024Y3499923D01*
X13440001Y3823946D01*
X13440000Y3823946D01*
X13115975Y3499923D01*
X6589733Y3499923D01*
X6629737Y3596503D01*
X6660500Y3751158D01*
X6660500Y3908842D01*
X6660500Y3908845D01*
X6660499Y3908847D01*
X6629737Y4063497D01*
X6605979Y4120855D01*
X6569398Y4209172D01*
X6569390Y4209186D01*
X6541201Y4251374D01*
X12690000Y4251374D01*
X12690000Y4103627D01*
X12718820Y3958741D01*
X12718822Y3958733D01*
X12762421Y3853476D01*
X13086446Y4177500D01*
X13086446Y4177501D01*
X13066556Y4197391D01*
X13340000Y4197391D01*
X13340000Y4157609D01*
X13355224Y4120855D01*
X13383355Y4092724D01*
X13420109Y4077500D01*
X13459891Y4077500D01*
X13496645Y4092724D01*
X13524776Y4120855D01*
X13540000Y4157609D01*
X13540000Y4177500D01*
X13793554Y4177500D01*
X13990000Y3981054D01*
X14186446Y4177500D01*
X14166555Y4197391D01*
X14440000Y4197391D01*
X14440000Y4157609D01*
X14455224Y4120855D01*
X14483355Y4092724D01*
X14520109Y4077500D01*
X14559891Y4077500D01*
X14596645Y4092724D01*
X14624776Y4120855D01*
X14640000Y4157609D01*
X14640000Y4177500D01*
X14893554Y4177500D01*
X15090000Y3981054D01*
X15286446Y4177500D01*
X15266555Y4197391D01*
X15540000Y4197391D01*
X15540000Y4157609D01*
X15555224Y4120855D01*
X15583355Y4092724D01*
X15620109Y4077500D01*
X15659891Y4077500D01*
X15696645Y4092724D01*
X15724776Y4120855D01*
X15740000Y4157609D01*
X15740000Y4177501D01*
X15993554Y4177501D01*
X15993554Y4177499D01*
X16317577Y3853476D01*
X16317578Y3853476D01*
X16361175Y3958725D01*
X16361179Y3958740D01*
X16389999Y4103627D01*
X16390000Y4103629D01*
X16390000Y4251372D01*
X16389999Y4251374D01*
X16361179Y4396260D01*
X16361178Y4396264D01*
X16317577Y4501525D01*
X15993554Y4177501D01*
X15740000Y4177501D01*
X15740000Y4197391D01*
X15724776Y4234145D01*
X15696645Y4262276D01*
X15659891Y4277500D01*
X15620109Y4277500D01*
X15583355Y4262276D01*
X15555224Y4234145D01*
X15540000Y4197391D01*
X15266555Y4197391D01*
X15090000Y4373946D01*
X14893554Y4177500D01*
X14640000Y4177500D01*
X14640000Y4197391D01*
X14624776Y4234145D01*
X14596645Y4262276D01*
X14559891Y4277500D01*
X14520109Y4277500D01*
X14483355Y4262276D01*
X14455224Y4234145D01*
X14440000Y4197391D01*
X14166555Y4197391D01*
X13990000Y4373946D01*
X13793554Y4177500D01*
X13540000Y4177500D01*
X13540000Y4197391D01*
X13524776Y4234145D01*
X13496645Y4262276D01*
X13459891Y4277500D01*
X13420109Y4277500D01*
X13383355Y4262276D01*
X13355224Y4234145D01*
X13340000Y4197391D01*
X13066556Y4197391D01*
X12762421Y4501526D01*
X12762420Y4501526D01*
X12718823Y4396272D01*
X12718820Y4396260D01*
X12690000Y4251374D01*
X6541201Y4251374D01*
X6481789Y4340289D01*
X6481786Y4340293D01*
X6370292Y4451787D01*
X6370288Y4451790D01*
X6239185Y4539391D01*
X6239172Y4539398D01*
X6093501Y4599736D01*
X6093489Y4599739D01*
X5938845Y4630500D01*
X5938842Y4630500D01*
X5781158Y4630500D01*
X5781155Y4630500D01*
X5626510Y4599739D01*
X5626498Y4599736D01*
X5480827Y4539398D01*
X5480814Y4539391D01*
X5349711Y4451790D01*
X5349707Y4451787D01*
X5238213Y4340293D01*
X5238210Y4340289D01*
X5150609Y4209186D01*
X5150602Y4209173D01*
X5090264Y4063502D01*
X5090261Y4063490D01*
X5059500Y3908847D01*
X500500Y3908847D01*
X500500Y4727500D01*
X13243554Y4727500D01*
X13440000Y4531054D01*
X13636446Y4727500D01*
X14343554Y4727500D01*
X14540000Y4531054D01*
X14736446Y4727500D01*
X15443554Y4727500D01*
X15640000Y4531054D01*
X15836446Y4727500D01*
X15640000Y4923946D01*
X15443554Y4727500D01*
X14736446Y4727500D01*
X14540000Y4923946D01*
X14343554Y4727500D01*
X13636446Y4727500D01*
X13440000Y4923946D01*
X13243554Y4727500D01*
X500500Y4727500D01*
X500500Y5351374D01*
X12690000Y5351374D01*
X12690000Y5203627D01*
X12718820Y5058741D01*
X12718822Y5058733D01*
X12762421Y4953476D01*
X13086446Y5277500D01*
X13086446Y5277501D01*
X13066556Y5297391D01*
X13340000Y5297391D01*
X13340000Y5257609D01*
X13355224Y5220855D01*
X13383355Y5192724D01*
X13420109Y5177500D01*
X13459891Y5177500D01*
X13496645Y5192724D01*
X13524776Y5220855D01*
X13540000Y5257609D01*
X13540000Y5277500D01*
X13793554Y5277500D01*
X13990000Y5081054D01*
X14186446Y5277500D01*
X14166555Y5297391D01*
X14440000Y5297391D01*
X14440000Y5257609D01*
X14455224Y5220855D01*
X14483355Y5192724D01*
X14520109Y5177500D01*
X14559891Y5177500D01*
X14596645Y5192724D01*
X14624776Y5220855D01*
X14640000Y5257609D01*
X14640000Y5277500D01*
X14893554Y5277500D01*
X15090000Y5081054D01*
X15286446Y5277500D01*
X15266555Y5297391D01*
X15540000Y5297391D01*
X15540000Y5257609D01*
X15555224Y5220855D01*
X15583355Y5192724D01*
X15620109Y5177500D01*
X15659891Y5177500D01*
X15696645Y5192724D01*
X15724776Y5220855D01*
X15740000Y5257609D01*
X15740000Y5277501D01*
X15993554Y5277501D01*
X15993554Y5277499D01*
X16317577Y4953476D01*
X16317578Y4953476D01*
X16361175Y5058725D01*
X16361179Y5058740D01*
X16369157Y5098847D01*
X16649500Y5098847D01*
X16649500Y4941154D01*
X16680261Y4786511D01*
X16680264Y4786499D01*
X16740602Y4640828D01*
X16740609Y4640815D01*
X16828210Y4509712D01*
X16828213Y4509708D01*
X16939707Y4398214D01*
X16939711Y4398211D01*
X17070814Y4310610D01*
X17070827Y4310603D01*
X17216498Y4250265D01*
X17216503Y4250263D01*
X17371153Y4219501D01*
X17371156Y4219500D01*
X17371158Y4219500D01*
X17528844Y4219500D01*
X17528845Y4219501D01*
X17683497Y4250263D01*
X17829179Y4310606D01*
X17960289Y4398211D01*
X18071789Y4509711D01*
X18159394Y4640821D01*
X18219737Y4786503D01*
X18250500Y4941158D01*
X18250500Y5098842D01*
X18250500Y5098845D01*
X18250499Y5098847D01*
X18234854Y5177500D01*
X18219737Y5253497D01*
X18186332Y5334145D01*
X18159397Y5399173D01*
X18159390Y5399186D01*
X18071789Y5530289D01*
X18071786Y5530293D01*
X17960292Y5641787D01*
X17960288Y5641790D01*
X17829185Y5729391D01*
X17829172Y5729398D01*
X17683501Y5789736D01*
X17683489Y5789739D01*
X17528845Y5820500D01*
X17528842Y5820500D01*
X17371158Y5820500D01*
X17371155Y5820500D01*
X17216510Y5789739D01*
X17216498Y5789736D01*
X17070827Y5729398D01*
X17070814Y5729391D01*
X16939711Y5641790D01*
X16939707Y5641787D01*
X16828213Y5530293D01*
X16828210Y5530289D01*
X16740609Y5399186D01*
X16740602Y5399173D01*
X16680264Y5253502D01*
X16680261Y5253490D01*
X16649500Y5098847D01*
X16369157Y5098847D01*
X16375180Y5129125D01*
X16375180Y5129126D01*
X16390000Y5203629D01*
X16390000Y5351372D01*
X16389999Y5351374D01*
X16361179Y5496260D01*
X16361178Y5496264D01*
X16317577Y5601525D01*
X15993554Y5277501D01*
X15740000Y5277501D01*
X15740000Y5297391D01*
X15724776Y5334145D01*
X15696645Y5362276D01*
X15659891Y5377500D01*
X15620109Y5377500D01*
X15583355Y5362276D01*
X15555224Y5334145D01*
X15540000Y5297391D01*
X15266555Y5297391D01*
X15090000Y5473946D01*
X14893554Y5277500D01*
X14640000Y5277500D01*
X14640000Y5297391D01*
X14624776Y5334145D01*
X14596645Y5362276D01*
X14559891Y5377500D01*
X14520109Y5377500D01*
X14483355Y5362276D01*
X14455224Y5334145D01*
X14440000Y5297391D01*
X14166555Y5297391D01*
X13990000Y5473946D01*
X13793554Y5277500D01*
X13540000Y5277500D01*
X13540000Y5297391D01*
X13524776Y5334145D01*
X13496645Y5362276D01*
X13459891Y5377500D01*
X13420109Y5377500D01*
X13383355Y5362276D01*
X13355224Y5334145D01*
X13340000Y5297391D01*
X13066556Y5297391D01*
X12762421Y5601526D01*
X12762420Y5601526D01*
X12718823Y5496272D01*
X12718820Y5496260D01*
X12690000Y5351374D01*
X500500Y5351374D01*
X500500Y6238847D01*
X6359500Y6238847D01*
X6359500Y6081154D01*
X6390261Y5926511D01*
X6390264Y5926499D01*
X6450602Y5780828D01*
X6450609Y5780815D01*
X6538210Y5649712D01*
X6538213Y5649708D01*
X6649707Y5538214D01*
X6649711Y5538211D01*
X6780814Y5450610D01*
X6780827Y5450603D01*
X6904992Y5399173D01*
X6926503Y5390263D01*
X7067202Y5362276D01*
X7081153Y5359501D01*
X7081156Y5359500D01*
X7081158Y5359500D01*
X7238844Y5359500D01*
X7238845Y5359501D01*
X7393497Y5390263D01*
X7539179Y5450606D01*
X7544769Y5454342D01*
X7554083Y5460564D01*
X7554083Y5460565D01*
X7670289Y5538211D01*
X7781789Y5649711D01*
X7869394Y5780821D01*
X7873088Y5789739D01*
X7888729Y5827500D01*
X13243554Y5827500D01*
X13440000Y5631054D01*
X13636446Y5827500D01*
X14343554Y5827500D01*
X14540000Y5631054D01*
X14736446Y5827500D01*
X15443554Y5827500D01*
X15640000Y5631054D01*
X15836446Y5827500D01*
X15640000Y6023946D01*
X15443554Y5827500D01*
X14736446Y5827500D01*
X14540000Y6023946D01*
X14343554Y5827500D01*
X13636446Y5827500D01*
X13440000Y6023946D01*
X13243554Y5827500D01*
X7888729Y5827500D01*
X7929656Y5926307D01*
X7929656Y5926309D01*
X7929737Y5926503D01*
X7960500Y6081158D01*
X7960500Y6238842D01*
X7960500Y6238845D01*
X7960499Y6238847D01*
X7944186Y6320855D01*
X7929737Y6393497D01*
X7905764Y6451374D01*
X12690000Y6451374D01*
X12690000Y6303627D01*
X12718820Y6158741D01*
X12718822Y6158733D01*
X12762421Y6053476D01*
X13086446Y6377500D01*
X13086446Y6377501D01*
X13066556Y6397391D01*
X13340000Y6397391D01*
X13340000Y6357609D01*
X13355224Y6320855D01*
X13383355Y6292724D01*
X13420109Y6277500D01*
X13459891Y6277500D01*
X13496645Y6292724D01*
X13524776Y6320855D01*
X13540000Y6357609D01*
X13540000Y6377500D01*
X13793554Y6377500D01*
X13990000Y6181054D01*
X14186446Y6377500D01*
X14166555Y6397391D01*
X14440000Y6397391D01*
X14440000Y6357609D01*
X14455224Y6320855D01*
X14483355Y6292724D01*
X14520109Y6277500D01*
X14559891Y6277500D01*
X14596645Y6292724D01*
X14624776Y6320855D01*
X14640000Y6357609D01*
X14640000Y6377500D01*
X14893554Y6377500D01*
X15090000Y6181054D01*
X15286446Y6377500D01*
X15266555Y6397391D01*
X15540000Y6397391D01*
X15540000Y6357609D01*
X15555224Y6320855D01*
X15583355Y6292724D01*
X15620109Y6277500D01*
X15659891Y6277500D01*
X15696645Y6292724D01*
X15724776Y6320855D01*
X15740000Y6357609D01*
X15740000Y6377501D01*
X15993554Y6377501D01*
X15993554Y6377499D01*
X16317577Y6053476D01*
X16317578Y6053476D01*
X16361175Y6158725D01*
X16361179Y6158740D01*
X16389999Y6303627D01*
X16390000Y6303629D01*
X16390000Y6451372D01*
X16389999Y6451374D01*
X16361179Y6596260D01*
X16361178Y6596264D01*
X16317577Y6701525D01*
X15993554Y6377501D01*
X15740000Y6377501D01*
X15740000Y6397391D01*
X15724776Y6434145D01*
X15696645Y6462276D01*
X15659891Y6477500D01*
X15620109Y6477500D01*
X15583355Y6462276D01*
X15555224Y6434145D01*
X15540000Y6397391D01*
X15266555Y6397391D01*
X15090000Y6573946D01*
X14893554Y6377500D01*
X14640000Y6377500D01*
X14640000Y6397391D01*
X14624776Y6434145D01*
X14596645Y6462276D01*
X14559891Y6477500D01*
X14520109Y6477500D01*
X14483355Y6462276D01*
X14455224Y6434145D01*
X14440000Y6397391D01*
X14166555Y6397391D01*
X13990000Y6573946D01*
X13793554Y6377500D01*
X13540000Y6377500D01*
X13540000Y6397391D01*
X13524776Y6434145D01*
X13496645Y6462276D01*
X13459891Y6477500D01*
X13420109Y6477500D01*
X13383355Y6462276D01*
X13355224Y6434145D01*
X13340000Y6397391D01*
X13066556Y6397391D01*
X12762421Y6701526D01*
X12762420Y6701526D01*
X12718823Y6596272D01*
X12718820Y6596260D01*
X12690000Y6451374D01*
X7905764Y6451374D01*
X7894942Y6477500D01*
X7869397Y6539173D01*
X7869390Y6539186D01*
X7781789Y6670289D01*
X7781786Y6670293D01*
X7670292Y6781787D01*
X7670288Y6781790D01*
X7539185Y6869391D01*
X7539172Y6869398D01*
X7466007Y6899703D01*
X7393501Y6929736D01*
X7393489Y6929739D01*
X7238845Y6960500D01*
X7238842Y6960500D01*
X7081158Y6960500D01*
X7081155Y6960500D01*
X6926510Y6929739D01*
X6926498Y6929736D01*
X6780827Y6869398D01*
X6780814Y6869391D01*
X6649711Y6781790D01*
X6649707Y6781787D01*
X6538213Y6670293D01*
X6538210Y6670289D01*
X6450609Y6539186D01*
X6450602Y6539173D01*
X6390264Y6393502D01*
X6390261Y6393490D01*
X6359500Y6238847D01*
X500500Y6238847D01*
X500500Y7055080D01*
X13115974Y7055080D01*
X13115974Y7055079D01*
X13440000Y6731054D01*
X13440001Y6731054D01*
X13764024Y7055079D01*
X13764022Y7055080D01*
X14215974Y7055080D01*
X14215974Y7055079D01*
X14540000Y6731054D01*
X14540001Y6731054D01*
X14864024Y7055079D01*
X14864022Y7055080D01*
X15315974Y7055080D01*
X15315974Y7055079D01*
X15640000Y6731054D01*
X15640001Y6731054D01*
X15964024Y7055079D01*
X15858767Y7098678D01*
X15858759Y7098680D01*
X15713872Y7127500D01*
X15566128Y7127500D01*
X15421240Y7098680D01*
X15421228Y7098677D01*
X15315974Y7055080D01*
X14864022Y7055080D01*
X14758767Y7098678D01*
X14758759Y7098680D01*
X14613872Y7127500D01*
X14466128Y7127500D01*
X14321240Y7098680D01*
X14321228Y7098677D01*
X14215974Y7055080D01*
X13764022Y7055080D01*
X13658767Y7098678D01*
X13658759Y7098680D01*
X13513872Y7127500D01*
X13366128Y7127500D01*
X13221240Y7098680D01*
X13221228Y7098677D01*
X13115974Y7055080D01*
X500500Y7055080D01*
X500500Y8188847D01*
X22349500Y8188847D01*
X22349500Y8031154D01*
X22380261Y7876511D01*
X22380264Y7876499D01*
X22440602Y7730828D01*
X22440609Y7730815D01*
X22528210Y7599712D01*
X22528213Y7599708D01*
X22639707Y7488214D01*
X22639711Y7488211D01*
X22770814Y7400610D01*
X22770827Y7400603D01*
X22916498Y7340265D01*
X22916503Y7340263D01*
X23071153Y7309501D01*
X23071156Y7309500D01*
X23071158Y7309500D01*
X23228844Y7309500D01*
X23228845Y7309501D01*
X23383497Y7340263D01*
X23529179Y7400606D01*
X23660289Y7488211D01*
X23771789Y7599711D01*
X23859394Y7730821D01*
X23919737Y7876503D01*
X23950500Y8031158D01*
X23950500Y8188842D01*
X23950500Y8188845D01*
X23950499Y8188847D01*
X23944250Y8220263D01*
X23919737Y8343497D01*
X23916935Y8350262D01*
X23859397Y8489173D01*
X23859390Y8489186D01*
X23771789Y8620289D01*
X23771786Y8620293D01*
X23660292Y8731787D01*
X23660288Y8731790D01*
X23529185Y8819391D01*
X23529172Y8819398D01*
X23383501Y8879736D01*
X23383489Y8879739D01*
X23228845Y8910500D01*
X23228842Y8910500D01*
X23071158Y8910500D01*
X23071155Y8910500D01*
X22916510Y8879739D01*
X22916498Y8879736D01*
X22770827Y8819398D01*
X22770814Y8819391D01*
X22639711Y8731790D01*
X22639707Y8731787D01*
X22528213Y8620293D01*
X22528210Y8620289D01*
X22440609Y8489186D01*
X22440602Y8489173D01*
X22380264Y8343502D01*
X22380261Y8343490D01*
X22349500Y8188847D01*
X500500Y8188847D01*
X500500Y9198847D01*
X11619500Y9198847D01*
X11619500Y9041154D01*
X11650261Y8886511D01*
X11650264Y8886499D01*
X11710602Y8740828D01*
X11710609Y8740815D01*
X11798210Y8609712D01*
X11798213Y8609708D01*
X11909707Y8498214D01*
X11909711Y8498211D01*
X12040814Y8410610D01*
X12040827Y8410603D01*
X12143165Y8368214D01*
X12186503Y8350263D01*
X12341153Y8319501D01*
X12341156Y8319500D01*
X12341158Y8319500D01*
X12498844Y8319500D01*
X12498845Y8319501D01*
X12653497Y8350263D01*
X12799179Y8410606D01*
X12930289Y8498211D01*
X13041789Y8609711D01*
X13129394Y8740821D01*
X13189737Y8886503D01*
X13220500Y9041158D01*
X13220500Y9068847D01*
X15769500Y9068847D01*
X15769500Y8911154D01*
X15800261Y8756511D01*
X15800264Y8756499D01*
X15860602Y8610828D01*
X15860609Y8610815D01*
X15948210Y8479712D01*
X15948213Y8479708D01*
X16059707Y8368214D01*
X16059711Y8368211D01*
X16190814Y8280610D01*
X16190827Y8280603D01*
X16336498Y8220265D01*
X16336503Y8220263D01*
X16491153Y8189501D01*
X16491156Y8189500D01*
X16491158Y8189500D01*
X16648844Y8189500D01*
X16648845Y8189501D01*
X16803497Y8220263D01*
X16949179Y8280606D01*
X16949186Y8280612D01*
X16949190Y8280613D01*
X16975262Y8298034D01*
X16975266Y8298036D01*
X17053431Y8350265D01*
X17080289Y8368211D01*
X17191789Y8479711D01*
X17279394Y8610821D01*
X17339737Y8756503D01*
X17370500Y8911158D01*
X17370500Y9068842D01*
X17370500Y9068845D01*
X17370499Y9068847D01*
X17344641Y9198842D01*
X17339737Y9223497D01*
X17285888Y9353502D01*
X17279397Y9369173D01*
X17279390Y9369186D01*
X17191789Y9500289D01*
X17191786Y9500293D01*
X17080292Y9611787D01*
X17080288Y9611790D01*
X16949185Y9699391D01*
X16949172Y9699398D01*
X16803501Y9759736D01*
X16803489Y9759739D01*
X16648845Y9790500D01*
X16648842Y9790500D01*
X16491158Y9790500D01*
X16491155Y9790500D01*
X16336510Y9759739D01*
X16336498Y9759736D01*
X16190827Y9699398D01*
X16190814Y9699391D01*
X16059711Y9611790D01*
X16059707Y9611787D01*
X15948213Y9500293D01*
X15948210Y9500289D01*
X15860609Y9369186D01*
X15860602Y9369173D01*
X15800264Y9223502D01*
X15800261Y9223490D01*
X15769500Y9068847D01*
X13220500Y9068847D01*
X13220500Y9198842D01*
X13220500Y9198845D01*
X13220499Y9198847D01*
X13189738Y9353490D01*
X13189737Y9353497D01*
X13183241Y9369179D01*
X13129397Y9499173D01*
X13129390Y9499186D01*
X13041789Y9630289D01*
X13041786Y9630293D01*
X12930292Y9741787D01*
X12930288Y9741790D01*
X12799185Y9829391D01*
X12799172Y9829398D01*
X12653501Y9889736D01*
X12653489Y9889739D01*
X12498845Y9920500D01*
X12498842Y9920500D01*
X12341158Y9920500D01*
X12341155Y9920500D01*
X12186510Y9889739D01*
X12186498Y9889736D01*
X12040827Y9829398D01*
X12040814Y9829391D01*
X11909711Y9741790D01*
X11909707Y9741787D01*
X11798213Y9630293D01*
X11798210Y9630289D01*
X11710609Y9499186D01*
X11710602Y9499173D01*
X11650264Y9353502D01*
X11650261Y9353490D01*
X11619500Y9198847D01*
X500500Y9198847D01*
X500500Y11818847D01*
X10729500Y11818847D01*
X10729500Y11661154D01*
X10760261Y11506511D01*
X10760264Y11506499D01*
X10820602Y11360828D01*
X10820609Y11360815D01*
X10908210Y11229712D01*
X10908213Y11229708D01*
X11019707Y11118214D01*
X11019711Y11118211D01*
X11150814Y11030610D01*
X11150827Y11030603D01*
X11296498Y10970265D01*
X11296503Y10970263D01*
X11451153Y10939501D01*
X11451156Y10939500D01*
X11451158Y10939500D01*
X11608844Y10939500D01*
X11608845Y10939501D01*
X11763497Y10970263D01*
X11909179Y11030606D01*
X12040289Y11118211D01*
X12151789Y11229711D01*
X12239394Y11360821D01*
X12299737Y11506503D01*
X12330500Y11661158D01*
X12330500Y11818842D01*
X12330500Y11818845D01*
X12330499Y11818847D01*
X12330369Y11819501D01*
X12299737Y11973497D01*
X12268256Y12049500D01*
X12239397Y12119173D01*
X12239390Y12119186D01*
X12151789Y12250289D01*
X12151786Y12250293D01*
X12040292Y12361787D01*
X12040288Y12361790D01*
X11909185Y12449391D01*
X11909172Y12449398D01*
X11763501Y12509736D01*
X11763489Y12509739D01*
X11608845Y12540500D01*
X11608842Y12540500D01*
X11451158Y12540500D01*
X11451155Y12540500D01*
X11296510Y12509739D01*
X11296498Y12509736D01*
X11150827Y12449398D01*
X11150814Y12449391D01*
X11019711Y12361790D01*
X11019707Y12361787D01*
X10908213Y12250293D01*
X10908210Y12250289D01*
X10820609Y12119186D01*
X10820602Y12119173D01*
X10760264Y11973502D01*
X10760261Y11973490D01*
X10729500Y11818847D01*
X500500Y11818847D01*
X500500Y13548847D01*
X15179500Y13548847D01*
X15179500Y13391154D01*
X15210261Y13236511D01*
X15210264Y13236499D01*
X15270602Y13090828D01*
X15270609Y13090815D01*
X15358210Y12959712D01*
X15358213Y12959708D01*
X15469707Y12848214D01*
X15469711Y12848211D01*
X15600814Y12760610D01*
X15600827Y12760603D01*
X15746498Y12700265D01*
X15746503Y12700263D01*
X15901153Y12669501D01*
X15901156Y12669500D01*
X15901158Y12669500D01*
X16058844Y12669500D01*
X16058845Y12669501D01*
X16213497Y12700263D01*
X16306648Y12738847D01*
X22029500Y12738847D01*
X22029500Y12581154D01*
X22060261Y12426511D01*
X22060264Y12426499D01*
X22120602Y12280828D01*
X22120609Y12280815D01*
X22208210Y12149712D01*
X22208213Y12149708D01*
X22319707Y12038214D01*
X22319711Y12038211D01*
X22450814Y11950610D01*
X22450827Y11950603D01*
X22596498Y11890265D01*
X22596503Y11890263D01*
X22751153Y11859501D01*
X22751156Y11859500D01*
X22751158Y11859500D01*
X22908843Y11859500D01*
X22937118Y11865125D01*
X23010025Y11879627D01*
X23079615Y11873400D01*
X23134793Y11830538D01*
X23148777Y11805462D01*
X23208685Y11660828D01*
X23208692Y11660815D01*
X23296293Y11529712D01*
X23296296Y11529708D01*
X23407790Y11418214D01*
X23407794Y11418211D01*
X23538897Y11330610D01*
X23538910Y11330603D01*
X23684581Y11270265D01*
X23684586Y11270263D01*
X23839236Y11239501D01*
X23839239Y11239500D01*
X23839241Y11239500D01*
X23996927Y11239500D01*
X23996928Y11239501D01*
X24151580Y11270263D01*
X24297262Y11330606D01*
X24428372Y11418211D01*
X24539872Y11529711D01*
X24627477Y11660821D01*
X24661497Y11742952D01*
X24705338Y11797356D01*
X24771632Y11819421D01*
X24776058Y11819500D01*
X24838844Y11819500D01*
X24838845Y11819501D01*
X24993497Y11850263D01*
X25139179Y11910606D01*
X25270289Y11998211D01*
X25381789Y12109711D01*
X25469394Y12240821D01*
X25529737Y12386503D01*
X25560500Y12541158D01*
X25560500Y12698842D01*
X25560500Y12698845D01*
X25560499Y12698847D01*
X25536625Y12818869D01*
X25529737Y12853497D01*
X25498527Y12928847D01*
X25939500Y12928847D01*
X25939500Y12771154D01*
X25970261Y12616511D01*
X25970264Y12616499D01*
X26030602Y12470828D01*
X26030609Y12470815D01*
X26118210Y12339712D01*
X26118213Y12339708D01*
X26229707Y12228214D01*
X26229711Y12228211D01*
X26360814Y12140610D01*
X26360827Y12140603D01*
X26506498Y12080265D01*
X26506503Y12080263D01*
X26661153Y12049501D01*
X26661156Y12049500D01*
X26661158Y12049500D01*
X26818844Y12049500D01*
X26818845Y12049501D01*
X26973497Y12080263D01*
X27119179Y12140606D01*
X27250289Y12228211D01*
X27361789Y12339711D01*
X27449394Y12470821D01*
X27509737Y12616503D01*
X27540500Y12771158D01*
X27540500Y12928842D01*
X27540500Y12928845D01*
X27540499Y12928847D01*
X27534360Y12959711D01*
X27509737Y13083497D01*
X27506703Y13090821D01*
X27449397Y13229173D01*
X27449390Y13229186D01*
X27361789Y13360289D01*
X27361786Y13360293D01*
X27250292Y13471787D01*
X27250288Y13471790D01*
X27119185Y13559391D01*
X27119172Y13559398D01*
X26973501Y13619736D01*
X26973489Y13619739D01*
X26818845Y13650500D01*
X26818842Y13650500D01*
X26661158Y13650500D01*
X26661155Y13650500D01*
X26506510Y13619739D01*
X26506498Y13619736D01*
X26360827Y13559398D01*
X26360814Y13559391D01*
X26229711Y13471790D01*
X26229707Y13471787D01*
X26118213Y13360293D01*
X26118210Y13360289D01*
X26030609Y13229186D01*
X26030602Y13229173D01*
X25970264Y13083502D01*
X25970261Y13083490D01*
X25939500Y12928847D01*
X25498527Y12928847D01*
X25485742Y12959712D01*
X25469397Y12999173D01*
X25469390Y12999186D01*
X25381789Y13130289D01*
X25381786Y13130293D01*
X25270292Y13241787D01*
X25270288Y13241790D01*
X25139185Y13329391D01*
X25139172Y13329398D01*
X24993501Y13389736D01*
X24993489Y13389739D01*
X24838845Y13420500D01*
X24838842Y13420500D01*
X24681158Y13420500D01*
X24681155Y13420500D01*
X24526510Y13389739D01*
X24526498Y13389736D01*
X24380827Y13329398D01*
X24380814Y13329391D01*
X24249711Y13241790D01*
X24249707Y13241787D01*
X24138213Y13130293D01*
X24138210Y13130289D01*
X24050609Y12999186D01*
X24050602Y12999173D01*
X24016586Y12917048D01*
X24008596Y12907135D01*
X24004720Y12895003D01*
X23987088Y12880444D01*
X23972745Y12862644D01*
X23959391Y12857573D01*
X23950845Y12850515D01*
X23929025Y12846039D01*
X23916754Y12841378D01*
X23909415Y12840500D01*
X23839241Y12840500D01*
X23733362Y12819440D01*
X23728595Y12818869D01*
X23698680Y12823898D01*
X23668466Y12826601D01*
X23664564Y12829633D01*
X23659692Y12830451D01*
X23637245Y12850854D01*
X23613288Y12869464D01*
X23609708Y12875884D01*
X23607989Y12877446D01*
X23607204Y12880374D01*
X23599305Y12894539D01*
X23539397Y13039174D01*
X23539390Y13039186D01*
X23451789Y13170289D01*
X23451786Y13170293D01*
X23340292Y13281787D01*
X23340288Y13281790D01*
X23209185Y13369391D01*
X23209172Y13369398D01*
X23063501Y13429736D01*
X23063489Y13429739D01*
X22908845Y13460500D01*
X22908842Y13460500D01*
X22751158Y13460500D01*
X22751155Y13460500D01*
X22596510Y13429739D01*
X22596498Y13429736D01*
X22450827Y13369398D01*
X22450814Y13369391D01*
X22319711Y13281790D01*
X22319707Y13281787D01*
X22208213Y13170293D01*
X22208210Y13170289D01*
X22120609Y13039186D01*
X22120602Y13039173D01*
X22060264Y12893502D01*
X22060261Y12893490D01*
X22029500Y12738847D01*
X16306648Y12738847D01*
X16359179Y12760606D01*
X16374971Y12771158D01*
X16490028Y12848036D01*
X16490194Y12848148D01*
X16490289Y12848211D01*
X16601789Y12959711D01*
X16689394Y13090821D01*
X16749737Y13236503D01*
X16780244Y13389871D01*
X16812629Y13451782D01*
X16873344Y13486356D01*
X16943114Y13482617D01*
X16999786Y13441751D01*
X17004962Y13434573D01*
X17008211Y13429710D01*
X17119707Y13318214D01*
X17119711Y13318211D01*
X17250814Y13230610D01*
X17250827Y13230603D01*
X17396440Y13170289D01*
X17396503Y13170263D01*
X17551153Y13139501D01*
X17551156Y13139500D01*
X17551158Y13139500D01*
X17708844Y13139500D01*
X17708845Y13139501D01*
X17863497Y13170263D01*
X17976166Y13216933D01*
X18009172Y13230603D01*
X18009172Y13230604D01*
X18009179Y13230606D01*
X18140289Y13318211D01*
X18251789Y13429711D01*
X18339394Y13560821D01*
X18399737Y13706503D01*
X18430500Y13861158D01*
X18430500Y14018842D01*
X18430500Y14018845D01*
X18430499Y14018847D01*
X18415990Y14091789D01*
X18399737Y14173497D01*
X18360693Y14267759D01*
X18339397Y14319173D01*
X18339390Y14319186D01*
X18251789Y14450289D01*
X18251786Y14450293D01*
X18140292Y14561787D01*
X18140288Y14561790D01*
X18009185Y14649391D01*
X18009172Y14649398D01*
X17863501Y14709736D01*
X17863489Y14709739D01*
X17708845Y14740500D01*
X17708842Y14740500D01*
X17551158Y14740500D01*
X17551155Y14740500D01*
X17396510Y14709739D01*
X17396499Y14709736D01*
X17393383Y14708445D01*
X17391621Y14708256D01*
X17390676Y14707969D01*
X17390621Y14708149D01*
X17323913Y14700981D01*
X17261435Y14732259D01*
X17225787Y14792351D01*
X17228228Y14860598D01*
X17227969Y14860676D01*
X17228266Y14861657D01*
X17228285Y14862176D01*
X17229028Y14864167D01*
X17229731Y14866491D01*
X17229737Y14866503D01*
X17260500Y15021158D01*
X17260500Y15178842D01*
X17260500Y15178845D01*
X17260499Y15178847D01*
X17254250Y15210263D01*
X17229737Y15333497D01*
X17191210Y15426511D01*
X17169397Y15479173D01*
X17169390Y15479186D01*
X17081789Y15610289D01*
X17081786Y15610293D01*
X16970292Y15721787D01*
X16970288Y15721790D01*
X16839185Y15809391D01*
X16839172Y15809398D01*
X16693501Y15869736D01*
X16693489Y15869739D01*
X16538845Y15900500D01*
X16538842Y15900500D01*
X16381158Y15900500D01*
X16381155Y15900500D01*
X16226510Y15869739D01*
X16226498Y15869736D01*
X16080827Y15809398D01*
X16080814Y15809391D01*
X15949711Y15721790D01*
X15949707Y15721787D01*
X15838213Y15610293D01*
X15838210Y15610289D01*
X15750609Y15479186D01*
X15750602Y15479173D01*
X15690264Y15333502D01*
X15690261Y15333490D01*
X15659500Y15178847D01*
X15659500Y15021154D01*
X15690261Y14866511D01*
X15690264Y14866499D01*
X15750602Y14720828D01*
X15750609Y14720815D01*
X15838210Y14589712D01*
X15838213Y14589708D01*
X15950864Y14477057D01*
X15984349Y14415734D01*
X15979365Y14346042D01*
X15937493Y14290109D01*
X15887375Y14267759D01*
X15746508Y14239739D01*
X15746498Y14239736D01*
X15600827Y14179398D01*
X15600814Y14179391D01*
X15469711Y14091790D01*
X15469707Y14091787D01*
X15358213Y13980293D01*
X15358210Y13980289D01*
X15270609Y13849186D01*
X15270602Y13849173D01*
X15210264Y13703502D01*
X15210261Y13703490D01*
X15179500Y13548847D01*
X500500Y13548847D01*
X500500Y16058847D01*
X10040500Y16058847D01*
X10040500Y15901154D01*
X10071261Y15746511D01*
X10071264Y15746499D01*
X10131602Y15600828D01*
X10131609Y15600815D01*
X10219210Y15469712D01*
X10219213Y15469708D01*
X10330707Y15358214D01*
X10330711Y15358211D01*
X10461814Y15270610D01*
X10461827Y15270603D01*
X10607498Y15210265D01*
X10607503Y15210263D01*
X10762153Y15179501D01*
X10762156Y15179500D01*
X10762158Y15179500D01*
X10919844Y15179500D01*
X10919845Y15179501D01*
X11074497Y15210263D01*
X11220179Y15270606D01*
X11351289Y15358211D01*
X11462789Y15469711D01*
X11550394Y15600821D01*
X11607566Y15738847D01*
X12229500Y15738847D01*
X12229500Y15581154D01*
X12260261Y15426511D01*
X12260264Y15426499D01*
X12320602Y15280828D01*
X12320609Y15280815D01*
X12408210Y15149712D01*
X12408213Y15149708D01*
X12519707Y15038214D01*
X12519711Y15038211D01*
X12650814Y14950610D01*
X12650827Y14950603D01*
X12789864Y14893013D01*
X12796503Y14890263D01*
X12915912Y14866511D01*
X12951153Y14859501D01*
X12951156Y14859500D01*
X12951158Y14859500D01*
X13108844Y14859500D01*
X13108845Y14859501D01*
X13263497Y14890263D01*
X13409179Y14950606D01*
X13540289Y15038211D01*
X13651789Y15149711D01*
X13739394Y15280821D01*
X13799737Y15426503D01*
X13830500Y15581158D01*
X13830500Y15738842D01*
X13830500Y15738845D01*
X13830499Y15738847D01*
X13815125Y15816135D01*
X13799737Y15893497D01*
X13763251Y15981583D01*
X13739397Y16039173D01*
X13739390Y16039186D01*
X13651789Y16170289D01*
X13651786Y16170293D01*
X13540292Y16281787D01*
X13540288Y16281790D01*
X13409185Y16369391D01*
X13409172Y16369398D01*
X13263501Y16429736D01*
X13263489Y16429739D01*
X13108845Y16460500D01*
X13108842Y16460500D01*
X12951158Y16460500D01*
X12951155Y16460500D01*
X12796510Y16429739D01*
X12796498Y16429736D01*
X12650827Y16369398D01*
X12650814Y16369391D01*
X12519711Y16281790D01*
X12519707Y16281787D01*
X12408213Y16170293D01*
X12408210Y16170289D01*
X12320609Y16039186D01*
X12320602Y16039173D01*
X12260264Y15893502D01*
X12260261Y15893490D01*
X12229500Y15738847D01*
X11607566Y15738847D01*
X11610737Y15746503D01*
X11637239Y15879737D01*
X11641500Y15901156D01*
X11641500Y16058845D01*
X11641499Y16058847D01*
X11629042Y16121470D01*
X11610737Y16213497D01*
X11582450Y16281789D01*
X11550397Y16359173D01*
X11550390Y16359186D01*
X11462789Y16490289D01*
X11462786Y16490293D01*
X11351292Y16601787D01*
X11351288Y16601790D01*
X11220185Y16689391D01*
X11220172Y16689398D01*
X11074501Y16749736D01*
X11074489Y16749739D01*
X10919845Y16780500D01*
X10919842Y16780500D01*
X10762158Y16780500D01*
X10762155Y16780500D01*
X10607510Y16749739D01*
X10607498Y16749736D01*
X10461827Y16689398D01*
X10461814Y16689391D01*
X10330711Y16601790D01*
X10330707Y16601787D01*
X10219213Y16490293D01*
X10219210Y16490289D01*
X10131609Y16359186D01*
X10131602Y16359173D01*
X10071264Y16213502D01*
X10071261Y16213490D01*
X10040500Y16058847D01*
X500500Y16058847D01*
X500500Y18928847D01*
X8199500Y18928847D01*
X8199500Y18771154D01*
X8230261Y18616511D01*
X8230264Y18616499D01*
X8290602Y18470828D01*
X8290609Y18470815D01*
X8378210Y18339712D01*
X8378213Y18339708D01*
X8489707Y18228214D01*
X8489711Y18228211D01*
X8620814Y18140610D01*
X8620827Y18140603D01*
X8728737Y18095906D01*
X8766503Y18080263D01*
X8908695Y18051979D01*
X8921153Y18049501D01*
X8921156Y18049500D01*
X8921158Y18049500D01*
X9078843Y18049500D01*
X9083474Y18050422D01*
X9091304Y18051979D01*
X9160895Y18045755D01*
X9216074Y18002894D01*
X9239322Y17937006D01*
X9239500Y17930363D01*
X9239500Y17781154D01*
X9270261Y17626511D01*
X9270264Y17626499D01*
X9330602Y17480828D01*
X9330609Y17480815D01*
X9418210Y17349712D01*
X9418213Y17349708D01*
X9529707Y17238214D01*
X9529711Y17238211D01*
X9660814Y17150610D01*
X9660827Y17150603D01*
X9806498Y17090265D01*
X9806503Y17090263D01*
X9936700Y17064365D01*
X9961153Y17059501D01*
X9961156Y17059500D01*
X9961158Y17059500D01*
X10118844Y17059500D01*
X10118845Y17059501D01*
X10273497Y17090263D01*
X10419179Y17150606D01*
X10550289Y17238211D01*
X10661789Y17349711D01*
X10749394Y17480821D01*
X10809737Y17626503D01*
X10840500Y17781158D01*
X10840500Y17938842D01*
X10838510Y17948847D01*
X22459500Y17948847D01*
X22459500Y17791154D01*
X22490261Y17636511D01*
X22490264Y17636499D01*
X22550602Y17490828D01*
X22550609Y17490815D01*
X22638210Y17359712D01*
X22638213Y17359708D01*
X22749707Y17248214D01*
X22749711Y17248211D01*
X22816049Y17203885D01*
X22860854Y17150273D01*
X22869561Y17080948D01*
X22839407Y17017920D01*
X22816050Y16997682D01*
X22784742Y16976763D01*
X22784736Y16976758D01*
X22673242Y16865264D01*
X22673239Y16865260D01*
X22585638Y16734157D01*
X22585631Y16734144D01*
X22525293Y16588473D01*
X22525290Y16588461D01*
X22494529Y16433818D01*
X22494529Y16276125D01*
X22525290Y16121482D01*
X22525293Y16121470D01*
X22585631Y15975799D01*
X22585638Y15975786D01*
X22673239Y15844683D01*
X22673242Y15844679D01*
X22784736Y15733185D01*
X22784740Y15733182D01*
X22915843Y15645581D01*
X22915856Y15645574D01*
X23060945Y15585477D01*
X23061532Y15585234D01*
X23184128Y15560848D01*
X23216182Y15554472D01*
X23216185Y15554471D01*
X23216187Y15554471D01*
X23373873Y15554471D01*
X23373874Y15554472D01*
X23528526Y15585234D01*
X23528538Y15585240D01*
X23534353Y15587002D01*
X23534815Y15585477D01*
X23596578Y15592120D01*
X23659059Y15560848D01*
X23694715Y15500761D01*
X23696185Y15445898D01*
X23677315Y15351032D01*
X23677315Y15193339D01*
X23708076Y15038696D01*
X23708079Y15038684D01*
X23768417Y14893013D01*
X23768424Y14893000D01*
X23856025Y14761897D01*
X23856028Y14761893D01*
X23967522Y14650399D01*
X23967526Y14650396D01*
X24098629Y14562795D01*
X24098642Y14562788D01*
X24234323Y14506588D01*
X24244318Y14502448D01*
X24398968Y14471686D01*
X24398971Y14471685D01*
X24398973Y14471685D01*
X24556659Y14471685D01*
X24556660Y14471686D01*
X24711312Y14502448D01*
X24786202Y14533469D01*
X24855668Y14540937D01*
X24918147Y14509662D01*
X24921333Y14506588D01*
X24939707Y14488214D01*
X24939711Y14488211D01*
X25070814Y14400610D01*
X25070827Y14400603D01*
X25202551Y14346042D01*
X25216503Y14340263D01*
X25371153Y14309501D01*
X25371156Y14309500D01*
X25371158Y14309500D01*
X25528844Y14309500D01*
X25528845Y14309501D01*
X25683497Y14340263D01*
X25829179Y14400606D01*
X25960289Y14488211D01*
X26071789Y14599711D01*
X26159394Y14730821D01*
X26219737Y14876503D01*
X26250500Y15031158D01*
X26250500Y15188842D01*
X26250500Y15188845D01*
X26250499Y15188847D01*
X26246239Y15210265D01*
X26219737Y15343497D01*
X26185352Y15426511D01*
X26159397Y15489173D01*
X26159390Y15489186D01*
X26071789Y15620289D01*
X26071786Y15620293D01*
X25960292Y15731787D01*
X25960288Y15731790D01*
X25829185Y15819391D01*
X25829172Y15819398D01*
X25683501Y15879736D01*
X25683489Y15879739D01*
X25528845Y15910500D01*
X25528842Y15910500D01*
X25371158Y15910500D01*
X25371155Y15910500D01*
X25216510Y15879739D01*
X25216498Y15879736D01*
X25141614Y15848718D01*
X25072144Y15841249D01*
X25009665Y15872525D01*
X25006481Y15875598D01*
X24988107Y15893972D01*
X24988103Y15893975D01*
X24857000Y15981576D01*
X24856987Y15981583D01*
X24711316Y16041921D01*
X24711304Y16041924D01*
X24556660Y16072685D01*
X24556657Y16072685D01*
X24398973Y16072685D01*
X24398970Y16072685D01*
X24244325Y16041924D01*
X24238491Y16040154D01*
X24238030Y16041674D01*
X24176230Y16035043D01*
X24113758Y16066333D01*
X24078120Y16126430D01*
X24076658Y16181260D01*
X24095529Y16276127D01*
X24095529Y16433816D01*
X24095528Y16433818D01*
X24064767Y16588461D01*
X24064766Y16588468D01*
X24022963Y16689391D01*
X24004426Y16734144D01*
X24004419Y16734157D01*
X23916818Y16865260D01*
X23916815Y16865264D01*
X23805321Y16976758D01*
X23805317Y16976761D01*
X23738979Y17021087D01*
X23694174Y17074699D01*
X23685467Y17144024D01*
X23715622Y17207052D01*
X23738974Y17227288D01*
X23770289Y17248211D01*
X23881789Y17359711D01*
X23969394Y17490821D01*
X24029737Y17636503D01*
X24060500Y17791158D01*
X24060500Y17948842D01*
X24060500Y17948845D01*
X24060499Y17948847D01*
X24049748Y18002894D01*
X24029737Y18103497D01*
X24014366Y18140606D01*
X23969397Y18249173D01*
X23969390Y18249186D01*
X23912945Y18333661D01*
X23892067Y18400338D01*
X23910551Y18467718D01*
X23912896Y18471368D01*
X23999394Y18600821D01*
X24059737Y18746503D01*
X24090500Y18901158D01*
X24090500Y19058842D01*
X24090500Y19058845D01*
X24090499Y19058847D01*
X24059738Y19213490D01*
X24059737Y19213497D01*
X24053241Y19229179D01*
X23999397Y19359173D01*
X23999390Y19359186D01*
X23911789Y19490289D01*
X23911786Y19490293D01*
X23800292Y19601787D01*
X23800288Y19601790D01*
X23669185Y19689391D01*
X23669172Y19689398D01*
X23523501Y19749736D01*
X23523489Y19749739D01*
X23368845Y19780500D01*
X23368842Y19780500D01*
X23211158Y19780500D01*
X23211155Y19780500D01*
X23056510Y19749739D01*
X23056498Y19749736D01*
X22910827Y19689398D01*
X22910814Y19689391D01*
X22779711Y19601790D01*
X22779707Y19601787D01*
X22668213Y19490293D01*
X22668210Y19490289D01*
X22580609Y19359186D01*
X22580602Y19359173D01*
X22520264Y19213502D01*
X22520261Y19213490D01*
X22489500Y19058847D01*
X22489500Y18901154D01*
X22520261Y18746511D01*
X22520264Y18746499D01*
X22580602Y18600828D01*
X22580609Y18600815D01*
X22637054Y18516340D01*
X22657932Y18449663D01*
X22639448Y18382282D01*
X22637054Y18378558D01*
X22550609Y18249186D01*
X22550602Y18249173D01*
X22490264Y18103502D01*
X22490261Y18103490D01*
X22459500Y17948847D01*
X10838510Y17948847D01*
X10809737Y18093497D01*
X10790224Y18140606D01*
X10749397Y18239173D01*
X10749390Y18239186D01*
X10661789Y18370289D01*
X10661786Y18370293D01*
X10550292Y18481787D01*
X10550288Y18481790D01*
X10419185Y18569391D01*
X10419172Y18569398D01*
X10273501Y18629736D01*
X10273489Y18629739D01*
X10118845Y18660500D01*
X10118842Y18660500D01*
X9961158Y18660500D01*
X9948690Y18658020D01*
X9879099Y18664249D01*
X9823922Y18707112D01*
X9800678Y18773002D01*
X9800500Y18779638D01*
X9800500Y18928845D01*
X9800499Y18928847D01*
X9774641Y19058842D01*
X9769737Y19083497D01*
X9715888Y19213502D01*
X9709397Y19229173D01*
X9709390Y19229186D01*
X9621789Y19360289D01*
X9621786Y19360293D01*
X9510292Y19471787D01*
X9510288Y19471790D01*
X9379185Y19559391D01*
X9379172Y19559398D01*
X9233501Y19619736D01*
X9233489Y19619739D01*
X9078845Y19650500D01*
X9078842Y19650500D01*
X8921158Y19650500D01*
X8921155Y19650500D01*
X8766510Y19619739D01*
X8766498Y19619736D01*
X8620827Y19559398D01*
X8620814Y19559391D01*
X8489711Y19471790D01*
X8489707Y19471787D01*
X8378213Y19360293D01*
X8378210Y19360289D01*
X8290609Y19229186D01*
X8290602Y19229173D01*
X8230264Y19083502D01*
X8230261Y19083490D01*
X8199500Y18928847D01*
X500500Y18928847D01*
X500500Y23046843D01*
X12690969Y23046843D01*
X12690969Y22889150D01*
X12721730Y22734507D01*
X12721733Y22734495D01*
X12782071Y22588824D01*
X12782078Y22588811D01*
X12869679Y22457708D01*
X12869682Y22457704D01*
X12981176Y22346210D01*
X12981180Y22346207D01*
X13112283Y22258606D01*
X13112296Y22258599D01*
X13199699Y22222397D01*
X13257972Y22198259D01*
X13310529Y22187805D01*
X13372438Y22155421D01*
X13407012Y22094705D01*
X13403273Y22024936D01*
X13389439Y21997298D01*
X13350608Y21939184D01*
X13350602Y21939173D01*
X13290264Y21793502D01*
X13290261Y21793490D01*
X13259500Y21638847D01*
X13259500Y21481154D01*
X13290261Y21326511D01*
X13290264Y21326499D01*
X13350602Y21180828D01*
X13350609Y21180815D01*
X13438210Y21049712D01*
X13438213Y21049708D01*
X13549707Y20938214D01*
X13549711Y20938211D01*
X13680814Y20850610D01*
X13680827Y20850603D01*
X13826498Y20790265D01*
X13826503Y20790263D01*
X13981153Y20759501D01*
X13981156Y20759500D01*
X13981158Y20759500D01*
X14138844Y20759500D01*
X14138845Y20759501D01*
X14293497Y20790263D01*
X14439179Y20850606D01*
X14570289Y20938211D01*
X14681789Y21049711D01*
X14769394Y21180821D01*
X14829737Y21326503D01*
X14860500Y21481158D01*
X14860500Y21638842D01*
X14860500Y21638845D01*
X14860499Y21638847D01*
X14829738Y21793490D01*
X14829737Y21793497D01*
X14822649Y21810610D01*
X14769397Y21939173D01*
X14769390Y21939186D01*
X14681789Y22070289D01*
X14681786Y22070293D01*
X14570292Y22181787D01*
X14570288Y22181790D01*
X14439185Y22269391D01*
X14439172Y22269398D01*
X14293501Y22329736D01*
X14293491Y22329739D01*
X14240940Y22340192D01*
X14217016Y22352706D01*
X14191645Y22361931D01*
X14186522Y22368658D01*
X14179029Y22372577D01*
X14165669Y22396039D01*
X14149312Y22417516D01*
X14148639Y22425946D01*
X14144455Y22433293D01*
X14145900Y22460252D01*
X14143752Y22487165D01*
X14147869Y22496972D01*
X14148196Y22503063D01*
X14155812Y22520334D01*
X14158665Y22525664D01*
X14200863Y22588817D01*
X14205018Y22598847D01*
X15619500Y22598847D01*
X15619500Y22441154D01*
X15650261Y22286511D01*
X15650264Y22286499D01*
X15710602Y22140828D01*
X15710609Y22140815D01*
X15798210Y22009712D01*
X15798213Y22009708D01*
X15909707Y21898214D01*
X15909711Y21898211D01*
X16040814Y21810610D01*
X16040827Y21810603D01*
X16186498Y21750265D01*
X16186503Y21750263D01*
X16341153Y21719501D01*
X16341156Y21719500D01*
X16341158Y21719500D01*
X16498844Y21719500D01*
X16498845Y21719501D01*
X16653497Y21750263D01*
X16799179Y21810606D01*
X16930289Y21898211D01*
X17041789Y22009711D01*
X17129394Y22140821D01*
X17135442Y22155421D01*
X17189735Y22286499D01*
X17189737Y22286503D01*
X17220500Y22441158D01*
X17220500Y22598842D01*
X17220500Y22598845D01*
X17220499Y22598847D01*
X17208722Y22658054D01*
X17189737Y22753497D01*
X17189735Y22753502D01*
X17129397Y22899173D01*
X17129390Y22899186D01*
X17041789Y23030289D01*
X17041786Y23030293D01*
X16930292Y23141787D01*
X16930288Y23141790D01*
X16799185Y23229391D01*
X16799172Y23229398D01*
X16653501Y23289736D01*
X16653489Y23289739D01*
X16498845Y23320500D01*
X16498842Y23320500D01*
X16341158Y23320500D01*
X16341155Y23320500D01*
X16186510Y23289739D01*
X16186498Y23289736D01*
X16040827Y23229398D01*
X16040814Y23229391D01*
X15909711Y23141790D01*
X15909707Y23141787D01*
X15798213Y23030293D01*
X15798210Y23030289D01*
X15710609Y22899186D01*
X15710602Y22899173D01*
X15650264Y22753502D01*
X15650261Y22753490D01*
X15619500Y22598847D01*
X14205018Y22598847D01*
X14261206Y22734499D01*
X14291969Y22889154D01*
X14291969Y23046838D01*
X14291969Y23046841D01*
X14291968Y23046843D01*
X14261207Y23201486D01*
X14261206Y23201493D01*
X14261204Y23201498D01*
X14200866Y23347169D01*
X14200859Y23347182D01*
X14113258Y23478285D01*
X14113255Y23478289D01*
X14001761Y23589783D01*
X14001757Y23589786D01*
X13870654Y23677387D01*
X13870641Y23677394D01*
X13724970Y23737732D01*
X13724958Y23737735D01*
X13570314Y23768496D01*
X13570311Y23768496D01*
X13412627Y23768496D01*
X13412624Y23768496D01*
X13257979Y23737735D01*
X13257967Y23737732D01*
X13112296Y23677394D01*
X13112283Y23677387D01*
X12981180Y23589786D01*
X12981176Y23589783D01*
X12869682Y23478289D01*
X12869679Y23478285D01*
X12782078Y23347182D01*
X12782071Y23347169D01*
X12721733Y23201498D01*
X12721730Y23201486D01*
X12690969Y23046843D01*
X500500Y23046843D01*
X500500Y25628847D01*
X23318500Y25628847D01*
X23318500Y25471154D01*
X23349261Y25316511D01*
X23349264Y25316499D01*
X23409602Y25170828D01*
X23409609Y25170815D01*
X23497210Y25039712D01*
X23497213Y25039708D01*
X23608707Y24928214D01*
X23608711Y24928211D01*
X23739814Y24840610D01*
X23739827Y24840603D01*
X23885498Y24780265D01*
X23885503Y24780263D01*
X24040153Y24749501D01*
X24040156Y24749500D01*
X24040158Y24749500D01*
X24197844Y24749500D01*
X24197845Y24749501D01*
X24352497Y24780263D01*
X24498179Y24840606D01*
X24532939Y24863833D01*
X24599615Y24884710D01*
X24666995Y24866226D01*
X24684952Y24852018D01*
X24685001Y24852076D01*
X24688307Y24849363D01*
X24689510Y24848411D01*
X24689707Y24848214D01*
X24689711Y24848211D01*
X24820814Y24760610D01*
X24820827Y24760603D01*
X24966498Y24700265D01*
X24966503Y24700263D01*
X25121153Y24669501D01*
X25121156Y24669500D01*
X25121158Y24669500D01*
X25278844Y24669500D01*
X25278845Y24669501D01*
X25433497Y24700263D01*
X25579179Y24760606D01*
X25710289Y24848211D01*
X25821789Y24959711D01*
X25909394Y25090821D01*
X25969737Y25236503D01*
X26000500Y25391158D01*
X26000500Y25548842D01*
X26000500Y25548845D01*
X26000499Y25548847D01*
X25969738Y25703490D01*
X25969737Y25703497D01*
X25928731Y25802496D01*
X25909397Y25849173D01*
X25909390Y25849186D01*
X25821789Y25980289D01*
X25821786Y25980293D01*
X25710292Y26091787D01*
X25710288Y26091790D01*
X25579185Y26179391D01*
X25579176Y26179396D01*
X25485172Y26218333D01*
X25430769Y26262174D01*
X25411008Y26308703D01*
X25392684Y26400821D01*
X25391737Y26405582D01*
X25391735Y26405587D01*
X25331397Y26551258D01*
X25331390Y26551271D01*
X25243789Y26682374D01*
X25243786Y26682378D01*
X25132292Y26793872D01*
X25132288Y26793875D01*
X25001185Y26881476D01*
X25001172Y26881483D01*
X24855501Y26941821D01*
X24855489Y26941824D01*
X24700845Y26972585D01*
X24700842Y26972585D01*
X24543158Y26972585D01*
X24543155Y26972585D01*
X24388510Y26941824D01*
X24388498Y26941821D01*
X24242827Y26881483D01*
X24242814Y26881476D01*
X24111711Y26793875D01*
X24111707Y26793872D01*
X24000213Y26682378D01*
X24000210Y26682374D01*
X23912609Y26551271D01*
X23912602Y26551258D01*
X23852264Y26405587D01*
X23852261Y26405578D01*
X23843599Y26362030D01*
X23811213Y26300119D01*
X23769438Y26271663D01*
X23739823Y26259396D01*
X23739814Y26259391D01*
X23608711Y26171790D01*
X23608707Y26171787D01*
X23497213Y26060293D01*
X23497210Y26060289D01*
X23409609Y25929186D01*
X23409602Y25929173D01*
X23349264Y25783502D01*
X23349261Y25783490D01*
X23318500Y25628847D01*
X500500Y25628847D01*
X500500Y27368847D01*
X3129500Y27368847D01*
X3129500Y27211154D01*
X3160261Y27056511D01*
X3160264Y27056499D01*
X3220602Y26910828D01*
X3220609Y26910815D01*
X3308210Y26779712D01*
X3308213Y26779708D01*
X3419707Y26668214D01*
X3419711Y26668211D01*
X3550814Y26580610D01*
X3550827Y26580603D01*
X3633163Y26546499D01*
X3696503Y26520263D01*
X3851153Y26489501D01*
X3851156Y26489500D01*
X3851158Y26489500D01*
X4008844Y26489500D01*
X4008845Y26489501D01*
X4163497Y26520263D01*
X4309179Y26580606D01*
X4440289Y26668211D01*
X4551789Y26779711D01*
X4604666Y26858847D01*
X16309500Y26858847D01*
X16309500Y26701154D01*
X16340261Y26546511D01*
X16340264Y26546499D01*
X16400602Y26400828D01*
X16400609Y26400815D01*
X16488210Y26269712D01*
X16488213Y26269708D01*
X16599707Y26158214D01*
X16599711Y26158211D01*
X16730814Y26070610D01*
X16730827Y26070603D01*
X16876498Y26010265D01*
X16876503Y26010263D01*
X17031153Y25979501D01*
X17031156Y25979500D01*
X17031158Y25979500D01*
X17188844Y25979500D01*
X17188845Y25979501D01*
X17343497Y26010263D01*
X17489179Y26070606D01*
X17620289Y26158211D01*
X17731789Y26269711D01*
X17819394Y26400821D01*
X17879737Y26546503D01*
X17910500Y26701158D01*
X17910500Y26858842D01*
X17910500Y26858845D01*
X17910499Y26858847D01*
X17882162Y27001309D01*
X17888389Y27070900D01*
X17931252Y27126078D01*
X17997142Y27149322D01*
X18003779Y27149500D01*
X18088844Y27149500D01*
X18088845Y27149501D01*
X18243497Y27180263D01*
X18389179Y27240606D01*
X18520289Y27328211D01*
X18631789Y27439711D01*
X18719394Y27570821D01*
X18779737Y27716503D01*
X18810500Y27871158D01*
X18810500Y28028842D01*
X18810500Y28028845D01*
X18810499Y28028847D01*
X18804355Y28059736D01*
X18779737Y28183497D01*
X18779735Y28183502D01*
X18719397Y28329173D01*
X18719390Y28329186D01*
X18631789Y28460289D01*
X18631786Y28460293D01*
X18520292Y28571787D01*
X18520288Y28571790D01*
X18389185Y28659391D01*
X18389172Y28659398D01*
X18243501Y28719736D01*
X18243489Y28719739D01*
X18088845Y28750500D01*
X18088842Y28750500D01*
X17931158Y28750500D01*
X17931155Y28750500D01*
X17776510Y28719739D01*
X17776498Y28719736D01*
X17630827Y28659398D01*
X17630814Y28659391D01*
X17499711Y28571790D01*
X17499707Y28571787D01*
X17388213Y28460293D01*
X17388210Y28460289D01*
X17300609Y28329186D01*
X17300602Y28329173D01*
X17240264Y28183502D01*
X17240261Y28183490D01*
X17209500Y28028847D01*
X17209500Y27871154D01*
X17237838Y27728691D01*
X17231611Y27659100D01*
X17188748Y27603922D01*
X17122858Y27580678D01*
X17116221Y27580500D01*
X17031155Y27580500D01*
X16876510Y27549739D01*
X16876498Y27549736D01*
X16730827Y27489398D01*
X16730814Y27489391D01*
X16599711Y27401790D01*
X16599707Y27401787D01*
X16488213Y27290293D01*
X16488210Y27290289D01*
X16400609Y27159186D01*
X16400602Y27159173D01*
X16340264Y27013502D01*
X16340261Y27013490D01*
X16309500Y26858847D01*
X4604666Y26858847D01*
X4639394Y26910821D01*
X4639709Y26911583D01*
X4640044Y26912389D01*
X4640044Y26912390D01*
X4676875Y27001309D01*
X4699737Y27056503D01*
X4730500Y27211158D01*
X4730500Y27368842D01*
X4730500Y27368845D01*
X4730499Y27368847D01*
X4720445Y27419391D01*
X4699737Y27523497D01*
X4686131Y27556345D01*
X4639397Y27669173D01*
X4639390Y27669186D01*
X4551789Y27800289D01*
X4551786Y27800293D01*
X4440292Y27911787D01*
X4440288Y27911790D01*
X4309185Y27999391D01*
X4309172Y27999398D01*
X4163501Y28059736D01*
X4163489Y28059739D01*
X4008845Y28090500D01*
X4008842Y28090500D01*
X3851158Y28090500D01*
X3851155Y28090500D01*
X3696510Y28059739D01*
X3696498Y28059736D01*
X3550827Y27999398D01*
X3550814Y27999391D01*
X3419711Y27911790D01*
X3419707Y27911787D01*
X3308213Y27800293D01*
X3308210Y27800289D01*
X3220609Y27669186D01*
X3220602Y27669173D01*
X3160264Y27523502D01*
X3160261Y27523490D01*
X3129500Y27368847D01*
X500500Y27368847D01*
X500500Y33136457D01*
X939499Y33136457D01*
X977947Y32943171D01*
X977950Y32943161D01*
X1037589Y32799179D01*
X1053368Y32761086D01*
X1080272Y32720821D01*
X1114971Y32668890D01*
X1135848Y32602213D01*
X1117363Y32534833D01*
X1114971Y32531110D01*
X1053366Y32438911D01*
X977950Y32256840D01*
X977947Y32256830D01*
X939500Y32063544D01*
X939500Y32063541D01*
X939500Y31866459D01*
X939500Y31866457D01*
X939499Y31866457D01*
X977947Y31673172D01*
X977949Y31673164D01*
X1020318Y31570876D01*
X1027787Y31501407D01*
X1005026Y31449116D01*
X996203Y31437330D01*
X996202Y31437329D01*
X945908Y31302483D01*
X943460Y31279708D01*
X939501Y31242877D01*
X939500Y31242865D01*
X939500Y30147130D01*
X939501Y30147124D01*
X945908Y30087517D01*
X996202Y29952672D01*
X996206Y29952665D01*
X1082452Y29837456D01*
X1082455Y29837453D01*
X1197664Y29751207D01*
X1197671Y29751203D01*
X1332517Y29700909D01*
X1332516Y29700909D01*
X1339444Y29700165D01*
X1392127Y29694500D01*
X2487872Y29694501D01*
X2547483Y29700909D01*
X2682331Y29751204D01*
X2797546Y29837454D01*
X2883796Y29952669D01*
X2934091Y30087517D01*
X2940500Y30147127D01*
X2940499Y30518847D01*
X8529500Y30518847D01*
X8529500Y30361154D01*
X8560261Y30206511D01*
X8560264Y30206499D01*
X8620602Y30060828D01*
X8620609Y30060815D01*
X8708210Y29929712D01*
X8708213Y29929708D01*
X8819707Y29818214D01*
X8819711Y29818211D01*
X8950814Y29730610D01*
X8950827Y29730603D01*
X9037989Y29694500D01*
X9096503Y29670263D01*
X9251153Y29639501D01*
X9251156Y29639500D01*
X9251158Y29639500D01*
X9408844Y29639500D01*
X9408845Y29639501D01*
X9563497Y29670263D01*
X9709179Y29730606D01*
X9840289Y29818211D01*
X9951789Y29929711D01*
X10039394Y30060821D01*
X10099737Y30206503D01*
X10130500Y30361158D01*
X10130500Y30518842D01*
X10130500Y30518845D01*
X10130499Y30518847D01*
X10110215Y30620821D01*
X10099737Y30673497D01*
X10056056Y30778954D01*
X10039397Y30819173D01*
X10039390Y30819186D01*
X9951789Y30950289D01*
X9951786Y30950293D01*
X9840292Y31061787D01*
X9840288Y31061790D01*
X9814761Y31078847D01*
X12639500Y31078847D01*
X12639500Y30921154D01*
X12670261Y30766511D01*
X12670264Y30766499D01*
X12730602Y30620828D01*
X12730609Y30620815D01*
X12818210Y30489712D01*
X12818213Y30489708D01*
X12929707Y30378214D01*
X12929711Y30378211D01*
X13060814Y30290610D01*
X13060827Y30290603D01*
X13174541Y30243502D01*
X13206503Y30230263D01*
X13325912Y30206511D01*
X13361153Y30199501D01*
X13361156Y30199500D01*
X13361158Y30199500D01*
X13518844Y30199500D01*
X13518845Y30199501D01*
X13673497Y30230263D01*
X13819179Y30290606D01*
X13950289Y30378211D01*
X14061789Y30489711D01*
X14149394Y30620821D01*
X14153938Y30631790D01*
X14209735Y30766499D01*
X14209737Y30766503D01*
X14240500Y30921158D01*
X14240500Y31078842D01*
X14240500Y31078845D01*
X14240499Y31078847D01*
X14222723Y31168211D01*
X14209737Y31233497D01*
X14190594Y31279712D01*
X14149397Y31379173D01*
X14149390Y31379186D01*
X14061789Y31510289D01*
X14061786Y31510293D01*
X13950292Y31621787D01*
X13950288Y31621790D01*
X13819185Y31709391D01*
X13819172Y31709398D01*
X13673501Y31769736D01*
X13673489Y31769739D01*
X13518845Y31800500D01*
X13518842Y31800500D01*
X13361158Y31800500D01*
X13361155Y31800500D01*
X13206510Y31769739D01*
X13206498Y31769736D01*
X13060827Y31709398D01*
X13060814Y31709391D01*
X12929711Y31621790D01*
X12929707Y31621787D01*
X12818213Y31510293D01*
X12818210Y31510289D01*
X12730609Y31379186D01*
X12730602Y31379173D01*
X12670264Y31233502D01*
X12670261Y31233490D01*
X12639500Y31078847D01*
X9814761Y31078847D01*
X9709185Y31149391D01*
X9709172Y31149398D01*
X9563501Y31209736D01*
X9563489Y31209739D01*
X9408845Y31240500D01*
X9408842Y31240500D01*
X9251158Y31240500D01*
X9251155Y31240500D01*
X9096510Y31209739D01*
X9096498Y31209736D01*
X8950827Y31149398D01*
X8950814Y31149391D01*
X8819711Y31061790D01*
X8819707Y31061787D01*
X8708213Y30950293D01*
X8708210Y30950289D01*
X8620609Y30819186D01*
X8620602Y30819173D01*
X8560264Y30673502D01*
X8560261Y30673490D01*
X8529500Y30518847D01*
X2940499Y30518847D01*
X2940499Y30719391D01*
X2940499Y31242871D01*
X2940498Y31242877D01*
X2940497Y31242884D01*
X2934091Y31302483D01*
X2931514Y31309391D01*
X2883797Y31437329D01*
X2883795Y31437332D01*
X2874976Y31449113D01*
X2850558Y31514577D01*
X2859679Y31570872D01*
X2902051Y31673165D01*
X2921261Y31769739D01*
X2940500Y31866457D01*
X2940500Y32063544D01*
X2902052Y32256830D01*
X2902051Y32256831D01*
X2902051Y32256835D01*
X2891715Y32281789D01*
X2826635Y32438908D01*
X2826633Y32438912D01*
X2826632Y32438914D01*
X2813627Y32458377D01*
X2786586Y32498847D01*
X3619500Y32498847D01*
X3619500Y32341154D01*
X3650261Y32186511D01*
X3650264Y32186499D01*
X3710602Y32040828D01*
X3710609Y32040815D01*
X3798210Y31909712D01*
X3798213Y31909708D01*
X3909707Y31798214D01*
X3909711Y31798211D01*
X4040814Y31710610D01*
X4040827Y31710603D01*
X4186498Y31650265D01*
X4186503Y31650263D01*
X4329661Y31621787D01*
X4341153Y31619501D01*
X4341156Y31619500D01*
X4341158Y31619500D01*
X4498844Y31619500D01*
X4498845Y31619501D01*
X4653497Y31650263D01*
X4799179Y31710606D01*
X4930289Y31798211D01*
X5041789Y31909711D01*
X5129394Y32040821D01*
X5189737Y32186503D01*
X5220500Y32341158D01*
X5220500Y32498842D01*
X5220500Y32498845D01*
X5220499Y32498847D01*
X5208387Y32559739D01*
X5189737Y32653497D01*
X5161671Y32721255D01*
X5129397Y32799173D01*
X5129390Y32799186D01*
X5041789Y32930289D01*
X5041786Y32930293D01*
X4930292Y33041787D01*
X4930288Y33041790D01*
X4799185Y33129391D01*
X4799172Y33129398D01*
X4653501Y33189736D01*
X4653489Y33189739D01*
X4498845Y33220500D01*
X4498842Y33220500D01*
X4341158Y33220500D01*
X4341155Y33220500D01*
X4186510Y33189739D01*
X4186498Y33189736D01*
X4040827Y33129398D01*
X4040814Y33129391D01*
X3909711Y33041790D01*
X3909707Y33041787D01*
X3798213Y32930293D01*
X3798210Y32930289D01*
X3710609Y32799186D01*
X3710602Y32799173D01*
X3650264Y32653502D01*
X3650261Y32653490D01*
X3619500Y32498847D01*
X2786586Y32498847D01*
X2765029Y32531109D01*
X2744151Y32597786D01*
X2762635Y32665166D01*
X2765029Y32668891D01*
X2777872Y32688113D01*
X2826632Y32761086D01*
X2902051Y32943165D01*
X2923593Y33051464D01*
X2940500Y33136457D01*
X2940500Y33333544D01*
X2902052Y33526830D01*
X2902051Y33526831D01*
X2902051Y33526835D01*
X2891212Y33553002D01*
X2826635Y33708908D01*
X2826628Y33708921D01*
X2764728Y33801560D01*
X2743850Y33868237D01*
X2762334Y33935617D01*
X2764729Y33939343D01*
X2826189Y34031324D01*
X2826191Y34031327D01*
X2850016Y34088847D01*
X6459500Y34088847D01*
X6459500Y33931154D01*
X6490261Y33776511D01*
X6490264Y33776499D01*
X6550602Y33630828D01*
X6550609Y33630815D01*
X6638210Y33499712D01*
X6638213Y33499708D01*
X6749707Y33388214D01*
X6749711Y33388211D01*
X6880814Y33300610D01*
X6880827Y33300603D01*
X7026498Y33240265D01*
X7026503Y33240263D01*
X7125858Y33220500D01*
X7181153Y33209501D01*
X7181156Y33209500D01*
X7181158Y33209500D01*
X7338844Y33209500D01*
X7338845Y33209501D01*
X7493497Y33240263D01*
X7639179Y33300606D01*
X7770289Y33388211D01*
X7839320Y33457243D01*
X7900641Y33490726D01*
X7970333Y33485742D01*
X8026267Y33443871D01*
X8041559Y33417018D01*
X8045574Y33407325D01*
X8045580Y33407314D01*
X8133181Y33276211D01*
X8133184Y33276207D01*
X8244678Y33164713D01*
X8244682Y33164710D01*
X8375785Y33077109D01*
X8375798Y33077102D01*
X8521469Y33016764D01*
X8521474Y33016762D01*
X8676124Y32986000D01*
X8676127Y32985999D01*
X8676129Y32985999D01*
X8833815Y32985999D01*
X8833816Y32986000D01*
X8988468Y33016762D01*
X9134150Y33077105D01*
X9265260Y33164710D01*
X9274523Y33173974D01*
X9335838Y33207459D01*
X9386394Y33207912D01*
X9438515Y33197545D01*
X9452075Y33194847D01*
X9452076Y33194847D01*
X9609762Y33194847D01*
X9609763Y33194848D01*
X9764415Y33225610D01*
X9910097Y33285953D01*
X10041207Y33373558D01*
X10055863Y33388214D01*
X10101774Y33434124D01*
X10163097Y33467609D01*
X10232789Y33462625D01*
X10288722Y33420753D01*
X10312201Y33357803D01*
X10312858Y33357867D01*
X10313102Y33355388D01*
X10313139Y33355289D01*
X10313154Y33354857D01*
X10313455Y33351803D01*
X10344216Y33197160D01*
X10344219Y33197148D01*
X10404557Y33051477D01*
X10404564Y33051464D01*
X10492165Y32920361D01*
X10492168Y32920357D01*
X10603662Y32808863D01*
X10603666Y32808860D01*
X10734769Y32721259D01*
X10734782Y32721252D01*
X10861195Y32668891D01*
X10880458Y32660912D01*
X11035108Y32630150D01*
X11035111Y32630149D01*
X11035113Y32630149D01*
X11192799Y32630149D01*
X11192800Y32630150D01*
X11347452Y32660912D01*
X11493134Y32721255D01*
X11624244Y32808860D01*
X11735744Y32920360D01*
X11823349Y33051470D01*
X11876110Y33178847D01*
X15229500Y33178847D01*
X15229500Y33021154D01*
X15260261Y32866511D01*
X15260264Y32866499D01*
X15320602Y32720828D01*
X15320609Y32720815D01*
X15408210Y32589712D01*
X15408213Y32589708D01*
X15519707Y32478214D01*
X15519711Y32478211D01*
X15650814Y32390610D01*
X15650827Y32390603D01*
X15796498Y32330265D01*
X15796503Y32330263D01*
X15807439Y32328088D01*
X15869351Y32295705D01*
X15903927Y32234991D01*
X15900190Y32165221D01*
X15886354Y32137579D01*
X15820609Y32039186D01*
X15820602Y32039173D01*
X15760264Y31893502D01*
X15760261Y31893490D01*
X15729500Y31738847D01*
X15729500Y31581154D01*
X15760261Y31426511D01*
X15760264Y31426499D01*
X15820602Y31280828D01*
X15820609Y31280815D01*
X15908210Y31149712D01*
X15908213Y31149708D01*
X16019707Y31038214D01*
X16019711Y31038211D01*
X16150821Y30950606D01*
X16150824Y30950605D01*
X16154136Y30948834D01*
X16155548Y30947447D01*
X16155886Y30947221D01*
X16155843Y30947158D01*
X16203983Y30899874D01*
X16219446Y30831737D01*
X16195618Y30766056D01*
X16143143Y30724913D01*
X16129826Y30719397D01*
X16129814Y30719391D01*
X15998711Y30631790D01*
X15998707Y30631787D01*
X15887213Y30520293D01*
X15887210Y30520289D01*
X15799609Y30389186D01*
X15799602Y30389173D01*
X15739264Y30243502D01*
X15739261Y30243490D01*
X15708500Y30088847D01*
X15708500Y29931154D01*
X15739261Y29776511D01*
X15739264Y29776499D01*
X15799602Y29630828D01*
X15799609Y29630815D01*
X15887210Y29499712D01*
X15887213Y29499708D01*
X15998707Y29388214D01*
X15998711Y29388211D01*
X16129814Y29300610D01*
X16129827Y29300603D01*
X16275498Y29240265D01*
X16275503Y29240263D01*
X16430153Y29209501D01*
X16430156Y29209500D01*
X16430158Y29209500D01*
X16587844Y29209500D01*
X16587845Y29209501D01*
X16742497Y29240263D01*
X16888179Y29300606D01*
X17019289Y29388211D01*
X17130789Y29499711D01*
X17218394Y29630821D01*
X17278737Y29776503D01*
X17309500Y29931158D01*
X17309500Y30088842D01*
X17309500Y30088845D01*
X17309499Y30088847D01*
X17297906Y30147130D01*
X17278737Y30243497D01*
X17259224Y30290606D01*
X17218397Y30389173D01*
X17218390Y30389186D01*
X17130789Y30520289D01*
X17130786Y30520293D01*
X17060496Y30590583D01*
X17060492Y30590586D01*
X17019289Y30631789D01*
X16948862Y30678847D01*
X20629500Y30678847D01*
X20629500Y30521154D01*
X20660261Y30366511D01*
X20660264Y30366499D01*
X20720602Y30220828D01*
X20720609Y30220815D01*
X20808210Y30089712D01*
X20808213Y30089708D01*
X20919707Y29978214D01*
X20919711Y29978211D01*
X21050814Y29890610D01*
X21050827Y29890603D01*
X21196498Y29830265D01*
X21196503Y29830263D01*
X21351153Y29799501D01*
X21351156Y29799500D01*
X21351158Y29799500D01*
X21508844Y29799500D01*
X21508845Y29799501D01*
X21663497Y29830263D01*
X21809179Y29890606D01*
X21940289Y29978211D01*
X22051789Y30089711D01*
X22139394Y30220821D01*
X22199737Y30366503D01*
X22230500Y30521158D01*
X22230500Y30678842D01*
X22230500Y30678845D01*
X22230499Y30678847D01*
X22210586Y30778954D01*
X22199737Y30833497D01*
X22188966Y30859500D01*
X22139397Y30979173D01*
X22139390Y30979186D01*
X22051789Y31110289D01*
X22051786Y31110293D01*
X21940292Y31221787D01*
X21940288Y31221790D01*
X21809185Y31309391D01*
X21809172Y31309398D01*
X21663501Y31369736D01*
X21663489Y31369739D01*
X21508845Y31400500D01*
X21508842Y31400500D01*
X21351158Y31400500D01*
X21351155Y31400500D01*
X21196510Y31369739D01*
X21196498Y31369736D01*
X21050827Y31309398D01*
X21050814Y31309391D01*
X20919711Y31221790D01*
X20919707Y31221787D01*
X20808213Y31110293D01*
X20808210Y31110289D01*
X20720609Y30979186D01*
X20720602Y30979173D01*
X20660264Y30833502D01*
X20660261Y30833490D01*
X20629500Y30678847D01*
X16948862Y30678847D01*
X16888179Y30719394D01*
X16881225Y30722275D01*
X16869900Y30730594D01*
X16853868Y30751612D01*
X16835014Y30770132D01*
X16833012Y30778954D01*
X16827525Y30786147D01*
X16825401Y30812495D01*
X16819553Y30838269D01*
X16822638Y30846774D01*
X16821912Y30855791D01*
X16834368Y30879101D01*
X16843384Y30903949D01*
X16850719Y30909701D01*
X16854842Y30917414D01*
X16874661Y30928470D01*
X16895861Y30945090D01*
X16909179Y30950606D01*
X17040289Y31038211D01*
X17151789Y31149711D01*
X17239394Y31280821D01*
X17299737Y31426503D01*
X17306871Y31462366D01*
X17339256Y31524277D01*
X17399971Y31558851D01*
X17469741Y31555112D01*
X17526413Y31514246D01*
X17550105Y31462366D01*
X17551540Y31455152D01*
X17551543Y31455140D01*
X17611881Y31309469D01*
X17611888Y31309456D01*
X17699489Y31178353D01*
X17699492Y31178349D01*
X17810986Y31066855D01*
X17810990Y31066852D01*
X17942093Y30979251D01*
X17942106Y30979244D01*
X18064687Y30928470D01*
X18087782Y30918904D01*
X18183452Y30899874D01*
X18242432Y30888142D01*
X18242435Y30888141D01*
X18242437Y30888141D01*
X18400123Y30888141D01*
X18400124Y30888142D01*
X18554776Y30918904D01*
X18667445Y30965574D01*
X18700451Y30979244D01*
X18700451Y30979245D01*
X18700458Y30979247D01*
X18831568Y31066852D01*
X18943068Y31178352D01*
X19030673Y31309462D01*
X19091016Y31455144D01*
X19121779Y31609799D01*
X19121779Y31767483D01*
X19121779Y31767486D01*
X19105218Y31850742D01*
X19105218Y31850743D01*
X19101617Y31868847D01*
X22673500Y31868847D01*
X22673500Y31711154D01*
X22704261Y31556511D01*
X22704264Y31556499D01*
X22764602Y31410828D01*
X22764609Y31410815D01*
X22852210Y31279712D01*
X22852213Y31279708D01*
X22963707Y31168214D01*
X22963711Y31168211D01*
X23094814Y31080610D01*
X23094827Y31080603D01*
X23140254Y31061787D01*
X23240503Y31020263D01*
X23395153Y30989501D01*
X23395156Y30989500D01*
X23395158Y30989500D01*
X23552844Y30989500D01*
X23552845Y30989501D01*
X23707497Y31020263D01*
X23820166Y31066933D01*
X23853172Y31080603D01*
X23853172Y31080604D01*
X23853179Y31080606D01*
X23984289Y31168211D01*
X24095789Y31279711D01*
X24183394Y31410821D01*
X24243737Y31556503D01*
X24274500Y31711158D01*
X24274500Y31868842D01*
X24274500Y31868845D01*
X24274499Y31868847D01*
X24266371Y31909708D01*
X24243737Y32023497D01*
X24237241Y32039179D01*
X24183397Y32169173D01*
X24183390Y32169186D01*
X24095789Y32300289D01*
X24095786Y32300293D01*
X23984292Y32411787D01*
X23984288Y32411790D01*
X23853185Y32499391D01*
X23853172Y32499398D01*
X23707501Y32559736D01*
X23707489Y32559739D01*
X23552845Y32590500D01*
X23552842Y32590500D01*
X23395158Y32590500D01*
X23395155Y32590500D01*
X23240510Y32559739D01*
X23240498Y32559736D01*
X23094827Y32499398D01*
X23094814Y32499391D01*
X22963711Y32411790D01*
X22963707Y32411787D01*
X22852213Y32300293D01*
X22852210Y32300289D01*
X22764609Y32169186D01*
X22764602Y32169173D01*
X22704264Y32023502D01*
X22704261Y32023490D01*
X22673500Y31868847D01*
X19101617Y31868847D01*
X19093488Y31909711D01*
X19091016Y31922138D01*
X19042539Y32039173D01*
X19030676Y32067814D01*
X19030669Y32067827D01*
X18943068Y32198930D01*
X18943065Y32198934D01*
X18831571Y32310428D01*
X18831567Y32310431D01*
X18700464Y32398032D01*
X18700451Y32398039D01*
X18554780Y32458377D01*
X18554768Y32458380D01*
X18400124Y32489141D01*
X18400121Y32489141D01*
X18242437Y32489141D01*
X18242434Y32489141D01*
X18087789Y32458380D01*
X18087777Y32458377D01*
X17942106Y32398039D01*
X17942093Y32398032D01*
X17810990Y32310431D01*
X17810986Y32310428D01*
X17699492Y32198934D01*
X17699489Y32198930D01*
X17611888Y32067827D01*
X17611881Y32067814D01*
X17551543Y31922143D01*
X17551541Y31922135D01*
X17544407Y31886273D01*
X17512020Y31824362D01*
X17451304Y31789790D01*
X17381534Y31793531D01*
X17324863Y31834399D01*
X17301172Y31886280D01*
X17299737Y31893497D01*
X17293021Y31909712D01*
X17239397Y32039173D01*
X17239390Y32039186D01*
X17151789Y32170289D01*
X17151786Y32170293D01*
X17040292Y32281787D01*
X17040288Y32281790D01*
X16909185Y32369391D01*
X16909172Y32369398D01*
X16763501Y32429736D01*
X16763492Y32429738D01*
X16752554Y32431914D01*
X16690644Y32464300D01*
X16656070Y32525016D01*
X16659811Y32594785D01*
X16673640Y32622415D01*
X16739394Y32720821D01*
X16739576Y32721259D01*
X16771851Y32799179D01*
X16799737Y32866503D01*
X16830500Y33021158D01*
X16830500Y33178842D01*
X16830500Y33178845D01*
X16830499Y33178847D01*
X16824402Y33209500D01*
X16799737Y33333497D01*
X16799718Y33333544D01*
X16739397Y33479173D01*
X16739390Y33479186D01*
X16651789Y33610289D01*
X16651786Y33610293D01*
X16540292Y33721787D01*
X16540288Y33721790D01*
X16409185Y33809391D01*
X16409172Y33809398D01*
X16263501Y33869736D01*
X16263489Y33869739D01*
X16108845Y33900500D01*
X16108842Y33900500D01*
X15951158Y33900500D01*
X15951155Y33900500D01*
X15796510Y33869739D01*
X15796498Y33869736D01*
X15650827Y33809398D01*
X15650814Y33809391D01*
X15519711Y33721790D01*
X15519707Y33721787D01*
X15408213Y33610293D01*
X15408210Y33610289D01*
X15320609Y33479186D01*
X15320602Y33479173D01*
X15260264Y33333502D01*
X15260261Y33333490D01*
X15229500Y33178847D01*
X11876110Y33178847D01*
X11883692Y33197152D01*
X11885742Y33207459D01*
X11886074Y33209125D01*
X11886074Y33209126D01*
X11914455Y33351805D01*
X11914455Y33509494D01*
X11914454Y33509496D01*
X11890322Y33630815D01*
X11883692Y33664146D01*
X11865146Y33708921D01*
X11823352Y33809822D01*
X11823345Y33809835D01*
X11735744Y33940938D01*
X11735741Y33940942D01*
X11624247Y34052436D01*
X11624243Y34052439D01*
X11493140Y34140040D01*
X11493127Y34140047D01*
X11347456Y34200385D01*
X11347444Y34200388D01*
X11192800Y34231149D01*
X11192797Y34231149D01*
X11035113Y34231149D01*
X11035110Y34231149D01*
X10880465Y34200388D01*
X10880453Y34200385D01*
X10734782Y34140047D01*
X10734769Y34140040D01*
X10603666Y34052439D01*
X10603662Y34052436D01*
X10543099Y33991872D01*
X10481776Y33958387D01*
X10412084Y33963371D01*
X10356151Y34005243D01*
X10332671Y34068194D01*
X10332015Y34068129D01*
X10331770Y34070609D01*
X10331734Y34070707D01*
X10331718Y34071140D01*
X10331418Y34074184D01*
X10331418Y34074189D01*
X10300655Y34228844D01*
X10297898Y34235500D01*
X10240315Y34374520D01*
X10240308Y34374533D01*
X10152707Y34505636D01*
X10152704Y34505640D01*
X10041210Y34617134D01*
X10041206Y34617137D01*
X9910103Y34704738D01*
X9910090Y34704745D01*
X9764419Y34765083D01*
X9764407Y34765086D01*
X9609763Y34795847D01*
X9609760Y34795847D01*
X9452076Y34795847D01*
X9452073Y34795847D01*
X9297428Y34765086D01*
X9297416Y34765083D01*
X9151745Y34704745D01*
X9151732Y34704738D01*
X9020632Y34617139D01*
X9020629Y34617137D01*
X9011357Y34607865D01*
X8950031Y34574385D01*
X8899492Y34573935D01*
X8897229Y34574385D01*
X8872243Y34579355D01*
X8833813Y34586999D01*
X8676129Y34586999D01*
X8676126Y34586999D01*
X8521481Y34556238D01*
X8521469Y34556235D01*
X8375798Y34495897D01*
X8375785Y34495890D01*
X8244682Y34408289D01*
X8175651Y34339258D01*
X8114327Y34305774D01*
X8044636Y34310759D01*
X7988702Y34352630D01*
X7973410Y34379486D01*
X7969398Y34389171D01*
X7969390Y34389186D01*
X7881789Y34520289D01*
X7881786Y34520293D01*
X7770292Y34631787D01*
X7770288Y34631790D01*
X7639185Y34719391D01*
X7639172Y34719398D01*
X7493501Y34779736D01*
X7493489Y34779739D01*
X7338845Y34810500D01*
X7338842Y34810500D01*
X7181158Y34810500D01*
X7181155Y34810500D01*
X7026510Y34779739D01*
X7026498Y34779736D01*
X6880827Y34719398D01*
X6880814Y34719391D01*
X6749711Y34631790D01*
X6749707Y34631787D01*
X6638213Y34520293D01*
X6638210Y34520289D01*
X6550609Y34389186D01*
X6550602Y34389173D01*
X6490264Y34243502D01*
X6490261Y34243490D01*
X6459500Y34088847D01*
X2850016Y34088847D01*
X2872193Y34142386D01*
X2872193Y34142387D01*
X2901570Y34213311D01*
X2901572Y34213319D01*
X2939999Y34406505D01*
X2940000Y34406508D01*
X2940000Y34603492D01*
X2939999Y34603496D01*
X2901572Y34796682D01*
X2901569Y34796694D01*
X2826192Y34978672D01*
X2802572Y35014021D01*
X2265000Y34476449D01*
X2265000Y34547787D01*
X2242851Y34630445D01*
X2200064Y34704554D01*
X2139554Y34765064D01*
X2065445Y34807851D01*
X1982787Y34830000D01*
X1897213Y34830000D01*
X1814555Y34807851D01*
X1740446Y34765064D01*
X1679936Y34704554D01*
X1637149Y34630445D01*
X1615000Y34547787D01*
X1615000Y34476448D01*
X1077426Y35014022D01*
X1077426Y35014021D01*
X1053813Y34978682D01*
X1053809Y34978675D01*
X978429Y34796690D01*
X978427Y34796682D01*
X940000Y34603496D01*
X940000Y34406505D01*
X978427Y34213319D01*
X978430Y34213307D01*
X1053807Y34031329D01*
X1053814Y34031316D01*
X1115270Y33939341D01*
X1136148Y33872663D01*
X1117663Y33805283D01*
X1115271Y33801560D01*
X1053370Y33708918D01*
X1053364Y33708907D01*
X977950Y33526840D01*
X977947Y33526830D01*
X939500Y33333544D01*
X939500Y33333541D01*
X939500Y33136459D01*
X939500Y33136457D01*
X939499Y33136457D01*
X500500Y33136457D01*
X500500Y35367574D01*
X1430978Y35367574D01*
X1940000Y34858554D01*
X1940001Y34858554D01*
X2449020Y35367574D01*
X2413675Y35391191D01*
X2413673Y35391192D01*
X2231693Y35466570D01*
X2231681Y35466573D01*
X2038495Y35505000D01*
X1841504Y35505000D01*
X1648318Y35466573D01*
X1648310Y35466571D01*
X1466325Y35391191D01*
X1466318Y35391187D01*
X1430979Y35367574D01*
X1430978Y35367574D01*
X500500Y35367574D01*
X500500Y35737823D01*
X14732487Y35737823D01*
X14732487Y35580130D01*
X14763248Y35425487D01*
X14763251Y35425475D01*
X14823589Y35279804D01*
X14823596Y35279791D01*
X14911197Y35148688D01*
X14911200Y35148684D01*
X15022694Y35037190D01*
X15022698Y35037187D01*
X15153801Y34949586D01*
X15153814Y34949579D01*
X15299485Y34889241D01*
X15299490Y34889239D01*
X15453753Y34858554D01*
X15454140Y34858477D01*
X15454143Y34858476D01*
X15454145Y34858476D01*
X15611831Y34858476D01*
X15611832Y34858477D01*
X15766484Y34889239D01*
X15912166Y34949582D01*
X16043276Y35037187D01*
X16043463Y35037374D01*
X23389500Y35037374D01*
X23389500Y34879681D01*
X23420261Y34725038D01*
X23420264Y34725026D01*
X23480602Y34579355D01*
X23480609Y34579342D01*
X23568210Y34448239D01*
X23568213Y34448235D01*
X23679707Y34336741D01*
X23679711Y34336738D01*
X23810814Y34249137D01*
X23810827Y34249130D01*
X23928510Y34200385D01*
X23956503Y34188790D01*
X24111153Y34158028D01*
X24111156Y34158027D01*
X24111158Y34158027D01*
X24268844Y34158027D01*
X24268845Y34158028D01*
X24423497Y34188790D01*
X24536266Y34235500D01*
X24569172Y34249130D01*
X24569172Y34249131D01*
X24569179Y34249133D01*
X24700289Y34336738D01*
X24811789Y34448238D01*
X24899394Y34579348D01*
X24959737Y34725030D01*
X24990500Y34879685D01*
X24990500Y35037369D01*
X24990500Y35037372D01*
X24990499Y35037374D01*
X24959738Y35192017D01*
X24959737Y35192024D01*
X24923378Y35279804D01*
X24899397Y35337700D01*
X24899390Y35337713D01*
X24811789Y35468816D01*
X24811786Y35468820D01*
X24700292Y35580314D01*
X24700288Y35580317D01*
X24569185Y35667918D01*
X24569172Y35667925D01*
X24423501Y35728263D01*
X24423489Y35728266D01*
X24268845Y35759027D01*
X24268842Y35759027D01*
X24111158Y35759027D01*
X24111155Y35759027D01*
X23956510Y35728266D01*
X23956498Y35728263D01*
X23810827Y35667925D01*
X23810814Y35667918D01*
X23679711Y35580317D01*
X23679707Y35580314D01*
X23568213Y35468820D01*
X23568210Y35468816D01*
X23480609Y35337713D01*
X23480602Y35337700D01*
X23420264Y35192029D01*
X23420261Y35192017D01*
X23389500Y35037374D01*
X16043463Y35037374D01*
X16137232Y35131142D01*
X16154773Y35148684D01*
X16154776Y35148687D01*
X16242381Y35279797D01*
X16302724Y35425479D01*
X16323039Y35527610D01*
X16355423Y35589520D01*
X16397199Y35617977D01*
X16469179Y35647791D01*
X16600289Y35735396D01*
X16711789Y35846896D01*
X16775132Y35941697D01*
X16828743Y35986501D01*
X16854043Y35994422D01*
X16895718Y36002712D01*
X16994902Y36022441D01*
X17140584Y36082784D01*
X17271694Y36170389D01*
X17383194Y36281889D01*
X17470799Y36412999D01*
X17531142Y36558681D01*
X17537739Y36591847D01*
X18216574Y36591847D01*
X18216574Y36434154D01*
X18247335Y36279511D01*
X18247338Y36279499D01*
X18307676Y36133828D01*
X18307683Y36133815D01*
X18395284Y36002712D01*
X18395287Y36002708D01*
X18506781Y35891214D01*
X18506785Y35891211D01*
X18637888Y35803610D01*
X18637901Y35803603D01*
X18745519Y35759027D01*
X18783577Y35743263D01*
X18938227Y35712501D01*
X18938230Y35712500D01*
X18938232Y35712500D01*
X19095918Y35712500D01*
X19095919Y35712501D01*
X19250571Y35743263D01*
X19389515Y35800815D01*
X19396246Y35803603D01*
X19396246Y35803604D01*
X19396253Y35803606D01*
X19527363Y35891211D01*
X19638863Y36002711D01*
X19726468Y36133821D01*
X19778255Y36258847D01*
X20939500Y36258847D01*
X20939500Y36101154D01*
X20970261Y35946511D01*
X20970264Y35946499D01*
X21030602Y35800828D01*
X21030609Y35800815D01*
X21118210Y35669712D01*
X21118213Y35669708D01*
X21229707Y35558214D01*
X21229711Y35558211D01*
X21360814Y35470610D01*
X21360827Y35470603D01*
X21506498Y35410265D01*
X21506503Y35410263D01*
X21661153Y35379501D01*
X21661156Y35379500D01*
X21661158Y35379500D01*
X21818844Y35379500D01*
X21818845Y35379501D01*
X21973497Y35410263D01*
X22109438Y35466571D01*
X22119172Y35470603D01*
X22119172Y35470604D01*
X22119179Y35470606D01*
X22250289Y35558211D01*
X22361789Y35669711D01*
X22449394Y35800821D01*
X22453197Y35810001D01*
X22509735Y35946499D01*
X22509737Y35946503D01*
X22540500Y36101158D01*
X22540500Y36258842D01*
X22540500Y36258845D01*
X22540499Y36258847D01*
X22516238Y36380815D01*
X22509737Y36413497D01*
X22482602Y36479007D01*
X22449397Y36559173D01*
X22449390Y36559186D01*
X22361789Y36690289D01*
X22361786Y36690293D01*
X22250292Y36801787D01*
X22250288Y36801790D01*
X22119185Y36889391D01*
X22119172Y36889398D01*
X21973501Y36949736D01*
X21973489Y36949739D01*
X21818845Y36980500D01*
X21818842Y36980500D01*
X21661158Y36980500D01*
X21661155Y36980500D01*
X21506510Y36949739D01*
X21506498Y36949736D01*
X21360827Y36889398D01*
X21360814Y36889391D01*
X21229711Y36801790D01*
X21229707Y36801787D01*
X21118213Y36690293D01*
X21118210Y36690289D01*
X21030609Y36559186D01*
X21030602Y36559173D01*
X20970264Y36413502D01*
X20970261Y36413490D01*
X20939500Y36258847D01*
X19778255Y36258847D01*
X19786811Y36279503D01*
X19804488Y36368370D01*
X19809265Y36392385D01*
X19841650Y36454296D01*
X19877933Y36479007D01*
X19877573Y36479682D01*
X19882932Y36482548D01*
X19882944Y36482552D01*
X20014054Y36570157D01*
X20125554Y36681657D01*
X20213159Y36812767D01*
X20273502Y36958449D01*
X20304265Y37113104D01*
X20304265Y37270788D01*
X20304265Y37270791D01*
X20304264Y37270793D01*
X20288605Y37349516D01*
X20273502Y37425443D01*
X20264381Y37447463D01*
X20213162Y37571119D01*
X20213155Y37571132D01*
X20125554Y37702235D01*
X20125551Y37702239D01*
X20079051Y37748738D01*
X20045565Y37810061D01*
X20045116Y37860620D01*
X20047111Y37870648D01*
X20047111Y38028332D01*
X20047111Y38028335D01*
X20019473Y38167277D01*
X20025700Y38236869D01*
X20068563Y38292046D01*
X20134452Y38315291D01*
X20202450Y38299223D01*
X20224975Y38282045D01*
X20225001Y38282076D01*
X20225878Y38281357D01*
X20228771Y38279150D01*
X20229707Y38278214D01*
X20229711Y38278211D01*
X20360814Y38190610D01*
X20360827Y38190603D01*
X20492621Y38136013D01*
X20506503Y38130263D01*
X20661153Y38099501D01*
X20661156Y38099500D01*
X20661158Y38099500D01*
X20818844Y38099500D01*
X20818845Y38099501D01*
X20973497Y38130263D01*
X21119179Y38190606D01*
X21250289Y38278211D01*
X21361789Y38389711D01*
X21449394Y38520821D01*
X21509737Y38666503D01*
X21540500Y38821158D01*
X21540500Y38978842D01*
X21540500Y38978845D01*
X21540499Y38978847D01*
X21514574Y39109179D01*
X21509737Y39133497D01*
X21465501Y39240293D01*
X21449397Y39279173D01*
X21449390Y39279186D01*
X21361789Y39410289D01*
X21361786Y39410293D01*
X21250292Y39521787D01*
X21250288Y39521790D01*
X21119185Y39609391D01*
X21119172Y39609398D01*
X20973501Y39669736D01*
X20973489Y39669739D01*
X20818845Y39700500D01*
X20818842Y39700500D01*
X20661158Y39700500D01*
X20661155Y39700500D01*
X20506510Y39669739D01*
X20506498Y39669736D01*
X20360827Y39609398D01*
X20360814Y39609391D01*
X20229711Y39521790D01*
X20229707Y39521787D01*
X20118213Y39410293D01*
X20118210Y39410289D01*
X20030609Y39279186D01*
X20030602Y39279173D01*
X19970264Y39133502D01*
X19970261Y39133490D01*
X19939500Y38978847D01*
X19939500Y38821154D01*
X19967137Y38682213D01*
X19960910Y38612621D01*
X19918047Y38557444D01*
X19852157Y38534200D01*
X19784160Y38550268D01*
X19761635Y38567446D01*
X19761610Y38567414D01*
X19760728Y38568138D01*
X19757839Y38570341D01*
X19756903Y38571277D01*
X19756899Y38571280D01*
X19625796Y38658881D01*
X19625783Y38658888D01*
X19480112Y38719226D01*
X19480100Y38719229D01*
X19325456Y38749990D01*
X19325453Y38749990D01*
X19167769Y38749990D01*
X19167766Y38749990D01*
X19013121Y38719229D01*
X19013109Y38719226D01*
X18867438Y38658888D01*
X18867425Y38658881D01*
X18736322Y38571280D01*
X18736318Y38571277D01*
X18624824Y38459783D01*
X18624821Y38459779D01*
X18537220Y38328676D01*
X18537213Y38328663D01*
X18476875Y38182992D01*
X18476872Y38182980D01*
X18446111Y38028337D01*
X18446111Y37870644D01*
X18476872Y37716001D01*
X18476875Y37715989D01*
X18537213Y37570318D01*
X18537220Y37570305D01*
X18624821Y37439202D01*
X18624824Y37439198D01*
X18653183Y37410839D01*
X18686668Y37349516D01*
X18681684Y37279824D01*
X18639812Y37223891D01*
X18634394Y37220056D01*
X18506781Y37134787D01*
X18395287Y37023293D01*
X18395284Y37023289D01*
X18307683Y36892186D01*
X18307676Y36892173D01*
X18247338Y36746502D01*
X18247335Y36746490D01*
X18216574Y36591847D01*
X17537739Y36591847D01*
X17555504Y36681156D01*
X17561905Y36713334D01*
X17561905Y36871023D01*
X17561904Y36871025D01*
X17544514Y36958449D01*
X17531142Y37025675D01*
X17531140Y37025680D01*
X17470802Y37171351D01*
X17470795Y37171364D01*
X17383194Y37302467D01*
X17383191Y37302471D01*
X17271697Y37413965D01*
X17271693Y37413968D01*
X17140590Y37501569D01*
X17140577Y37501576D01*
X16994906Y37561914D01*
X16994894Y37561917D01*
X16840250Y37592678D01*
X16840247Y37592678D01*
X16682563Y37592678D01*
X16682560Y37592678D01*
X16527915Y37561917D01*
X16527903Y37561914D01*
X16382232Y37501576D01*
X16382219Y37501569D01*
X16251116Y37413968D01*
X16251112Y37413965D01*
X16139618Y37302471D01*
X16139615Y37302467D01*
X16076272Y37207668D01*
X16022659Y37162863D01*
X15997362Y37154942D01*
X15856508Y37126924D01*
X15856498Y37126921D01*
X15710827Y37066583D01*
X15710814Y37066576D01*
X15579711Y36978975D01*
X15579707Y36978972D01*
X15468213Y36867478D01*
X15468210Y36867474D01*
X15380609Y36736371D01*
X15380602Y36736358D01*
X15320264Y36590687D01*
X15320261Y36590677D01*
X15299947Y36488553D01*
X15267562Y36426642D01*
X15225784Y36398184D01*
X15153808Y36368370D01*
X15153801Y36368367D01*
X15022698Y36280766D01*
X15022694Y36280763D01*
X14911200Y36169269D01*
X14911197Y36169265D01*
X14823596Y36038162D01*
X14823589Y36038149D01*
X14763251Y35892478D01*
X14763248Y35892466D01*
X14732487Y35737823D01*
X500500Y35737823D01*
X500500Y37060000D01*
X1245138Y37060000D01*
X2048012Y37060000D01*
X2030795Y37050060D01*
X1974940Y36994205D01*
X1935444Y36925796D01*
X1915000Y36849496D01*
X1915000Y36770504D01*
X1935444Y36694204D01*
X1974940Y36625795D01*
X2030795Y36569940D01*
X2048012Y36560000D01*
X1245138Y36560000D01*
X1253430Y36518310D01*
X1253430Y36518308D01*
X1328807Y36336329D01*
X1328814Y36336316D01*
X1438248Y36172538D01*
X1438251Y36172534D01*
X1577533Y36033252D01*
X1577537Y36033249D01*
X1741315Y35923815D01*
X1741328Y35923808D01*
X1923306Y35848431D01*
X1923318Y35848428D01*
X2116504Y35810001D01*
X2116508Y35810000D01*
X2365000Y35810000D01*
X2365000Y36510000D01*
X2865000Y36510000D01*
X2865000Y35810000D01*
X3113492Y35810000D01*
X3113495Y35810001D01*
X3306681Y35848428D01*
X3306693Y35848431D01*
X3488671Y35923808D01*
X3488684Y35923815D01*
X3652462Y36033249D01*
X3652466Y36033252D01*
X3791748Y36172534D01*
X3791751Y36172538D01*
X3901185Y36336316D01*
X3901192Y36336329D01*
X3976569Y36518308D01*
X3976569Y36518310D01*
X3984862Y36560000D01*
X3181988Y36560000D01*
X3199205Y36569940D01*
X3255060Y36625795D01*
X3294556Y36694204D01*
X3315000Y36770504D01*
X3315000Y36849496D01*
X3294556Y36925796D01*
X3255060Y36994205D01*
X3199205Y37050060D01*
X3181988Y37060000D01*
X3984862Y37060000D01*
X5275138Y37060000D01*
X6078012Y37060000D01*
X6060795Y37050060D01*
X6004940Y36994205D01*
X5965444Y36925796D01*
X5945000Y36849496D01*
X5945000Y36770504D01*
X5965444Y36694204D01*
X6004940Y36625795D01*
X6060795Y36569940D01*
X6078012Y36560000D01*
X5275138Y36560000D01*
X5283430Y36518310D01*
X5283430Y36518308D01*
X5358807Y36336329D01*
X5358814Y36336316D01*
X5468248Y36172538D01*
X5468251Y36172534D01*
X5607533Y36033252D01*
X5607537Y36033249D01*
X5771315Y35923815D01*
X5771328Y35923808D01*
X5953306Y35848431D01*
X5953318Y35848428D01*
X6146504Y35810001D01*
X6146508Y35810000D01*
X6545000Y35810000D01*
X6545000Y36510000D01*
X7045000Y36510000D01*
X7045000Y35810000D01*
X7443492Y35810000D01*
X7443495Y35810001D01*
X7636681Y35848428D01*
X7636689Y35848430D01*
X7660932Y35858471D01*
X7660933Y35858472D01*
X7818671Y35923808D01*
X7818684Y35923815D01*
X7982462Y36033249D01*
X7982466Y36033252D01*
X8121748Y36172534D01*
X8121751Y36172538D01*
X8231185Y36336316D01*
X8231192Y36336329D01*
X8306569Y36518308D01*
X8306569Y36518310D01*
X8314862Y36560000D01*
X7511988Y36560000D01*
X7529205Y36569940D01*
X7585060Y36625795D01*
X7624556Y36694204D01*
X7645000Y36770504D01*
X7645000Y36838847D01*
X13139500Y36838847D01*
X13139500Y36681154D01*
X13170261Y36526511D01*
X13170264Y36526499D01*
X13230602Y36380828D01*
X13230609Y36380815D01*
X13318210Y36249712D01*
X13318213Y36249708D01*
X13429707Y36138214D01*
X13429711Y36138211D01*
X13560814Y36050610D01*
X13560827Y36050603D01*
X13696462Y35994422D01*
X13706503Y35990263D01*
X13861153Y35959501D01*
X13861156Y35959500D01*
X13861158Y35959500D01*
X14018844Y35959500D01*
X14018845Y35959501D01*
X14173497Y35990263D01*
X14319179Y36050606D01*
X14450289Y36138211D01*
X14561789Y36249711D01*
X14649394Y36380821D01*
X14709737Y36526503D01*
X14740500Y36681158D01*
X14740500Y36838842D01*
X14740500Y36838845D01*
X14740499Y36838847D01*
X14730445Y36889391D01*
X14709737Y36993497D01*
X14697395Y37023293D01*
X14649397Y37139173D01*
X14649390Y37139186D01*
X14561789Y37270289D01*
X14561786Y37270293D01*
X14450292Y37381787D01*
X14450288Y37381790D01*
X14319185Y37469391D01*
X14319172Y37469398D01*
X14173501Y37529736D01*
X14173489Y37529739D01*
X14018845Y37560500D01*
X14018842Y37560500D01*
X13861158Y37560500D01*
X13861155Y37560500D01*
X13706510Y37529739D01*
X13706498Y37529736D01*
X13560827Y37469398D01*
X13560814Y37469391D01*
X13429711Y37381790D01*
X13429707Y37381787D01*
X13318213Y37270293D01*
X13318210Y37270289D01*
X13230609Y37139186D01*
X13230602Y37139173D01*
X13170264Y36993502D01*
X13170261Y36993490D01*
X13139500Y36838847D01*
X7645000Y36838847D01*
X7645000Y36849496D01*
X7624556Y36925796D01*
X7585060Y36994205D01*
X7529205Y37050060D01*
X7511988Y37060000D01*
X8314862Y37060000D01*
X8306569Y37101691D01*
X8306569Y37101693D01*
X8231192Y37283672D01*
X8231185Y37283685D01*
X8121751Y37447463D01*
X8121748Y37447467D01*
X7982466Y37586749D01*
X7982462Y37586752D01*
X7818684Y37696186D01*
X7818671Y37696193D01*
X7636693Y37771570D01*
X7636681Y37771573D01*
X7443495Y37810000D01*
X7045000Y37810000D01*
X7045000Y37110000D01*
X6545000Y37110000D01*
X6545000Y37648216D01*
X6564685Y37715255D01*
X6607000Y37755603D01*
X6648365Y37779485D01*
X6755515Y37886635D01*
X6756372Y37888121D01*
X6776721Y37923363D01*
X6831279Y38017862D01*
X6831281Y38017865D01*
X6870500Y38164234D01*
X6870500Y38315766D01*
X6831281Y38462135D01*
X6755515Y38593365D01*
X6648365Y38700515D01*
X6562672Y38749990D01*
X6517136Y38776281D01*
X6395614Y38808842D01*
X6395595Y38808847D01*
X7499500Y38808847D01*
X7499500Y38651154D01*
X7530261Y38496511D01*
X7530264Y38496499D01*
X7590602Y38350828D01*
X7590609Y38350815D01*
X7678210Y38219712D01*
X7678213Y38219708D01*
X7789707Y38108214D01*
X7789711Y38108211D01*
X7920814Y38020610D01*
X7920827Y38020603D01*
X8066498Y37960265D01*
X8066503Y37960263D01*
X8221153Y37929501D01*
X8221156Y37929500D01*
X8221158Y37929500D01*
X8378844Y37929500D01*
X8378845Y37929501D01*
X8533497Y37960263D01*
X8646166Y38006933D01*
X8679172Y38020603D01*
X8679172Y38020604D01*
X8679179Y38020606D01*
X8810289Y38108211D01*
X8921789Y38219711D01*
X9009394Y38350821D01*
X9069737Y38496503D01*
X9100500Y38651158D01*
X9100500Y38808842D01*
X9100500Y38808845D01*
X9100499Y38808847D01*
X9069738Y38963490D01*
X9069737Y38963497D01*
X9048255Y39015360D01*
X13129500Y39015360D01*
X13129500Y38857667D01*
X13160261Y38703024D01*
X13160264Y38703012D01*
X13220602Y38557341D01*
X13220609Y38557328D01*
X13308210Y38426225D01*
X13308213Y38426221D01*
X13419707Y38314727D01*
X13419711Y38314724D01*
X13550814Y38227123D01*
X13550827Y38227116D01*
X13695293Y38167277D01*
X13696503Y38166776D01*
X13851153Y38136014D01*
X13851156Y38136013D01*
X13851158Y38136013D01*
X14008844Y38136013D01*
X14008845Y38136014D01*
X14163497Y38166776D01*
X14309179Y38227119D01*
X14440289Y38314724D01*
X14551789Y38426224D01*
X14639394Y38557334D01*
X14643583Y38567446D01*
X14699735Y38703012D01*
X14699737Y38703016D01*
X14730500Y38857671D01*
X14730500Y39015355D01*
X14730500Y39015358D01*
X14730499Y39015360D01*
X14711837Y39109179D01*
X14699737Y39170010D01*
X14654518Y39279179D01*
X14639397Y39315686D01*
X14639390Y39315699D01*
X14551789Y39446802D01*
X14551786Y39446806D01*
X14440292Y39558300D01*
X14440288Y39558303D01*
X14309185Y39645904D01*
X14309172Y39645911D01*
X14163501Y39706249D01*
X14163489Y39706252D01*
X14008845Y39737013D01*
X14008842Y39737013D01*
X13851158Y39737013D01*
X13851155Y39737013D01*
X13696510Y39706252D01*
X13696498Y39706249D01*
X13550827Y39645911D01*
X13550814Y39645904D01*
X13419711Y39558303D01*
X13419707Y39558300D01*
X13308213Y39446806D01*
X13308210Y39446802D01*
X13220609Y39315699D01*
X13220602Y39315686D01*
X13160264Y39170015D01*
X13160261Y39170003D01*
X13129500Y39015360D01*
X9048255Y39015360D01*
X9009397Y39109173D01*
X9009390Y39109186D01*
X8921789Y39240289D01*
X8921786Y39240293D01*
X8810292Y39351787D01*
X8810288Y39351790D01*
X8679185Y39439391D01*
X8679172Y39439398D01*
X8533501Y39499736D01*
X8533489Y39499739D01*
X8378845Y39530500D01*
X8378842Y39530500D01*
X8221158Y39530500D01*
X8221155Y39530500D01*
X8066510Y39499739D01*
X8066498Y39499736D01*
X7920827Y39439398D01*
X7920814Y39439391D01*
X7789711Y39351790D01*
X7789707Y39351787D01*
X7678213Y39240293D01*
X7678210Y39240289D01*
X7590609Y39109186D01*
X7590602Y39109173D01*
X7530264Y38963502D01*
X7530261Y38963490D01*
X7499500Y38808847D01*
X6395595Y38808847D01*
X6370766Y38815500D01*
X6219234Y38815500D01*
X6072863Y38776281D01*
X5941635Y38700515D01*
X5941632Y38700513D01*
X5834487Y38593368D01*
X5834485Y38593365D01*
X5758719Y38462137D01*
X5739313Y38389711D01*
X5719500Y38315766D01*
X5719500Y38164234D01*
X5728603Y38130262D01*
X5758719Y38017864D01*
X5791976Y37960263D01*
X5834485Y37886635D01*
X5834486Y37886634D01*
X5838549Y37879597D01*
X5836346Y37878326D01*
X5856959Y37825017D01*
X5842923Y37756572D01*
X5794112Y37706580D01*
X5780845Y37700134D01*
X5771324Y37696191D01*
X5771315Y37696186D01*
X5607537Y37586752D01*
X5607533Y37586749D01*
X5468251Y37447467D01*
X5468248Y37447463D01*
X5358814Y37283685D01*
X5358807Y37283672D01*
X5283430Y37101693D01*
X5283430Y37101691D01*
X5275138Y37060000D01*
X3984862Y37060000D01*
X3976569Y37101691D01*
X3976569Y37101693D01*
X3901192Y37283672D01*
X3901185Y37283685D01*
X3791751Y37447463D01*
X3791748Y37447467D01*
X3652466Y37586749D01*
X3652462Y37586752D01*
X3488684Y37696186D01*
X3488671Y37696193D01*
X3306693Y37771570D01*
X3306681Y37771573D01*
X3113495Y37810000D01*
X2865000Y37810000D01*
X2865000Y37110000D01*
X2365000Y37110000D01*
X2365000Y37810000D01*
X2116504Y37810000D01*
X1923318Y37771573D01*
X1923306Y37771570D01*
X1741328Y37696193D01*
X1741315Y37696186D01*
X1577537Y37586752D01*
X1577533Y37586749D01*
X1438251Y37447467D01*
X1438248Y37447463D01*
X1328814Y37283685D01*
X1328807Y37283672D01*
X1253430Y37101693D01*
X1253430Y37101691D01*
X1245138Y37060000D01*
X500500Y37060000D01*
X500500Y41040746D01*
X8525649Y41040746D01*
X8525649Y40883053D01*
X8556410Y40728410D01*
X8556413Y40728398D01*
X8616751Y40582727D01*
X8616758Y40582714D01*
X8704359Y40451611D01*
X8704362Y40451607D01*
X8815856Y40340113D01*
X8815861Y40340109D01*
X8854389Y40314366D01*
X8899195Y40260755D01*
X8909500Y40211263D01*
X8909500Y40181154D01*
X8940261Y40026511D01*
X8940264Y40026499D01*
X9000602Y39880828D01*
X9000609Y39880815D01*
X9088210Y39749712D01*
X9088213Y39749708D01*
X9199707Y39638214D01*
X9199711Y39638211D01*
X9330814Y39550610D01*
X9330827Y39550603D01*
X9453633Y39499736D01*
X9476503Y39490263D01*
X9631153Y39459501D01*
X9631156Y39459500D01*
X9631158Y39459500D01*
X9788844Y39459500D01*
X9788845Y39459501D01*
X9943497Y39490263D01*
X10089179Y39550606D01*
X10220289Y39638211D01*
X10331789Y39749711D01*
X10419394Y39880821D01*
X10479737Y40026503D01*
X10510500Y40181158D01*
X10510500Y40338842D01*
X10510500Y40338845D01*
X10510499Y40338847D01*
X10488069Y40451610D01*
X10479737Y40493497D01*
X10479735Y40493502D01*
X10419397Y40639173D01*
X10419395Y40639177D01*
X10419394Y40639179D01*
X10359772Y40728410D01*
X10332753Y40768847D01*
X27378500Y40768847D01*
X27378500Y40611154D01*
X27409261Y40456511D01*
X27409264Y40456499D01*
X27469602Y40310828D01*
X27469609Y40310815D01*
X27557210Y40179712D01*
X27557213Y40179708D01*
X27668707Y40068214D01*
X27668711Y40068211D01*
X27799814Y39980610D01*
X27799827Y39980603D01*
X27945498Y39920265D01*
X27945503Y39920263D01*
X28100153Y39889501D01*
X28100156Y39889500D01*
X28100158Y39889500D01*
X28257844Y39889500D01*
X28257845Y39889501D01*
X28412497Y39920263D01*
X28558179Y39980606D01*
X28689289Y40068211D01*
X28800789Y40179711D01*
X28888394Y40310821D01*
X28948737Y40456503D01*
X28979500Y40611158D01*
X28979500Y40768842D01*
X28979500Y40768845D01*
X28979499Y40768847D01*
X28979212Y40770290D01*
X28948737Y40923497D01*
X28933141Y40961150D01*
X28888397Y41069173D01*
X28888390Y41069186D01*
X28800789Y41200289D01*
X28800786Y41200293D01*
X28689292Y41311787D01*
X28689288Y41311790D01*
X28558185Y41399391D01*
X28558172Y41399398D01*
X28412501Y41459736D01*
X28412489Y41459739D01*
X28257845Y41490500D01*
X28257842Y41490500D01*
X28100158Y41490500D01*
X28100155Y41490500D01*
X27945510Y41459739D01*
X27945498Y41459736D01*
X27799827Y41399398D01*
X27799814Y41399391D01*
X27668711Y41311790D01*
X27668707Y41311787D01*
X27557213Y41200293D01*
X27557210Y41200289D01*
X27469609Y41069186D01*
X27469602Y41069173D01*
X27409264Y40923502D01*
X27409261Y40923490D01*
X27378500Y40768847D01*
X10332753Y40768847D01*
X10331789Y40770290D01*
X10220292Y40881787D01*
X10220285Y40881792D01*
X10181757Y40907537D01*
X10136952Y40961150D01*
X10126649Y41010638D01*
X10126649Y41040744D01*
X10126648Y41040746D01*
X10095887Y41195389D01*
X10095886Y41195396D01*
X10047675Y41311789D01*
X10035546Y41341072D01*
X10035539Y41341085D01*
X9947938Y41472188D01*
X9947935Y41472192D01*
X9836441Y41583686D01*
X9836437Y41583689D01*
X9705334Y41671290D01*
X9705321Y41671297D01*
X9559650Y41731635D01*
X9559638Y41731638D01*
X9404994Y41762399D01*
X9404991Y41762399D01*
X9247307Y41762399D01*
X9247304Y41762399D01*
X9092659Y41731638D01*
X9092647Y41731635D01*
X8946976Y41671297D01*
X8946963Y41671290D01*
X8815860Y41583689D01*
X8815856Y41583686D01*
X8704362Y41472192D01*
X8704359Y41472188D01*
X8616758Y41341085D01*
X8616751Y41341072D01*
X8556413Y41195401D01*
X8556410Y41195389D01*
X8525649Y41040746D01*
X500500Y41040746D01*
X500500Y45700000D01*
X1245138Y45700000D01*
X2048012Y45700000D01*
X2030795Y45690060D01*
X1974940Y45634205D01*
X1935444Y45565796D01*
X1915000Y45489496D01*
X1915000Y45410504D01*
X1935444Y45334204D01*
X1974940Y45265795D01*
X2030795Y45209940D01*
X2048012Y45200000D01*
X1245138Y45200000D01*
X1253430Y45158311D01*
X1253430Y45158308D01*
X1328807Y44976329D01*
X1328814Y44976316D01*
X1438248Y44812538D01*
X1438251Y44812534D01*
X1577533Y44673252D01*
X1577537Y44673249D01*
X1741315Y44563815D01*
X1741328Y44563808D01*
X1923306Y44488431D01*
X1923318Y44488428D01*
X2116504Y44450001D01*
X2116508Y44450000D01*
X2365000Y44450000D01*
X2365000Y45150000D01*
X2865000Y45150000D01*
X2865000Y44450000D01*
X3113492Y44450000D01*
X3113495Y44450001D01*
X3306681Y44488428D01*
X3306693Y44488431D01*
X3488671Y44563808D01*
X3488684Y44563815D01*
X3652462Y44673249D01*
X3652466Y44673252D01*
X3791748Y44812534D01*
X3791751Y44812538D01*
X3901185Y44976316D01*
X3901192Y44976329D01*
X3976569Y45158308D01*
X3976570Y45158311D01*
X3984862Y45200000D01*
X3181988Y45200000D01*
X3199205Y45209940D01*
X3255060Y45265795D01*
X3294556Y45334204D01*
X3315000Y45410504D01*
X3315000Y45489496D01*
X3294556Y45565796D01*
X3255060Y45634205D01*
X3199205Y45690060D01*
X3181988Y45700000D01*
X3984862Y45700000D01*
X5275138Y45700000D01*
X6078012Y45700000D01*
X6060795Y45690060D01*
X6004940Y45634205D01*
X5965444Y45565796D01*
X5945000Y45489496D01*
X5945000Y45410504D01*
X5965444Y45334204D01*
X6004940Y45265795D01*
X6060795Y45209940D01*
X6078012Y45200000D01*
X5275138Y45200000D01*
X5283430Y45158311D01*
X5283430Y45158308D01*
X5358807Y44976329D01*
X5358814Y44976316D01*
X5468248Y44812538D01*
X5468251Y44812534D01*
X5607533Y44673252D01*
X5607537Y44673249D01*
X5771315Y44563815D01*
X5771328Y44563808D01*
X5780838Y44559869D01*
X5835243Y44516030D01*
X5857310Y44449736D01*
X5840033Y44382037D01*
X5836350Y44376595D01*
X5758719Y44242137D01*
X5719500Y44095766D01*
X5719500Y43944234D01*
X5733961Y43890263D01*
X5758719Y43797864D01*
X5783342Y43755217D01*
X5834485Y43666635D01*
X5941635Y43559485D01*
X6072865Y43483719D01*
X6219234Y43444500D01*
X6219236Y43444500D01*
X6370764Y43444500D01*
X6370766Y43444500D01*
X6517135Y43483719D01*
X6648365Y43559485D01*
X6697727Y43608847D01*
X7649500Y43608847D01*
X7649500Y43451154D01*
X7680261Y43296511D01*
X7680264Y43296499D01*
X7740602Y43150828D01*
X7740609Y43150815D01*
X7828210Y43019712D01*
X7828213Y43019708D01*
X7939707Y42908214D01*
X7939711Y42908211D01*
X8070814Y42820610D01*
X8070827Y42820603D01*
X8216498Y42760265D01*
X8216503Y42760263D01*
X8371153Y42729501D01*
X8371156Y42729500D01*
X8371158Y42729500D01*
X8528844Y42729500D01*
X8528845Y42729501D01*
X8683497Y42760263D01*
X8829179Y42820606D01*
X8960289Y42908211D01*
X9071789Y43019711D01*
X9159394Y43150821D01*
X9219737Y43296503D01*
X9250500Y43451158D01*
X9250500Y43608842D01*
X9250500Y43608845D01*
X9250499Y43608847D01*
X9219737Y43763497D01*
X9213152Y43779394D01*
X9159397Y43909173D01*
X9159390Y43909186D01*
X9071789Y44040289D01*
X9071786Y44040293D01*
X8960292Y44151787D01*
X8960288Y44151790D01*
X8829185Y44239391D01*
X8829172Y44239398D01*
X8683501Y44299736D01*
X8683489Y44299739D01*
X8528845Y44330500D01*
X8528842Y44330500D01*
X8371158Y44330500D01*
X8371155Y44330500D01*
X8216510Y44299739D01*
X8216498Y44299736D01*
X8070827Y44239398D01*
X8070814Y44239391D01*
X7939711Y44151790D01*
X7939707Y44151787D01*
X7828213Y44040293D01*
X7828210Y44040289D01*
X7740609Y43909186D01*
X7740602Y43909173D01*
X7680264Y43763502D01*
X7680261Y43763490D01*
X7649500Y43608847D01*
X6697727Y43608847D01*
X6755515Y43666635D01*
X6831281Y43797865D01*
X6870500Y43944234D01*
X6870500Y44095766D01*
X6831281Y44242135D01*
X6755515Y44373365D01*
X6648365Y44480515D01*
X6634654Y44488431D01*
X6606998Y44504399D01*
X6558784Y44554967D01*
X6545000Y44611785D01*
X6545000Y45150000D01*
X7045000Y45150000D01*
X7045000Y44450000D01*
X7443492Y44450000D01*
X7443495Y44450001D01*
X7636681Y44488428D01*
X7636693Y44488431D01*
X7818671Y44563808D01*
X7818684Y44563815D01*
X7982462Y44673249D01*
X7982466Y44673252D01*
X8121748Y44812534D01*
X8121751Y44812538D01*
X8231185Y44976316D01*
X8231192Y44976329D01*
X8306569Y45158308D01*
X8306570Y45158311D01*
X8314862Y45200000D01*
X7511988Y45200000D01*
X7529205Y45209940D01*
X7585060Y45265795D01*
X7624556Y45334204D01*
X7645000Y45410504D01*
X7645000Y45489496D01*
X7624556Y45565796D01*
X7585060Y45634205D01*
X7529205Y45690060D01*
X7511988Y45700000D01*
X8314862Y45700000D01*
X8306569Y45741691D01*
X8306569Y45741693D01*
X8231192Y45923672D01*
X8231185Y45923685D01*
X8121751Y46087463D01*
X8121748Y46087467D01*
X7982466Y46226749D01*
X7982462Y46226752D01*
X7818684Y46336186D01*
X7818671Y46336193D01*
X7636693Y46411570D01*
X7636681Y46411573D01*
X7443495Y46450000D01*
X7045000Y46450000D01*
X7045000Y45750000D01*
X6545000Y45750000D01*
X6545000Y46450000D01*
X6146504Y46450000D01*
X5953318Y46411573D01*
X5953306Y46411570D01*
X5771328Y46336193D01*
X5771315Y46336186D01*
X5607537Y46226752D01*
X5607533Y46226749D01*
X5468251Y46087467D01*
X5468248Y46087463D01*
X5358814Y45923685D01*
X5358807Y45923672D01*
X5283430Y45741693D01*
X5283430Y45741691D01*
X5275138Y45700000D01*
X3984862Y45700000D01*
X3976569Y45741691D01*
X3976569Y45741693D01*
X3901192Y45923672D01*
X3901185Y45923685D01*
X3791751Y46087463D01*
X3791748Y46087467D01*
X3652466Y46226749D01*
X3652462Y46226752D01*
X3488684Y46336186D01*
X3488671Y46336193D01*
X3306693Y46411570D01*
X3306681Y46411573D01*
X3113495Y46450000D01*
X2865000Y46450000D01*
X2865000Y45750000D01*
X2365000Y45750000D01*
X2365000Y46450000D01*
X2116504Y46450000D01*
X1923318Y46411573D01*
X1923306Y46411570D01*
X1741328Y46336193D01*
X1741315Y46336186D01*
X1577537Y46226752D01*
X1577533Y46226749D01*
X1438251Y46087467D01*
X1438248Y46087463D01*
X1328814Y45923685D01*
X1328807Y45923672D01*
X1253430Y45741693D01*
X1253430Y45741691D01*
X1245138Y45700000D01*
X500500Y45700000D01*
X500500Y50532298D01*
X520185Y50599337D01*
X572989Y50645092D01*
X642147Y50655036D01*
X648667Y50653920D01*
X703854Y50642942D01*
X721157Y50639500D01*
X721158Y50639500D01*
X878844Y50639500D01*
X878845Y50639501D01*
X1033497Y50670263D01*
X1179179Y50730606D01*
X1310289Y50818211D01*
X1421789Y50929711D01*
X1509394Y51060821D01*
X1537569Y51128842D01*
X1537571Y51128847D01*
X11169500Y51128847D01*
X11169500Y50971154D01*
X11200261Y50816511D01*
X11200264Y50816499D01*
X11260602Y50670828D01*
X11260609Y50670815D01*
X11348210Y50539712D01*
X11348213Y50539708D01*
X11459707Y50428214D01*
X11459711Y50428211D01*
X11590821Y50340606D01*
X11591338Y50340329D01*
X11591558Y50340113D01*
X11595886Y50337221D01*
X11595337Y50336401D01*
X11641186Y50291371D01*
X11656652Y50223234D01*
X11635995Y50162077D01*
X11580612Y50079191D01*
X11580602Y50079173D01*
X11520264Y49933502D01*
X11520261Y49933490D01*
X11489500Y49778847D01*
X11489500Y49621154D01*
X11520261Y49466511D01*
X11520264Y49466499D01*
X11580602Y49320828D01*
X11580609Y49320815D01*
X11668210Y49189712D01*
X11668213Y49189708D01*
X11779707Y49078214D01*
X11779711Y49078211D01*
X11910814Y48990610D01*
X11910827Y48990603D01*
X12056498Y48930265D01*
X12056503Y48930263D01*
X12211153Y48899501D01*
X12211156Y48899500D01*
X12227439Y48899500D01*
X12294478Y48879815D01*
X12340233Y48827011D01*
X12350177Y48757853D01*
X12342000Y48728048D01*
X12315264Y48663502D01*
X12315261Y48663490D01*
X12284500Y48508847D01*
X12284500Y48351154D01*
X12315261Y48196511D01*
X12315264Y48196499D01*
X12375602Y48050828D01*
X12375609Y48050815D01*
X12463210Y47919712D01*
X12463213Y47919708D01*
X12574707Y47808214D01*
X12574711Y47808211D01*
X12705814Y47720610D01*
X12705827Y47720603D01*
X12753378Y47700907D01*
X12807782Y47657067D01*
X12829847Y47590773D01*
X12820487Y47538894D01*
X12760264Y47393502D01*
X12760261Y47393490D01*
X12729500Y47238847D01*
X12729500Y47081154D01*
X12760261Y46926511D01*
X12760264Y46926499D01*
X12820602Y46780828D01*
X12820609Y46780815D01*
X12908210Y46649712D01*
X12908213Y46649708D01*
X13019707Y46538214D01*
X13019711Y46538211D01*
X13150814Y46450610D01*
X13150827Y46450603D01*
X13296498Y46390265D01*
X13296503Y46390263D01*
X13451153Y46359501D01*
X13451156Y46359500D01*
X13451158Y46359500D01*
X13608843Y46359500D01*
X13637620Y46365225D01*
X13691299Y46375902D01*
X13760889Y46369675D01*
X13816067Y46326813D01*
X13839312Y46260923D01*
X13830053Y46206836D01*
X13824528Y46193497D01*
X13824526Y46193490D01*
X13793765Y46038847D01*
X13793765Y45881154D01*
X13824526Y45726511D01*
X13824528Y45726503D01*
X13863692Y45631953D01*
X13871161Y45562483D01*
X13839886Y45500004D01*
X13779797Y45464352D01*
X13749131Y45460500D01*
X13631155Y45460500D01*
X13476510Y45429739D01*
X13476498Y45429736D01*
X13330827Y45369398D01*
X13330814Y45369391D01*
X13199711Y45281790D01*
X13199707Y45281787D01*
X13088213Y45170293D01*
X13088210Y45170289D01*
X13000609Y45039186D01*
X13000602Y45039173D01*
X12940264Y44893502D01*
X12940261Y44893490D01*
X12909500Y44738847D01*
X12909500Y44581154D01*
X12940261Y44426511D01*
X12940264Y44426499D01*
X13000602Y44280828D01*
X13000609Y44280815D01*
X13088210Y44149712D01*
X13088213Y44149708D01*
X13199707Y44038214D01*
X13199711Y44038211D01*
X13294635Y43974784D01*
X13339440Y43921172D01*
X13348147Y43851847D01*
X13317992Y43788819D01*
X13294635Y43768580D01*
X13179711Y43691790D01*
X13179707Y43691787D01*
X13068213Y43580293D01*
X13068210Y43580289D01*
X12980609Y43449186D01*
X12980602Y43449173D01*
X12920264Y43303502D01*
X12920261Y43303490D01*
X12889500Y43148847D01*
X12889500Y42991154D01*
X12920261Y42836511D01*
X12920264Y42836499D01*
X12980602Y42690828D01*
X12980609Y42690815D01*
X13068210Y42559712D01*
X13068213Y42559708D01*
X13179707Y42448214D01*
X13179711Y42448211D01*
X13310814Y42360610D01*
X13310827Y42360603D01*
X13456498Y42300265D01*
X13456503Y42300263D01*
X13575912Y42276511D01*
X13611153Y42269501D01*
X13611156Y42269500D01*
X13611158Y42269500D01*
X13768844Y42269500D01*
X13768845Y42269501D01*
X13923497Y42300263D01*
X14069179Y42360606D01*
X14200289Y42448211D01*
X14311789Y42559711D01*
X14399394Y42690821D01*
X14419287Y42738847D01*
X14729500Y42738847D01*
X14729500Y42581154D01*
X14760261Y42426511D01*
X14760264Y42426499D01*
X14820602Y42280828D01*
X14820609Y42280815D01*
X14908210Y42149712D01*
X14908213Y42149708D01*
X15019707Y42038214D01*
X15019711Y42038211D01*
X15150814Y41950610D01*
X15150827Y41950603D01*
X15296498Y41890265D01*
X15296503Y41890263D01*
X15451153Y41859501D01*
X15451156Y41859500D01*
X15451158Y41859500D01*
X15608844Y41859500D01*
X15608845Y41859501D01*
X15763497Y41890263D01*
X15909179Y41950606D01*
X16040289Y42038211D01*
X16151789Y42149711D01*
X16239394Y42280821D01*
X16299737Y42426503D01*
X16330500Y42581158D01*
X16330500Y42588847D01*
X23179500Y42588847D01*
X23179500Y42431154D01*
X23210261Y42276511D01*
X23210264Y42276499D01*
X23270602Y42130828D01*
X23270609Y42130815D01*
X23358210Y41999712D01*
X23358213Y41999708D01*
X23469707Y41888214D01*
X23469711Y41888211D01*
X23600814Y41800610D01*
X23600827Y41800603D01*
X23746498Y41740265D01*
X23746503Y41740263D01*
X23901153Y41709501D01*
X23901156Y41709500D01*
X23901158Y41709500D01*
X24058844Y41709500D01*
X24058845Y41709501D01*
X24213497Y41740263D01*
X24359179Y41800606D01*
X24490289Y41888211D01*
X24601789Y41999711D01*
X24689394Y42130821D01*
X24749737Y42276503D01*
X24780500Y42431158D01*
X24780500Y42588842D01*
X24780500Y42588845D01*
X24780499Y42588847D01*
X24760214Y42690824D01*
X24749737Y42743497D01*
X24711210Y42836511D01*
X24689397Y42889173D01*
X24689390Y42889186D01*
X24601789Y43020289D01*
X24601786Y43020293D01*
X24490292Y43131787D01*
X24490288Y43131790D01*
X24359185Y43219391D01*
X24359172Y43219398D01*
X24213501Y43279736D01*
X24213489Y43279739D01*
X24058845Y43310500D01*
X24058842Y43310500D01*
X23901158Y43310500D01*
X23901155Y43310500D01*
X23746510Y43279739D01*
X23746498Y43279736D01*
X23600827Y43219398D01*
X23600814Y43219391D01*
X23469711Y43131790D01*
X23469707Y43131787D01*
X23358213Y43020293D01*
X23358210Y43020289D01*
X23270609Y42889186D01*
X23270602Y42889173D01*
X23210264Y42743502D01*
X23210261Y42743490D01*
X23179500Y42588847D01*
X16330500Y42588847D01*
X16330500Y42738842D01*
X16330500Y42738845D01*
X16330499Y42738847D01*
X16319849Y42792387D01*
X16299737Y42893497D01*
X16293641Y42908214D01*
X16239397Y43039173D01*
X16239390Y43039186D01*
X16151789Y43170289D01*
X16151786Y43170293D01*
X16040292Y43281787D01*
X16040288Y43281790D01*
X15909185Y43369391D01*
X15909172Y43369398D01*
X15763501Y43429736D01*
X15763489Y43429739D01*
X15608845Y43460500D01*
X15608842Y43460500D01*
X15451158Y43460500D01*
X15451155Y43460500D01*
X15296510Y43429739D01*
X15296498Y43429736D01*
X15150827Y43369398D01*
X15150814Y43369391D01*
X15019711Y43281790D01*
X15019707Y43281787D01*
X14908213Y43170293D01*
X14908210Y43170289D01*
X14820609Y43039186D01*
X14820602Y43039173D01*
X14760264Y42893502D01*
X14760261Y42893490D01*
X14729500Y42738847D01*
X14419287Y42738847D01*
X14428158Y42760263D01*
X14441464Y42792387D01*
X14444715Y42800239D01*
X14459737Y42836503D01*
X14490500Y42991158D01*
X14490500Y43148842D01*
X14490500Y43148845D01*
X14490499Y43148847D01*
X14464463Y43279737D01*
X14459737Y43303497D01*
X14432440Y43369398D01*
X14399397Y43449173D01*
X14399390Y43449186D01*
X14311789Y43580289D01*
X14311786Y43580293D01*
X14200292Y43691787D01*
X14200288Y43691790D01*
X14105364Y43755217D01*
X14060559Y43808830D01*
X14051852Y43878155D01*
X14082007Y43941182D01*
X14105360Y43961419D01*
X14220289Y44038211D01*
X14331789Y44149711D01*
X14419394Y44280821D01*
X14479737Y44426503D01*
X14510500Y44581158D01*
X14510500Y44738842D01*
X14510500Y44738845D01*
X14510499Y44738847D01*
X14479737Y44893497D01*
X14440572Y44988049D01*
X14433104Y45057517D01*
X14464379Y45119996D01*
X14524468Y45155648D01*
X14555134Y45159500D01*
X14673109Y45159500D01*
X14673110Y45159501D01*
X14827762Y45190263D01*
X14973444Y45250606D01*
X15104554Y45338211D01*
X15216054Y45449711D01*
X15303659Y45580821D01*
X15364002Y45726503D01*
X15394765Y45881158D01*
X15394765Y46038842D01*
X15394765Y46038845D01*
X15394764Y46038847D01*
X15364002Y46193497D01*
X15364000Y46193502D01*
X15303662Y46339173D01*
X15303655Y46339186D01*
X15216054Y46470289D01*
X15216051Y46470293D01*
X15104557Y46581787D01*
X15104553Y46581790D01*
X14973450Y46669391D01*
X14973437Y46669398D01*
X14827766Y46729736D01*
X14827754Y46729739D01*
X14673110Y46760500D01*
X14673107Y46760500D01*
X14515423Y46760500D01*
X14515418Y46760500D01*
X14432965Y46744099D01*
X14363373Y46750326D01*
X14308196Y46793189D01*
X14284952Y46859079D01*
X14287170Y46889974D01*
X14289551Y46901914D01*
X14299737Y46926503D01*
X14330500Y47081158D01*
X14330500Y47088847D01*
X16919500Y47088847D01*
X16919500Y46931154D01*
X16950261Y46776511D01*
X16950264Y46776499D01*
X17010602Y46630828D01*
X17010609Y46630815D01*
X17098210Y46499712D01*
X17098213Y46499708D01*
X17209707Y46388214D01*
X17209711Y46388211D01*
X17340814Y46300610D01*
X17340827Y46300603D01*
X17486498Y46240265D01*
X17486503Y46240263D01*
X17641153Y46209501D01*
X17641156Y46209500D01*
X17641158Y46209500D01*
X17798844Y46209500D01*
X17798845Y46209501D01*
X17953497Y46240263D01*
X18066166Y46286933D01*
X18099172Y46300603D01*
X18099172Y46300604D01*
X18099179Y46300606D01*
X18230289Y46388211D01*
X18341789Y46499711D01*
X18429394Y46630821D01*
X18489737Y46776503D01*
X18520500Y46931158D01*
X18520500Y47078847D01*
X25369500Y47078847D01*
X25369500Y46921154D01*
X25400261Y46766511D01*
X25400264Y46766499D01*
X25460602Y46620828D01*
X25460609Y46620815D01*
X25548210Y46489712D01*
X25548213Y46489708D01*
X25659707Y46378214D01*
X25659711Y46378211D01*
X25790814Y46290610D01*
X25790827Y46290603D01*
X25912363Y46240262D01*
X25936503Y46230263D01*
X26054278Y46206836D01*
X26091153Y46199501D01*
X26091156Y46199500D01*
X26091158Y46199500D01*
X26248844Y46199500D01*
X26248845Y46199501D01*
X26403497Y46230263D01*
X26549179Y46290606D01*
X26680289Y46378211D01*
X26791789Y46489711D01*
X26879394Y46620821D01*
X26939737Y46766503D01*
X26970500Y46921158D01*
X26970500Y47078842D01*
X26970500Y47078845D01*
X26970499Y47078847D01*
X26939738Y47233490D01*
X26939737Y47233497D01*
X26935593Y47243502D01*
X26879397Y47379173D01*
X26879390Y47379186D01*
X26791789Y47510289D01*
X26791786Y47510293D01*
X26680292Y47621787D01*
X26680288Y47621790D01*
X26549185Y47709391D01*
X26549172Y47709398D01*
X26403501Y47769736D01*
X26403489Y47769739D01*
X26248845Y47800500D01*
X26248842Y47800500D01*
X26091158Y47800500D01*
X26091155Y47800500D01*
X25936510Y47769739D01*
X25936498Y47769736D01*
X25790827Y47709398D01*
X25790814Y47709391D01*
X25659711Y47621790D01*
X25659707Y47621787D01*
X25548213Y47510293D01*
X25548210Y47510289D01*
X25460609Y47379186D01*
X25460602Y47379173D01*
X25400264Y47233502D01*
X25400261Y47233490D01*
X25369500Y47078847D01*
X18520500Y47078847D01*
X18520500Y47088842D01*
X18520500Y47088845D01*
X18520499Y47088847D01*
X18516852Y47107182D01*
X18489737Y47243497D01*
X18433539Y47379173D01*
X18429397Y47389173D01*
X18429390Y47389186D01*
X18341789Y47520289D01*
X18341786Y47520293D01*
X18230292Y47631787D01*
X18230288Y47631790D01*
X18099185Y47719391D01*
X18099172Y47719398D01*
X17953501Y47779736D01*
X17953489Y47779739D01*
X17798845Y47810500D01*
X17798842Y47810500D01*
X17641158Y47810500D01*
X17641155Y47810500D01*
X17486510Y47779739D01*
X17486498Y47779736D01*
X17340827Y47719398D01*
X17340814Y47719391D01*
X17209711Y47631790D01*
X17209707Y47631787D01*
X17098213Y47520293D01*
X17098210Y47520289D01*
X17010609Y47389186D01*
X17010602Y47389173D01*
X16950264Y47243502D01*
X16950261Y47243490D01*
X16919500Y47088847D01*
X14330500Y47088847D01*
X14330500Y47238842D01*
X14330500Y47238845D01*
X14330499Y47238847D01*
X14302585Y47379179D01*
X14299737Y47393497D01*
X14251359Y47510293D01*
X14239397Y47539173D01*
X14239390Y47539186D01*
X14151789Y47670289D01*
X14151786Y47670293D01*
X14040292Y47781787D01*
X14040288Y47781790D01*
X13909185Y47869391D01*
X13909175Y47869396D01*
X13861620Y47889094D01*
X13807217Y47932935D01*
X13785152Y47999230D01*
X13794511Y48051105D01*
X13854737Y48196503D01*
X13885500Y48351158D01*
X13885500Y48502885D01*
X24056863Y48502885D01*
X24056863Y48345192D01*
X24087624Y48190549D01*
X24087627Y48190537D01*
X24147965Y48044866D01*
X24147972Y48044853D01*
X24235573Y47913750D01*
X24235576Y47913746D01*
X24347070Y47802252D01*
X24347074Y47802249D01*
X24478177Y47714648D01*
X24478190Y47714641D01*
X24585267Y47670289D01*
X24623866Y47654301D01*
X24737036Y47631790D01*
X24778516Y47623539D01*
X24778519Y47623538D01*
X24778521Y47623538D01*
X24936207Y47623538D01*
X24936208Y47623539D01*
X25090860Y47654301D01*
X25236542Y47714644D01*
X25367652Y47802249D01*
X25479152Y47913749D01*
X25566757Y48044859D01*
X25569230Y48050828D01*
X25627098Y48190537D01*
X25627100Y48190541D01*
X25657863Y48345196D01*
X25657863Y48502880D01*
X25657863Y48502883D01*
X25657862Y48502885D01*
X25627101Y48657528D01*
X25627100Y48657535D01*
X25624633Y48663490D01*
X25566760Y48803211D01*
X25566753Y48803224D01*
X25479152Y48934327D01*
X25479149Y48934331D01*
X25367655Y49045825D01*
X25367651Y49045828D01*
X25236548Y49133429D01*
X25236535Y49133436D01*
X25090864Y49193774D01*
X25090852Y49193777D01*
X24936208Y49224538D01*
X24936205Y49224538D01*
X24778521Y49224538D01*
X24778518Y49224538D01*
X24623873Y49193777D01*
X24623861Y49193774D01*
X24478190Y49133436D01*
X24478177Y49133429D01*
X24347074Y49045828D01*
X24347070Y49045825D01*
X24235576Y48934331D01*
X24235573Y48934327D01*
X24147972Y48803224D01*
X24147965Y48803211D01*
X24087627Y48657540D01*
X24087624Y48657528D01*
X24056863Y48502885D01*
X13885500Y48502885D01*
X13885500Y48508842D01*
X13885500Y48508845D01*
X13885499Y48508847D01*
X13854738Y48663490D01*
X13854737Y48663497D01*
X13854735Y48663502D01*
X13794397Y48809173D01*
X13794390Y48809186D01*
X13706789Y48940289D01*
X13706786Y48940293D01*
X13595292Y49051787D01*
X13595288Y49051790D01*
X13464185Y49139391D01*
X13464172Y49139398D01*
X13318501Y49199736D01*
X13318489Y49199739D01*
X13163845Y49230500D01*
X13163842Y49230500D01*
X13147561Y49230500D01*
X13080522Y49250185D01*
X13034767Y49302989D01*
X13024823Y49372147D01*
X13033000Y49401952D01*
X13059735Y49466499D01*
X13059737Y49466503D01*
X13090500Y49621158D01*
X13090500Y49778842D01*
X13090500Y49778845D01*
X13090499Y49778847D01*
X13059738Y49933490D01*
X13059737Y49933497D01*
X13016835Y50037073D01*
X12999397Y50079173D01*
X12999390Y50079186D01*
X12911789Y50210289D01*
X12911786Y50210293D01*
X12800292Y50321787D01*
X12800288Y50321790D01*
X12669181Y50409394D01*
X12668654Y50409675D01*
X12668429Y50409896D01*
X12664114Y50412779D01*
X12664660Y50413598D01*
X12618809Y50458637D01*
X12603348Y50526775D01*
X12624002Y50587923D01*
X12679394Y50670821D01*
X12739737Y50816503D01*
X12770500Y50971158D01*
X12770500Y51128842D01*
X12770500Y51128845D01*
X12770499Y51128847D01*
X12755051Y51206508D01*
X12739737Y51283497D01*
X12704278Y51369104D01*
X12679397Y51429173D01*
X12679390Y51429186D01*
X12591789Y51560289D01*
X12591786Y51560293D01*
X12480292Y51671787D01*
X12480288Y51671790D01*
X12349185Y51759391D01*
X12349172Y51759398D01*
X12203501Y51819736D01*
X12203489Y51819739D01*
X12048845Y51850500D01*
X12048842Y51850500D01*
X11891158Y51850500D01*
X11891155Y51850500D01*
X11736510Y51819739D01*
X11736498Y51819736D01*
X11590827Y51759398D01*
X11590814Y51759391D01*
X11459711Y51671790D01*
X11459707Y51671787D01*
X11348213Y51560293D01*
X11348210Y51560289D01*
X11260609Y51429186D01*
X11260602Y51429173D01*
X11200264Y51283502D01*
X11200261Y51283490D01*
X11169500Y51128847D01*
X1537571Y51128847D01*
X1559745Y51182379D01*
X1559747Y51182386D01*
X1569737Y51206503D01*
X1600500Y51361158D01*
X1600500Y51518842D01*
X1600500Y51518845D01*
X1600499Y51518847D01*
X1592255Y51560293D01*
X1569737Y51673497D01*
X1529392Y51770899D01*
X1509397Y51819173D01*
X1509390Y51819186D01*
X1421789Y51950289D01*
X1421786Y51950293D01*
X1310292Y52061787D01*
X1310288Y52061790D01*
X1179185Y52149391D01*
X1179172Y52149398D01*
X1033501Y52209736D01*
X1033489Y52209739D01*
X878845Y52240500D01*
X878842Y52240500D01*
X721158Y52240500D01*
X721155Y52240500D01*
X648691Y52226086D01*
X579100Y52232313D01*
X523922Y52275176D01*
X500678Y52341066D01*
X500500Y52347703D01*
X500500Y52362097D01*
X8540284Y52362097D01*
X8540284Y52204404D01*
X8571045Y52049761D01*
X8571048Y52049749D01*
X8631386Y51904078D01*
X8631393Y51904065D01*
X8718994Y51772962D01*
X8718997Y51772958D01*
X8830491Y51661464D01*
X8830495Y51661461D01*
X8961598Y51573860D01*
X8961611Y51573853D01*
X9107282Y51513515D01*
X9107287Y51513513D01*
X9261937Y51482751D01*
X9261940Y51482750D01*
X9261942Y51482750D01*
X9419628Y51482750D01*
X9419629Y51482751D01*
X9574281Y51513513D01*
X9719963Y51573856D01*
X9851073Y51661461D01*
X9962573Y51772961D01*
X10050178Y51904071D01*
X10110521Y52049753D01*
X10141284Y52204408D01*
X10141284Y52362092D01*
X10141284Y52362095D01*
X10141283Y52362097D01*
X10110522Y52516740D01*
X10110521Y52516747D01*
X10068090Y52619186D01*
X10050181Y52662423D01*
X10050174Y52662436D01*
X9962573Y52793539D01*
X9962570Y52793543D01*
X9851076Y52905037D01*
X9851072Y52905040D01*
X9719969Y52992641D01*
X9719956Y52992648D01*
X9574285Y53052986D01*
X9574273Y53052989D01*
X9419629Y53083750D01*
X9419626Y53083750D01*
X9261942Y53083750D01*
X9261939Y53083750D01*
X9107294Y53052989D01*
X9107282Y53052986D01*
X8961611Y52992648D01*
X8961598Y52992641D01*
X8830495Y52905040D01*
X8830491Y52905037D01*
X8718997Y52793543D01*
X8718994Y52793539D01*
X8631393Y52662436D01*
X8631386Y52662423D01*
X8571048Y52516752D01*
X8571045Y52516740D01*
X8540284Y52362097D01*
X500500Y52362097D01*
X500500Y53618847D01*
X3859500Y53618847D01*
X3859500Y53461154D01*
X3890261Y53306511D01*
X3890264Y53306499D01*
X3950602Y53160828D01*
X3950609Y53160815D01*
X4038210Y53029712D01*
X4038213Y53029708D01*
X4149707Y52918214D01*
X4149711Y52918211D01*
X4280814Y52830610D01*
X4280827Y52830603D01*
X4370309Y52793539D01*
X4426503Y52770263D01*
X4577312Y52740265D01*
X4581153Y52739501D01*
X4581156Y52739500D01*
X4581158Y52739500D01*
X4738844Y52739500D01*
X4738845Y52739501D01*
X4893497Y52770263D01*
X5006166Y52816933D01*
X5039172Y52830603D01*
X5039172Y52830604D01*
X5039179Y52830606D01*
X5170289Y52918211D01*
X5281789Y53029711D01*
X5369394Y53160821D01*
X5429737Y53306503D01*
X5460500Y53461158D01*
X5460500Y53618842D01*
X5460500Y53618845D01*
X5460499Y53618847D01*
X5456985Y53636511D01*
X5429737Y53773497D01*
X5422423Y53791154D01*
X5369397Y53919173D01*
X5369390Y53919186D01*
X5281789Y54050289D01*
X5281786Y54050293D01*
X5170292Y54161787D01*
X5170288Y54161790D01*
X5039185Y54249391D01*
X5039172Y54249398D01*
X4893501Y54309736D01*
X4893489Y54309739D01*
X4738845Y54340500D01*
X4738842Y54340500D01*
X4581158Y54340500D01*
X4581155Y54340500D01*
X4426510Y54309739D01*
X4426498Y54309736D01*
X4280827Y54249398D01*
X4280814Y54249391D01*
X4149711Y54161790D01*
X4149707Y54161787D01*
X4038213Y54050293D01*
X4038210Y54050289D01*
X3950609Y53919186D01*
X3950602Y53919173D01*
X3890264Y53773502D01*
X3890261Y53773490D01*
X3859500Y53618847D01*
X500500Y53618847D01*
X500500Y54858847D01*
X11199500Y54858847D01*
X11199500Y54701154D01*
X11230261Y54546511D01*
X11230264Y54546499D01*
X11290602Y54400828D01*
X11290609Y54400815D01*
X11378210Y54269712D01*
X11378213Y54269708D01*
X11489707Y54158214D01*
X11494419Y54154347D01*
X11493405Y54153112D01*
X11533236Y54105465D01*
X11541953Y54036141D01*
X11522650Y53987070D01*
X11470608Y53909184D01*
X11470602Y53909173D01*
X11410264Y53763502D01*
X11410261Y53763490D01*
X11379500Y53608847D01*
X11379500Y53451154D01*
X11410261Y53296511D01*
X11410264Y53296499D01*
X11470602Y53150828D01*
X11470609Y53150815D01*
X11558210Y53019712D01*
X11558213Y53019708D01*
X11669707Y52908214D01*
X11669711Y52908211D01*
X11800814Y52820610D01*
X11800827Y52820603D01*
X11922363Y52770262D01*
X11946503Y52760263D01*
X12081401Y52733430D01*
X12101153Y52729501D01*
X12101156Y52729500D01*
X12101158Y52729500D01*
X12258844Y52729500D01*
X12258845Y52729501D01*
X12413497Y52760263D01*
X12559179Y52820606D01*
X12690289Y52908211D01*
X12801789Y53019711D01*
X12889394Y53150821D01*
X12949737Y53296503D01*
X12980500Y53451158D01*
X12980500Y53608842D01*
X12980500Y53608845D01*
X12980499Y53608847D01*
X12974996Y53636511D01*
X12949737Y53763497D01*
X12889394Y53909179D01*
X12889391Y53909184D01*
X12889390Y53909186D01*
X12862889Y53948847D01*
X23449500Y53948847D01*
X23449500Y53791154D01*
X23480261Y53636511D01*
X23480264Y53636499D01*
X23540602Y53490828D01*
X23540609Y53490815D01*
X23628210Y53359712D01*
X23628213Y53359708D01*
X23739707Y53248214D01*
X23739711Y53248211D01*
X23870814Y53160610D01*
X23870827Y53160603D01*
X23942743Y53130815D01*
X24016503Y53100263D01*
X24171153Y53069501D01*
X24171156Y53069500D01*
X24171158Y53069500D01*
X24328844Y53069500D01*
X24328845Y53069501D01*
X24483497Y53100263D01*
X24629179Y53160606D01*
X24760289Y53248211D01*
X24871789Y53359711D01*
X24959394Y53490821D01*
X25019737Y53636503D01*
X25050500Y53791158D01*
X25050500Y53948842D01*
X25046823Y53967327D01*
X25053049Y54036915D01*
X25095910Y54092093D01*
X25161799Y54115340D01*
X25215892Y54106079D01*
X25326498Y54060265D01*
X25326503Y54060263D01*
X25443881Y54036915D01*
X25481153Y54029501D01*
X25481156Y54029500D01*
X25481158Y54029500D01*
X25638843Y54029500D01*
X25640034Y54029737D01*
X25640671Y54029680D01*
X25644907Y54030097D01*
X25644986Y54029295D01*
X25709626Y54023515D01*
X25764807Y53980657D01*
X25788057Y53914769D01*
X25778797Y53860670D01*
X25730263Y53743497D01*
X25730262Y53743494D01*
X25730262Y53743493D01*
X25730261Y53743490D01*
X25699500Y53588847D01*
X25699500Y53431154D01*
X25730261Y53276511D01*
X25730264Y53276499D01*
X25767899Y53185640D01*
X25775368Y53116171D01*
X25744093Y53053692D01*
X25684004Y53018040D01*
X25629147Y53016571D01*
X25508846Y53040500D01*
X25508842Y53040500D01*
X25351158Y53040500D01*
X25351155Y53040500D01*
X25196510Y53009739D01*
X25196498Y53009736D01*
X25050827Y52949398D01*
X25050814Y52949391D01*
X24919711Y52861790D01*
X24919707Y52861787D01*
X24808213Y52750293D01*
X24808210Y52750289D01*
X24720609Y52619186D01*
X24720602Y52619173D01*
X24660264Y52473502D01*
X24660261Y52473490D01*
X24629500Y52318847D01*
X24629500Y52161154D01*
X24660261Y52006511D01*
X24660264Y52006499D01*
X24720602Y51860828D01*
X24720609Y51860815D01*
X24808210Y51729712D01*
X24808213Y51729708D01*
X24919707Y51618214D01*
X24919711Y51618211D01*
X25050814Y51530610D01*
X25050827Y51530603D01*
X25166354Y51482751D01*
X25196503Y51470263D01*
X25215938Y51466398D01*
X25237017Y51462204D01*
X25298928Y51429820D01*
X25333502Y51369104D01*
X25329763Y51299335D01*
X25322189Y51282143D01*
X25320606Y51279183D01*
X25260264Y51133502D01*
X25260261Y51133490D01*
X25229500Y50978847D01*
X25229500Y50821154D01*
X25260261Y50666511D01*
X25260264Y50666499D01*
X25320602Y50520828D01*
X25320609Y50520815D01*
X25408210Y50389712D01*
X25408213Y50389708D01*
X25519707Y50278214D01*
X25519711Y50278211D01*
X25650814Y50190610D01*
X25650827Y50190603D01*
X25702765Y50169091D01*
X25796503Y50130263D01*
X25797025Y50130160D01*
X25797273Y50130030D01*
X25802338Y50128493D01*
X25802046Y50127534D01*
X25858937Y50097784D01*
X25893520Y50037073D01*
X25894464Y49984349D01*
X25869500Y49858847D01*
X25869500Y49701154D01*
X25900261Y49546511D01*
X25900264Y49546499D01*
X25960602Y49400828D01*
X25960609Y49400815D01*
X26048210Y49269712D01*
X26048213Y49269708D01*
X26159707Y49158214D01*
X26159711Y49158211D01*
X26290814Y49070610D01*
X26290827Y49070603D01*
X26436498Y49010265D01*
X26436503Y49010263D01*
X26591153Y48979501D01*
X26591156Y48979500D01*
X26591158Y48979500D01*
X26748844Y48979500D01*
X26748845Y48979501D01*
X26903497Y49010263D01*
X27049179Y49070606D01*
X27180289Y49158211D01*
X27291789Y49269711D01*
X27379394Y49400821D01*
X27379863Y49401952D01*
X27393067Y49433834D01*
X27439737Y49546503D01*
X27470500Y49701158D01*
X27470500Y49858842D01*
X27470500Y49858845D01*
X27470499Y49858847D01*
X27439738Y50013490D01*
X27439737Y50013497D01*
X27429972Y50037073D01*
X27379397Y50159173D01*
X27379390Y50159186D01*
X27291789Y50290289D01*
X27291786Y50290293D01*
X27180292Y50401787D01*
X27180288Y50401790D01*
X27049185Y50489391D01*
X27049172Y50489398D01*
X26903501Y50549736D01*
X26903497Y50549737D01*
X26902962Y50549844D01*
X26902709Y50549976D01*
X26897665Y50551506D01*
X26897955Y50552463D01*
X26841051Y50582227D01*
X26806476Y50642942D01*
X26805535Y50695653D01*
X26830500Y50821156D01*
X26830500Y50978845D01*
X26830499Y50978847D01*
X26799738Y51133490D01*
X26799737Y51133497D01*
X26769494Y51206511D01*
X26739397Y51279173D01*
X26739390Y51279186D01*
X26651789Y51410289D01*
X26651786Y51410293D01*
X26540292Y51521787D01*
X26540288Y51521790D01*
X26409185Y51609391D01*
X26409172Y51609398D01*
X26263501Y51669736D01*
X26263492Y51669739D01*
X26222980Y51677797D01*
X26161070Y51710183D01*
X26126496Y51770899D01*
X26130237Y51840668D01*
X26137818Y51857874D01*
X26139387Y51860811D01*
X26139394Y51860821D01*
X26199737Y52006503D01*
X26230500Y52161158D01*
X26230500Y52318842D01*
X26230500Y52318845D01*
X26230499Y52318847D01*
X26199738Y52473490D01*
X26199737Y52473497D01*
X26162099Y52564362D01*
X26154631Y52633829D01*
X26185906Y52696309D01*
X26245995Y52731961D01*
X26300853Y52733430D01*
X26421155Y52709500D01*
X26421158Y52709500D01*
X26578844Y52709500D01*
X26578845Y52709501D01*
X26733497Y52740263D01*
X26879179Y52800606D01*
X27010289Y52888211D01*
X27121789Y52999711D01*
X27209394Y53130821D01*
X27269737Y53276503D01*
X27300500Y53431158D01*
X27300500Y53588842D01*
X27300500Y53588845D01*
X27300499Y53588847D01*
X27291020Y53636499D01*
X27269737Y53743497D01*
X27261453Y53763497D01*
X27209397Y53889173D01*
X27209390Y53889186D01*
X27121789Y54020289D01*
X27121786Y54020293D01*
X27010292Y54131787D01*
X27010288Y54131790D01*
X26879185Y54219391D01*
X26879172Y54219398D01*
X26733501Y54279736D01*
X26733489Y54279739D01*
X26578845Y54310500D01*
X26578842Y54310500D01*
X26421158Y54310500D01*
X26421150Y54310500D01*
X26419946Y54310260D01*
X26419303Y54310318D01*
X26415093Y54309903D01*
X26415014Y54310702D01*
X26350354Y54316493D01*
X26295181Y54359360D01*
X26271941Y54425252D01*
X26281202Y54479330D01*
X26329737Y54596503D01*
X26360500Y54751158D01*
X26360500Y54908842D01*
X26360500Y54908845D01*
X26360499Y54908847D01*
X26339684Y55013490D01*
X26329737Y55063497D01*
X26290102Y55159186D01*
X26269397Y55209173D01*
X26269390Y55209186D01*
X26181789Y55340289D01*
X26181786Y55340293D01*
X26070292Y55451787D01*
X26070288Y55451790D01*
X25939185Y55539391D01*
X25939172Y55539398D01*
X25793501Y55599736D01*
X25793489Y55599739D01*
X25638845Y55630500D01*
X25638842Y55630500D01*
X25481158Y55630500D01*
X25481155Y55630500D01*
X25326510Y55599739D01*
X25326498Y55599736D01*
X25180827Y55539398D01*
X25180814Y55539391D01*
X25049711Y55451790D01*
X25049707Y55451787D01*
X24938213Y55340293D01*
X24938210Y55340289D01*
X24850609Y55209186D01*
X24850602Y55209173D01*
X24790264Y55063502D01*
X24790261Y55063490D01*
X24759500Y54908847D01*
X24759500Y54751154D01*
X24763176Y54732674D01*
X24756949Y54663083D01*
X24714086Y54607905D01*
X24648196Y54584661D01*
X24594107Y54593922D01*
X24483501Y54639736D01*
X24483489Y54639739D01*
X24328845Y54670500D01*
X24328842Y54670500D01*
X24171158Y54670500D01*
X24171155Y54670500D01*
X24016510Y54639739D01*
X24016498Y54639736D01*
X23870827Y54579398D01*
X23870814Y54579391D01*
X23739711Y54491790D01*
X23739707Y54491787D01*
X23628213Y54380293D01*
X23628210Y54380289D01*
X23540609Y54249186D01*
X23540602Y54249173D01*
X23480264Y54103502D01*
X23480261Y54103490D01*
X23449500Y53948847D01*
X12862889Y53948847D01*
X12801789Y54040289D01*
X12801786Y54040293D01*
X12690292Y54151787D01*
X12685581Y54155653D01*
X12686593Y54156887D01*
X12646760Y54204543D01*
X12638047Y54273867D01*
X12657350Y54322932D01*
X12709394Y54400821D01*
X12769737Y54546503D01*
X12800500Y54701158D01*
X12800500Y54858842D01*
X12800500Y54858845D01*
X12800499Y54858847D01*
X12769738Y55013490D01*
X12769737Y55013497D01*
X12769735Y55013502D01*
X12709397Y55159173D01*
X12709390Y55159186D01*
X12621789Y55290289D01*
X12621786Y55290293D01*
X12510292Y55401787D01*
X12510288Y55401790D01*
X12379185Y55489391D01*
X12379172Y55489398D01*
X12233501Y55549736D01*
X12233489Y55549739D01*
X12078845Y55580500D01*
X12078842Y55580500D01*
X11921158Y55580500D01*
X11921155Y55580500D01*
X11766510Y55549739D01*
X11766498Y55549736D01*
X11620827Y55489398D01*
X11620814Y55489391D01*
X11489711Y55401790D01*
X11489707Y55401787D01*
X11378213Y55290293D01*
X11378210Y55290289D01*
X11290609Y55159186D01*
X11290602Y55159173D01*
X11230264Y55013502D01*
X11230261Y55013490D01*
X11199500Y54858847D01*
X500500Y54858847D01*
X500500Y57038847D01*
X3689500Y57038847D01*
X3689500Y56881154D01*
X3720261Y56726511D01*
X3720264Y56726499D01*
X3780602Y56580828D01*
X3780609Y56580815D01*
X3868210Y56449712D01*
X3868213Y56449708D01*
X3979707Y56338214D01*
X3979711Y56338211D01*
X4110814Y56250610D01*
X4110827Y56250603D01*
X4256498Y56190265D01*
X4256503Y56190263D01*
X4411153Y56159501D01*
X4411156Y56159500D01*
X4411158Y56159500D01*
X4568844Y56159500D01*
X4568845Y56159501D01*
X4723497Y56190263D01*
X4869179Y56250606D01*
X5000289Y56338211D01*
X5111789Y56449711D01*
X5199394Y56580821D01*
X5259737Y56726503D01*
X5290500Y56881158D01*
X5290500Y57038842D01*
X5290500Y57038845D01*
X5290499Y57038847D01*
X5259737Y57193497D01*
X5199394Y57339179D01*
X5199390Y57339186D01*
X5198280Y57340847D01*
X21429500Y57340847D01*
X21429500Y57183154D01*
X21460261Y57028511D01*
X21460264Y57028499D01*
X21520602Y56882828D01*
X21520609Y56882815D01*
X21608210Y56751712D01*
X21608213Y56751708D01*
X21719707Y56640214D01*
X21719711Y56640211D01*
X21850814Y56552610D01*
X21850827Y56552603D01*
X21996498Y56492265D01*
X21996503Y56492263D01*
X22151153Y56461501D01*
X22151156Y56461500D01*
X22151158Y56461500D01*
X22308844Y56461500D01*
X22308845Y56461501D01*
X22463497Y56492263D01*
X22609179Y56552606D01*
X22740289Y56640211D01*
X22851789Y56751711D01*
X22939394Y56882821D01*
X22999737Y57028503D01*
X23030500Y57183158D01*
X23030500Y57340842D01*
X23030500Y57340845D01*
X23030499Y57340847D01*
X23024553Y57370743D01*
X23020952Y57388847D01*
X25639500Y57388847D01*
X25639500Y57231154D01*
X25670261Y57076511D01*
X25670264Y57076499D01*
X25730602Y56930828D01*
X25730609Y56930815D01*
X25818210Y56799712D01*
X25818213Y56799708D01*
X25929707Y56688214D01*
X25929711Y56688211D01*
X26060814Y56600610D01*
X26060827Y56600603D01*
X26176694Y56552610D01*
X26206503Y56540263D01*
X26361153Y56509501D01*
X26361156Y56509500D01*
X26361158Y56509500D01*
X26518844Y56509500D01*
X26518845Y56509501D01*
X26673497Y56540263D01*
X26819179Y56600606D01*
X26950289Y56688211D01*
X27061789Y56799711D01*
X27149394Y56930821D01*
X27209737Y57076503D01*
X27240500Y57231158D01*
X27240500Y57388842D01*
X27240500Y57388845D01*
X27240499Y57388847D01*
X27209738Y57543490D01*
X27209737Y57543497D01*
X27169276Y57641179D01*
X27149397Y57689173D01*
X27149390Y57689186D01*
X27061789Y57820289D01*
X27061786Y57820293D01*
X26950292Y57931787D01*
X26950288Y57931790D01*
X26819185Y58019391D01*
X26819172Y58019398D01*
X26673501Y58079736D01*
X26673489Y58079739D01*
X26518845Y58110500D01*
X26518842Y58110500D01*
X26361158Y58110500D01*
X26361155Y58110500D01*
X26206510Y58079739D01*
X26206498Y58079736D01*
X26060827Y58019398D01*
X26060814Y58019391D01*
X25929711Y57931790D01*
X25929707Y57931787D01*
X25818213Y57820293D01*
X25818210Y57820289D01*
X25730609Y57689186D01*
X25730602Y57689173D01*
X25670264Y57543502D01*
X25670261Y57543490D01*
X25639500Y57388847D01*
X23020952Y57388847D01*
X22999738Y57495492D01*
X22999737Y57495493D01*
X22999737Y57495497D01*
X22963994Y57581790D01*
X22939397Y57641173D01*
X22939390Y57641186D01*
X22851789Y57772289D01*
X22851786Y57772293D01*
X22740292Y57883787D01*
X22740288Y57883790D01*
X22609185Y57971391D01*
X22609172Y57971398D01*
X22463501Y58031736D01*
X22463489Y58031739D01*
X22308845Y58062500D01*
X22308842Y58062500D01*
X22151158Y58062500D01*
X22151155Y58062500D01*
X21996510Y58031739D01*
X21996498Y58031736D01*
X21850827Y57971398D01*
X21850814Y57971391D01*
X21719711Y57883790D01*
X21719707Y57883787D01*
X21608213Y57772293D01*
X21608210Y57772289D01*
X21520609Y57641186D01*
X21520602Y57641173D01*
X21460264Y57495502D01*
X21460261Y57495490D01*
X21429500Y57340847D01*
X5198280Y57340847D01*
X5111789Y57470289D01*
X5111786Y57470293D01*
X5000292Y57581787D01*
X5000288Y57581790D01*
X4869185Y57669391D01*
X4869172Y57669398D01*
X4723501Y57729736D01*
X4723489Y57729739D01*
X4568845Y57760500D01*
X4568842Y57760500D01*
X4411158Y57760500D01*
X4411155Y57760500D01*
X4256510Y57729739D01*
X4256498Y57729736D01*
X4110827Y57669398D01*
X4110814Y57669391D01*
X3979711Y57581790D01*
X3979707Y57581787D01*
X3868213Y57470293D01*
X3868210Y57470289D01*
X3780609Y57339186D01*
X3780602Y57339173D01*
X3720264Y57193502D01*
X3720261Y57193490D01*
X3689500Y57038847D01*
X500500Y57038847D01*
X500500Y59355500D01*
X520185Y59422539D01*
X572989Y59468294D01*
X624500Y59479500D01*
X29375500Y59479500D01*
X29442539Y59459815D01*
G37*
%TD.AperFunction*%
%TD*%
M02*
