%TF.GenerationSoftware,KiCad,Pcbnew,9.0.7*%
%TF.CreationDate,2026-02-22T12:09:28+01:00*%
%TF.ProjectId,horsesense,686f7273-6573-4656-9e73-652e6b696361,1.0*%
%TF.SameCoordinates,Original*%
%TF.FileFunction,Copper,L2,Inr*%
%TF.FilePolarity,Positive*%
%FSLAX46Y46*%
G04 Gerber Fmt 4.6, Leading zero omitted, Abs format (unit mm)*
G04 Created by KiCad (PCBNEW 9.0.7) date 2026-02-22 12:09:28*
%MOMM*%
%LPD*%
G01*
G04 APERTURE LIST*
%TA.AperFunction,ComponentPad*%
%ADD10C,1.000000*%
%TD*%
%TA.AperFunction,ComponentPad*%
%ADD11R,1.000000X1.000000*%
%TD*%
%TA.AperFunction,HeatsinkPad*%
%ADD12C,0.600000*%
%TD*%
%TA.AperFunction,ComponentPad*%
%ADD13C,0.254000*%
%TD*%
%TA.AperFunction,HeatsinkPad*%
%ADD14C,0.500000*%
%TD*%
%TA.AperFunction,HeatsinkPad*%
%ADD15O,2.100000X1.000000*%
%TD*%
%TA.AperFunction,HeatsinkPad*%
%ADD16O,1.800000X1.000000*%
%TD*%
%TA.AperFunction,ViaPad*%
%ADD17C,0.600000*%
%TD*%
G04 APERTURE END LIST*
D10*
%TO.N,GND*%
%TO.C,J4*%
X1550000Y33415000D03*
%TO.N,Net-(J4-Pin_3)*%
X1550000Y32145000D03*
%TO.N,Net-(J4-Pin_2)*%
X1550000Y30875000D03*
D11*
%TO.N,+3.3V*%
X1550000Y29605000D03*
%TD*%
D12*
%TO.N,GND*%
%TO.C,U9*%
X16550000Y51570000D03*
X16550000Y50170000D03*
X17250000Y52270000D03*
X17250000Y50870000D03*
X17250000Y49470000D03*
X17950000Y51570000D03*
X17950000Y50170000D03*
X18650000Y52270000D03*
X18650000Y50870000D03*
X18650000Y49470000D03*
X19350000Y51570000D03*
X19350000Y50170000D03*
%TD*%
D13*
%TO.N,MAX_INT_1_8*%
%TO.C,U1*%
X18175000Y31580000D03*
%TO.N,GPIO1*%
X18575000Y31580000D03*
%TD*%
D14*
%TO.N,GND*%
%TO.C,U3*%
X13440000Y4177500D03*
X14540000Y4177500D03*
X15640000Y4177500D03*
X13440000Y5277500D03*
X14540000Y5277500D03*
X15640000Y5277500D03*
X13440000Y6377500D03*
X14540000Y6377500D03*
X15640000Y6377500D03*
%TD*%
D15*
%TO.N,GND*%
%TO.C,J1*%
X6805000Y45500000D03*
D16*
X2625000Y45500000D03*
D15*
X6805000Y36860000D03*
D16*
X2625000Y36860000D03*
%TD*%
D17*
%TO.N,+1.8V*%
X16025442Y34630000D03*
%TO.N,GND*%
X2925000Y25730000D03*
%TO.N,+3.3V*%
X2925000Y27630000D03*
X21040000Y17355000D03*
X4490000Y56960000D03*
X12263415Y32766585D03*
X21070000Y21430000D03*
X21050000Y19380000D03*
X26850000Y11605000D03*
X7260000Y34010000D03*
X19275000Y38205000D03*
X15575000Y39180000D03*
X1940000Y10510000D03*
X4660000Y53540000D03*
X27950000Y14955000D03*
%TO.N,GND*%
X24175000Y1555000D03*
X13700000Y39180000D03*
X16375000Y1582000D03*
X6150000Y2605000D03*
X12390000Y58630000D03*
X18361793Y29893207D03*
X26900000Y58690000D03*
X4390000Y50550000D03*
X1800000Y12380000D03*
X4740000Y12270000D03*
X19475000Y36530000D03*
X8312409Y33363938D03*
X21875000Y25680000D03*
X9863235Y1668235D03*
X10225000Y9105000D03*
X8136500Y22655000D03*
X18620000Y9000000D03*
X21225000Y6880000D03*
X1750000Y24080000D03*
X19300000Y12580000D03*
X27950000Y12805000D03*
X12700000Y28855000D03*
X6670000Y19610000D03*
X7000000Y26282500D03*
X4949931Y28984147D03*
X18575000Y23330000D03*
X2730000Y21630000D03*
X3840000Y7170000D03*
X20925000Y27680000D03*
X24175000Y52280000D03*
X14625000Y28780000D03*
X23100000Y17480000D03*
X4430000Y58860000D03*
X22991276Y12052999D03*
X23200000Y21480000D03*
X27490000Y36300000D03*
X5190922Y35008000D03*
X8100000Y54290000D03*
X26300000Y5280000D03*
X2440000Y1940000D03*
X26795000Y31155000D03*
X23200000Y23255000D03*
X20975000Y12030000D03*
X12280000Y7700000D03*
X23100000Y19380000D03*
%TO.N,+1.8V*%
X19025000Y27630000D03*
X24925000Y37105000D03*
%TO.N,VBUS*%
X12350000Y781000D03*
X8251000Y38780000D03*
X8525000Y43580000D03*
%TO.N,+BATT*%
X24325000Y5280000D03*
X16450000Y7255000D03*
%TO.N,Net-(U3-REGN)*%
X8100000Y2510000D03*
X19600000Y780000D03*
%TO.N,Vsys*%
X14500000Y8080000D03*
X4910000Y3370000D03*
X7160000Y6160000D03*
X29199000Y28655000D03*
%TO.N,Net-(IC1-PON)*%
X6310000Y18100000D03*
X2275000Y20530000D03*
%TO.N,SDA*%
X18925000Y1955000D03*
X12290000Y49700000D03*
X5950000Y14780000D03*
X10079986Y34573544D03*
%TO.N,SCL*%
X6976000Y13680000D03*
X10538565Y33305892D03*
X13085000Y48430000D03*
X17425000Y2605000D03*
%TO.N,MAX_INT*%
X20475000Y39405000D03*
X14600000Y39205000D03*
%TO.N,Net-(U9-IO0)*%
X800000Y51440000D03*
X21200000Y57262000D03*
%TO.N,MAX_CS_1_8*%
X16825000Y35055000D03*
X20203067Y34931994D03*
%TO.N,MAX_SCLK_1_8*%
X19013235Y34331994D03*
X16902354Y34258749D03*
%TO.N,INT_BAT*%
X27675000Y9230000D03*
X26450000Y56130000D03*
%TO.N,CE_BAT*%
X17450000Y5020000D03*
X12709000Y38772423D03*
%TO.N,PSEL_BAT*%
X14375000Y2180000D03*
X12000000Y54780000D03*
%TO.N,MAX_INT_1_8*%
X20740089Y35524958D03*
%TO.N,ICM_FSYNC*%
X5956886Y29286713D03*
X12180000Y53530000D03*
%TO.N,GPS_TX*%
X16625000Y45880000D03*
X20950000Y13955000D03*
%TO.N,ICM_INT2*%
X8238221Y34206000D03*
X11970000Y51050000D03*
%TO.N,GPS_RST*%
X25010000Y28530000D03*
X26375000Y48430000D03*
%TO.N,ICM_INT*%
X9340784Y52283250D03*
X4875000Y36656000D03*
%TO.N,GPS_PP1*%
X26075000Y50980000D03*
X22735936Y13992407D03*
%TO.N,FLASH_SCLK*%
X25450000Y15930000D03*
X21951316Y42830000D03*
%TO.N,GPS_SEL*%
X10125000Y11130000D03*
X26375000Y47130000D03*
%TO.N,Net-(J4-Pin_3)*%
X26500000Y53510000D03*
%TO.N,GPS_RX*%
X16600000Y47080000D03*
X21875000Y13980000D03*
%TO.N,ICM_AD0*%
X22675000Y57280000D03*
X9057335Y36950665D03*
%TO.N,Net-(J4-Pin_2)*%
X25560000Y54830000D03*
%TO.N,GPS_FIX*%
X26425000Y38905000D03*
X26174265Y14155735D03*
%TO.N,Net-(U1-PD2_IN)*%
X18025000Y27255000D03*
X19925000Y29955000D03*
%TO.N,Net-(D2-RK)*%
X13620579Y30961000D03*
%TO.N,Net-(D1-K)*%
X13475000Y23530000D03*
%TO.N,Net-(IC1-VCC)*%
X6890000Y16980000D03*
X4117506Y18664528D03*
%TO.N,Net-(U1-PD1_IN)*%
X16200000Y21480000D03*
%TO.N,PD_GND*%
X18500000Y25155000D03*
%TO.N,FLASH_SID0*%
X21215735Y42325735D03*
X24175827Y15680418D03*
%TO.N,FLASH_SID3*%
X26550735Y16229265D03*
X22352316Y43522243D03*
%TO.N,FLASH_CS*%
X27998000Y26480000D03*
X25342100Y42980000D03*
%TO.N,FLASH_SID1*%
X24775000Y38781000D03*
X27375000Y26993500D03*
%TO.N,FLASH_SID2*%
X26103000Y26580000D03*
X25581574Y38739044D03*
%TO.N,+3.3V_LED*%
X13175000Y24680000D03*
X13625000Y29730000D03*
X14231885Y32655999D03*
X16075000Y11730000D03*
X16344496Y32762087D03*
X14350000Y14130000D03*
X16375000Y16330000D03*
X13400000Y22580000D03*
X16486765Y30955000D03*
%TO.N,Net-(D2-GK)*%
X11200003Y24630000D03*
X15600000Y17180000D03*
X10978456Y27558456D03*
X16450000Y29730000D03*
%TO.N,Net-(D2-BK)*%
X11749899Y31211001D03*
%TO.N,Net-(D3-RK)*%
X7138883Y27070353D03*
X13525000Y16280000D03*
X10350000Y21691027D03*
%TO.N,Net-(D3-BK)*%
X15025000Y13480000D03*
%TO.N,GPIO1*%
X14375000Y34655000D03*
X10950000Y28530000D03*
X10600003Y23530000D03*
%TD*%
%TA.AperFunction,Conductor*%
%TO.N,GND*%
G36*
X29442539Y59459815D02*
G01*
X29488294Y59407011D01*
X29499500Y59355500D01*
X29499500Y29562505D01*
X29479815Y29495466D01*
X29427011Y29449711D01*
X29357853Y29439767D01*
X29351310Y29440887D01*
X29277842Y29455500D01*
X29120158Y29455500D01*
X29120155Y29455500D01*
X28965510Y29424739D01*
X28965498Y29424736D01*
X28819827Y29364398D01*
X28819814Y29364391D01*
X28688711Y29276790D01*
X28688707Y29276787D01*
X28577213Y29165293D01*
X28577210Y29165289D01*
X28489609Y29034186D01*
X28489602Y29034173D01*
X28429264Y28888502D01*
X28429261Y28888490D01*
X28398500Y28733847D01*
X28398500Y28576154D01*
X28429261Y28421511D01*
X28429264Y28421499D01*
X28489602Y28275828D01*
X28489609Y28275815D01*
X28577210Y28144712D01*
X28577213Y28144708D01*
X28688707Y28033214D01*
X28688711Y28033211D01*
X28819814Y27945610D01*
X28819827Y27945603D01*
X28910101Y27908211D01*
X28965503Y27885263D01*
X29120153Y27854501D01*
X29120156Y27854500D01*
X29120158Y27854500D01*
X29277844Y27854500D01*
X29277845Y27854501D01*
X29296658Y27858243D01*
X29351309Y27869113D01*
X29420900Y27862886D01*
X29476077Y27820023D01*
X29499322Y27754133D01*
X29499500Y27747496D01*
X29499500Y604500D01*
X29479815Y537461D01*
X29427011Y491706D01*
X29375500Y480500D01*
X20507703Y480500D01*
X20440664Y500185D01*
X20394909Y552989D01*
X20384965Y622147D01*
X20386086Y628691D01*
X20400499Y701154D01*
X20400500Y701156D01*
X20400500Y858845D01*
X20400499Y858847D01*
X20369738Y1013490D01*
X20369738Y1013491D01*
X20369737Y1013497D01*
X20367649Y1018537D01*
X20309397Y1159173D01*
X20309390Y1159186D01*
X20221789Y1290289D01*
X20221786Y1290293D01*
X20110292Y1401787D01*
X20110288Y1401790D01*
X19979185Y1489391D01*
X19979172Y1489398D01*
X19833501Y1549736D01*
X19833491Y1549739D01*
X19787676Y1558852D01*
X19725765Y1591237D01*
X19691191Y1651953D01*
X19693211Y1716477D01*
X19694735Y1721499D01*
X19694737Y1721503D01*
X19698469Y1740262D01*
X19725499Y1876154D01*
X19725500Y1876156D01*
X19725500Y2033845D01*
X19725499Y2033847D01*
X19712110Y2101158D01*
X19694737Y2188497D01*
X19694735Y2188502D01*
X19634397Y2334173D01*
X19634390Y2334186D01*
X19546789Y2465289D01*
X19546786Y2465293D01*
X19435292Y2576787D01*
X19435288Y2576790D01*
X19304185Y2664391D01*
X19304172Y2664398D01*
X19158501Y2724736D01*
X19158489Y2724739D01*
X19003845Y2755500D01*
X19003842Y2755500D01*
X18846158Y2755500D01*
X18846155Y2755500D01*
X18691510Y2724739D01*
X18691498Y2724736D01*
X18545827Y2664398D01*
X18545814Y2664391D01*
X18418391Y2579249D01*
X18351713Y2558371D01*
X18284333Y2576856D01*
X18237643Y2628835D01*
X18226527Y2677825D01*
X18226097Y2677782D01*
X18225759Y2681206D01*
X18225500Y2682351D01*
X18225500Y2683845D01*
X18225499Y2683847D01*
X18212696Y2748211D01*
X18194737Y2838497D01*
X18185950Y2859712D01*
X18134397Y2984173D01*
X18134390Y2984186D01*
X18046789Y3115289D01*
X18046786Y3115293D01*
X17935292Y3226787D01*
X17935288Y3226790D01*
X17804185Y3314391D01*
X17804172Y3314398D01*
X17658501Y3374736D01*
X17658489Y3374739D01*
X17503845Y3405500D01*
X17503842Y3405500D01*
X17346158Y3405500D01*
X17346155Y3405500D01*
X17191510Y3374739D01*
X17191498Y3374736D01*
X17045827Y3314398D01*
X17045814Y3314391D01*
X16914711Y3226790D01*
X16914707Y3226787D01*
X16803213Y3115293D01*
X16803210Y3115289D01*
X16715609Y2984186D01*
X16715602Y2984173D01*
X16655264Y2838502D01*
X16655261Y2838490D01*
X16624500Y2683847D01*
X16624500Y2526154D01*
X16655261Y2371511D01*
X16655264Y2371499D01*
X16715602Y2225828D01*
X16715609Y2225815D01*
X16803210Y2094712D01*
X16803213Y2094708D01*
X16914707Y1983214D01*
X16914711Y1983211D01*
X17045814Y1895610D01*
X17045827Y1895603D01*
X17191498Y1835265D01*
X17191503Y1835263D01*
X17346153Y1804501D01*
X17346156Y1804500D01*
X17346158Y1804500D01*
X17503844Y1804500D01*
X17503845Y1804501D01*
X17658497Y1835263D01*
X17804179Y1895606D01*
X17931609Y1980752D01*
X17998286Y2001630D01*
X18065666Y1983146D01*
X18112357Y1931167D01*
X18123473Y1882176D01*
X18123903Y1882218D01*
X18124239Y1878796D01*
X18124500Y1877650D01*
X18124500Y1876154D01*
X18155261Y1721511D01*
X18155264Y1721499D01*
X18215602Y1575828D01*
X18215609Y1575815D01*
X18303210Y1444712D01*
X18303213Y1444708D01*
X18414707Y1333214D01*
X18414711Y1333211D01*
X18545814Y1245610D01*
X18545827Y1245603D01*
X18691498Y1185265D01*
X18691503Y1185263D01*
X18737323Y1176149D01*
X18799232Y1143765D01*
X18833807Y1083050D01*
X18831792Y1018537D01*
X18830261Y1013491D01*
X18799500Y858847D01*
X18799500Y701154D01*
X18813914Y628691D01*
X18807687Y559100D01*
X18764824Y503922D01*
X18698934Y480678D01*
X18692297Y480500D01*
X13257504Y480500D01*
X13190465Y500185D01*
X13144710Y552989D01*
X13134766Y622147D01*
X13135887Y628691D01*
X13150300Y701154D01*
X13150500Y702158D01*
X13150500Y859842D01*
X13150500Y859845D01*
X13150499Y859847D01*
X13119738Y1014490D01*
X13119737Y1014497D01*
X13066193Y1143765D01*
X13059397Y1160173D01*
X13059390Y1160186D01*
X12971789Y1291289D01*
X12971786Y1291293D01*
X12860292Y1402787D01*
X12860288Y1402790D01*
X12729185Y1490391D01*
X12729172Y1490398D01*
X12583501Y1550736D01*
X12583489Y1550739D01*
X12428845Y1581500D01*
X12428842Y1581500D01*
X12271158Y1581500D01*
X12271155Y1581500D01*
X12116510Y1550739D01*
X12116498Y1550736D01*
X11970827Y1490398D01*
X11970814Y1490391D01*
X11839711Y1402790D01*
X11839707Y1402787D01*
X11728213Y1291293D01*
X11728210Y1291289D01*
X11640609Y1160186D01*
X11640602Y1160173D01*
X11580264Y1014502D01*
X11580261Y1014490D01*
X11549500Y859847D01*
X11549500Y702154D01*
X11564113Y628691D01*
X11557886Y559100D01*
X11515023Y503923D01*
X11449133Y480678D01*
X11442496Y480500D01*
X624500Y480500D01*
X557461Y500185D01*
X511706Y552989D01*
X500500Y604500D01*
X500500Y3448847D01*
X4109500Y3448847D01*
X4109500Y3291154D01*
X4140261Y3136511D01*
X4140264Y3136499D01*
X4200602Y2990828D01*
X4200609Y2990815D01*
X4288210Y2859712D01*
X4288213Y2859708D01*
X4399707Y2748214D01*
X4399711Y2748211D01*
X4530814Y2660610D01*
X4530827Y2660603D01*
X4676498Y2600265D01*
X4676503Y2600263D01*
X4831153Y2569501D01*
X4831156Y2569500D01*
X4831158Y2569500D01*
X4988844Y2569500D01*
X4988845Y2569501D01*
X5086105Y2588847D01*
X7299500Y2588847D01*
X7299500Y2431154D01*
X7330261Y2276511D01*
X7330264Y2276499D01*
X7390602Y2130828D01*
X7390609Y2130815D01*
X7478210Y1999712D01*
X7478213Y1999708D01*
X7589707Y1888214D01*
X7589711Y1888211D01*
X7720814Y1800610D01*
X7720827Y1800603D01*
X7866498Y1740265D01*
X7866503Y1740263D01*
X8021153Y1709501D01*
X8021156Y1709500D01*
X8021158Y1709500D01*
X8178844Y1709500D01*
X8178845Y1709501D01*
X8333497Y1740263D01*
X8479179Y1800606D01*
X8610289Y1888211D01*
X8721789Y1999711D01*
X8809394Y2130821D01*
X8862424Y2258847D01*
X13574500Y2258847D01*
X13574500Y2101154D01*
X13605261Y1946511D01*
X13605264Y1946499D01*
X13665602Y1800828D01*
X13665609Y1800815D01*
X13753210Y1669712D01*
X13753213Y1669708D01*
X13864707Y1558214D01*
X13864711Y1558211D01*
X13995814Y1470610D01*
X13995827Y1470603D01*
X14141498Y1410265D01*
X14141503Y1410263D01*
X14296153Y1379501D01*
X14296156Y1379500D01*
X14296158Y1379500D01*
X14453844Y1379500D01*
X14453845Y1379501D01*
X14608497Y1410263D01*
X14754179Y1470606D01*
X14885289Y1558211D01*
X14996789Y1669711D01*
X15084394Y1800821D01*
X15144737Y1946503D01*
X15175500Y2101158D01*
X15175500Y2258842D01*
X15175500Y2258845D01*
X15175499Y2258847D01*
X15169476Y2289126D01*
X15144737Y2413497D01*
X15137423Y2431154D01*
X15084397Y2559173D01*
X15084390Y2559186D01*
X14996789Y2690289D01*
X14996786Y2690293D01*
X14885292Y2801787D01*
X14885288Y2801790D01*
X14754185Y2889391D01*
X14754172Y2889398D01*
X14608501Y2949736D01*
X14608489Y2949739D01*
X14453845Y2980500D01*
X14453842Y2980500D01*
X14296158Y2980500D01*
X14296155Y2980500D01*
X14141510Y2949739D01*
X14141498Y2949736D01*
X13995827Y2889398D01*
X13995814Y2889391D01*
X13864711Y2801790D01*
X13864707Y2801787D01*
X13753213Y2690293D01*
X13753210Y2690289D01*
X13665609Y2559186D01*
X13665602Y2559173D01*
X13605264Y2413502D01*
X13605261Y2413490D01*
X13574500Y2258847D01*
X8862424Y2258847D01*
X8869737Y2276503D01*
X8896988Y2413502D01*
X8900500Y2431156D01*
X8900500Y2588845D01*
X8900499Y2588847D01*
X8885472Y2664391D01*
X8869737Y2743497D01*
X8845592Y2801789D01*
X8809397Y2889173D01*
X8809390Y2889186D01*
X8721789Y3020289D01*
X8721786Y3020293D01*
X8610292Y3131787D01*
X8610288Y3131790D01*
X8479185Y3219391D01*
X8479172Y3219398D01*
X8333501Y3279736D01*
X8333489Y3279739D01*
X8178845Y3310500D01*
X8178842Y3310500D01*
X8021158Y3310500D01*
X8021155Y3310500D01*
X7866510Y3279739D01*
X7866498Y3279736D01*
X7720827Y3219398D01*
X7720814Y3219391D01*
X7589711Y3131790D01*
X7589707Y3131787D01*
X7478213Y3020293D01*
X7478210Y3020289D01*
X7390609Y2889186D01*
X7390602Y2889173D01*
X7330264Y2743502D01*
X7330261Y2743490D01*
X7299500Y2588847D01*
X5086105Y2588847D01*
X5143497Y2600263D01*
X5289179Y2660606D01*
X5314885Y2677782D01*
X5345198Y2698036D01*
X5385161Y2724739D01*
X5420289Y2748211D01*
X5531789Y2859711D01*
X5619394Y2990821D01*
X5679737Y3136503D01*
X5710500Y3291158D01*
X5710500Y3448842D01*
X5710500Y3448845D01*
X5700339Y3499923D01*
X13115975Y3499923D01*
X13221236Y3456322D01*
X13221240Y3456321D01*
X13366126Y3427501D01*
X13366129Y3427500D01*
X13513871Y3427500D01*
X13513873Y3427501D01*
X13658760Y3456321D01*
X13658775Y3456325D01*
X13764024Y3499922D01*
X13764024Y3499923D01*
X14215975Y3499923D01*
X14321236Y3456322D01*
X14321240Y3456321D01*
X14466126Y3427501D01*
X14466129Y3427500D01*
X14613871Y3427500D01*
X14613873Y3427501D01*
X14758760Y3456321D01*
X14758775Y3456325D01*
X14864024Y3499922D01*
X14864024Y3499923D01*
X15315975Y3499923D01*
X15421236Y3456322D01*
X15421240Y3456321D01*
X15566126Y3427501D01*
X15566129Y3427500D01*
X15713871Y3427500D01*
X15713873Y3427501D01*
X15858760Y3456321D01*
X15858775Y3456325D01*
X15964024Y3499922D01*
X15964024Y3499923D01*
X15640001Y3823946D01*
X15640000Y3823946D01*
X15315975Y3499923D01*
X14864024Y3499923D01*
X14540001Y3823946D01*
X14540000Y3823946D01*
X14215975Y3499923D01*
X13764024Y3499923D01*
X13440001Y3823946D01*
X13440000Y3823946D01*
X13115975Y3499923D01*
X5700339Y3499923D01*
X5697033Y3516545D01*
X5697033Y3516546D01*
X5679738Y3603490D01*
X5679737Y3603497D01*
X5679735Y3603502D01*
X5619397Y3749173D01*
X5619390Y3749186D01*
X5531789Y3880289D01*
X5531786Y3880293D01*
X5420292Y3991787D01*
X5420288Y3991790D01*
X5289185Y4079391D01*
X5289172Y4079398D01*
X5143498Y4139737D01*
X5143492Y4139739D01*
X4988845Y4170500D01*
X4988842Y4170500D01*
X4831158Y4170500D01*
X4831155Y4170500D01*
X4676510Y4139739D01*
X4676498Y4139736D01*
X4530827Y4079398D01*
X4530814Y4079391D01*
X4399711Y3991790D01*
X4399707Y3991787D01*
X4288213Y3880293D01*
X4288210Y3880289D01*
X4200609Y3749186D01*
X4200602Y3749173D01*
X4140264Y3603502D01*
X4140261Y3603490D01*
X4109500Y3448847D01*
X500500Y3448847D01*
X500500Y4251374D01*
X12690000Y4251374D01*
X12690000Y4103627D01*
X12718820Y3958741D01*
X12718822Y3958733D01*
X12762421Y3853476D01*
X13086446Y4177500D01*
X13086446Y4177501D01*
X13066556Y4197391D01*
X13340000Y4197391D01*
X13340000Y4157609D01*
X13355224Y4120855D01*
X13383355Y4092724D01*
X13420109Y4077500D01*
X13459891Y4077500D01*
X13496645Y4092724D01*
X13524776Y4120855D01*
X13540000Y4157609D01*
X13540000Y4177500D01*
X13793554Y4177500D01*
X13990000Y3981054D01*
X14186446Y4177500D01*
X14166555Y4197391D01*
X14440000Y4197391D01*
X14440000Y4157609D01*
X14455224Y4120855D01*
X14483355Y4092724D01*
X14520109Y4077500D01*
X14559891Y4077500D01*
X14596645Y4092724D01*
X14624776Y4120855D01*
X14640000Y4157609D01*
X14640000Y4177500D01*
X14893554Y4177500D01*
X15090000Y3981054D01*
X15286446Y4177500D01*
X15266555Y4197391D01*
X15540000Y4197391D01*
X15540000Y4157609D01*
X15555224Y4120855D01*
X15583355Y4092724D01*
X15620109Y4077500D01*
X15659891Y4077500D01*
X15696645Y4092724D01*
X15724776Y4120855D01*
X15740000Y4157609D01*
X15740000Y4177501D01*
X15993554Y4177501D01*
X15993554Y4177499D01*
X16317577Y3853476D01*
X16317578Y3853476D01*
X16361175Y3958725D01*
X16361179Y3958740D01*
X16389999Y4103627D01*
X16390000Y4103629D01*
X16390000Y4251372D01*
X16389999Y4251374D01*
X16361179Y4396260D01*
X16361178Y4396264D01*
X16317577Y4501525D01*
X15993554Y4177501D01*
X15740000Y4177501D01*
X15740000Y4197391D01*
X15724776Y4234145D01*
X15696645Y4262276D01*
X15659891Y4277500D01*
X15620109Y4277500D01*
X15583355Y4262276D01*
X15555224Y4234145D01*
X15540000Y4197391D01*
X15266555Y4197391D01*
X15090000Y4373946D01*
X14893554Y4177500D01*
X14640000Y4177500D01*
X14640000Y4197391D01*
X14624776Y4234145D01*
X14596645Y4262276D01*
X14559891Y4277500D01*
X14520109Y4277500D01*
X14483355Y4262276D01*
X14455224Y4234145D01*
X14440000Y4197391D01*
X14166555Y4197391D01*
X13990000Y4373946D01*
X13793554Y4177500D01*
X13540000Y4177500D01*
X13540000Y4197391D01*
X13524776Y4234145D01*
X13496645Y4262276D01*
X13459891Y4277500D01*
X13420109Y4277500D01*
X13383355Y4262276D01*
X13355224Y4234145D01*
X13340000Y4197391D01*
X13066556Y4197391D01*
X12762421Y4501526D01*
X12762420Y4501526D01*
X12718823Y4396272D01*
X12718820Y4396260D01*
X12690000Y4251374D01*
X500500Y4251374D01*
X500500Y4727500D01*
X13243554Y4727500D01*
X13440000Y4531054D01*
X13636446Y4727500D01*
X14343554Y4727500D01*
X14540000Y4531054D01*
X14736446Y4727500D01*
X15443554Y4727500D01*
X15640000Y4531054D01*
X15836446Y4727500D01*
X15640000Y4923946D01*
X15443554Y4727500D01*
X14736446Y4727500D01*
X14540000Y4923946D01*
X14343554Y4727500D01*
X13636446Y4727500D01*
X13440000Y4923946D01*
X13243554Y4727500D01*
X500500Y4727500D01*
X500500Y5351374D01*
X12690000Y5351374D01*
X12690000Y5203627D01*
X12718820Y5058741D01*
X12718822Y5058733D01*
X12762421Y4953476D01*
X13086446Y5277500D01*
X13086446Y5277501D01*
X13066556Y5297391D01*
X13340000Y5297391D01*
X13340000Y5257609D01*
X13355224Y5220855D01*
X13383355Y5192724D01*
X13420109Y5177500D01*
X13459891Y5177500D01*
X13496645Y5192724D01*
X13524776Y5220855D01*
X13540000Y5257609D01*
X13540000Y5277500D01*
X13793554Y5277500D01*
X13990000Y5081054D01*
X14186446Y5277500D01*
X14166555Y5297391D01*
X14440000Y5297391D01*
X14440000Y5257609D01*
X14455224Y5220855D01*
X14483355Y5192724D01*
X14520109Y5177500D01*
X14559891Y5177500D01*
X14596645Y5192724D01*
X14624776Y5220855D01*
X14640000Y5257609D01*
X14640000Y5277500D01*
X14893554Y5277500D01*
X15090000Y5081054D01*
X15286446Y5277500D01*
X15266555Y5297391D01*
X15540000Y5297391D01*
X15540000Y5257609D01*
X15555224Y5220855D01*
X15583355Y5192724D01*
X15620109Y5177500D01*
X15659891Y5177500D01*
X15696645Y5192724D01*
X15724776Y5220855D01*
X15740000Y5257609D01*
X15740000Y5277501D01*
X15993554Y5277501D01*
X15993554Y5277499D01*
X16317577Y4953476D01*
X16317578Y4953476D01*
X16361175Y5058725D01*
X16361179Y5058740D01*
X16369157Y5098847D01*
X16649500Y5098847D01*
X16649500Y4941154D01*
X16680261Y4786511D01*
X16680264Y4786499D01*
X16740602Y4640828D01*
X16740609Y4640815D01*
X16828210Y4509712D01*
X16828213Y4509708D01*
X16939707Y4398214D01*
X16939711Y4398211D01*
X17070814Y4310610D01*
X17070827Y4310603D01*
X17216498Y4250265D01*
X17216503Y4250263D01*
X17371153Y4219501D01*
X17371156Y4219500D01*
X17371158Y4219500D01*
X17528844Y4219500D01*
X17528845Y4219501D01*
X17683497Y4250263D01*
X17829179Y4310606D01*
X17960289Y4398211D01*
X18071789Y4509711D01*
X18159394Y4640821D01*
X18219737Y4786503D01*
X18250500Y4941158D01*
X18250500Y5098842D01*
X18250500Y5098845D01*
X18250499Y5098847D01*
X18234854Y5177500D01*
X18219737Y5253497D01*
X18186332Y5334145D01*
X18176100Y5358847D01*
X23524500Y5358847D01*
X23524500Y5201154D01*
X23555261Y5046511D01*
X23555264Y5046499D01*
X23615602Y4900828D01*
X23615609Y4900815D01*
X23703210Y4769712D01*
X23703213Y4769708D01*
X23814707Y4658214D01*
X23814711Y4658211D01*
X23945814Y4570610D01*
X23945827Y4570603D01*
X24091498Y4510265D01*
X24091503Y4510263D01*
X24246153Y4479501D01*
X24246156Y4479500D01*
X24246158Y4479500D01*
X24403844Y4479500D01*
X24403845Y4479501D01*
X24558497Y4510263D01*
X24704179Y4570606D01*
X24835289Y4658211D01*
X24946789Y4769711D01*
X25034394Y4900821D01*
X25094737Y5046503D01*
X25125500Y5201158D01*
X25125500Y5358842D01*
X25125500Y5358845D01*
X25125499Y5358847D01*
X25119250Y5390263D01*
X25094737Y5513497D01*
X25058275Y5601525D01*
X25034397Y5659173D01*
X25034390Y5659186D01*
X24946789Y5790289D01*
X24946786Y5790293D01*
X24835292Y5901787D01*
X24835288Y5901790D01*
X24704185Y5989391D01*
X24704172Y5989398D01*
X24558501Y6049736D01*
X24558489Y6049739D01*
X24403845Y6080500D01*
X24403842Y6080500D01*
X24246158Y6080500D01*
X24246155Y6080500D01*
X24091510Y6049739D01*
X24091498Y6049736D01*
X23945827Y5989398D01*
X23945814Y5989391D01*
X23814711Y5901790D01*
X23814707Y5901787D01*
X23703213Y5790293D01*
X23703210Y5790289D01*
X23615609Y5659186D01*
X23615602Y5659173D01*
X23555264Y5513502D01*
X23555261Y5513490D01*
X23524500Y5358847D01*
X18176100Y5358847D01*
X18159397Y5399173D01*
X18159390Y5399186D01*
X18071789Y5530289D01*
X18071786Y5530293D01*
X17960292Y5641787D01*
X17960288Y5641790D01*
X17829185Y5729391D01*
X17829172Y5729398D01*
X17683501Y5789736D01*
X17683489Y5789739D01*
X17528845Y5820500D01*
X17528842Y5820500D01*
X17371158Y5820500D01*
X17371155Y5820500D01*
X17216510Y5789739D01*
X17216498Y5789736D01*
X17070827Y5729398D01*
X17070814Y5729391D01*
X16939711Y5641790D01*
X16939707Y5641787D01*
X16828213Y5530293D01*
X16828210Y5530289D01*
X16740609Y5399186D01*
X16740602Y5399173D01*
X16680264Y5253502D01*
X16680261Y5253490D01*
X16649500Y5098847D01*
X16369157Y5098847D01*
X16375180Y5129125D01*
X16375180Y5129126D01*
X16390000Y5203629D01*
X16390000Y5351372D01*
X16389999Y5351374D01*
X16361179Y5496260D01*
X16361178Y5496264D01*
X16317577Y5601525D01*
X15993554Y5277501D01*
X15740000Y5277501D01*
X15740000Y5297391D01*
X15724776Y5334145D01*
X15696645Y5362276D01*
X15659891Y5377500D01*
X15620109Y5377500D01*
X15583355Y5362276D01*
X15555224Y5334145D01*
X15540000Y5297391D01*
X15266555Y5297391D01*
X15090000Y5473946D01*
X14893554Y5277500D01*
X14640000Y5277500D01*
X14640000Y5297391D01*
X14624776Y5334145D01*
X14596645Y5362276D01*
X14559891Y5377500D01*
X14520109Y5377500D01*
X14483355Y5362276D01*
X14455224Y5334145D01*
X14440000Y5297391D01*
X14166555Y5297391D01*
X13990000Y5473946D01*
X13793554Y5277500D01*
X13540000Y5277500D01*
X13540000Y5297391D01*
X13524776Y5334145D01*
X13496645Y5362276D01*
X13459891Y5377500D01*
X13420109Y5377500D01*
X13383355Y5362276D01*
X13355224Y5334145D01*
X13340000Y5297391D01*
X13066556Y5297391D01*
X12762421Y5601526D01*
X12762420Y5601526D01*
X12718823Y5496272D01*
X12718820Y5496260D01*
X12690000Y5351374D01*
X500500Y5351374D01*
X500500Y6238847D01*
X6359500Y6238847D01*
X6359500Y6081154D01*
X6390261Y5926511D01*
X6390264Y5926499D01*
X6450602Y5780828D01*
X6450609Y5780815D01*
X6538210Y5649712D01*
X6538213Y5649708D01*
X6649707Y5538214D01*
X6649711Y5538211D01*
X6780814Y5450610D01*
X6780827Y5450603D01*
X6904992Y5399173D01*
X6926503Y5390263D01*
X7067202Y5362276D01*
X7081153Y5359501D01*
X7081156Y5359500D01*
X7081158Y5359500D01*
X7238844Y5359500D01*
X7238845Y5359501D01*
X7393497Y5390263D01*
X7539179Y5450606D01*
X7544769Y5454342D01*
X7554083Y5460564D01*
X7554083Y5460565D01*
X7670289Y5538211D01*
X7781789Y5649711D01*
X7869394Y5780821D01*
X7873316Y5790289D01*
X7888729Y5827500D01*
X13243554Y5827500D01*
X13440000Y5631054D01*
X13636446Y5827500D01*
X14343554Y5827500D01*
X14540000Y5631054D01*
X14736446Y5827500D01*
X15443554Y5827500D01*
X15640000Y5631054D01*
X15836446Y5827500D01*
X15640000Y6023946D01*
X15443554Y5827500D01*
X14736446Y5827500D01*
X14540000Y6023946D01*
X14343554Y5827500D01*
X13636446Y5827500D01*
X13440000Y6023946D01*
X13243554Y5827500D01*
X7888729Y5827500D01*
X7929656Y5926307D01*
X7929656Y5926309D01*
X7929737Y5926503D01*
X7960500Y6081158D01*
X7960500Y6238842D01*
X7960500Y6238845D01*
X7960499Y6238847D01*
X7942268Y6330500D01*
X7929737Y6393497D01*
X7905764Y6451374D01*
X12690000Y6451374D01*
X12690000Y6303627D01*
X12718820Y6158741D01*
X12718822Y6158733D01*
X12762421Y6053476D01*
X13086446Y6377500D01*
X13086446Y6377501D01*
X13066556Y6397391D01*
X13340000Y6397391D01*
X13340000Y6357609D01*
X13355224Y6320855D01*
X13383355Y6292724D01*
X13420109Y6277500D01*
X13459891Y6277500D01*
X13496645Y6292724D01*
X13524776Y6320855D01*
X13540000Y6357609D01*
X13540000Y6377500D01*
X13793554Y6377500D01*
X13990000Y6181054D01*
X14186446Y6377500D01*
X14166555Y6397391D01*
X14440000Y6397391D01*
X14440000Y6357609D01*
X14455224Y6320855D01*
X14483355Y6292724D01*
X14520109Y6277500D01*
X14559891Y6277500D01*
X14596645Y6292724D01*
X14624776Y6320855D01*
X14640000Y6357609D01*
X14640000Y6377500D01*
X14893554Y6377500D01*
X15090000Y6181054D01*
X15286446Y6377500D01*
X15266555Y6397391D01*
X15540000Y6397391D01*
X15540000Y6357609D01*
X15555224Y6320855D01*
X15583355Y6292724D01*
X15620109Y6277500D01*
X15659891Y6277500D01*
X15696645Y6292724D01*
X15724776Y6320855D01*
X15740000Y6357609D01*
X15740000Y6397391D01*
X15724776Y6434145D01*
X15696645Y6462276D01*
X15659891Y6477500D01*
X15620109Y6477500D01*
X15583355Y6462276D01*
X15555224Y6434145D01*
X15540000Y6397391D01*
X15266555Y6397391D01*
X15090000Y6573946D01*
X14893554Y6377500D01*
X14640000Y6377500D01*
X14640000Y6397391D01*
X14624776Y6434145D01*
X14596645Y6462276D01*
X14559891Y6477500D01*
X14520109Y6477500D01*
X14483355Y6462276D01*
X14455224Y6434145D01*
X14440000Y6397391D01*
X14166555Y6397391D01*
X13990000Y6573946D01*
X13793554Y6377500D01*
X13540000Y6377500D01*
X13540000Y6397391D01*
X13524776Y6434145D01*
X13496645Y6462276D01*
X13459891Y6477500D01*
X13420109Y6477500D01*
X13383355Y6462276D01*
X13355224Y6434145D01*
X13340000Y6397391D01*
X13066556Y6397391D01*
X12762421Y6701526D01*
X12762420Y6701526D01*
X12718823Y6596272D01*
X12718820Y6596260D01*
X12690000Y6451374D01*
X7905764Y6451374D01*
X7891726Y6485265D01*
X7869397Y6539173D01*
X7869390Y6539186D01*
X7781789Y6670289D01*
X7781786Y6670293D01*
X7670292Y6781787D01*
X7670288Y6781790D01*
X7539185Y6869391D01*
X7539172Y6869398D01*
X7466007Y6899703D01*
X7393501Y6929736D01*
X7393489Y6929739D01*
X7238845Y6960500D01*
X7238842Y6960500D01*
X7081158Y6960500D01*
X7081155Y6960500D01*
X6926510Y6929739D01*
X6926498Y6929736D01*
X6780827Y6869398D01*
X6780814Y6869391D01*
X6649711Y6781790D01*
X6649707Y6781787D01*
X6538213Y6670293D01*
X6538210Y6670289D01*
X6450609Y6539186D01*
X6450602Y6539173D01*
X6390264Y6393502D01*
X6390261Y6393490D01*
X6359500Y6238847D01*
X500500Y6238847D01*
X500500Y7055080D01*
X13115974Y7055080D01*
X13115974Y7055079D01*
X13440000Y6731054D01*
X13440001Y6731054D01*
X13764024Y7055079D01*
X13658767Y7098678D01*
X13658759Y7098680D01*
X13513872Y7127500D01*
X13366128Y7127500D01*
X13221240Y7098680D01*
X13221228Y7098677D01*
X13115974Y7055080D01*
X500500Y7055080D01*
X500500Y8158847D01*
X13699500Y8158847D01*
X13699500Y8001154D01*
X13730261Y7846511D01*
X13730264Y7846499D01*
X13790602Y7700828D01*
X13790609Y7700815D01*
X13878210Y7569712D01*
X13878213Y7569708D01*
X13989707Y7458214D01*
X13989711Y7458211D01*
X14120814Y7370610D01*
X14120827Y7370603D01*
X14272130Y7307932D01*
X14271094Y7305433D01*
X14319768Y7273535D01*
X14348225Y7209722D01*
X14337664Y7140655D01*
X14291439Y7088262D01*
X14272787Y7078611D01*
X14215974Y7055079D01*
X14540000Y6731054D01*
X14540001Y6731054D01*
X14864024Y7055079D01*
X14864022Y7055080D01*
X15315974Y7055080D01*
X15315974Y7055079D01*
X15816777Y6554277D01*
X16317577Y6053476D01*
X16317578Y6053476D01*
X16361175Y6158725D01*
X16361179Y6158740D01*
X16389999Y6303627D01*
X16390000Y6303629D01*
X16390000Y6330500D01*
X16409685Y6397539D01*
X16462489Y6443294D01*
X16514000Y6454500D01*
X16528844Y6454500D01*
X16528845Y6454501D01*
X16683497Y6485263D01*
X16829179Y6545606D01*
X16960289Y6633211D01*
X17071789Y6744711D01*
X17159394Y6875821D01*
X17219737Y7021503D01*
X17250500Y7176158D01*
X17250500Y7333842D01*
X17250500Y7333845D01*
X17250499Y7333847D01*
X17225761Y7458211D01*
X17219737Y7488497D01*
X17186099Y7569708D01*
X17159397Y7634173D01*
X17159390Y7634186D01*
X17071789Y7765289D01*
X17071786Y7765293D01*
X16960292Y7876787D01*
X16960288Y7876790D01*
X16829185Y7964391D01*
X16829172Y7964398D01*
X16683501Y8024736D01*
X16683489Y8024739D01*
X16528845Y8055500D01*
X16528842Y8055500D01*
X16371158Y8055500D01*
X16371155Y8055500D01*
X16216510Y8024739D01*
X16216498Y8024736D01*
X16070827Y7964398D01*
X16070814Y7964391D01*
X15939711Y7876790D01*
X15939707Y7876787D01*
X15828213Y7765293D01*
X15828210Y7765289D01*
X15740609Y7634186D01*
X15740602Y7634173D01*
X15680264Y7488502D01*
X15680261Y7488490D01*
X15649500Y7333847D01*
X15649500Y7245848D01*
X15629815Y7178809D01*
X15577011Y7133054D01*
X15549692Y7124231D01*
X15421238Y7098680D01*
X15421228Y7098677D01*
X15315974Y7055080D01*
X14864022Y7055080D01*
X14767300Y7095143D01*
X14712897Y7138984D01*
X14690832Y7205278D01*
X14708111Y7272977D01*
X14759248Y7320588D01*
X14767301Y7324265D01*
X14879172Y7370603D01*
X14879172Y7370604D01*
X14879179Y7370606D01*
X15010289Y7458211D01*
X15121789Y7569711D01*
X15209394Y7700821D01*
X15269737Y7846503D01*
X15300500Y8001158D01*
X15300500Y8158842D01*
X15300500Y8158845D01*
X15300499Y8158847D01*
X15269738Y8313490D01*
X15269737Y8313497D01*
X15269735Y8313502D01*
X15209397Y8459173D01*
X15209390Y8459186D01*
X15121789Y8590289D01*
X15121786Y8590293D01*
X15010292Y8701787D01*
X15010288Y8701790D01*
X14879185Y8789391D01*
X14879172Y8789398D01*
X14733501Y8849736D01*
X14733489Y8849739D01*
X14578845Y8880500D01*
X14578842Y8880500D01*
X14421158Y8880500D01*
X14421155Y8880500D01*
X14266510Y8849739D01*
X14266498Y8849736D01*
X14120827Y8789398D01*
X14120814Y8789391D01*
X13989711Y8701790D01*
X13989707Y8701787D01*
X13878213Y8590293D01*
X13878210Y8590289D01*
X13790609Y8459186D01*
X13790602Y8459173D01*
X13730264Y8313502D01*
X13730261Y8313490D01*
X13699500Y8158847D01*
X500500Y8158847D01*
X500500Y9308847D01*
X26874500Y9308847D01*
X26874500Y9151154D01*
X26905261Y8996511D01*
X26905264Y8996499D01*
X26965602Y8850828D01*
X26965609Y8850815D01*
X27053210Y8719712D01*
X27053213Y8719708D01*
X27164707Y8608214D01*
X27164711Y8608211D01*
X27295814Y8520610D01*
X27295827Y8520603D01*
X27441498Y8460265D01*
X27441503Y8460263D01*
X27596153Y8429501D01*
X27596156Y8429500D01*
X27596158Y8429500D01*
X27753844Y8429500D01*
X27753845Y8429501D01*
X27908497Y8460263D01*
X28054179Y8520606D01*
X28185289Y8608211D01*
X28296789Y8719711D01*
X28384394Y8850821D01*
X28444737Y8996503D01*
X28475500Y9151158D01*
X28475500Y9308842D01*
X28475500Y9308845D01*
X28475499Y9308847D01*
X28444738Y9463490D01*
X28444737Y9463497D01*
X28444735Y9463502D01*
X28384397Y9609173D01*
X28384390Y9609186D01*
X28296789Y9740289D01*
X28296786Y9740293D01*
X28185292Y9851787D01*
X28185288Y9851790D01*
X28054185Y9939391D01*
X28054172Y9939398D01*
X27908501Y9999736D01*
X27908489Y9999739D01*
X27753845Y10030500D01*
X27753842Y10030500D01*
X27596158Y10030500D01*
X27596155Y10030500D01*
X27441510Y9999739D01*
X27441498Y9999736D01*
X27295827Y9939398D01*
X27295814Y9939391D01*
X27164711Y9851790D01*
X27164707Y9851787D01*
X27053213Y9740293D01*
X27053210Y9740289D01*
X26965609Y9609186D01*
X26965602Y9609173D01*
X26905264Y9463502D01*
X26905261Y9463490D01*
X26874500Y9308847D01*
X500500Y9308847D01*
X500500Y10588847D01*
X1139500Y10588847D01*
X1139500Y10431154D01*
X1170261Y10276511D01*
X1170264Y10276499D01*
X1230602Y10130828D01*
X1230609Y10130815D01*
X1318210Y9999712D01*
X1318213Y9999708D01*
X1429707Y9888214D01*
X1429711Y9888211D01*
X1560814Y9800610D01*
X1560827Y9800603D01*
X1706440Y9740289D01*
X1706503Y9740263D01*
X1861153Y9709501D01*
X1861156Y9709500D01*
X1861158Y9709500D01*
X2018844Y9709500D01*
X2018845Y9709501D01*
X2173497Y9740263D01*
X2319179Y9800606D01*
X2450289Y9888211D01*
X2561789Y9999711D01*
X2649394Y10130821D01*
X2709737Y10276503D01*
X2740500Y10431158D01*
X2740500Y10588842D01*
X2740500Y10588845D01*
X2740499Y10588847D01*
X2734360Y10619711D01*
X2709737Y10743497D01*
X2706703Y10750821D01*
X2649397Y10889173D01*
X2649390Y10889186D01*
X2561789Y11020289D01*
X2561786Y11020293D01*
X2450292Y11131787D01*
X2450288Y11131790D01*
X2334965Y11208847D01*
X9324500Y11208847D01*
X9324500Y11051154D01*
X9355261Y10896511D01*
X9355264Y10896499D01*
X9415602Y10750828D01*
X9415609Y10750815D01*
X9503210Y10619712D01*
X9503213Y10619708D01*
X9614707Y10508214D01*
X9614711Y10508211D01*
X9745814Y10420610D01*
X9745827Y10420603D01*
X9891498Y10360265D01*
X9891503Y10360263D01*
X10046153Y10329501D01*
X10046156Y10329500D01*
X10046158Y10329500D01*
X10203844Y10329500D01*
X10203845Y10329501D01*
X10358497Y10360263D01*
X10504179Y10420606D01*
X10635289Y10508211D01*
X10746789Y10619711D01*
X10834394Y10750821D01*
X10894737Y10896503D01*
X10925500Y11051158D01*
X10925500Y11208842D01*
X10925500Y11208845D01*
X10925499Y11208847D01*
X10911398Y11279737D01*
X10894737Y11363497D01*
X10894735Y11363502D01*
X10834397Y11509173D01*
X10834390Y11509186D01*
X10746789Y11640289D01*
X10746786Y11640293D01*
X10635292Y11751787D01*
X10635288Y11751790D01*
X10549897Y11808847D01*
X15274500Y11808847D01*
X15274500Y11651154D01*
X15305261Y11496511D01*
X15305264Y11496499D01*
X15365602Y11350828D01*
X15365609Y11350815D01*
X15453210Y11219712D01*
X15453213Y11219708D01*
X15564707Y11108214D01*
X15564711Y11108211D01*
X15695814Y11020610D01*
X15695827Y11020603D01*
X15786101Y10983211D01*
X15841503Y10960263D01*
X15996153Y10929501D01*
X15996156Y10929500D01*
X15996158Y10929500D01*
X16153844Y10929500D01*
X16153845Y10929501D01*
X16308497Y10960263D01*
X16453414Y11020289D01*
X16454172Y11020603D01*
X16454172Y11020604D01*
X16454179Y11020606D01*
X16585289Y11108211D01*
X16696789Y11219711D01*
X16784394Y11350821D01*
X16844737Y11496503D01*
X16875500Y11651158D01*
X16875500Y11683847D01*
X26049500Y11683847D01*
X26049500Y11526154D01*
X26080261Y11371511D01*
X26080264Y11371499D01*
X26140602Y11225828D01*
X26140609Y11225815D01*
X26228210Y11094712D01*
X26228213Y11094708D01*
X26339707Y10983214D01*
X26339711Y10983211D01*
X26470814Y10895610D01*
X26470827Y10895603D01*
X26616498Y10835265D01*
X26616503Y10835263D01*
X26771153Y10804501D01*
X26771156Y10804500D01*
X26771158Y10804500D01*
X26928844Y10804500D01*
X26928845Y10804501D01*
X27083497Y10835263D01*
X27229179Y10895606D01*
X27360289Y10983211D01*
X27471789Y11094711D01*
X27559394Y11225821D01*
X27619737Y11371503D01*
X27650500Y11526158D01*
X27650500Y11683842D01*
X27650500Y11683845D01*
X27650499Y11683847D01*
X27636984Y11751790D01*
X27619737Y11838497D01*
X27619367Y11839391D01*
X27559397Y11984173D01*
X27559390Y11984186D01*
X27471789Y12115289D01*
X27471786Y12115293D01*
X27360292Y12226787D01*
X27360288Y12226790D01*
X27229185Y12314391D01*
X27229172Y12314398D01*
X27083501Y12374736D01*
X27083489Y12374739D01*
X26928845Y12405500D01*
X26928842Y12405500D01*
X26771158Y12405500D01*
X26771155Y12405500D01*
X26616510Y12374739D01*
X26616498Y12374736D01*
X26470827Y12314398D01*
X26470814Y12314391D01*
X26339711Y12226790D01*
X26339707Y12226787D01*
X26228213Y12115293D01*
X26228210Y12115289D01*
X26140609Y11984186D01*
X26140602Y11984173D01*
X26080264Y11838502D01*
X26080261Y11838490D01*
X26049500Y11683847D01*
X16875500Y11683847D01*
X16875500Y11808842D01*
X16875500Y11808845D01*
X16875499Y11808847D01*
X16857419Y11899739D01*
X16844737Y11963497D01*
X16836170Y11984179D01*
X16784397Y12109173D01*
X16784390Y12109186D01*
X16696789Y12240289D01*
X16696786Y12240293D01*
X16585292Y12351787D01*
X16585288Y12351790D01*
X16454185Y12439391D01*
X16454172Y12439398D01*
X16308501Y12499736D01*
X16308489Y12499739D01*
X16153845Y12530500D01*
X16153842Y12530500D01*
X15996158Y12530500D01*
X15996155Y12530500D01*
X15841510Y12499739D01*
X15841498Y12499736D01*
X15695827Y12439398D01*
X15695814Y12439391D01*
X15564711Y12351790D01*
X15564707Y12351787D01*
X15453213Y12240293D01*
X15453210Y12240289D01*
X15365609Y12109186D01*
X15365602Y12109173D01*
X15305264Y11963502D01*
X15305261Y11963490D01*
X15274500Y11808847D01*
X10549897Y11808847D01*
X10504185Y11839391D01*
X10504172Y11839398D01*
X10358501Y11899736D01*
X10358489Y11899739D01*
X10203845Y11930500D01*
X10203842Y11930500D01*
X10046158Y11930500D01*
X10046155Y11930500D01*
X9891510Y11899739D01*
X9891498Y11899736D01*
X9745827Y11839398D01*
X9745814Y11839391D01*
X9614711Y11751790D01*
X9614707Y11751787D01*
X9503213Y11640293D01*
X9503210Y11640289D01*
X9415609Y11509186D01*
X9415602Y11509173D01*
X9355264Y11363502D01*
X9355261Y11363490D01*
X9324500Y11208847D01*
X2334965Y11208847D01*
X2319185Y11219391D01*
X2319172Y11219398D01*
X2173501Y11279736D01*
X2173489Y11279739D01*
X2018845Y11310500D01*
X2018842Y11310500D01*
X1861158Y11310500D01*
X1861155Y11310500D01*
X1706510Y11279739D01*
X1706498Y11279736D01*
X1560827Y11219398D01*
X1560814Y11219391D01*
X1429711Y11131790D01*
X1429707Y11131787D01*
X1318213Y11020293D01*
X1318210Y11020289D01*
X1230609Y10889186D01*
X1230602Y10889173D01*
X1170264Y10743502D01*
X1170261Y10743490D01*
X1139500Y10588847D01*
X500500Y10588847D01*
X500500Y14858847D01*
X5149500Y14858847D01*
X5149500Y14701154D01*
X5180261Y14546511D01*
X5180264Y14546499D01*
X5240602Y14400828D01*
X5240609Y14400815D01*
X5328210Y14269712D01*
X5328213Y14269708D01*
X5439707Y14158214D01*
X5439711Y14158211D01*
X5570814Y14070610D01*
X5570827Y14070603D01*
X5716498Y14010265D01*
X5716503Y14010263D01*
X5816939Y13990285D01*
X5871153Y13979501D01*
X5871156Y13979500D01*
X5871158Y13979500D01*
X6028843Y13979500D01*
X6045226Y13982759D01*
X6114818Y13976532D01*
X6169996Y13933670D01*
X6193241Y13867781D01*
X6191036Y13836951D01*
X6175500Y13758847D01*
X6175500Y13601154D01*
X6206261Y13446511D01*
X6206264Y13446499D01*
X6266602Y13300828D01*
X6266609Y13300815D01*
X6354210Y13169712D01*
X6354213Y13169708D01*
X6465707Y13058214D01*
X6465711Y13058211D01*
X6596814Y12970610D01*
X6596827Y12970603D01*
X6742498Y12910265D01*
X6742503Y12910263D01*
X6897153Y12879501D01*
X6897156Y12879500D01*
X6897158Y12879500D01*
X7054844Y12879500D01*
X7054845Y12879501D01*
X7209497Y12910263D01*
X7355179Y12970606D01*
X7486289Y13058211D01*
X7597789Y13169711D01*
X7685394Y13300821D01*
X7745737Y13446503D01*
X7776500Y13601158D01*
X7776500Y13758842D01*
X7776500Y13758845D01*
X7776499Y13758847D01*
X7756543Y13859173D01*
X7745737Y13913497D01*
X7745735Y13913502D01*
X7685397Y14059173D01*
X7685390Y14059186D01*
X7627354Y14146043D01*
X7597789Y14190289D01*
X7597786Y14190293D01*
X7579232Y14208847D01*
X13549500Y14208847D01*
X13549500Y14051154D01*
X13580261Y13896511D01*
X13580264Y13896499D01*
X13640602Y13750828D01*
X13640609Y13750815D01*
X13728210Y13619712D01*
X13728213Y13619708D01*
X13839707Y13508214D01*
X13839711Y13508211D01*
X13970814Y13420610D01*
X13970827Y13420603D01*
X14054368Y13386000D01*
X14116503Y13360263D01*
X14156156Y13352376D01*
X14218066Y13319993D01*
X14252641Y13259278D01*
X14253582Y13254951D01*
X14255261Y13246509D01*
X14255263Y13246501D01*
X14315602Y13100828D01*
X14315609Y13100815D01*
X14403210Y12969712D01*
X14403213Y12969708D01*
X14514707Y12858214D01*
X14514711Y12858211D01*
X14645814Y12770610D01*
X14645827Y12770603D01*
X14791498Y12710265D01*
X14791503Y12710263D01*
X14946153Y12679501D01*
X14946156Y12679500D01*
X14946158Y12679500D01*
X15103844Y12679500D01*
X15103845Y12679501D01*
X15258497Y12710263D01*
X15404179Y12770606D01*
X15535289Y12858211D01*
X15646789Y12969711D01*
X15734394Y13100821D01*
X15794737Y13246503D01*
X15825500Y13401158D01*
X15825500Y13558842D01*
X15825500Y13558845D01*
X15825499Y13558847D01*
X15822121Y13575828D01*
X15794737Y13713497D01*
X15794735Y13713502D01*
X15734397Y13859173D01*
X15734390Y13859186D01*
X15659649Y13971043D01*
X15659648Y13971045D01*
X15646792Y13990285D01*
X15646786Y13990293D01*
X15603232Y14033847D01*
X20149500Y14033847D01*
X20149500Y13876154D01*
X20180261Y13721511D01*
X20180264Y13721499D01*
X20240602Y13575828D01*
X20240609Y13575815D01*
X20328210Y13444712D01*
X20328213Y13444708D01*
X20439707Y13333214D01*
X20439711Y13333211D01*
X20570814Y13245610D01*
X20570827Y13245603D01*
X20700460Y13191908D01*
X20716503Y13185263D01*
X20871153Y13154501D01*
X20871156Y13154500D01*
X20871158Y13154500D01*
X21028844Y13154500D01*
X21028845Y13154501D01*
X21183497Y13185263D01*
X21329179Y13245606D01*
X21362315Y13267748D01*
X21428991Y13288626D01*
X21489648Y13271987D01*
X21490446Y13273479D01*
X21495827Y13270603D01*
X21611552Y13222669D01*
X21641503Y13210263D01*
X21767176Y13185265D01*
X21796153Y13179501D01*
X21796156Y13179500D01*
X21796158Y13179500D01*
X21953844Y13179500D01*
X21953845Y13179501D01*
X22108497Y13210263D01*
X22254179Y13270606D01*
X22254184Y13270610D01*
X22259546Y13273475D01*
X22260815Y13271101D01*
X22316338Y13288548D01*
X22366128Y13279132D01*
X22502439Y13222670D01*
X22657089Y13191908D01*
X22657092Y13191907D01*
X22657094Y13191907D01*
X22814780Y13191907D01*
X22814781Y13191908D01*
X22969433Y13222670D01*
X23115115Y13283013D01*
X23246225Y13370618D01*
X23357725Y13482118D01*
X23445330Y13613228D01*
X23505673Y13758910D01*
X23536436Y13913565D01*
X23536436Y14071249D01*
X23536436Y14071252D01*
X23512757Y14190289D01*
X23505673Y14225904D01*
X23502079Y14234580D01*
X23502078Y14234582D01*
X25373765Y14234582D01*
X25373765Y14076889D01*
X25404526Y13922246D01*
X25404529Y13922234D01*
X25464867Y13776563D01*
X25464874Y13776550D01*
X25552475Y13645447D01*
X25552478Y13645443D01*
X25663972Y13533949D01*
X25663976Y13533946D01*
X25795079Y13446345D01*
X25795092Y13446338D01*
X25940763Y13386000D01*
X25940768Y13385998D01*
X26070136Y13360265D01*
X26095418Y13355236D01*
X26095421Y13355235D01*
X26095423Y13355235D01*
X26253109Y13355235D01*
X26253110Y13355236D01*
X26407762Y13385998D01*
X26553444Y13446341D01*
X26684554Y13533946D01*
X26796054Y13645446D01*
X26883659Y13776556D01*
X26944002Y13922238D01*
X26974765Y14076893D01*
X26974765Y14234577D01*
X26974765Y14234580D01*
X26974764Y14234582D01*
X26961396Y14301787D01*
X26944002Y14389232D01*
X26931956Y14418314D01*
X26883662Y14534908D01*
X26883655Y14534921D01*
X26796054Y14666024D01*
X26796051Y14666028D01*
X26684557Y14777522D01*
X26684553Y14777525D01*
X26553450Y14865126D01*
X26553437Y14865133D01*
X26408002Y14925373D01*
X26407766Y14925471D01*
X26407754Y14925474D01*
X26253110Y14956235D01*
X26253107Y14956235D01*
X26095423Y14956235D01*
X26095420Y14956235D01*
X25940775Y14925474D01*
X25940763Y14925471D01*
X25795092Y14865133D01*
X25795079Y14865126D01*
X25663976Y14777525D01*
X25663972Y14777522D01*
X25552478Y14666028D01*
X25552475Y14666024D01*
X25464874Y14534921D01*
X25464867Y14534908D01*
X25404529Y14389237D01*
X25404526Y14389225D01*
X25373765Y14234582D01*
X23502078Y14234582D01*
X23445333Y14371580D01*
X23445326Y14371593D01*
X23357725Y14502696D01*
X23357722Y14502700D01*
X23246228Y14614194D01*
X23246224Y14614197D01*
X23115121Y14701798D01*
X23115108Y14701805D01*
X22969437Y14762143D01*
X22969425Y14762146D01*
X22814781Y14792907D01*
X22814778Y14792907D01*
X22657094Y14792907D01*
X22657091Y14792907D01*
X22502446Y14762146D01*
X22502434Y14762143D01*
X22356759Y14701803D01*
X22351388Y14698931D01*
X22350141Y14701264D01*
X22294342Y14683856D01*
X22244806Y14693277D01*
X22108501Y14749736D01*
X22108489Y14749739D01*
X21953845Y14780500D01*
X21953842Y14780500D01*
X21796158Y14780500D01*
X21796155Y14780500D01*
X21641510Y14749739D01*
X21641498Y14749736D01*
X21495828Y14689398D01*
X21495819Y14689393D01*
X21462681Y14667251D01*
X21396003Y14646375D01*
X21335352Y14663015D01*
X21334554Y14661521D01*
X21329172Y14664398D01*
X21183501Y14724736D01*
X21183489Y14724739D01*
X21028845Y14755500D01*
X21028842Y14755500D01*
X20871158Y14755500D01*
X20871155Y14755500D01*
X20716510Y14724739D01*
X20716498Y14724736D01*
X20570827Y14664398D01*
X20570814Y14664391D01*
X20439711Y14576790D01*
X20439707Y14576787D01*
X20328213Y14465293D01*
X20328210Y14465289D01*
X20240609Y14334186D01*
X20240602Y14334173D01*
X20180264Y14188502D01*
X20180261Y14188490D01*
X20149500Y14033847D01*
X15603232Y14033847D01*
X15535292Y14101787D01*
X15535288Y14101790D01*
X15404185Y14189391D01*
X15404172Y14189398D01*
X15258501Y14249736D01*
X15258492Y14249739D01*
X15218841Y14257626D01*
X15156930Y14290012D01*
X15122357Y14350729D01*
X15121416Y14355054D01*
X15119737Y14363497D01*
X15104651Y14399918D01*
X15059397Y14509173D01*
X15059390Y14509186D01*
X14971789Y14640289D01*
X14971786Y14640293D01*
X14860292Y14751787D01*
X14860288Y14751790D01*
X14729185Y14839391D01*
X14729172Y14839398D01*
X14583501Y14899736D01*
X14583489Y14899739D01*
X14428845Y14930500D01*
X14428842Y14930500D01*
X14271158Y14930500D01*
X14271155Y14930500D01*
X14116510Y14899739D01*
X14116498Y14899736D01*
X13970827Y14839398D01*
X13970814Y14839391D01*
X13839711Y14751790D01*
X13839707Y14751787D01*
X13728213Y14640293D01*
X13728210Y14640289D01*
X13640609Y14509186D01*
X13640602Y14509173D01*
X13580264Y14363502D01*
X13580261Y14363490D01*
X13549500Y14208847D01*
X7579232Y14208847D01*
X7486292Y14301787D01*
X7486288Y14301790D01*
X7355185Y14389391D01*
X7355172Y14389398D01*
X7209501Y14449736D01*
X7209489Y14449739D01*
X7054845Y14480500D01*
X7054842Y14480500D01*
X6897158Y14480500D01*
X6897153Y14480500D01*
X6880767Y14477241D01*
X6811175Y14483471D01*
X6756000Y14526336D01*
X6732757Y14592227D01*
X6734962Y14623047D01*
X6750500Y14701158D01*
X6750500Y14858842D01*
X6750500Y14858845D01*
X6750499Y14858847D01*
X6740189Y14910680D01*
X6719737Y15013497D01*
X6701042Y15058632D01*
X6659397Y15159173D01*
X6659390Y15159186D01*
X6571789Y15290289D01*
X6571786Y15290293D01*
X6460292Y15401787D01*
X6460288Y15401790D01*
X6329185Y15489391D01*
X6329172Y15489398D01*
X6183501Y15549736D01*
X6183489Y15549739D01*
X6028845Y15580500D01*
X6028842Y15580500D01*
X5871158Y15580500D01*
X5871155Y15580500D01*
X5716510Y15549739D01*
X5716498Y15549736D01*
X5570827Y15489398D01*
X5570814Y15489391D01*
X5439711Y15401790D01*
X5439707Y15401787D01*
X5328213Y15290293D01*
X5328210Y15290289D01*
X5240609Y15159186D01*
X5240602Y15159173D01*
X5180264Y15013502D01*
X5180261Y15013490D01*
X5149500Y14858847D01*
X500500Y14858847D01*
X500500Y18743375D01*
X3317006Y18743375D01*
X3317006Y18585682D01*
X3347767Y18431039D01*
X3347770Y18431027D01*
X3408108Y18285356D01*
X3408115Y18285343D01*
X3495716Y18154240D01*
X3495719Y18154236D01*
X3607213Y18042742D01*
X3607217Y18042739D01*
X3738320Y17955138D01*
X3738333Y17955131D01*
X3884004Y17894793D01*
X3884009Y17894791D01*
X4032325Y17865289D01*
X4038659Y17864029D01*
X4038662Y17864028D01*
X4038664Y17864028D01*
X4196350Y17864028D01*
X4196351Y17864029D01*
X4351003Y17894791D01*
X4483653Y17949736D01*
X4496678Y17955131D01*
X4496678Y17955132D01*
X4496685Y17955134D01*
X4627795Y18042739D01*
X4739295Y18154239D01*
X4755737Y18178847D01*
X5509500Y18178847D01*
X5509500Y18021154D01*
X5540261Y17866511D01*
X5540264Y17866499D01*
X5600602Y17720828D01*
X5600609Y17720815D01*
X5688210Y17589712D01*
X5688213Y17589708D01*
X5799707Y17478214D01*
X5799711Y17478211D01*
X5930814Y17390610D01*
X5930821Y17390606D01*
X6044373Y17343572D01*
X6098774Y17299733D01*
X6120840Y17233439D01*
X6118536Y17204821D01*
X6089500Y17058847D01*
X6089500Y16901154D01*
X6120261Y16746511D01*
X6120264Y16746499D01*
X6180602Y16600828D01*
X6180609Y16600815D01*
X6268210Y16469712D01*
X6268213Y16469708D01*
X6379707Y16358214D01*
X6379711Y16358211D01*
X6510814Y16270610D01*
X6510827Y16270603D01*
X6656498Y16210265D01*
X6656503Y16210263D01*
X6811153Y16179501D01*
X6811156Y16179500D01*
X6811158Y16179500D01*
X6968844Y16179500D01*
X6968845Y16179501D01*
X7123497Y16210263D01*
X7257381Y16265719D01*
X7269172Y16270603D01*
X7269172Y16270604D01*
X7269179Y16270606D01*
X7400289Y16358211D01*
X7400925Y16358847D01*
X12724500Y16358847D01*
X12724500Y16201154D01*
X12755261Y16046511D01*
X12755264Y16046499D01*
X12815602Y15900828D01*
X12815609Y15900815D01*
X12903210Y15769712D01*
X12903213Y15769708D01*
X13014707Y15658214D01*
X13014711Y15658211D01*
X13145814Y15570610D01*
X13145827Y15570603D01*
X13245060Y15529500D01*
X13291503Y15510263D01*
X13446153Y15479501D01*
X13446156Y15479500D01*
X13446158Y15479500D01*
X13603844Y15479500D01*
X13603845Y15479501D01*
X13758497Y15510263D01*
X13904179Y15570606D01*
X14035289Y15658211D01*
X14146789Y15769711D01*
X14234394Y15900821D01*
X14294737Y16046503D01*
X14325500Y16201158D01*
X14325500Y16358842D01*
X14325500Y16358845D01*
X14325499Y16358847D01*
X14307337Y16450154D01*
X14294737Y16513497D01*
X14276215Y16558214D01*
X14234397Y16659173D01*
X14234390Y16659186D01*
X14146789Y16790289D01*
X14146786Y16790293D01*
X14035292Y16901787D01*
X14035288Y16901790D01*
X13904185Y16989391D01*
X13904172Y16989398D01*
X13758501Y17049736D01*
X13758489Y17049739D01*
X13603845Y17080500D01*
X13603842Y17080500D01*
X13446158Y17080500D01*
X13446155Y17080500D01*
X13291510Y17049739D01*
X13291498Y17049736D01*
X13145827Y16989398D01*
X13145814Y16989391D01*
X13014711Y16901790D01*
X13014707Y16901787D01*
X12903213Y16790293D01*
X12903210Y16790289D01*
X12815609Y16659186D01*
X12815602Y16659173D01*
X12755264Y16513502D01*
X12755261Y16513490D01*
X12724500Y16358847D01*
X7400925Y16358847D01*
X7431894Y16389816D01*
X7494694Y16452615D01*
X7511786Y16469708D01*
X7511789Y16469711D01*
X7599394Y16600821D01*
X7602555Y16608451D01*
X7627929Y16669712D01*
X7659737Y16746503D01*
X7690500Y16901158D01*
X7690500Y17058842D01*
X7690500Y17058845D01*
X7690499Y17058847D01*
X7682365Y17099739D01*
X7659737Y17213497D01*
X7640953Y17258847D01*
X14799500Y17258847D01*
X14799500Y17101154D01*
X14830261Y16946511D01*
X14830264Y16946499D01*
X14890602Y16800828D01*
X14890609Y16800815D01*
X14978210Y16669712D01*
X14978213Y16669708D01*
X15089707Y16558214D01*
X15089711Y16558211D01*
X15220814Y16470610D01*
X15220827Y16470603D01*
X15294013Y16440289D01*
X15366503Y16410263D01*
X15469332Y16389809D01*
X15474691Y16388743D01*
X15536602Y16356359D01*
X15571176Y16295643D01*
X15574500Y16267126D01*
X15574500Y16251154D01*
X15605261Y16096511D01*
X15605264Y16096499D01*
X15665602Y15950828D01*
X15665609Y15950815D01*
X15753210Y15819712D01*
X15753213Y15819708D01*
X15864707Y15708214D01*
X15864711Y15708211D01*
X15995814Y15620610D01*
X15995827Y15620603D01*
X16141498Y15560265D01*
X16141503Y15560263D01*
X16268292Y15535043D01*
X16296153Y15529501D01*
X16296156Y15529500D01*
X16296158Y15529500D01*
X16453844Y15529500D01*
X16453845Y15529501D01*
X16608497Y15560263D01*
X16754179Y15620606D01*
X16885289Y15708211D01*
X16936343Y15759265D01*
X23375327Y15759265D01*
X23375327Y15601572D01*
X23406088Y15446929D01*
X23406091Y15446917D01*
X23466429Y15301246D01*
X23466436Y15301233D01*
X23554037Y15170130D01*
X23554040Y15170126D01*
X23665534Y15058632D01*
X23665538Y15058629D01*
X23796641Y14971028D01*
X23796654Y14971021D01*
X23906860Y14925373D01*
X23942330Y14910681D01*
X24096980Y14879919D01*
X24096983Y14879918D01*
X24096985Y14879918D01*
X24254671Y14879918D01*
X24254672Y14879919D01*
X24409324Y14910681D01*
X24555006Y14971024D01*
X24649027Y15033847D01*
X27149500Y15033847D01*
X27149500Y14876154D01*
X27180261Y14721511D01*
X27180264Y14721499D01*
X27240602Y14575828D01*
X27240609Y14575815D01*
X27328210Y14444712D01*
X27328213Y14444708D01*
X27439707Y14333214D01*
X27439711Y14333211D01*
X27570814Y14245610D01*
X27570827Y14245603D01*
X27704359Y14190293D01*
X27716503Y14185263D01*
X27852487Y14158214D01*
X27871153Y14154501D01*
X27871156Y14154500D01*
X27871158Y14154500D01*
X28028844Y14154500D01*
X28028845Y14154501D01*
X28183497Y14185263D01*
X28329179Y14245606D01*
X28460289Y14333211D01*
X28571789Y14444711D01*
X28659394Y14575821D01*
X28719737Y14721503D01*
X28750500Y14876158D01*
X28750500Y15033842D01*
X28750500Y15033845D01*
X28750499Y15033847D01*
X28719737Y15188497D01*
X28719735Y15188502D01*
X28659397Y15334173D01*
X28659390Y15334186D01*
X28571789Y15465289D01*
X28571786Y15465293D01*
X28460292Y15576787D01*
X28460288Y15576790D01*
X28329185Y15664391D01*
X28329172Y15664398D01*
X28183501Y15724736D01*
X28183489Y15724739D01*
X28028845Y15755500D01*
X28028842Y15755500D01*
X27871158Y15755500D01*
X27871155Y15755500D01*
X27716510Y15724739D01*
X27716498Y15724736D01*
X27570827Y15664398D01*
X27570814Y15664391D01*
X27439711Y15576790D01*
X27439707Y15576787D01*
X27328213Y15465293D01*
X27328210Y15465289D01*
X27240609Y15334186D01*
X27240602Y15334173D01*
X27180264Y15188502D01*
X27180261Y15188490D01*
X27149500Y15033847D01*
X24649027Y15033847D01*
X24686116Y15058629D01*
X24797616Y15170129D01*
X24836370Y15228130D01*
X24889980Y15272932D01*
X24959305Y15281641D01*
X25008362Y15262339D01*
X25070814Y15220610D01*
X25070827Y15220603D01*
X25192684Y15170129D01*
X25216503Y15160263D01*
X25371153Y15129501D01*
X25371156Y15129500D01*
X25371158Y15129500D01*
X25528844Y15129500D01*
X25528845Y15129501D01*
X25683497Y15160263D01*
X25829179Y15220606D01*
X25960289Y15308211D01*
X26071789Y15419711D01*
X26089295Y15445913D01*
X26142904Y15490716D01*
X26212229Y15499426D01*
X26239849Y15491583D01*
X26317233Y15459530D01*
X26317238Y15459528D01*
X26471888Y15428766D01*
X26471891Y15428765D01*
X26471893Y15428765D01*
X26629579Y15428765D01*
X26629580Y15428766D01*
X26784232Y15459528D01*
X26929914Y15519871D01*
X27061024Y15607476D01*
X27172524Y15718976D01*
X27260129Y15850086D01*
X27320472Y15995768D01*
X27351235Y16150423D01*
X27351235Y16308107D01*
X27351235Y16308110D01*
X27351234Y16308112D01*
X27341637Y16356359D01*
X27320472Y16462762D01*
X27283596Y16551790D01*
X27260132Y16608438D01*
X27260125Y16608451D01*
X27172524Y16739554D01*
X27172521Y16739558D01*
X27061027Y16851052D01*
X27061023Y16851055D01*
X26929920Y16938656D01*
X26929907Y16938663D01*
X26784236Y16999001D01*
X26784224Y16999004D01*
X26629580Y17029765D01*
X26629577Y17029765D01*
X26471893Y17029765D01*
X26471890Y17029765D01*
X26317245Y16999004D01*
X26317233Y16999001D01*
X26171562Y16938663D01*
X26171549Y16938656D01*
X26040446Y16851055D01*
X26040442Y16851052D01*
X25928948Y16739558D01*
X25928943Y16739552D01*
X25911437Y16713352D01*
X25857824Y16668547D01*
X25788499Y16659841D01*
X25760884Y16667683D01*
X25683501Y16699736D01*
X25683489Y16699739D01*
X25528845Y16730500D01*
X25528842Y16730500D01*
X25371158Y16730500D01*
X25371155Y16730500D01*
X25216510Y16699739D01*
X25216498Y16699736D01*
X25070827Y16639398D01*
X25070814Y16639391D01*
X24939711Y16551790D01*
X24939707Y16551787D01*
X24828213Y16440293D01*
X24828210Y16440289D01*
X24789457Y16382291D01*
X24735844Y16337486D01*
X24666519Y16328779D01*
X24617465Y16348079D01*
X24555010Y16389810D01*
X24554999Y16389816D01*
X24409328Y16450154D01*
X24409316Y16450157D01*
X24254672Y16480918D01*
X24254669Y16480918D01*
X24096985Y16480918D01*
X24096982Y16480918D01*
X23942337Y16450157D01*
X23942325Y16450154D01*
X23796654Y16389816D01*
X23796641Y16389809D01*
X23665538Y16302208D01*
X23665534Y16302205D01*
X23554040Y16190711D01*
X23554037Y16190707D01*
X23466436Y16059604D01*
X23466429Y16059591D01*
X23406091Y15913920D01*
X23406088Y15913908D01*
X23375327Y15759265D01*
X16936343Y15759265D01*
X16996789Y15819711D01*
X17084394Y15950821D01*
X17144737Y16096503D01*
X17175500Y16251158D01*
X17175500Y16408842D01*
X17175500Y16408845D01*
X17175499Y16408847D01*
X17164776Y16462755D01*
X17144737Y16563497D01*
X17135721Y16585263D01*
X17084397Y16709173D01*
X17084390Y16709186D01*
X16996789Y16840289D01*
X16996786Y16840293D01*
X16885292Y16951787D01*
X16885288Y16951790D01*
X16754185Y17039391D01*
X16754172Y17039398D01*
X16608501Y17099736D01*
X16608491Y17099739D01*
X16500308Y17121258D01*
X16438397Y17153643D01*
X16403823Y17214359D01*
X16402263Y17222038D01*
X16400500Y17232381D01*
X16400500Y17258842D01*
X16369737Y17413497D01*
X16361308Y17433847D01*
X20239500Y17433847D01*
X20239500Y17276154D01*
X20270261Y17121511D01*
X20270264Y17121499D01*
X20330602Y16975828D01*
X20330609Y16975815D01*
X20418210Y16844712D01*
X20418213Y16844708D01*
X20529707Y16733214D01*
X20529711Y16733211D01*
X20660814Y16645610D01*
X20660827Y16645603D01*
X20806498Y16585265D01*
X20806503Y16585263D01*
X20915963Y16563490D01*
X20961153Y16554501D01*
X20961156Y16554500D01*
X20961158Y16554500D01*
X21118844Y16554500D01*
X21118845Y16554501D01*
X21273497Y16585263D01*
X21404182Y16639394D01*
X21419172Y16645603D01*
X21419172Y16645604D01*
X21419179Y16645606D01*
X21550289Y16733211D01*
X21661789Y16844711D01*
X21749394Y16975821D01*
X21809737Y17121503D01*
X21840500Y17276158D01*
X21840500Y17433842D01*
X21840500Y17433845D01*
X21840499Y17433847D01*
X21815570Y17559173D01*
X21809737Y17588497D01*
X21767946Y17689391D01*
X21749397Y17734173D01*
X21749390Y17734186D01*
X21661789Y17865289D01*
X21661786Y17865293D01*
X21550292Y17976787D01*
X21550288Y17976790D01*
X21419185Y18064391D01*
X21419172Y18064398D01*
X21273501Y18124736D01*
X21273489Y18124739D01*
X21118845Y18155500D01*
X21118842Y18155500D01*
X20961158Y18155500D01*
X20961155Y18155500D01*
X20806510Y18124739D01*
X20806498Y18124736D01*
X20660827Y18064398D01*
X20660814Y18064391D01*
X20529711Y17976790D01*
X20529707Y17976787D01*
X20418213Y17865293D01*
X20418210Y17865289D01*
X20330609Y17734186D01*
X20330602Y17734173D01*
X20270264Y17588502D01*
X20270261Y17588490D01*
X20239500Y17433847D01*
X16361308Y17433847D01*
X16337929Y17490289D01*
X16309397Y17559173D01*
X16309390Y17559186D01*
X16221789Y17690289D01*
X16221786Y17690293D01*
X16110292Y17801787D01*
X16110288Y17801790D01*
X15979185Y17889391D01*
X15979172Y17889398D01*
X15833501Y17949736D01*
X15833489Y17949739D01*
X15678845Y17980500D01*
X15678842Y17980500D01*
X15521158Y17980500D01*
X15521155Y17980500D01*
X15366510Y17949739D01*
X15366498Y17949736D01*
X15220827Y17889398D01*
X15220814Y17889391D01*
X15089711Y17801790D01*
X15089707Y17801787D01*
X14978213Y17690293D01*
X14978210Y17690289D01*
X14890609Y17559186D01*
X14890602Y17559173D01*
X14830264Y17413502D01*
X14830261Y17413490D01*
X14799500Y17258847D01*
X7640953Y17258847D01*
X7618384Y17313333D01*
X7599397Y17359173D01*
X7599390Y17359186D01*
X7511789Y17490289D01*
X7511786Y17490293D01*
X7400292Y17601787D01*
X7400288Y17601790D01*
X7269185Y17689391D01*
X7269176Y17689396D01*
X7155627Y17736429D01*
X7101224Y17780270D01*
X7079159Y17846564D01*
X7081463Y17875182D01*
X7084290Y17889391D01*
X7101674Y17976787D01*
X7110500Y18021156D01*
X7110500Y18178845D01*
X7110499Y18178847D01*
X7079738Y18333490D01*
X7079737Y18333497D01*
X7039339Y18431027D01*
X7019397Y18479173D01*
X7019390Y18479186D01*
X6931789Y18610289D01*
X6931786Y18610293D01*
X6820292Y18721787D01*
X6820288Y18721790D01*
X6689185Y18809391D01*
X6689172Y18809398D01*
X6543501Y18869736D01*
X6543489Y18869739D01*
X6388845Y18900500D01*
X6388842Y18900500D01*
X6231158Y18900500D01*
X6231155Y18900500D01*
X6076510Y18869739D01*
X6076498Y18869736D01*
X5930827Y18809398D01*
X5930814Y18809391D01*
X5799711Y18721790D01*
X5799707Y18721787D01*
X5688213Y18610293D01*
X5688210Y18610289D01*
X5600609Y18479186D01*
X5600602Y18479173D01*
X5540264Y18333502D01*
X5540261Y18333490D01*
X5509500Y18178847D01*
X4755737Y18178847D01*
X4772100Y18203337D01*
X4805837Y18253825D01*
X4826896Y18285343D01*
X4826896Y18285344D01*
X4826900Y18285349D01*
X4887243Y18431031D01*
X4918006Y18585686D01*
X4918006Y18743370D01*
X4918006Y18743373D01*
X4918005Y18743375D01*
X4915053Y18758214D01*
X4887243Y18898025D01*
X4886218Y18900500D01*
X4826903Y19043701D01*
X4826896Y19043714D01*
X4739295Y19174817D01*
X4739292Y19174821D01*
X4627798Y19286315D01*
X4627794Y19286318D01*
X4514780Y19361832D01*
X4496691Y19373919D01*
X4496678Y19373926D01*
X4351007Y19434264D01*
X4350995Y19434267D01*
X4227425Y19458847D01*
X20249500Y19458847D01*
X20249500Y19301154D01*
X20280261Y19146511D01*
X20280264Y19146499D01*
X20340602Y19000828D01*
X20340609Y19000815D01*
X20428210Y18869712D01*
X20428213Y18869708D01*
X20539707Y18758214D01*
X20539711Y18758211D01*
X20670814Y18670610D01*
X20670827Y18670603D01*
X20816440Y18610289D01*
X20816503Y18610263D01*
X20971153Y18579501D01*
X20971156Y18579500D01*
X20971158Y18579500D01*
X21128844Y18579500D01*
X21128845Y18579501D01*
X21283497Y18610263D01*
X21429179Y18670606D01*
X21560289Y18758211D01*
X21671789Y18869711D01*
X21759394Y19000821D01*
X21819737Y19146503D01*
X21850500Y19301158D01*
X21850500Y19458842D01*
X21850500Y19458845D01*
X21850499Y19458847D01*
X21819737Y19613497D01*
X21819735Y19613502D01*
X21759397Y19759173D01*
X21759390Y19759186D01*
X21671789Y19890289D01*
X21671786Y19890293D01*
X21560292Y20001787D01*
X21560288Y20001790D01*
X21429185Y20089391D01*
X21429172Y20089398D01*
X21283501Y20149736D01*
X21283489Y20149739D01*
X21128845Y20180500D01*
X21128842Y20180500D01*
X20971158Y20180500D01*
X20971155Y20180500D01*
X20816510Y20149739D01*
X20816498Y20149736D01*
X20670827Y20089398D01*
X20670814Y20089391D01*
X20539711Y20001790D01*
X20539707Y20001787D01*
X20428213Y19890293D01*
X20428210Y19890289D01*
X20340609Y19759186D01*
X20340602Y19759173D01*
X20280264Y19613502D01*
X20280261Y19613490D01*
X20249500Y19458847D01*
X4227425Y19458847D01*
X4196351Y19465028D01*
X4196348Y19465028D01*
X4038664Y19465028D01*
X4038661Y19465028D01*
X3884016Y19434267D01*
X3884004Y19434264D01*
X3738333Y19373926D01*
X3738320Y19373919D01*
X3607217Y19286318D01*
X3607213Y19286315D01*
X3495719Y19174821D01*
X3495716Y19174817D01*
X3408115Y19043714D01*
X3408108Y19043701D01*
X3347770Y18898030D01*
X3347767Y18898018D01*
X3317006Y18743375D01*
X500500Y18743375D01*
X500500Y20608847D01*
X1474500Y20608847D01*
X1474500Y20451154D01*
X1505261Y20296511D01*
X1505264Y20296499D01*
X1565602Y20150828D01*
X1565609Y20150815D01*
X1653210Y20019712D01*
X1653213Y20019708D01*
X1764707Y19908214D01*
X1764711Y19908211D01*
X1895814Y19820610D01*
X1895827Y19820603D01*
X2041498Y19760265D01*
X2041503Y19760263D01*
X2196153Y19729501D01*
X2196156Y19729500D01*
X2196158Y19729500D01*
X2353844Y19729500D01*
X2353845Y19729501D01*
X2508497Y19760263D01*
X2654179Y19820606D01*
X2785289Y19908211D01*
X2896789Y20019711D01*
X2984394Y20150821D01*
X3044737Y20296503D01*
X3075500Y20451158D01*
X3075500Y20608842D01*
X3075500Y20608845D01*
X3075499Y20608847D01*
X3055326Y20710263D01*
X3044737Y20763497D01*
X3026215Y20808214D01*
X2984397Y20909173D01*
X2984390Y20909186D01*
X2896789Y21040289D01*
X2896786Y21040293D01*
X2785292Y21151787D01*
X2785288Y21151790D01*
X2654185Y21239391D01*
X2654172Y21239398D01*
X2508501Y21299736D01*
X2508489Y21299739D01*
X2353845Y21330500D01*
X2353842Y21330500D01*
X2196158Y21330500D01*
X2196155Y21330500D01*
X2041510Y21299739D01*
X2041498Y21299736D01*
X1895827Y21239398D01*
X1895814Y21239391D01*
X1764711Y21151790D01*
X1764707Y21151787D01*
X1653213Y21040293D01*
X1653210Y21040289D01*
X1565609Y20909186D01*
X1565602Y20909173D01*
X1505264Y20763502D01*
X1505261Y20763490D01*
X1474500Y20608847D01*
X500500Y20608847D01*
X500500Y21769874D01*
X9549500Y21769874D01*
X9549500Y21612181D01*
X9580261Y21457538D01*
X9580264Y21457526D01*
X9640602Y21311855D01*
X9640609Y21311842D01*
X9728210Y21180739D01*
X9728213Y21180735D01*
X9839707Y21069241D01*
X9839711Y21069238D01*
X9970814Y20981637D01*
X9970827Y20981630D01*
X10116498Y20921292D01*
X10116503Y20921290D01*
X10271153Y20890528D01*
X10271156Y20890527D01*
X10271158Y20890527D01*
X10428844Y20890527D01*
X10428845Y20890528D01*
X10583497Y20921290D01*
X10729179Y20981633D01*
X10860289Y21069238D01*
X10971789Y21180738D01*
X11059394Y21311848D01*
X11119737Y21457530D01*
X11129945Y21508847D01*
X11139891Y21558847D01*
X15399500Y21558847D01*
X15399500Y21401154D01*
X15430261Y21246511D01*
X15430264Y21246499D01*
X15490602Y21100828D01*
X15490609Y21100815D01*
X15578210Y20969712D01*
X15578213Y20969708D01*
X15689707Y20858214D01*
X15689711Y20858211D01*
X15820814Y20770610D01*
X15820827Y20770603D01*
X15966498Y20710265D01*
X15966503Y20710263D01*
X16121153Y20679501D01*
X16121156Y20679500D01*
X16121158Y20679500D01*
X16278844Y20679500D01*
X16278845Y20679501D01*
X16433497Y20710263D01*
X16579179Y20770606D01*
X16710289Y20858211D01*
X16821789Y20969711D01*
X16909394Y21100821D01*
X16969737Y21246503D01*
X17000500Y21401158D01*
X17000500Y21508847D01*
X20269500Y21508847D01*
X20269500Y21351154D01*
X20300261Y21196511D01*
X20300264Y21196499D01*
X20360602Y21050828D01*
X20360609Y21050815D01*
X20448210Y20919712D01*
X20448213Y20919708D01*
X20559707Y20808214D01*
X20559711Y20808211D01*
X20690814Y20720610D01*
X20690827Y20720603D01*
X20790060Y20679500D01*
X20836503Y20660263D01*
X20991153Y20629501D01*
X20991156Y20629500D01*
X20991158Y20629500D01*
X21148844Y20629500D01*
X21148845Y20629501D01*
X21303497Y20660263D01*
X21449179Y20720606D01*
X21580289Y20808211D01*
X21691789Y20919711D01*
X21779394Y21050821D01*
X21839737Y21196503D01*
X21870500Y21351158D01*
X21870500Y21508842D01*
X21870500Y21508845D01*
X21870499Y21508847D01*
X21849944Y21612181D01*
X21839737Y21663497D01*
X21839735Y21663502D01*
X21779397Y21809173D01*
X21779390Y21809186D01*
X21691789Y21940289D01*
X21691786Y21940293D01*
X21580292Y22051787D01*
X21580288Y22051790D01*
X21449185Y22139391D01*
X21449172Y22139398D01*
X21303501Y22199736D01*
X21303489Y22199739D01*
X21148845Y22230500D01*
X21148842Y22230500D01*
X20991158Y22230500D01*
X20991155Y22230500D01*
X20836510Y22199739D01*
X20836498Y22199736D01*
X20690827Y22139398D01*
X20690814Y22139391D01*
X20559711Y22051790D01*
X20559707Y22051787D01*
X20448213Y21940293D01*
X20448210Y21940289D01*
X20360609Y21809186D01*
X20360602Y21809173D01*
X20300264Y21663502D01*
X20300261Y21663490D01*
X20269500Y21508847D01*
X17000500Y21508847D01*
X17000500Y21558842D01*
X17000500Y21558845D01*
X17000499Y21558847D01*
X16979684Y21663490D01*
X16969737Y21713497D01*
X16942398Y21779500D01*
X16909397Y21859173D01*
X16909390Y21859186D01*
X16821789Y21990289D01*
X16821786Y21990293D01*
X16710292Y22101787D01*
X16710288Y22101790D01*
X16579185Y22189391D01*
X16579172Y22189398D01*
X16433501Y22249736D01*
X16433489Y22249739D01*
X16278845Y22280500D01*
X16278842Y22280500D01*
X16121158Y22280500D01*
X16121155Y22280500D01*
X15966510Y22249739D01*
X15966498Y22249736D01*
X15820827Y22189398D01*
X15820814Y22189391D01*
X15689711Y22101790D01*
X15689707Y22101787D01*
X15578213Y21990293D01*
X15578210Y21990289D01*
X15490609Y21859186D01*
X15490602Y21859173D01*
X15430264Y21713502D01*
X15430261Y21713490D01*
X15399500Y21558847D01*
X11139891Y21558847D01*
X11145909Y21589103D01*
X11145913Y21589124D01*
X11150500Y21612186D01*
X11150500Y21769872D01*
X11150499Y21769874D01*
X11132735Y21859179D01*
X11119737Y21924524D01*
X11113205Y21940293D01*
X11059397Y22070200D01*
X11059390Y22070213D01*
X10971789Y22201316D01*
X10971786Y22201320D01*
X10860292Y22312814D01*
X10860288Y22312817D01*
X10729185Y22400418D01*
X10729172Y22400425D01*
X10583501Y22460763D01*
X10583489Y22460766D01*
X10428845Y22491527D01*
X10428842Y22491527D01*
X10271158Y22491527D01*
X10271155Y22491527D01*
X10116510Y22460766D01*
X10116498Y22460763D01*
X9970827Y22400425D01*
X9970814Y22400418D01*
X9839711Y22312817D01*
X9839707Y22312814D01*
X9728213Y22201320D01*
X9728210Y22201316D01*
X9640609Y22070213D01*
X9640602Y22070200D01*
X9580264Y21924529D01*
X9580261Y21924517D01*
X9549500Y21769874D01*
X500500Y21769874D01*
X500500Y23608847D01*
X9799503Y23608847D01*
X9799503Y23451154D01*
X9830264Y23296511D01*
X9830267Y23296499D01*
X9890605Y23150828D01*
X9890612Y23150815D01*
X9978213Y23019712D01*
X9978216Y23019708D01*
X10089710Y22908214D01*
X10089714Y22908211D01*
X10220817Y22820610D01*
X10220830Y22820603D01*
X10366501Y22760265D01*
X10366506Y22760263D01*
X10521156Y22729501D01*
X10521159Y22729500D01*
X10521161Y22729500D01*
X10678847Y22729500D01*
X10678848Y22729501D01*
X10833500Y22760263D01*
X10979182Y22820606D01*
X11110292Y22908211D01*
X11221792Y23019711D01*
X11309397Y23150821D01*
X11369740Y23296503D01*
X11400503Y23451158D01*
X11400503Y23608842D01*
X11400503Y23608845D01*
X11376664Y23728689D01*
X11382891Y23798281D01*
X11425754Y23853458D01*
X11450817Y23867437D01*
X11579182Y23920606D01*
X11710292Y24008211D01*
X11821792Y24119711D01*
X11909397Y24250821D01*
X11969740Y24396503D01*
X12000503Y24551158D01*
X12000503Y24708842D01*
X12000503Y24708845D01*
X11994158Y24740742D01*
X11994158Y24740743D01*
X11990557Y24758847D01*
X12374500Y24758847D01*
X12374500Y24601154D01*
X12405261Y24446511D01*
X12405264Y24446499D01*
X12465602Y24300828D01*
X12465609Y24300815D01*
X12553210Y24169712D01*
X12553213Y24169708D01*
X12664707Y24058214D01*
X12664711Y24058211D01*
X12707470Y24029640D01*
X12752275Y23976028D01*
X12760982Y23906703D01*
X12753141Y23879086D01*
X12705261Y23763493D01*
X12705261Y23763490D01*
X12674500Y23608847D01*
X12674500Y23451154D01*
X12705261Y23296511D01*
X12705264Y23296499D01*
X12760543Y23163042D01*
X12768012Y23093573D01*
X12749084Y23046700D01*
X12690612Y22959191D01*
X12690602Y22959173D01*
X12630264Y22813502D01*
X12630261Y22813490D01*
X12599500Y22658847D01*
X12599500Y22501154D01*
X12630261Y22346511D01*
X12630264Y22346499D01*
X12690602Y22200828D01*
X12690609Y22200815D01*
X12778210Y22069712D01*
X12778213Y22069708D01*
X12889707Y21958214D01*
X12889711Y21958211D01*
X13020814Y21870610D01*
X13020827Y21870603D01*
X13166498Y21810265D01*
X13166503Y21810263D01*
X13321153Y21779501D01*
X13321156Y21779500D01*
X13321158Y21779500D01*
X13478844Y21779500D01*
X13478845Y21779501D01*
X13633497Y21810263D01*
X13751592Y21859179D01*
X13779172Y21870603D01*
X13779172Y21870604D01*
X13779179Y21870606D01*
X13910289Y21958211D01*
X14021789Y22069711D01*
X14109394Y22200821D01*
X14169737Y22346503D01*
X14200500Y22501158D01*
X14200500Y22658842D01*
X14200500Y22658845D01*
X14200499Y22658847D01*
X14180326Y22760263D01*
X14169737Y22813497D01*
X14166791Y22820610D01*
X14114456Y22946959D01*
X14106987Y23016428D01*
X14125913Y23063299D01*
X14184394Y23150821D01*
X14244737Y23296503D01*
X14275500Y23451158D01*
X14275500Y23608842D01*
X14275500Y23608845D01*
X14275499Y23608847D01*
X14244737Y23763497D01*
X14212560Y23841180D01*
X14184397Y23909173D01*
X14184390Y23909186D01*
X14096789Y24040289D01*
X14096786Y24040293D01*
X13985292Y24151787D01*
X13985288Y24151790D01*
X13942529Y24180361D01*
X13897724Y24233974D01*
X13889017Y24303299D01*
X13896857Y24330911D01*
X13944737Y24446503D01*
X13975500Y24601158D01*
X13975500Y24758842D01*
X13975500Y24758845D01*
X13975499Y24758847D01*
X13954684Y24863490D01*
X13944737Y24913497D01*
X13944735Y24913502D01*
X13884397Y25059173D01*
X13884390Y25059186D01*
X13809649Y25171043D01*
X13809648Y25171045D01*
X13796792Y25190285D01*
X13796786Y25190293D01*
X13753232Y25233847D01*
X17699500Y25233847D01*
X17699500Y25076154D01*
X17730261Y24921511D01*
X17730264Y24921499D01*
X17790602Y24775828D01*
X17790609Y24775815D01*
X17878210Y24644712D01*
X17878213Y24644708D01*
X17989707Y24533214D01*
X17989711Y24533211D01*
X18120814Y24445610D01*
X18120827Y24445603D01*
X18266498Y24385265D01*
X18266503Y24385263D01*
X18384861Y24361720D01*
X18421153Y24354501D01*
X18421156Y24354500D01*
X18421158Y24354500D01*
X18578844Y24354500D01*
X18578845Y24354501D01*
X18733497Y24385263D01*
X18879179Y24445606D01*
X19010289Y24533211D01*
X19121789Y24644711D01*
X19209394Y24775821D01*
X19269737Y24921503D01*
X19300500Y25076158D01*
X19300500Y25233842D01*
X19300500Y25233845D01*
X19300499Y25233847D01*
X19269738Y25388490D01*
X19269737Y25388497D01*
X19269367Y25389391D01*
X19209397Y25534173D01*
X19209390Y25534186D01*
X19121789Y25665289D01*
X19121786Y25665293D01*
X19010292Y25776787D01*
X19010288Y25776790D01*
X18879185Y25864391D01*
X18879172Y25864398D01*
X18733501Y25924736D01*
X18733489Y25924739D01*
X18578845Y25955500D01*
X18578842Y25955500D01*
X18421158Y25955500D01*
X18421155Y25955500D01*
X18266510Y25924739D01*
X18266498Y25924736D01*
X18120827Y25864398D01*
X18120814Y25864391D01*
X17989711Y25776790D01*
X17989707Y25776787D01*
X17878213Y25665293D01*
X17878210Y25665289D01*
X17790609Y25534186D01*
X17790602Y25534173D01*
X17730264Y25388502D01*
X17730261Y25388490D01*
X17699500Y25233847D01*
X13753232Y25233847D01*
X13685292Y25301787D01*
X13685288Y25301790D01*
X13554185Y25389391D01*
X13554172Y25389398D01*
X13408501Y25449736D01*
X13408489Y25449739D01*
X13253845Y25480500D01*
X13253842Y25480500D01*
X13096158Y25480500D01*
X13096155Y25480500D01*
X12941510Y25449739D01*
X12941498Y25449736D01*
X12795827Y25389398D01*
X12795814Y25389391D01*
X12664711Y25301790D01*
X12664707Y25301787D01*
X12553213Y25190293D01*
X12553210Y25190289D01*
X12465609Y25059186D01*
X12465602Y25059173D01*
X12405264Y24913502D01*
X12405261Y24913490D01*
X12374500Y24758847D01*
X11990557Y24758847D01*
X11969741Y24863490D01*
X11969740Y24863497D01*
X11969738Y24863502D01*
X11909400Y25009173D01*
X11909393Y25009186D01*
X11821792Y25140289D01*
X11821789Y25140293D01*
X11710295Y25251787D01*
X11710291Y25251790D01*
X11579188Y25339391D01*
X11579175Y25339398D01*
X11433504Y25399736D01*
X11433492Y25399739D01*
X11278848Y25430500D01*
X11278845Y25430500D01*
X11121161Y25430500D01*
X11121158Y25430500D01*
X10966513Y25399739D01*
X10966501Y25399736D01*
X10820830Y25339398D01*
X10820817Y25339391D01*
X10689714Y25251790D01*
X10689710Y25251787D01*
X10578216Y25140293D01*
X10578213Y25140289D01*
X10490612Y25009186D01*
X10490605Y25009173D01*
X10430267Y24863502D01*
X10430264Y24863490D01*
X10399503Y24708847D01*
X10399503Y24551154D01*
X10423341Y24431312D01*
X10417114Y24361720D01*
X10374251Y24306543D01*
X10349177Y24292560D01*
X10220827Y24239396D01*
X10220817Y24239391D01*
X10089714Y24151790D01*
X10089710Y24151787D01*
X9978216Y24040293D01*
X9978213Y24040289D01*
X9890612Y23909186D01*
X9890605Y23909173D01*
X9830267Y23763502D01*
X9830264Y23763490D01*
X9799503Y23608847D01*
X500500Y23608847D01*
X500500Y27708847D01*
X2124500Y27708847D01*
X2124500Y27551154D01*
X2155261Y27396511D01*
X2155264Y27396499D01*
X2215602Y27250828D01*
X2215609Y27250815D01*
X2303210Y27119712D01*
X2303213Y27119708D01*
X2414707Y27008214D01*
X2414711Y27008211D01*
X2545814Y26920610D01*
X2545827Y26920603D01*
X2691498Y26860265D01*
X2691503Y26860263D01*
X2846153Y26829501D01*
X2846156Y26829500D01*
X2846158Y26829500D01*
X3003844Y26829500D01*
X3003845Y26829501D01*
X3158497Y26860263D01*
X3304179Y26920606D01*
X3435289Y27008211D01*
X3546789Y27119711D01*
X3566493Y27149200D01*
X6338383Y27149200D01*
X6338383Y26991507D01*
X6369144Y26836864D01*
X6369147Y26836852D01*
X6429485Y26691181D01*
X6429492Y26691168D01*
X6517093Y26560065D01*
X6517096Y26560061D01*
X6628590Y26448567D01*
X6628594Y26448564D01*
X6759697Y26360963D01*
X6759710Y26360956D01*
X6905381Y26300618D01*
X6905386Y26300616D01*
X7060036Y26269854D01*
X7060039Y26269853D01*
X7060041Y26269853D01*
X7217727Y26269853D01*
X7217728Y26269854D01*
X7372380Y26300616D01*
X7518062Y26360959D01*
X7649172Y26448564D01*
X7760672Y26560064D01*
X7848277Y26691174D01*
X7857526Y26713502D01*
X7895063Y26804127D01*
X7908620Y26836856D01*
X7939383Y26991511D01*
X7939383Y27149195D01*
X7939383Y27149198D01*
X7939382Y27149200D01*
X7924468Y27224178D01*
X7908620Y27303850D01*
X7899878Y27324955D01*
X7848280Y27449526D01*
X7848273Y27449539D01*
X7760672Y27580642D01*
X7760669Y27580646D01*
X7649175Y27692140D01*
X7649171Y27692143D01*
X7518068Y27779744D01*
X7518055Y27779751D01*
X7372384Y27840089D01*
X7372372Y27840092D01*
X7217728Y27870853D01*
X7217725Y27870853D01*
X7060041Y27870853D01*
X7060038Y27870853D01*
X6905393Y27840092D01*
X6905381Y27840089D01*
X6759710Y27779751D01*
X6759697Y27779744D01*
X6628594Y27692143D01*
X6628590Y27692140D01*
X6517096Y27580646D01*
X6517093Y27580642D01*
X6429492Y27449539D01*
X6429485Y27449526D01*
X6369147Y27303855D01*
X6369144Y27303843D01*
X6338383Y27149200D01*
X3566493Y27149200D01*
X3594788Y27191547D01*
X3616592Y27224178D01*
X3616592Y27224179D01*
X3618475Y27226997D01*
X3634394Y27250821D01*
X3694737Y27396503D01*
X3725500Y27551158D01*
X3725500Y27708842D01*
X3725500Y27708845D01*
X3725499Y27708847D01*
X3714271Y27765293D01*
X3694737Y27863497D01*
X3685721Y27885263D01*
X3634397Y28009173D01*
X3634390Y28009186D01*
X3546789Y28140289D01*
X3546786Y28140293D01*
X3435292Y28251787D01*
X3435288Y28251790D01*
X3304185Y28339391D01*
X3304172Y28339398D01*
X3158501Y28399736D01*
X3158489Y28399739D01*
X3003845Y28430500D01*
X3003842Y28430500D01*
X2846158Y28430500D01*
X2846155Y28430500D01*
X2691510Y28399739D01*
X2691498Y28399736D01*
X2545827Y28339398D01*
X2545814Y28339391D01*
X2414711Y28251790D01*
X2414707Y28251787D01*
X2303213Y28140293D01*
X2303210Y28140289D01*
X2215609Y28009186D01*
X2215602Y28009173D01*
X2155264Y27863502D01*
X2155261Y27863490D01*
X2124500Y27708847D01*
X500500Y27708847D01*
X500500Y28643429D01*
X520185Y28710468D01*
X572989Y28756223D01*
X642147Y28766167D01*
X698811Y28742695D01*
X807664Y28661207D01*
X807671Y28661203D01*
X942517Y28610909D01*
X942516Y28610909D01*
X949444Y28610165D01*
X1002127Y28604500D01*
X2097872Y28604501D01*
X2157483Y28610909D01*
X2292331Y28661204D01*
X2407546Y28747454D01*
X2493796Y28862669D01*
X2544091Y28997517D01*
X2550500Y29057127D01*
X2550499Y29365560D01*
X5156386Y29365560D01*
X5156386Y29207867D01*
X5187147Y29053224D01*
X5187150Y29053212D01*
X5247488Y28907541D01*
X5247495Y28907528D01*
X5335096Y28776425D01*
X5335099Y28776421D01*
X5446593Y28664927D01*
X5446597Y28664924D01*
X5577700Y28577323D01*
X5577713Y28577316D01*
X5723384Y28516978D01*
X5723389Y28516976D01*
X5878039Y28486214D01*
X5878042Y28486213D01*
X5878044Y28486213D01*
X6035730Y28486213D01*
X6035731Y28486214D01*
X6190383Y28516976D01*
X6303052Y28563646D01*
X6336058Y28577316D01*
X6336058Y28577317D01*
X6336065Y28577319D01*
X6383250Y28608847D01*
X10149500Y28608847D01*
X10149500Y28451154D01*
X10180261Y28296511D01*
X10180264Y28296499D01*
X10240602Y28150828D01*
X10240609Y28150816D01*
X10280025Y28091826D01*
X10300903Y28025149D01*
X10282419Y27957769D01*
X10280028Y27954048D01*
X10269065Y27937640D01*
X10269058Y27937628D01*
X10208720Y27791958D01*
X10208717Y27791946D01*
X10177956Y27637303D01*
X10177956Y27479610D01*
X10208717Y27324967D01*
X10208720Y27324955D01*
X10269058Y27179284D01*
X10269065Y27179271D01*
X10356666Y27048168D01*
X10356669Y27048164D01*
X10468163Y26936670D01*
X10468167Y26936667D01*
X10599270Y26849066D01*
X10599283Y26849059D01*
X10744954Y26788721D01*
X10744959Y26788719D01*
X10899609Y26757957D01*
X10899612Y26757956D01*
X10899614Y26757956D01*
X11057300Y26757956D01*
X11057301Y26757957D01*
X11211953Y26788719D01*
X11357635Y26849062D01*
X11488745Y26936667D01*
X11600245Y27048167D01*
X11687850Y27179277D01*
X11748193Y27324959D01*
X11749961Y27333847D01*
X17224500Y27333847D01*
X17224500Y27176154D01*
X17255261Y27021511D01*
X17255264Y27021499D01*
X17315602Y26875828D01*
X17315609Y26875815D01*
X17403210Y26744712D01*
X17403213Y26744708D01*
X17514707Y26633214D01*
X17514711Y26633211D01*
X17645814Y26545610D01*
X17645827Y26545603D01*
X17753138Y26501154D01*
X17791503Y26485263D01*
X17946153Y26454501D01*
X17946156Y26454500D01*
X17946158Y26454500D01*
X18103844Y26454500D01*
X18103845Y26454501D01*
X18258497Y26485263D01*
X18404179Y26545606D01*
X18535289Y26633211D01*
X18560925Y26658847D01*
X25302500Y26658847D01*
X25302500Y26501154D01*
X25333261Y26346511D01*
X25333264Y26346499D01*
X25393602Y26200828D01*
X25393609Y26200815D01*
X25481210Y26069712D01*
X25481213Y26069708D01*
X25592707Y25958214D01*
X25592711Y25958211D01*
X25723814Y25870610D01*
X25723827Y25870603D01*
X25869498Y25810265D01*
X25869503Y25810263D01*
X26024153Y25779501D01*
X26024156Y25779500D01*
X26024158Y25779500D01*
X26181844Y25779500D01*
X26181845Y25779501D01*
X26336497Y25810263D01*
X26467182Y25864394D01*
X26482172Y25870603D01*
X26482172Y25870604D01*
X26482179Y25870606D01*
X26613289Y25958211D01*
X26724789Y26069711D01*
X26812394Y26200821D01*
X26821531Y26222883D01*
X26825617Y26227952D01*
X26826970Y26234321D01*
X26847267Y26254820D01*
X26865371Y26277285D01*
X26871549Y26279342D01*
X26876131Y26283968D01*
X26904288Y26290239D01*
X26931665Y26299351D01*
X26939554Y26298093D01*
X26944330Y26299156D01*
X26958738Y26295033D01*
X26978854Y26291824D01*
X26990885Y26287404D01*
X26995821Y26284106D01*
X27141503Y26223763D01*
X27190805Y26213957D01*
X27199881Y26210622D01*
X27220490Y26195352D01*
X27243221Y26183462D01*
X27250032Y26173463D01*
X27256020Y26169026D01*
X27259730Y26159225D01*
X27271681Y26141681D01*
X27288604Y26100825D01*
X27288609Y26100815D01*
X27376210Y25969712D01*
X27376213Y25969708D01*
X27487707Y25858214D01*
X27487711Y25858211D01*
X27618814Y25770610D01*
X27618827Y25770603D01*
X27764498Y25710265D01*
X27764503Y25710263D01*
X27919153Y25679501D01*
X27919156Y25679500D01*
X27919158Y25679500D01*
X28076844Y25679500D01*
X28076845Y25679501D01*
X28231497Y25710263D01*
X28377179Y25770606D01*
X28508289Y25858211D01*
X28619789Y25969711D01*
X28707394Y26100821D01*
X28767737Y26246503D01*
X28798500Y26401158D01*
X28798500Y26558842D01*
X28798500Y26558845D01*
X28798499Y26558847D01*
X28783706Y26633214D01*
X28767737Y26713497D01*
X28754808Y26744711D01*
X28707397Y26859173D01*
X28707390Y26859186D01*
X28619789Y26990289D01*
X28619786Y26990293D01*
X28508292Y27101787D01*
X28508288Y27101790D01*
X28377185Y27189391D01*
X28377172Y27189398D01*
X28231501Y27249736D01*
X28231492Y27249739D01*
X28191685Y27257657D01*
X28129774Y27290043D01*
X28101317Y27331821D01*
X28084394Y27372679D01*
X28068470Y27396511D01*
X27996789Y27503790D01*
X27885292Y27615287D01*
X27885288Y27615290D01*
X27754185Y27702891D01*
X27754172Y27702898D01*
X27608501Y27763236D01*
X27608489Y27763239D01*
X27453845Y27794000D01*
X27453842Y27794000D01*
X27296158Y27794000D01*
X27296155Y27794000D01*
X27141510Y27763239D01*
X27141498Y27763236D01*
X26995827Y27702898D01*
X26995814Y27702891D01*
X26864711Y27615290D01*
X26864707Y27615287D01*
X26753213Y27503793D01*
X26753210Y27503789D01*
X26665609Y27372686D01*
X26665606Y27372680D01*
X26656468Y27350618D01*
X26612626Y27296215D01*
X26546332Y27274151D01*
X26488049Y27287647D01*
X26487808Y27287063D01*
X26484307Y27288513D01*
X26483465Y27288708D01*
X26482184Y27289393D01*
X26336501Y27349736D01*
X26336489Y27349739D01*
X26181845Y27380500D01*
X26181842Y27380500D01*
X26024158Y27380500D01*
X26024155Y27380500D01*
X25869510Y27349739D01*
X25869498Y27349736D01*
X25723827Y27289398D01*
X25723814Y27289391D01*
X25592711Y27201790D01*
X25592707Y27201787D01*
X25481213Y27090293D01*
X25481210Y27090289D01*
X25393609Y26959186D01*
X25393602Y26959173D01*
X25333264Y26813502D01*
X25333261Y26813490D01*
X25302500Y26658847D01*
X18560925Y26658847D01*
X18646789Y26744711D01*
X18686256Y26803779D01*
X18686494Y26804127D01*
X18713140Y26826002D01*
X18739497Y26848029D01*
X18740058Y26848100D01*
X18740498Y26848460D01*
X18774642Y26852445D01*
X18808821Y26856738D01*
X18809848Y26856553D01*
X18809897Y26856558D01*
X18809943Y26856536D01*
X18813180Y26855951D01*
X18946155Y26829500D01*
X18946158Y26829500D01*
X19103844Y26829500D01*
X19103845Y26829501D01*
X19258497Y26860263D01*
X19404179Y26920606D01*
X19535289Y27008211D01*
X19646789Y27119711D01*
X19734394Y27250821D01*
X19794737Y27396503D01*
X19825500Y27551158D01*
X19825500Y27708842D01*
X19825500Y27708845D01*
X19825499Y27708847D01*
X19814271Y27765293D01*
X19794737Y27863497D01*
X19785721Y27885263D01*
X19734397Y28009173D01*
X19734390Y28009186D01*
X19646789Y28140289D01*
X19646786Y28140293D01*
X19535292Y28251787D01*
X19535288Y28251790D01*
X19404185Y28339391D01*
X19404172Y28339398D01*
X19258501Y28399736D01*
X19258489Y28399739D01*
X19103845Y28430500D01*
X19103842Y28430500D01*
X18946158Y28430500D01*
X18946155Y28430500D01*
X18791510Y28399739D01*
X18791498Y28399736D01*
X18645827Y28339398D01*
X18645814Y28339391D01*
X18514711Y28251790D01*
X18514707Y28251787D01*
X18403213Y28140293D01*
X18403210Y28140289D01*
X18364113Y28081776D01*
X18310500Y28036971D01*
X18241175Y28028264D01*
X18236820Y28029050D01*
X18103846Y28055500D01*
X18103842Y28055500D01*
X17946158Y28055500D01*
X17946155Y28055500D01*
X17791510Y28024739D01*
X17791498Y28024736D01*
X17645827Y27964398D01*
X17645814Y27964391D01*
X17514711Y27876790D01*
X17514707Y27876787D01*
X17403213Y27765293D01*
X17403210Y27765289D01*
X17315609Y27634186D01*
X17315602Y27634173D01*
X17255264Y27488502D01*
X17255261Y27488490D01*
X17224500Y27333847D01*
X11749961Y27333847D01*
X11757685Y27372679D01*
X11778956Y27479612D01*
X11778956Y27637301D01*
X11778955Y27637303D01*
X11768047Y27692142D01*
X11748193Y27791953D01*
X11728254Y27840090D01*
X11687853Y27937629D01*
X11687849Y27937636D01*
X11648429Y27996632D01*
X11627552Y28063308D01*
X11646036Y28130688D01*
X11648430Y28134413D01*
X11659394Y28150821D01*
X11719737Y28296503D01*
X11750500Y28451158D01*
X11750500Y28608842D01*
X11750500Y28608845D01*
X11750499Y28608847D01*
X24209500Y28608847D01*
X24209500Y28451154D01*
X24240261Y28296511D01*
X24240264Y28296499D01*
X24300602Y28150828D01*
X24300609Y28150815D01*
X24388210Y28019712D01*
X24388213Y28019708D01*
X24499707Y27908214D01*
X24499711Y27908211D01*
X24630814Y27820610D01*
X24630827Y27820603D01*
X24729454Y27779751D01*
X24776503Y27760263D01*
X24931153Y27729501D01*
X24931156Y27729500D01*
X24931158Y27729500D01*
X25088844Y27729500D01*
X25088845Y27729501D01*
X25243497Y27760263D01*
X25389179Y27820606D01*
X25520289Y27908211D01*
X25631789Y28019711D01*
X25719394Y28150821D01*
X25779737Y28296503D01*
X25810500Y28451158D01*
X25810500Y28608842D01*
X25810500Y28608845D01*
X25810499Y28608847D01*
X25800084Y28661207D01*
X25779737Y28763497D01*
X25720078Y28907528D01*
X25719397Y28909173D01*
X25719390Y28909186D01*
X25631789Y29040289D01*
X25631786Y29040293D01*
X25520292Y29151787D01*
X25520288Y29151790D01*
X25389185Y29239391D01*
X25389172Y29239398D01*
X25243501Y29299736D01*
X25243489Y29299739D01*
X25088845Y29330500D01*
X25088842Y29330500D01*
X24931158Y29330500D01*
X24931155Y29330500D01*
X24776510Y29299739D01*
X24776498Y29299736D01*
X24630827Y29239398D01*
X24630814Y29239391D01*
X24499711Y29151790D01*
X24499707Y29151787D01*
X24388213Y29040293D01*
X24388210Y29040289D01*
X24300609Y28909186D01*
X24300602Y28909173D01*
X24240264Y28763502D01*
X24240261Y28763490D01*
X24209500Y28608847D01*
X11750499Y28608847D01*
X11740084Y28661207D01*
X11719737Y28763497D01*
X11660078Y28907528D01*
X11659397Y28909173D01*
X11659390Y28909186D01*
X11571789Y29040289D01*
X11571786Y29040293D01*
X11460292Y29151787D01*
X11460288Y29151790D01*
X11329185Y29239391D01*
X11329172Y29239398D01*
X11183501Y29299736D01*
X11183489Y29299739D01*
X11028845Y29330500D01*
X11028842Y29330500D01*
X10871158Y29330500D01*
X10871155Y29330500D01*
X10716510Y29299739D01*
X10716498Y29299736D01*
X10570827Y29239398D01*
X10570814Y29239391D01*
X10439711Y29151790D01*
X10439707Y29151787D01*
X10328213Y29040293D01*
X10328210Y29040289D01*
X10240609Y28909186D01*
X10240602Y28909173D01*
X10180264Y28763502D01*
X10180261Y28763490D01*
X10149500Y28608847D01*
X6383250Y28608847D01*
X6467175Y28664924D01*
X6467178Y28664927D01*
X6504867Y28702615D01*
X6578672Y28776421D01*
X6578675Y28776424D01*
X6666280Y28907534D01*
X6726623Y29053216D01*
X6757386Y29207871D01*
X6757386Y29365555D01*
X6757386Y29365558D01*
X6757385Y29365560D01*
X6741641Y29444711D01*
X6726623Y29520210D01*
X6703591Y29575815D01*
X6666283Y29665886D01*
X6666276Y29665899D01*
X6578675Y29797002D01*
X6578672Y29797006D01*
X6467178Y29908500D01*
X6467174Y29908503D01*
X6336071Y29996104D01*
X6336058Y29996111D01*
X6190387Y30056449D01*
X6190375Y30056452D01*
X6035731Y30087213D01*
X6035728Y30087213D01*
X5878044Y30087213D01*
X5878041Y30087213D01*
X5723396Y30056452D01*
X5723384Y30056449D01*
X5577713Y29996111D01*
X5577700Y29996104D01*
X5446597Y29908503D01*
X5446593Y29908500D01*
X5335099Y29797006D01*
X5335096Y29797002D01*
X5247495Y29665899D01*
X5247488Y29665886D01*
X5187150Y29520215D01*
X5187147Y29520203D01*
X5156386Y29365560D01*
X2550499Y29365560D01*
X2550499Y29651154D01*
X2550499Y30152871D01*
X2550498Y30152877D01*
X2544091Y30212484D01*
X2493797Y30347329D01*
X2493795Y30347332D01*
X2493511Y30347711D01*
X2484975Y30359114D01*
X2460558Y30424577D01*
X2469679Y30480872D01*
X2512051Y30583165D01*
X2539568Y30721499D01*
X2550500Y30776457D01*
X2550500Y30973544D01*
X2512052Y31166830D01*
X2512051Y31166831D01*
X2512051Y31166835D01*
X2512049Y31166840D01*
X2436635Y31348908D01*
X2436633Y31348912D01*
X2436632Y31348914D01*
X2375029Y31441109D01*
X2354151Y31507786D01*
X2372635Y31575166D01*
X2375029Y31578891D01*
X2409873Y31631039D01*
X2436632Y31671086D01*
X2512051Y31853165D01*
X2534466Y31965851D01*
X2550500Y32046457D01*
X2550500Y32243544D01*
X2512052Y32436830D01*
X2512051Y32436831D01*
X2512051Y32436835D01*
X2453929Y32577155D01*
X2436635Y32618908D01*
X2436628Y32618921D01*
X2374728Y32711560D01*
X2353850Y32778237D01*
X2372334Y32845617D01*
X2374729Y32849343D01*
X2436189Y32941324D01*
X2436191Y32941327D01*
X2511569Y33123307D01*
X2511572Y33123319D01*
X2549999Y33316505D01*
X2550000Y33316508D01*
X2550000Y33513492D01*
X2549999Y33513496D01*
X2511572Y33706682D01*
X2511569Y33706694D01*
X2436192Y33888672D01*
X2412572Y33924021D01*
X1875000Y33386449D01*
X1875000Y33457787D01*
X1852851Y33540445D01*
X1810064Y33614554D01*
X1749554Y33675064D01*
X1675445Y33717851D01*
X1592787Y33740000D01*
X1507213Y33740000D01*
X1424555Y33717851D01*
X1350446Y33675064D01*
X1289936Y33614554D01*
X1247149Y33540445D01*
X1225000Y33457787D01*
X1225000Y33386448D01*
X687426Y33924022D01*
X636654Y33919021D01*
X621808Y33921837D01*
X606853Y33919686D01*
X588177Y33928215D01*
X568008Y33932040D01*
X557042Y33942434D01*
X543297Y33948711D01*
X532196Y33965984D01*
X517298Y33980105D01*
X513090Y33995714D01*
X505523Y34007489D01*
X500500Y34042424D01*
X500500Y34277574D01*
X1040978Y34277574D01*
X1550000Y33768554D01*
X1550001Y33768554D01*
X1870293Y34088847D01*
X6459500Y34088847D01*
X6459500Y33931154D01*
X6490261Y33776511D01*
X6490264Y33776499D01*
X6550602Y33630828D01*
X6550609Y33630815D01*
X6638210Y33499712D01*
X6638213Y33499708D01*
X6749707Y33388214D01*
X6749711Y33388211D01*
X6880814Y33300610D01*
X6880827Y33300603D01*
X7026498Y33240265D01*
X7026503Y33240263D01*
X7151266Y33215446D01*
X7181153Y33209501D01*
X7181156Y33209500D01*
X7181158Y33209500D01*
X7338844Y33209500D01*
X7338845Y33209501D01*
X7493497Y33240263D01*
X7639179Y33300606D01*
X7770289Y33388211D01*
X7814344Y33432267D01*
X7875666Y33465752D01*
X7945357Y33460768D01*
X7949471Y33459150D01*
X8004724Y33436263D01*
X8111620Y33415000D01*
X8159374Y33405501D01*
X8159377Y33405500D01*
X8159379Y33405500D01*
X8317065Y33405500D01*
X8317066Y33405501D01*
X8471718Y33436263D01*
X8617400Y33496606D01*
X8748510Y33584211D01*
X8860010Y33695711D01*
X8947615Y33826821D01*
X9007958Y33972503D01*
X9038721Y34127158D01*
X9038721Y34284842D01*
X9038721Y34284845D01*
X9038720Y34284847D01*
X9030195Y34327703D01*
X9007958Y34439497D01*
X8985093Y34494698D01*
X8947618Y34585173D01*
X8947613Y34585182D01*
X8944671Y34589585D01*
X8944670Y34589587D01*
X8902705Y34652391D01*
X9279486Y34652391D01*
X9279486Y34494698D01*
X9310247Y34340055D01*
X9310250Y34340043D01*
X9370588Y34194372D01*
X9370595Y34194359D01*
X9458196Y34063256D01*
X9458199Y34063252D01*
X9569693Y33951758D01*
X9569697Y33951755D01*
X9700800Y33864154D01*
X9700813Y33864147D01*
X9759124Y33839994D01*
X9813528Y33796153D01*
X9835593Y33729859D01*
X9826233Y33677981D01*
X9768829Y33539394D01*
X9768826Y33539382D01*
X9738065Y33384739D01*
X9738065Y33227046D01*
X9768826Y33072403D01*
X9768829Y33072391D01*
X9829167Y32926720D01*
X9829174Y32926707D01*
X9916775Y32795604D01*
X9916778Y32795600D01*
X10028272Y32684106D01*
X10028276Y32684103D01*
X10159379Y32596502D01*
X10159392Y32596495D01*
X10305063Y32536157D01*
X10305068Y32536155D01*
X10459718Y32505393D01*
X10459721Y32505392D01*
X10459723Y32505392D01*
X10617409Y32505392D01*
X10617410Y32505393D01*
X10772062Y32536155D01*
X10917744Y32596498D01*
X11048854Y32684103D01*
X11160354Y32795603D01*
X11235813Y32908535D01*
X11289425Y32953340D01*
X11358750Y32962047D01*
X11421777Y32931893D01*
X11458497Y32872450D01*
X11462915Y32839644D01*
X11462915Y32687739D01*
X11493676Y32533096D01*
X11493679Y32533084D01*
X11554017Y32387413D01*
X11554024Y32387400D01*
X11641625Y32256297D01*
X11641628Y32256293D01*
X11686648Y32211273D01*
X11720133Y32149950D01*
X11715149Y32080258D01*
X11673277Y32024325D01*
X11623160Y32001975D01*
X11516406Y31980740D01*
X11516397Y31980737D01*
X11370726Y31920399D01*
X11370713Y31920392D01*
X11239610Y31832791D01*
X11239606Y31832788D01*
X11128112Y31721294D01*
X11128109Y31721290D01*
X11040508Y31590187D01*
X11040501Y31590174D01*
X10980163Y31444503D01*
X10980160Y31444491D01*
X10949399Y31289848D01*
X10949399Y31132155D01*
X10980160Y30977512D01*
X10980163Y30977500D01*
X11040501Y30831829D01*
X11040508Y30831816D01*
X11128109Y30700713D01*
X11128112Y30700709D01*
X11239606Y30589215D01*
X11239610Y30589212D01*
X11370713Y30501611D01*
X11370726Y30501604D01*
X11508080Y30444711D01*
X11516402Y30441264D01*
X11645222Y30415640D01*
X11671052Y30410502D01*
X11671055Y30410501D01*
X11671057Y30410501D01*
X11828743Y30410501D01*
X11828744Y30410502D01*
X11983396Y30441264D01*
X12129078Y30501607D01*
X12260188Y30589212D01*
X12371688Y30700712D01*
X12459293Y30831822D01*
X12519636Y30977504D01*
X12532036Y31039842D01*
X12532037Y31039847D01*
X12820079Y31039847D01*
X12820079Y30882154D01*
X12850840Y30727511D01*
X12850843Y30727499D01*
X12911181Y30581828D01*
X12911188Y30581815D01*
X12998789Y30450712D01*
X12998792Y30450708D01*
X13018529Y30430971D01*
X13052014Y30369648D01*
X13047030Y30299956D01*
X13018534Y30255613D01*
X13003209Y30240287D01*
X13003208Y30240286D01*
X12915609Y30109186D01*
X12915602Y30109173D01*
X12855264Y29963502D01*
X12855261Y29963490D01*
X12824500Y29808847D01*
X12824500Y29651154D01*
X12855261Y29496511D01*
X12855264Y29496499D01*
X12915602Y29350828D01*
X12915609Y29350815D01*
X13003210Y29219712D01*
X13003213Y29219708D01*
X13114707Y29108214D01*
X13114711Y29108211D01*
X13245814Y29020610D01*
X13245827Y29020603D01*
X13391498Y28960265D01*
X13391503Y28960263D01*
X13546153Y28929501D01*
X13546156Y28929500D01*
X13546158Y28929500D01*
X13703844Y28929500D01*
X13703845Y28929501D01*
X13858497Y28960263D01*
X14004179Y29020606D01*
X14135289Y29108211D01*
X14246789Y29219711D01*
X14334394Y29350821D01*
X14394737Y29496503D01*
X14425500Y29651158D01*
X14425500Y29808842D01*
X14425500Y29808845D01*
X14425499Y29808847D01*
X14412110Y29876158D01*
X14394737Y29963497D01*
X14381228Y29996111D01*
X14334397Y30109173D01*
X14334390Y30109186D01*
X14246789Y30240289D01*
X14246787Y30240292D01*
X14227050Y30260028D01*
X14193563Y30321350D01*
X14198546Y30391042D01*
X14227048Y30435392D01*
X14242368Y30450711D01*
X14329973Y30581821D01*
X14333035Y30589212D01*
X14364174Y30664391D01*
X14390316Y30727503D01*
X14421079Y30882158D01*
X14421079Y31039842D01*
X14421079Y31039845D01*
X14421078Y31039847D01*
X14410586Y31092592D01*
X14390316Y31194497D01*
X14350823Y31289843D01*
X14329976Y31340173D01*
X14329969Y31340186D01*
X14242368Y31471289D01*
X14242365Y31471293D01*
X14130871Y31582787D01*
X14130867Y31582790D01*
X14058658Y31631039D01*
X14013853Y31684652D01*
X14005146Y31753977D01*
X14035301Y31817004D01*
X14094744Y31853723D01*
X14146927Y31855586D01*
X14146978Y31856096D01*
X14150773Y31855723D01*
X14151746Y31855757D01*
X14153043Y31855499D01*
X14153045Y31855499D01*
X14310729Y31855499D01*
X14310730Y31855500D01*
X14465382Y31886262D01*
X14611064Y31946605D01*
X14742174Y32034210D01*
X14853674Y32145710D01*
X14941279Y32276820D01*
X15001622Y32422502D01*
X15032385Y32577157D01*
X15032385Y32734841D01*
X15032385Y32734844D01*
X15032384Y32734846D01*
X15020299Y32795600D01*
X15001622Y32889496D01*
X14986209Y32926707D01*
X14941282Y33035172D01*
X14941275Y33035185D01*
X14853674Y33166288D01*
X14853671Y33166292D01*
X14742177Y33277786D01*
X14742173Y33277789D01*
X14611070Y33365390D01*
X14611057Y33365397D01*
X14465386Y33425735D01*
X14465374Y33425738D01*
X14310730Y33456499D01*
X14310727Y33456499D01*
X14153043Y33456499D01*
X14153040Y33456499D01*
X13998395Y33425738D01*
X13998383Y33425735D01*
X13852712Y33365397D01*
X13852699Y33365390D01*
X13721596Y33277789D01*
X13721592Y33277786D01*
X13610098Y33166292D01*
X13610095Y33166288D01*
X13522494Y33035185D01*
X13522487Y33035172D01*
X13462149Y32889501D01*
X13462146Y32889489D01*
X13431385Y32734846D01*
X13431385Y32577153D01*
X13462146Y32422510D01*
X13462149Y32422498D01*
X13522487Y32276827D01*
X13522494Y32276814D01*
X13610095Y32145711D01*
X13610098Y32145707D01*
X13721592Y32034213D01*
X13721596Y32034210D01*
X13793805Y31985961D01*
X13838610Y31932349D01*
X13847317Y31863024D01*
X13817163Y31799996D01*
X13757719Y31763277D01*
X13705536Y31761413D01*
X13705486Y31760903D01*
X13701700Y31761276D01*
X13700727Y31761241D01*
X13699425Y31761500D01*
X13699421Y31761500D01*
X13541737Y31761500D01*
X13541734Y31761500D01*
X13387089Y31730739D01*
X13387077Y31730736D01*
X13241406Y31670398D01*
X13241393Y31670391D01*
X13110290Y31582790D01*
X13110286Y31582787D01*
X12998792Y31471293D01*
X12998789Y31471289D01*
X12911188Y31340186D01*
X12911181Y31340173D01*
X12850843Y31194502D01*
X12850840Y31194490D01*
X12820079Y31039847D01*
X12532037Y31039847D01*
X12538060Y31070125D01*
X12538060Y31070126D01*
X12550399Y31132157D01*
X12550399Y31289846D01*
X12550398Y31289848D01*
X12541580Y31334179D01*
X12519636Y31444498D01*
X12511024Y31465289D01*
X12459296Y31590174D01*
X12459289Y31590187D01*
X12371688Y31721290D01*
X12371685Y31721294D01*
X12326665Y31766314D01*
X12293180Y31827637D01*
X12298164Y31897329D01*
X12340036Y31953262D01*
X12390155Y31975612D01*
X12442500Y31986025D01*
X12496912Y31996848D01*
X12616680Y32046457D01*
X12642587Y32057188D01*
X12642587Y32057189D01*
X12642594Y32057191D01*
X12773704Y32144796D01*
X12885204Y32256296D01*
X12972809Y32387406D01*
X13033152Y32533088D01*
X13063915Y32687743D01*
X13063915Y32845427D01*
X13063915Y32845430D01*
X13063914Y32845432D01*
X13047746Y32926713D01*
X13033152Y33000082D01*
X13020084Y33031632D01*
X12972812Y33145758D01*
X12972805Y33145771D01*
X12885204Y33276874D01*
X12885201Y33276878D01*
X12773707Y33388372D01*
X12773703Y33388375D01*
X12642600Y33475976D01*
X12642587Y33475983D01*
X12496916Y33536321D01*
X12496904Y33536324D01*
X12342260Y33567085D01*
X12342257Y33567085D01*
X12184573Y33567085D01*
X12184570Y33567085D01*
X12029925Y33536324D01*
X12029913Y33536321D01*
X11884242Y33475983D01*
X11884229Y33475976D01*
X11753126Y33388375D01*
X11753122Y33388372D01*
X11641628Y33276878D01*
X11641625Y33276874D01*
X11566167Y33163943D01*
X11512555Y33119138D01*
X11443230Y33110431D01*
X11380202Y33140586D01*
X11343483Y33200029D01*
X11339065Y33232834D01*
X11339065Y33384737D01*
X11339064Y33384739D01*
X11321809Y33471485D01*
X11308302Y33539389D01*
X11288126Y33588099D01*
X11247962Y33685065D01*
X11247955Y33685078D01*
X11160354Y33816181D01*
X11160351Y33816185D01*
X11048857Y33927679D01*
X11048853Y33927682D01*
X10917750Y34015283D01*
X10917740Y34015288D01*
X10859425Y34039443D01*
X10805022Y34083284D01*
X10782957Y34149579D01*
X10792316Y34201455D01*
X10849723Y34340047D01*
X10880486Y34494702D01*
X10880486Y34652386D01*
X10880486Y34652389D01*
X10867884Y34715742D01*
X10867884Y34715743D01*
X10864283Y34733847D01*
X13574500Y34733847D01*
X13574500Y34576154D01*
X13605261Y34421511D01*
X13605264Y34421499D01*
X13665602Y34275828D01*
X13665609Y34275815D01*
X13753210Y34144712D01*
X13753213Y34144708D01*
X13864707Y34033214D01*
X13864711Y34033211D01*
X13995814Y33945610D01*
X13995827Y33945603D01*
X14060003Y33919021D01*
X14141503Y33885263D01*
X14247645Y33864150D01*
X14296153Y33854501D01*
X14296156Y33854500D01*
X14296158Y33854500D01*
X14453844Y33854500D01*
X14453845Y33854501D01*
X14608497Y33885263D01*
X14754179Y33945606D01*
X14885289Y34033211D01*
X14996789Y34144711D01*
X15084394Y34275821D01*
X15084395Y34275823D01*
X15085483Y34277857D01*
X15086333Y34278724D01*
X15087779Y34280886D01*
X15088189Y34280613D01*
X15134443Y34327703D01*
X15202581Y34343166D01*
X15268261Y34319337D01*
X15309404Y34266860D01*
X15316044Y34250828D01*
X15316051Y34250815D01*
X15403652Y34119712D01*
X15403655Y34119708D01*
X15515149Y34008214D01*
X15515153Y34008211D01*
X15646256Y33920610D01*
X15646269Y33920603D01*
X15782551Y33864154D01*
X15791945Y33860263D01*
X15912540Y33836275D01*
X15946595Y33829501D01*
X15946598Y33829500D01*
X15946600Y33829500D01*
X16104286Y33829500D01*
X16116024Y33831836D01*
X16130821Y33834779D01*
X16150419Y33833027D01*
X16169827Y33836275D01*
X16184502Y33829978D01*
X16200412Y33828555D01*
X16215953Y33816483D01*
X16234036Y33808724D01*
X16253044Y33787673D01*
X16255591Y33785694D01*
X16257757Y33782591D01*
X16257959Y33782292D01*
X16280565Y33748460D01*
X16281354Y33747671D01*
X16285250Y33741906D01*
X16294185Y33713883D01*
X16305678Y33686808D01*
X16304678Y33680976D01*
X16306476Y33675338D01*
X16298842Y33646934D01*
X16293873Y33617942D01*
X16289878Y33613576D01*
X16288343Y33607863D01*
X16266569Y33588099D01*
X16246710Y33566392D01*
X16239627Y33563643D01*
X16236608Y33560902D01*
X16229503Y33559713D01*
X16206701Y33550861D01*
X16111004Y33531826D01*
X16110994Y33531823D01*
X15965323Y33471485D01*
X15965310Y33471478D01*
X15834207Y33383877D01*
X15834203Y33383874D01*
X15722709Y33272380D01*
X15722706Y33272376D01*
X15635105Y33141273D01*
X15635098Y33141260D01*
X15574760Y32995589D01*
X15574757Y32995577D01*
X15543996Y32840934D01*
X15543996Y32683241D01*
X15574757Y32528598D01*
X15574760Y32528586D01*
X15635098Y32382915D01*
X15635105Y32382902D01*
X15722706Y32251799D01*
X15722709Y32251795D01*
X15834203Y32140301D01*
X15834207Y32140298D01*
X15965310Y32052697D01*
X15965323Y32052690D01*
X16064764Y32011501D01*
X16110999Y31992350D01*
X16244218Y31965851D01*
X16306129Y31933467D01*
X16340703Y31872751D01*
X16336964Y31802981D01*
X16296098Y31746309D01*
X16256036Y31725578D01*
X16253274Y31724741D01*
X16107592Y31664398D01*
X16107579Y31664391D01*
X15976476Y31576790D01*
X15976472Y31576787D01*
X15864978Y31465293D01*
X15864975Y31465289D01*
X15777374Y31334186D01*
X15777367Y31334173D01*
X15717029Y31188502D01*
X15717026Y31188490D01*
X15686265Y31033847D01*
X15686265Y30876154D01*
X15717026Y30721511D01*
X15717029Y30721499D01*
X15777367Y30575828D01*
X15777374Y30575815D01*
X15864975Y30444712D01*
X15868841Y30440001D01*
X15866739Y30438277D01*
X15894607Y30387241D01*
X15889623Y30317549D01*
X15861123Y30273203D01*
X15828214Y30240294D01*
X15828210Y30240289D01*
X15740609Y30109186D01*
X15740602Y30109173D01*
X15680264Y29963502D01*
X15680261Y29963490D01*
X15649500Y29808847D01*
X15649500Y29651154D01*
X15680261Y29496511D01*
X15680264Y29496499D01*
X15740602Y29350828D01*
X15740609Y29350815D01*
X15828210Y29219712D01*
X15828213Y29219708D01*
X15939707Y29108214D01*
X15939711Y29108211D01*
X16070814Y29020610D01*
X16070827Y29020603D01*
X16216498Y28960265D01*
X16216503Y28960263D01*
X16371153Y28929501D01*
X16371156Y28929500D01*
X16371158Y28929500D01*
X16528844Y28929500D01*
X16528845Y28929501D01*
X16683497Y28960263D01*
X16829179Y29020606D01*
X16960289Y29108211D01*
X17071789Y29219711D01*
X17159394Y29350821D01*
X17219737Y29496503D01*
X17250500Y29651158D01*
X17250500Y29808842D01*
X17250500Y29808845D01*
X17250499Y29808847D01*
X17237110Y29876158D01*
X17219737Y29963497D01*
X17190598Y30033847D01*
X19124500Y30033847D01*
X19124500Y29876154D01*
X19155261Y29721511D01*
X19155264Y29721499D01*
X19215602Y29575828D01*
X19215609Y29575815D01*
X19303210Y29444712D01*
X19303213Y29444708D01*
X19414707Y29333214D01*
X19414711Y29333211D01*
X19545814Y29245610D01*
X19545827Y29245603D01*
X19691498Y29185265D01*
X19691503Y29185263D01*
X19846153Y29154501D01*
X19846156Y29154500D01*
X19846158Y29154500D01*
X20003844Y29154500D01*
X20003845Y29154501D01*
X20158497Y29185263D01*
X20289182Y29239394D01*
X20304172Y29245603D01*
X20304172Y29245604D01*
X20304179Y29245606D01*
X20435289Y29333211D01*
X20546789Y29444711D01*
X20634394Y29575821D01*
X20694737Y29721503D01*
X20725500Y29876158D01*
X20725500Y30033842D01*
X20725500Y30033845D01*
X20725499Y30033847D01*
X20721003Y30056450D01*
X20694737Y30188497D01*
X20684801Y30212484D01*
X20634397Y30334173D01*
X20634390Y30334186D01*
X20546789Y30465289D01*
X20546786Y30465293D01*
X20435292Y30576787D01*
X20435288Y30576790D01*
X20304185Y30664391D01*
X20304172Y30664398D01*
X20158501Y30724736D01*
X20158489Y30724739D01*
X20003845Y30755500D01*
X20003842Y30755500D01*
X19846158Y30755500D01*
X19846155Y30755500D01*
X19691510Y30724739D01*
X19691498Y30724736D01*
X19545827Y30664398D01*
X19545814Y30664391D01*
X19414711Y30576790D01*
X19414707Y30576787D01*
X19303213Y30465293D01*
X19303210Y30465289D01*
X19215609Y30334186D01*
X19215602Y30334173D01*
X19155264Y30188502D01*
X19155261Y30188490D01*
X19124500Y30033847D01*
X17190598Y30033847D01*
X17168493Y30087213D01*
X17159397Y30109173D01*
X17159390Y30109186D01*
X17071789Y30240289D01*
X17067924Y30244999D01*
X17070025Y30246724D01*
X17042157Y30297760D01*
X17047141Y30367452D01*
X17075643Y30411800D01*
X17108551Y30444708D01*
X17108554Y30444711D01*
X17196159Y30575821D01*
X17199204Y30583171D01*
X17209832Y30608834D01*
X17256502Y30721503D01*
X17287265Y30876158D01*
X17287265Y31033842D01*
X17287265Y31033845D01*
X17287264Y31033847D01*
X17256502Y31188497D01*
X17217457Y31282761D01*
X17196162Y31334173D01*
X17196155Y31334186D01*
X17108554Y31465289D01*
X17108551Y31465293D01*
X17055649Y31518195D01*
X17547499Y31518195D01*
X17571613Y31396971D01*
X17571616Y31396961D01*
X17618913Y31282774D01*
X17618920Y31282761D01*
X17687588Y31179993D01*
X17687591Y31179989D01*
X17774988Y31092592D01*
X17774992Y31092589D01*
X17877760Y31023921D01*
X17877773Y31023914D01*
X17989799Y30977512D01*
X17991965Y30976615D01*
X17991969Y30976615D01*
X17991970Y30976614D01*
X18113194Y30952500D01*
X18113197Y30952500D01*
X18236805Y30952500D01*
X18350808Y30975177D01*
X18399192Y30975177D01*
X18513194Y30952500D01*
X18513197Y30952500D01*
X18636805Y30952500D01*
X18742596Y30973544D01*
X18758035Y30976615D01*
X18872233Y31023917D01*
X18975008Y31092589D01*
X19062411Y31179992D01*
X19131083Y31282767D01*
X19178385Y31396965D01*
X19200429Y31507786D01*
X19202500Y31518195D01*
X19202500Y31641806D01*
X19178386Y31763030D01*
X19178385Y31763031D01*
X19178385Y31763035D01*
X19169858Y31783622D01*
X19131086Y31877227D01*
X19131079Y31877240D01*
X19062411Y31980008D01*
X19062408Y31980012D01*
X18975011Y32067409D01*
X18975007Y32067412D01*
X18872239Y32136080D01*
X18872226Y32136087D01*
X18758039Y32183384D01*
X18758029Y32183387D01*
X18636805Y32207500D01*
X18636803Y32207500D01*
X18513197Y32207500D01*
X18513195Y32207500D01*
X18399192Y32184823D01*
X18350808Y32184823D01*
X18236805Y32207500D01*
X18236803Y32207500D01*
X18113197Y32207500D01*
X18113195Y32207500D01*
X17991970Y32183387D01*
X17991960Y32183384D01*
X17877773Y32136087D01*
X17877760Y32136080D01*
X17774992Y32067412D01*
X17774988Y32067409D01*
X17687591Y31980012D01*
X17687588Y31980008D01*
X17618920Y31877240D01*
X17618913Y31877227D01*
X17571616Y31763040D01*
X17571613Y31763030D01*
X17547500Y31641806D01*
X17547500Y31641803D01*
X17547500Y31518197D01*
X17547500Y31518195D01*
X17547499Y31518195D01*
X17055649Y31518195D01*
X16997057Y31576787D01*
X16997053Y31576790D01*
X16865950Y31664391D01*
X16865937Y31664398D01*
X16720266Y31724736D01*
X16720256Y31724739D01*
X16587041Y31751237D01*
X16525131Y31783622D01*
X16490556Y31844338D01*
X16494296Y31914107D01*
X16535163Y31970779D01*
X16575241Y31991515D01*
X16577990Y31992350D01*
X16577993Y31992350D01*
X16723675Y32052693D01*
X16854785Y32140298D01*
X16966285Y32251798D01*
X17053890Y32382908D01*
X17114233Y32528590D01*
X17144996Y32683245D01*
X17144996Y32840929D01*
X17144996Y32840932D01*
X17144995Y32840934D01*
X17128842Y32922139D01*
X17114233Y32995584D01*
X17075125Y33090000D01*
X17053893Y33141260D01*
X17053886Y33141273D01*
X16962901Y33277441D01*
X16964686Y33278634D01*
X16941172Y33334023D01*
X16952973Y33402889D01*
X17000133Y33454442D01*
X17040143Y33469975D01*
X17135851Y33489012D01*
X17281533Y33549355D01*
X17412643Y33636960D01*
X17524143Y33748460D01*
X17611748Y33879570D01*
X17672091Y34025252D01*
X17702854Y34179907D01*
X17702854Y34337591D01*
X17702854Y34337594D01*
X17691885Y34392736D01*
X17691885Y34392737D01*
X17688284Y34410841D01*
X18212735Y34410841D01*
X18212735Y34253148D01*
X18243496Y34098505D01*
X18243499Y34098493D01*
X18303837Y33952822D01*
X18303844Y33952809D01*
X18391445Y33821706D01*
X18391448Y33821702D01*
X18502942Y33710208D01*
X18502946Y33710205D01*
X18634049Y33622604D01*
X18634062Y33622597D01*
X18768082Y33567085D01*
X18779738Y33562257D01*
X18932724Y33531826D01*
X18934388Y33531495D01*
X18934391Y33531494D01*
X18934393Y33531494D01*
X19092079Y33531494D01*
X19092080Y33531495D01*
X19246732Y33562257D01*
X19392414Y33622600D01*
X19523524Y33710205D01*
X19635024Y33821705D01*
X19722629Y33952815D01*
X19782972Y34098497D01*
X19782972Y34098498D01*
X19785303Y34104125D01*
X19788007Y34103005D01*
X19819195Y34151005D01*
X19882895Y34179712D01*
X19947380Y34171448D01*
X19969565Y34162259D01*
X19969570Y34162257D01*
X20124220Y34131495D01*
X20124223Y34131494D01*
X20124225Y34131494D01*
X20281911Y34131494D01*
X20281912Y34131495D01*
X20436564Y34162257D01*
X20582246Y34222600D01*
X20713356Y34310205D01*
X20824856Y34421705D01*
X20912461Y34552815D01*
X20972804Y34698497D01*
X20972805Y34698504D01*
X20974574Y34704332D01*
X20976672Y34703696D01*
X21004480Y34756862D01*
X21046263Y34785326D01*
X21119268Y34815564D01*
X21250378Y34903169D01*
X21361878Y35014669D01*
X21449483Y35145779D01*
X21509826Y35291461D01*
X21540589Y35446116D01*
X21540589Y35603800D01*
X21540589Y35603803D01*
X21540588Y35603805D01*
X21522052Y35696991D01*
X21509826Y35758455D01*
X21482372Y35824736D01*
X21449486Y35904131D01*
X21449479Y35904144D01*
X21361878Y36035247D01*
X21361875Y36035251D01*
X21250381Y36146745D01*
X21250377Y36146748D01*
X21119274Y36234349D01*
X21119261Y36234356D01*
X20973590Y36294694D01*
X20973578Y36294697D01*
X20818934Y36325458D01*
X20818931Y36325458D01*
X20661247Y36325458D01*
X20661244Y36325458D01*
X20506599Y36294697D01*
X20506587Y36294694D01*
X20360916Y36234356D01*
X20360903Y36234349D01*
X20229800Y36146748D01*
X20229796Y36146745D01*
X20118302Y36035251D01*
X20118299Y36035247D01*
X20030698Y35904144D01*
X20030691Y35904131D01*
X19970352Y35758458D01*
X19968582Y35752621D01*
X19966493Y35753255D01*
X19938635Y35700050D01*
X19896892Y35671628D01*
X19823888Y35641388D01*
X19823881Y35641385D01*
X19692778Y35553784D01*
X19692774Y35553781D01*
X19581280Y35442287D01*
X19581277Y35442283D01*
X19493676Y35311180D01*
X19493669Y35311167D01*
X19430999Y35159864D01*
X19428477Y35160909D01*
X19396297Y35112297D01*
X19332354Y35084136D01*
X19268921Y35092540D01*
X19246732Y35101731D01*
X19246727Y35101732D01*
X19246724Y35101733D01*
X19092080Y35132494D01*
X19092077Y35132494D01*
X18934393Y35132494D01*
X18934390Y35132494D01*
X18779745Y35101733D01*
X18779733Y35101730D01*
X18634062Y35041392D01*
X18634049Y35041385D01*
X18502946Y34953784D01*
X18502942Y34953781D01*
X18391448Y34842287D01*
X18391445Y34842283D01*
X18303844Y34711180D01*
X18303837Y34711167D01*
X18243499Y34565496D01*
X18243496Y34565484D01*
X18212735Y34410841D01*
X17688284Y34410841D01*
X17682583Y34439497D01*
X17672091Y34492246D01*
X17641750Y34565496D01*
X17611750Y34637924D01*
X17611749Y34637926D01*
X17591129Y34668786D01*
X17570251Y34735464D01*
X17579671Y34785131D01*
X17594735Y34821498D01*
X17594735Y34821499D01*
X17594737Y34821503D01*
X17625500Y34976158D01*
X17625500Y35133842D01*
X17625500Y35133845D01*
X17625499Y35133847D01*
X17619244Y35165293D01*
X17594737Y35288497D01*
X17585347Y35311167D01*
X17534397Y35434173D01*
X17534390Y35434186D01*
X17446789Y35565289D01*
X17446786Y35565293D01*
X17335292Y35676787D01*
X17335288Y35676790D01*
X17204185Y35764391D01*
X17204172Y35764398D01*
X17058501Y35824736D01*
X17058489Y35824739D01*
X16903845Y35855500D01*
X16903842Y35855500D01*
X16746158Y35855500D01*
X16746155Y35855500D01*
X16591510Y35824739D01*
X16591498Y35824736D01*
X16445827Y35764398D01*
X16445814Y35764391D01*
X16314711Y35676790D01*
X16314707Y35676787D01*
X16203213Y35565293D01*
X16203210Y35565289D01*
X16149970Y35485609D01*
X16096358Y35440804D01*
X16046868Y35430500D01*
X15946597Y35430500D01*
X15791952Y35399739D01*
X15791940Y35399736D01*
X15646269Y35339398D01*
X15646256Y35339391D01*
X15515153Y35251790D01*
X15515149Y35251787D01*
X15403655Y35140293D01*
X15403652Y35140289D01*
X15316044Y35009175D01*
X15314949Y35007126D01*
X15314094Y35006257D01*
X15312663Y35004114D01*
X15312256Y35004386D01*
X15265980Y34957288D01*
X15197841Y34941836D01*
X15132164Y34965676D01*
X15091036Y35018144D01*
X15084397Y35034173D01*
X15084390Y35034186D01*
X14996789Y35165289D01*
X14996786Y35165293D01*
X14885292Y35276787D01*
X14885288Y35276790D01*
X14754185Y35364391D01*
X14754172Y35364398D01*
X14608501Y35424736D01*
X14608489Y35424739D01*
X14453845Y35455500D01*
X14453842Y35455500D01*
X14296158Y35455500D01*
X14296155Y35455500D01*
X14141510Y35424739D01*
X14141498Y35424736D01*
X13995827Y35364398D01*
X13995814Y35364391D01*
X13864711Y35276790D01*
X13864707Y35276787D01*
X13753213Y35165293D01*
X13753210Y35165289D01*
X13665609Y35034186D01*
X13665602Y35034173D01*
X13605264Y34888502D01*
X13605261Y34888490D01*
X13574500Y34733847D01*
X10864283Y34733847D01*
X10849724Y34807034D01*
X10849723Y34807041D01*
X10841130Y34827787D01*
X10789383Y34952717D01*
X10789376Y34952730D01*
X10701775Y35083833D01*
X10701772Y35083837D01*
X10590278Y35195331D01*
X10590274Y35195334D01*
X10459171Y35282935D01*
X10459158Y35282942D01*
X10313487Y35343280D01*
X10313475Y35343283D01*
X10158831Y35374044D01*
X10158828Y35374044D01*
X10001144Y35374044D01*
X10001141Y35374044D01*
X9846496Y35343283D01*
X9846484Y35343280D01*
X9700813Y35282942D01*
X9700800Y35282935D01*
X9569697Y35195334D01*
X9569693Y35195331D01*
X9458199Y35083837D01*
X9458196Y35083833D01*
X9370595Y34952730D01*
X9370588Y34952717D01*
X9310250Y34807046D01*
X9310247Y34807034D01*
X9279486Y34652391D01*
X8902705Y34652391D01*
X8860010Y34716289D01*
X8860007Y34716293D01*
X8748513Y34827787D01*
X8748509Y34827790D01*
X8617406Y34915391D01*
X8617393Y34915398D01*
X8471722Y34975736D01*
X8471710Y34975739D01*
X8317066Y35006500D01*
X8317063Y35006500D01*
X8159379Y35006500D01*
X8159376Y35006500D01*
X8004731Y34975739D01*
X8004719Y34975736D01*
X7859048Y34915398D01*
X7859035Y34915391D01*
X7727935Y34827792D01*
X7727929Y34827788D01*
X7683873Y34783732D01*
X7622550Y34750248D01*
X7552858Y34755234D01*
X7548741Y34756854D01*
X7493497Y34779737D01*
X7493489Y34779739D01*
X7338845Y34810500D01*
X7338842Y34810500D01*
X7181158Y34810500D01*
X7181155Y34810500D01*
X7026510Y34779739D01*
X7026498Y34779736D01*
X6880827Y34719398D01*
X6880814Y34719391D01*
X6749711Y34631790D01*
X6749707Y34631787D01*
X6638213Y34520293D01*
X6638210Y34520289D01*
X6550609Y34389186D01*
X6550602Y34389173D01*
X6490264Y34243502D01*
X6490261Y34243490D01*
X6459500Y34088847D01*
X1870293Y34088847D01*
X1964061Y34182615D01*
X2059019Y34277574D01*
X2023675Y34301191D01*
X2023673Y34301192D01*
X1841693Y34376570D01*
X1841681Y34376573D01*
X1648495Y34415000D01*
X1451504Y34415000D01*
X1258318Y34376573D01*
X1258310Y34376571D01*
X1076325Y34301191D01*
X1076318Y34301187D01*
X1040979Y34277574D01*
X1040978Y34277574D01*
X500500Y34277574D01*
X500500Y37110000D01*
X1255138Y37110000D01*
X2058012Y37110000D01*
X2040795Y37100060D01*
X1984940Y37044205D01*
X1945444Y36975796D01*
X1925000Y36899496D01*
X1925000Y36820504D01*
X1945444Y36744204D01*
X1984940Y36675795D01*
X2040795Y36619940D01*
X2058012Y36610000D01*
X1255138Y36610000D01*
X1263430Y36568310D01*
X1263430Y36568308D01*
X1338807Y36386329D01*
X1338814Y36386316D01*
X1448248Y36222538D01*
X1448251Y36222534D01*
X1587533Y36083252D01*
X1587537Y36083249D01*
X1751315Y35973815D01*
X1751328Y35973808D01*
X1933306Y35898431D01*
X1933318Y35898428D01*
X2126504Y35860001D01*
X2126508Y35860000D01*
X2375000Y35860000D01*
X2375000Y36560000D01*
X2875000Y36560000D01*
X2875000Y35860000D01*
X3123492Y35860000D01*
X3123495Y35860001D01*
X3316681Y35898428D01*
X3316693Y35898431D01*
X3498671Y35973808D01*
X3498684Y35973815D01*
X3662462Y36083249D01*
X3662466Y36083252D01*
X3801748Y36222534D01*
X3801751Y36222538D01*
X3911360Y36386578D01*
X3964972Y36431383D01*
X4034297Y36440090D01*
X4097324Y36409936D01*
X4129023Y36365140D01*
X4165604Y36276824D01*
X4165609Y36276815D01*
X4253210Y36145712D01*
X4253213Y36145708D01*
X4364707Y36034214D01*
X4364711Y36034211D01*
X4495814Y35946610D01*
X4495827Y35946603D01*
X4641498Y35886265D01*
X4641503Y35886263D01*
X4773530Y35860001D01*
X4796153Y35855501D01*
X4796156Y35855500D01*
X4796158Y35855500D01*
X4953844Y35855500D01*
X4953845Y35855501D01*
X5108497Y35886263D01*
X5254179Y35946606D01*
X5385289Y36034211D01*
X5438250Y36087172D01*
X5499573Y36120658D01*
X5569265Y36115674D01*
X5613619Y36087168D01*
X5617539Y36083247D01*
X5781315Y35973815D01*
X5781328Y35973808D01*
X5963306Y35898431D01*
X5963318Y35898428D01*
X6156504Y35860001D01*
X6156508Y35860000D01*
X6555000Y35860000D01*
X6555000Y36560000D01*
X7055000Y36560000D01*
X7055000Y35860000D01*
X7453492Y35860000D01*
X7453495Y35860001D01*
X7646681Y35898428D01*
X7646693Y35898431D01*
X7828671Y35973808D01*
X7828684Y35973815D01*
X7992462Y36083249D01*
X7992466Y36083252D01*
X8131748Y36222534D01*
X8131751Y36222538D01*
X8241185Y36386316D01*
X8241188Y36386322D01*
X8242923Y36390510D01*
X8286757Y36444918D01*
X8353049Y36466990D01*
X8420750Y36449719D01*
X8445170Y36430751D01*
X8547042Y36328879D01*
X8547046Y36328876D01*
X8678149Y36241275D01*
X8678162Y36241268D01*
X8723391Y36222534D01*
X8823838Y36180928D01*
X8978488Y36150166D01*
X8978491Y36150165D01*
X8978493Y36150165D01*
X9136179Y36150165D01*
X9136180Y36150166D01*
X9290832Y36180928D01*
X9436514Y36241271D01*
X9567624Y36328876D01*
X9679124Y36440376D01*
X9766729Y36571486D01*
X9770440Y36580444D01*
X9827070Y36717164D01*
X9827072Y36717168D01*
X9857835Y36871823D01*
X9857835Y37029507D01*
X9857835Y37029510D01*
X9857834Y37029512D01*
X9843801Y37100060D01*
X9827072Y37184162D01*
X9788291Y37277789D01*
X9766732Y37329838D01*
X9766725Y37329851D01*
X9679124Y37460954D01*
X9679121Y37460958D01*
X9567627Y37572452D01*
X9567623Y37572455D01*
X9436520Y37660056D01*
X9436507Y37660063D01*
X9290836Y37720401D01*
X9290824Y37720404D01*
X9136180Y37751165D01*
X9136177Y37751165D01*
X8978493Y37751165D01*
X8978490Y37751165D01*
X8823845Y37720404D01*
X8823833Y37720401D01*
X8678162Y37660063D01*
X8678149Y37660056D01*
X8547046Y37572455D01*
X8547042Y37572452D01*
X8435548Y37460958D01*
X8435543Y37460952D01*
X8398946Y37406181D01*
X8345333Y37361376D01*
X8276008Y37352670D01*
X8212981Y37382826D01*
X8192743Y37406183D01*
X8131754Y37497459D01*
X8131748Y37497467D01*
X7992466Y37636749D01*
X7992462Y37636752D01*
X7828684Y37746186D01*
X7828671Y37746193D01*
X7646693Y37821570D01*
X7646681Y37821573D01*
X7453495Y37860000D01*
X7055000Y37860000D01*
X7055000Y37160000D01*
X6555000Y37160000D01*
X6555000Y37698216D01*
X6574685Y37765255D01*
X6617000Y37805603D01*
X6617577Y37805936D01*
X6658365Y37829485D01*
X6765515Y37936635D01*
X6766618Y37938545D01*
X6786721Y37973363D01*
X6841279Y38067862D01*
X6841281Y38067865D01*
X6880500Y38214234D01*
X6880500Y38365766D01*
X6841281Y38512135D01*
X6765515Y38643365D01*
X6658365Y38750515D01*
X6571221Y38800828D01*
X6527136Y38826281D01*
X6433881Y38851268D01*
X6405596Y38858847D01*
X7450500Y38858847D01*
X7450500Y38701154D01*
X7481261Y38546511D01*
X7481264Y38546499D01*
X7541602Y38400828D01*
X7541609Y38400815D01*
X7629210Y38269712D01*
X7629213Y38269708D01*
X7740707Y38158214D01*
X7740711Y38158211D01*
X7871814Y38070610D01*
X7871827Y38070603D01*
X8015089Y38011263D01*
X8017503Y38010263D01*
X8167131Y37980500D01*
X8172153Y37979501D01*
X8172156Y37979500D01*
X8172158Y37979500D01*
X8329844Y37979500D01*
X8329845Y37979501D01*
X8484497Y38010263D01*
X8611896Y38063033D01*
X8630172Y38070603D01*
X8630172Y38070604D01*
X8630179Y38070606D01*
X8761289Y38158211D01*
X8872789Y38269711D01*
X8960394Y38400821D01*
X9020737Y38546503D01*
X9051500Y38701158D01*
X9051500Y38851270D01*
X11908500Y38851270D01*
X11908500Y38693577D01*
X11939261Y38538934D01*
X11939264Y38538922D01*
X11999602Y38393251D01*
X11999609Y38393238D01*
X12087210Y38262135D01*
X12087213Y38262131D01*
X12198707Y38150637D01*
X12198711Y38150634D01*
X12329814Y38063033D01*
X12329827Y38063026D01*
X12475498Y38002688D01*
X12475503Y38002686D01*
X12622919Y37973363D01*
X12630153Y37971924D01*
X12630156Y37971923D01*
X12630158Y37971923D01*
X12787844Y37971923D01*
X12787845Y37971924D01*
X12942497Y38002686D01*
X13088179Y38063029D01*
X13219289Y38150634D01*
X13330789Y38262134D01*
X13345297Y38283847D01*
X18474500Y38283847D01*
X18474500Y38126154D01*
X18505261Y37971511D01*
X18505264Y37971499D01*
X18565602Y37825828D01*
X18565609Y37825815D01*
X18653210Y37694712D01*
X18653213Y37694708D01*
X18764707Y37583214D01*
X18764711Y37583211D01*
X18895814Y37495610D01*
X18895827Y37495603D01*
X19041498Y37435265D01*
X19041503Y37435263D01*
X19187697Y37406183D01*
X19196153Y37404501D01*
X19196156Y37404500D01*
X19196158Y37404500D01*
X19353844Y37404500D01*
X19353845Y37404501D01*
X19508497Y37435263D01*
X19626592Y37484179D01*
X19654172Y37495603D01*
X19654172Y37495604D01*
X19654179Y37495606D01*
X19785289Y37583211D01*
X19896789Y37694711D01*
X19984394Y37825821D01*
X20044737Y37971503D01*
X20075500Y38126158D01*
X20075500Y38283842D01*
X20075500Y38283845D01*
X20075499Y38283847D01*
X20044737Y38438497D01*
X20020162Y38497825D01*
X20012694Y38567292D01*
X20043969Y38629772D01*
X20104058Y38665424D01*
X20173883Y38662931D01*
X20182163Y38659843D01*
X20241503Y38635263D01*
X20396153Y38604501D01*
X20396156Y38604500D01*
X20396158Y38604500D01*
X20553844Y38604500D01*
X20553845Y38604501D01*
X20708497Y38635263D01*
X20849281Y38693577D01*
X20854172Y38695603D01*
X20854172Y38695604D01*
X20854179Y38695606D01*
X20985289Y38783211D01*
X21061925Y38859847D01*
X23974500Y38859847D01*
X23974500Y38702154D01*
X24005261Y38547511D01*
X24005264Y38547499D01*
X24065602Y38401828D01*
X24065609Y38401815D01*
X24153210Y38270712D01*
X24153213Y38270708D01*
X24264707Y38159214D01*
X24264711Y38159211D01*
X24395814Y38071610D01*
X24395827Y38071603D01*
X24511721Y38023599D01*
X24566125Y37979759D01*
X24588190Y37913465D01*
X24570911Y37845765D01*
X24533161Y37805936D01*
X24414707Y37726787D01*
X24303213Y37615293D01*
X24303210Y37615289D01*
X24215609Y37484186D01*
X24215602Y37484173D01*
X24155264Y37338502D01*
X24155261Y37338490D01*
X24124500Y37183847D01*
X24124500Y37026154D01*
X24155261Y36871511D01*
X24155264Y36871499D01*
X24215602Y36725828D01*
X24215609Y36725815D01*
X24303210Y36594712D01*
X24303213Y36594708D01*
X24414707Y36483214D01*
X24414711Y36483211D01*
X24545814Y36395610D01*
X24545827Y36395603D01*
X24691498Y36335265D01*
X24691503Y36335263D01*
X24846153Y36304501D01*
X24846156Y36304500D01*
X24846158Y36304500D01*
X25003844Y36304500D01*
X25003845Y36304501D01*
X25158497Y36335263D01*
X25304179Y36395606D01*
X25435289Y36483211D01*
X25546789Y36594711D01*
X25634394Y36725821D01*
X25694737Y36871503D01*
X25725500Y37026158D01*
X25725500Y37183842D01*
X25725500Y37183845D01*
X25725499Y37183847D01*
X25706813Y37277787D01*
X25694737Y37338497D01*
X25689212Y37351835D01*
X25634397Y37484173D01*
X25634390Y37484186D01*
X25546789Y37615289D01*
X25546786Y37615293D01*
X25435216Y37726863D01*
X25401731Y37788186D01*
X25406715Y37857878D01*
X25448587Y37913811D01*
X25514051Y37938228D01*
X25522897Y37938544D01*
X25660418Y37938544D01*
X25660419Y37938545D01*
X25815071Y37969307D01*
X25927740Y38015977D01*
X25960746Y38029647D01*
X25960746Y38029648D01*
X25960753Y38029650D01*
X26091863Y38117255D01*
X26091867Y38117260D01*
X26092781Y38117870D01*
X26159459Y38138748D01*
X26185865Y38136385D01*
X26191500Y38135264D01*
X26191503Y38135263D01*
X26260846Y38121470D01*
X26346155Y38104500D01*
X26346158Y38104500D01*
X26503844Y38104500D01*
X26503845Y38104501D01*
X26658497Y38135263D01*
X26804179Y38195606D01*
X26935289Y38283211D01*
X27046789Y38394711D01*
X27134394Y38525821D01*
X27194737Y38671503D01*
X27225500Y38826158D01*
X27225500Y38983842D01*
X27225500Y38983845D01*
X27225499Y38983847D01*
X27202165Y39101154D01*
X27194737Y39138497D01*
X27186170Y39159179D01*
X27134397Y39284173D01*
X27134390Y39284186D01*
X27046789Y39415289D01*
X27046786Y39415293D01*
X26935292Y39526787D01*
X26935288Y39526790D01*
X26804185Y39614391D01*
X26804172Y39614398D01*
X26658501Y39674736D01*
X26658489Y39674739D01*
X26503845Y39705500D01*
X26503842Y39705500D01*
X26346158Y39705500D01*
X26346155Y39705500D01*
X26191510Y39674739D01*
X26191498Y39674736D01*
X26045827Y39614398D01*
X26045814Y39614391D01*
X25913791Y39526175D01*
X25847113Y39505297D01*
X25820708Y39507660D01*
X25660418Y39539544D01*
X25660416Y39539544D01*
X25502732Y39539544D01*
X25502729Y39539544D01*
X25348085Y39508784D01*
X25348084Y39508783D01*
X25348081Y39508782D01*
X25348077Y39508781D01*
X25272624Y39477528D01*
X25203156Y39470060D01*
X25159609Y39487645D01*
X25159546Y39487525D01*
X25158435Y39488119D01*
X25156285Y39488987D01*
X25154179Y39490394D01*
X25154174Y39490397D01*
X25008501Y39550736D01*
X25008489Y39550739D01*
X24853845Y39581500D01*
X24853842Y39581500D01*
X24696158Y39581500D01*
X24696155Y39581500D01*
X24541510Y39550739D01*
X24541498Y39550736D01*
X24395827Y39490398D01*
X24395814Y39490391D01*
X24264711Y39402790D01*
X24264707Y39402787D01*
X24153213Y39291293D01*
X24153210Y39291289D01*
X24065609Y39160186D01*
X24065602Y39160173D01*
X24005264Y39014502D01*
X24005261Y39014490D01*
X23974500Y38859847D01*
X21061925Y38859847D01*
X21096789Y38894711D01*
X21110356Y38915016D01*
X21123593Y38934825D01*
X21184390Y39025815D01*
X21184390Y39025816D01*
X21184394Y39025821D01*
X21244737Y39171503D01*
X21275500Y39326158D01*
X21275500Y39483842D01*
X21275500Y39483845D01*
X21275499Y39483847D01*
X21262393Y39549736D01*
X21244737Y39638497D01*
X21244735Y39638502D01*
X21184397Y39784173D01*
X21184390Y39784186D01*
X21096789Y39915289D01*
X21096786Y39915293D01*
X20985292Y40026787D01*
X20985288Y40026790D01*
X20854185Y40114391D01*
X20854172Y40114398D01*
X20708501Y40174736D01*
X20708489Y40174739D01*
X20553845Y40205500D01*
X20553842Y40205500D01*
X20396158Y40205500D01*
X20396155Y40205500D01*
X20241510Y40174739D01*
X20241498Y40174736D01*
X20095827Y40114398D01*
X20095814Y40114391D01*
X19964711Y40026790D01*
X19964707Y40026787D01*
X19853213Y39915293D01*
X19853210Y39915289D01*
X19765609Y39784186D01*
X19765602Y39784173D01*
X19705264Y39638502D01*
X19705261Y39638490D01*
X19674500Y39483847D01*
X19674500Y39326154D01*
X19705261Y39171511D01*
X19705264Y39171499D01*
X19729836Y39112177D01*
X19737305Y39042708D01*
X19706029Y38980229D01*
X19645940Y38944577D01*
X19576115Y38947071D01*
X19567823Y38950164D01*
X19508501Y38974736D01*
X19508489Y38974739D01*
X19353845Y39005500D01*
X19353842Y39005500D01*
X19196158Y39005500D01*
X19196155Y39005500D01*
X19041510Y38974739D01*
X19041498Y38974736D01*
X18895827Y38914398D01*
X18895814Y38914391D01*
X18764711Y38826790D01*
X18764707Y38826787D01*
X18653213Y38715293D01*
X18653210Y38715289D01*
X18565609Y38584186D01*
X18565602Y38584173D01*
X18505264Y38438502D01*
X18505261Y38438490D01*
X18474500Y38283847D01*
X13345297Y38283847D01*
X13418394Y38393244D01*
X13419001Y38394708D01*
X13460792Y38495603D01*
X13478737Y38538926D01*
X13509500Y38693581D01*
X13509500Y38851265D01*
X13509500Y38851268D01*
X13509499Y38851270D01*
X13506668Y38865500D01*
X13478737Y39005920D01*
X13478735Y39005925D01*
X13418397Y39151596D01*
X13418395Y39151600D01*
X13418394Y39151602D01*
X13346738Y39258842D01*
X13330792Y39282708D01*
X13330786Y39282716D01*
X13329655Y39283847D01*
X13799500Y39283847D01*
X13799500Y39126154D01*
X13830261Y38971511D01*
X13830264Y38971499D01*
X13890602Y38825828D01*
X13890609Y38825815D01*
X13978210Y38694712D01*
X13978213Y38694708D01*
X14089707Y38583214D01*
X14089711Y38583211D01*
X14220814Y38495610D01*
X14220827Y38495603D01*
X14358683Y38438502D01*
X14366503Y38435263D01*
X14492176Y38410265D01*
X14521153Y38404501D01*
X14521156Y38404500D01*
X14521158Y38404500D01*
X14678844Y38404500D01*
X14678845Y38404501D01*
X14833497Y38435263D01*
X14979179Y38495606D01*
X14999901Y38509453D01*
X15066573Y38530331D01*
X15133954Y38511849D01*
X15137682Y38509453D01*
X15195814Y38470610D01*
X15195827Y38470603D01*
X15341498Y38410265D01*
X15341503Y38410263D01*
X15496153Y38379501D01*
X15496156Y38379500D01*
X15496158Y38379500D01*
X15653844Y38379500D01*
X15653845Y38379501D01*
X15808497Y38410263D01*
X15954179Y38470606D01*
X16085289Y38558211D01*
X16196789Y38669711D01*
X16284394Y38800821D01*
X16344737Y38946503D01*
X16375500Y39101158D01*
X16375500Y39258842D01*
X16375500Y39258845D01*
X16375499Y39258847D01*
X16346867Y39402789D01*
X16344737Y39413497D01*
X16334380Y39438502D01*
X16284397Y39559173D01*
X16284390Y39559186D01*
X16196789Y39690289D01*
X16196786Y39690293D01*
X16085292Y39801787D01*
X16085288Y39801790D01*
X15954185Y39889391D01*
X15954172Y39889398D01*
X15808501Y39949736D01*
X15808489Y39949739D01*
X15653845Y39980500D01*
X15653842Y39980500D01*
X15496158Y39980500D01*
X15496155Y39980500D01*
X15341510Y39949739D01*
X15341498Y39949736D01*
X15195828Y39889398D01*
X15195812Y39889389D01*
X15175096Y39875547D01*
X15108418Y39854670D01*
X15041038Y39873156D01*
X15037316Y39875548D01*
X14979184Y39914391D01*
X14979181Y39914393D01*
X14979179Y39914394D01*
X14979176Y39914396D01*
X14979171Y39914398D01*
X14833501Y39974736D01*
X14833489Y39974739D01*
X14678845Y40005500D01*
X14678842Y40005500D01*
X14521158Y40005500D01*
X14521155Y40005500D01*
X14366510Y39974739D01*
X14366498Y39974736D01*
X14220827Y39914398D01*
X14220814Y39914391D01*
X14089711Y39826790D01*
X14089707Y39826787D01*
X13978213Y39715293D01*
X13978210Y39715289D01*
X13890609Y39584186D01*
X13890602Y39584173D01*
X13830264Y39438502D01*
X13830261Y39438490D01*
X13799500Y39283847D01*
X13329655Y39283847D01*
X13219292Y39394210D01*
X13219288Y39394213D01*
X13088185Y39481814D01*
X13088172Y39481821D01*
X12942501Y39542159D01*
X12942489Y39542162D01*
X12787845Y39572923D01*
X12787842Y39572923D01*
X12630158Y39572923D01*
X12630155Y39572923D01*
X12475510Y39542162D01*
X12475498Y39542159D01*
X12329827Y39481821D01*
X12329814Y39481814D01*
X12198711Y39394213D01*
X12198707Y39394210D01*
X12087213Y39282716D01*
X12087210Y39282712D01*
X11999609Y39151609D01*
X11999602Y39151596D01*
X11939264Y39005925D01*
X11939261Y39005913D01*
X11908500Y38851270D01*
X9051500Y38851270D01*
X9051500Y38858842D01*
X9051500Y38858845D01*
X9051499Y38858847D01*
X9044365Y38894712D01*
X9020737Y39013497D01*
X9015629Y39025828D01*
X8960397Y39159173D01*
X8960390Y39159186D01*
X8872789Y39290289D01*
X8872786Y39290293D01*
X8761292Y39401787D01*
X8761287Y39401791D01*
X8630185Y39489391D01*
X8630172Y39489398D01*
X8484501Y39549736D01*
X8484489Y39549739D01*
X8329845Y39580500D01*
X8329842Y39580500D01*
X8172158Y39580500D01*
X8172155Y39580500D01*
X8017510Y39549739D01*
X8017498Y39549736D01*
X7871827Y39489398D01*
X7871814Y39489391D01*
X7740713Y39401791D01*
X7740707Y39401787D01*
X7629213Y39290293D01*
X7629210Y39290289D01*
X7541609Y39159186D01*
X7541602Y39159173D01*
X7481264Y39013502D01*
X7481261Y39013490D01*
X7450500Y38858847D01*
X6405596Y38858847D01*
X6380766Y38865500D01*
X6229234Y38865500D01*
X6082863Y38826281D01*
X5951635Y38750515D01*
X5951632Y38750513D01*
X5844487Y38643368D01*
X5844485Y38643365D01*
X5768719Y38512137D01*
X5729500Y38365766D01*
X5729500Y38214235D01*
X5768719Y38067864D01*
X5801976Y38010263D01*
X5844485Y37936635D01*
X5844486Y37936634D01*
X5848549Y37929597D01*
X5846346Y37928326D01*
X5866959Y37875017D01*
X5852923Y37806572D01*
X5804112Y37756580D01*
X5790845Y37750134D01*
X5781324Y37746191D01*
X5781315Y37746186D01*
X5617537Y37636752D01*
X5617533Y37636749D01*
X5478251Y37497467D01*
X5478248Y37497463D01*
X5416698Y37405347D01*
X5363085Y37360542D01*
X5293760Y37351835D01*
X5259894Y37363274D01*
X5259808Y37363063D01*
X5256676Y37364361D01*
X5255152Y37364875D01*
X5254182Y37365394D01*
X5108501Y37425736D01*
X5108489Y37425739D01*
X4953845Y37456500D01*
X4953842Y37456500D01*
X4796158Y37456500D01*
X4796155Y37456500D01*
X4641510Y37425739D01*
X4641498Y37425736D01*
X4495827Y37365398D01*
X4495814Y37365391D01*
X4364711Y37277790D01*
X4364707Y37277787D01*
X4253213Y37166293D01*
X4253210Y37166289D01*
X4211817Y37104340D01*
X4158204Y37059535D01*
X4088879Y37050828D01*
X4025852Y37080983D01*
X3989133Y37140426D01*
X3987096Y37149046D01*
X3986569Y37151693D01*
X3986569Y37151694D01*
X3911192Y37333672D01*
X3911185Y37333685D01*
X3801751Y37497463D01*
X3801748Y37497467D01*
X3662466Y37636749D01*
X3662462Y37636752D01*
X3498684Y37746186D01*
X3498671Y37746193D01*
X3316693Y37821570D01*
X3316681Y37821573D01*
X3123495Y37860000D01*
X2875000Y37860000D01*
X2875000Y37160000D01*
X2375000Y37160000D01*
X2375000Y37860000D01*
X2126504Y37860000D01*
X1933318Y37821573D01*
X1933306Y37821570D01*
X1751328Y37746193D01*
X1751315Y37746186D01*
X1587537Y37636752D01*
X1587533Y37636749D01*
X1448251Y37497467D01*
X1448248Y37497463D01*
X1338814Y37333685D01*
X1338807Y37333672D01*
X1263430Y37151693D01*
X1263430Y37151691D01*
X1255138Y37110000D01*
X500500Y37110000D01*
X500500Y42404582D01*
X20415235Y42404582D01*
X20415235Y42246889D01*
X20445996Y42092246D01*
X20445999Y42092234D01*
X20506337Y41946563D01*
X20506344Y41946550D01*
X20593945Y41815447D01*
X20593948Y41815443D01*
X20705442Y41703949D01*
X20705446Y41703946D01*
X20836549Y41616345D01*
X20836562Y41616338D01*
X20982233Y41556000D01*
X20982238Y41555998D01*
X21136888Y41525236D01*
X21136891Y41525235D01*
X21136893Y41525235D01*
X21294579Y41525235D01*
X21294580Y41525236D01*
X21449232Y41555998D01*
X21594914Y41616341D01*
X21726024Y41703946D01*
X21837524Y41815446D01*
X21925129Y41946556D01*
X21928037Y41953577D01*
X21971872Y42007978D01*
X22024386Y42027295D01*
X22024184Y42028311D01*
X22110650Y42045512D01*
X22184813Y42060263D01*
X22330495Y42120606D01*
X22461605Y42208211D01*
X22573105Y42319711D01*
X22660710Y42450821D01*
X22721053Y42596503D01*
X22751816Y42751158D01*
X22751816Y42760149D01*
X22771501Y42827188D01*
X22806922Y42863249D01*
X22862605Y42900454D01*
X22974105Y43011954D01*
X23005438Y43058847D01*
X24541600Y43058847D01*
X24541600Y42901154D01*
X24572361Y42746511D01*
X24572364Y42746499D01*
X24632702Y42600828D01*
X24632709Y42600815D01*
X24720310Y42469712D01*
X24720313Y42469708D01*
X24831807Y42358214D01*
X24831811Y42358211D01*
X24962914Y42270610D01*
X24962927Y42270603D01*
X25020179Y42246889D01*
X25108603Y42210263D01*
X25263253Y42179501D01*
X25263256Y42179500D01*
X25263258Y42179500D01*
X25420944Y42179500D01*
X25420945Y42179501D01*
X25575597Y42210263D01*
X25721279Y42270606D01*
X25852389Y42358211D01*
X25963889Y42469711D01*
X26051494Y42600821D01*
X26111837Y42746503D01*
X26142600Y42901158D01*
X26142600Y43058842D01*
X26142600Y43058845D01*
X26142599Y43058847D01*
X26135313Y43095474D01*
X26111837Y43213497D01*
X26080665Y43288754D01*
X26051497Y43359173D01*
X26051490Y43359186D01*
X25963889Y43490289D01*
X25963886Y43490293D01*
X25852392Y43601787D01*
X25852388Y43601790D01*
X25721285Y43689391D01*
X25721272Y43689398D01*
X25575601Y43749736D01*
X25575589Y43749739D01*
X25420945Y43780500D01*
X25420942Y43780500D01*
X25263258Y43780500D01*
X25263255Y43780500D01*
X25108610Y43749739D01*
X25108598Y43749736D01*
X24962927Y43689398D01*
X24962914Y43689391D01*
X24831811Y43601790D01*
X24831807Y43601787D01*
X24720313Y43490293D01*
X24720310Y43490289D01*
X24632709Y43359186D01*
X24632702Y43359173D01*
X24572364Y43213502D01*
X24572361Y43213490D01*
X24541600Y43058847D01*
X23005438Y43058847D01*
X23061710Y43143064D01*
X23122053Y43288746D01*
X23152816Y43443401D01*
X23152816Y43601085D01*
X23152816Y43601088D01*
X23152815Y43601090D01*
X23141326Y43658847D01*
X23122053Y43755740D01*
X23111797Y43780500D01*
X23061713Y43901416D01*
X23061706Y43901429D01*
X22974105Y44032532D01*
X22974102Y44032536D01*
X22862608Y44144030D01*
X22862604Y44144033D01*
X22731501Y44231634D01*
X22731488Y44231641D01*
X22585817Y44291979D01*
X22585805Y44291982D01*
X22431161Y44322743D01*
X22431158Y44322743D01*
X22273474Y44322743D01*
X22273471Y44322743D01*
X22118826Y44291982D01*
X22118814Y44291979D01*
X21973143Y44231641D01*
X21973130Y44231634D01*
X21842027Y44144033D01*
X21842023Y44144030D01*
X21730529Y44032536D01*
X21730526Y44032532D01*
X21642925Y43901429D01*
X21642918Y43901416D01*
X21582580Y43755745D01*
X21582577Y43755733D01*
X21551816Y43601090D01*
X21551816Y43592096D01*
X21532131Y43525057D01*
X21496707Y43488994D01*
X21441027Y43451790D01*
X21441023Y43451787D01*
X21329529Y43340293D01*
X21329526Y43340289D01*
X21241923Y43209183D01*
X21241921Y43209178D01*
X21239011Y43202153D01*
X21195168Y43147751D01*
X21142665Y43128436D01*
X21142867Y43127424D01*
X20982245Y43095474D01*
X20982233Y43095471D01*
X20836562Y43035133D01*
X20836549Y43035126D01*
X20705446Y42947525D01*
X20705442Y42947522D01*
X20593948Y42836028D01*
X20593945Y42836024D01*
X20506344Y42704921D01*
X20506337Y42704908D01*
X20445999Y42559237D01*
X20445996Y42559225D01*
X20415235Y42404582D01*
X500500Y42404582D01*
X500500Y45750000D01*
X1255138Y45750000D01*
X2058012Y45750000D01*
X2040795Y45740060D01*
X1984940Y45684205D01*
X1945444Y45615796D01*
X1925000Y45539496D01*
X1925000Y45460504D01*
X1945444Y45384204D01*
X1984940Y45315795D01*
X2040795Y45259940D01*
X2058012Y45250000D01*
X1255138Y45250000D01*
X1263430Y45208310D01*
X1263430Y45208308D01*
X1338807Y45026329D01*
X1338814Y45026316D01*
X1448248Y44862538D01*
X1448251Y44862534D01*
X1587533Y44723252D01*
X1587537Y44723249D01*
X1751315Y44613815D01*
X1751328Y44613808D01*
X1933306Y44538431D01*
X1933318Y44538428D01*
X2126504Y44500001D01*
X2126508Y44500000D01*
X2375000Y44500000D01*
X2375000Y45200000D01*
X2875000Y45200000D01*
X2875000Y44500000D01*
X3123492Y44500000D01*
X3123495Y44500001D01*
X3316681Y44538428D01*
X3316693Y44538431D01*
X3498671Y44613808D01*
X3498684Y44613815D01*
X3662462Y44723249D01*
X3662466Y44723252D01*
X3801748Y44862534D01*
X3801751Y44862538D01*
X3911185Y45026316D01*
X3911192Y45026329D01*
X3986569Y45208308D01*
X3986569Y45208310D01*
X3994862Y45250000D01*
X3191988Y45250000D01*
X3209205Y45259940D01*
X3265060Y45315795D01*
X3304556Y45384204D01*
X3325000Y45460504D01*
X3325000Y45539496D01*
X3304556Y45615796D01*
X3265060Y45684205D01*
X3209205Y45740060D01*
X3191988Y45750000D01*
X3994862Y45750000D01*
X5285138Y45750000D01*
X6088012Y45750000D01*
X6070795Y45740060D01*
X6014940Y45684205D01*
X5975444Y45615796D01*
X5955000Y45539496D01*
X5955000Y45460504D01*
X5975444Y45384204D01*
X6014940Y45315795D01*
X6070795Y45259940D01*
X6088012Y45250000D01*
X5285138Y45250000D01*
X5293430Y45208310D01*
X5293430Y45208308D01*
X5368807Y45026329D01*
X5368814Y45026316D01*
X5478248Y44862538D01*
X5478251Y44862534D01*
X5617533Y44723252D01*
X5617537Y44723249D01*
X5781315Y44613815D01*
X5781328Y44613808D01*
X5790838Y44609869D01*
X5845243Y44566030D01*
X5867310Y44499736D01*
X5850033Y44432037D01*
X5846350Y44426595D01*
X5768719Y44292137D01*
X5729500Y44145766D01*
X5729500Y43994234D01*
X5749109Y43921050D01*
X5768719Y43847864D01*
X5806602Y43782250D01*
X5844485Y43716635D01*
X5951635Y43609485D01*
X6082865Y43533719D01*
X6229234Y43494500D01*
X6229236Y43494500D01*
X6380764Y43494500D01*
X6380766Y43494500D01*
X6527135Y43533719D01*
X6658365Y43609485D01*
X6707727Y43658847D01*
X7724500Y43658847D01*
X7724500Y43501154D01*
X7755261Y43346511D01*
X7755264Y43346499D01*
X7815602Y43200828D01*
X7815609Y43200815D01*
X7903210Y43069712D01*
X7903213Y43069708D01*
X8014707Y42958214D01*
X8014711Y42958211D01*
X8145814Y42870610D01*
X8145827Y42870603D01*
X8291498Y42810265D01*
X8291503Y42810263D01*
X8446153Y42779501D01*
X8446156Y42779500D01*
X8446158Y42779500D01*
X8603844Y42779500D01*
X8603845Y42779501D01*
X8758497Y42810263D01*
X8904179Y42870606D01*
X9035289Y42958211D01*
X9146789Y43069711D01*
X9234394Y43200821D01*
X9294737Y43346503D01*
X9325500Y43501158D01*
X9325500Y43658842D01*
X9325500Y43658845D01*
X9325499Y43658847D01*
X9319422Y43689398D01*
X9294737Y43813497D01*
X9280502Y43847864D01*
X9234397Y43959173D01*
X9234390Y43959186D01*
X9146789Y44090289D01*
X9146786Y44090293D01*
X9035292Y44201787D01*
X9035288Y44201790D01*
X8904185Y44289391D01*
X8904172Y44289398D01*
X8758501Y44349736D01*
X8758489Y44349739D01*
X8603845Y44380500D01*
X8603842Y44380500D01*
X8446158Y44380500D01*
X8446155Y44380500D01*
X8291510Y44349739D01*
X8291498Y44349736D01*
X8145827Y44289398D01*
X8145814Y44289391D01*
X8014711Y44201790D01*
X8014707Y44201787D01*
X7903213Y44090293D01*
X7903210Y44090289D01*
X7815609Y43959186D01*
X7815602Y43959173D01*
X7755264Y43813502D01*
X7755261Y43813490D01*
X7724500Y43658847D01*
X6707727Y43658847D01*
X6765515Y43716635D01*
X6841281Y43847865D01*
X6880500Y43994234D01*
X6880500Y44145766D01*
X6841281Y44292135D01*
X6765515Y44423365D01*
X6658365Y44530515D01*
X6644654Y44538431D01*
X6616998Y44554399D01*
X6568784Y44604967D01*
X6555000Y44661785D01*
X6555000Y45200000D01*
X7055000Y45200000D01*
X7055000Y44500000D01*
X7453492Y44500000D01*
X7453495Y44500001D01*
X7646681Y44538428D01*
X7646693Y44538431D01*
X7828671Y44613808D01*
X7828684Y44613815D01*
X7992462Y44723249D01*
X7992466Y44723252D01*
X8131748Y44862534D01*
X8131751Y44862538D01*
X8241185Y45026316D01*
X8241192Y45026329D01*
X8316569Y45208308D01*
X8316569Y45208310D01*
X8324862Y45250000D01*
X7521988Y45250000D01*
X7539205Y45259940D01*
X7595060Y45315795D01*
X7634556Y45384204D01*
X7655000Y45460504D01*
X7655000Y45539496D01*
X7634556Y45615796D01*
X7595060Y45684205D01*
X7539205Y45740060D01*
X7521988Y45750000D01*
X8324862Y45750000D01*
X8316569Y45791691D01*
X8316569Y45791693D01*
X8241192Y45973672D01*
X8241185Y45973685D01*
X8131751Y46137463D01*
X8131748Y46137467D01*
X7992466Y46276749D01*
X7992462Y46276752D01*
X7828684Y46386186D01*
X7828671Y46386193D01*
X7646693Y46461570D01*
X7646681Y46461573D01*
X7453495Y46500000D01*
X7055000Y46500000D01*
X7055000Y45800000D01*
X6555000Y45800000D01*
X6555000Y46500000D01*
X6156504Y46500000D01*
X5963318Y46461573D01*
X5963306Y46461570D01*
X5781328Y46386193D01*
X5781315Y46386186D01*
X5617537Y46276752D01*
X5617533Y46276749D01*
X5478251Y46137467D01*
X5478248Y46137463D01*
X5368814Y45973685D01*
X5368807Y45973672D01*
X5293430Y45791693D01*
X5293430Y45791691D01*
X5285138Y45750000D01*
X3994862Y45750000D01*
X3986569Y45791691D01*
X3986569Y45791693D01*
X3911192Y45973672D01*
X3911185Y45973685D01*
X3801751Y46137463D01*
X3801748Y46137467D01*
X3662466Y46276749D01*
X3662462Y46276752D01*
X3498684Y46386186D01*
X3498671Y46386193D01*
X3316693Y46461570D01*
X3316681Y46461573D01*
X3123495Y46500000D01*
X2875000Y46500000D01*
X2875000Y45800000D01*
X2375000Y45800000D01*
X2375000Y46500000D01*
X2126504Y46500000D01*
X1933318Y46461573D01*
X1933306Y46461570D01*
X1751328Y46386193D01*
X1751315Y46386186D01*
X1587537Y46276752D01*
X1587533Y46276749D01*
X1448251Y46137467D01*
X1448248Y46137463D01*
X1338814Y45973685D01*
X1338807Y45973672D01*
X1263430Y45791693D01*
X1263430Y45791691D01*
X1255138Y45750000D01*
X500500Y45750000D01*
X500500Y47158847D01*
X15799500Y47158847D01*
X15799500Y47001154D01*
X15830261Y46846511D01*
X15830264Y46846499D01*
X15890602Y46700828D01*
X15890609Y46700815D01*
X15978210Y46569712D01*
X15978212Y46569709D01*
X15993345Y46554577D01*
X16026832Y46493255D01*
X16021849Y46423563D01*
X16005893Y46395824D01*
X16006595Y46395354D01*
X15915609Y46259186D01*
X15915602Y46259173D01*
X15855264Y46113502D01*
X15855261Y46113490D01*
X15824500Y45958847D01*
X15824500Y45801154D01*
X15855261Y45646511D01*
X15855264Y45646499D01*
X15915602Y45500828D01*
X15915609Y45500815D01*
X16003210Y45369712D01*
X16003213Y45369708D01*
X16114707Y45258214D01*
X16114711Y45258211D01*
X16245814Y45170610D01*
X16245827Y45170603D01*
X16391498Y45110265D01*
X16391503Y45110263D01*
X16546153Y45079501D01*
X16546156Y45079500D01*
X16546158Y45079500D01*
X16703844Y45079500D01*
X16703845Y45079501D01*
X16858497Y45110263D01*
X17004179Y45170606D01*
X17135289Y45258211D01*
X17246789Y45369711D01*
X17334394Y45500821D01*
X17394737Y45646503D01*
X17425500Y45801158D01*
X17425500Y45958842D01*
X17425500Y45958845D01*
X17425499Y45958847D01*
X17422550Y45973672D01*
X17394737Y46113497D01*
X17384810Y46137463D01*
X17334397Y46259173D01*
X17334390Y46259186D01*
X17246789Y46390289D01*
X17246787Y46390292D01*
X17231654Y46405424D01*
X17198167Y46466746D01*
X17203150Y46536438D01*
X17219111Y46564174D01*
X17218405Y46564646D01*
X17309390Y46700815D01*
X17309390Y46700816D01*
X17309394Y46700821D01*
X17369737Y46846503D01*
X17400500Y47001158D01*
X17400500Y47158842D01*
X17400500Y47158845D01*
X17400499Y47158847D01*
X17369738Y47313490D01*
X17369737Y47313497D01*
X17369735Y47313502D01*
X17309397Y47459173D01*
X17309390Y47459186D01*
X17221789Y47590289D01*
X17221786Y47590293D01*
X17110292Y47701787D01*
X17110288Y47701790D01*
X16979185Y47789391D01*
X16979172Y47789398D01*
X16833501Y47849736D01*
X16833489Y47849739D01*
X16678845Y47880500D01*
X16678842Y47880500D01*
X16521158Y47880500D01*
X16521155Y47880500D01*
X16366510Y47849739D01*
X16366498Y47849736D01*
X16220827Y47789398D01*
X16220814Y47789391D01*
X16089711Y47701790D01*
X16089707Y47701787D01*
X15978213Y47590293D01*
X15978210Y47590289D01*
X15890609Y47459186D01*
X15890602Y47459173D01*
X15830264Y47313502D01*
X15830261Y47313490D01*
X15799500Y47158847D01*
X500500Y47158847D01*
X500500Y50532298D01*
X520185Y50599337D01*
X572989Y50645092D01*
X642147Y50655036D01*
X648667Y50653920D01*
X705435Y50642628D01*
X721157Y50639500D01*
X721158Y50639500D01*
X878844Y50639500D01*
X878845Y50639501D01*
X1033497Y50670263D01*
X1179179Y50730606D01*
X1310289Y50818211D01*
X1421789Y50929711D01*
X1509394Y51060821D01*
X1537569Y51128842D01*
X1537571Y51128847D01*
X11169500Y51128847D01*
X11169500Y50971154D01*
X11200261Y50816511D01*
X11200264Y50816499D01*
X11260602Y50670828D01*
X11260609Y50670815D01*
X11348210Y50539712D01*
X11348213Y50539708D01*
X11459707Y50428214D01*
X11459711Y50428211D01*
X11590821Y50340606D01*
X11591338Y50340329D01*
X11591558Y50340113D01*
X11595886Y50337221D01*
X11595337Y50336401D01*
X11641186Y50291371D01*
X11656652Y50223234D01*
X11635995Y50162077D01*
X11580612Y50079191D01*
X11580602Y50079173D01*
X11520264Y49933502D01*
X11520261Y49933490D01*
X11489500Y49778847D01*
X11489500Y49621154D01*
X11520261Y49466511D01*
X11520264Y49466499D01*
X11580602Y49320828D01*
X11580609Y49320815D01*
X11668210Y49189712D01*
X11668213Y49189708D01*
X11779707Y49078214D01*
X11779711Y49078211D01*
X11910814Y48990610D01*
X11910827Y48990603D01*
X12032288Y48940293D01*
X12056503Y48930263D01*
X12211153Y48899501D01*
X12211156Y48899500D01*
X12227439Y48899500D01*
X12294478Y48879815D01*
X12340233Y48827011D01*
X12350177Y48757853D01*
X12342000Y48728048D01*
X12315264Y48663502D01*
X12315261Y48663490D01*
X12284500Y48508847D01*
X12284500Y48351154D01*
X12315261Y48196511D01*
X12315264Y48196499D01*
X12375602Y48050828D01*
X12375609Y48050815D01*
X12463210Y47919712D01*
X12463213Y47919708D01*
X12574707Y47808214D01*
X12574711Y47808211D01*
X12705814Y47720610D01*
X12705827Y47720603D01*
X12751254Y47701787D01*
X12851503Y47660263D01*
X13006153Y47629501D01*
X13006156Y47629500D01*
X13006158Y47629500D01*
X13163844Y47629500D01*
X13163845Y47629501D01*
X13318497Y47660263D01*
X13464179Y47720606D01*
X13595289Y47808211D01*
X13706789Y47919711D01*
X13794394Y48050821D01*
X13854737Y48196503D01*
X13885500Y48351158D01*
X13885500Y48508842D01*
X13885500Y48508845D01*
X13885499Y48508847D01*
X25574500Y48508847D01*
X25574500Y48351154D01*
X25605261Y48196511D01*
X25605264Y48196499D01*
X25665602Y48050828D01*
X25665609Y48050815D01*
X25753210Y47919712D01*
X25753213Y47919708D01*
X25805240Y47867681D01*
X25838725Y47806358D01*
X25833741Y47736666D01*
X25805240Y47692319D01*
X25753213Y47640293D01*
X25753210Y47640289D01*
X25665609Y47509186D01*
X25665602Y47509173D01*
X25605264Y47363502D01*
X25605261Y47363490D01*
X25574500Y47208847D01*
X25574500Y47051154D01*
X25605261Y46896511D01*
X25605264Y46896499D01*
X25665602Y46750828D01*
X25665609Y46750815D01*
X25753210Y46619712D01*
X25753213Y46619708D01*
X25864707Y46508214D01*
X25864711Y46508211D01*
X25995814Y46420610D01*
X25995827Y46420603D01*
X26141498Y46360265D01*
X26141503Y46360263D01*
X26296153Y46329501D01*
X26296156Y46329500D01*
X26296158Y46329500D01*
X26453844Y46329500D01*
X26453845Y46329501D01*
X26608497Y46360263D01*
X26754179Y46420606D01*
X26885289Y46508211D01*
X26996789Y46619711D01*
X27084394Y46750821D01*
X27144737Y46896503D01*
X27175500Y47051158D01*
X27175500Y47208842D01*
X27175500Y47208845D01*
X27175499Y47208847D01*
X27154684Y47313490D01*
X27144737Y47363497D01*
X27105102Y47459186D01*
X27084397Y47509173D01*
X27084390Y47509186D01*
X26996789Y47640289D01*
X26996786Y47640293D01*
X26944760Y47692319D01*
X26911275Y47753642D01*
X26916259Y47823334D01*
X26944760Y47867681D01*
X26996786Y47919708D01*
X26996789Y47919711D01*
X27084394Y48050821D01*
X27144737Y48196503D01*
X27175500Y48351158D01*
X27175500Y48508842D01*
X27175500Y48508845D01*
X27175499Y48508847D01*
X27144738Y48663490D01*
X27144737Y48663497D01*
X27144735Y48663502D01*
X27084397Y48809173D01*
X27084390Y48809186D01*
X26996789Y48940289D01*
X26996786Y48940293D01*
X26885292Y49051787D01*
X26885288Y49051790D01*
X26754185Y49139391D01*
X26754172Y49139398D01*
X26608501Y49199736D01*
X26608489Y49199739D01*
X26453845Y49230500D01*
X26453842Y49230500D01*
X26296158Y49230500D01*
X26296155Y49230500D01*
X26141510Y49199739D01*
X26141498Y49199736D01*
X25995827Y49139398D01*
X25995814Y49139391D01*
X25864711Y49051790D01*
X25864707Y49051787D01*
X25753213Y48940293D01*
X25753210Y48940289D01*
X25665609Y48809186D01*
X25665602Y48809173D01*
X25605264Y48663502D01*
X25605261Y48663490D01*
X25574500Y48508847D01*
X13885499Y48508847D01*
X13854738Y48663490D01*
X13854737Y48663497D01*
X13854735Y48663502D01*
X13794397Y48809173D01*
X13794390Y48809186D01*
X13706789Y48940289D01*
X13706786Y48940293D01*
X13595292Y49051787D01*
X13595288Y49051790D01*
X13464185Y49139391D01*
X13464172Y49139398D01*
X13318501Y49199736D01*
X13318489Y49199739D01*
X13163845Y49230500D01*
X13163842Y49230500D01*
X13147561Y49230500D01*
X13080522Y49250185D01*
X13034767Y49302989D01*
X13024823Y49372147D01*
X13033000Y49401952D01*
X13059735Y49466499D01*
X13059737Y49466503D01*
X13090500Y49621158D01*
X13090500Y49778842D01*
X13090500Y49778845D01*
X13090499Y49778847D01*
X13059738Y49933490D01*
X13059737Y49933497D01*
X13059735Y49933502D01*
X12999397Y50079173D01*
X12999390Y50079186D01*
X12911789Y50210289D01*
X12911786Y50210293D01*
X12800292Y50321787D01*
X12800288Y50321790D01*
X12669181Y50409394D01*
X12668654Y50409675D01*
X12668429Y50409896D01*
X12664114Y50412779D01*
X12664660Y50413598D01*
X12618809Y50458637D01*
X12603348Y50526775D01*
X12624002Y50587923D01*
X12679394Y50670821D01*
X12739737Y50816503D01*
X12770500Y50971158D01*
X12770500Y51058847D01*
X25274500Y51058847D01*
X25274500Y50901154D01*
X25305261Y50746511D01*
X25305264Y50746499D01*
X25365602Y50600828D01*
X25365609Y50600815D01*
X25453210Y50469712D01*
X25453213Y50469708D01*
X25564707Y50358214D01*
X25564711Y50358211D01*
X25695814Y50270610D01*
X25695827Y50270603D01*
X25841440Y50210289D01*
X25841503Y50210263D01*
X25996153Y50179501D01*
X25996156Y50179500D01*
X25996158Y50179500D01*
X26153844Y50179500D01*
X26153845Y50179501D01*
X26308497Y50210263D01*
X26454179Y50270606D01*
X26585289Y50358211D01*
X26696789Y50469711D01*
X26784394Y50600821D01*
X26844737Y50746503D01*
X26875500Y50901158D01*
X26875500Y51058842D01*
X26875500Y51058845D01*
X26875499Y51058847D01*
X26861575Y51128847D01*
X26844737Y51213497D01*
X26815745Y51283490D01*
X26784397Y51359173D01*
X26784390Y51359186D01*
X26696789Y51490289D01*
X26696786Y51490293D01*
X26585292Y51601787D01*
X26585288Y51601790D01*
X26454185Y51689391D01*
X26454172Y51689398D01*
X26308501Y51749736D01*
X26308489Y51749739D01*
X26153845Y51780500D01*
X26153842Y51780500D01*
X25996158Y51780500D01*
X25996155Y51780500D01*
X25841510Y51749739D01*
X25841498Y51749736D01*
X25695827Y51689398D01*
X25695814Y51689391D01*
X25564711Y51601790D01*
X25564707Y51601787D01*
X25453213Y51490293D01*
X25453210Y51490289D01*
X25365609Y51359186D01*
X25365602Y51359173D01*
X25305264Y51213502D01*
X25305261Y51213490D01*
X25274500Y51058847D01*
X12770500Y51058847D01*
X12770500Y51128842D01*
X12770500Y51128845D01*
X12770499Y51128847D01*
X12755051Y51206508D01*
X12739737Y51283497D01*
X12739735Y51283502D01*
X12679397Y51429173D01*
X12679390Y51429186D01*
X12591789Y51560289D01*
X12591786Y51560293D01*
X12480292Y51671787D01*
X12480288Y51671790D01*
X12349185Y51759391D01*
X12349172Y51759398D01*
X12203501Y51819736D01*
X12203489Y51819739D01*
X12048845Y51850500D01*
X12048842Y51850500D01*
X11891158Y51850500D01*
X11891155Y51850500D01*
X11736510Y51819739D01*
X11736498Y51819736D01*
X11590827Y51759398D01*
X11590814Y51759391D01*
X11459711Y51671790D01*
X11459707Y51671787D01*
X11348213Y51560293D01*
X11348210Y51560289D01*
X11260609Y51429186D01*
X11260602Y51429173D01*
X11200264Y51283502D01*
X11200261Y51283490D01*
X11169500Y51128847D01*
X1537571Y51128847D01*
X1559745Y51182379D01*
X1559747Y51182386D01*
X1569737Y51206503D01*
X1600500Y51361158D01*
X1600500Y51518842D01*
X1600500Y51518845D01*
X1600499Y51518847D01*
X1592255Y51560293D01*
X1569737Y51673497D01*
X1534156Y51759398D01*
X1509397Y51819173D01*
X1509390Y51819186D01*
X1421789Y51950289D01*
X1421786Y51950293D01*
X1310292Y52061787D01*
X1310288Y52061790D01*
X1179185Y52149391D01*
X1179172Y52149398D01*
X1033501Y52209736D01*
X1033489Y52209739D01*
X878845Y52240500D01*
X878842Y52240500D01*
X721158Y52240500D01*
X721155Y52240500D01*
X648691Y52226086D01*
X579100Y52232313D01*
X523922Y52275176D01*
X500678Y52341066D01*
X500500Y52347703D01*
X500500Y52362097D01*
X8540284Y52362097D01*
X8540284Y52204404D01*
X8571045Y52049761D01*
X8571048Y52049749D01*
X8631386Y51904078D01*
X8631393Y51904065D01*
X8718994Y51772962D01*
X8718997Y51772958D01*
X8830491Y51661464D01*
X8830495Y51661461D01*
X8961598Y51573860D01*
X8961611Y51573853D01*
X9107282Y51513515D01*
X9107287Y51513513D01*
X9261937Y51482751D01*
X9261940Y51482750D01*
X9261942Y51482750D01*
X9419628Y51482750D01*
X9419629Y51482751D01*
X9574281Y51513513D01*
X9719963Y51573856D01*
X9851073Y51661461D01*
X9962573Y51772961D01*
X10050178Y51904071D01*
X10110521Y52049753D01*
X10141284Y52204408D01*
X10141284Y52362092D01*
X10141284Y52362095D01*
X10141283Y52362097D01*
X10110522Y52516740D01*
X10110521Y52516747D01*
X10110519Y52516752D01*
X10050181Y52662423D01*
X10050174Y52662436D01*
X9962573Y52793539D01*
X9962570Y52793543D01*
X9851076Y52905037D01*
X9851072Y52905040D01*
X9719969Y52992641D01*
X9719956Y52992648D01*
X9574285Y53052986D01*
X9574273Y53052989D01*
X9419629Y53083750D01*
X9419626Y53083750D01*
X9261942Y53083750D01*
X9261939Y53083750D01*
X9107294Y53052989D01*
X9107282Y53052986D01*
X8961611Y52992648D01*
X8961598Y52992641D01*
X8830495Y52905040D01*
X8830491Y52905037D01*
X8718997Y52793543D01*
X8718994Y52793539D01*
X8631393Y52662436D01*
X8631386Y52662423D01*
X8571048Y52516752D01*
X8571045Y52516740D01*
X8540284Y52362097D01*
X500500Y52362097D01*
X500500Y53618847D01*
X3859500Y53618847D01*
X3859500Y53461154D01*
X3890261Y53306511D01*
X3890264Y53306499D01*
X3950602Y53160828D01*
X3950609Y53160815D01*
X4038210Y53029712D01*
X4038213Y53029708D01*
X4149707Y52918214D01*
X4149711Y52918211D01*
X4280814Y52830610D01*
X4280827Y52830603D01*
X4370309Y52793539D01*
X4426503Y52770263D01*
X4577312Y52740265D01*
X4581153Y52739501D01*
X4581156Y52739500D01*
X4581158Y52739500D01*
X4738844Y52739500D01*
X4738845Y52739501D01*
X4893497Y52770263D01*
X5006166Y52816933D01*
X5039172Y52830603D01*
X5039172Y52830604D01*
X5039179Y52830606D01*
X5170289Y52918211D01*
X5281789Y53029711D01*
X5369394Y53160821D01*
X5429737Y53306503D01*
X5460500Y53461158D01*
X5460500Y53618842D01*
X5460500Y53618845D01*
X5460499Y53618847D01*
X5429737Y53773497D01*
X5381823Y53889173D01*
X5369397Y53919173D01*
X5369390Y53919186D01*
X5281789Y54050289D01*
X5281786Y54050293D01*
X5170292Y54161787D01*
X5170288Y54161790D01*
X5039185Y54249391D01*
X5039172Y54249398D01*
X4893501Y54309736D01*
X4893489Y54309739D01*
X4738845Y54340500D01*
X4738842Y54340500D01*
X4581158Y54340500D01*
X4581155Y54340500D01*
X4426510Y54309739D01*
X4426498Y54309736D01*
X4280827Y54249398D01*
X4280814Y54249391D01*
X4149711Y54161790D01*
X4149707Y54161787D01*
X4038213Y54050293D01*
X4038210Y54050289D01*
X3950609Y53919186D01*
X3950602Y53919173D01*
X3890264Y53773502D01*
X3890261Y53773490D01*
X3859500Y53618847D01*
X500500Y53618847D01*
X500500Y54858847D01*
X11199500Y54858847D01*
X11199500Y54701154D01*
X11230261Y54546511D01*
X11230264Y54546499D01*
X11290602Y54400828D01*
X11290609Y54400815D01*
X11378210Y54269712D01*
X11378213Y54269708D01*
X11489707Y54158214D01*
X11494419Y54154347D01*
X11493405Y54153112D01*
X11533236Y54105465D01*
X11541953Y54036141D01*
X11522650Y53987070D01*
X11470608Y53909184D01*
X11470602Y53909173D01*
X11410264Y53763502D01*
X11410261Y53763490D01*
X11379500Y53608847D01*
X11379500Y53451154D01*
X11410261Y53296511D01*
X11410264Y53296499D01*
X11470602Y53150828D01*
X11470609Y53150815D01*
X11558210Y53019712D01*
X11558213Y53019708D01*
X11669707Y52908214D01*
X11669711Y52908211D01*
X11800814Y52820610D01*
X11800827Y52820603D01*
X11922363Y52770262D01*
X11946503Y52760263D01*
X12101153Y52729501D01*
X12101156Y52729500D01*
X12101158Y52729500D01*
X12258844Y52729500D01*
X12258845Y52729501D01*
X12413497Y52760263D01*
X12559179Y52820606D01*
X12690289Y52908211D01*
X12801789Y53019711D01*
X12889394Y53150821D01*
X12949737Y53296503D01*
X12980500Y53451158D01*
X12980500Y53608842D01*
X12980500Y53608845D01*
X12980499Y53608847D01*
X12978510Y53618847D01*
X12949737Y53763497D01*
X12897681Y53889173D01*
X12889397Y53909173D01*
X12889390Y53909186D01*
X12801789Y54040289D01*
X12801786Y54040293D01*
X12690292Y54151787D01*
X12685581Y54155653D01*
X12686593Y54156887D01*
X12646760Y54204543D01*
X12638047Y54273867D01*
X12657350Y54322932D01*
X12709394Y54400821D01*
X12769737Y54546503D01*
X12800500Y54701158D01*
X12800500Y54858842D01*
X12800500Y54858845D01*
X12794155Y54890742D01*
X12794155Y54890743D01*
X12790554Y54908847D01*
X24759500Y54908847D01*
X24759500Y54751154D01*
X24790261Y54596511D01*
X24790264Y54596499D01*
X24850602Y54450828D01*
X24850609Y54450815D01*
X24938210Y54319712D01*
X24938213Y54319708D01*
X25049707Y54208214D01*
X25049711Y54208211D01*
X25180814Y54120610D01*
X25180827Y54120603D01*
X25326498Y54060265D01*
X25326503Y54060263D01*
X25447772Y54036141D01*
X25481153Y54029501D01*
X25481156Y54029500D01*
X25481158Y54029500D01*
X25638843Y54029500D01*
X25640034Y54029737D01*
X25640671Y54029680D01*
X25644907Y54030097D01*
X25644986Y54029295D01*
X25709626Y54023515D01*
X25764807Y53980657D01*
X25788057Y53914769D01*
X25778797Y53860670D01*
X25730263Y53743497D01*
X25730262Y53743494D01*
X25730262Y53743493D01*
X25730261Y53743490D01*
X25699500Y53588847D01*
X25699500Y53431154D01*
X25730261Y53276511D01*
X25730264Y53276499D01*
X25790602Y53130828D01*
X25790609Y53130815D01*
X25878210Y52999712D01*
X25878213Y52999708D01*
X25989707Y52888214D01*
X25989711Y52888211D01*
X26120814Y52800610D01*
X26120827Y52800603D01*
X26266498Y52740265D01*
X26266503Y52740263D01*
X26421153Y52709501D01*
X26421156Y52709500D01*
X26421158Y52709500D01*
X26578844Y52709500D01*
X26578845Y52709501D01*
X26733497Y52740263D01*
X26879179Y52800606D01*
X27010289Y52888211D01*
X27121789Y52999711D01*
X27209394Y53130821D01*
X27269737Y53276503D01*
X27300500Y53431158D01*
X27300500Y53588842D01*
X27300500Y53588845D01*
X27300499Y53588847D01*
X27269738Y53743490D01*
X27269737Y53743497D01*
X27221203Y53860670D01*
X27209397Y53889173D01*
X27209390Y53889186D01*
X27121789Y54020289D01*
X27121786Y54020293D01*
X27010292Y54131787D01*
X27010288Y54131790D01*
X26879185Y54219391D01*
X26879172Y54219398D01*
X26733501Y54279736D01*
X26733489Y54279739D01*
X26578845Y54310500D01*
X26578842Y54310500D01*
X26421158Y54310500D01*
X26421150Y54310500D01*
X26419946Y54310260D01*
X26419303Y54310318D01*
X26415093Y54309903D01*
X26415014Y54310702D01*
X26350354Y54316493D01*
X26295181Y54359360D01*
X26271941Y54425252D01*
X26281202Y54479330D01*
X26329737Y54596503D01*
X26360500Y54751158D01*
X26360500Y54908842D01*
X26360500Y54908845D01*
X26360499Y54908847D01*
X26339684Y55013490D01*
X26329737Y55063497D01*
X26290572Y55158049D01*
X26283104Y55227517D01*
X26314379Y55289996D01*
X26374468Y55325648D01*
X26405134Y55329500D01*
X26528844Y55329500D01*
X26528845Y55329501D01*
X26683497Y55360263D01*
X26829179Y55420606D01*
X26960289Y55508211D01*
X27071789Y55619711D01*
X27159394Y55750821D01*
X27219737Y55896503D01*
X27250500Y56051158D01*
X27250500Y56208842D01*
X27250500Y56208845D01*
X27250499Y56208847D01*
X27242193Y56250603D01*
X27219737Y56363497D01*
X27184028Y56449708D01*
X27159397Y56509173D01*
X27159390Y56509186D01*
X27071789Y56640289D01*
X27071786Y56640293D01*
X26960292Y56751787D01*
X26960288Y56751790D01*
X26829185Y56839391D01*
X26829172Y56839398D01*
X26683501Y56899736D01*
X26683489Y56899739D01*
X26528845Y56930500D01*
X26528842Y56930500D01*
X26371158Y56930500D01*
X26371155Y56930500D01*
X26216510Y56899739D01*
X26216498Y56899736D01*
X26070827Y56839398D01*
X26070814Y56839391D01*
X25939711Y56751790D01*
X25939707Y56751787D01*
X25828213Y56640293D01*
X25828210Y56640289D01*
X25740609Y56509186D01*
X25740602Y56509173D01*
X25680264Y56363502D01*
X25680261Y56363490D01*
X25649500Y56208847D01*
X25649500Y56051154D01*
X25680261Y55896511D01*
X25680263Y55896503D01*
X25719427Y55801953D01*
X25726896Y55732483D01*
X25695621Y55670004D01*
X25635532Y55634352D01*
X25604866Y55630500D01*
X25481155Y55630500D01*
X25326510Y55599739D01*
X25326498Y55599736D01*
X25180827Y55539398D01*
X25180814Y55539391D01*
X25049711Y55451790D01*
X25049707Y55451787D01*
X24938213Y55340293D01*
X24938210Y55340289D01*
X24850609Y55209186D01*
X24850602Y55209173D01*
X24790264Y55063502D01*
X24790261Y55063490D01*
X24759500Y54908847D01*
X12790554Y54908847D01*
X12769738Y55013490D01*
X12769737Y55013497D01*
X12769735Y55013502D01*
X12709397Y55159173D01*
X12709390Y55159186D01*
X12621789Y55290289D01*
X12621786Y55290293D01*
X12510292Y55401787D01*
X12510288Y55401790D01*
X12379185Y55489391D01*
X12379172Y55489398D01*
X12233501Y55549736D01*
X12233489Y55549739D01*
X12078845Y55580500D01*
X12078842Y55580500D01*
X11921158Y55580500D01*
X11921155Y55580500D01*
X11766510Y55549739D01*
X11766498Y55549736D01*
X11620827Y55489398D01*
X11620814Y55489391D01*
X11489711Y55401790D01*
X11489707Y55401787D01*
X11378213Y55290293D01*
X11378210Y55290289D01*
X11290609Y55159186D01*
X11290602Y55159173D01*
X11230264Y55013502D01*
X11230261Y55013490D01*
X11199500Y54858847D01*
X500500Y54858847D01*
X500500Y57038847D01*
X3689500Y57038847D01*
X3689500Y56881154D01*
X3720261Y56726511D01*
X3720264Y56726499D01*
X3780602Y56580828D01*
X3780609Y56580815D01*
X3868210Y56449712D01*
X3868213Y56449708D01*
X3979707Y56338214D01*
X3979711Y56338211D01*
X4110814Y56250610D01*
X4110827Y56250603D01*
X4256498Y56190265D01*
X4256503Y56190263D01*
X4411153Y56159501D01*
X4411156Y56159500D01*
X4411158Y56159500D01*
X4568844Y56159500D01*
X4568845Y56159501D01*
X4723497Y56190263D01*
X4869179Y56250606D01*
X5000289Y56338211D01*
X5111789Y56449711D01*
X5199394Y56580821D01*
X5259737Y56726503D01*
X5290500Y56881158D01*
X5290500Y57038842D01*
X5290500Y57038845D01*
X5290499Y57038847D01*
X5261794Y57183154D01*
X5259737Y57193497D01*
X5199394Y57339179D01*
X5199390Y57339186D01*
X5198280Y57340847D01*
X20399500Y57340847D01*
X20399500Y57183154D01*
X20430261Y57028511D01*
X20430264Y57028499D01*
X20490602Y56882828D01*
X20490609Y56882815D01*
X20578210Y56751712D01*
X20578213Y56751708D01*
X20689707Y56640214D01*
X20689711Y56640211D01*
X20820814Y56552610D01*
X20820827Y56552603D01*
X20925678Y56509173D01*
X20966503Y56492263D01*
X21121153Y56461501D01*
X21121156Y56461500D01*
X21121158Y56461500D01*
X21278844Y56461500D01*
X21278845Y56461501D01*
X21433497Y56492263D01*
X21579179Y56552606D01*
X21710289Y56640211D01*
X21821789Y56751711D01*
X21840410Y56779581D01*
X21894020Y56824386D01*
X21963345Y56833095D01*
X22026373Y56802942D01*
X22046615Y56779582D01*
X22053210Y56769712D01*
X22053213Y56769708D01*
X22164707Y56658214D01*
X22164711Y56658211D01*
X22295814Y56570610D01*
X22295827Y56570603D01*
X22441498Y56510265D01*
X22441503Y56510263D01*
X22532000Y56492262D01*
X22596153Y56479501D01*
X22596156Y56479500D01*
X22596158Y56479500D01*
X22753844Y56479500D01*
X22753845Y56479501D01*
X22908497Y56510263D01*
X23054179Y56570606D01*
X23185289Y56658211D01*
X23296789Y56769711D01*
X23384394Y56900821D01*
X23444737Y57046503D01*
X23475500Y57201158D01*
X23475500Y57358842D01*
X23475500Y57358845D01*
X23475499Y57358847D01*
X23444737Y57513497D01*
X23416450Y57581789D01*
X23384397Y57659173D01*
X23384390Y57659186D01*
X23296789Y57790289D01*
X23296786Y57790293D01*
X23185292Y57901787D01*
X23185288Y57901790D01*
X23054185Y57989391D01*
X23054172Y57989398D01*
X22908501Y58049736D01*
X22908489Y58049739D01*
X22753845Y58080500D01*
X22753842Y58080500D01*
X22596158Y58080500D01*
X22596155Y58080500D01*
X22441510Y58049739D01*
X22441498Y58049736D01*
X22295827Y57989398D01*
X22295814Y57989391D01*
X22164711Y57901790D01*
X22164707Y57901787D01*
X22053213Y57790293D01*
X22053208Y57790287D01*
X22034587Y57762418D01*
X21980975Y57717614D01*
X21911650Y57708907D01*
X21848622Y57739062D01*
X21828383Y57762420D01*
X21821787Y57772292D01*
X21710292Y57883787D01*
X21710288Y57883790D01*
X21579185Y57971391D01*
X21579172Y57971398D01*
X21433501Y58031736D01*
X21433489Y58031739D01*
X21278845Y58062500D01*
X21278842Y58062500D01*
X21121158Y58062500D01*
X21121155Y58062500D01*
X20966510Y58031739D01*
X20966498Y58031736D01*
X20820827Y57971398D01*
X20820814Y57971391D01*
X20689711Y57883790D01*
X20689707Y57883787D01*
X20578213Y57772293D01*
X20578210Y57772289D01*
X20490609Y57641186D01*
X20490602Y57641173D01*
X20430264Y57495502D01*
X20430261Y57495490D01*
X20399500Y57340847D01*
X5198280Y57340847D01*
X5111789Y57470289D01*
X5111786Y57470293D01*
X5000292Y57581787D01*
X5000288Y57581790D01*
X4869185Y57669391D01*
X4869172Y57669398D01*
X4723501Y57729736D01*
X4723489Y57729739D01*
X4568845Y57760500D01*
X4568842Y57760500D01*
X4411158Y57760500D01*
X4411155Y57760500D01*
X4256510Y57729739D01*
X4256498Y57729736D01*
X4110827Y57669398D01*
X4110814Y57669391D01*
X3979711Y57581790D01*
X3979707Y57581787D01*
X3868213Y57470293D01*
X3868210Y57470289D01*
X3780609Y57339186D01*
X3780602Y57339173D01*
X3720264Y57193502D01*
X3720261Y57193490D01*
X3689500Y57038847D01*
X500500Y57038847D01*
X500500Y59355500D01*
X520185Y59422539D01*
X572989Y59468294D01*
X624500Y59479500D01*
X29375500Y59479500D01*
X29442539Y59459815D01*
G37*
%TD.AperFunction*%
%TD*%
M02*
