%TF.GenerationSoftware,KiCad,Pcbnew,9.0.7*%
%TF.CreationDate,2026-02-14T10:03:08+01:00*%
%TF.ProjectId,horsesense,686f7273-6573-4656-9e73-652e6b696361,1.0*%
%TF.SameCoordinates,Original*%
%TF.FileFunction,Copper,L3,Inr*%
%TF.FilePolarity,Positive*%
%FSLAX46Y46*%
G04 Gerber Fmt 4.6, Leading zero omitted, Abs format (unit mm)*
G04 Created by KiCad (PCBNEW 9.0.7) date 2026-02-14 10:03:08*
%MOMM*%
%LPD*%
G01*
G04 APERTURE LIST*
%TA.AperFunction,HeatsinkPad*%
%ADD10C,0.600000*%
%TD*%
%TA.AperFunction,ComponentPad*%
%ADD11C,0.254000*%
%TD*%
%TA.AperFunction,ComponentPad*%
%ADD12R,1.000000X1.000000*%
%TD*%
%TA.AperFunction,ComponentPad*%
%ADD13C,1.000000*%
%TD*%
%TA.AperFunction,HeatsinkPad*%
%ADD14C,0.500000*%
%TD*%
%TA.AperFunction,HeatsinkPad*%
%ADD15O,2.100000X1.000000*%
%TD*%
%TA.AperFunction,HeatsinkPad*%
%ADD16O,1.800000X1.000000*%
%TD*%
%TA.AperFunction,ViaPad*%
%ADD17C,0.600000*%
%TD*%
%TA.AperFunction,Conductor*%
%ADD18C,0.200000*%
%TD*%
G04 APERTURE END LIST*
D10*
%TO.N,GND*%
%TO.C,U9*%
X16550000Y51570000D03*
X16550000Y50170000D03*
X17250000Y52270000D03*
X17250000Y50870000D03*
X17250000Y49470000D03*
X17950000Y51570000D03*
X17950000Y50170000D03*
X18650000Y52270000D03*
X18650000Y50870000D03*
X18650000Y49470000D03*
X19350000Y51570000D03*
X19350000Y50170000D03*
%TD*%
D11*
%TO.N,MAX_INT_1_8*%
%TO.C,U1*%
X18175000Y31580000D03*
%TO.N,GPIO1*%
X18575000Y31580000D03*
%TD*%
D12*
%TO.N,+3.3V*%
%TO.C,J4*%
X1940000Y30695000D03*
D13*
%TO.N,Net-(J4-Pin_2)*%
X1940000Y31965000D03*
%TO.N,Net-(J4-Pin_3)*%
X1940000Y33235000D03*
%TO.N,GND*%
X1940000Y34505000D03*
%TD*%
D14*
%TO.N,GND*%
%TO.C,U3*%
X13440000Y4177500D03*
X14540000Y4177500D03*
X15640000Y4177500D03*
X13440000Y5277500D03*
X14540000Y5277500D03*
X15640000Y5277500D03*
X13440000Y6377500D03*
X14540000Y6377500D03*
X15640000Y6377500D03*
%TD*%
D15*
%TO.N,GND*%
%TO.C,J1*%
X6805000Y45500000D03*
D16*
X2625000Y45500000D03*
D15*
X6805000Y36860000D03*
D16*
X2625000Y36860000D03*
%TD*%
D17*
%TO.N,+3.3V*%
X20890000Y16290000D03*
X4490000Y56960000D03*
X12263415Y32766585D03*
X20990000Y22480000D03*
X21050000Y19380000D03*
X2900000Y27105000D03*
X26525000Y12630000D03*
X7260000Y34010000D03*
X20325000Y37105000D03*
X26975000Y15855000D03*
X15575000Y39180000D03*
X1570000Y11155000D03*
X4660000Y53540000D03*
%TO.N,GND*%
X13110000Y36980000D03*
X24175000Y1555000D03*
X13700000Y39180000D03*
X9960000Y1481000D03*
X5070000Y1481000D03*
X12390000Y58630000D03*
X18361793Y29893207D03*
X26900000Y58690000D03*
X4390000Y50550000D03*
X1800000Y12380000D03*
X4740000Y12270000D03*
X19475000Y36530000D03*
X8312409Y33363938D03*
X21875000Y25680000D03*
X14850000Y43505000D03*
X11360000Y10360000D03*
X8136500Y22655000D03*
X18620000Y9000000D03*
X1570000Y27290000D03*
X21225000Y6880000D03*
X1750000Y24080000D03*
X19300000Y12580000D03*
X27950000Y12805000D03*
X12700000Y28855000D03*
X6670000Y19610000D03*
X7000000Y26282500D03*
X4949931Y28984147D03*
X18300000Y1181000D03*
X18550000Y22980000D03*
X2630000Y21080000D03*
X3840000Y7170000D03*
X20925000Y27680000D03*
X14625000Y28780000D03*
X23100000Y17480000D03*
X4430000Y58860000D03*
X24391393Y13638607D03*
X23200000Y21480000D03*
X27490000Y36300000D03*
X4861765Y35008000D03*
X8100000Y54290000D03*
X2440000Y1940000D03*
X26750000Y29880000D03*
X23200000Y23255000D03*
X19900000Y13255000D03*
X12280000Y7700000D03*
X23100000Y19380000D03*
%TO.N,+1.8V*%
X19025000Y27630000D03*
X14650000Y36955000D03*
X24925000Y37105000D03*
%TO.N,VBUS*%
X12790000Y780000D03*
X8301000Y38830000D03*
X8650000Y43455000D03*
%TO.N,+BATT*%
X22724265Y9005735D03*
X16570000Y8990000D03*
%TO.N,Net-(U3-REGN)*%
X8100000Y2510000D03*
X19725000Y780000D03*
%TO.N,Vsys*%
X12420000Y9120000D03*
X5290000Y3750000D03*
X7160000Y6160000D03*
X29200000Y30950000D03*
%TO.N,Net-(IC1-PON)*%
X6310000Y18100000D03*
X1570000Y21080000D03*
%TO.N,SDA*%
X18925000Y1955000D03*
X12290000Y49700000D03*
X6550000Y14780000D03*
X10817515Y35312485D03*
%TO.N,SCL*%
X8500000Y10005000D03*
X11254251Y34050749D03*
X13085000Y48430000D03*
X15125000Y2440000D03*
%TO.N,MAX_INT*%
X20475000Y39405000D03*
X14600000Y39205000D03*
%TO.N,Net-(U9-IO0)*%
X800000Y51440000D03*
X24700000Y57262000D03*
%TO.N,MAX_CS_1_8*%
X16825000Y35055000D03*
X20203067Y34931994D03*
%TO.N,MAX_SCLK_1_8*%
X19013235Y34331994D03*
X16902354Y34258749D03*
%TO.N,INT_BAT*%
X27675000Y9230000D03*
X26450000Y56130000D03*
%TO.N,CE_BAT*%
X17450000Y5020000D03*
X12709000Y38772423D03*
%TO.N,PSEL_BAT*%
X12530000Y2440000D03*
X12000000Y54780000D03*
%TO.N,MAX_INT_1_8*%
X20325000Y35880000D03*
%TO.N,ICM_FSYNC*%
X5956886Y29286713D03*
X12180000Y53530000D03*
%TO.N,GPS_TX*%
X13900000Y45880000D03*
X21400000Y13980000D03*
%TO.N,ICM_INT2*%
X8238221Y34206000D03*
X11970000Y51050000D03*
%TO.N,GPS_RST*%
X25010000Y28530000D03*
X26375000Y48430000D03*
%TO.N,ICM_INT*%
X9340784Y52283250D03*
X2750000Y35680000D03*
%TO.N,GPS_PP1*%
X26075000Y50980000D03*
X23625000Y14005000D03*
%TO.N,FLASH_SCLK*%
X24975710Y15666588D03*
X21951316Y42830000D03*
%TO.N,GPS_SEL*%
X10125000Y11130000D03*
X26375000Y47130000D03*
%TO.N,Net-(J4-Pin_3)*%
X26500000Y53510000D03*
%TO.N,GPS_RX*%
X13900000Y47080000D03*
X22584070Y13930000D03*
%TO.N,ICM_AD0*%
X26440000Y57310000D03*
X3525735Y35429265D03*
%TO.N,Net-(J4-Pin_2)*%
X25560000Y54830000D03*
%TO.N,GPS_FIX*%
X27149007Y38794951D03*
X26475000Y14180000D03*
%TO.N,Net-(U1-PD2_IN)*%
X18025000Y27255000D03*
X19925000Y29955000D03*
%TO.N,Net-(D2-RK)*%
X13620579Y30961000D03*
%TO.N,Net-(D1-K)*%
X13475000Y23530000D03*
%TO.N,Net-(IC1-VCC)*%
X6890000Y16980000D03*
X3220000Y21750000D03*
%TO.N,Net-(U1-PD1_IN)*%
X16200000Y21480000D03*
%TO.N,PD_GND*%
X19775000Y23930000D03*
%TO.N,FLASH_SID0*%
X21215735Y42325735D03*
X24175827Y15680418D03*
%TO.N,FLASH_SID3*%
X25775000Y15632821D03*
X22352316Y43522243D03*
%TO.N,FLASH_CS*%
X27350000Y27581438D03*
X24738000Y38180000D03*
%TO.N,FLASH_SID1*%
X25550000Y38755000D03*
X27104000Y28380735D03*
%TO.N,FLASH_SID2*%
X25980000Y26430000D03*
X26350003Y38755000D03*
%TO.N,+3.3V_LED*%
X12675000Y24505000D03*
X13625000Y29730000D03*
X14231885Y32655999D03*
X16075000Y11730000D03*
X16344496Y32762087D03*
X14350000Y14130000D03*
X16375000Y16330000D03*
X13400000Y22580000D03*
X16486765Y30955000D03*
%TO.N,Net-(D2-GK)*%
X11200003Y24630000D03*
X15600000Y17180000D03*
X10978456Y27657058D03*
X16450000Y29730000D03*
%TO.N,Net-(D2-BK)*%
X11749899Y31211001D03*
%TO.N,Net-(D3-RK)*%
X7138883Y27070353D03*
X13525000Y16280000D03*
X10350000Y21691027D03*
%TO.N,Net-(D3-BK)*%
X15025000Y13480000D03*
%TO.N,GPIO1*%
X15350000Y34655000D03*
X11064975Y28452369D03*
X10600003Y23752732D03*
%TD*%
D18*
%TO.N,Net-(D2-GK)*%
X10978456Y27657058D02*
X10978456Y24851547D01*
X10978456Y24851547D02*
X11200003Y24630000D01*
%TO.N,GPIO1*%
X10397369Y28452369D02*
X10377456Y28432456D01*
X10377456Y28432456D02*
X10377456Y23975279D01*
X11064975Y28452369D02*
X10397369Y28452369D01*
X10377456Y23975279D02*
X10600003Y23752732D01*
%TD*%
%TA.AperFunction,Conductor*%
%TO.N,Vsys*%
G36*
X7841536Y9990402D02*
G01*
X7908127Y9969266D01*
X7952723Y9915480D01*
X7958607Y9898538D01*
X7982465Y9809500D01*
X7987017Y9792512D01*
X8059488Y9666989D01*
X8059490Y9666987D01*
X8059491Y9666985D01*
X8161985Y9564491D01*
X8161986Y9564490D01*
X8161988Y9564489D01*
X8287511Y9492018D01*
X8287512Y9492018D01*
X8287515Y9492016D01*
X8427525Y9454500D01*
X8427528Y9454500D01*
X8572472Y9454500D01*
X8572475Y9454500D01*
X8712485Y9492016D01*
X8838015Y9564491D01*
X8940509Y9666985D01*
X9012984Y9792515D01*
X9038956Y9889445D01*
X9075320Y9949103D01*
X9138167Y9979632D01*
X9158520Y9981349D01*
X10905759Y9984158D01*
X10972828Y9964581D01*
X10993637Y9947839D01*
X11021985Y9919491D01*
X11021986Y9919490D01*
X11021988Y9919489D01*
X11147511Y9847018D01*
X11147512Y9847018D01*
X11147515Y9847016D01*
X11287525Y9809500D01*
X11287528Y9809500D01*
X11432472Y9809500D01*
X11432475Y9809500D01*
X11572485Y9847016D01*
X11698015Y9919491D01*
X11727826Y9949303D01*
X11789144Y9982786D01*
X11815293Y9985620D01*
X14812176Y9990438D01*
X14879246Y9970861D01*
X14925085Y9918131D01*
X14936371Y9865609D01*
X14931082Y9074182D01*
X14930846Y9038838D01*
X14930846Y9038837D01*
X14916913Y6954182D01*
X14916913Y6954137D01*
X14916896Y6951726D01*
X14896739Y6884827D01*
X14843614Y6839445D01*
X14774387Y6829990D01*
X14741062Y6841656D01*
X14740700Y6840780D01*
X14733188Y6843891D01*
X14733187Y6843892D01*
X14733186Y6843892D01*
X14605892Y6878000D01*
X14474108Y6878000D01*
X14346812Y6843892D01*
X14232686Y6778000D01*
X14232683Y6777998D01*
X14139502Y6684817D01*
X14139500Y6684814D01*
X14114257Y6641091D01*
X14097387Y6611872D01*
X14046820Y6563657D01*
X13978212Y6550435D01*
X13913348Y6576403D01*
X13882613Y6611872D01*
X13878209Y6619500D01*
X13840500Y6684814D01*
X13747314Y6778000D01*
X13657265Y6829990D01*
X13633187Y6843892D01*
X13569539Y6860946D01*
X13505892Y6878000D01*
X13374108Y6878000D01*
X13246812Y6843892D01*
X13132686Y6778000D01*
X13132683Y6777998D01*
X13039502Y6684817D01*
X13039500Y6684814D01*
X12973608Y6570688D01*
X12939500Y6443392D01*
X12939500Y6311609D01*
X12973608Y6184313D01*
X12997387Y6143128D01*
X13039500Y6070186D01*
X13132686Y5977000D01*
X13205628Y5934887D01*
X13253843Y5884320D01*
X13267065Y5815712D01*
X13241097Y5750848D01*
X13205628Y5720113D01*
X13132686Y5678000D01*
X13132683Y5677998D01*
X13039502Y5584817D01*
X13039500Y5584814D01*
X12973608Y5470688D01*
X12939500Y5343392D01*
X12939500Y5211608D01*
X12956554Y5147961D01*
X12973608Y5084313D01*
X12981369Y5070871D01*
X13039500Y4970186D01*
X13132686Y4877000D01*
X13205628Y4834887D01*
X13253843Y4784320D01*
X13267065Y4715712D01*
X13241097Y4650848D01*
X13205628Y4620113D01*
X13132686Y4578000D01*
X13132683Y4577998D01*
X13039502Y4484817D01*
X13039500Y4484814D01*
X12973608Y4370688D01*
X12939500Y4243392D01*
X12939500Y4111609D01*
X12973608Y3984313D01*
X12997387Y3943128D01*
X13039500Y3870186D01*
X13132686Y3777000D01*
X13246814Y3711108D01*
X13374108Y3677000D01*
X13374110Y3677000D01*
X13505890Y3677000D01*
X13505892Y3677000D01*
X13633186Y3711108D01*
X13747314Y3777000D01*
X13840500Y3870186D01*
X13882613Y3943129D01*
X13933180Y3991344D01*
X14001787Y4004567D01*
X14066652Y3978599D01*
X14097386Y3943129D01*
X14139500Y3870186D01*
X14232686Y3777000D01*
X14346814Y3711108D01*
X14474108Y3677000D01*
X14474110Y3677000D01*
X14605889Y3677000D01*
X14605892Y3677000D01*
X14733186Y3711108D01*
X14733191Y3711111D01*
X14738349Y3712493D01*
X14808199Y3710830D01*
X14866062Y3671668D01*
X14893566Y3607440D01*
X14894440Y3591889D01*
X14891165Y3101804D01*
X14891976Y3079673D01*
X14893690Y3058283D01*
X14895916Y3050119D01*
X14894553Y2980262D01*
X14855639Y2922232D01*
X14838281Y2910126D01*
X14786991Y2880513D01*
X14786982Y2880507D01*
X14684493Y2778018D01*
X14684488Y2778012D01*
X14612017Y2652489D01*
X14612016Y2652485D01*
X14574500Y2512475D01*
X14574500Y2367525D01*
X14605991Y2250000D01*
X14612017Y2227512D01*
X14684488Y2101989D01*
X14684490Y2101987D01*
X14684491Y2101985D01*
X14786985Y1999491D01*
X14831788Y1973624D01*
X14880004Y1923057D01*
X14893227Y1854450D01*
X14892405Y1847771D01*
X14882336Y1780917D01*
X14882336Y1780912D01*
X14878587Y1219837D01*
X14874468Y603671D01*
X14854336Y536765D01*
X14801227Y491364D01*
X14750471Y480500D01*
X13441268Y480500D01*
X13374229Y500185D01*
X13328474Y552989D01*
X13318530Y622147D01*
X13321490Y636581D01*
X13340500Y707525D01*
X13340500Y852475D01*
X13302984Y992485D01*
X13298721Y999868D01*
X13230511Y1118012D01*
X13230506Y1118018D01*
X13128017Y1220507D01*
X13128011Y1220512D01*
X13002488Y1292983D01*
X13002489Y1292983D01*
X12991006Y1296060D01*
X12862475Y1330500D01*
X12717525Y1330500D01*
X12588993Y1296060D01*
X12577511Y1292983D01*
X12451988Y1220512D01*
X12451982Y1220507D01*
X12349493Y1118018D01*
X12349488Y1118012D01*
X12277017Y992489D01*
X12277016Y992485D01*
X12239500Y852475D01*
X12239500Y707525D01*
X12258506Y636591D01*
X12256844Y566744D01*
X12217682Y508882D01*
X12153454Y481377D01*
X12138732Y480500D01*
X624500Y480500D01*
X557461Y500185D01*
X511706Y552989D01*
X500500Y604500D01*
X500500Y2012475D01*
X1889500Y2012475D01*
X1889500Y1867525D01*
X1927016Y1727515D01*
X1927017Y1727512D01*
X1999488Y1601989D01*
X1999490Y1601987D01*
X1999491Y1601985D01*
X2101985Y1499491D01*
X2101986Y1499490D01*
X2101988Y1499489D01*
X2227511Y1427018D01*
X2227512Y1427018D01*
X2227515Y1427016D01*
X2367525Y1389500D01*
X2367528Y1389500D01*
X2512472Y1389500D01*
X2512475Y1389500D01*
X2652485Y1427016D01*
X2778015Y1499491D01*
X2831999Y1553475D01*
X4519500Y1553475D01*
X4519500Y1408525D01*
X4553911Y1280104D01*
X4557017Y1268512D01*
X4629488Y1142989D01*
X4629490Y1142987D01*
X4629491Y1142985D01*
X4731985Y1040491D01*
X4731986Y1040490D01*
X4731988Y1040489D01*
X4857511Y968018D01*
X4857512Y968018D01*
X4857515Y968016D01*
X4997525Y930500D01*
X4997528Y930500D01*
X5142472Y930500D01*
X5142475Y930500D01*
X5282485Y968016D01*
X5408015Y1040491D01*
X5510509Y1142985D01*
X5582984Y1268515D01*
X5620500Y1408525D01*
X5620500Y1553475D01*
X9409500Y1553475D01*
X9409500Y1408525D01*
X9443911Y1280104D01*
X9447017Y1268512D01*
X9519488Y1142989D01*
X9519490Y1142987D01*
X9519491Y1142985D01*
X9621985Y1040491D01*
X9621986Y1040490D01*
X9621988Y1040489D01*
X9747511Y968018D01*
X9747512Y968018D01*
X9747515Y968016D01*
X9887525Y930500D01*
X9887528Y930500D01*
X10032472Y930500D01*
X10032475Y930500D01*
X10172485Y968016D01*
X10298015Y1040491D01*
X10400509Y1142985D01*
X10472984Y1268515D01*
X10510500Y1408525D01*
X10510500Y1553475D01*
X10472984Y1693485D01*
X10453338Y1727512D01*
X10400511Y1819012D01*
X10400506Y1819018D01*
X10298017Y1921507D01*
X10298011Y1921512D01*
X10172488Y1993983D01*
X10172489Y1993983D01*
X10151940Y1999489D01*
X10032475Y2031500D01*
X9887525Y2031500D01*
X9768060Y1999489D01*
X9747511Y1993983D01*
X9621988Y1921512D01*
X9621982Y1921507D01*
X9519493Y1819018D01*
X9519488Y1819012D01*
X9447017Y1693489D01*
X9447016Y1693485D01*
X9409500Y1553475D01*
X5620500Y1553475D01*
X5582984Y1693485D01*
X5563338Y1727512D01*
X5510511Y1819012D01*
X5510506Y1819018D01*
X5408017Y1921507D01*
X5408011Y1921512D01*
X5282488Y1993983D01*
X5282489Y1993983D01*
X5261940Y1999489D01*
X5142475Y2031500D01*
X4997525Y2031500D01*
X4878060Y1999489D01*
X4857511Y1993983D01*
X4731988Y1921512D01*
X4731982Y1921507D01*
X4629493Y1819018D01*
X4629488Y1819012D01*
X4557017Y1693489D01*
X4557016Y1693485D01*
X4519500Y1553475D01*
X2831999Y1553475D01*
X2880509Y1601985D01*
X2885723Y1611016D01*
X2892991Y1623603D01*
X2952982Y1727512D01*
X2952981Y1727512D01*
X2952984Y1727515D01*
X2990500Y1867525D01*
X2990500Y2012475D01*
X2952984Y2152485D01*
X2941723Y2171989D01*
X2880511Y2278012D01*
X2880506Y2278018D01*
X2778017Y2380507D01*
X2778011Y2380512D01*
X2652488Y2452983D01*
X2652489Y2452983D01*
X2646646Y2454549D01*
X2512475Y2490500D01*
X2367525Y2490500D01*
X2238993Y2456060D01*
X2227511Y2452983D01*
X2101988Y2380512D01*
X2101982Y2380507D01*
X1999493Y2278018D01*
X1999488Y2278012D01*
X1927017Y2152489D01*
X1927016Y2152485D01*
X1889500Y2012475D01*
X500500Y2012475D01*
X500500Y2582475D01*
X7549500Y2582475D01*
X7549500Y2437525D01*
X7568256Y2367528D01*
X7587017Y2297512D01*
X7659488Y2171989D01*
X7659490Y2171987D01*
X7659491Y2171985D01*
X7761985Y2069491D01*
X7761986Y2069490D01*
X7761988Y2069489D01*
X7887511Y1997018D01*
X7887512Y1997018D01*
X7887515Y1997016D01*
X8027525Y1959500D01*
X8027528Y1959500D01*
X8172472Y1959500D01*
X8172475Y1959500D01*
X8312485Y1997016D01*
X8438015Y2069491D01*
X8540509Y2171985D01*
X8612984Y2297515D01*
X8650500Y2437525D01*
X8650500Y2512475D01*
X11979500Y2512475D01*
X11979500Y2367525D01*
X12010991Y2250000D01*
X12017017Y2227512D01*
X12089488Y2101989D01*
X12089490Y2101987D01*
X12089491Y2101985D01*
X12191985Y1999491D01*
X12191986Y1999490D01*
X12191988Y1999489D01*
X12317511Y1927018D01*
X12317512Y1927018D01*
X12317515Y1927016D01*
X12457525Y1889500D01*
X12457528Y1889500D01*
X12602472Y1889500D01*
X12602475Y1889500D01*
X12742485Y1927016D01*
X12868015Y1999491D01*
X12970509Y2101985D01*
X13042984Y2227515D01*
X13080500Y2367525D01*
X13080500Y2512475D01*
X13042984Y2652485D01*
X13002569Y2722485D01*
X12970511Y2778012D01*
X12970506Y2778018D01*
X12868017Y2880507D01*
X12868011Y2880512D01*
X12742488Y2952983D01*
X12742489Y2952983D01*
X12731006Y2956060D01*
X12602475Y2990500D01*
X12457525Y2990500D01*
X12328993Y2956060D01*
X12317511Y2952983D01*
X12191988Y2880512D01*
X12191982Y2880507D01*
X12089493Y2778018D01*
X12089488Y2778012D01*
X12017017Y2652489D01*
X12017016Y2652485D01*
X11979500Y2512475D01*
X8650500Y2512475D01*
X8650500Y2582475D01*
X8612984Y2722485D01*
X8580925Y2778012D01*
X8540511Y2848012D01*
X8540506Y2848018D01*
X8438017Y2950507D01*
X8438011Y2950512D01*
X8312488Y3022983D01*
X8312489Y3022983D01*
X8301006Y3026060D01*
X8172475Y3060500D01*
X8027525Y3060500D01*
X7898993Y3026060D01*
X7887511Y3022983D01*
X7761988Y2950512D01*
X7761982Y2950507D01*
X7659493Y2848018D01*
X7659488Y2848012D01*
X7587017Y2722489D01*
X7587016Y2722485D01*
X7549500Y2582475D01*
X500500Y2582475D01*
X500500Y7242475D01*
X3289500Y7242475D01*
X3289500Y7097525D01*
X3317274Y6993872D01*
X3327017Y6957512D01*
X3399488Y6831989D01*
X3399490Y6831987D01*
X3399491Y6831985D01*
X3501985Y6729491D01*
X3501986Y6729490D01*
X3501988Y6729489D01*
X3627511Y6657018D01*
X3627512Y6657018D01*
X3627515Y6657016D01*
X3767525Y6619500D01*
X3767528Y6619500D01*
X3912472Y6619500D01*
X3912475Y6619500D01*
X4052485Y6657016D01*
X4178015Y6729491D01*
X4280509Y6831985D01*
X4352984Y6957515D01*
X4390500Y7097525D01*
X4390500Y7242475D01*
X4352984Y7382485D01*
X4292346Y7487512D01*
X4280511Y7508012D01*
X4280506Y7508018D01*
X4178017Y7610507D01*
X4178015Y7610509D01*
X4128816Y7638915D01*
X4069406Y7673215D01*
X4069405Y7673215D01*
X4052485Y7682984D01*
X3912475Y7720500D01*
X3767525Y7720500D01*
X3638993Y7686060D01*
X3627511Y7682983D01*
X3501988Y7610512D01*
X3501982Y7610507D01*
X3399493Y7508018D01*
X3399488Y7508012D01*
X3327017Y7382489D01*
X3327016Y7382485D01*
X3289500Y7242475D01*
X500500Y7242475D01*
X500500Y7772475D01*
X11729500Y7772475D01*
X11729500Y7627525D01*
X11761522Y7508018D01*
X11767017Y7487512D01*
X11839488Y7361989D01*
X11839490Y7361987D01*
X11839491Y7361985D01*
X11941985Y7259491D01*
X11941986Y7259490D01*
X11941988Y7259489D01*
X12067511Y7187018D01*
X12067512Y7187018D01*
X12067515Y7187016D01*
X12207525Y7149500D01*
X12207528Y7149500D01*
X12352472Y7149500D01*
X12352475Y7149500D01*
X12492485Y7187016D01*
X12618015Y7259491D01*
X12720509Y7361985D01*
X12792984Y7487515D01*
X12830500Y7627525D01*
X12830500Y7772475D01*
X12792984Y7912485D01*
X12720509Y8038015D01*
X12618015Y8140509D01*
X12618013Y8140510D01*
X12618011Y8140512D01*
X12492488Y8212983D01*
X12492489Y8212983D01*
X12481006Y8216060D01*
X12352475Y8250500D01*
X12207525Y8250500D01*
X12078993Y8216060D01*
X12067511Y8212983D01*
X11941988Y8140512D01*
X11941982Y8140507D01*
X11839493Y8038018D01*
X11839488Y8038012D01*
X11767017Y7912489D01*
X11767016Y7912485D01*
X11729500Y7772475D01*
X500500Y7772475D01*
X500500Y10023263D01*
X520185Y10090302D01*
X572989Y10136057D01*
X627192Y10147234D01*
X7841536Y9990402D01*
G37*
%TD.AperFunction*%
%TD*%
%TA.AperFunction,Conductor*%
%TO.N,+3.3V_LED*%
G36*
X16721292Y33102619D02*
G01*
X16761647Y33094595D01*
X16769342Y33091409D01*
X16774495Y33091318D01*
X16806330Y33076095D01*
X16830201Y33060152D01*
X16864406Y33025964D01*
X16880358Y33002108D01*
X16898886Y32957431D01*
X16906932Y32917081D01*
X16909326Y32892899D01*
X16910714Y30314511D01*
X16891066Y30247461D01*
X16838286Y30201677D01*
X16769133Y30191697D01*
X16724714Y30207057D01*
X16662488Y30242983D01*
X16662489Y30242983D01*
X16645777Y30247461D01*
X16522475Y30280500D01*
X16377525Y30280500D01*
X16254223Y30247461D01*
X16237511Y30242983D01*
X16111988Y30170512D01*
X16111982Y30170507D01*
X16009493Y30068018D01*
X16009488Y30068012D01*
X15937017Y29942489D01*
X15937016Y29942485D01*
X15899500Y29802475D01*
X15899500Y29657525D01*
X15937016Y29517515D01*
X15937017Y29517512D01*
X16009488Y29391989D01*
X16009490Y29391987D01*
X16009491Y29391985D01*
X16111985Y29289491D01*
X16111986Y29289490D01*
X16111988Y29289489D01*
X16237511Y29217018D01*
X16237512Y29217018D01*
X16237515Y29217016D01*
X16377525Y29179500D01*
X16377528Y29179500D01*
X16522472Y29179500D01*
X16522475Y29179500D01*
X16662485Y29217016D01*
X16725343Y29253308D01*
X16793241Y29269781D01*
X16859268Y29246930D01*
X16902460Y29192009D01*
X16911343Y29145988D01*
X16915296Y21804911D01*
X16895648Y21737861D01*
X16842868Y21692077D01*
X16773715Y21682097D01*
X16710144Y21711087D01*
X16683909Y21742844D01*
X16640509Y21818015D01*
X16538015Y21920509D01*
X16538013Y21920510D01*
X16538011Y21920512D01*
X16412488Y21992983D01*
X16412489Y21992983D01*
X16401006Y21996060D01*
X16272475Y22030500D01*
X16127525Y22030500D01*
X15998993Y21996060D01*
X15987511Y21992983D01*
X15861988Y21920512D01*
X15861982Y21920507D01*
X15759493Y21818018D01*
X15759488Y21818012D01*
X15687017Y21692489D01*
X15682583Y21675945D01*
X15649500Y21552475D01*
X15649500Y21407525D01*
X15683885Y21279201D01*
X15687017Y21267512D01*
X15759488Y21141989D01*
X15759490Y21141987D01*
X15759491Y21141985D01*
X15861985Y21039491D01*
X15861986Y21039490D01*
X15861988Y21039489D01*
X15987511Y20967018D01*
X15987512Y20967018D01*
X15987515Y20967016D01*
X16127525Y20929500D01*
X16127528Y20929500D01*
X16272472Y20929500D01*
X16272475Y20929500D01*
X16412485Y20967016D01*
X16538015Y21039491D01*
X16640509Y21141985D01*
X16684259Y21217763D01*
X16734826Y21265978D01*
X16803433Y21279201D01*
X16868298Y21253232D01*
X16908826Y21196318D01*
X16915646Y21155829D01*
X16921038Y11142327D01*
X16918667Y11118127D01*
X16910654Y11077742D01*
X16892150Y11033018D01*
X16876204Y11009136D01*
X16841993Y10974907D01*
X16818122Y10958949D01*
X16773407Y10940419D01*
X16733026Y10932384D01*
X16708827Y10930000D01*
X12829230Y10930000D01*
X12804998Y10932391D01*
X12779559Y10937460D01*
X12764565Y10940448D01*
X12719806Y10959024D01*
X12695915Y10975022D01*
X12661692Y11009337D01*
X12645759Y11033269D01*
X12627303Y11078079D01*
X12619353Y11118543D01*
X12617029Y11142761D01*
X12623518Y13552475D01*
X14474500Y13552475D01*
X14474500Y13407525D01*
X14512016Y13267515D01*
X14512017Y13267512D01*
X14584488Y13141989D01*
X14584490Y13141987D01*
X14584491Y13141985D01*
X14686985Y13039491D01*
X14686986Y13039490D01*
X14686988Y13039489D01*
X14812511Y12967018D01*
X14812512Y12967018D01*
X14812515Y12967016D01*
X14952525Y12929500D01*
X14952528Y12929500D01*
X15097472Y12929500D01*
X15097475Y12929500D01*
X15237485Y12967016D01*
X15363015Y13039491D01*
X15465509Y13141985D01*
X15537984Y13267515D01*
X15575500Y13407525D01*
X15575500Y13552475D01*
X15537984Y13692485D01*
X15465509Y13818015D01*
X15363015Y13920509D01*
X15363013Y13920510D01*
X15363011Y13920512D01*
X15237488Y13992983D01*
X15237489Y13992983D01*
X15226006Y13996060D01*
X15097475Y14030500D01*
X14952525Y14030500D01*
X14823993Y13996060D01*
X14812511Y13992983D01*
X14686988Y13920512D01*
X14686982Y13920507D01*
X14584493Y13818018D01*
X14584488Y13818012D01*
X14512017Y13692489D01*
X14512016Y13692485D01*
X14474500Y13552475D01*
X12623518Y13552475D01*
X12631057Y16352475D01*
X12974500Y16352475D01*
X12974500Y16207525D01*
X13012016Y16067515D01*
X13012017Y16067512D01*
X13084488Y15941989D01*
X13084490Y15941987D01*
X13084491Y15941985D01*
X13186985Y15839491D01*
X13186986Y15839490D01*
X13186988Y15839489D01*
X13312511Y15767018D01*
X13312512Y15767018D01*
X13312515Y15767016D01*
X13452525Y15729500D01*
X13452528Y15729500D01*
X13597472Y15729500D01*
X13597475Y15729500D01*
X13737485Y15767016D01*
X13863015Y15839491D01*
X13965509Y15941985D01*
X14037984Y16067515D01*
X14075500Y16207525D01*
X14075500Y16352475D01*
X14037984Y16492485D01*
X13965509Y16618015D01*
X13863015Y16720509D01*
X13863013Y16720510D01*
X13863011Y16720512D01*
X13737488Y16792983D01*
X13737489Y16792983D01*
X13726006Y16796060D01*
X13597475Y16830500D01*
X13452525Y16830500D01*
X13323993Y16796060D01*
X13312511Y16792983D01*
X13186988Y16720512D01*
X13186982Y16720507D01*
X13084493Y16618018D01*
X13084488Y16618012D01*
X13012017Y16492489D01*
X13012016Y16492485D01*
X12974500Y16352475D01*
X12631057Y16352475D01*
X12633480Y17252475D01*
X15049500Y17252475D01*
X15049500Y17107525D01*
X15087016Y16967515D01*
X15087017Y16967512D01*
X15159488Y16841989D01*
X15159490Y16841987D01*
X15159491Y16841985D01*
X15261985Y16739491D01*
X15261986Y16739490D01*
X15261988Y16739489D01*
X15387511Y16667018D01*
X15387512Y16667018D01*
X15387515Y16667016D01*
X15527525Y16629500D01*
X15527528Y16629500D01*
X15672472Y16629500D01*
X15672475Y16629500D01*
X15812485Y16667016D01*
X15938015Y16739491D01*
X16040509Y16841985D01*
X16112984Y16967515D01*
X16150500Y17107525D01*
X16150500Y17252475D01*
X16112984Y17392485D01*
X16040509Y17518015D01*
X15938015Y17620509D01*
X15938013Y17620510D01*
X15938011Y17620512D01*
X15812488Y17692983D01*
X15812489Y17692983D01*
X15801006Y17696060D01*
X15672475Y17730500D01*
X15527525Y17730500D01*
X15398993Y17696060D01*
X15387511Y17692983D01*
X15261988Y17620512D01*
X15261982Y17620507D01*
X15159493Y17518018D01*
X15159488Y17518012D01*
X15087017Y17392489D01*
X15087016Y17392485D01*
X15049500Y17252475D01*
X12633480Y17252475D01*
X12650578Y23602475D01*
X12924500Y23602475D01*
X12924500Y23457525D01*
X12962016Y23317515D01*
X12962017Y23317512D01*
X13034488Y23191989D01*
X13034490Y23191987D01*
X13034491Y23191985D01*
X13136985Y23089491D01*
X13136986Y23089490D01*
X13136988Y23089489D01*
X13262511Y23017018D01*
X13262512Y23017018D01*
X13262515Y23017016D01*
X13402525Y22979500D01*
X13402528Y22979500D01*
X13547472Y22979500D01*
X13547475Y22979500D01*
X13687485Y23017016D01*
X13813015Y23089491D01*
X13915509Y23191985D01*
X13987984Y23317515D01*
X14025500Y23457525D01*
X14025500Y23602475D01*
X13987984Y23742485D01*
X13915509Y23868015D01*
X13813015Y23970509D01*
X13813013Y23970510D01*
X13813011Y23970512D01*
X13687488Y24042983D01*
X13687489Y24042983D01*
X13676006Y24046060D01*
X13547475Y24080500D01*
X13402525Y24080500D01*
X13273993Y24046060D01*
X13262511Y24042983D01*
X13136988Y23970512D01*
X13136982Y23970507D01*
X13034493Y23868018D01*
X13034488Y23868012D01*
X12962017Y23742489D01*
X12962016Y23742485D01*
X12924500Y23602475D01*
X12650578Y23602475D01*
X12662908Y28181665D01*
X12682773Y28248651D01*
X12735700Y28294264D01*
X12770729Y28304271D01*
X12772467Y28304500D01*
X12772475Y28304500D01*
X12912485Y28342016D01*
X13038015Y28414491D01*
X13140509Y28516985D01*
X13212984Y28642515D01*
X13250500Y28782525D01*
X13250500Y28852475D01*
X14074500Y28852475D01*
X14074500Y28707525D01*
X14112016Y28567515D01*
X14112017Y28567512D01*
X14184488Y28441989D01*
X14184490Y28441987D01*
X14184491Y28441985D01*
X14286985Y28339491D01*
X14286986Y28339490D01*
X14286988Y28339489D01*
X14412511Y28267018D01*
X14412512Y28267018D01*
X14412515Y28267016D01*
X14552525Y28229500D01*
X14552528Y28229500D01*
X14697472Y28229500D01*
X14697475Y28229500D01*
X14837485Y28267016D01*
X14963015Y28339491D01*
X15065509Y28441985D01*
X15137984Y28567515D01*
X15175500Y28707525D01*
X15175500Y28852475D01*
X15137984Y28992485D01*
X15094680Y29067489D01*
X15065511Y29118012D01*
X15065506Y29118018D01*
X14963017Y29220507D01*
X14963011Y29220512D01*
X14837488Y29292983D01*
X14837489Y29292983D01*
X14826006Y29296060D01*
X14697475Y29330500D01*
X14552525Y29330500D01*
X14423993Y29296060D01*
X14412511Y29292983D01*
X14286988Y29220512D01*
X14286982Y29220507D01*
X14184493Y29118018D01*
X14184488Y29118012D01*
X14112017Y28992489D01*
X14112016Y28992485D01*
X14074500Y28852475D01*
X13250500Y28852475D01*
X13250500Y28927475D01*
X13212984Y29067485D01*
X13183810Y29118015D01*
X13140511Y29193012D01*
X13140506Y29193018D01*
X13038017Y29295507D01*
X13038011Y29295512D01*
X12912488Y29367983D01*
X12912489Y29367983D01*
X12898613Y29371701D01*
X12772475Y29405500D01*
X12772473Y29405500D01*
X12764624Y29407603D01*
X12765090Y29409346D01*
X12710439Y29433531D01*
X12671976Y29491861D01*
X12666534Y29528527D01*
X12670586Y31033475D01*
X13070079Y31033475D01*
X13070079Y30888525D01*
X13107595Y30748515D01*
X13107596Y30748512D01*
X13180067Y30622989D01*
X13180069Y30622987D01*
X13180070Y30622985D01*
X13282564Y30520491D01*
X13282565Y30520490D01*
X13282567Y30520489D01*
X13408090Y30448018D01*
X13408091Y30448018D01*
X13408094Y30448016D01*
X13548104Y30410500D01*
X13548107Y30410500D01*
X13693051Y30410500D01*
X13693054Y30410500D01*
X13833064Y30448016D01*
X13958594Y30520491D01*
X14061088Y30622985D01*
X14133563Y30748515D01*
X14171079Y30888525D01*
X14171079Y31033475D01*
X14133563Y31173485D01*
X14061088Y31299015D01*
X13958594Y31401509D01*
X13958592Y31401510D01*
X13958590Y31401512D01*
X13833067Y31473983D01*
X13833068Y31473983D01*
X13821585Y31477060D01*
X13693054Y31511500D01*
X13548104Y31511500D01*
X13419572Y31477060D01*
X13408090Y31473983D01*
X13282567Y31401512D01*
X13282561Y31401507D01*
X13180072Y31299018D01*
X13180067Y31299012D01*
X13107596Y31173489D01*
X13107595Y31173485D01*
X13070079Y31033475D01*
X12670586Y31033475D01*
X12674125Y32347983D01*
X12693989Y32414963D01*
X12699752Y32423135D01*
X12703917Y32428564D01*
X12703924Y32428570D01*
X12776399Y32554100D01*
X12813915Y32694110D01*
X12813915Y32839060D01*
X12784481Y32948908D01*
X12786144Y33018756D01*
X12825306Y33076619D01*
X12889535Y33104123D01*
X12904256Y33105000D01*
X16697110Y33105000D01*
X16721292Y33102619D01*
G37*
%TD.AperFunction*%
%TD*%
%TA.AperFunction,Conductor*%
%TO.N,+1.8V*%
G36*
X19674325Y37403973D02*
G01*
X19741244Y37383893D01*
X19786686Y37330820D01*
X19796222Y37261604D01*
X19793365Y37247883D01*
X19774500Y37177477D01*
X19773439Y37169415D01*
X19771109Y37169722D01*
X19754815Y37114230D01*
X19702011Y37068475D01*
X19632853Y37058531D01*
X19618407Y37061494D01*
X19576284Y37072781D01*
X19547475Y37080500D01*
X19402525Y37080500D01*
X19273993Y37046060D01*
X19262511Y37042983D01*
X19136988Y36970512D01*
X19136982Y36970507D01*
X19034493Y36868018D01*
X19034488Y36868012D01*
X18962017Y36742489D01*
X18962016Y36742485D01*
X18924500Y36602475D01*
X18924500Y36457525D01*
X18960884Y36321740D01*
X18962017Y36317512D01*
X19034488Y36191989D01*
X19034490Y36191987D01*
X19034491Y36191985D01*
X19136985Y36089491D01*
X19136986Y36089490D01*
X19136988Y36089489D01*
X19262511Y36017018D01*
X19262512Y36017018D01*
X19262515Y36017016D01*
X19402525Y35979500D01*
X19402528Y35979500D01*
X19547472Y35979500D01*
X19547475Y35979500D01*
X19618409Y35998507D01*
X19688256Y35996844D01*
X19746118Y35957682D01*
X19773623Y35893454D01*
X19774500Y35878732D01*
X19774500Y35807525D01*
X19812016Y35667515D01*
X19812017Y35667512D01*
X19888555Y35534946D01*
X19887117Y35534116D01*
X19908848Y35477910D01*
X19894811Y35409465D01*
X19869506Y35379543D01*
X19870799Y35378250D01*
X19762555Y35270006D01*
X19690084Y35144483D01*
X19690083Y35144479D01*
X19652567Y35004469D01*
X19652567Y34859519D01*
X19690083Y34719509D01*
X19762558Y34593979D01*
X19865052Y34491485D01*
X19865053Y34491484D01*
X19865055Y34491483D01*
X19990578Y34419012D01*
X19990579Y34419012D01*
X19990582Y34419010D01*
X20130592Y34381494D01*
X20130595Y34381494D01*
X20275539Y34381494D01*
X20275542Y34381494D01*
X20415552Y34419010D01*
X20541082Y34491485D01*
X20643576Y34593979D01*
X20716051Y34719509D01*
X20753567Y34859519D01*
X20753567Y35004469D01*
X20716051Y35144479D01*
X20702480Y35167984D01*
X20639512Y35277048D01*
X20640949Y35277879D01*
X20619218Y35334082D01*
X20633253Y35402527D01*
X20658563Y35432449D01*
X20657268Y35433744D01*
X20701434Y35477910D01*
X20765509Y35541985D01*
X20837984Y35667515D01*
X20875500Y35807525D01*
X20875500Y35952475D01*
X20837984Y36092485D01*
X20780537Y36191985D01*
X20765511Y36218012D01*
X20765506Y36218018D01*
X20663017Y36320507D01*
X20663015Y36320509D01*
X20551118Y36385113D01*
X20502902Y36435680D01*
X20489680Y36504287D01*
X20515648Y36569152D01*
X20551118Y36599887D01*
X20555600Y36602475D01*
X20663015Y36664491D01*
X20765509Y36766985D01*
X20837984Y36892515D01*
X20875500Y37032525D01*
X20875500Y37177475D01*
X20858697Y37240184D01*
X20860358Y37310031D01*
X20899520Y37367894D01*
X20963748Y37395399D01*
X20979196Y37396274D01*
X25124210Y37371820D01*
X25191130Y37351740D01*
X25236572Y37298667D01*
X25247476Y37247822D01*
X25247476Y29197888D01*
X25227791Y29130849D01*
X25174987Y29085094D01*
X25105829Y29075150D01*
X25091384Y29078113D01*
X25082476Y29080500D01*
X25082475Y29080500D01*
X24937525Y29080500D01*
X24808993Y29046060D01*
X24797511Y29042983D01*
X24671988Y28970512D01*
X24671982Y28970507D01*
X24569493Y28868018D01*
X24569488Y28868012D01*
X24497017Y28742489D01*
X24497016Y28742485D01*
X24459500Y28602475D01*
X24459500Y28457525D01*
X24497016Y28317515D01*
X24497017Y28317512D01*
X24569488Y28191989D01*
X24569490Y28191987D01*
X24569491Y28191985D01*
X24671985Y28089491D01*
X24671986Y28089490D01*
X24671988Y28089489D01*
X24797511Y28017018D01*
X24797512Y28017018D01*
X24797515Y28017016D01*
X24937525Y27979500D01*
X24937528Y27979500D01*
X25082471Y27979500D01*
X25082475Y27979500D01*
X25091382Y27981887D01*
X25161228Y27980227D01*
X25219092Y27941066D01*
X25246598Y27876839D01*
X25247476Y27862113D01*
X25247476Y27681716D01*
X25227791Y27614677D01*
X25174987Y27568922D01*
X25123549Y27557716D01*
X21599573Y27555638D01*
X21532522Y27575283D01*
X21486736Y27628060D01*
X21475500Y27679638D01*
X21475500Y27752473D01*
X21475500Y27752475D01*
X21437984Y27892485D01*
X21365509Y28018015D01*
X21263015Y28120509D01*
X21263013Y28120510D01*
X21263011Y28120512D01*
X21137488Y28192983D01*
X21137489Y28192983D01*
X21126006Y28196060D01*
X20997475Y28230500D01*
X20852525Y28230500D01*
X20723993Y28196060D01*
X20712511Y28192983D01*
X20586988Y28120512D01*
X20586982Y28120507D01*
X20484493Y28018018D01*
X20484488Y28018012D01*
X20412017Y27892489D01*
X20412016Y27892485D01*
X20374500Y27752475D01*
X20374500Y27752473D01*
X20374500Y27678842D01*
X20354815Y27611803D01*
X20302011Y27566048D01*
X20250573Y27554842D01*
X18556116Y27553843D01*
X18489065Y27573488D01*
X18468362Y27590162D01*
X18363017Y27695507D01*
X18363011Y27695512D01*
X18237488Y27767983D01*
X18237489Y27767983D01*
X18226006Y27771060D01*
X18097475Y27805500D01*
X17952525Y27805500D01*
X17823993Y27771060D01*
X17812511Y27767983D01*
X17686988Y27695512D01*
X17686981Y27695506D01*
X17581007Y27589533D01*
X17554109Y27574847D01*
X17528331Y27558258D01*
X17522075Y27557355D01*
X17519684Y27556049D01*
X17493400Y27553215D01*
X17291706Y27553097D01*
X17224655Y27572742D01*
X17178869Y27625520D01*
X17167634Y27677026D01*
X17166843Y29146126D01*
X17162212Y29194411D01*
X17153329Y29240432D01*
X17148448Y29261074D01*
X17103294Y29349952D01*
X17060102Y29404873D01*
X17028868Y29438022D01*
X17028863Y29438025D01*
X17021929Y29443545D01*
X17024002Y29446151D01*
X16987182Y29485256D01*
X16974391Y29553945D01*
X16977976Y29573466D01*
X17000500Y29657525D01*
X17000500Y29802475D01*
X16976728Y29891193D01*
X16977094Y29906599D01*
X16972519Y29921315D01*
X16977909Y29940814D01*
X16978391Y29961039D01*
X16981400Y29965682D01*
X17811293Y29965682D01*
X17811293Y29820732D01*
X17848809Y29680722D01*
X17848810Y29680719D01*
X17921281Y29555196D01*
X17921283Y29555194D01*
X17921284Y29555192D01*
X18023778Y29452698D01*
X18023779Y29452697D01*
X18023781Y29452696D01*
X18149304Y29380225D01*
X18149305Y29380225D01*
X18149308Y29380223D01*
X18289318Y29342707D01*
X18289321Y29342707D01*
X18434265Y29342707D01*
X18434268Y29342707D01*
X18574278Y29380223D01*
X18699808Y29452698D01*
X18802302Y29555192D01*
X18874777Y29680722D01*
X18912293Y29820732D01*
X18912293Y29965682D01*
X18895735Y30027475D01*
X19374500Y30027475D01*
X19374500Y29882525D01*
X19412016Y29742515D01*
X19412017Y29742512D01*
X19484488Y29616989D01*
X19484490Y29616987D01*
X19484491Y29616985D01*
X19586985Y29514491D01*
X19586986Y29514490D01*
X19586988Y29514489D01*
X19712511Y29442018D01*
X19712512Y29442018D01*
X19712515Y29442016D01*
X19852525Y29404500D01*
X19852528Y29404500D01*
X19997472Y29404500D01*
X19997475Y29404500D01*
X20137485Y29442016D01*
X20263015Y29514491D01*
X20365509Y29616985D01*
X20437984Y29742515D01*
X20475500Y29882525D01*
X20475500Y30027475D01*
X20437984Y30167485D01*
X20401185Y30231222D01*
X20365511Y30293012D01*
X20365506Y30293018D01*
X20263017Y30395507D01*
X20263011Y30395512D01*
X20137488Y30467983D01*
X20137489Y30467983D01*
X20126006Y30471060D01*
X19997475Y30505500D01*
X19852525Y30505500D01*
X19723993Y30471060D01*
X19712511Y30467983D01*
X19586988Y30395512D01*
X19586982Y30395507D01*
X19484493Y30293018D01*
X19484488Y30293012D01*
X19412017Y30167489D01*
X19412016Y30167485D01*
X19374500Y30027475D01*
X18895735Y30027475D01*
X18874777Y30105692D01*
X18839098Y30167489D01*
X18802304Y30231219D01*
X18802299Y30231225D01*
X18699810Y30333714D01*
X18699804Y30333719D01*
X18574281Y30406190D01*
X18574282Y30406190D01*
X18562799Y30409267D01*
X18434268Y30443707D01*
X18289318Y30443707D01*
X18160786Y30409267D01*
X18149304Y30406190D01*
X18023781Y30333719D01*
X18023775Y30333714D01*
X17921286Y30231225D01*
X17921281Y30231219D01*
X17848810Y30105696D01*
X17848809Y30105692D01*
X17811293Y29965682D01*
X16981400Y29965682D01*
X16987300Y29974784D01*
X16991137Y29988659D01*
X17012689Y30013947D01*
X17013823Y30015696D01*
X17014454Y30016262D01*
X17058487Y30054457D01*
X17090096Y30087251D01*
X17136256Y30175612D01*
X17155904Y30242662D01*
X17166214Y30314649D01*
X17165506Y31629699D01*
X17797500Y31629699D01*
X17797500Y31530301D01*
X17823226Y31434291D01*
X17872925Y31348210D01*
X17943210Y31277925D01*
X18029291Y31228226D01*
X18125301Y31202500D01*
X18125304Y31202500D01*
X18224696Y31202500D01*
X18224699Y31202500D01*
X18320709Y31228226D01*
X18320718Y31228232D01*
X18327545Y31231058D01*
X18397015Y31238528D01*
X18422455Y31231058D01*
X18429283Y31228231D01*
X18429291Y31228226D01*
X18525301Y31202500D01*
X18525304Y31202500D01*
X18624696Y31202500D01*
X18624699Y31202500D01*
X18720709Y31228226D01*
X18806790Y31277925D01*
X18877075Y31348210D01*
X18926774Y31434291D01*
X18952500Y31530301D01*
X18952500Y31629699D01*
X18926774Y31725709D01*
X18877075Y31811790D01*
X18806790Y31882075D01*
X18720709Y31931774D01*
X18624699Y31957500D01*
X18525301Y31957500D01*
X18457812Y31939417D01*
X18429286Y31931773D01*
X18422448Y31928940D01*
X18352978Y31921474D01*
X18327552Y31928940D01*
X18320713Y31931773D01*
X18312839Y31933883D01*
X18224699Y31957500D01*
X18125301Y31957500D01*
X18029291Y31931774D01*
X18029289Y31931774D01*
X18029289Y31931773D01*
X17943210Y31882075D01*
X17943207Y31882073D01*
X17872927Y31811793D01*
X17872925Y31811790D01*
X17823226Y31725709D01*
X17797500Y31629699D01*
X17165506Y31629699D01*
X17164826Y32893037D01*
X17163583Y32918070D01*
X17161189Y32942252D01*
X17157499Y32967045D01*
X17149453Y33007395D01*
X17134896Y33055307D01*
X17116368Y33099984D01*
X17113898Y33104600D01*
X17092746Y33144135D01*
X17076799Y33167983D01*
X17045028Y33206674D01*
X17045018Y33206685D01*
X17010821Y33240864D01*
X16972110Y33272619D01*
X16972108Y33272620D01*
X16972106Y33272622D01*
X16948235Y33288565D01*
X16916553Y33306597D01*
X16884685Y33321836D01*
X16876430Y33325604D01*
X16875755Y33325828D01*
X16861476Y33329914D01*
X16859379Y33330664D01*
X16811489Y33345185D01*
X16811465Y33345192D01*
X16771137Y33353210D01*
X16771096Y33353217D01*
X16746332Y33356889D01*
X16746327Y33356890D01*
X16722152Y33359270D01*
X16712640Y33359737D01*
X16697110Y33360500D01*
X12904256Y33360500D01*
X12904253Y33360500D01*
X12889071Y33360049D01*
X12885713Y33359849D01*
X12883845Y33359738D01*
X12815755Y33375402D01*
X12766943Y33425394D01*
X12752476Y33483518D01*
X12752476Y34727475D01*
X14799500Y34727475D01*
X14799500Y34582525D01*
X14829320Y34471238D01*
X14837017Y34442512D01*
X14909488Y34316989D01*
X14909490Y34316987D01*
X14909491Y34316985D01*
X15011985Y34214491D01*
X15011986Y34214490D01*
X15011988Y34214489D01*
X15137511Y34142018D01*
X15137512Y34142018D01*
X15137515Y34142016D01*
X15277525Y34104500D01*
X15277528Y34104500D01*
X15422472Y34104500D01*
X15422475Y34104500D01*
X15562485Y34142016D01*
X15688015Y34214491D01*
X15790509Y34316985D01*
X15862984Y34442515D01*
X15900500Y34582525D01*
X15900500Y34727475D01*
X15862984Y34867485D01*
X15796565Y34982525D01*
X15790511Y34993012D01*
X15790506Y34993018D01*
X15688017Y35095507D01*
X15688011Y35095512D01*
X15632650Y35127475D01*
X16274500Y35127475D01*
X16274500Y34982525D01*
X16312016Y34842515D01*
X16312017Y34842512D01*
X16384488Y34716989D01*
X16384493Y34716983D01*
X16410254Y34691222D01*
X16443739Y34629899D01*
X16438755Y34560207D01*
X16429961Y34541542D01*
X16389371Y34471237D01*
X16389370Y34471235D01*
X16389370Y34471234D01*
X16351854Y34331224D01*
X16351854Y34186274D01*
X16369744Y34119509D01*
X16389371Y34046261D01*
X16461842Y33920738D01*
X16461844Y33920736D01*
X16461845Y33920734D01*
X16564339Y33818240D01*
X16564340Y33818239D01*
X16564342Y33818238D01*
X16689865Y33745767D01*
X16689866Y33745767D01*
X16689869Y33745765D01*
X16829879Y33708249D01*
X16829882Y33708249D01*
X16974826Y33708249D01*
X16974829Y33708249D01*
X17114839Y33745765D01*
X17240369Y33818240D01*
X17342863Y33920734D01*
X17415338Y34046264D01*
X17452854Y34186274D01*
X17452854Y34331224D01*
X17433228Y34404469D01*
X18462735Y34404469D01*
X18462735Y34259519D01*
X18494220Y34142018D01*
X18500252Y34119506D01*
X18572723Y33993983D01*
X18572725Y33993981D01*
X18572726Y33993979D01*
X18675220Y33891485D01*
X18675221Y33891484D01*
X18675223Y33891483D01*
X18800746Y33819012D01*
X18800747Y33819012D01*
X18800750Y33819010D01*
X18940760Y33781494D01*
X18940763Y33781494D01*
X19085707Y33781494D01*
X19085710Y33781494D01*
X19225720Y33819010D01*
X19351250Y33891485D01*
X19453744Y33993979D01*
X19526219Y34119509D01*
X19563735Y34259519D01*
X19563735Y34404469D01*
X19526219Y34544479D01*
X19453744Y34670009D01*
X19351250Y34772503D01*
X19351248Y34772504D01*
X19351246Y34772506D01*
X19225723Y34844977D01*
X19225724Y34844977D01*
X19214241Y34848054D01*
X19085710Y34882494D01*
X18940760Y34882494D01*
X18812228Y34848054D01*
X18800746Y34844977D01*
X18675223Y34772506D01*
X18675217Y34772501D01*
X18572728Y34670012D01*
X18572723Y34670006D01*
X18500252Y34544483D01*
X18500251Y34544479D01*
X18462735Y34404469D01*
X17433228Y34404469D01*
X17415338Y34471234D01*
X17403647Y34491483D01*
X17342865Y34596761D01*
X17342860Y34596767D01*
X17317098Y34622529D01*
X17283613Y34683852D01*
X17288597Y34753544D01*
X17297386Y34772199D01*
X17337984Y34842515D01*
X17375500Y34982525D01*
X17375500Y35127475D01*
X17337984Y35267485D01*
X17336528Y35270006D01*
X17265511Y35393012D01*
X17265506Y35393018D01*
X17163017Y35495507D01*
X17163011Y35495512D01*
X17037488Y35567983D01*
X17037489Y35567983D01*
X17026006Y35571060D01*
X16897475Y35605500D01*
X16752525Y35605500D01*
X16623993Y35571060D01*
X16612511Y35567983D01*
X16486988Y35495512D01*
X16486982Y35495507D01*
X16384493Y35393018D01*
X16384488Y35393012D01*
X16312017Y35267489D01*
X16312016Y35267485D01*
X16274500Y35127475D01*
X15632650Y35127475D01*
X15562488Y35167983D01*
X15562489Y35167983D01*
X15551006Y35171060D01*
X15422475Y35205500D01*
X15277525Y35205500D01*
X15148993Y35171060D01*
X15137511Y35167983D01*
X15011988Y35095512D01*
X15011982Y35095507D01*
X14909493Y34993018D01*
X14909488Y34993012D01*
X14837017Y34867489D01*
X14837016Y34867485D01*
X14799500Y34727475D01*
X12752476Y34727475D01*
X12752476Y36344280D01*
X12772161Y36411319D01*
X12824965Y36457074D01*
X12894123Y36467018D01*
X12908550Y36464059D01*
X13037525Y36429500D01*
X13037528Y36429500D01*
X13182472Y36429500D01*
X13182475Y36429500D01*
X13322485Y36467016D01*
X13448015Y36539491D01*
X13550509Y36641985D01*
X13622984Y36767515D01*
X13660500Y36907525D01*
X13660500Y37052475D01*
X13622984Y37192485D01*
X13595447Y37240181D01*
X13587904Y37253246D01*
X13571431Y37321146D01*
X13594283Y37387173D01*
X13649205Y37430364D01*
X13696014Y37439243D01*
X19674325Y37403973D01*
G37*
%TD.AperFunction*%
%TD*%
%TA.AperFunction,Conductor*%
%TO.N,+BATT*%
G36*
X29442459Y9983754D02*
G01*
X29488254Y9930986D01*
X29499500Y9879387D01*
X29499500Y604500D01*
X29479815Y537461D01*
X29427011Y491706D01*
X29375500Y480500D01*
X20376268Y480500D01*
X20309229Y500185D01*
X20263474Y552989D01*
X20253530Y622147D01*
X20256490Y636581D01*
X20275500Y707525D01*
X20275500Y852475D01*
X20237984Y992485D01*
X20170986Y1108528D01*
X20165511Y1118012D01*
X20165506Y1118018D01*
X20063017Y1220507D01*
X20063011Y1220512D01*
X19937488Y1292983D01*
X19937489Y1292983D01*
X19926006Y1296060D01*
X19797475Y1330500D01*
X19652525Y1330500D01*
X19523993Y1296060D01*
X19512511Y1292983D01*
X19386988Y1220512D01*
X19386982Y1220507D01*
X19284493Y1118018D01*
X19284488Y1118012D01*
X19212017Y992489D01*
X19212016Y992485D01*
X19174500Y852475D01*
X19174500Y707525D01*
X19193506Y636591D01*
X19191844Y566744D01*
X19152682Y508882D01*
X19088454Y481377D01*
X19073732Y480500D01*
X18650472Y480500D01*
X18583433Y500185D01*
X18537678Y552989D01*
X18527734Y622147D01*
X18556759Y685703D01*
X18588469Y711886D01*
X18638015Y740491D01*
X18740509Y842985D01*
X18812984Y968515D01*
X18850500Y1108525D01*
X18850500Y1253475D01*
X18850499Y1253477D01*
X18849439Y1261531D01*
X18852176Y1261892D01*
X18853526Y1318274D01*
X18892697Y1376130D01*
X18956930Y1403625D01*
X18971633Y1404500D01*
X18997472Y1404500D01*
X18997475Y1404500D01*
X19137485Y1442016D01*
X19263015Y1514491D01*
X19365509Y1616985D01*
X19371565Y1627475D01*
X23624500Y1627475D01*
X23624500Y1482525D01*
X23653009Y1376130D01*
X23662017Y1342512D01*
X23734488Y1216989D01*
X23734490Y1216987D01*
X23734491Y1216985D01*
X23836985Y1114491D01*
X23836986Y1114490D01*
X23836988Y1114489D01*
X23962511Y1042018D01*
X23962512Y1042018D01*
X23962515Y1042016D01*
X24102525Y1004500D01*
X24102528Y1004500D01*
X24247472Y1004500D01*
X24247475Y1004500D01*
X24387485Y1042016D01*
X24513015Y1114491D01*
X24615509Y1216985D01*
X24687984Y1342515D01*
X24725500Y1482525D01*
X24725500Y1627475D01*
X24687984Y1767485D01*
X24681217Y1779205D01*
X24615511Y1893012D01*
X24615506Y1893018D01*
X24513017Y1995507D01*
X24513011Y1995512D01*
X24387488Y2067983D01*
X24387489Y2067983D01*
X24376006Y2071060D01*
X24247475Y2105500D01*
X24102525Y2105500D01*
X23973993Y2071060D01*
X23962511Y2067983D01*
X23836988Y1995512D01*
X23836982Y1995507D01*
X23734493Y1893018D01*
X23734488Y1893012D01*
X23662017Y1767489D01*
X23662016Y1767485D01*
X23624500Y1627475D01*
X19371565Y1627475D01*
X19437984Y1742515D01*
X19475500Y1882525D01*
X19475500Y2027475D01*
X19437984Y2167485D01*
X19403327Y2227512D01*
X19365511Y2293012D01*
X19365506Y2293018D01*
X19263017Y2395507D01*
X19263011Y2395512D01*
X19137488Y2467983D01*
X19137489Y2467983D01*
X19126006Y2471060D01*
X18997475Y2505500D01*
X18852525Y2505500D01*
X18723993Y2471060D01*
X18712511Y2467983D01*
X18586988Y2395512D01*
X18586982Y2395507D01*
X18484493Y2293018D01*
X18484488Y2293012D01*
X18412017Y2167489D01*
X18412016Y2167485D01*
X18374500Y2027475D01*
X18374500Y2027473D01*
X18374500Y1882527D01*
X18375561Y1874469D01*
X18372823Y1874109D01*
X18371474Y1817726D01*
X18332303Y1759870D01*
X18268070Y1732375D01*
X18253367Y1731500D01*
X18227525Y1731500D01*
X18101029Y1697605D01*
X18087511Y1693983D01*
X17961988Y1621512D01*
X17961982Y1621507D01*
X17859493Y1519018D01*
X17859488Y1519012D01*
X17787017Y1393489D01*
X17787016Y1393485D01*
X17749500Y1253475D01*
X17749500Y1108525D01*
X17777374Y1004500D01*
X17787017Y968512D01*
X17859488Y842989D01*
X17859490Y842987D01*
X17859491Y842985D01*
X17961985Y740491D01*
X18011529Y711887D01*
X18059744Y661320D01*
X18072966Y592712D01*
X18046998Y527848D01*
X17990084Y487320D01*
X17949528Y480500D01*
X15253982Y480500D01*
X15186943Y500185D01*
X15141188Y552989D01*
X15129985Y605325D01*
X15137831Y1779205D01*
X15157962Y1846105D01*
X15211070Y1891506D01*
X15229721Y1898141D01*
X15337485Y1927016D01*
X15463015Y1999491D01*
X15565509Y2101985D01*
X15637984Y2227515D01*
X15675500Y2367525D01*
X15675500Y2512475D01*
X15637984Y2652485D01*
X15565509Y2778015D01*
X15463015Y2880509D01*
X15463013Y2880510D01*
X15463011Y2880512D01*
X15337488Y2952983D01*
X15337489Y2952983D01*
X15327568Y2955642D01*
X15238560Y2979492D01*
X15178902Y3015855D01*
X15148373Y3078702D01*
X15146659Y3100084D01*
X15150457Y3668272D01*
X15170588Y3735173D01*
X15223696Y3780574D01*
X15292920Y3790055D01*
X15336453Y3774825D01*
X15446814Y3711108D01*
X15574108Y3677000D01*
X15574110Y3677000D01*
X15705890Y3677000D01*
X15705892Y3677000D01*
X15833186Y3711108D01*
X15947314Y3777000D01*
X16040500Y3870186D01*
X16106392Y3984314D01*
X16140500Y4111608D01*
X16140500Y4243392D01*
X16106392Y4370686D01*
X16040500Y4484814D01*
X15947314Y4578000D01*
X15874371Y4620114D01*
X15826156Y4670680D01*
X15812933Y4739287D01*
X15838901Y4804152D01*
X15874372Y4834887D01*
X15947314Y4877000D01*
X16040500Y4970186D01*
X16106392Y5084314D01*
X16108579Y5092475D01*
X16899500Y5092475D01*
X16899500Y4947525D01*
X16918398Y4876999D01*
X16937017Y4807512D01*
X17009488Y4681989D01*
X17009490Y4681987D01*
X17009491Y4681985D01*
X17111985Y4579491D01*
X17111986Y4579490D01*
X17111988Y4579489D01*
X17237511Y4507018D01*
X17237512Y4507018D01*
X17237515Y4507016D01*
X17377525Y4469500D01*
X17377528Y4469500D01*
X17522472Y4469500D01*
X17522475Y4469500D01*
X17662485Y4507016D01*
X17788015Y4579491D01*
X17890509Y4681985D01*
X17962984Y4807515D01*
X18000500Y4947525D01*
X18000500Y5092475D01*
X17962984Y5232485D01*
X17890509Y5358015D01*
X17788015Y5460509D01*
X17788013Y5460510D01*
X17788011Y5460512D01*
X17662488Y5532983D01*
X17662489Y5532983D01*
X17651006Y5536060D01*
X17522475Y5570500D01*
X17377525Y5570500D01*
X17248993Y5536060D01*
X17237511Y5532983D01*
X17111988Y5460512D01*
X17111982Y5460507D01*
X17009493Y5358018D01*
X17009488Y5358012D01*
X16937017Y5232489D01*
X16937016Y5232485D01*
X16899500Y5092475D01*
X16108579Y5092475D01*
X16140500Y5211608D01*
X16140500Y5343392D01*
X16106392Y5470686D01*
X16040500Y5584814D01*
X15947314Y5678000D01*
X15874371Y5720114D01*
X15826156Y5770680D01*
X15812933Y5839287D01*
X15838901Y5904152D01*
X15874372Y5934887D01*
X15947314Y5977000D01*
X16040500Y6070186D01*
X16106392Y6184314D01*
X16140500Y6311608D01*
X16140500Y6443392D01*
X16106392Y6570686D01*
X16040500Y6684814D01*
X15947314Y6778000D01*
X15890250Y6810946D01*
X15833187Y6843892D01*
X15769539Y6860946D01*
X15705892Y6878000D01*
X15574108Y6878000D01*
X15446814Y6843892D01*
X15446813Y6843892D01*
X15446811Y6843891D01*
X15446806Y6843890D01*
X15358057Y6792650D01*
X15290157Y6776177D01*
X15224130Y6799030D01*
X15180940Y6853951D01*
X15172062Y6900858D01*
X15172407Y6952475D01*
X20674500Y6952475D01*
X20674500Y6807525D01*
X20682900Y6776177D01*
X20712017Y6667512D01*
X20784488Y6541989D01*
X20784490Y6541987D01*
X20784491Y6541985D01*
X20886985Y6439491D01*
X20886986Y6439490D01*
X20886988Y6439489D01*
X21012511Y6367018D01*
X21012512Y6367018D01*
X21012515Y6367016D01*
X21152525Y6329500D01*
X21152528Y6329500D01*
X21297472Y6329500D01*
X21297475Y6329500D01*
X21437485Y6367016D01*
X21563015Y6439491D01*
X21665509Y6541985D01*
X21737984Y6667515D01*
X21775500Y6807525D01*
X21775500Y6952475D01*
X21737984Y7092485D01*
X21665509Y7218015D01*
X21563015Y7320509D01*
X21563013Y7320510D01*
X21563011Y7320512D01*
X21437488Y7392983D01*
X21437489Y7392983D01*
X21426006Y7396060D01*
X21297475Y7430500D01*
X21152525Y7430500D01*
X21023993Y7396060D01*
X21012511Y7392983D01*
X20886988Y7320512D01*
X20886982Y7320507D01*
X20784493Y7218018D01*
X20784488Y7218012D01*
X20712017Y7092489D01*
X20712016Y7092485D01*
X20674500Y6952475D01*
X15172407Y6952475D01*
X15186576Y9072475D01*
X18069500Y9072475D01*
X18069500Y8927525D01*
X18079024Y8891983D01*
X18107017Y8787512D01*
X18179488Y8661989D01*
X18179490Y8661987D01*
X18179491Y8661985D01*
X18281985Y8559491D01*
X18281986Y8559490D01*
X18281988Y8559489D01*
X18407511Y8487018D01*
X18407512Y8487018D01*
X18407515Y8487016D01*
X18547525Y8449500D01*
X18547528Y8449500D01*
X18692472Y8449500D01*
X18692475Y8449500D01*
X18832485Y8487016D01*
X18958015Y8559491D01*
X19060509Y8661985D01*
X19132984Y8787515D01*
X19170500Y8927525D01*
X19170500Y9072475D01*
X19132984Y9212485D01*
X19081029Y9302473D01*
X19060511Y9338012D01*
X19060506Y9338018D01*
X18958017Y9440507D01*
X18958011Y9440512D01*
X18832488Y9512983D01*
X18832489Y9512983D01*
X18821006Y9516060D01*
X18692475Y9550500D01*
X18547525Y9550500D01*
X18418993Y9516060D01*
X18407511Y9512983D01*
X18281988Y9440512D01*
X18281982Y9440507D01*
X18179493Y9338018D01*
X18179488Y9338012D01*
X18107017Y9212489D01*
X18107016Y9212485D01*
X18069500Y9072475D01*
X15186576Y9072475D01*
X15191902Y9869313D01*
X15212034Y9936217D01*
X15265143Y9981618D01*
X15315800Y9992482D01*
X27486916Y10001922D01*
X27553970Y9982289D01*
X27599765Y9929521D01*
X27609763Y9860370D01*
X27580787Y9796792D01*
X27522038Y9758972D01*
X27519136Y9758156D01*
X27470773Y9745197D01*
X27462511Y9742983D01*
X27336988Y9670512D01*
X27336982Y9670507D01*
X27234493Y9568018D01*
X27234488Y9568012D01*
X27162017Y9442489D01*
X27161486Y9440507D01*
X27124500Y9302475D01*
X27124500Y9157525D01*
X27147290Y9072473D01*
X27162017Y9017512D01*
X27234488Y8891989D01*
X27234490Y8891987D01*
X27234491Y8891985D01*
X27336985Y8789491D01*
X27336986Y8789490D01*
X27336988Y8789489D01*
X27462511Y8717018D01*
X27462512Y8717018D01*
X27462515Y8717016D01*
X27602525Y8679500D01*
X27602528Y8679500D01*
X27747472Y8679500D01*
X27747475Y8679500D01*
X27887485Y8717016D01*
X28013015Y8789491D01*
X28115509Y8891985D01*
X28187984Y9017515D01*
X28225500Y9157525D01*
X28225500Y9302475D01*
X28187984Y9442485D01*
X28147281Y9512984D01*
X28115511Y9568012D01*
X28115506Y9568018D01*
X28013017Y9670507D01*
X28013011Y9670512D01*
X27887488Y9742983D01*
X27887489Y9742983D01*
X27879002Y9745258D01*
X27829807Y9758439D01*
X27770149Y9794804D01*
X27739620Y9857651D01*
X27747915Y9927026D01*
X27792401Y9980904D01*
X27858953Y10002178D01*
X27861740Y10002213D01*
X29375406Y10003387D01*
X29442459Y9983754D01*
G37*
%TD.AperFunction*%
%TD*%
%TA.AperFunction,Conductor*%
%TO.N,+3.3V*%
G36*
X3716234Y59459815D02*
G01*
X3761989Y59407011D01*
X3771933Y59337853D01*
X3752297Y59286609D01*
X3720609Y59239186D01*
X3720602Y59239173D01*
X3660264Y59093502D01*
X3660261Y59093490D01*
X3629500Y58938847D01*
X3629500Y58781154D01*
X3660261Y58626511D01*
X3660264Y58626499D01*
X3720602Y58480828D01*
X3720609Y58480815D01*
X3808210Y58349712D01*
X3808213Y58349708D01*
X3919707Y58238214D01*
X3919711Y58238211D01*
X4050814Y58150610D01*
X4050827Y58150603D01*
X4196498Y58090265D01*
X4196503Y58090263D01*
X4336076Y58062500D01*
X4351153Y58059501D01*
X4351156Y58059500D01*
X4351158Y58059500D01*
X4508844Y58059500D01*
X4508845Y58059501D01*
X4663497Y58090263D01*
X4809179Y58150606D01*
X4940289Y58238211D01*
X5051789Y58349711D01*
X5139394Y58480821D01*
X5199737Y58626503D01*
X5230500Y58781158D01*
X5230500Y58938842D01*
X5230500Y58938845D01*
X5230499Y58938847D01*
X5216509Y59009179D01*
X5199737Y59093497D01*
X5155501Y59200293D01*
X5139397Y59239173D01*
X5139390Y59239186D01*
X5107703Y59286609D01*
X5086825Y59353287D01*
X5105310Y59420667D01*
X5157289Y59467357D01*
X5210805Y59479500D01*
X11811731Y59479500D01*
X11878770Y59459815D01*
X11924525Y59407011D01*
X11934469Y59337853D01*
X11905444Y59274297D01*
X11884373Y59255708D01*
X11884419Y59255653D01*
X11882880Y59254391D01*
X11880621Y59252397D01*
X11879708Y59251788D01*
X11768213Y59140293D01*
X11768210Y59140289D01*
X11680609Y59009186D01*
X11680602Y59009173D01*
X11620264Y58863502D01*
X11620261Y58863490D01*
X11589500Y58708847D01*
X11589500Y58551154D01*
X11620261Y58396511D01*
X11620264Y58396499D01*
X11680602Y58250828D01*
X11680609Y58250815D01*
X11768210Y58119712D01*
X11768213Y58119708D01*
X11879707Y58008214D01*
X11879711Y58008211D01*
X12010814Y57920610D01*
X12010827Y57920603D01*
X12099785Y57883756D01*
X12156503Y57860263D01*
X12311153Y57829501D01*
X12311156Y57829500D01*
X12311158Y57829500D01*
X12468844Y57829500D01*
X12468845Y57829501D01*
X12623497Y57860263D01*
X12769179Y57920606D01*
X12900289Y58008211D01*
X13011789Y58119711D01*
X13099394Y58250821D01*
X13159737Y58396503D01*
X13190500Y58551158D01*
X13190500Y58708842D01*
X13190500Y58708845D01*
X13190499Y58708847D01*
X13178565Y58768842D01*
X13159737Y58863497D01*
X13159735Y58863502D01*
X13099397Y59009173D01*
X13099390Y59009186D01*
X13011789Y59140289D01*
X13011786Y59140293D01*
X12900291Y59251788D01*
X12899379Y59252397D01*
X12899008Y59252840D01*
X12895581Y59255653D01*
X12896114Y59256304D01*
X12854573Y59306010D01*
X12845866Y59375334D01*
X12876020Y59438362D01*
X12935463Y59475082D01*
X12968269Y59479500D01*
X26258059Y59479500D01*
X26325098Y59459815D01*
X26370853Y59407011D01*
X26380797Y59337853D01*
X26351772Y59274297D01*
X26345740Y59267819D01*
X26278213Y59200293D01*
X26278210Y59200289D01*
X26190609Y59069186D01*
X26190602Y59069173D01*
X26130264Y58923502D01*
X26130261Y58923490D01*
X26099500Y58768847D01*
X26099500Y58611154D01*
X26130261Y58456511D01*
X26130264Y58456499D01*
X26190602Y58310828D01*
X26190609Y58310815D01*
X26231042Y58250303D01*
X26251920Y58183625D01*
X26233435Y58116245D01*
X26181456Y58069555D01*
X26175392Y58066851D01*
X26060827Y58019398D01*
X26060814Y58019391D01*
X25929711Y57931790D01*
X25929707Y57931787D01*
X25818213Y57820293D01*
X25818210Y57820289D01*
X25730609Y57689186D01*
X25730602Y57689173D01*
X25674620Y57554017D01*
X25630779Y57499613D01*
X25564485Y57477548D01*
X25496786Y57494827D01*
X25449175Y57545964D01*
X25445498Y57554017D01*
X25409397Y57641173D01*
X25409390Y57641186D01*
X25321789Y57772289D01*
X25321786Y57772293D01*
X25210292Y57883787D01*
X25210288Y57883790D01*
X25079185Y57971391D01*
X25079172Y57971398D01*
X24933501Y58031736D01*
X24933489Y58031739D01*
X24778845Y58062500D01*
X24778842Y58062500D01*
X24621158Y58062500D01*
X24621155Y58062500D01*
X24466510Y58031739D01*
X24466498Y58031736D01*
X24320827Y57971398D01*
X24320814Y57971391D01*
X24189711Y57883790D01*
X24189707Y57883787D01*
X24078213Y57772293D01*
X24078210Y57772289D01*
X23990609Y57641186D01*
X23990602Y57641173D01*
X23930264Y57495502D01*
X23930261Y57495490D01*
X23899500Y57340847D01*
X23899500Y57183154D01*
X23930261Y57028511D01*
X23930264Y57028499D01*
X23990602Y56882828D01*
X23990609Y56882815D01*
X24078210Y56751712D01*
X24078213Y56751708D01*
X24189707Y56640214D01*
X24189711Y56640211D01*
X24320814Y56552610D01*
X24320827Y56552603D01*
X24425678Y56509173D01*
X24466503Y56492263D01*
X24621153Y56461501D01*
X24621156Y56461500D01*
X24621158Y56461500D01*
X24778844Y56461500D01*
X24778845Y56461501D01*
X24933497Y56492263D01*
X25079179Y56552606D01*
X25210289Y56640211D01*
X25321789Y56751711D01*
X25409394Y56882821D01*
X25465381Y57017987D01*
X25509219Y57072387D01*
X25575513Y57094453D01*
X25643212Y57077175D01*
X25690823Y57026038D01*
X25694501Y57017985D01*
X25730604Y56930825D01*
X25730609Y56930815D01*
X25818210Y56799712D01*
X25822076Y56795001D01*
X25820521Y56793726D01*
X25849587Y56740496D01*
X25844603Y56670804D01*
X25831523Y56645247D01*
X25740609Y56509186D01*
X25740602Y56509173D01*
X25680264Y56363502D01*
X25680261Y56363490D01*
X25649500Y56208847D01*
X25649500Y56051154D01*
X25680261Y55896511D01*
X25680263Y55896503D01*
X25719427Y55801953D01*
X25726896Y55732483D01*
X25695621Y55670004D01*
X25635532Y55634352D01*
X25604866Y55630500D01*
X25481155Y55630500D01*
X25326510Y55599739D01*
X25326498Y55599736D01*
X25180827Y55539398D01*
X25180814Y55539391D01*
X25049711Y55451790D01*
X25049707Y55451787D01*
X24938213Y55340293D01*
X24938210Y55340289D01*
X24850609Y55209186D01*
X24850602Y55209173D01*
X24790264Y55063502D01*
X24790261Y55063490D01*
X24759500Y54908847D01*
X24759500Y54751154D01*
X24790261Y54596511D01*
X24790264Y54596499D01*
X24850602Y54450828D01*
X24850609Y54450815D01*
X24938210Y54319712D01*
X24938213Y54319708D01*
X25049707Y54208214D01*
X25049711Y54208211D01*
X25180814Y54120610D01*
X25180827Y54120603D01*
X25326498Y54060265D01*
X25326503Y54060263D01*
X25447772Y54036141D01*
X25481153Y54029501D01*
X25481156Y54029500D01*
X25481158Y54029500D01*
X25638843Y54029500D01*
X25640034Y54029737D01*
X25640671Y54029680D01*
X25644907Y54030097D01*
X25644986Y54029295D01*
X25709626Y54023515D01*
X25764807Y53980657D01*
X25788057Y53914769D01*
X25778797Y53860670D01*
X25730263Y53743497D01*
X25730262Y53743494D01*
X25730262Y53743493D01*
X25730261Y53743490D01*
X25699500Y53588847D01*
X25699500Y53431154D01*
X25730261Y53276511D01*
X25730264Y53276499D01*
X25790602Y53130828D01*
X25790609Y53130815D01*
X25878210Y52999712D01*
X25878213Y52999708D01*
X25989707Y52888214D01*
X25989711Y52888211D01*
X26120814Y52800610D01*
X26120827Y52800603D01*
X26227846Y52756275D01*
X26266503Y52740263D01*
X26421153Y52709501D01*
X26421156Y52709500D01*
X26421158Y52709500D01*
X26578844Y52709500D01*
X26578845Y52709501D01*
X26733497Y52740263D01*
X26879179Y52800606D01*
X27010289Y52888211D01*
X27121789Y52999711D01*
X27209394Y53130821D01*
X27269737Y53276503D01*
X27300500Y53431158D01*
X27300500Y53588842D01*
X27300500Y53588845D01*
X27300499Y53588847D01*
X27269738Y53743490D01*
X27269737Y53743497D01*
X27254737Y53779711D01*
X27209397Y53889173D01*
X27209390Y53889186D01*
X27121789Y54020289D01*
X27121786Y54020293D01*
X27010292Y54131787D01*
X27010288Y54131790D01*
X26879185Y54219391D01*
X26879172Y54219398D01*
X26733501Y54279736D01*
X26733489Y54279739D01*
X26578845Y54310500D01*
X26578842Y54310500D01*
X26421158Y54310500D01*
X26421150Y54310500D01*
X26419946Y54310260D01*
X26419303Y54310318D01*
X26415093Y54309903D01*
X26415014Y54310702D01*
X26350354Y54316493D01*
X26295181Y54359360D01*
X26271941Y54425252D01*
X26281202Y54479330D01*
X26329737Y54596503D01*
X26360500Y54751158D01*
X26360500Y54908842D01*
X26360500Y54908845D01*
X26360499Y54908847D01*
X26359914Y54911790D01*
X26329737Y55063497D01*
X26290572Y55158049D01*
X26283104Y55227517D01*
X26314379Y55289996D01*
X26374468Y55325648D01*
X26405134Y55329500D01*
X26528844Y55329500D01*
X26528845Y55329501D01*
X26683497Y55360263D01*
X26829179Y55420606D01*
X26960289Y55508211D01*
X27071789Y55619711D01*
X27159394Y55750821D01*
X27219737Y55896503D01*
X27250500Y56051158D01*
X27250500Y56208842D01*
X27250500Y56208845D01*
X27250499Y56208847D01*
X27219738Y56363490D01*
X27219737Y56363497D01*
X27219735Y56363502D01*
X27159397Y56509173D01*
X27159390Y56509186D01*
X27071789Y56640289D01*
X27067924Y56644999D01*
X27069478Y56646275D01*
X27040412Y56699505D01*
X27045396Y56769197D01*
X27058476Y56794755D01*
X27061784Y56799707D01*
X27061789Y56799711D01*
X27149394Y56930821D01*
X27209737Y57076503D01*
X27240500Y57231158D01*
X27240500Y57388842D01*
X27240500Y57388845D01*
X27240499Y57388847D01*
X27209738Y57543490D01*
X27209737Y57543497D01*
X27169276Y57641179D01*
X27149397Y57689173D01*
X27149390Y57689186D01*
X27108957Y57749698D01*
X27088079Y57816375D01*
X27106563Y57883756D01*
X27158542Y57930446D01*
X27164560Y57933130D01*
X27279179Y57980606D01*
X27410289Y58068211D01*
X27521789Y58179711D01*
X27609394Y58310821D01*
X27669737Y58456503D01*
X27700500Y58611158D01*
X27700500Y58768842D01*
X27700500Y58768845D01*
X27700499Y58768847D01*
X27669738Y58923490D01*
X27669737Y58923497D01*
X27634244Y59009186D01*
X27609397Y59069173D01*
X27609390Y59069186D01*
X27521789Y59200289D01*
X27521786Y59200293D01*
X27454260Y59267819D01*
X27420775Y59329142D01*
X27425759Y59398834D01*
X27467631Y59454767D01*
X27533095Y59479184D01*
X27541941Y59479500D01*
X29375500Y59479500D01*
X29442539Y59459815D01*
X29488294Y59407011D01*
X29499500Y59355500D01*
X29499500Y31857703D01*
X29479815Y31790664D01*
X29427011Y31744909D01*
X29357853Y31734965D01*
X29351309Y31736086D01*
X29278845Y31750500D01*
X29278842Y31750500D01*
X29121158Y31750500D01*
X29121155Y31750500D01*
X28966510Y31719739D01*
X28966498Y31719736D01*
X28820827Y31659398D01*
X28820814Y31659391D01*
X28689711Y31571790D01*
X28689707Y31571787D01*
X28578213Y31460293D01*
X28578210Y31460289D01*
X28490609Y31329186D01*
X28490602Y31329173D01*
X28430264Y31183502D01*
X28430261Y31183490D01*
X28399500Y31028847D01*
X28399500Y30871154D01*
X28430261Y30716511D01*
X28430264Y30716499D01*
X28490602Y30570828D01*
X28490609Y30570815D01*
X28578210Y30439712D01*
X28578213Y30439708D01*
X28689707Y30328214D01*
X28689711Y30328211D01*
X28820814Y30240610D01*
X28820827Y30240603D01*
X28947418Y30188168D01*
X28966503Y30180263D01*
X29121153Y30149501D01*
X29121156Y30149500D01*
X29121158Y30149500D01*
X29278843Y30149500D01*
X29294564Y30152628D01*
X29351309Y30163915D01*
X29420899Y30157688D01*
X29476077Y30114826D01*
X29499322Y30048937D01*
X29499500Y30042298D01*
X29499500Y10632888D01*
X29479815Y10565849D01*
X29427011Y10520094D01*
X29375596Y10508888D01*
X27861310Y10507714D01*
X27855398Y10507674D01*
X27852717Y10507640D01*
X27852610Y10507639D01*
X27852605Y10507638D01*
X27851420Y10507617D01*
X27846920Y10507535D01*
X27846917Y10507535D01*
X27705043Y10483678D01*
X27701974Y10482933D01*
X27700782Y10482961D01*
X27700670Y10482942D01*
X27700666Y10482964D01*
X27637908Y10484435D01*
X27628960Y10487055D01*
X27628956Y10487056D01*
X27628953Y10487057D01*
X27557793Y10497232D01*
X27486524Y10507422D01*
X27486520Y10507422D01*
X17371071Y10499578D01*
X17304016Y10519211D01*
X17258221Y10571979D01*
X17248223Y10641130D01*
X17275098Y10702214D01*
X17296605Y10728435D01*
X17312551Y10752317D01*
X17359250Y10839761D01*
X17377754Y10884485D01*
X17406488Y10979361D01*
X17414501Y11019746D01*
X17421758Y11068837D01*
X17424129Y11093037D01*
X17426538Y11142599D01*
X17426362Y11469501D01*
X17425722Y12658847D01*
X18499500Y12658847D01*
X18499500Y12501154D01*
X18530261Y12346511D01*
X18530264Y12346499D01*
X18590602Y12200828D01*
X18590609Y12200815D01*
X18678210Y12069712D01*
X18678213Y12069708D01*
X18789707Y11958214D01*
X18789711Y11958211D01*
X18920814Y11870610D01*
X18920827Y11870603D01*
X18996181Y11839391D01*
X19066503Y11810263D01*
X19221153Y11779501D01*
X19221156Y11779500D01*
X19221158Y11779500D01*
X19378844Y11779500D01*
X19378845Y11779501D01*
X19533497Y11810263D01*
X19679179Y11870606D01*
X19810289Y11958211D01*
X19921789Y12069711D01*
X20009394Y12200821D01*
X20069737Y12346503D01*
X20081160Y12403936D01*
X20113543Y12465844D01*
X20155325Y12494304D01*
X20279172Y12545603D01*
X20279172Y12545604D01*
X20279179Y12545606D01*
X20410289Y12633211D01*
X20521789Y12744711D01*
X20609394Y12875821D01*
X20612719Y12883847D01*
X20631508Y12929210D01*
X20669737Y13021503D01*
X20700500Y13176158D01*
X20700500Y13252650D01*
X20720185Y13319689D01*
X20772989Y13365444D01*
X20842147Y13375388D01*
X20893391Y13355752D01*
X21020814Y13270610D01*
X21020827Y13270603D01*
X21166498Y13210265D01*
X21166503Y13210263D01*
X21316131Y13180500D01*
X21321153Y13179501D01*
X21321156Y13179500D01*
X21321158Y13179500D01*
X21478844Y13179500D01*
X21478845Y13179501D01*
X21633497Y13210263D01*
X21779179Y13270606D01*
X21893708Y13347133D01*
X21960385Y13368010D01*
X22027765Y13349526D01*
X22050280Y13331711D01*
X22073777Y13308214D01*
X22073781Y13308211D01*
X22204884Y13220610D01*
X22204897Y13220603D01*
X22312208Y13176154D01*
X22350573Y13160263D01*
X22505223Y13129501D01*
X22505226Y13129500D01*
X22505228Y13129500D01*
X22662914Y13129500D01*
X22662915Y13129501D01*
X22817567Y13160263D01*
X22963249Y13220606D01*
X23091767Y13306479D01*
X23158444Y13327357D01*
X23225824Y13308873D01*
X23229539Y13306485D01*
X23245821Y13295606D01*
X23245824Y13295605D01*
X23245825Y13295604D01*
X23391498Y13235265D01*
X23391503Y13235263D01*
X23517176Y13210265D01*
X23546153Y13204501D01*
X23546156Y13204500D01*
X23652421Y13204500D01*
X23719460Y13184815D01*
X23755523Y13149391D01*
X23769603Y13128319D01*
X23769606Y13128315D01*
X23881100Y13016821D01*
X23881104Y13016818D01*
X24012207Y12929217D01*
X24012220Y12929210D01*
X24141129Y12875815D01*
X24157896Y12868870D01*
X24312546Y12838108D01*
X24312549Y12838107D01*
X24312551Y12838107D01*
X24470237Y12838107D01*
X24470238Y12838108D01*
X24624890Y12868870D01*
X24661048Y12883847D01*
X27149500Y12883847D01*
X27149500Y12726154D01*
X27180261Y12571511D01*
X27180264Y12571499D01*
X27240602Y12425828D01*
X27240609Y12425815D01*
X27328210Y12294712D01*
X27328213Y12294708D01*
X27439707Y12183214D01*
X27439711Y12183211D01*
X27570814Y12095610D01*
X27570827Y12095603D01*
X27713490Y12036511D01*
X27716503Y12035263D01*
X27871153Y12004501D01*
X27871156Y12004500D01*
X27871158Y12004500D01*
X28028844Y12004500D01*
X28028845Y12004501D01*
X28183497Y12035263D01*
X28329179Y12095606D01*
X28460289Y12183211D01*
X28571789Y12294711D01*
X28659394Y12425821D01*
X28719737Y12571503D01*
X28750500Y12726158D01*
X28750500Y12883842D01*
X28750500Y12883845D01*
X28750499Y12883847D01*
X28741474Y12929217D01*
X28719737Y13038497D01*
X28698655Y13089394D01*
X28659397Y13184173D01*
X28659390Y13184186D01*
X28571789Y13315289D01*
X28571786Y13315293D01*
X28460292Y13426787D01*
X28460288Y13426790D01*
X28329185Y13514391D01*
X28329172Y13514398D01*
X28183501Y13574736D01*
X28183489Y13574739D01*
X28028845Y13605500D01*
X28028842Y13605500D01*
X27871158Y13605500D01*
X27871155Y13605500D01*
X27716510Y13574739D01*
X27716498Y13574736D01*
X27570827Y13514398D01*
X27570814Y13514391D01*
X27439711Y13426790D01*
X27439707Y13426787D01*
X27328213Y13315293D01*
X27328210Y13315289D01*
X27240609Y13184186D01*
X27240602Y13184173D01*
X27180264Y13038502D01*
X27180261Y13038490D01*
X27149500Y12883847D01*
X24661048Y12883847D01*
X24770572Y12929213D01*
X24901682Y13016818D01*
X25013182Y13128318D01*
X25100787Y13259428D01*
X25161130Y13405110D01*
X25191893Y13559765D01*
X25191893Y13717449D01*
X25191893Y13717452D01*
X25191892Y13717454D01*
X25175308Y13800828D01*
X25161130Y13872104D01*
X25159190Y13876787D01*
X25100790Y14017780D01*
X25100783Y14017793D01*
X25013182Y14148896D01*
X25013179Y14148900D01*
X24901685Y14260394D01*
X24901681Y14260397D01*
X24770578Y14347998D01*
X24770565Y14348005D01*
X24624894Y14408343D01*
X24624882Y14408346D01*
X24470238Y14439107D01*
X24470235Y14439107D01*
X24363972Y14439107D01*
X24296933Y14458792D01*
X24260870Y14494216D01*
X24246789Y14515289D01*
X24246786Y14515293D01*
X24135292Y14626787D01*
X24135288Y14626790D01*
X24096338Y14652816D01*
X24051533Y14706429D01*
X24042826Y14775754D01*
X24072981Y14838781D01*
X24132424Y14875500D01*
X24165229Y14879918D01*
X24254671Y14879918D01*
X24254672Y14879919D01*
X24409324Y14910681D01*
X24511623Y14953055D01*
X24581089Y14960523D01*
X24606525Y14953054D01*
X24711279Y14909664D01*
X24742213Y14896851D01*
X24896863Y14866089D01*
X24896866Y14866088D01*
X24896868Y14866088D01*
X25054554Y14866088D01*
X25054555Y14866089D01*
X25209207Y14896851D01*
X25288176Y14929562D01*
X25357641Y14937030D01*
X25390174Y14925716D01*
X25390192Y14925758D01*
X25390930Y14925453D01*
X25394085Y14924355D01*
X25395825Y14923425D01*
X25541498Y14863086D01*
X25541503Y14863084D01*
X25663682Y14838781D01*
X25696153Y14832322D01*
X25696156Y14832321D01*
X25716126Y14832321D01*
X25783165Y14812636D01*
X25828920Y14759832D01*
X25838864Y14690674D01*
X25819228Y14639430D01*
X25765609Y14559185D01*
X25765602Y14559173D01*
X25705264Y14413502D01*
X25705261Y14413490D01*
X25674500Y14258847D01*
X25674500Y14101154D01*
X25705261Y13946511D01*
X25705264Y13946499D01*
X25765602Y13800828D01*
X25765609Y13800815D01*
X25853210Y13669712D01*
X25853213Y13669708D01*
X25964707Y13558214D01*
X25964711Y13558211D01*
X26095814Y13470610D01*
X26095827Y13470603D01*
X26241498Y13410265D01*
X26241503Y13410263D01*
X26396153Y13379501D01*
X26396156Y13379500D01*
X26396158Y13379500D01*
X26553844Y13379500D01*
X26553845Y13379501D01*
X26708497Y13410263D01*
X26854179Y13470606D01*
X26985289Y13558211D01*
X27096789Y13669711D01*
X27184394Y13800821D01*
X27244737Y13946503D01*
X27275500Y14101158D01*
X27275500Y14258842D01*
X27275500Y14258845D01*
X27275499Y14258847D01*
X27273338Y14269712D01*
X27244737Y14413497D01*
X27234129Y14439107D01*
X27184397Y14559173D01*
X27184390Y14559186D01*
X27096789Y14690289D01*
X27096786Y14690293D01*
X26985292Y14801787D01*
X26985288Y14801790D01*
X26854185Y14889391D01*
X26854172Y14889398D01*
X26708501Y14949736D01*
X26708489Y14949739D01*
X26553845Y14980500D01*
X26553842Y14980500D01*
X26533874Y14980500D01*
X26466835Y15000185D01*
X26421080Y15052989D01*
X26411136Y15122147D01*
X26430772Y15173391D01*
X26435540Y15180528D01*
X26484394Y15253642D01*
X26544737Y15399324D01*
X26575500Y15553979D01*
X26575500Y15711663D01*
X26575500Y15711666D01*
X26575499Y15711668D01*
X26544738Y15866311D01*
X26544737Y15866318D01*
X26525020Y15913920D01*
X26484397Y16011994D01*
X26484390Y16012007D01*
X26396789Y16143110D01*
X26396786Y16143114D01*
X26285292Y16254608D01*
X26285288Y16254611D01*
X26154185Y16342212D01*
X26154172Y16342219D01*
X26008501Y16402557D01*
X26008489Y16402560D01*
X25853845Y16433321D01*
X25853842Y16433321D01*
X25696158Y16433321D01*
X25696155Y16433321D01*
X25541511Y16402561D01*
X25541506Y16402559D01*
X25541504Y16402559D01*
X25541503Y16402558D01*
X25541501Y16402557D01*
X25462534Y16369849D01*
X25393064Y16362382D01*
X25360535Y16373693D01*
X25360518Y16373651D01*
X25359797Y16373950D01*
X25356641Y16375047D01*
X25354894Y16375981D01*
X25209211Y16436324D01*
X25209199Y16436327D01*
X25054555Y16467088D01*
X25054552Y16467088D01*
X24896868Y16467088D01*
X24896865Y16467088D01*
X24742220Y16436327D01*
X24742208Y16436324D01*
X24639915Y16393953D01*
X24570445Y16386484D01*
X24545011Y16393953D01*
X24409328Y16450154D01*
X24409316Y16450157D01*
X24254672Y16480918D01*
X24254669Y16480918D01*
X24096985Y16480918D01*
X24096982Y16480918D01*
X23942337Y16450157D01*
X23942325Y16450154D01*
X23796654Y16389816D01*
X23796641Y16389809D01*
X23665538Y16302208D01*
X23665534Y16302205D01*
X23554040Y16190711D01*
X23554037Y16190707D01*
X23466436Y16059604D01*
X23466429Y16059591D01*
X23406091Y15913920D01*
X23406088Y15913908D01*
X23375327Y15759265D01*
X23375327Y15601572D01*
X23406088Y15446929D01*
X23406091Y15446917D01*
X23466429Y15301246D01*
X23466436Y15301233D01*
X23554037Y15170130D01*
X23554040Y15170126D01*
X23665534Y15058632D01*
X23665538Y15058629D01*
X23704489Y15032602D01*
X23749294Y14978989D01*
X23758001Y14909664D01*
X23727846Y14846637D01*
X23668403Y14809918D01*
X23635598Y14805500D01*
X23546155Y14805500D01*
X23391510Y14774739D01*
X23391498Y14774736D01*
X23245827Y14714398D01*
X23245816Y14714392D01*
X23117301Y14628521D01*
X23050624Y14607644D01*
X22983244Y14626129D01*
X22979521Y14628521D01*
X22963249Y14639394D01*
X22963247Y14639395D01*
X22963244Y14639397D01*
X22817571Y14699736D01*
X22817559Y14699739D01*
X22662915Y14730500D01*
X22662912Y14730500D01*
X22505228Y14730500D01*
X22505225Y14730500D01*
X22350580Y14699739D01*
X22350568Y14699736D01*
X22204897Y14639398D01*
X22204886Y14639392D01*
X22090360Y14562868D01*
X22023683Y14541991D01*
X21956303Y14560476D01*
X21933789Y14578290D01*
X21910292Y14601787D01*
X21910288Y14601790D01*
X21779185Y14689391D01*
X21779172Y14689398D01*
X21633501Y14749736D01*
X21633489Y14749739D01*
X21478845Y14780500D01*
X21478842Y14780500D01*
X21321158Y14780500D01*
X21321155Y14780500D01*
X21166510Y14749739D01*
X21166498Y14749736D01*
X21020827Y14689398D01*
X21020814Y14689391D01*
X20889711Y14601790D01*
X20889707Y14601787D01*
X20778213Y14490293D01*
X20778210Y14490289D01*
X20690609Y14359186D01*
X20690602Y14359173D01*
X20630264Y14213502D01*
X20630261Y14213490D01*
X20599500Y14058847D01*
X20599500Y13982351D01*
X20579815Y13915312D01*
X20527011Y13869557D01*
X20457853Y13859613D01*
X20406609Y13879249D01*
X20279185Y13964391D01*
X20279172Y13964398D01*
X20133501Y14024736D01*
X20133489Y14024739D01*
X19978845Y14055500D01*
X19978842Y14055500D01*
X19821158Y14055500D01*
X19821155Y14055500D01*
X19666510Y14024739D01*
X19666498Y14024736D01*
X19520827Y13964398D01*
X19520814Y13964391D01*
X19389711Y13876790D01*
X19389707Y13876787D01*
X19278213Y13765293D01*
X19278210Y13765289D01*
X19190609Y13634186D01*
X19190602Y13634173D01*
X19130264Y13488502D01*
X19130261Y13488493D01*
X19118838Y13431064D01*
X19086452Y13369154D01*
X19044674Y13340696D01*
X18920824Y13289396D01*
X18920814Y13289391D01*
X18789711Y13201790D01*
X18789707Y13201787D01*
X18678213Y13090293D01*
X18678210Y13090289D01*
X18590609Y12959186D01*
X18590602Y12959173D01*
X18530264Y12813502D01*
X18530261Y12813490D01*
X18499500Y12658847D01*
X17425722Y12658847D01*
X17425719Y12664867D01*
X17423083Y17558847D01*
X22299500Y17558847D01*
X22299500Y17401154D01*
X22330261Y17246511D01*
X22330264Y17246499D01*
X22390602Y17100828D01*
X22390609Y17100815D01*
X22478210Y16969712D01*
X22478213Y16969708D01*
X22589707Y16858214D01*
X22589711Y16858211D01*
X22720814Y16770610D01*
X22720827Y16770603D01*
X22866498Y16710265D01*
X22866503Y16710263D01*
X23021153Y16679501D01*
X23021156Y16679500D01*
X23021158Y16679500D01*
X23178844Y16679500D01*
X23178845Y16679501D01*
X23333497Y16710263D01*
X23479179Y16770606D01*
X23610289Y16858211D01*
X23721789Y16969711D01*
X23809394Y17100821D01*
X23869737Y17246503D01*
X23900500Y17401158D01*
X23900500Y17558842D01*
X23900500Y17558845D01*
X23900499Y17558847D01*
X23894360Y17589711D01*
X23869737Y17713497D01*
X23866703Y17720821D01*
X23809397Y17859173D01*
X23809390Y17859186D01*
X23721789Y17990289D01*
X23721786Y17990293D01*
X23610292Y18101787D01*
X23610288Y18101790D01*
X23479185Y18189391D01*
X23479172Y18189398D01*
X23333501Y18249736D01*
X23333489Y18249739D01*
X23178845Y18280500D01*
X23178842Y18280500D01*
X23021158Y18280500D01*
X23021155Y18280500D01*
X22866510Y18249739D01*
X22866498Y18249736D01*
X22720827Y18189398D01*
X22720814Y18189391D01*
X22589711Y18101790D01*
X22589707Y18101787D01*
X22478213Y17990293D01*
X22478210Y17990289D01*
X22390609Y17859186D01*
X22390602Y17859173D01*
X22330264Y17713502D01*
X22330261Y17713490D01*
X22299500Y17558847D01*
X17423083Y17558847D01*
X17423080Y17564867D01*
X17422060Y19458847D01*
X22299500Y19458847D01*
X22299500Y19301154D01*
X22330261Y19146511D01*
X22330264Y19146499D01*
X22390602Y19000828D01*
X22390609Y19000815D01*
X22478210Y18869712D01*
X22478213Y18869708D01*
X22589707Y18758214D01*
X22589711Y18758211D01*
X22720814Y18670610D01*
X22720827Y18670603D01*
X22866440Y18610289D01*
X22866503Y18610263D01*
X23021153Y18579501D01*
X23021156Y18579500D01*
X23021158Y18579500D01*
X23178844Y18579500D01*
X23178845Y18579501D01*
X23333497Y18610263D01*
X23479179Y18670606D01*
X23610289Y18758211D01*
X23721789Y18869711D01*
X23809394Y19000821D01*
X23869737Y19146503D01*
X23900500Y19301158D01*
X23900500Y19458842D01*
X23900500Y19458845D01*
X23900499Y19458847D01*
X23869738Y19613490D01*
X23869737Y19613497D01*
X23869735Y19613502D01*
X23809397Y19759173D01*
X23809390Y19759186D01*
X23721789Y19890289D01*
X23721786Y19890293D01*
X23610292Y20001787D01*
X23610288Y20001790D01*
X23479185Y20089391D01*
X23479172Y20089398D01*
X23333501Y20149736D01*
X23333489Y20149739D01*
X23178845Y20180500D01*
X23178842Y20180500D01*
X23021158Y20180500D01*
X23021155Y20180500D01*
X22866510Y20149739D01*
X22866498Y20149736D01*
X22720827Y20089398D01*
X22720814Y20089391D01*
X22589711Y20001790D01*
X22589707Y20001787D01*
X22478213Y19890293D01*
X22478210Y19890289D01*
X22390609Y19759186D01*
X22390602Y19759173D01*
X22330264Y19613502D01*
X22330261Y19613490D01*
X22299500Y19458847D01*
X17422060Y19458847D01*
X17422057Y19464867D01*
X17421146Y21156090D01*
X17421146Y21156101D01*
X17414124Y21239793D01*
X17407304Y21280282D01*
X17399242Y21311848D01*
X17386523Y21361652D01*
X17354404Y21423954D01*
X17341180Y21492561D01*
X17351796Y21532222D01*
X17380749Y21595709D01*
X17400397Y21662759D01*
X17420796Y21805183D01*
X17420121Y23058847D01*
X17749500Y23058847D01*
X17749500Y22901154D01*
X17780261Y22746511D01*
X17780264Y22746499D01*
X17840602Y22600828D01*
X17840609Y22600815D01*
X17928210Y22469712D01*
X17928213Y22469708D01*
X18039707Y22358214D01*
X18039711Y22358211D01*
X18170814Y22270610D01*
X18170827Y22270603D01*
X18316498Y22210265D01*
X18316503Y22210263D01*
X18471153Y22179501D01*
X18471156Y22179500D01*
X18471158Y22179500D01*
X18628844Y22179500D01*
X18628845Y22179501D01*
X18783497Y22210263D01*
X18929179Y22270606D01*
X19060289Y22358211D01*
X19171789Y22469711D01*
X19259394Y22600821D01*
X19319737Y22746503D01*
X19350500Y22901158D01*
X19350500Y23053800D01*
X19370185Y23120839D01*
X19422989Y23166594D01*
X19492147Y23176538D01*
X19521952Y23168361D01*
X19526218Y23166594D01*
X19541503Y23160263D01*
X19688889Y23130946D01*
X19696153Y23129501D01*
X19696156Y23129500D01*
X19696158Y23129500D01*
X19853844Y23129500D01*
X19853845Y23129501D01*
X20008497Y23160263D01*
X20154179Y23220606D01*
X20285289Y23308211D01*
X20310925Y23333847D01*
X22399500Y23333847D01*
X22399500Y23176154D01*
X22430261Y23021511D01*
X22430264Y23021499D01*
X22490602Y22875828D01*
X22490609Y22875815D01*
X22578210Y22744712D01*
X22578213Y22744708D01*
X22689707Y22633214D01*
X22689711Y22633211D01*
X22820814Y22545610D01*
X22820827Y22545603D01*
X22972130Y22482932D01*
X22971349Y22481048D01*
X23021985Y22447860D01*
X23050440Y22384047D01*
X23039878Y22314981D01*
X22993652Y22262588D01*
X22971889Y22252650D01*
X22972130Y22252068D01*
X22820827Y22189398D01*
X22820814Y22189391D01*
X22689711Y22101790D01*
X22689707Y22101787D01*
X22578213Y21990293D01*
X22578210Y21990289D01*
X22490609Y21859186D01*
X22490602Y21859173D01*
X22430264Y21713502D01*
X22430261Y21713490D01*
X22399500Y21558847D01*
X22399500Y21401154D01*
X22430261Y21246511D01*
X22430264Y21246499D01*
X22490602Y21100828D01*
X22490609Y21100815D01*
X22578210Y20969712D01*
X22578213Y20969708D01*
X22689707Y20858214D01*
X22689711Y20858211D01*
X22820814Y20770610D01*
X22820827Y20770603D01*
X22966498Y20710265D01*
X22966503Y20710263D01*
X23121153Y20679501D01*
X23121156Y20679500D01*
X23121158Y20679500D01*
X23278844Y20679500D01*
X23278845Y20679501D01*
X23433497Y20710263D01*
X23579179Y20770606D01*
X23710289Y20858211D01*
X23821789Y20969711D01*
X23909394Y21100821D01*
X23969737Y21246503D01*
X24000500Y21401158D01*
X24000500Y21558842D01*
X24000500Y21558845D01*
X24000499Y21558847D01*
X23979829Y21662759D01*
X23969737Y21713497D01*
X23938298Y21789398D01*
X23909397Y21859173D01*
X23909390Y21859186D01*
X23821789Y21990289D01*
X23821786Y21990293D01*
X23710292Y22101787D01*
X23710288Y22101790D01*
X23579185Y22189391D01*
X23579172Y22189398D01*
X23427870Y22252068D01*
X23428651Y22253956D01*
X23378021Y22287131D01*
X23349561Y22350941D01*
X23360116Y22420009D01*
X23406337Y22472405D01*
X23428111Y22482350D01*
X23427870Y22482932D01*
X23579172Y22545603D01*
X23579172Y22545604D01*
X23579179Y22545606D01*
X23710289Y22633211D01*
X23821789Y22744711D01*
X23909394Y22875821D01*
X23969737Y23021503D01*
X24000500Y23176158D01*
X24000500Y23333842D01*
X24000500Y23333845D01*
X24000499Y23333847D01*
X23992601Y23373553D01*
X23969737Y23488497D01*
X23936099Y23569708D01*
X23909397Y23634173D01*
X23909390Y23634186D01*
X23821789Y23765289D01*
X23821786Y23765293D01*
X23710292Y23876787D01*
X23710288Y23876790D01*
X23579185Y23964391D01*
X23579172Y23964398D01*
X23433501Y24024736D01*
X23433489Y24024739D01*
X23278845Y24055500D01*
X23278842Y24055500D01*
X23121158Y24055500D01*
X23121155Y24055500D01*
X22966510Y24024739D01*
X22966498Y24024736D01*
X22820827Y23964398D01*
X22820814Y23964391D01*
X22689711Y23876790D01*
X22689707Y23876787D01*
X22578213Y23765293D01*
X22578210Y23765289D01*
X22490609Y23634186D01*
X22490602Y23634173D01*
X22430264Y23488502D01*
X22430261Y23488490D01*
X22399500Y23333847D01*
X20310925Y23333847D01*
X20396789Y23419711D01*
X20484394Y23550821D01*
X20544737Y23696503D01*
X20575500Y23851158D01*
X20575500Y24008842D01*
X20575500Y24008845D01*
X20575499Y24008847D01*
X20557063Y24101528D01*
X20544737Y24163497D01*
X20544735Y24163502D01*
X20484397Y24309173D01*
X20484390Y24309186D01*
X20396789Y24440289D01*
X20396786Y24440293D01*
X20285292Y24551787D01*
X20285288Y24551790D01*
X20154185Y24639391D01*
X20154172Y24639398D01*
X20008501Y24699736D01*
X20008489Y24699739D01*
X19853845Y24730500D01*
X19853842Y24730500D01*
X19696158Y24730500D01*
X19696155Y24730500D01*
X19541510Y24699739D01*
X19541498Y24699736D01*
X19395827Y24639398D01*
X19395814Y24639391D01*
X19264711Y24551790D01*
X19264707Y24551787D01*
X19153213Y24440293D01*
X19153210Y24440289D01*
X19065609Y24309186D01*
X19065602Y24309173D01*
X19005264Y24163502D01*
X19005261Y24163490D01*
X18974500Y24008847D01*
X18974500Y23856201D01*
X18954815Y23789162D01*
X18902011Y23743407D01*
X18832853Y23733463D01*
X18803051Y23741638D01*
X18792654Y23745944D01*
X18783497Y23749737D01*
X18783493Y23749738D01*
X18783489Y23749739D01*
X18628845Y23780500D01*
X18628842Y23780500D01*
X18471158Y23780500D01*
X18471155Y23780500D01*
X18316510Y23749739D01*
X18316498Y23749736D01*
X18170827Y23689398D01*
X18170814Y23689391D01*
X18039711Y23601790D01*
X18039707Y23601787D01*
X17928213Y23490293D01*
X17928210Y23490289D01*
X17840609Y23359186D01*
X17840602Y23359173D01*
X17780264Y23213502D01*
X17780261Y23213490D01*
X17749500Y23058847D01*
X17420121Y23058847D01*
X17418667Y25758847D01*
X21074500Y25758847D01*
X21074500Y25601154D01*
X21105261Y25446511D01*
X21105264Y25446499D01*
X21165602Y25300828D01*
X21165609Y25300815D01*
X21253210Y25169712D01*
X21253213Y25169708D01*
X21364707Y25058214D01*
X21364711Y25058211D01*
X21495814Y24970610D01*
X21495827Y24970603D01*
X21641498Y24910265D01*
X21641503Y24910263D01*
X21791131Y24880500D01*
X21796153Y24879501D01*
X21796156Y24879500D01*
X21796158Y24879500D01*
X21953844Y24879500D01*
X21953845Y24879501D01*
X22108497Y24910263D01*
X22254179Y24970606D01*
X22385289Y25058211D01*
X22496789Y25169711D01*
X22584394Y25300821D01*
X22644737Y25446503D01*
X22675500Y25601158D01*
X22675500Y25758842D01*
X22675500Y25758845D01*
X22675499Y25758847D01*
X22672841Y25772211D01*
X22644737Y25913497D01*
X22588606Y26049011D01*
X22584397Y26059173D01*
X22584390Y26059186D01*
X22496789Y26190289D01*
X22496786Y26190293D01*
X22385292Y26301787D01*
X22385288Y26301790D01*
X22254185Y26389391D01*
X22254172Y26389398D01*
X22108501Y26449736D01*
X22108489Y26449739D01*
X21953845Y26480500D01*
X21953842Y26480500D01*
X21796158Y26480500D01*
X21796155Y26480500D01*
X21641510Y26449739D01*
X21641498Y26449736D01*
X21495827Y26389398D01*
X21495814Y26389391D01*
X21364711Y26301790D01*
X21364707Y26301787D01*
X21253213Y26190293D01*
X21253210Y26190289D01*
X21165609Y26059186D01*
X21165602Y26059173D01*
X21105264Y25913502D01*
X21105261Y25913490D01*
X21074500Y25758847D01*
X17418667Y25758847D01*
X17418286Y26465586D01*
X17437935Y26532635D01*
X17490714Y26578419D01*
X17559867Y26588399D01*
X17611177Y26568754D01*
X17624183Y26560064D01*
X17645821Y26545606D01*
X17645823Y26545605D01*
X17645827Y26545603D01*
X17781271Y26489501D01*
X17791503Y26485263D01*
X17946153Y26454501D01*
X17946156Y26454500D01*
X17946158Y26454500D01*
X18103844Y26454500D01*
X18103845Y26454501D01*
X18258497Y26485263D01*
X18404179Y26545606D01*
X18535289Y26633211D01*
X18646789Y26744711D01*
X18685886Y26803224D01*
X18739497Y26848029D01*
X18808821Y26856738D01*
X18813180Y26855951D01*
X18946155Y26829500D01*
X18946158Y26829500D01*
X19103844Y26829500D01*
X19103845Y26829501D01*
X19258497Y26860263D01*
X19404179Y26920606D01*
X19535289Y27008211D01*
X19539725Y27012649D01*
X19601043Y27046139D01*
X19627334Y27048976D01*
X20250871Y27049342D01*
X20358175Y27060927D01*
X20358175Y27060928D01*
X20358582Y27060971D01*
X20427347Y27048597D01*
X20440778Y27040793D01*
X20545821Y26970606D01*
X20545823Y26970605D01*
X20545827Y26970603D01*
X20690139Y26910828D01*
X20691503Y26910263D01*
X20829905Y26882733D01*
X20846153Y26879501D01*
X20846156Y26879500D01*
X20846158Y26879500D01*
X21003844Y26879500D01*
X21003845Y26879501D01*
X21158497Y26910263D01*
X21304179Y26970606D01*
X21414913Y27044597D01*
X21481587Y27065473D01*
X21501362Y27064242D01*
X21599871Y27050138D01*
X21599872Y27050139D01*
X21599873Y27050138D01*
X21604043Y27050141D01*
X25123847Y27052216D01*
X25142153Y27054193D01*
X25193179Y27059701D01*
X25261944Y27047327D01*
X25313103Y26999740D01*
X25330413Y26932049D01*
X25309592Y26867528D01*
X25270612Y26809191D01*
X25270602Y26809173D01*
X25210264Y26663502D01*
X25210261Y26663490D01*
X25179500Y26508847D01*
X25179500Y26351154D01*
X25210261Y26196511D01*
X25210264Y26196499D01*
X25270602Y26050828D01*
X25270609Y26050815D01*
X25358210Y25919712D01*
X25358213Y25919708D01*
X25469707Y25808214D01*
X25469711Y25808211D01*
X25600814Y25720610D01*
X25600827Y25720603D01*
X25745414Y25660714D01*
X25746503Y25660263D01*
X25901153Y25629501D01*
X25901156Y25629500D01*
X25901158Y25629500D01*
X26058844Y25629500D01*
X26058845Y25629501D01*
X26213497Y25660263D01*
X26359179Y25720606D01*
X26490289Y25808211D01*
X26601789Y25919711D01*
X26689394Y26050821D01*
X26692854Y26059173D01*
X26747163Y26190289D01*
X26749737Y26196503D01*
X26780500Y26351158D01*
X26780500Y26508842D01*
X26780500Y26508845D01*
X26780499Y26508847D01*
X26755761Y26633211D01*
X26749737Y26663497D01*
X26749735Y26663502D01*
X26702123Y26778450D01*
X26694654Y26847919D01*
X26725930Y26910398D01*
X26786019Y26946050D01*
X26855844Y26943556D01*
X26885570Y26929007D01*
X26970821Y26872044D01*
X26970823Y26872043D01*
X26970827Y26872041D01*
X27073532Y26829500D01*
X27116503Y26811701D01*
X27271153Y26780939D01*
X27271156Y26780938D01*
X27271158Y26780938D01*
X27428844Y26780938D01*
X27428845Y26780939D01*
X27583497Y26811701D01*
X27729179Y26872044D01*
X27860289Y26959649D01*
X27971789Y27071149D01*
X28059394Y27202259D01*
X28119737Y27347941D01*
X28150500Y27502596D01*
X28150500Y27660280D01*
X28150500Y27660281D01*
X28150500Y27660283D01*
X28150499Y27660285D01*
X28135458Y27735900D01*
X28119737Y27814935D01*
X28109317Y27840092D01*
X28059397Y27960611D01*
X28059390Y27960624D01*
X27971789Y28091727D01*
X27971786Y28091731D01*
X27927662Y28135854D01*
X27894176Y28197177D01*
X27893725Y28247725D01*
X27904500Y28301893D01*
X27904500Y28459577D01*
X27904500Y28459580D01*
X27904499Y28459582D01*
X27899202Y28486213D01*
X27873737Y28614232D01*
X27853023Y28664241D01*
X27813397Y28759908D01*
X27813390Y28759921D01*
X27725789Y28891024D01*
X27725786Y28891028D01*
X27614292Y29002522D01*
X27614288Y29002525D01*
X27483185Y29090126D01*
X27483172Y29090133D01*
X27378173Y29133624D01*
X27323769Y29177465D01*
X27301704Y29243759D01*
X27318983Y29311458D01*
X27337945Y29335867D01*
X27371786Y29369708D01*
X27371789Y29369711D01*
X27459394Y29500821D01*
X27519737Y29646503D01*
X27550500Y29801158D01*
X27550500Y29958842D01*
X27550500Y29958845D01*
X27550499Y29958847D01*
X27532579Y30048937D01*
X27519737Y30113497D01*
X27501433Y30157688D01*
X27459397Y30259173D01*
X27459390Y30259186D01*
X27371789Y30390289D01*
X27371786Y30390293D01*
X27260292Y30501787D01*
X27260288Y30501790D01*
X27129185Y30589391D01*
X27129172Y30589398D01*
X26983501Y30649736D01*
X26983489Y30649739D01*
X26828845Y30680500D01*
X26828842Y30680500D01*
X26671158Y30680500D01*
X26671155Y30680500D01*
X26516510Y30649739D01*
X26516498Y30649736D01*
X26370827Y30589398D01*
X26370814Y30589391D01*
X26239711Y30501790D01*
X26239707Y30501787D01*
X26128213Y30390293D01*
X26128210Y30390289D01*
X26040609Y30259186D01*
X26040602Y30259173D01*
X25991537Y30140716D01*
X25947696Y30086312D01*
X25881402Y30064247D01*
X25813703Y30081526D01*
X25766092Y30132663D01*
X25752976Y30188168D01*
X25752976Y36378847D01*
X26689500Y36378847D01*
X26689500Y36221154D01*
X26720261Y36066511D01*
X26720264Y36066499D01*
X26780602Y35920828D01*
X26780609Y35920815D01*
X26868210Y35789712D01*
X26868213Y35789708D01*
X26979707Y35678214D01*
X26979711Y35678211D01*
X27110814Y35590610D01*
X27110827Y35590603D01*
X27256498Y35530265D01*
X27256503Y35530263D01*
X27411153Y35499501D01*
X27411156Y35499500D01*
X27411158Y35499500D01*
X27568844Y35499500D01*
X27568845Y35499501D01*
X27723497Y35530263D01*
X27869179Y35590606D01*
X28000289Y35678211D01*
X28111789Y35789711D01*
X28199394Y35920821D01*
X28259737Y36066503D01*
X28290500Y36221158D01*
X28290500Y36378842D01*
X28290500Y36378845D01*
X28290499Y36378847D01*
X28269046Y36486696D01*
X28259737Y36533497D01*
X28245375Y36568171D01*
X28199397Y36679173D01*
X28199390Y36679186D01*
X28111789Y36810289D01*
X28111786Y36810293D01*
X28000292Y36921787D01*
X28000288Y36921790D01*
X27869185Y37009391D01*
X27869172Y37009398D01*
X27723501Y37069736D01*
X27723489Y37069739D01*
X27568845Y37100500D01*
X27568842Y37100500D01*
X27411158Y37100500D01*
X27411155Y37100500D01*
X27256510Y37069739D01*
X27256498Y37069736D01*
X27110827Y37009398D01*
X27110814Y37009391D01*
X26979711Y36921790D01*
X26979707Y36921787D01*
X26868213Y36810293D01*
X26868210Y36810289D01*
X26780609Y36679186D01*
X26780602Y36679173D01*
X26720264Y36533502D01*
X26720261Y36533490D01*
X26689500Y36378847D01*
X25752976Y36378847D01*
X25752976Y37247818D01*
X25752976Y37247822D01*
X25741738Y37353819D01*
X25730834Y37404664D01*
X25697623Y37505940D01*
X25620552Y37627437D01*
X25620547Y37627442D01*
X25620546Y37627445D01*
X25575121Y37680499D01*
X25575105Y37680515D01*
X25511678Y37736134D01*
X25498837Y37756377D01*
X25482513Y37773933D01*
X25480461Y37785345D01*
X25474252Y37795134D01*
X25474393Y37819105D01*
X25470152Y37842700D01*
X25474635Y37860220D01*
X25474664Y37865002D01*
X25478903Y37876892D01*
X25479374Y37878027D01*
X25523250Y37932402D01*
X25589559Y37954424D01*
X25593904Y37954500D01*
X25628844Y37954500D01*
X25628845Y37954501D01*
X25783497Y37985263D01*
X25902550Y38034577D01*
X25972017Y38042045D01*
X25997450Y38034578D01*
X26116506Y37985263D01*
X26266943Y37955339D01*
X26271156Y37954501D01*
X26271159Y37954500D01*
X26271161Y37954500D01*
X26428847Y37954500D01*
X26428848Y37954501D01*
X26583500Y37985263D01*
X26729182Y38045606D01*
X26729187Y38045610D01*
X26734549Y38048475D01*
X26735525Y38046649D01*
X26793190Y38064717D01*
X26842879Y38055298D01*
X26915505Y38025216D01*
X26915510Y38025214D01*
X27031475Y38002147D01*
X27070160Y37994452D01*
X27070163Y37994451D01*
X27070165Y37994451D01*
X27227851Y37994451D01*
X27227852Y37994452D01*
X27382504Y38025214D01*
X27528186Y38085557D01*
X27659296Y38173162D01*
X27770796Y38284662D01*
X27858401Y38415772D01*
X27918744Y38561454D01*
X27949507Y38716109D01*
X27949507Y38873793D01*
X27949507Y38873796D01*
X27949506Y38873798D01*
X27930071Y38971503D01*
X27918744Y39028448D01*
X27904229Y39063490D01*
X27858404Y39174124D01*
X27858397Y39174137D01*
X27770796Y39305240D01*
X27770793Y39305244D01*
X27659299Y39416738D01*
X27659295Y39416741D01*
X27528192Y39504342D01*
X27528179Y39504349D01*
X27382508Y39564687D01*
X27382496Y39564690D01*
X27227852Y39595451D01*
X27227849Y39595451D01*
X27070165Y39595451D01*
X27070162Y39595451D01*
X26915517Y39564690D01*
X26915505Y39564687D01*
X26769830Y39504347D01*
X26764459Y39501475D01*
X26763486Y39503296D01*
X26705784Y39485234D01*
X26656130Y39494653D01*
X26583501Y39524737D01*
X26583491Y39524740D01*
X26428848Y39555500D01*
X26428845Y39555500D01*
X26271161Y39555500D01*
X26271158Y39555500D01*
X26116513Y39524739D01*
X26116501Y39524736D01*
X25997453Y39475425D01*
X25927983Y39467956D01*
X25902549Y39475425D01*
X25783501Y39524736D01*
X25783489Y39524739D01*
X25628845Y39555500D01*
X25628842Y39555500D01*
X25471158Y39555500D01*
X25471155Y39555500D01*
X25316510Y39524739D01*
X25316498Y39524736D01*
X25170827Y39464398D01*
X25170814Y39464391D01*
X25039711Y39376790D01*
X25039707Y39376787D01*
X24928213Y39265293D01*
X24928210Y39265289D01*
X24840609Y39134186D01*
X24840602Y39134173D01*
X24808657Y39057048D01*
X24764816Y39002644D01*
X24698522Y38980579D01*
X24694096Y38980500D01*
X24659155Y38980500D01*
X24504510Y38949739D01*
X24504498Y38949736D01*
X24358827Y38889398D01*
X24358814Y38889391D01*
X24227711Y38801790D01*
X24227707Y38801787D01*
X24116213Y38690293D01*
X24116210Y38690289D01*
X24028609Y38559186D01*
X24028602Y38559173D01*
X23968264Y38413502D01*
X23968261Y38413490D01*
X23937500Y38258847D01*
X23937500Y38101159D01*
X23951025Y38033161D01*
X23944796Y37963570D01*
X23901933Y37908393D01*
X23836043Y37885149D01*
X23828676Y37884973D01*
X21221577Y37900353D01*
X20982178Y37901765D01*
X20982175Y37901765D01*
X20982166Y37901765D01*
X20950628Y37900966D01*
X20950611Y37900966D01*
X20950609Y37900965D01*
X20948477Y37900845D01*
X20935135Y37900089D01*
X20903731Y37897324D01*
X20903722Y37897322D01*
X20764756Y37860085D01*
X20764753Y37860084D01*
X20724160Y37842700D01*
X20700524Y37832578D01*
X20700522Y37832578D01*
X20700513Y37832573D01*
X20577672Y37757696D01*
X20577669Y37757693D01*
X20480890Y37651231D01*
X20441724Y37593362D01*
X20441718Y37593351D01*
X20439535Y37588857D01*
X20392533Y37537161D01*
X20325042Y37519082D01*
X20258492Y37540362D01*
X20223295Y37576624D01*
X20170666Y37659590D01*
X20170663Y37659593D01*
X20170660Y37659598D01*
X20125232Y37712655D01*
X20125217Y37712670D01*
X20017050Y37807521D01*
X20017049Y37807522D01*
X20017047Y37807523D01*
X20017041Y37807527D01*
X19886536Y37868063D01*
X19886530Y37868065D01*
X19819608Y37888146D01*
X19819607Y37888147D01*
X19677305Y37909465D01*
X13699003Y37944735D01*
X13698988Y37944734D01*
X13601822Y37935890D01*
X13601818Y37935889D01*
X13578403Y37931448D01*
X13554999Y37927008D01*
X13554997Y37927008D01*
X13554989Y37927006D01*
X13554988Y37927006D01*
X13461336Y37899657D01*
X13461329Y37899654D01*
X13336730Y37827717D01*
X13303816Y37801834D01*
X13238951Y37775868D01*
X13223911Y37775350D01*
X13213335Y37775628D01*
X13188842Y37780500D01*
X13031158Y37780500D01*
X13030773Y37780424D01*
X13026227Y37780543D01*
X12994457Y37790785D01*
X12962444Y37800185D01*
X12961337Y37801462D01*
X12959727Y37801981D01*
X12938524Y37827790D01*
X12916689Y37852989D01*
X12916448Y37854662D01*
X12915375Y37855968D01*
X12911494Y37889115D01*
X12906745Y37922147D01*
X12907447Y37923686D01*
X12907251Y37925364D01*
X12921902Y37955339D01*
X12935770Y37985703D01*
X12937276Y37986790D01*
X12937935Y37988136D01*
X12945520Y37992734D01*
X12982031Y38019061D01*
X13088172Y38063026D01*
X13088172Y38063027D01*
X13088179Y38063029D01*
X13219289Y38150634D01*
X13330789Y38262134D01*
X13388045Y38347824D01*
X13441655Y38392627D01*
X13510980Y38401335D01*
X13515338Y38400549D01*
X13621155Y38379500D01*
X13621158Y38379500D01*
X13778844Y38379500D01*
X13778845Y38379501D01*
X13933497Y38410263D01*
X14079179Y38470606D01*
X14101370Y38485434D01*
X14168044Y38506312D01*
X14217712Y38496893D01*
X14366498Y38435265D01*
X14366503Y38435263D01*
X14475963Y38413490D01*
X14521153Y38404501D01*
X14521156Y38404500D01*
X14521158Y38404500D01*
X14678844Y38404500D01*
X14678845Y38404501D01*
X14833497Y38435263D01*
X14979179Y38495606D01*
X15110289Y38583211D01*
X15221789Y38694711D01*
X15309394Y38825821D01*
X15369737Y38971503D01*
X15400500Y39126158D01*
X15400500Y39283842D01*
X15400500Y39283845D01*
X15400499Y39283847D01*
X15396243Y39305244D01*
X15369737Y39438497D01*
X15364231Y39451790D01*
X15350953Y39483847D01*
X19674500Y39483847D01*
X19674500Y39326154D01*
X19705261Y39171511D01*
X19705264Y39171499D01*
X19765602Y39025828D01*
X19765609Y39025815D01*
X19853210Y38894712D01*
X19853213Y38894708D01*
X19964707Y38783214D01*
X19964711Y38783211D01*
X20095814Y38695610D01*
X20095827Y38695603D01*
X20221943Y38643365D01*
X20241503Y38635263D01*
X20396153Y38604501D01*
X20396156Y38604500D01*
X20396158Y38604500D01*
X20553844Y38604500D01*
X20553845Y38604501D01*
X20708497Y38635263D01*
X20854179Y38695606D01*
X20985289Y38783211D01*
X21096789Y38894711D01*
X21184394Y39025821D01*
X21244737Y39171503D01*
X21275500Y39326158D01*
X21275500Y39483842D01*
X21275500Y39483845D01*
X21275499Y39483847D01*
X21266787Y39527644D01*
X21244737Y39638497D01*
X21212929Y39715289D01*
X21184397Y39784173D01*
X21184390Y39784186D01*
X21096789Y39915289D01*
X21096786Y39915293D01*
X20985292Y40026787D01*
X20985288Y40026790D01*
X20854185Y40114391D01*
X20854172Y40114398D01*
X20708501Y40174736D01*
X20708489Y40174739D01*
X20553845Y40205500D01*
X20553842Y40205500D01*
X20396158Y40205500D01*
X20396155Y40205500D01*
X20241510Y40174739D01*
X20241498Y40174736D01*
X20095827Y40114398D01*
X20095814Y40114391D01*
X19964711Y40026790D01*
X19964707Y40026787D01*
X19853213Y39915293D01*
X19853210Y39915289D01*
X19765609Y39784186D01*
X19765602Y39784173D01*
X19705264Y39638502D01*
X19705261Y39638490D01*
X19674500Y39483847D01*
X15350953Y39483847D01*
X15309397Y39584173D01*
X15309390Y39584186D01*
X15221789Y39715289D01*
X15221786Y39715293D01*
X15110292Y39826787D01*
X15110288Y39826790D01*
X14979185Y39914391D01*
X14979172Y39914398D01*
X14833501Y39974736D01*
X14833489Y39974739D01*
X14678845Y40005500D01*
X14678842Y40005500D01*
X14521158Y40005500D01*
X14521155Y40005500D01*
X14366510Y39974739D01*
X14366498Y39974736D01*
X14220828Y39914398D01*
X14220814Y39914390D01*
X14198626Y39899565D01*
X14131947Y39878689D01*
X14082286Y39888108D01*
X13933501Y39949736D01*
X13933489Y39949739D01*
X13778845Y39980500D01*
X13778842Y39980500D01*
X13621158Y39980500D01*
X13621155Y39980500D01*
X13466510Y39949739D01*
X13466498Y39949736D01*
X13320827Y39889398D01*
X13320814Y39889391D01*
X13189711Y39801790D01*
X13189707Y39801787D01*
X13078213Y39690293D01*
X13078210Y39690289D01*
X13020955Y39604601D01*
X12967342Y39559796D01*
X12898017Y39551089D01*
X12893662Y39551875D01*
X12787846Y39572923D01*
X12787842Y39572923D01*
X12630158Y39572923D01*
X12630155Y39572923D01*
X12475510Y39542162D01*
X12475498Y39542159D01*
X12329827Y39481821D01*
X12329814Y39481814D01*
X12198711Y39394213D01*
X12198707Y39394210D01*
X12087213Y39282716D01*
X12087210Y39282712D01*
X11999609Y39151609D01*
X11999602Y39151596D01*
X11939264Y39005925D01*
X11939261Y39005913D01*
X11908500Y38851270D01*
X11908500Y38693577D01*
X11939261Y38538934D01*
X11939264Y38538922D01*
X11999602Y38393251D01*
X11999609Y38393238D01*
X12087210Y38262135D01*
X12087213Y38262131D01*
X12198707Y38150637D01*
X12198711Y38150634D01*
X12329814Y38063033D01*
X12329827Y38063026D01*
X12475498Y38002688D01*
X12475503Y38002686D01*
X12630153Y37971924D01*
X12630156Y37971923D01*
X12789517Y37971923D01*
X12856556Y37952238D01*
X12902311Y37899434D01*
X12912255Y37830276D01*
X12883230Y37766720D01*
X12836969Y37733362D01*
X12730827Y37689398D01*
X12730814Y37689391D01*
X12599711Y37601790D01*
X12599707Y37601787D01*
X12488213Y37490293D01*
X12488210Y37490289D01*
X12400609Y37359186D01*
X12400602Y37359173D01*
X12340264Y37213502D01*
X12340261Y37213490D01*
X12309500Y37058847D01*
X12309500Y36901154D01*
X12340263Y36746500D01*
X12340587Y36745432D01*
X12340592Y36744846D01*
X12341451Y36740528D01*
X12340632Y36740366D01*
X12341209Y36675566D01*
X12334720Y36657928D01*
X12287140Y36553746D01*
X12287138Y36553742D01*
X12283214Y36540379D01*
X12281907Y36535925D01*
X12281907Y36535924D01*
X12281906Y36535925D01*
X12267453Y36486704D01*
X12267452Y36486699D01*
X12246976Y36344279D01*
X12246976Y34369296D01*
X12227291Y34302257D01*
X12174487Y34256502D01*
X12105329Y34246558D01*
X12041773Y34275583D01*
X12008415Y34321844D01*
X11963648Y34429922D01*
X11963641Y34429935D01*
X11876040Y34561038D01*
X11876037Y34561042D01*
X11764543Y34672536D01*
X11764539Y34672539D01*
X11633436Y34760140D01*
X11633430Y34760143D01*
X11595846Y34775711D01*
X11541443Y34819553D01*
X11519379Y34885847D01*
X11528739Y34937725D01*
X11587252Y35078988D01*
X11618015Y35233643D01*
X11618015Y35391327D01*
X11618015Y35391330D01*
X11618014Y35391332D01*
X11617954Y35391636D01*
X11587252Y35545982D01*
X11581502Y35559864D01*
X11526912Y35691658D01*
X11526905Y35691671D01*
X11439304Y35822774D01*
X11439301Y35822778D01*
X11327807Y35934272D01*
X11327803Y35934275D01*
X11196700Y36021876D01*
X11196687Y36021883D01*
X11051016Y36082221D01*
X11051004Y36082224D01*
X10896360Y36112985D01*
X10896357Y36112985D01*
X10738673Y36112985D01*
X10738670Y36112985D01*
X10584025Y36082224D01*
X10584013Y36082221D01*
X10438342Y36021883D01*
X10438329Y36021876D01*
X10307226Y35934275D01*
X10307222Y35934272D01*
X10195728Y35822778D01*
X10195725Y35822774D01*
X10108124Y35691671D01*
X10108117Y35691658D01*
X10047779Y35545987D01*
X10047776Y35545975D01*
X10017015Y35391332D01*
X10017015Y35233639D01*
X10047776Y35078996D01*
X10047779Y35078984D01*
X10108117Y34933313D01*
X10108124Y34933300D01*
X10195725Y34802197D01*
X10195728Y34802193D01*
X10307222Y34690699D01*
X10307226Y34690696D01*
X10438329Y34603095D01*
X10438336Y34603091D01*
X10475918Y34587525D01*
X10530321Y34543684D01*
X10552387Y34477390D01*
X10543027Y34425511D01*
X10484515Y34284251D01*
X10484512Y34284239D01*
X10453751Y34129596D01*
X10453751Y33971903D01*
X10484512Y33817260D01*
X10484515Y33817248D01*
X10544853Y33671577D01*
X10544860Y33671564D01*
X10632461Y33540461D01*
X10632464Y33540457D01*
X10743958Y33428963D01*
X10743962Y33428960D01*
X10875065Y33341359D01*
X10875078Y33341352D01*
X10966943Y33303301D01*
X11020754Y33281012D01*
X11175404Y33250250D01*
X11175407Y33250249D01*
X11175409Y33250249D01*
X11333095Y33250249D01*
X11333096Y33250250D01*
X11487748Y33281012D01*
X11614565Y33333541D01*
X11633423Y33341352D01*
X11633423Y33341353D01*
X11633430Y33341355D01*
X11764540Y33428960D01*
X11876040Y33540460D01*
X11963645Y33671570D01*
X12008415Y33779655D01*
X12052255Y33834059D01*
X12118549Y33856124D01*
X12186249Y33838845D01*
X12233860Y33787708D01*
X12246976Y33732203D01*
X12246976Y33483514D01*
X12261941Y33361430D01*
X12261942Y33361425D01*
X12266938Y33341352D01*
X12276409Y33303301D01*
X12299201Y33243816D01*
X12305692Y33178886D01*
X12297545Y33130437D01*
X12280787Y33030788D01*
X12279124Y32960940D01*
X12279124Y32960936D01*
X12291952Y32853649D01*
X12296206Y32818076D01*
X12296207Y32818067D01*
X12298412Y32809839D01*
X12297680Y32779166D01*
X12299141Y32748517D01*
X12296811Y32742699D01*
X12296747Y32739989D01*
X12286024Y32715751D01*
X12280888Y32706855D01*
X12276266Y32699463D01*
X12269477Y32689410D01*
X12269476Y32689409D01*
X12209351Y32558689D01*
X12190082Y32493713D01*
X12189600Y32492185D01*
X12189486Y32491704D01*
X12168627Y32349344D01*
X12167927Y32089548D01*
X12148061Y32022562D01*
X12095134Y31976949D01*
X12025949Y31967192D01*
X11996476Y31975320D01*
X11983396Y31980738D01*
X11983392Y31980739D01*
X11983388Y31980740D01*
X11828744Y32011501D01*
X11828741Y32011501D01*
X11671057Y32011501D01*
X11671054Y32011501D01*
X11516409Y31980740D01*
X11516397Y31980737D01*
X11370726Y31920399D01*
X11370713Y31920392D01*
X11239610Y31832791D01*
X11239606Y31832788D01*
X11128112Y31721294D01*
X11128109Y31721290D01*
X11040508Y31590187D01*
X11040501Y31590174D01*
X10980163Y31444503D01*
X10980160Y31444491D01*
X10949399Y31289848D01*
X10949399Y31132155D01*
X10980160Y30977512D01*
X10980163Y30977500D01*
X11040501Y30831829D01*
X11040508Y30831816D01*
X11128109Y30700713D01*
X11128112Y30700709D01*
X11239606Y30589215D01*
X11239610Y30589212D01*
X11370713Y30501611D01*
X11370726Y30501604D01*
X11490029Y30452188D01*
X11516402Y30441264D01*
X11618708Y30420914D01*
X11671052Y30410502D01*
X11671055Y30410501D01*
X11671057Y30410501D01*
X11828743Y30410501D01*
X11828744Y30410502D01*
X11983396Y30441264D01*
X11991735Y30444719D01*
X12061204Y30452188D01*
X12123683Y30420914D01*
X12159337Y30360826D01*
X12163189Y30329824D01*
X12162291Y29996111D01*
X12161591Y29735925D01*
X12161036Y29529888D01*
X12162763Y29506039D01*
X12162785Y29501860D01*
X12154221Y29472137D01*
X12147673Y29441901D01*
X12144155Y29437198D01*
X12143442Y29434721D01*
X12140144Y29431835D01*
X12126470Y29413549D01*
X12078208Y29365286D01*
X11990609Y29234186D01*
X11990602Y29234173D01*
X11930264Y29088502D01*
X11930261Y29088492D01*
X11913517Y29004314D01*
X11881132Y28942403D01*
X11820416Y28907829D01*
X11750646Y28911570D01*
X11693975Y28952436D01*
X11688800Y28959612D01*
X11686765Y28962657D01*
X11686761Y28962662D01*
X11575267Y29074156D01*
X11575263Y29074159D01*
X11444160Y29161760D01*
X11444147Y29161767D01*
X11298476Y29222105D01*
X11298464Y29222108D01*
X11143820Y29252869D01*
X11143817Y29252869D01*
X10986133Y29252869D01*
X10986130Y29252869D01*
X10831485Y29222108D01*
X10831473Y29222105D01*
X10685802Y29161767D01*
X10685789Y29161760D01*
X10554100Y29073767D01*
X10487422Y29052889D01*
X10485209Y29052869D01*
X10318311Y29052869D01*
X10165584Y29011946D01*
X10149261Y29002522D01*
X10028656Y28932892D01*
X10028651Y28932888D01*
X9896937Y28801174D01*
X9896931Y28801166D01*
X9860503Y28738069D01*
X9860503Y28738067D01*
X9817879Y28664242D01*
X9817879Y28664241D01*
X9776955Y28511513D01*
X9776955Y28511511D01*
X9776955Y28343410D01*
X9776956Y28343397D01*
X9776956Y24061949D01*
X9776955Y24061931D01*
X9776955Y24054336D01*
X9776955Y23896222D01*
X9790278Y23846503D01*
X9795278Y23827842D01*
X9799503Y23795748D01*
X9799503Y23673886D01*
X9830264Y23519243D01*
X9830267Y23519231D01*
X9890605Y23373560D01*
X9890612Y23373547D01*
X9978213Y23242444D01*
X9978216Y23242440D01*
X10089710Y23130946D01*
X10089714Y23130943D01*
X10220817Y23043342D01*
X10220830Y23043335D01*
X10273548Y23021499D01*
X10366506Y22982995D01*
X10521156Y22952233D01*
X10521159Y22952232D01*
X10521161Y22952232D01*
X10678847Y22952232D01*
X10678848Y22952233D01*
X10833500Y22982995D01*
X10979182Y23043338D01*
X11110292Y23130943D01*
X11221792Y23242443D01*
X11309397Y23373553D01*
X11369740Y23519235D01*
X11400503Y23673890D01*
X11400503Y23763741D01*
X11420188Y23830780D01*
X11472992Y23876535D01*
X11477051Y23878302D01*
X11579175Y23920603D01*
X11579175Y23920604D01*
X11579182Y23920606D01*
X11710292Y24008211D01*
X11803610Y24101530D01*
X11817534Y24109133D01*
X11828385Y24120706D01*
X11847567Y24125532D01*
X11864931Y24135013D01*
X11880756Y24133882D01*
X11896143Y24137752D01*
X11914891Y24131441D01*
X11934623Y24130029D01*
X11948139Y24120247D01*
X11962361Y24115459D01*
X11980844Y24096578D01*
X11988109Y24091320D01*
X11991442Y24087155D01*
X12053211Y23994711D01*
X12114277Y23933645D01*
X12118562Y23928290D01*
X12129321Y23902060D01*
X12142909Y23877176D01*
X12144089Y23866057D01*
X12145078Y23863647D01*
X12144613Y23861123D01*
X12145743Y23850484D01*
X12145341Y23700828D01*
X12145080Y23603836D01*
X12144897Y23535925D01*
X12139377Y21485928D01*
X12127982Y17253836D01*
X12127799Y17185925D01*
X12125559Y16353836D01*
X12125376Y16285925D01*
X12118020Y13553836D01*
X12117837Y13485925D01*
X12112653Y11560603D01*
X12111531Y11144120D01*
X12113841Y11094471D01*
X12116166Y11070244D01*
X12116169Y11070221D01*
X12119303Y11048733D01*
X12109498Y10979554D01*
X12063849Y10926659D01*
X11996849Y10906840D01*
X11929771Y10926391D01*
X11908920Y10943159D01*
X11870292Y10981787D01*
X11870288Y10981790D01*
X11739185Y11069391D01*
X11739172Y11069398D01*
X11593501Y11129736D01*
X11593489Y11129739D01*
X11438845Y11160500D01*
X11438842Y11160500D01*
X11281158Y11160500D01*
X11281155Y11160500D01*
X11126510Y11129739D01*
X11126502Y11129737D01*
X11094929Y11116659D01*
X11025459Y11109192D01*
X10962981Y11140468D01*
X10927329Y11200557D01*
X10925861Y11207030D01*
X10894738Y11363490D01*
X10894737Y11363497D01*
X10894735Y11363502D01*
X10834397Y11509173D01*
X10834390Y11509186D01*
X10746789Y11640289D01*
X10746786Y11640293D01*
X10635292Y11751787D01*
X10635288Y11751790D01*
X10504185Y11839391D01*
X10504172Y11839398D01*
X10358501Y11899736D01*
X10358489Y11899739D01*
X10203845Y11930500D01*
X10203842Y11930500D01*
X10046158Y11930500D01*
X10046155Y11930500D01*
X9891510Y11899739D01*
X9891498Y11899736D01*
X9745827Y11839398D01*
X9745814Y11839391D01*
X9614711Y11751790D01*
X9614707Y11751787D01*
X9503213Y11640293D01*
X9503210Y11640289D01*
X9415609Y11509186D01*
X9415602Y11509173D01*
X9355264Y11363502D01*
X9355261Y11363490D01*
X9324500Y11208847D01*
X9324500Y11051154D01*
X9355261Y10896511D01*
X9355264Y10896499D01*
X9415602Y10750828D01*
X9415609Y10750815D01*
X9462883Y10680065D01*
X9465890Y10670462D01*
X9472492Y10662867D01*
X9476155Y10637678D01*
X9483761Y10613387D01*
X9481098Y10603684D01*
X9482547Y10593725D01*
X9472009Y10570553D01*
X9465276Y10546007D01*
X9457790Y10539284D01*
X9453625Y10530122D01*
X9432233Y10516326D01*
X9413298Y10499317D01*
X9401799Y10496699D01*
X9394907Y10492253D01*
X9359981Y10487174D01*
X9201721Y10486919D01*
X9134650Y10506496D01*
X9113844Y10523234D01*
X9010289Y10626789D01*
X9010288Y10626790D01*
X9010287Y10626791D01*
X8879185Y10714391D01*
X8879172Y10714398D01*
X8733501Y10774736D01*
X8733489Y10774739D01*
X8578845Y10805500D01*
X8578842Y10805500D01*
X8421158Y10805500D01*
X8421155Y10805500D01*
X8266510Y10774739D01*
X8266498Y10774736D01*
X8120827Y10714398D01*
X8120814Y10714391D01*
X7989711Y10626790D01*
X7989707Y10626787D01*
X7896013Y10533092D01*
X7834690Y10499607D01*
X7805638Y10496803D01*
X6368643Y10528041D01*
X638174Y10652616D01*
X635745Y10652394D01*
X635151Y10652511D01*
X634689Y10652495D01*
X634685Y10652604D01*
X567197Y10665918D01*
X516842Y10714355D01*
X500500Y10775883D01*
X500500Y12458847D01*
X999500Y12458847D01*
X999500Y12301154D01*
X1030261Y12146511D01*
X1030264Y12146499D01*
X1090602Y12000828D01*
X1090609Y12000815D01*
X1178210Y11869712D01*
X1178213Y11869708D01*
X1289707Y11758214D01*
X1289711Y11758211D01*
X1420814Y11670610D01*
X1420827Y11670603D01*
X1494013Y11640289D01*
X1566503Y11610263D01*
X1721153Y11579501D01*
X1721156Y11579500D01*
X1721158Y11579500D01*
X1878844Y11579500D01*
X1878845Y11579501D01*
X2033497Y11610263D01*
X2179179Y11670606D01*
X2310289Y11758211D01*
X2421789Y11869711D01*
X2509394Y12000821D01*
X2569737Y12146503D01*
X2600500Y12301158D01*
X2600500Y12348847D01*
X3939500Y12348847D01*
X3939500Y12191154D01*
X3970261Y12036511D01*
X3970264Y12036499D01*
X4030602Y11890828D01*
X4030609Y11890815D01*
X4118210Y11759712D01*
X4118213Y11759708D01*
X4229707Y11648214D01*
X4229711Y11648211D01*
X4360814Y11560610D01*
X4360827Y11560603D01*
X4484992Y11509173D01*
X4506503Y11500263D01*
X4661153Y11469501D01*
X4661156Y11469500D01*
X4661158Y11469500D01*
X4818844Y11469500D01*
X4818845Y11469501D01*
X4973497Y11500263D01*
X5119179Y11560606D01*
X5250289Y11648211D01*
X5361789Y11759711D01*
X5449394Y11890821D01*
X5509737Y12036503D01*
X5540500Y12191158D01*
X5540500Y12348842D01*
X5540500Y12348845D01*
X5540499Y12348847D01*
X5518618Y12458847D01*
X5509737Y12503497D01*
X5492295Y12545606D01*
X5449397Y12649173D01*
X5449390Y12649186D01*
X5361789Y12780289D01*
X5361786Y12780293D01*
X5250292Y12891787D01*
X5250288Y12891790D01*
X5119185Y12979391D01*
X5119172Y12979398D01*
X4973501Y13039736D01*
X4973489Y13039739D01*
X4818845Y13070500D01*
X4818842Y13070500D01*
X4661158Y13070500D01*
X4661155Y13070500D01*
X4506510Y13039739D01*
X4506498Y13039736D01*
X4360827Y12979398D01*
X4360814Y12979391D01*
X4229711Y12891790D01*
X4229707Y12891787D01*
X4118213Y12780293D01*
X4118210Y12780289D01*
X4030609Y12649186D01*
X4030602Y12649173D01*
X3970264Y12503502D01*
X3970261Y12503490D01*
X3939500Y12348847D01*
X2600500Y12348847D01*
X2600500Y12458842D01*
X2600500Y12458845D01*
X2600499Y12458847D01*
X2596734Y12477775D01*
X2569737Y12613497D01*
X2548459Y12664867D01*
X2509397Y12759173D01*
X2509390Y12759186D01*
X2421789Y12890289D01*
X2421786Y12890293D01*
X2310292Y13001787D01*
X2310288Y13001790D01*
X2179185Y13089391D01*
X2179172Y13089398D01*
X2033501Y13149736D01*
X2033489Y13149739D01*
X1878845Y13180500D01*
X1878842Y13180500D01*
X1721158Y13180500D01*
X1721155Y13180500D01*
X1566510Y13149739D01*
X1566498Y13149736D01*
X1420827Y13089398D01*
X1420814Y13089391D01*
X1289711Y13001790D01*
X1289707Y13001787D01*
X1178213Y12890293D01*
X1178210Y12890289D01*
X1090609Y12759186D01*
X1090602Y12759173D01*
X1030264Y12613502D01*
X1030261Y12613490D01*
X999500Y12458847D01*
X500500Y12458847D01*
X500500Y14858847D01*
X5749500Y14858847D01*
X5749500Y14701154D01*
X5780261Y14546511D01*
X5780264Y14546499D01*
X5840602Y14400828D01*
X5840609Y14400815D01*
X5928210Y14269712D01*
X5928213Y14269708D01*
X6039707Y14158214D01*
X6039711Y14158211D01*
X6170814Y14070610D01*
X6170827Y14070603D01*
X6298355Y14017780D01*
X6316503Y14010263D01*
X6456825Y13982351D01*
X6471153Y13979501D01*
X6471156Y13979500D01*
X6471158Y13979500D01*
X6628844Y13979500D01*
X6628845Y13979501D01*
X6783497Y14010263D01*
X6929179Y14070606D01*
X7060289Y14158211D01*
X7171789Y14269711D01*
X7259394Y14400821D01*
X7319737Y14546503D01*
X7350500Y14701158D01*
X7350500Y14858842D01*
X7350500Y14858845D01*
X7350499Y14858847D01*
X7340189Y14910680D01*
X7319737Y15013497D01*
X7274574Y15122532D01*
X7259397Y15159173D01*
X7259390Y15159186D01*
X7171789Y15290289D01*
X7171786Y15290293D01*
X7060292Y15401787D01*
X7060288Y15401790D01*
X6929185Y15489391D01*
X6929172Y15489398D01*
X6783501Y15549736D01*
X6783489Y15549739D01*
X6628845Y15580500D01*
X6628842Y15580500D01*
X6471158Y15580500D01*
X6471155Y15580500D01*
X6316510Y15549739D01*
X6316498Y15549736D01*
X6170827Y15489398D01*
X6170814Y15489391D01*
X6039711Y15401790D01*
X6039707Y15401787D01*
X5928213Y15290293D01*
X5928210Y15290289D01*
X5840609Y15159186D01*
X5840602Y15159173D01*
X5780264Y15013502D01*
X5780261Y15013490D01*
X5749500Y14858847D01*
X500500Y14858847D01*
X500500Y18178847D01*
X5509500Y18178847D01*
X5509500Y18021154D01*
X5540261Y17866511D01*
X5540264Y17866499D01*
X5600602Y17720828D01*
X5600609Y17720815D01*
X5688210Y17589712D01*
X5688213Y17589708D01*
X5799707Y17478214D01*
X5799711Y17478211D01*
X5930814Y17390610D01*
X5930821Y17390606D01*
X6044373Y17343572D01*
X6098774Y17299733D01*
X6120840Y17233439D01*
X6118536Y17204821D01*
X6089500Y17058847D01*
X6089500Y16901154D01*
X6120261Y16746511D01*
X6120264Y16746499D01*
X6180602Y16600828D01*
X6180609Y16600815D01*
X6268210Y16469712D01*
X6268213Y16469708D01*
X6379707Y16358214D01*
X6379711Y16358211D01*
X6510814Y16270610D01*
X6510827Y16270603D01*
X6656498Y16210265D01*
X6656503Y16210263D01*
X6811153Y16179501D01*
X6811156Y16179500D01*
X6811158Y16179500D01*
X6968844Y16179500D01*
X6968845Y16179501D01*
X7123497Y16210263D01*
X7269179Y16270606D01*
X7400289Y16358211D01*
X7511789Y16469711D01*
X7599394Y16600821D01*
X7659737Y16746503D01*
X7690500Y16901158D01*
X7690500Y17058842D01*
X7690500Y17058845D01*
X7690499Y17058847D01*
X7665221Y17185925D01*
X7659737Y17213497D01*
X7618384Y17313333D01*
X7599397Y17359173D01*
X7599390Y17359186D01*
X7511789Y17490289D01*
X7511786Y17490293D01*
X7400292Y17601787D01*
X7400288Y17601790D01*
X7269185Y17689391D01*
X7269176Y17689396D01*
X7155627Y17736429D01*
X7101224Y17780270D01*
X7079159Y17846564D01*
X7081463Y17875182D01*
X7110500Y18021156D01*
X7110500Y18178845D01*
X7110499Y18178847D01*
X7096398Y18249737D01*
X7079737Y18333497D01*
X7079735Y18333502D01*
X7019397Y18479173D01*
X7019390Y18479186D01*
X6931789Y18610289D01*
X6931786Y18610293D01*
X6892111Y18649968D01*
X6858626Y18711291D01*
X6863610Y18780983D01*
X6905482Y18836916D01*
X6932340Y18852210D01*
X7049172Y18900603D01*
X7049172Y18900604D01*
X7049179Y18900606D01*
X7180289Y18988211D01*
X7291789Y19099711D01*
X7379394Y19230821D01*
X7439737Y19376503D01*
X7470500Y19531158D01*
X7470500Y19688842D01*
X7470500Y19688845D01*
X7470499Y19688847D01*
X7456509Y19759179D01*
X7439737Y19843497D01*
X7420354Y19890293D01*
X7379397Y19989173D01*
X7379390Y19989186D01*
X7291789Y20120289D01*
X7291786Y20120293D01*
X7180292Y20231787D01*
X7180288Y20231790D01*
X7049185Y20319391D01*
X7049172Y20319398D01*
X6903501Y20379736D01*
X6903489Y20379739D01*
X6748845Y20410500D01*
X6748842Y20410500D01*
X6591158Y20410500D01*
X6591155Y20410500D01*
X6436510Y20379739D01*
X6436498Y20379736D01*
X6290827Y20319398D01*
X6290814Y20319391D01*
X6159711Y20231790D01*
X6159707Y20231787D01*
X6048213Y20120293D01*
X6048210Y20120289D01*
X5960609Y19989186D01*
X5960602Y19989173D01*
X5900264Y19843502D01*
X5900261Y19843490D01*
X5869500Y19688847D01*
X5869500Y19531154D01*
X5900261Y19376511D01*
X5900264Y19376499D01*
X5960602Y19230828D01*
X5960609Y19230815D01*
X6048210Y19099712D01*
X6048213Y19099708D01*
X6087888Y19060033D01*
X6121373Y18998710D01*
X6116389Y18929018D01*
X6074517Y18873085D01*
X6047660Y18857791D01*
X5930824Y18809396D01*
X5930814Y18809391D01*
X5799711Y18721790D01*
X5799707Y18721787D01*
X5688213Y18610293D01*
X5688210Y18610289D01*
X5600609Y18479186D01*
X5600602Y18479173D01*
X5540264Y18333502D01*
X5540261Y18333490D01*
X5509500Y18178847D01*
X500500Y18178847D01*
X500500Y21158847D01*
X769500Y21158847D01*
X769500Y21001154D01*
X800261Y20846511D01*
X800264Y20846499D01*
X860602Y20700828D01*
X860609Y20700815D01*
X948210Y20569712D01*
X948213Y20569708D01*
X1059707Y20458214D01*
X1059711Y20458211D01*
X1190814Y20370610D01*
X1190827Y20370603D01*
X1314466Y20319391D01*
X1336503Y20310263D01*
X1491153Y20279501D01*
X1491156Y20279500D01*
X1491158Y20279500D01*
X1648844Y20279500D01*
X1648845Y20279501D01*
X1803497Y20310263D01*
X1949179Y20370606D01*
X2031109Y20425351D01*
X2097786Y20446228D01*
X2165166Y20427744D01*
X2168888Y20425352D01*
X2250821Y20370606D01*
X2250823Y20370605D01*
X2250827Y20370603D01*
X2374466Y20319391D01*
X2396503Y20310263D01*
X2551153Y20279501D01*
X2551156Y20279500D01*
X2551158Y20279500D01*
X2708844Y20279500D01*
X2708845Y20279501D01*
X2863497Y20310263D01*
X3009179Y20370606D01*
X3140289Y20458211D01*
X3251789Y20569711D01*
X3339394Y20700821D01*
X3399737Y20846503D01*
X3410975Y20903002D01*
X3443359Y20964911D01*
X3485140Y20993370D01*
X3599173Y21040603D01*
X3599176Y21040605D01*
X3599179Y21040606D01*
X3730289Y21128211D01*
X3841789Y21239711D01*
X3929394Y21370821D01*
X3989737Y21516503D01*
X4020500Y21671158D01*
X4020500Y21769874D01*
X9549500Y21769874D01*
X9549500Y21612181D01*
X9580261Y21457538D01*
X9580264Y21457526D01*
X9640602Y21311855D01*
X9640609Y21311842D01*
X9728210Y21180739D01*
X9728213Y21180735D01*
X9839707Y21069241D01*
X9839711Y21069238D01*
X9970814Y20981637D01*
X9970827Y20981630D01*
X10116498Y20921292D01*
X10116503Y20921290D01*
X10271153Y20890528D01*
X10271156Y20890527D01*
X10271158Y20890527D01*
X10428844Y20890527D01*
X10428845Y20890528D01*
X10583497Y20921290D01*
X10729179Y20981633D01*
X10860289Y21069238D01*
X10971789Y21180738D01*
X11059394Y21311848D01*
X11119737Y21457530D01*
X11150500Y21612185D01*
X11150500Y21769869D01*
X11150500Y21769872D01*
X11150499Y21769874D01*
X11143477Y21805177D01*
X11119737Y21924524D01*
X11095308Y21983502D01*
X11059397Y22070200D01*
X11059390Y22070213D01*
X10971789Y22201316D01*
X10971786Y22201320D01*
X10860292Y22312814D01*
X10860288Y22312817D01*
X10729185Y22400418D01*
X10729172Y22400425D01*
X10583501Y22460763D01*
X10583489Y22460766D01*
X10428845Y22491527D01*
X10428842Y22491527D01*
X10271158Y22491527D01*
X10271155Y22491527D01*
X10116510Y22460766D01*
X10116498Y22460763D01*
X9970827Y22400425D01*
X9970814Y22400418D01*
X9839711Y22312817D01*
X9839707Y22312814D01*
X9728213Y22201320D01*
X9728210Y22201316D01*
X9640609Y22070213D01*
X9640602Y22070200D01*
X9580264Y21924529D01*
X9580261Y21924517D01*
X9549500Y21769874D01*
X4020500Y21769874D01*
X4020500Y21828842D01*
X4020500Y21828845D01*
X4020499Y21828847D01*
X4014467Y21859173D01*
X3989737Y21983497D01*
X3953824Y22070200D01*
X3929397Y22129173D01*
X3929390Y22129186D01*
X3841789Y22260289D01*
X3841786Y22260293D01*
X3730292Y22371787D01*
X3730288Y22371790D01*
X3599185Y22459391D01*
X3599172Y22459398D01*
X3453501Y22519736D01*
X3453489Y22519739D01*
X3298845Y22550500D01*
X3298842Y22550500D01*
X3141158Y22550500D01*
X3141155Y22550500D01*
X2986510Y22519739D01*
X2986498Y22519736D01*
X2840827Y22459398D01*
X2840814Y22459391D01*
X2709711Y22371790D01*
X2709707Y22371787D01*
X2598213Y22260293D01*
X2598210Y22260289D01*
X2510609Y22129186D01*
X2510602Y22129173D01*
X2450263Y21983500D01*
X2450261Y21983492D01*
X2439024Y21927000D01*
X2437930Y21924909D01*
X2438054Y21922551D01*
X2421820Y21894113D01*
X2406639Y21865089D01*
X2404222Y21863282D01*
X2403417Y21861871D01*
X2394738Y21856190D01*
X2374769Y21841257D01*
X2369912Y21838723D01*
X2250821Y21789394D01*
X2163314Y21730924D01*
X2157362Y21727818D01*
X2129403Y21722287D01*
X2102213Y21713773D01*
X2095574Y21715595D01*
X2088821Y21714258D01*
X2062311Y21724720D01*
X2034833Y21732258D01*
X2031109Y21734651D01*
X1949185Y21789391D01*
X1949172Y21789398D01*
X1803501Y21849736D01*
X1803489Y21849739D01*
X1648845Y21880500D01*
X1648842Y21880500D01*
X1491158Y21880500D01*
X1491155Y21880500D01*
X1336510Y21849739D01*
X1336498Y21849736D01*
X1190827Y21789398D01*
X1190814Y21789391D01*
X1059711Y21701790D01*
X1059707Y21701787D01*
X948213Y21590293D01*
X948210Y21590289D01*
X860609Y21459186D01*
X860602Y21459173D01*
X800264Y21313502D01*
X800261Y21313490D01*
X769500Y21158847D01*
X500500Y21158847D01*
X500500Y22733847D01*
X7336000Y22733847D01*
X7336000Y22576154D01*
X7366761Y22421511D01*
X7366764Y22421499D01*
X7427102Y22275828D01*
X7427109Y22275815D01*
X7514710Y22144712D01*
X7514713Y22144708D01*
X7626207Y22033214D01*
X7626211Y22033211D01*
X7757314Y21945610D01*
X7757327Y21945603D01*
X7902998Y21885265D01*
X7903003Y21885263D01*
X8057653Y21854501D01*
X8057656Y21854500D01*
X8057658Y21854500D01*
X8215344Y21854500D01*
X8215345Y21854501D01*
X8369997Y21885263D01*
X8377607Y21888416D01*
X8382694Y21890522D01*
X8515672Y21945603D01*
X8515672Y21945604D01*
X8515679Y21945606D01*
X8646789Y22033211D01*
X8758289Y22144711D01*
X8845894Y22275821D01*
X8906237Y22421503D01*
X8937000Y22576158D01*
X8937000Y22733842D01*
X8937000Y22733845D01*
X8936999Y22733847D01*
X8934480Y22746511D01*
X8906237Y22888497D01*
X8900993Y22901158D01*
X8845897Y23034173D01*
X8845890Y23034186D01*
X8758289Y23165289D01*
X8758286Y23165293D01*
X8646792Y23276787D01*
X8646788Y23276790D01*
X8515685Y23364391D01*
X8515672Y23364398D01*
X8370001Y23424736D01*
X8369989Y23424739D01*
X8215345Y23455500D01*
X8215342Y23455500D01*
X8057658Y23455500D01*
X8057655Y23455500D01*
X7903010Y23424739D01*
X7902998Y23424736D01*
X7757327Y23364398D01*
X7757314Y23364391D01*
X7626211Y23276790D01*
X7626207Y23276787D01*
X7514713Y23165293D01*
X7514710Y23165289D01*
X7427109Y23034186D01*
X7427102Y23034173D01*
X7366764Y22888502D01*
X7366761Y22888490D01*
X7336000Y22733847D01*
X500500Y22733847D01*
X500500Y24158847D01*
X949500Y24158847D01*
X949500Y24001154D01*
X980261Y23846511D01*
X980264Y23846499D01*
X1040602Y23700828D01*
X1040609Y23700815D01*
X1128210Y23569712D01*
X1128213Y23569708D01*
X1239707Y23458214D01*
X1239711Y23458211D01*
X1370814Y23370610D01*
X1370827Y23370603D01*
X1516498Y23310265D01*
X1516503Y23310263D01*
X1671153Y23279501D01*
X1671156Y23279500D01*
X1671158Y23279500D01*
X1828844Y23279500D01*
X1828845Y23279501D01*
X1983497Y23310263D01*
X2101592Y23359179D01*
X2129172Y23370603D01*
X2129172Y23370604D01*
X2129179Y23370606D01*
X2260289Y23458211D01*
X2371789Y23569711D01*
X2459394Y23700821D01*
X2519737Y23846503D01*
X2550500Y24001158D01*
X2550500Y24158842D01*
X2550500Y24158845D01*
X2550499Y24158847D01*
X2532204Y24250821D01*
X2519737Y24313497D01*
X2519735Y24313502D01*
X2459397Y24459173D01*
X2459390Y24459186D01*
X2371789Y24590289D01*
X2371786Y24590293D01*
X2260292Y24701787D01*
X2260288Y24701790D01*
X2129185Y24789391D01*
X2129172Y24789398D01*
X1983501Y24849736D01*
X1983489Y24849739D01*
X1828845Y24880500D01*
X1828842Y24880500D01*
X1671158Y24880500D01*
X1671155Y24880500D01*
X1516510Y24849739D01*
X1516498Y24849736D01*
X1370827Y24789398D01*
X1370814Y24789391D01*
X1239711Y24701790D01*
X1239707Y24701787D01*
X1128213Y24590293D01*
X1128210Y24590289D01*
X1040609Y24459186D01*
X1040602Y24459173D01*
X980264Y24313502D01*
X980261Y24313490D01*
X949500Y24158847D01*
X500500Y24158847D01*
X500500Y26361347D01*
X6199500Y26361347D01*
X6199500Y26203654D01*
X6230261Y26049011D01*
X6230264Y26048999D01*
X6290602Y25903328D01*
X6290609Y25903315D01*
X6378210Y25772212D01*
X6378213Y25772208D01*
X6489707Y25660714D01*
X6489711Y25660711D01*
X6620814Y25573110D01*
X6620827Y25573103D01*
X6766498Y25512765D01*
X6766503Y25512763D01*
X6921153Y25482001D01*
X6921156Y25482000D01*
X6921158Y25482000D01*
X7078844Y25482000D01*
X7078845Y25482001D01*
X7233497Y25512763D01*
X7379179Y25573106D01*
X7510289Y25660711D01*
X7621789Y25772211D01*
X7709394Y25903321D01*
X7769737Y26049003D01*
X7800500Y26203658D01*
X7800500Y26361342D01*
X7800500Y26361345D01*
X7770923Y26510034D01*
X7777150Y26579626D01*
X7789436Y26603113D01*
X7848277Y26691174D01*
X7908620Y26836856D01*
X7939383Y26991511D01*
X7939383Y27149195D01*
X7939383Y27149198D01*
X7939382Y27149200D01*
X7929330Y27199736D01*
X7908620Y27303850D01*
X7881700Y27368842D01*
X7848280Y27449526D01*
X7848273Y27449539D01*
X7760672Y27580642D01*
X7760669Y27580646D01*
X7649175Y27692140D01*
X7649171Y27692143D01*
X7518068Y27779744D01*
X7518055Y27779751D01*
X7372384Y27840089D01*
X7372372Y27840092D01*
X7217728Y27870853D01*
X7217725Y27870853D01*
X7060041Y27870853D01*
X7060038Y27870853D01*
X6905393Y27840092D01*
X6905381Y27840089D01*
X6759710Y27779751D01*
X6759697Y27779744D01*
X6628594Y27692143D01*
X6628590Y27692140D01*
X6517096Y27580646D01*
X6517093Y27580642D01*
X6429492Y27449539D01*
X6429485Y27449526D01*
X6369147Y27303855D01*
X6369144Y27303843D01*
X6338383Y27149200D01*
X6338383Y26991507D01*
X6367959Y26842820D01*
X6361732Y26773229D01*
X6349444Y26749739D01*
X6290612Y26661691D01*
X6290602Y26661673D01*
X6230264Y26516002D01*
X6230261Y26515990D01*
X6199500Y26361347D01*
X500500Y26361347D01*
X500500Y27368847D01*
X769500Y27368847D01*
X769500Y27211154D01*
X800261Y27056511D01*
X800264Y27056499D01*
X860602Y26910828D01*
X860609Y26910815D01*
X948210Y26779712D01*
X948213Y26779708D01*
X1059707Y26668214D01*
X1059711Y26668211D01*
X1190814Y26580610D01*
X1190827Y26580603D01*
X1275326Y26545603D01*
X1336503Y26520263D01*
X1491153Y26489501D01*
X1491156Y26489500D01*
X1491158Y26489500D01*
X1648844Y26489500D01*
X1648844Y26489501D01*
X1803497Y26520263D01*
X1949179Y26580606D01*
X2080289Y26668211D01*
X2191789Y26779711D01*
X2279394Y26910821D01*
X2339737Y27056503D01*
X2370500Y27211158D01*
X2370500Y27368842D01*
X2370500Y27368845D01*
X2370499Y27368847D01*
X2359616Y27423557D01*
X2339737Y27523497D01*
X2333191Y27539300D01*
X2279397Y27669173D01*
X2279390Y27669186D01*
X2191789Y27800289D01*
X2191786Y27800293D01*
X2080292Y27911787D01*
X2080288Y27911790D01*
X1949185Y27999391D01*
X1949172Y27999398D01*
X1803501Y28059736D01*
X1803489Y28059739D01*
X1648845Y28090500D01*
X1648842Y28090500D01*
X1491158Y28090500D01*
X1491155Y28090500D01*
X1336510Y28059739D01*
X1336498Y28059736D01*
X1190827Y27999398D01*
X1190814Y27999391D01*
X1059711Y27911790D01*
X1059707Y27911787D01*
X948213Y27800293D01*
X948210Y27800289D01*
X860609Y27669186D01*
X860602Y27669173D01*
X800264Y27523502D01*
X800261Y27523490D01*
X769500Y27368847D01*
X500500Y27368847D01*
X500500Y29062994D01*
X4149431Y29062994D01*
X4149431Y28905301D01*
X4180192Y28750658D01*
X4180195Y28750646D01*
X4240533Y28604975D01*
X4240540Y28604962D01*
X4328141Y28473859D01*
X4328144Y28473855D01*
X4439638Y28362361D01*
X4439642Y28362358D01*
X4570745Y28274757D01*
X4570758Y28274750D01*
X4705671Y28218868D01*
X4716434Y28214410D01*
X4803070Y28197177D01*
X4871084Y28183648D01*
X4871087Y28183647D01*
X4871089Y28183647D01*
X5028775Y28183647D01*
X5028776Y28183648D01*
X5183428Y28214410D01*
X5329110Y28274753D01*
X5460220Y28362358D01*
X5571720Y28473858D01*
X5571723Y28473864D01*
X5575580Y28478562D01*
X5576914Y28477468D01*
X5624202Y28517012D01*
X5693525Y28525740D01*
X5721176Y28517893D01*
X5723389Y28516976D01*
X5723393Y28516976D01*
X5723394Y28516975D01*
X5723397Y28516974D01*
X5878039Y28486214D01*
X5878042Y28486213D01*
X5878044Y28486213D01*
X6035730Y28486213D01*
X6035731Y28486214D01*
X6190383Y28516976D01*
X6336065Y28577319D01*
X6467175Y28664924D01*
X6578675Y28776424D01*
X6666280Y28907534D01*
X6726623Y29053216D01*
X6757386Y29207871D01*
X6757386Y29365555D01*
X6757386Y29365558D01*
X6757385Y29365560D01*
X6736185Y29472137D01*
X6726623Y29520210D01*
X6705240Y29571833D01*
X6666283Y29665886D01*
X6666276Y29665899D01*
X6578675Y29797002D01*
X6578672Y29797006D01*
X6467178Y29908500D01*
X6467174Y29908503D01*
X6336071Y29996104D01*
X6336058Y29996111D01*
X6190387Y30056449D01*
X6190375Y30056452D01*
X6035731Y30087213D01*
X6035728Y30087213D01*
X5878044Y30087213D01*
X5878041Y30087213D01*
X5723396Y30056452D01*
X5723384Y30056449D01*
X5577713Y29996111D01*
X5577700Y29996104D01*
X5446597Y29908503D01*
X5446593Y29908500D01*
X5335103Y29797009D01*
X5331239Y29792300D01*
X5329914Y29793387D01*
X5282553Y29753824D01*
X5213226Y29745132D01*
X5185639Y29752969D01*
X5183433Y29753883D01*
X5183425Y29753886D01*
X5028776Y29784647D01*
X5028773Y29784647D01*
X4871089Y29784647D01*
X4871086Y29784647D01*
X4716441Y29753886D01*
X4716429Y29753883D01*
X4570758Y29693545D01*
X4570745Y29693538D01*
X4439642Y29605937D01*
X4439638Y29605934D01*
X4328144Y29494440D01*
X4328141Y29494436D01*
X4240540Y29363333D01*
X4240533Y29363320D01*
X4180195Y29217649D01*
X4180192Y29217637D01*
X4149431Y29062994D01*
X500500Y29062994D01*
X500500Y30147156D01*
X940000Y30147156D01*
X946401Y30087628D01*
X946403Y30087621D01*
X996645Y29952914D01*
X996649Y29952907D01*
X1082809Y29837813D01*
X1082812Y29837810D01*
X1197906Y29751650D01*
X1197913Y29751646D01*
X1332620Y29701404D01*
X1332627Y29701402D01*
X1392155Y29695001D01*
X1392172Y29695000D01*
X1690000Y29695000D01*
X2190000Y29695000D01*
X2487828Y29695000D01*
X2487844Y29695001D01*
X2547372Y29701402D01*
X2547379Y29701404D01*
X2682086Y29751646D01*
X2682093Y29751650D01*
X2797187Y29837810D01*
X2797190Y29837813D01*
X2883350Y29952907D01*
X2883354Y29952914D01*
X2933596Y30087621D01*
X2933598Y30087628D01*
X2939999Y30147156D01*
X2940000Y30147173D01*
X2940000Y30445000D01*
X2190000Y30445000D01*
X2190000Y29695000D01*
X1690000Y29695000D01*
X1690000Y30445000D01*
X940000Y30445000D01*
X940000Y30147156D01*
X500500Y30147156D01*
X500500Y34406457D01*
X939499Y34406457D01*
X977947Y34213171D01*
X977950Y34213161D01*
X1053365Y34031093D01*
X1053368Y34031086D01*
X1092512Y33972503D01*
X1114971Y33938890D01*
X1135848Y33872213D01*
X1117363Y33804833D01*
X1114971Y33801110D01*
X1053366Y33708911D01*
X977950Y33526840D01*
X977947Y33526830D01*
X939500Y33333544D01*
X939500Y33333541D01*
X939500Y33136459D01*
X939500Y33136457D01*
X939499Y33136457D01*
X977947Y32943171D01*
X977950Y32943161D01*
X1033174Y32809839D01*
X1053368Y32761086D01*
X1067465Y32739989D01*
X1114971Y32668890D01*
X1135848Y32602213D01*
X1117363Y32534833D01*
X1114971Y32531110D01*
X1053366Y32438911D01*
X977950Y32256840D01*
X977947Y32256830D01*
X939500Y32063544D01*
X939500Y32063541D01*
X939500Y31866459D01*
X939500Y31866457D01*
X939499Y31866457D01*
X977947Y31673171D01*
X977950Y31673161D01*
X1020540Y31570340D01*
X1028009Y31500871D01*
X1005248Y31448580D01*
X996648Y31437092D01*
X996645Y31437087D01*
X946403Y31302380D01*
X946401Y31302373D01*
X940000Y31242845D01*
X940000Y30945000D01*
X1730382Y30945000D01*
X1679936Y30894554D01*
X1637149Y30820445D01*
X1615000Y30737787D01*
X1615000Y30652213D01*
X1637149Y30569555D01*
X1679936Y30495446D01*
X1740446Y30434936D01*
X1814555Y30392149D01*
X1897213Y30370000D01*
X1982787Y30370000D01*
X2065445Y30392149D01*
X2139554Y30434936D01*
X2200064Y30495446D01*
X2242851Y30569555D01*
X2265000Y30652213D01*
X2265000Y30737787D01*
X2242851Y30820445D01*
X2200064Y30894554D01*
X2149618Y30945000D01*
X2940000Y30945000D01*
X2940000Y31242828D01*
X2939999Y31242845D01*
X2933598Y31302373D01*
X2933597Y31302377D01*
X2883350Y31437093D01*
X2874753Y31448578D01*
X2850336Y31514042D01*
X2859458Y31570337D01*
X2902051Y31673165D01*
X2925423Y31790664D01*
X2940500Y31866457D01*
X2940500Y32063544D01*
X2902052Y32256830D01*
X2902051Y32256831D01*
X2902051Y32256835D01*
X2863733Y32349344D01*
X2826635Y32438908D01*
X2826633Y32438912D01*
X2826632Y32438914D01*
X2765029Y32531109D01*
X2744151Y32597786D01*
X2762635Y32665166D01*
X2765029Y32668891D01*
X2778739Y32689410D01*
X2826632Y32761086D01*
X2902051Y32943165D01*
X2919480Y33030784D01*
X2940500Y33136457D01*
X2940500Y33333544D01*
X2902052Y33526830D01*
X2902051Y33526831D01*
X2902051Y33526835D01*
X2872806Y33597440D01*
X2826635Y33708908D01*
X2826633Y33708912D01*
X2826632Y33708914D01*
X2803778Y33743117D01*
X2765029Y33801109D01*
X2744151Y33867786D01*
X2762635Y33935166D01*
X2765029Y33938891D01*
X2787087Y33971903D01*
X2826632Y34031086D01*
X2902051Y34213165D01*
X2919046Y34298603D01*
X2940500Y34406457D01*
X2940500Y34603544D01*
X2939903Y34609606D01*
X2941248Y34609739D01*
X2946854Y34672457D01*
X2989712Y34727639D01*
X3055599Y34750891D01*
X3123598Y34734830D01*
X3131140Y34730171D01*
X3146549Y34719875D01*
X3146562Y34719868D01*
X3261024Y34672457D01*
X3292238Y34659528D01*
X3446642Y34628815D01*
X3446888Y34628766D01*
X3446891Y34628765D01*
X3446893Y34628765D01*
X3604579Y34628765D01*
X3604580Y34628766D01*
X3759232Y34659528D01*
X3904914Y34719871D01*
X3943558Y34745692D01*
X4010235Y34766571D01*
X4077615Y34748087D01*
X4124306Y34696109D01*
X4127011Y34690044D01*
X4152369Y34628825D01*
X4152374Y34628815D01*
X4239975Y34497712D01*
X4239978Y34497708D01*
X4351472Y34386214D01*
X4351476Y34386211D01*
X4482579Y34298610D01*
X4482592Y34298603D01*
X4608242Y34246558D01*
X4628268Y34238263D01*
X4782918Y34207501D01*
X4782921Y34207500D01*
X4782923Y34207500D01*
X4940609Y34207500D01*
X4940610Y34207501D01*
X5095262Y34238263D01*
X5207727Y34284847D01*
X7437721Y34284847D01*
X7437721Y34127154D01*
X7468482Y33972511D01*
X7468485Y33972499D01*
X7528823Y33826828D01*
X7528830Y33826815D01*
X7559203Y33781359D01*
X7580081Y33714681D01*
X7570663Y33665018D01*
X7542673Y33597441D01*
X7542670Y33597433D01*
X7511909Y33442785D01*
X7511909Y33285092D01*
X7542670Y33130449D01*
X7542673Y33130437D01*
X7603011Y32984766D01*
X7603018Y32984753D01*
X7690619Y32853650D01*
X7690622Y32853646D01*
X7802116Y32742152D01*
X7802120Y32742149D01*
X7933223Y32654548D01*
X7933236Y32654541D01*
X8059569Y32602213D01*
X8078912Y32594201D01*
X8233562Y32563439D01*
X8233565Y32563438D01*
X8233567Y32563438D01*
X8391253Y32563438D01*
X8391254Y32563439D01*
X8545906Y32594201D01*
X8691588Y32654544D01*
X8822698Y32742149D01*
X8934198Y32853649D01*
X9021803Y32984759D01*
X9082146Y33130441D01*
X9112909Y33285096D01*
X9112909Y33442780D01*
X9112909Y33442783D01*
X9112908Y33442785D01*
X9096188Y33526840D01*
X9082146Y33597435D01*
X9082144Y33597441D01*
X9021806Y33743111D01*
X9021802Y33743118D01*
X8991425Y33788580D01*
X8970547Y33855258D01*
X8979966Y33904925D01*
X9007958Y33972503D01*
X9038721Y34127158D01*
X9038721Y34284842D01*
X9038721Y34284845D01*
X9038720Y34284847D01*
X9018557Y34386211D01*
X9007958Y34439497D01*
X9007956Y34439502D01*
X8947618Y34585173D01*
X8947611Y34585186D01*
X8860010Y34716289D01*
X8860007Y34716293D01*
X8748513Y34827787D01*
X8748509Y34827790D01*
X8617406Y34915391D01*
X8617393Y34915398D01*
X8471722Y34975736D01*
X8471710Y34975739D01*
X8317066Y35006500D01*
X8317063Y35006500D01*
X8159379Y35006500D01*
X8159376Y35006500D01*
X8004731Y34975739D01*
X8004719Y34975736D01*
X7859048Y34915398D01*
X7859035Y34915391D01*
X7727932Y34827790D01*
X7727928Y34827787D01*
X7616434Y34716293D01*
X7616431Y34716289D01*
X7528830Y34585186D01*
X7528823Y34585173D01*
X7468485Y34439502D01*
X7468482Y34439490D01*
X7437721Y34284847D01*
X5207727Y34284847D01*
X5240944Y34298606D01*
X5372054Y34386211D01*
X5483554Y34497711D01*
X5571159Y34628821D01*
X5631502Y34774503D01*
X5662265Y34929158D01*
X5662265Y35086842D01*
X5662265Y35086845D01*
X5662264Y35086847D01*
X5633065Y35233639D01*
X5631502Y35241497D01*
X5631500Y35241502D01*
X5571162Y35387173D01*
X5571155Y35387186D01*
X5483554Y35518289D01*
X5483551Y35518293D01*
X5372057Y35629787D01*
X5372053Y35629790D01*
X5240950Y35717391D01*
X5240937Y35717398D01*
X5095266Y35777736D01*
X5095254Y35777739D01*
X4940610Y35808500D01*
X4940607Y35808500D01*
X4782923Y35808500D01*
X4782920Y35808500D01*
X4628275Y35777739D01*
X4628263Y35777736D01*
X4482592Y35717398D01*
X4482576Y35717389D01*
X4443938Y35691572D01*
X4377261Y35670695D01*
X4309881Y35689180D01*
X4263191Y35741160D01*
X4260488Y35747223D01*
X4235132Y35808438D01*
X4235125Y35808451D01*
X4147524Y35939554D01*
X4147521Y35939558D01*
X4036027Y36051052D01*
X4036023Y36051055D01*
X3899849Y36142044D01*
X3901176Y36144031D01*
X3858863Y36185589D01*
X3843398Y36253726D01*
X3864056Y36314884D01*
X3911627Y36386078D01*
X3911628Y36386081D01*
X3911632Y36386086D01*
X3987051Y36568165D01*
X4013164Y36699443D01*
X4025500Y36761457D01*
X5254499Y36761457D01*
X5292947Y36568171D01*
X5292950Y36568161D01*
X5368364Y36386093D01*
X5368371Y36386080D01*
X5477860Y36222219D01*
X5477863Y36222215D01*
X5617214Y36082864D01*
X5617218Y36082861D01*
X5781079Y35973372D01*
X5781092Y35973365D01*
X5963160Y35897951D01*
X5963165Y35897949D01*
X5963169Y35897949D01*
X5963170Y35897948D01*
X6156456Y35859500D01*
X6156459Y35859500D01*
X7453543Y35859500D01*
X7604505Y35889529D01*
X7646835Y35897949D01*
X7787655Y35956279D01*
X7828907Y35973365D01*
X7828907Y35973366D01*
X7828914Y35973368D01*
X7992782Y36082861D01*
X8132139Y36222218D01*
X8241632Y36386086D01*
X8317051Y36568165D01*
X8343164Y36699443D01*
X8355500Y36761457D01*
X8355500Y36958544D01*
X8317052Y37151830D01*
X8317051Y37151831D01*
X8317051Y37151835D01*
X8246547Y37322049D01*
X8241635Y37333908D01*
X8241628Y37333921D01*
X8132139Y37497782D01*
X8132136Y37497786D01*
X7992785Y37637137D01*
X7992781Y37637140D01*
X7828920Y37746629D01*
X7828907Y37746636D01*
X7646839Y37822050D01*
X7646829Y37822053D01*
X7453543Y37860500D01*
X7453541Y37860500D01*
X6936333Y37860500D01*
X6869294Y37880185D01*
X6823539Y37932989D01*
X6813595Y38002147D01*
X6828947Y38046501D01*
X6841278Y38067860D01*
X6841277Y38067860D01*
X6841281Y38067865D01*
X6880500Y38214234D01*
X6880500Y38365766D01*
X6841281Y38512135D01*
X6765515Y38643365D01*
X6658365Y38750515D01*
X6559582Y38807548D01*
X6559581Y38807549D01*
X6527138Y38826280D01*
X6527135Y38826281D01*
X6380766Y38865500D01*
X6229234Y38865500D01*
X6082863Y38826281D01*
X5951635Y38750515D01*
X5951632Y38750513D01*
X5844487Y38643368D01*
X5844485Y38643365D01*
X5768719Y38512137D01*
X5729500Y38365766D01*
X5729500Y38214235D01*
X5768719Y38067864D01*
X5793344Y38025213D01*
X5844485Y37936635D01*
X5844486Y37936634D01*
X5848549Y37929597D01*
X5846220Y37928253D01*
X5866645Y37875416D01*
X5852603Y37806971D01*
X5803787Y37756984D01*
X5790528Y37750544D01*
X5781094Y37746637D01*
X5781079Y37746629D01*
X5617218Y37637140D01*
X5617214Y37637137D01*
X5477863Y37497786D01*
X5477860Y37497782D01*
X5368371Y37333921D01*
X5368364Y37333908D01*
X5292950Y37151840D01*
X5292947Y37151830D01*
X5254500Y36958544D01*
X5254500Y36958541D01*
X5254500Y36761459D01*
X5254500Y36761457D01*
X5254499Y36761457D01*
X4025500Y36761457D01*
X4025500Y36958544D01*
X3987052Y37151830D01*
X3987051Y37151831D01*
X3987051Y37151835D01*
X3916547Y37322049D01*
X3911635Y37333908D01*
X3911628Y37333921D01*
X3802139Y37497782D01*
X3802136Y37497786D01*
X3662785Y37637137D01*
X3662781Y37637140D01*
X3498920Y37746629D01*
X3498907Y37746636D01*
X3316839Y37822050D01*
X3316829Y37822053D01*
X3123543Y37860500D01*
X3123541Y37860500D01*
X2126459Y37860500D01*
X2126457Y37860500D01*
X1933170Y37822053D01*
X1933160Y37822050D01*
X1751092Y37746636D01*
X1751079Y37746629D01*
X1587218Y37637140D01*
X1587214Y37637137D01*
X1447863Y37497786D01*
X1447860Y37497782D01*
X1338371Y37333921D01*
X1338364Y37333908D01*
X1262950Y37151840D01*
X1262947Y37151830D01*
X1224500Y36958544D01*
X1224500Y36958541D01*
X1224500Y36761459D01*
X1224500Y36761457D01*
X1224499Y36761457D01*
X1262947Y36568171D01*
X1262950Y36568161D01*
X1338364Y36386093D01*
X1338371Y36386080D01*
X1447860Y36222219D01*
X1447863Y36222215D01*
X1587214Y36082864D01*
X1587218Y36082861D01*
X1751079Y35973372D01*
X1751092Y35973365D01*
X1879801Y35920053D01*
X1934205Y35876213D01*
X1956270Y35809919D01*
X1956256Y35800696D01*
X1955876Y35790902D01*
X1949500Y35758842D01*
X1949500Y35626136D01*
X1949407Y35623733D01*
X1939005Y35592791D01*
X1929815Y35561490D01*
X1927937Y35559864D01*
X1927145Y35557505D01*
X1901656Y35537091D01*
X1877011Y35515735D01*
X1873968Y35514915D01*
X1872611Y35513827D01*
X1868245Y35513371D01*
X1847232Y35507704D01*
X1847434Y35506689D01*
X1648170Y35467053D01*
X1648160Y35467050D01*
X1466092Y35391636D01*
X1466079Y35391629D01*
X1302218Y35282140D01*
X1302214Y35282137D01*
X1162863Y35142786D01*
X1162860Y35142782D01*
X1053371Y34978921D01*
X1053364Y34978908D01*
X977950Y34796840D01*
X977947Y34796830D01*
X939500Y34603544D01*
X939500Y34603541D01*
X939500Y34406459D01*
X939500Y34406457D01*
X939499Y34406457D01*
X500500Y34406457D01*
X500500Y38908847D01*
X7500500Y38908847D01*
X7500500Y38751154D01*
X7531261Y38596511D01*
X7531264Y38596499D01*
X7591602Y38450828D01*
X7591609Y38450815D01*
X7679210Y38319712D01*
X7679213Y38319708D01*
X7790707Y38208214D01*
X7790711Y38208211D01*
X7921814Y38120610D01*
X7921827Y38120603D01*
X8060825Y38063029D01*
X8067503Y38060263D01*
X8203753Y38033161D01*
X8222153Y38029501D01*
X8222156Y38029500D01*
X8222158Y38029500D01*
X8379844Y38029500D01*
X8379845Y38029501D01*
X8534497Y38060263D01*
X8680179Y38120606D01*
X8811289Y38208211D01*
X8922789Y38319711D01*
X9010394Y38450821D01*
X9070737Y38596503D01*
X9101500Y38751158D01*
X9101500Y38908842D01*
X9101500Y38908845D01*
X9101499Y38908847D01*
X9087246Y38980500D01*
X9070737Y39063497D01*
X9044782Y39126158D01*
X9010397Y39209173D01*
X9010390Y39209186D01*
X8922789Y39340289D01*
X8922786Y39340293D01*
X8811292Y39451787D01*
X8811288Y39451790D01*
X8680185Y39539391D01*
X8680172Y39539398D01*
X8534501Y39599736D01*
X8534489Y39599739D01*
X8379845Y39630500D01*
X8379842Y39630500D01*
X8222158Y39630500D01*
X8222155Y39630500D01*
X8067510Y39599739D01*
X8067498Y39599736D01*
X7921827Y39539398D01*
X7921814Y39539391D01*
X7790711Y39451790D01*
X7790707Y39451787D01*
X7679213Y39340293D01*
X7679210Y39340289D01*
X7591609Y39209186D01*
X7591602Y39209173D01*
X7531264Y39063502D01*
X7531261Y39063490D01*
X7500500Y38908847D01*
X500500Y38908847D01*
X500500Y42404582D01*
X20415235Y42404582D01*
X20415235Y42246889D01*
X20445996Y42092246D01*
X20445999Y42092234D01*
X20506337Y41946563D01*
X20506344Y41946550D01*
X20593945Y41815447D01*
X20593948Y41815443D01*
X20705442Y41703949D01*
X20705446Y41703946D01*
X20836549Y41616345D01*
X20836562Y41616338D01*
X20982233Y41556000D01*
X20982238Y41555998D01*
X21136888Y41525236D01*
X21136891Y41525235D01*
X21136893Y41525235D01*
X21294579Y41525235D01*
X21294580Y41525236D01*
X21449232Y41555998D01*
X21594914Y41616341D01*
X21726024Y41703946D01*
X21837524Y41815446D01*
X21925129Y41946556D01*
X21928037Y41953577D01*
X21971872Y42007978D01*
X22024386Y42027295D01*
X22024184Y42028311D01*
X22110650Y42045512D01*
X22184813Y42060263D01*
X22330495Y42120606D01*
X22461605Y42208211D01*
X22573105Y42319711D01*
X22660710Y42450821D01*
X22721053Y42596503D01*
X22751816Y42751158D01*
X22751816Y42760149D01*
X22771501Y42827188D01*
X22806922Y42863249D01*
X22862605Y42900454D01*
X22974105Y43011954D01*
X23061710Y43143064D01*
X23122053Y43288746D01*
X23152816Y43443401D01*
X23152816Y43601085D01*
X23152816Y43601088D01*
X23152815Y43601090D01*
X23135430Y43688490D01*
X23122053Y43755740D01*
X23122051Y43755745D01*
X23061713Y43901416D01*
X23061706Y43901429D01*
X22974105Y44032532D01*
X22974102Y44032536D01*
X22862608Y44144030D01*
X22862604Y44144033D01*
X22731501Y44231634D01*
X22731488Y44231641D01*
X22585817Y44291979D01*
X22585805Y44291982D01*
X22431161Y44322743D01*
X22431158Y44322743D01*
X22273474Y44322743D01*
X22273471Y44322743D01*
X22118826Y44291982D01*
X22118814Y44291979D01*
X21973143Y44231641D01*
X21973130Y44231634D01*
X21842027Y44144033D01*
X21842023Y44144030D01*
X21730529Y44032536D01*
X21730526Y44032532D01*
X21642925Y43901429D01*
X21642918Y43901416D01*
X21582580Y43755745D01*
X21582577Y43755733D01*
X21551816Y43601090D01*
X21551816Y43592096D01*
X21532131Y43525057D01*
X21496707Y43488994D01*
X21441027Y43451790D01*
X21441023Y43451787D01*
X21329529Y43340293D01*
X21329526Y43340289D01*
X21241923Y43209183D01*
X21241921Y43209178D01*
X21239011Y43202153D01*
X21195168Y43147751D01*
X21142665Y43128436D01*
X21142867Y43127424D01*
X20982245Y43095474D01*
X20982233Y43095471D01*
X20836562Y43035133D01*
X20836549Y43035126D01*
X20705446Y42947525D01*
X20705442Y42947522D01*
X20593948Y42836028D01*
X20593945Y42836024D01*
X20506344Y42704921D01*
X20506337Y42704908D01*
X20445999Y42559237D01*
X20445996Y42559225D01*
X20415235Y42404582D01*
X500500Y42404582D01*
X500500Y45401457D01*
X1224499Y45401457D01*
X1262947Y45208171D01*
X1262950Y45208161D01*
X1338364Y45026093D01*
X1338371Y45026080D01*
X1447860Y44862219D01*
X1447863Y44862215D01*
X1587214Y44722864D01*
X1587218Y44722861D01*
X1751079Y44613372D01*
X1751092Y44613365D01*
X1933160Y44537951D01*
X1933165Y44537949D01*
X1933169Y44537949D01*
X1933170Y44537948D01*
X2126456Y44499500D01*
X2126459Y44499500D01*
X3123543Y44499500D01*
X3279462Y44530515D01*
X3316835Y44537949D01*
X3498914Y44613368D01*
X3662782Y44722861D01*
X3802139Y44862218D01*
X3911632Y45026086D01*
X3987051Y45208165D01*
X3999632Y45271418D01*
X4025500Y45401457D01*
X5254499Y45401457D01*
X5292947Y45208171D01*
X5292950Y45208161D01*
X5368364Y45026093D01*
X5368371Y45026080D01*
X5477860Y44862219D01*
X5477863Y44862215D01*
X5617214Y44722864D01*
X5617218Y44722861D01*
X5781079Y44613372D01*
X5781083Y44613370D01*
X5781086Y44613368D01*
X5790523Y44609459D01*
X5844927Y44565622D01*
X5866995Y44499328D01*
X5849719Y44431628D01*
X5846565Y44426968D01*
X5768719Y44292137D01*
X5729500Y44145766D01*
X5729500Y43994235D01*
X5768719Y43847864D01*
X5776624Y43834173D01*
X5844485Y43716635D01*
X5951635Y43609485D01*
X6027400Y43565742D01*
X6082646Y43533845D01*
X6082865Y43533719D01*
X6229234Y43494500D01*
X6229236Y43494500D01*
X6380764Y43494500D01*
X6380766Y43494500D01*
X6527135Y43533719D01*
X6527357Y43533847D01*
X7849500Y43533847D01*
X7849500Y43376154D01*
X7880261Y43221511D01*
X7880264Y43221499D01*
X7940602Y43075828D01*
X7940609Y43075815D01*
X8028210Y42944712D01*
X8028213Y42944708D01*
X8139707Y42833214D01*
X8139711Y42833211D01*
X8270814Y42745610D01*
X8270827Y42745603D01*
X8370060Y42704500D01*
X8416503Y42685263D01*
X8571153Y42654501D01*
X8571156Y42654500D01*
X8571158Y42654500D01*
X8728844Y42654500D01*
X8728845Y42654501D01*
X8883497Y42685263D01*
X9029179Y42745606D01*
X9160289Y42833211D01*
X9271789Y42944711D01*
X9359394Y43075821D01*
X9367535Y43095474D01*
X9380102Y43125815D01*
X9419737Y43221503D01*
X9450500Y43376158D01*
X9450500Y43533842D01*
X9450500Y43533845D01*
X9444155Y43565742D01*
X9444155Y43565743D01*
X9440554Y43583847D01*
X14049500Y43583847D01*
X14049500Y43426154D01*
X14080261Y43271511D01*
X14080264Y43271499D01*
X14140602Y43125828D01*
X14140609Y43125815D01*
X14228210Y42994712D01*
X14228213Y42994708D01*
X14339707Y42883214D01*
X14339711Y42883211D01*
X14470814Y42795610D01*
X14470827Y42795603D01*
X14616498Y42735265D01*
X14616503Y42735263D01*
X14769042Y42704921D01*
X14771153Y42704501D01*
X14771156Y42704500D01*
X14771158Y42704500D01*
X14928844Y42704500D01*
X14928845Y42704501D01*
X15083497Y42735263D01*
X15229179Y42795606D01*
X15360289Y42883211D01*
X15471789Y42994711D01*
X15559394Y43125821D01*
X15559566Y43126235D01*
X15573067Y43158834D01*
X15619737Y43271503D01*
X15650500Y43426158D01*
X15650500Y43583842D01*
X15650500Y43583845D01*
X15650499Y43583847D01*
X15647070Y43601085D01*
X15619737Y43738497D01*
X15574436Y43847865D01*
X15559397Y43884173D01*
X15559390Y43884186D01*
X15471789Y44015289D01*
X15471786Y44015293D01*
X15360292Y44126787D01*
X15360288Y44126790D01*
X15229185Y44214391D01*
X15229172Y44214398D01*
X15083501Y44274736D01*
X15083489Y44274739D01*
X14928845Y44305500D01*
X14928842Y44305500D01*
X14771158Y44305500D01*
X14771155Y44305500D01*
X14616510Y44274739D01*
X14616498Y44274736D01*
X14470827Y44214398D01*
X14470814Y44214391D01*
X14339711Y44126790D01*
X14339707Y44126787D01*
X14228213Y44015293D01*
X14228210Y44015289D01*
X14140609Y43884186D01*
X14140602Y43884173D01*
X14080264Y43738502D01*
X14080261Y43738490D01*
X14049500Y43583847D01*
X9440554Y43583847D01*
X9419738Y43688490D01*
X9419737Y43688497D01*
X9408082Y43716636D01*
X9359397Y43834173D01*
X9359390Y43834186D01*
X9271789Y43965289D01*
X9271786Y43965293D01*
X9160292Y44076787D01*
X9160288Y44076790D01*
X9029185Y44164391D01*
X9029172Y44164398D01*
X8883501Y44224736D01*
X8883489Y44224739D01*
X8728845Y44255500D01*
X8728842Y44255500D01*
X8571158Y44255500D01*
X8571155Y44255500D01*
X8416510Y44224739D01*
X8416498Y44224736D01*
X8270827Y44164398D01*
X8270814Y44164391D01*
X8139711Y44076790D01*
X8139707Y44076787D01*
X8028213Y43965293D01*
X8028210Y43965289D01*
X7940609Y43834186D01*
X7940602Y43834173D01*
X7880264Y43688502D01*
X7880261Y43688490D01*
X7849500Y43533847D01*
X6527357Y43533847D01*
X6658365Y43609485D01*
X6765515Y43716635D01*
X6841281Y43847865D01*
X6880500Y43994234D01*
X6880500Y44145766D01*
X6841281Y44292135D01*
X6833565Y44305500D01*
X6828947Y44313499D01*
X6812473Y44381398D01*
X6835325Y44447426D01*
X6890245Y44490617D01*
X6936333Y44499500D01*
X7453543Y44499500D01*
X7609462Y44530515D01*
X7646835Y44537949D01*
X7828914Y44613368D01*
X7992782Y44722861D01*
X8132139Y44862218D01*
X8241632Y45026086D01*
X8317051Y45208165D01*
X8329632Y45271418D01*
X8355500Y45401457D01*
X8355500Y45598544D01*
X8317052Y45791830D01*
X8317051Y45791831D01*
X8317051Y45791835D01*
X8247873Y45958847D01*
X8241635Y45973908D01*
X8241628Y45973921D01*
X8132139Y46137782D01*
X8132136Y46137786D01*
X7992785Y46277137D01*
X7992781Y46277140D01*
X7828920Y46386629D01*
X7828907Y46386636D01*
X7646839Y46462050D01*
X7646829Y46462053D01*
X7453543Y46500500D01*
X7453541Y46500500D01*
X6156459Y46500500D01*
X6156457Y46500500D01*
X5963170Y46462053D01*
X5963160Y46462050D01*
X5781092Y46386636D01*
X5781079Y46386629D01*
X5617218Y46277140D01*
X5617214Y46277137D01*
X5477863Y46137786D01*
X5477860Y46137782D01*
X5368371Y45973921D01*
X5368364Y45973908D01*
X5292950Y45791840D01*
X5292947Y45791830D01*
X5254500Y45598544D01*
X5254500Y45598541D01*
X5254500Y45401459D01*
X5254500Y45401457D01*
X5254499Y45401457D01*
X4025500Y45401457D01*
X4025500Y45598544D01*
X3987052Y45791830D01*
X3987051Y45791831D01*
X3987051Y45791835D01*
X3917873Y45958847D01*
X3911635Y45973908D01*
X3911628Y45973921D01*
X3802139Y46137782D01*
X3802136Y46137786D01*
X3662785Y46277137D01*
X3662781Y46277140D01*
X3498920Y46386629D01*
X3498907Y46386636D01*
X3316839Y46462050D01*
X3316829Y46462053D01*
X3123543Y46500500D01*
X3123541Y46500500D01*
X2126459Y46500500D01*
X2126457Y46500500D01*
X1933170Y46462053D01*
X1933160Y46462050D01*
X1751092Y46386636D01*
X1751079Y46386629D01*
X1587218Y46277140D01*
X1587214Y46277137D01*
X1447863Y46137786D01*
X1447860Y46137782D01*
X1338371Y45973921D01*
X1338364Y45973908D01*
X1262950Y45791840D01*
X1262947Y45791830D01*
X1224500Y45598544D01*
X1224500Y45598541D01*
X1224500Y45401459D01*
X1224500Y45401457D01*
X1224499Y45401457D01*
X500500Y45401457D01*
X500500Y50532298D01*
X520185Y50599337D01*
X554241Y50628847D01*
X3589500Y50628847D01*
X3589500Y50471154D01*
X3620261Y50316511D01*
X3620264Y50316499D01*
X3680602Y50170828D01*
X3680609Y50170815D01*
X3768210Y50039712D01*
X3768213Y50039708D01*
X3879707Y49928214D01*
X3879711Y49928211D01*
X4010814Y49840610D01*
X4010827Y49840603D01*
X4131028Y49790815D01*
X4156503Y49780263D01*
X4311153Y49749501D01*
X4311156Y49749500D01*
X4311158Y49749500D01*
X4468844Y49749500D01*
X4468845Y49749501D01*
X4623497Y49780263D01*
X4769179Y49840606D01*
X4900289Y49928211D01*
X5011789Y50039711D01*
X5099394Y50170821D01*
X5159737Y50316503D01*
X5190500Y50471158D01*
X5190500Y50628842D01*
X5190500Y50628845D01*
X5190499Y50628847D01*
X5170258Y50730603D01*
X5159737Y50783497D01*
X5141856Y50826666D01*
X5099397Y50929173D01*
X5099390Y50929186D01*
X5011790Y51060288D01*
X5011784Y51060295D01*
X4943232Y51128847D01*
X11169500Y51128847D01*
X11169500Y50971154D01*
X11200261Y50816511D01*
X11200264Y50816499D01*
X11260602Y50670828D01*
X11260609Y50670815D01*
X11348210Y50539712D01*
X11348213Y50539708D01*
X11459707Y50428214D01*
X11459711Y50428211D01*
X11590821Y50340606D01*
X11591338Y50340329D01*
X11591558Y50340113D01*
X11595886Y50337221D01*
X11595337Y50336401D01*
X11641186Y50291371D01*
X11656652Y50223234D01*
X11635995Y50162077D01*
X11580612Y50079191D01*
X11580602Y50079173D01*
X11520264Y49933502D01*
X11520261Y49933490D01*
X11489500Y49778847D01*
X11489500Y49621154D01*
X11520261Y49466511D01*
X11520264Y49466499D01*
X11580602Y49320828D01*
X11580609Y49320815D01*
X11668210Y49189712D01*
X11668213Y49189708D01*
X11779707Y49078214D01*
X11779711Y49078211D01*
X11910814Y48990610D01*
X11910827Y48990603D01*
X12032288Y48940293D01*
X12056503Y48930263D01*
X12211153Y48899501D01*
X12211156Y48899500D01*
X12227439Y48899500D01*
X12294478Y48879815D01*
X12340233Y48827011D01*
X12350177Y48757853D01*
X12342000Y48728048D01*
X12315264Y48663502D01*
X12315261Y48663490D01*
X12284500Y48508847D01*
X12284500Y48351154D01*
X12315261Y48196511D01*
X12315264Y48196499D01*
X12375602Y48050828D01*
X12375609Y48050815D01*
X12463210Y47919712D01*
X12463213Y47919708D01*
X12574707Y47808214D01*
X12574711Y47808211D01*
X12705814Y47720610D01*
X12705827Y47720603D01*
X12851498Y47660265D01*
X12851503Y47660263D01*
X13006153Y47629501D01*
X13006156Y47629500D01*
X13075576Y47629500D01*
X13142615Y47609815D01*
X13188370Y47557011D01*
X13198314Y47487853D01*
X13190137Y47458048D01*
X13130264Y47313502D01*
X13130261Y47313490D01*
X13099500Y47158847D01*
X13099500Y47001154D01*
X13130261Y46846511D01*
X13130264Y46846499D01*
X13190602Y46700828D01*
X13190609Y46700815D01*
X13278210Y46569712D01*
X13278213Y46569708D01*
X13280240Y46567681D01*
X13280962Y46566358D01*
X13282076Y46565001D01*
X13281818Y46564790D01*
X13313725Y46506358D01*
X13308741Y46436666D01*
X13282001Y46395061D01*
X13282076Y46394999D01*
X13281552Y46394361D01*
X13280240Y46392319D01*
X13278213Y46390293D01*
X13278210Y46390289D01*
X13190609Y46259186D01*
X13190602Y46259173D01*
X13130264Y46113502D01*
X13130261Y46113490D01*
X13099500Y45958847D01*
X13099500Y45801154D01*
X13130261Y45646511D01*
X13130264Y45646499D01*
X13190602Y45500828D01*
X13190609Y45500815D01*
X13278210Y45369712D01*
X13278213Y45369708D01*
X13389707Y45258214D01*
X13389711Y45258211D01*
X13520814Y45170610D01*
X13520827Y45170603D01*
X13666498Y45110265D01*
X13666503Y45110263D01*
X13821153Y45079501D01*
X13821156Y45079500D01*
X13821158Y45079500D01*
X13978844Y45079500D01*
X13978845Y45079501D01*
X14133497Y45110263D01*
X14279179Y45170606D01*
X14410289Y45258211D01*
X14521789Y45369711D01*
X14609394Y45500821D01*
X14669737Y45646503D01*
X14700500Y45801158D01*
X14700500Y45958842D01*
X14700500Y45958845D01*
X14700499Y45958847D01*
X14669738Y46113490D01*
X14669737Y46113497D01*
X14659676Y46137786D01*
X14609397Y46259173D01*
X14609390Y46259186D01*
X14521789Y46390289D01*
X14519766Y46392312D01*
X14519043Y46393635D01*
X14517924Y46394999D01*
X14518182Y46395212D01*
X14486276Y46453632D01*
X14491255Y46523324D01*
X14517999Y46564940D01*
X14517924Y46565001D01*
X14518454Y46565649D01*
X14519766Y46567688D01*
X14521789Y46569711D01*
X14609394Y46700821D01*
X14669737Y46846503D01*
X14700500Y47001158D01*
X14700500Y47158842D01*
X14700500Y47158845D01*
X14700499Y47158847D01*
X14669738Y47313490D01*
X14669737Y47313497D01*
X14669735Y47313502D01*
X14609397Y47459173D01*
X14609390Y47459186D01*
X14521789Y47590289D01*
X14521786Y47590293D01*
X14410292Y47701787D01*
X14410288Y47701790D01*
X14279185Y47789391D01*
X14279172Y47789398D01*
X14133501Y47849736D01*
X14133489Y47849739D01*
X13978845Y47880500D01*
X13978842Y47880500D01*
X13909424Y47880500D01*
X13842385Y47900185D01*
X13796630Y47952989D01*
X13786686Y48022147D01*
X13794863Y48051952D01*
X13854735Y48196499D01*
X13854737Y48196503D01*
X13885500Y48351158D01*
X13885500Y48508842D01*
X13885500Y48508845D01*
X13885499Y48508847D01*
X25574500Y48508847D01*
X25574500Y48351154D01*
X25605261Y48196511D01*
X25605264Y48196499D01*
X25665602Y48050828D01*
X25665609Y48050815D01*
X25753210Y47919712D01*
X25753213Y47919708D01*
X25805240Y47867681D01*
X25838725Y47806358D01*
X25833741Y47736666D01*
X25805240Y47692319D01*
X25753213Y47640293D01*
X25753210Y47640289D01*
X25665609Y47509186D01*
X25665602Y47509173D01*
X25605264Y47363502D01*
X25605261Y47363490D01*
X25574500Y47208847D01*
X25574500Y47051154D01*
X25605261Y46896511D01*
X25605264Y46896499D01*
X25665602Y46750828D01*
X25665609Y46750815D01*
X25753210Y46619712D01*
X25753213Y46619708D01*
X25864707Y46508214D01*
X25864711Y46508211D01*
X25995814Y46420610D01*
X25995827Y46420603D01*
X26077849Y46386629D01*
X26141503Y46360263D01*
X26296153Y46329501D01*
X26296156Y46329500D01*
X26296158Y46329500D01*
X26453844Y46329500D01*
X26453845Y46329501D01*
X26608497Y46360263D01*
X26754179Y46420606D01*
X26885289Y46508211D01*
X26996789Y46619711D01*
X27084394Y46750821D01*
X27144737Y46896503D01*
X27175500Y47051158D01*
X27175500Y47208842D01*
X27175500Y47208845D01*
X27175499Y47208847D01*
X27154684Y47313490D01*
X27144737Y47363497D01*
X27105102Y47459186D01*
X27084397Y47509173D01*
X27084390Y47509186D01*
X26996789Y47640289D01*
X26996786Y47640293D01*
X26944760Y47692319D01*
X26911275Y47753642D01*
X26916259Y47823334D01*
X26944760Y47867681D01*
X26996786Y47919708D01*
X26996789Y47919711D01*
X27084394Y48050821D01*
X27084863Y48051952D01*
X27144735Y48196499D01*
X27144737Y48196503D01*
X27175500Y48351158D01*
X27175500Y48508842D01*
X27175500Y48508845D01*
X27175499Y48508847D01*
X27144738Y48663490D01*
X27144737Y48663497D01*
X27144735Y48663502D01*
X27084397Y48809173D01*
X27084390Y48809186D01*
X26996789Y48940289D01*
X26996786Y48940293D01*
X26885292Y49051787D01*
X26885288Y49051790D01*
X26754185Y49139391D01*
X26754172Y49139398D01*
X26608501Y49199736D01*
X26608489Y49199739D01*
X26453845Y49230500D01*
X26453842Y49230500D01*
X26296158Y49230500D01*
X26296155Y49230500D01*
X26141510Y49199739D01*
X26141498Y49199736D01*
X25995827Y49139398D01*
X25995814Y49139391D01*
X25864711Y49051790D01*
X25864707Y49051787D01*
X25753213Y48940293D01*
X25753210Y48940289D01*
X25665609Y48809186D01*
X25665602Y48809173D01*
X25605264Y48663502D01*
X25605261Y48663490D01*
X25574500Y48508847D01*
X13885499Y48508847D01*
X13854738Y48663490D01*
X13854737Y48663497D01*
X13854735Y48663502D01*
X13794397Y48809173D01*
X13794390Y48809186D01*
X13706789Y48940289D01*
X13706786Y48940293D01*
X13595292Y49051787D01*
X13595288Y49051790D01*
X13464185Y49139391D01*
X13464172Y49139398D01*
X13318501Y49199736D01*
X13318489Y49199739D01*
X13163845Y49230500D01*
X13163842Y49230500D01*
X13147561Y49230500D01*
X13080522Y49250185D01*
X13034767Y49302989D01*
X13024823Y49372147D01*
X13033000Y49401952D01*
X13059735Y49466499D01*
X13059737Y49466503D01*
X13090500Y49621158D01*
X13090500Y49778842D01*
X13090500Y49778845D01*
X13090499Y49778847D01*
X13060788Y49928211D01*
X13059737Y49933497D01*
X13058489Y49936511D01*
X12999397Y50079173D01*
X12999390Y50079186D01*
X12911789Y50210289D01*
X12911786Y50210293D01*
X12800292Y50321787D01*
X12800288Y50321790D01*
X12669181Y50409394D01*
X12668654Y50409675D01*
X12668429Y50409896D01*
X12664114Y50412779D01*
X12664660Y50413598D01*
X12618809Y50458637D01*
X12603348Y50526775D01*
X12624002Y50587923D01*
X12679394Y50670821D01*
X12739737Y50816503D01*
X12770500Y50971158D01*
X12770500Y51128842D01*
X12770500Y51128845D01*
X12770499Y51128847D01*
X12758173Y51190815D01*
X12739737Y51283497D01*
X12739735Y51283502D01*
X12679397Y51429173D01*
X12679390Y51429186D01*
X12591789Y51560289D01*
X12591786Y51560293D01*
X12503232Y51648847D01*
X15749500Y51648847D01*
X15749500Y51491154D01*
X15780261Y51336511D01*
X15780264Y51336499D01*
X15840602Y51190828D01*
X15840609Y51190815D01*
X15928210Y51059712D01*
X15928213Y51059708D01*
X16030240Y50957681D01*
X16063725Y50896358D01*
X16058741Y50826666D01*
X16030240Y50782319D01*
X15928213Y50680293D01*
X15928210Y50680289D01*
X15840609Y50549186D01*
X15840602Y50549173D01*
X15780264Y50403502D01*
X15780261Y50403490D01*
X15749500Y50248847D01*
X15749500Y50091154D01*
X15780261Y49936511D01*
X15780264Y49936499D01*
X15840602Y49790828D01*
X15840609Y49790815D01*
X15928210Y49659712D01*
X15928213Y49659708D01*
X16039707Y49548214D01*
X16039711Y49548211D01*
X16170814Y49460610D01*
X16170827Y49460603D01*
X16280082Y49415349D01*
X16316503Y49400263D01*
X16371831Y49389258D01*
X16433740Y49356874D01*
X16468315Y49296159D01*
X16469256Y49291834D01*
X16480261Y49236508D01*
X16480264Y49236499D01*
X16540602Y49090828D01*
X16540609Y49090815D01*
X16628210Y48959712D01*
X16628213Y48959708D01*
X16739707Y48848214D01*
X16739711Y48848211D01*
X16870814Y48760610D01*
X16870827Y48760603D01*
X17016498Y48700265D01*
X17016503Y48700263D01*
X17171153Y48669501D01*
X17171156Y48669500D01*
X17171158Y48669500D01*
X17328844Y48669500D01*
X17328845Y48669501D01*
X17483497Y48700263D01*
X17629179Y48760606D01*
X17760289Y48848211D01*
X17791893Y48879815D01*
X17862319Y48950240D01*
X17923642Y48983725D01*
X17993334Y48978741D01*
X18037681Y48950240D01*
X18139707Y48848214D01*
X18139711Y48848211D01*
X18270814Y48760610D01*
X18270827Y48760603D01*
X18416498Y48700265D01*
X18416503Y48700263D01*
X18571153Y48669501D01*
X18571156Y48669500D01*
X18571158Y48669500D01*
X18728844Y48669500D01*
X18728845Y48669501D01*
X18883497Y48700263D01*
X19029179Y48760606D01*
X19160289Y48848211D01*
X19271789Y48959711D01*
X19359394Y49090821D01*
X19419737Y49236503D01*
X19430743Y49291834D01*
X19463125Y49353742D01*
X19523841Y49388317D01*
X19528118Y49389248D01*
X19583497Y49400263D01*
X19729179Y49460606D01*
X19860289Y49548211D01*
X19971789Y49659711D01*
X20059394Y49790821D01*
X20119737Y49936503D01*
X20150500Y50091158D01*
X20150500Y50248842D01*
X20150500Y50248845D01*
X20150499Y50248847D01*
X20135990Y50321789D01*
X20119737Y50403497D01*
X20117178Y50409675D01*
X20059397Y50549173D01*
X20059390Y50549186D01*
X19971789Y50680289D01*
X19971786Y50680293D01*
X19869760Y50782319D01*
X19836275Y50843642D01*
X19841259Y50913334D01*
X19869760Y50957681D01*
X19970925Y51058847D01*
X25274500Y51058847D01*
X25274500Y50901154D01*
X25305261Y50746511D01*
X25305264Y50746499D01*
X25365602Y50600828D01*
X25365609Y50600815D01*
X25453210Y50469712D01*
X25453213Y50469708D01*
X25564707Y50358214D01*
X25564711Y50358211D01*
X25695814Y50270610D01*
X25695827Y50270603D01*
X25841440Y50210289D01*
X25841503Y50210263D01*
X25996153Y50179501D01*
X25996156Y50179500D01*
X25996158Y50179500D01*
X26153844Y50179500D01*
X26153845Y50179501D01*
X26308497Y50210263D01*
X26454179Y50270606D01*
X26585289Y50358211D01*
X26696789Y50469711D01*
X26784394Y50600821D01*
X26844737Y50746503D01*
X26875500Y50901158D01*
X26875500Y51058842D01*
X26875500Y51058845D01*
X26875499Y51058847D01*
X26860585Y51133825D01*
X26844737Y51213497D01*
X26825726Y51259394D01*
X26784397Y51359173D01*
X26784390Y51359186D01*
X26696789Y51490289D01*
X26696786Y51490293D01*
X26585292Y51601787D01*
X26585288Y51601790D01*
X26454185Y51689391D01*
X26454172Y51689398D01*
X26308501Y51749736D01*
X26308489Y51749739D01*
X26153845Y51780500D01*
X26153842Y51780500D01*
X25996158Y51780500D01*
X25996155Y51780500D01*
X25841510Y51749739D01*
X25841498Y51749736D01*
X25695827Y51689398D01*
X25695814Y51689391D01*
X25564711Y51601790D01*
X25564707Y51601787D01*
X25453213Y51490293D01*
X25453210Y51490289D01*
X25365609Y51359186D01*
X25365602Y51359173D01*
X25305264Y51213502D01*
X25305261Y51213490D01*
X25274500Y51058847D01*
X19970925Y51058847D01*
X19971786Y51059708D01*
X19971789Y51059711D01*
X20017983Y51128845D01*
X20021311Y51133825D01*
X20059390Y51190815D01*
X20059390Y51190816D01*
X20059394Y51190821D01*
X20119737Y51336503D01*
X20150500Y51491158D01*
X20150500Y51648842D01*
X20150500Y51648845D01*
X20150499Y51648847D01*
X20145936Y51671787D01*
X20119737Y51803497D01*
X20113241Y51819179D01*
X20059397Y51949173D01*
X20059390Y51949186D01*
X19971789Y52080289D01*
X19971786Y52080293D01*
X19860292Y52191787D01*
X19860288Y52191790D01*
X19729185Y52279391D01*
X19729172Y52279398D01*
X19583501Y52339736D01*
X19583492Y52339739D01*
X19528166Y52350744D01*
X19466256Y52383130D01*
X19431682Y52443846D01*
X19430750Y52448126D01*
X19419737Y52503497D01*
X19404651Y52539918D01*
X19359397Y52649173D01*
X19359390Y52649186D01*
X19271789Y52780289D01*
X19271786Y52780293D01*
X19160292Y52891787D01*
X19160288Y52891790D01*
X19029185Y52979391D01*
X19029172Y52979398D01*
X18883501Y53039736D01*
X18883489Y53039739D01*
X18728845Y53070500D01*
X18728842Y53070500D01*
X18571158Y53070500D01*
X18571155Y53070500D01*
X18416510Y53039739D01*
X18416498Y53039736D01*
X18270827Y52979398D01*
X18270814Y52979391D01*
X18139711Y52891790D01*
X18139707Y52891787D01*
X18037681Y52789760D01*
X17976358Y52756275D01*
X17906666Y52761259D01*
X17862319Y52789760D01*
X17760292Y52891787D01*
X17760288Y52891790D01*
X17629185Y52979391D01*
X17629172Y52979398D01*
X17483501Y53039736D01*
X17483489Y53039739D01*
X17328845Y53070500D01*
X17328842Y53070500D01*
X17171158Y53070500D01*
X17171155Y53070500D01*
X17016510Y53039739D01*
X17016498Y53039736D01*
X16870827Y52979398D01*
X16870814Y52979391D01*
X16739711Y52891790D01*
X16739707Y52891787D01*
X16628213Y52780293D01*
X16628210Y52780289D01*
X16540609Y52649186D01*
X16540602Y52649173D01*
X16480264Y52503502D01*
X16480262Y52503495D01*
X16469256Y52448167D01*
X16436870Y52386257D01*
X16376153Y52351684D01*
X16371833Y52350744D01*
X16316505Y52339738D01*
X16316498Y52339736D01*
X16170827Y52279398D01*
X16170814Y52279391D01*
X16039711Y52191790D01*
X16039707Y52191787D01*
X15928213Y52080293D01*
X15928210Y52080289D01*
X15840609Y51949186D01*
X15840602Y51949173D01*
X15780264Y51803502D01*
X15780261Y51803490D01*
X15749500Y51648847D01*
X12503232Y51648847D01*
X12480292Y51671787D01*
X12480288Y51671790D01*
X12349185Y51759391D01*
X12349172Y51759398D01*
X12203501Y51819736D01*
X12203489Y51819739D01*
X12048845Y51850500D01*
X12048842Y51850500D01*
X11891158Y51850500D01*
X11891155Y51850500D01*
X11736510Y51819739D01*
X11736498Y51819736D01*
X11590827Y51759398D01*
X11590814Y51759391D01*
X11459711Y51671790D01*
X11459707Y51671787D01*
X11348213Y51560293D01*
X11348210Y51560289D01*
X11260609Y51429186D01*
X11260602Y51429173D01*
X11200264Y51283502D01*
X11200261Y51283490D01*
X11169500Y51128847D01*
X4943232Y51128847D01*
X4900292Y51171787D01*
X4900288Y51171790D01*
X4769185Y51259391D01*
X4769172Y51259398D01*
X4623501Y51319736D01*
X4623489Y51319739D01*
X4468845Y51350500D01*
X4468842Y51350500D01*
X4311158Y51350500D01*
X4311155Y51350500D01*
X4156510Y51319739D01*
X4156498Y51319736D01*
X4010827Y51259398D01*
X4010814Y51259391D01*
X3879711Y51171790D01*
X3879707Y51171787D01*
X3768213Y51060293D01*
X3768210Y51060289D01*
X3680609Y50929186D01*
X3680602Y50929173D01*
X3620264Y50783502D01*
X3620261Y50783490D01*
X3589500Y50628847D01*
X554241Y50628847D01*
X572989Y50645092D01*
X642147Y50655036D01*
X648667Y50653920D01*
X705435Y50642628D01*
X721157Y50639500D01*
X721158Y50639500D01*
X878844Y50639500D01*
X878845Y50639501D01*
X1033497Y50670263D01*
X1179179Y50730606D01*
X1183628Y50733580D01*
X1190301Y50738037D01*
X1190301Y50738038D01*
X1310289Y50818211D01*
X1421789Y50929711D01*
X1509394Y51060821D01*
X1569737Y51206503D01*
X1600500Y51361158D01*
X1600500Y51518842D01*
X1600500Y51518845D01*
X1600499Y51518847D01*
X1592255Y51560293D01*
X1569737Y51673497D01*
X1534156Y51759398D01*
X1509397Y51819173D01*
X1509390Y51819186D01*
X1421789Y51950289D01*
X1421786Y51950293D01*
X1310292Y52061787D01*
X1310288Y52061790D01*
X1179185Y52149391D01*
X1179172Y52149398D01*
X1033501Y52209736D01*
X1033489Y52209739D01*
X878845Y52240500D01*
X878842Y52240500D01*
X721158Y52240500D01*
X721155Y52240500D01*
X648691Y52226086D01*
X627707Y52227964D01*
X606853Y52224965D01*
X593605Y52231016D01*
X579100Y52232313D01*
X562461Y52245238D01*
X543297Y52253990D01*
X535423Y52266242D01*
X523922Y52275176D01*
X516912Y52295045D01*
X505523Y52312768D01*
X501988Y52337352D01*
X500678Y52341066D01*
X500500Y52347703D01*
X500500Y52362097D01*
X8540284Y52362097D01*
X8540284Y52204404D01*
X8571045Y52049761D01*
X8571048Y52049749D01*
X8631386Y51904078D01*
X8631393Y51904065D01*
X8718994Y51772962D01*
X8718997Y51772958D01*
X8830491Y51661464D01*
X8830495Y51661461D01*
X8961598Y51573860D01*
X8961611Y51573853D01*
X9107282Y51513515D01*
X9107287Y51513513D01*
X9261937Y51482751D01*
X9261940Y51482750D01*
X9261942Y51482750D01*
X9419628Y51482750D01*
X9419629Y51482751D01*
X9574281Y51513513D01*
X9719963Y51573856D01*
X9851073Y51661461D01*
X9962573Y51772961D01*
X10050178Y51904071D01*
X10110521Y52049753D01*
X10141284Y52204408D01*
X10141284Y52362092D01*
X10141284Y52362095D01*
X10141283Y52362097D01*
X10125022Y52443846D01*
X10110521Y52516747D01*
X10055669Y52649173D01*
X10050181Y52662423D01*
X10050174Y52662436D01*
X9962573Y52793539D01*
X9962570Y52793543D01*
X9851076Y52905037D01*
X9851072Y52905040D01*
X9719969Y52992641D01*
X9719956Y52992648D01*
X9574285Y53052986D01*
X9574273Y53052989D01*
X9419629Y53083750D01*
X9419626Y53083750D01*
X9261942Y53083750D01*
X9261939Y53083750D01*
X9107294Y53052989D01*
X9107282Y53052986D01*
X8961611Y52992648D01*
X8961598Y52992641D01*
X8830495Y52905040D01*
X8830491Y52905037D01*
X8718997Y52793543D01*
X8718994Y52793539D01*
X8631393Y52662436D01*
X8631386Y52662423D01*
X8571048Y52516752D01*
X8571045Y52516740D01*
X8540284Y52362097D01*
X500500Y52362097D01*
X500500Y54368847D01*
X7299500Y54368847D01*
X7299500Y54211154D01*
X7330261Y54056511D01*
X7330264Y54056499D01*
X7390602Y53910828D01*
X7390609Y53910815D01*
X7478210Y53779712D01*
X7478213Y53779708D01*
X7589707Y53668214D01*
X7589711Y53668211D01*
X7720814Y53580610D01*
X7720827Y53580603D01*
X7866498Y53520265D01*
X7866503Y53520263D01*
X8021153Y53489501D01*
X8021156Y53489500D01*
X8021158Y53489500D01*
X8178844Y53489500D01*
X8178845Y53489501D01*
X8333497Y53520263D01*
X8479179Y53580606D01*
X8610289Y53668211D01*
X8721789Y53779711D01*
X8809394Y53910821D01*
X8869737Y54056503D01*
X8900500Y54211158D01*
X8900500Y54368842D01*
X8900500Y54368845D01*
X8900499Y54368847D01*
X8894139Y54400821D01*
X8869737Y54523497D01*
X8860208Y54546503D01*
X8809397Y54669173D01*
X8809390Y54669186D01*
X8724626Y54796043D01*
X8724625Y54796045D01*
X8724624Y54796046D01*
X8721788Y54800291D01*
X8663232Y54858847D01*
X11199500Y54858847D01*
X11199500Y54701154D01*
X11230261Y54546511D01*
X11230264Y54546499D01*
X11290602Y54400828D01*
X11290609Y54400815D01*
X11378210Y54269712D01*
X11378213Y54269708D01*
X11489707Y54158214D01*
X11494419Y54154347D01*
X11493405Y54153112D01*
X11533236Y54105465D01*
X11541953Y54036141D01*
X11522650Y53987070D01*
X11470608Y53909184D01*
X11470602Y53909173D01*
X11410264Y53763502D01*
X11410261Y53763490D01*
X11379500Y53608847D01*
X11379500Y53451154D01*
X11410261Y53296511D01*
X11410264Y53296499D01*
X11470602Y53150828D01*
X11470609Y53150815D01*
X11558210Y53019712D01*
X11558213Y53019708D01*
X11669707Y52908214D01*
X11669711Y52908211D01*
X11800814Y52820610D01*
X11800827Y52820603D01*
X11944098Y52761259D01*
X11946503Y52760263D01*
X12101153Y52729501D01*
X12101156Y52729500D01*
X12101158Y52729500D01*
X12258844Y52729500D01*
X12258845Y52729501D01*
X12413497Y52760263D01*
X12559179Y52820606D01*
X12690289Y52908211D01*
X12801789Y53019711D01*
X12889394Y53150821D01*
X12949737Y53296503D01*
X12980500Y53451158D01*
X12980500Y53608842D01*
X12980500Y53608845D01*
X12980499Y53608847D01*
X12968690Y53668214D01*
X12949737Y53763497D01*
X12897681Y53889173D01*
X12889397Y53909173D01*
X12889390Y53909186D01*
X12801789Y54040289D01*
X12801786Y54040293D01*
X12690292Y54151787D01*
X12685581Y54155653D01*
X12686593Y54156887D01*
X12646760Y54204543D01*
X12638047Y54273867D01*
X12657350Y54322932D01*
X12709394Y54400821D01*
X12769737Y54546503D01*
X12800500Y54701158D01*
X12800500Y54858842D01*
X12800500Y54858845D01*
X12800499Y54858847D01*
X12790553Y54908847D01*
X12769737Y55013497D01*
X12769735Y55013502D01*
X12709397Y55159173D01*
X12709390Y55159186D01*
X12621789Y55290289D01*
X12621786Y55290293D01*
X12510292Y55401787D01*
X12510288Y55401790D01*
X12379185Y55489391D01*
X12379172Y55489398D01*
X12233501Y55549736D01*
X12233489Y55549739D01*
X12078845Y55580500D01*
X12078842Y55580500D01*
X11921158Y55580500D01*
X11921155Y55580500D01*
X11766510Y55549739D01*
X11766498Y55549736D01*
X11620827Y55489398D01*
X11620814Y55489391D01*
X11489711Y55401790D01*
X11489707Y55401787D01*
X11378213Y55290293D01*
X11378210Y55290289D01*
X11290609Y55159186D01*
X11290602Y55159173D01*
X11230264Y55013502D01*
X11230261Y55013490D01*
X11199500Y54858847D01*
X8663232Y54858847D01*
X8610292Y54911787D01*
X8610288Y54911790D01*
X8479185Y54999391D01*
X8479172Y54999398D01*
X8333501Y55059736D01*
X8333489Y55059739D01*
X8178845Y55090500D01*
X8178842Y55090500D01*
X8021158Y55090500D01*
X8021155Y55090500D01*
X7866510Y55059739D01*
X7866498Y55059736D01*
X7720827Y54999398D01*
X7720814Y54999391D01*
X7589711Y54911790D01*
X7589707Y54911787D01*
X7478213Y54800293D01*
X7478210Y54800289D01*
X7390609Y54669186D01*
X7390602Y54669173D01*
X7330264Y54523502D01*
X7330261Y54523490D01*
X7299500Y54368847D01*
X500500Y54368847D01*
X500500Y59355500D01*
X520185Y59422539D01*
X572989Y59468294D01*
X624500Y59479500D01*
X3649195Y59479500D01*
X3716234Y59459815D01*
G37*
%TD.AperFunction*%
%TD*%
M02*
