%TF.GenerationSoftware,KiCad,Pcbnew,9.0.7*%
%TF.CreationDate,2026-02-21T16:24:55+01:00*%
%TF.ProjectId,horsesense,686f7273-6573-4656-9e73-652e6b696361,1.0*%
%TF.SameCoordinates,Original*%
%TF.FileFunction,Copper,L4,Bot*%
%TF.FilePolarity,Positive*%
%FSLAX46Y46*%
G04 Gerber Fmt 4.6, Leading zero omitted, Abs format (unit mm)*
G04 Created by KiCad (PCBNEW 9.0.7) date 2026-02-21 16:24:55*
%MOMM*%
%LPD*%
G01*
G04 APERTURE LIST*
%TA.AperFunction,HeatsinkPad*%
%ADD10C,0.600000*%
%TD*%
%TA.AperFunction,ComponentPad*%
%ADD11C,0.254000*%
%TD*%
%TA.AperFunction,ComponentPad*%
%ADD12R,1.000000X1.000000*%
%TD*%
%TA.AperFunction,ComponentPad*%
%ADD13C,1.000000*%
%TD*%
%TA.AperFunction,HeatsinkPad*%
%ADD14C,0.500000*%
%TD*%
%TA.AperFunction,HeatsinkPad*%
%ADD15R,2.700000X2.700000*%
%TD*%
%TA.AperFunction,HeatsinkPad*%
%ADD16O,2.100000X1.000000*%
%TD*%
%TA.AperFunction,HeatsinkPad*%
%ADD17O,1.800000X1.000000*%
%TD*%
%TA.AperFunction,SMDPad,CuDef*%
%ADD18R,0.540000X0.550000*%
%TD*%
%TA.AperFunction,SMDPad,CuDef*%
%ADD19C,1.000000*%
%TD*%
%TA.AperFunction,SMDPad,CuDef*%
%ADD20R,0.400000X0.700000*%
%TD*%
%TA.AperFunction,SMDPad,CuDef*%
%ADD21R,0.350000X0.550000*%
%TD*%
%TA.AperFunction,SMDPad,CuDef*%
%ADD22R,1.250000X1.450000*%
%TD*%
%TA.AperFunction,FiducialPad,Global*%
%ADD23C,1.000000*%
%TD*%
%TA.AperFunction,ViaPad*%
%ADD24C,0.600000*%
%TD*%
%TA.AperFunction,Conductor*%
%ADD25C,0.200000*%
%TD*%
%TA.AperFunction,Conductor*%
%ADD26C,0.600000*%
%TD*%
%TA.AperFunction,Conductor*%
%ADD27C,0.500000*%
%TD*%
G04 APERTURE END LIST*
D10*
%TO.P,U9,41,GND*%
%TO.N,GND*%
X16550000Y51570000D03*
X16550000Y50170000D03*
X17250000Y52270000D03*
X17250000Y50870000D03*
X17250000Y49470000D03*
X17950000Y51570000D03*
X17950000Y50170000D03*
X18650000Y52270000D03*
X18650000Y50870000D03*
X18650000Y49470000D03*
X19350000Y51570000D03*
X19350000Y50170000D03*
%TD*%
D11*
%TO.P,U1,B2,\u002AINT*%
%TO.N,MAX_INT_1_8*%
X18175000Y31580000D03*
%TO.P,U1,B3,GPIO1*%
%TO.N,GPIO1*%
X18575000Y31580000D03*
%TD*%
D12*
%TO.P,J4,1,Pin_1*%
%TO.N,+3.3V*%
X1940000Y30695000D03*
D13*
%TO.P,J4,2,Pin_2*%
%TO.N,Net-(J4-Pin_2)*%
X1940000Y31965000D03*
%TO.P,J4,3,Pin_3*%
%TO.N,Net-(J4-Pin_3)*%
X1940000Y33235000D03*
%TO.P,J4,4,Pin_4*%
%TO.N,GND*%
X1940000Y34505000D03*
%TD*%
D14*
%TO.P,U3,25,GND*%
%TO.N,GND*%
X13440000Y4177500D03*
X14540000Y4177500D03*
X15640000Y4177500D03*
X13440000Y5277500D03*
X14540000Y5277500D03*
D15*
X14540000Y5277500D03*
D14*
X15640000Y5277500D03*
X13440000Y6377500D03*
X14540000Y6377500D03*
X15640000Y6377500D03*
%TD*%
D16*
%TO.P,J1,S1,SHIELD*%
%TO.N,GND*%
X6805000Y45500000D03*
D17*
X2625000Y45500000D03*
D16*
X6805000Y36860000D03*
D17*
X2625000Y36860000D03*
%TD*%
D18*
%TO.P,D6,1*%
%TO.N,Net-(U1-PD2_IN)*%
X13000000Y27910000D03*
%TO.P,D6,2*%
X14310000Y27910000D03*
%TO.P,D6,3*%
X15690000Y27910000D03*
%TO.P,D6,4*%
X17000000Y27910000D03*
%TO.P,D6,5*%
%TO.N,PD_GND*%
X17000000Y25530000D03*
%TO.P,D6,6*%
%TO.N,Net-(U1-PD2_IN)*%
X15690000Y25530000D03*
%TO.P,D6,7*%
X14310000Y25530000D03*
%TO.P,D6,8*%
X13000000Y25530000D03*
%TD*%
D19*
%TO.P,TP4,1,1*%
%TO.N,unconnected-(TP4-Pad1)*%
X2360000Y55080000D03*
%TD*%
D20*
%TO.P,D2,1,RK*%
%TO.N,Net-(D2-RK)*%
X14300000Y31160000D03*
%TO.P,D2,2,A*%
%TO.N,+3.3V_LED*%
X14300000Y29710000D03*
%TO.P,D2,3,GK*%
%TO.N,Net-(D2-GK)*%
X14950000Y31160000D03*
%TO.P,D2,4,BK*%
%TO.N,Net-(D2-BK)*%
X14950000Y29710000D03*
%TO.P,D2,5,A*%
%TO.N,+3.3V_LED*%
X15600000Y31160000D03*
%TO.P,D2,6*%
%TO.N,N/C*%
X15600000Y29710000D03*
%TD*%
D21*
%TO.P,D1,1,A*%
%TO.N,+3.3V_LED*%
X14290000Y22555000D03*
D22*
X15340000Y23000000D03*
D21*
%TO.P,D1,2,K*%
%TO.N,Net-(D1-K)*%
X14290000Y23445000D03*
%TD*%
D18*
%TO.P,D4,1*%
%TO.N,Net-(U1-PD1_IN)*%
X13000000Y20470000D03*
%TO.P,D4,2*%
X14310000Y20470000D03*
%TO.P,D4,3*%
X15690000Y20470000D03*
%TO.P,D4,4*%
X17000000Y20470000D03*
%TO.P,D4,5*%
%TO.N,PD_GND*%
X17000000Y18090000D03*
%TO.P,D4,6*%
%TO.N,Net-(U1-PD1_IN)*%
X15690000Y18090000D03*
%TO.P,D4,7*%
X14310000Y18090000D03*
%TO.P,D4,8*%
X13000000Y18090000D03*
%TD*%
D23*
%TO.P,TP3,1,1*%
%TO.N,unconnected-(TP3-Pad1)*%
X25440000Y3270000D03*
%TD*%
D20*
%TO.P,D3,1,RK*%
%TO.N,Net-(D3-RK)*%
X14350000Y16305000D03*
%TO.P,D3,2,A*%
%TO.N,+3.3V_LED*%
X14350000Y14855000D03*
%TO.P,D3,3,GK*%
%TO.N,Net-(D2-GK)*%
X15000000Y16305000D03*
%TO.P,D3,4,BK*%
%TO.N,Net-(D3-BK)*%
X15000000Y14855000D03*
%TO.P,D3,5,A*%
%TO.N,+3.3V_LED*%
X15650000Y16305000D03*
%TO.P,D3,6*%
%TO.N,N/C*%
X15650000Y14855000D03*
%TD*%
D24*
%TO.N,+3.3V*%
X21040000Y17355000D03*
X4490000Y56960000D03*
X12263415Y32766585D03*
X21070000Y21430000D03*
X21050000Y19380000D03*
X3912585Y27242415D03*
X26850000Y11605000D03*
X7260000Y34010000D03*
X19275000Y38205000D03*
X15575000Y39180000D03*
X1940000Y10510000D03*
X4660000Y53540000D03*
X27950000Y14955000D03*
%TO.N,GND*%
X13110000Y36980000D03*
X24175000Y1555000D03*
X13700000Y39180000D03*
X16375000Y1582000D03*
X6150000Y2605000D03*
X12390000Y58630000D03*
X18361793Y29893207D03*
X26900000Y58690000D03*
X4390000Y50550000D03*
X1800000Y12380000D03*
X4740000Y12270000D03*
X19475000Y36530000D03*
X8312409Y33363938D03*
X21875000Y25680000D03*
X9863235Y1668235D03*
X10225000Y9105000D03*
X8136500Y22655000D03*
X18620000Y9000000D03*
X2025000Y27130000D03*
X21225000Y6880000D03*
X1750000Y24080000D03*
X19300000Y12580000D03*
X27950000Y12805000D03*
X12700000Y28855000D03*
X6670000Y19610000D03*
X7000000Y26282500D03*
X4949931Y28984147D03*
X18575000Y23330000D03*
X2730000Y21630000D03*
X3840000Y7170000D03*
X20925000Y27680000D03*
X24175000Y52280000D03*
X14625000Y28780000D03*
X23100000Y17480000D03*
X4430000Y58860000D03*
X22991276Y12052999D03*
X23200000Y21480000D03*
X27490000Y36300000D03*
X5190922Y35008000D03*
X8100000Y54290000D03*
X26300000Y5280000D03*
X2440000Y1940000D03*
X26795000Y31155000D03*
X23200000Y23255000D03*
X20975000Y12030000D03*
X12280000Y7700000D03*
X23100000Y19380000D03*
%TO.N,+1.8V*%
X19025000Y27630000D03*
X14650000Y36955000D03*
X24925000Y37105000D03*
%TO.N,VBUS*%
X12350000Y781000D03*
X8251000Y38780000D03*
X8525000Y43580000D03*
%TO.N,+BATT*%
X24325000Y5280000D03*
X16450000Y7255000D03*
%TO.N,Net-(U3-REGN)*%
X8100000Y2510000D03*
X19600000Y780000D03*
%TO.N,Vsys*%
X14500000Y8080000D03*
X4910000Y3370000D03*
X7160000Y6160000D03*
X29199000Y28655000D03*
%TO.N,Net-(IC1-PON)*%
X6310000Y18100000D03*
X2275000Y20530000D03*
%TO.N,SDA*%
X18925000Y1955000D03*
X12290000Y49700000D03*
X5950000Y14780000D03*
X10079986Y34573544D03*
%TO.N,SCL*%
X6976000Y13680000D03*
X10538565Y33305892D03*
X13085000Y48430000D03*
X17425000Y2605000D03*
%TO.N,MAX_INT*%
X20475000Y39405000D03*
X14600000Y39205000D03*
%TO.N,Net-(U9-IO0)*%
X800000Y51440000D03*
X21200000Y57262000D03*
%TO.N,MAX_CS_1_8*%
X16825000Y35055000D03*
X20203067Y34931994D03*
%TO.N,MAX_SCLK_1_8*%
X19013235Y34331994D03*
X16902354Y34258749D03*
%TO.N,INT_BAT*%
X27675000Y9230000D03*
X26450000Y56130000D03*
%TO.N,CE_BAT*%
X17450000Y5020000D03*
X12709000Y38772423D03*
%TO.N,PSEL_BAT*%
X14375000Y2180000D03*
X12000000Y54780000D03*
%TO.N,MAX_INT_1_8*%
X20740089Y35524958D03*
%TO.N,ICM_FSYNC*%
X5956886Y29286713D03*
X12180000Y53530000D03*
%TO.N,GPS_TX*%
X16625000Y45880000D03*
X20950000Y13955000D03*
%TO.N,ICM_INT2*%
X8238221Y34206000D03*
X11970000Y51050000D03*
%TO.N,GPS_RST*%
X25010000Y28530000D03*
X26375000Y48430000D03*
%TO.N,ICM_INT*%
X9340784Y52283250D03*
X4875000Y36656000D03*
%TO.N,GPS_PP1*%
X26075000Y50980000D03*
X22735936Y13992407D03*
%TO.N,FLASH_SCLK*%
X25450000Y15930000D03*
X21951316Y42830000D03*
%TO.N,GPS_SEL*%
X10125000Y11130000D03*
X26375000Y47130000D03*
%TO.N,Net-(J4-Pin_3)*%
X26500000Y53510000D03*
%TO.N,GPS_RX*%
X16600000Y47080000D03*
X21875000Y13980000D03*
%TO.N,ICM_AD0*%
X22675000Y57280000D03*
X9057335Y36950665D03*
%TO.N,Net-(J4-Pin_2)*%
X25560000Y54830000D03*
%TO.N,GPS_FIX*%
X26425000Y38905000D03*
X26174265Y14155735D03*
%TO.N,Net-(U1-PD2_IN)*%
X18025000Y27255000D03*
X19925000Y29955000D03*
%TO.N,Net-(D2-RK)*%
X13620579Y30961000D03*
%TO.N,Net-(D1-K)*%
X13475000Y23530000D03*
%TO.N,Net-(IC1-VCC)*%
X6890000Y16980000D03*
X4117506Y18664528D03*
%TO.N,Net-(U1-PD1_IN)*%
X16200000Y21480000D03*
%TO.N,PD_GND*%
X18500000Y25155000D03*
%TO.N,FLASH_SID0*%
X21215735Y42325735D03*
X24175827Y15680418D03*
%TO.N,FLASH_SID3*%
X26550735Y16229265D03*
X22352316Y43522243D03*
%TO.N,FLASH_CS*%
X27998000Y26480000D03*
X25342100Y42980000D03*
%TO.N,FLASH_SID1*%
X24775000Y38781000D03*
X27375000Y26993500D03*
%TO.N,FLASH_SID2*%
X26120000Y26049958D03*
X25581574Y38739044D03*
%TO.N,+3.3V_LED*%
X13175000Y24680000D03*
X13625000Y29730000D03*
X14231885Y32655999D03*
X16075000Y11730000D03*
X16344496Y32762087D03*
X14350000Y14130000D03*
X16375000Y16330000D03*
X13400000Y22580000D03*
X16486765Y30955000D03*
%TO.N,Net-(D2-GK)*%
X11200003Y24630000D03*
X15600000Y17180000D03*
X10978456Y27657058D03*
X16450000Y29730000D03*
%TO.N,Net-(D2-BK)*%
X11749899Y31211001D03*
%TO.N,Net-(D3-RK)*%
X7138883Y27070353D03*
X13525000Y16280000D03*
X10350000Y21691027D03*
%TO.N,Net-(D3-BK)*%
X15025000Y13480000D03*
%TO.N,GPIO1*%
X15350000Y34655000D03*
X10875834Y28452369D03*
X10600003Y23752732D03*
%TD*%
D25*
%TO.N,ICM_INT*%
X4875000Y36656000D02*
X5818185Y35712815D01*
X8396550Y37426550D02*
X8901000Y37931000D01*
X5818185Y35712815D02*
X8100915Y35712815D01*
X8901000Y37931000D02*
X8901000Y40536750D01*
X8396550Y36008450D02*
X8396550Y37426550D01*
X8901000Y40536750D02*
X9678000Y41313750D01*
X8100915Y35712815D02*
X8396550Y36008450D01*
X9678000Y51770068D02*
X9184034Y52264034D01*
X9678000Y41313750D02*
X9678000Y51770068D01*
X9184034Y52264034D02*
X9360000Y52264034D01*
X9360000Y52264034D02*
X9340784Y52283250D01*
%TO.N,SDA*%
X10079986Y34573544D02*
X10078574Y34573544D01*
X10079986Y34574956D02*
X11300000Y35794970D01*
X9501000Y32788900D02*
X6625000Y29912900D01*
X11300000Y35794970D02*
X11300000Y36076400D01*
X4025000Y23255000D02*
X7498000Y19782000D01*
X6482900Y14780000D02*
X5950000Y14780000D01*
X10078574Y34573544D02*
X9501000Y33995970D01*
X12290000Y49657043D02*
X12290000Y49700000D01*
X9501000Y33995970D02*
X9501000Y32788900D01*
X6625000Y29912900D02*
X6625000Y29106300D01*
X6625000Y29106300D02*
X4025000Y26506300D01*
X7498000Y19782000D02*
X7498000Y15795100D01*
X4025000Y26506300D02*
X4025000Y23255000D01*
X7498000Y15795100D02*
X6482900Y14780000D01*
X11307000Y39540150D02*
X12084000Y40317150D01*
X10079986Y34573544D02*
X10079986Y34574956D01*
X11300000Y36076400D02*
X11307000Y36083400D01*
X11307000Y36083400D02*
X11307000Y39540150D01*
X12084000Y40317150D02*
X12084000Y49451043D01*
X12084000Y49451043D02*
X12290000Y49657043D01*
%TO.N,ICM_AD0*%
X11787800Y56662000D02*
X22057000Y56662000D01*
X9057335Y36950665D02*
X9302000Y37195330D01*
X9302000Y37195330D02*
X9302000Y40370650D01*
X9302000Y40370650D02*
X10079000Y41147650D01*
X10079000Y54953200D02*
X11787800Y56662000D01*
X10079000Y41147650D02*
X10079000Y54953200D01*
X22057000Y56662000D02*
X22675000Y57280000D01*
%TO.N,Net-(U3-REGN)*%
X19600000Y780000D02*
X19600000Y655000D01*
X19475000Y780000D02*
X18317100Y780000D01*
X13574000Y581000D02*
X12755000Y1400000D01*
X9825000Y2555000D02*
X8145000Y2555000D01*
X8145000Y2555000D02*
X8100000Y2510000D01*
X19600000Y655000D02*
X19475000Y780000D01*
X18317100Y780000D02*
X18118100Y581000D01*
X18118100Y581000D02*
X13574000Y581000D01*
X12755000Y1400000D02*
X10980000Y1400000D01*
X10980000Y1400000D02*
X9825000Y2555000D01*
%TO.N,CE_BAT*%
X17450000Y5020000D02*
X17450000Y3840000D01*
X7401000Y13081000D02*
X8701000Y14381000D01*
X13775000Y3305000D02*
X12084200Y3305000D01*
X12725000Y37955000D02*
X12725000Y38756423D01*
X7401000Y9100300D02*
X7401000Y13081000D01*
X16905517Y3295517D02*
X13784483Y3295517D01*
X10740565Y32327165D02*
X10740565Y32659365D01*
X13784483Y3295517D02*
X13775000Y3305000D01*
X9333000Y7168300D02*
X7401000Y9100300D01*
X5228000Y26008000D02*
X7828000Y28608000D01*
X12510000Y37740000D02*
X12725000Y37955000D01*
X12084200Y3305000D02*
X9333000Y6056200D01*
X8701000Y14381000D02*
X8701000Y20280300D01*
X17450000Y3840000D02*
X16905517Y3295517D01*
X9333000Y6056200D02*
X9333000Y7168300D01*
X12725000Y38756423D02*
X12709000Y38772423D01*
X8701000Y20280300D02*
X5228000Y23753300D01*
X5228000Y23753300D02*
X5228000Y26008000D01*
X7828000Y28608000D02*
X7828000Y29414600D01*
X7828000Y29414600D02*
X10740565Y32327165D01*
X10740565Y32659365D02*
X12510000Y34428800D01*
X12510000Y34428800D02*
X12510000Y37740000D01*
%TO.N,SCL*%
X17425000Y2605000D02*
X17398682Y2578682D01*
X17398682Y2578682D02*
X17398682Y2631318D01*
X17398682Y2631318D02*
X17150000Y2880000D01*
X17150000Y2880000D02*
X11942100Y2880000D01*
X11942100Y2880000D02*
X8932000Y5890100D01*
X7000000Y8934200D02*
X7000000Y13656000D01*
X8932000Y5890100D02*
X8932000Y7002200D01*
X7000000Y13656000D02*
X6976000Y13680000D01*
X8932000Y7002200D02*
X7000000Y8934200D01*
X6976000Y13680000D02*
X8300000Y15004000D01*
%TO.N,PSEL_BAT*%
X12000000Y54780000D02*
X12972000Y53808000D01*
X9938565Y32659365D02*
X7026000Y29746800D01*
X7899000Y15629000D02*
X6376000Y14106000D01*
X12972000Y49272000D02*
X12485000Y48785000D01*
X14350000Y2205000D02*
X14375000Y2180000D01*
X12485000Y40151050D02*
X11708000Y39374050D01*
X7899000Y19948100D02*
X7899000Y15629000D01*
X12485000Y48785000D02*
X12485000Y40151050D01*
X12972000Y53808000D02*
X12972000Y49272000D01*
X11708000Y39374050D02*
X11708000Y35917300D01*
X11701000Y35628870D02*
X11700000Y35627870D01*
X9938565Y33583593D02*
X9938565Y33555835D01*
X11708000Y35917300D02*
X11701000Y35910300D01*
X9938565Y33055949D02*
X9938565Y32659365D01*
X11700000Y35627870D02*
X11700000Y35345028D01*
X11700000Y35345028D02*
X9938565Y33583593D01*
X9938565Y33555835D02*
X9937565Y33554835D01*
X7026000Y29746800D02*
X7026000Y28940200D01*
X9937565Y33554835D02*
X9937565Y33056949D01*
X8531000Y6836100D02*
X8531000Y5724000D01*
X7026000Y28940200D02*
X4426000Y26340200D01*
X9937565Y33056949D02*
X9938565Y33055949D01*
X4426000Y26340200D02*
X4426000Y23421100D01*
X11701000Y35910300D02*
X11701000Y35628870D01*
X4426000Y23421100D02*
X7899000Y19948100D01*
X6376000Y14106000D02*
X6376000Y8991100D01*
X6376000Y8991100D02*
X8531000Y6836100D01*
X8531000Y5724000D02*
X12050000Y2205000D01*
X12050000Y2205000D02*
X14350000Y2205000D01*
%TO.N,SDA*%
X12740943Y1801000D02*
X11901900Y1801000D01*
X5975000Y8825000D02*
X5975000Y14755000D01*
X5975000Y14755000D02*
X5950000Y14780000D01*
X11898900Y1804000D02*
X11883900Y1804000D01*
X11901900Y1801000D02*
X11898900Y1804000D01*
X11883900Y1804000D02*
X8130000Y5557900D01*
X8130000Y6670000D02*
X5975000Y8825000D01*
X8130000Y5557900D02*
X8130000Y6670000D01*
D26*
%TO.N,VBUS*%
X8251000Y38782000D02*
X8251000Y38780000D01*
%TO.N,Vsys*%
X29199000Y9379000D02*
X27900000Y8080000D01*
X27900000Y8080000D02*
X14500000Y8080000D01*
X29199000Y28655000D02*
X29199000Y9379000D01*
D25*
%TO.N,Net-(IC1-PON)*%
X2275000Y20530000D02*
X3150000Y20530000D01*
X3150000Y20530000D02*
X5580000Y18100000D01*
X5580000Y18100000D02*
X6310000Y18100000D01*
%TO.N,SDA*%
X12921100Y1801000D02*
X12779943Y1801000D01*
X13740100Y982000D02*
X12921100Y1801000D01*
X18925000Y1955000D02*
X17952000Y982000D01*
X17952000Y982000D02*
X13740100Y982000D01*
%TO.N,SCL*%
X12102000Y35744200D02*
X12109000Y35751200D01*
X10538565Y33305892D02*
X10538565Y33306065D01*
X10339565Y33136063D02*
X10339565Y32493265D01*
X4827000Y26174100D02*
X7427000Y28774100D01*
X12109000Y39207950D02*
X12886000Y39984950D01*
X10538565Y33305892D02*
X10509394Y33305892D01*
X12886000Y48040000D02*
X13276000Y48430000D01*
X7427000Y28774100D02*
X7427000Y29580700D01*
X12101000Y35461770D02*
X12102000Y35462770D01*
X12101000Y34868500D02*
X12101000Y35461770D01*
X4827000Y23587200D02*
X4827000Y26174100D01*
X8300000Y20114200D02*
X4827000Y23587200D01*
X12886000Y39984950D02*
X12886000Y48040000D01*
X12109000Y35751200D02*
X12109000Y39207950D01*
X10339565Y32493265D02*
X7725650Y29879350D01*
X12102000Y35462770D02*
X12102000Y35744200D01*
X10538565Y33306065D02*
X12101000Y34868500D01*
X8300000Y15004000D02*
X8300000Y20114200D01*
X7427000Y29580700D02*
X7725650Y29879350D01*
X13276000Y48430000D02*
X13085000Y48430000D01*
X10509394Y33305892D02*
X10339565Y33136063D01*
X7725650Y29879350D02*
X8011981Y30165681D01*
%TO.N,MAX_INT*%
X20375000Y39305000D02*
X16650000Y39305000D01*
X16650000Y39305000D02*
X15924000Y38579000D01*
X15924000Y38579000D02*
X15226000Y38579000D01*
X15226000Y38579000D02*
X14600000Y39205000D01*
X20475000Y39405000D02*
X20375000Y39305000D01*
%TO.N,Net-(U9-IO0)*%
X9678000Y54158000D02*
X6960000Y51440000D01*
X11820700Y57262000D02*
X9678000Y55119300D01*
X6960000Y51440000D02*
X800000Y51440000D01*
X9678000Y55119300D02*
X9678000Y54158000D01*
X21200000Y57262000D02*
X11820700Y57262000D01*
%TO.N,MAX_CS_1_8*%
X16825000Y35055000D02*
X17570905Y35055000D01*
X17570905Y35055000D02*
X17693911Y34931994D01*
X17693911Y34931994D02*
X20203067Y34931994D01*
%TO.N,MAX_SCLK_1_8*%
X16975599Y34331994D02*
X19013235Y34331994D01*
X16902354Y34258749D02*
X16975599Y34331994D01*
%TO.N,INT_BAT*%
X27519000Y56130000D02*
X26450000Y56130000D01*
X28598000Y10153000D02*
X28598000Y31197942D01*
X29399000Y54250000D02*
X27519000Y56130000D01*
X28598000Y31197942D02*
X29399000Y31998942D01*
X27675000Y9230000D02*
X28598000Y10153000D01*
X29399000Y31998942D02*
X29399000Y54250000D01*
%TO.N,MAX_INT_1_8*%
X20740089Y35524958D02*
X20740089Y35464911D01*
X20740089Y35464911D02*
X20804067Y35400933D01*
X19233433Y33038433D02*
X19050000Y32855000D01*
X19050000Y31405000D02*
X18775000Y31130000D01*
X19050000Y32855000D02*
X19050000Y31405000D01*
X18375000Y31130000D02*
X18147000Y31358000D01*
X20804067Y34605000D02*
X19237500Y33038433D01*
X20804067Y35400933D02*
X20804067Y34605000D01*
X18147000Y31358000D02*
X18147000Y31580000D01*
X19237500Y33038433D02*
X19233433Y33038433D01*
X18775000Y31130000D02*
X18375000Y31130000D01*
%TO.N,ICM_FSYNC*%
X11683000Y49913057D02*
X11689000Y49919057D01*
X9100000Y34443500D02*
X10906000Y36249500D01*
X9100000Y32955000D02*
X9100000Y34443500D01*
X12571000Y53022470D02*
X12180000Y53413470D01*
X5956886Y29811886D02*
X9100000Y32955000D01*
X12070943Y50301000D02*
X12571000Y50801057D01*
X5956886Y29286713D02*
X5956886Y29811886D01*
X11683000Y40483250D02*
X11683000Y49913057D01*
X10906000Y39706250D02*
X11683000Y40483250D01*
X12041057Y50301000D02*
X12070943Y50301000D01*
X11689000Y49919057D02*
X11689000Y49948943D01*
X11689000Y49948943D02*
X12041057Y50301000D01*
X10906000Y36249500D02*
X10906000Y39706250D01*
X12180000Y53413470D02*
X12180000Y53530000D01*
X12571000Y50801057D02*
X12571000Y53022470D01*
%TO.N,GPS_TX*%
X19812735Y41850165D02*
X19812735Y44925635D01*
X25390000Y22065000D02*
X22974000Y24481000D01*
X18882900Y45880000D02*
X16625000Y45880000D01*
X20950000Y13955000D02*
X20950000Y14438734D01*
X19812735Y44925635D02*
X19825000Y44937900D01*
X22405000Y27449557D02*
X22404000Y27450557D01*
X22404000Y29609443D02*
X22742000Y29947443D01*
X21325000Y39710300D02*
X20546316Y40488984D01*
X19825000Y44937900D02*
X18882900Y45880000D01*
X25390000Y18878734D02*
X25390000Y22065000D01*
X22974000Y24481000D02*
X22974000Y26508800D01*
X21331000Y35629000D02*
X21331000Y38218943D01*
X22974000Y26508800D02*
X22405000Y27077800D01*
X22742000Y34218000D02*
X21331000Y35629000D01*
X21325000Y38224943D02*
X21325000Y39710300D01*
X19825000Y41220800D02*
X19825000Y41837900D01*
X20546316Y40488984D02*
X20546316Y40499484D01*
X22404000Y27450557D02*
X22404000Y29609443D01*
X19825000Y41837900D02*
X19812735Y41850165D01*
X22405000Y27077800D02*
X22405000Y27449557D01*
X22742000Y29947443D02*
X22742000Y34218000D01*
X21331000Y38218943D02*
X21325000Y38224943D01*
X20950000Y14438734D02*
X25390000Y18878734D01*
X20546316Y40499484D02*
X19825000Y41220800D01*
%TO.N,ICM_INT2*%
X8238221Y34206000D02*
X8392821Y34360600D01*
X11282000Y40649350D02*
X11282000Y50362000D01*
X10505000Y39872350D02*
X11282000Y40649350D01*
X11282000Y50362000D02*
X11970000Y51050000D01*
X8392821Y34360600D02*
X8450000Y34360600D01*
X8450000Y34360600D02*
X10505000Y36415600D01*
X10505000Y36415600D02*
X10505000Y39872350D01*
%TO.N,GPS_RST*%
X22952316Y47290216D02*
X24092100Y48430000D01*
X23737000Y39215543D02*
X23731000Y39221543D01*
X23731000Y40706900D02*
X22952316Y41485584D01*
X25148000Y35214600D02*
X23737000Y36625600D01*
X23731000Y39221543D02*
X23731000Y40706900D01*
X22952316Y41485584D02*
X22952316Y47290216D01*
X25148000Y28668000D02*
X25148000Y35214600D01*
X23737000Y36625600D02*
X23737000Y39215543D01*
X25010000Y28530000D02*
X25148000Y28668000D01*
X24092100Y48430000D02*
X26375000Y48430000D01*
%TO.N,GPS_PP1*%
X21348316Y40821184D02*
X21348316Y40831684D01*
X20627000Y42170100D02*
X20614735Y42182365D01*
X23544000Y29615243D02*
X23544000Y34550200D01*
X22127000Y40042500D02*
X21348316Y40821184D01*
X20627000Y41553000D02*
X20627000Y42170100D01*
X22725000Y15079534D02*
X26192000Y18546534D01*
X26192000Y18546534D02*
X26192000Y22397200D01*
X23206000Y29277243D02*
X23544000Y29615243D01*
X26192000Y22397200D02*
X23776000Y24813200D01*
X23207000Y27781757D02*
X23206000Y27782757D01*
X23544000Y34550200D02*
X22133000Y35961200D01*
X23206000Y27782757D02*
X23206000Y29277243D01*
X22133000Y38551143D02*
X22127000Y38557143D01*
X23050000Y50980000D02*
X26075000Y50980000D01*
X20625000Y48555000D02*
X23050000Y50980000D01*
X20614735Y42634605D02*
X20627000Y42646870D01*
X22735936Y13992407D02*
X22725000Y14003343D01*
X20627000Y48553000D02*
X20625000Y48555000D01*
X22725000Y14003343D02*
X22725000Y15079534D01*
X22133000Y35961200D02*
X22133000Y38551143D01*
X21348316Y40831684D02*
X20627000Y41553000D01*
X23776000Y26841000D02*
X23207000Y27410000D01*
X20627000Y42646870D02*
X20627000Y48553000D01*
X23776000Y24813200D02*
X23776000Y26841000D01*
X23207000Y27410000D02*
X23207000Y27781757D01*
X20614735Y42182365D02*
X20614735Y42634605D01*
X22127000Y38557143D02*
X22127000Y40042500D01*
%TO.N,FLASH_SCLK*%
X24346000Y34882400D02*
X22935000Y36293400D01*
X22935000Y38883343D02*
X22929000Y38889343D01*
X22150316Y41153384D02*
X22150316Y42631000D01*
X25450000Y15980000D02*
X26994000Y17524000D01*
X24578000Y25145400D02*
X24578000Y27173200D01*
X26994000Y17524000D02*
X26994000Y22729400D01*
X22935000Y36293400D02*
X22935000Y38883343D01*
X24009000Y28113957D02*
X24008000Y28114957D01*
X24008000Y28114957D02*
X24008000Y28945043D01*
X22929000Y38889343D02*
X22929000Y40374700D01*
X25450000Y15930000D02*
X25450000Y15980000D01*
X24009000Y27742200D02*
X24009000Y28113957D01*
X24008000Y28945043D02*
X24346000Y29283043D01*
X24346000Y29283043D02*
X24346000Y34882400D01*
X26994000Y22729400D02*
X24578000Y25145400D01*
X24578000Y27173200D02*
X24009000Y27742200D01*
X22929000Y40374700D02*
X22150316Y41153384D01*
X22150316Y42631000D02*
X21951316Y42830000D01*
%TO.N,GPS_SEL*%
X25380000Y25477600D02*
X25380000Y27650000D01*
X27796000Y23061600D02*
X25380000Y25477600D01*
X25325000Y14155000D02*
X26798265Y15628265D01*
X24138000Y39381643D02*
X24132000Y39387643D01*
X23353316Y41651684D02*
X23353316Y46358316D01*
X25549000Y29435200D02*
X25549000Y35380700D01*
X24132000Y39387643D02*
X24132000Y40873000D01*
X24100000Y11130000D02*
X25325000Y12355000D01*
X10125000Y11130000D02*
X24100000Y11130000D01*
X26799678Y15628265D02*
X27151735Y15980322D01*
X26798265Y15628265D02*
X26799678Y15628265D01*
X23353316Y46358316D02*
X24125000Y47130000D01*
X27151735Y15980322D02*
X27151735Y15981735D01*
X24125000Y47130000D02*
X26375000Y47130000D01*
X24138000Y36791700D02*
X24138000Y39381643D01*
X25702000Y29282200D02*
X25549000Y29435200D01*
X25325000Y12355000D02*
X25325000Y14155000D01*
X25380000Y27650000D02*
X25702000Y27972000D01*
X25702000Y27972000D02*
X25702000Y29282200D01*
X24132000Y40873000D02*
X23353316Y41651684D01*
X27796000Y16626000D02*
X27796000Y23061600D01*
X27151735Y15981735D02*
X27796000Y16626000D01*
X25549000Y35380700D02*
X24138000Y36791700D01*
%TO.N,Net-(J4-Pin_3)*%
X6238450Y35207000D02*
X8162200Y35207000D01*
X8162200Y35207000D02*
X9703000Y36747800D01*
X26500000Y55030000D02*
X26500000Y53510000D01*
X9703000Y36747800D02*
X9703000Y40204550D01*
X11953900Y56261000D02*
X25269000Y56261000D01*
X10480000Y40981550D02*
X10480000Y54787100D01*
X9703000Y40204550D02*
X10480000Y40981550D01*
X25269000Y56261000D02*
X26500000Y55030000D01*
X10480000Y54787100D02*
X11953900Y56261000D01*
X1940000Y33235000D02*
X4266450Y33235000D01*
X4266450Y33235000D02*
X6238450Y35207000D01*
%TO.N,GPS_RX*%
X20226000Y42004000D02*
X20213735Y42016265D01*
X22806000Y27243900D02*
X22806000Y27615657D01*
X25791000Y22231100D02*
X23375000Y24647100D01*
X20226000Y42812970D02*
X20226000Y45104000D01*
X20947316Y40665584D02*
X20226000Y41386900D01*
X20947316Y40655084D02*
X20947316Y40665584D01*
X20213735Y42016265D02*
X20213735Y42800705D01*
X20226000Y41386900D02*
X20226000Y42004000D01*
X21732000Y38385043D02*
X21726000Y38391043D01*
X21875000Y14796634D02*
X25791000Y18712634D01*
X23143000Y34384100D02*
X21732000Y35795100D01*
X20226000Y45104000D02*
X18250000Y47080000D01*
X21732000Y35795100D02*
X21732000Y38385043D01*
X21726000Y38391043D02*
X21726000Y39876400D01*
X21875000Y13980000D02*
X21875000Y14796634D01*
X22806000Y27615657D02*
X22805000Y27616657D01*
X23375000Y26674900D02*
X22806000Y27243900D01*
X22805000Y27616657D02*
X22805000Y29443343D01*
X21726000Y39876400D02*
X20947316Y40655084D01*
X25791000Y18712634D02*
X25791000Y22231100D01*
X20213735Y42800705D02*
X20226000Y42812970D01*
X23143000Y29781343D02*
X23143000Y34384100D01*
X23375000Y24647100D02*
X23375000Y26674900D01*
X22805000Y29443343D02*
X23143000Y29781343D01*
X18250000Y47080000D02*
X16600000Y47080000D01*
%TO.N,Net-(J4-Pin_2)*%
X12120000Y55860000D02*
X24530000Y55860000D01*
X6404550Y34806000D02*
X8328300Y34806000D01*
X10104000Y40038450D02*
X10881000Y40815450D01*
X1985000Y31955000D02*
X3553550Y31955000D01*
X10104000Y36581700D02*
X10104000Y40038450D01*
X10881000Y40815450D02*
X10881000Y54621000D01*
X1940000Y31965000D02*
X1940000Y32000000D01*
X1940000Y32000000D02*
X1985000Y31955000D01*
X8328300Y34806000D02*
X10104000Y36581700D01*
X24530000Y55860000D02*
X25560000Y54830000D01*
X3553550Y31955000D02*
X6404550Y34806000D01*
X10881000Y54621000D02*
X12120000Y55860000D01*
%TO.N,GPS_FIX*%
X27395000Y29600000D02*
X27395000Y31696242D01*
X26273530Y14255000D02*
X26350000Y14255000D01*
X27825000Y38905000D02*
X26425000Y38905000D01*
X26775000Y24649700D02*
X26775000Y28980000D01*
X26775000Y28980000D02*
X27395000Y29600000D01*
X28197000Y16102000D02*
X28197000Y23227700D01*
X27395000Y31696242D02*
X28196000Y32497242D01*
X28196000Y38534000D02*
X27825000Y38905000D01*
X26350000Y14255000D02*
X28197000Y16102000D01*
X28197000Y23227700D02*
X26775000Y24649700D01*
X26174265Y14155735D02*
X26273530Y14255000D01*
X28196000Y32497242D02*
X28196000Y38534000D01*
%TO.N,Net-(U1-PD2_IN)*%
X14310000Y25530000D02*
X13000000Y25530000D01*
X13000000Y27910000D02*
X13000000Y25530000D01*
X15690000Y27910000D02*
X14310000Y27910000D01*
X17150000Y27255000D02*
X18025000Y27255000D01*
X17000000Y27405000D02*
X17150000Y27255000D01*
X17000000Y27910000D02*
X15690000Y27910000D01*
X17000000Y27910000D02*
X17000000Y27405000D01*
X15690000Y25530000D02*
X14310000Y25530000D01*
X14310000Y27910000D02*
X13000000Y27910000D01*
%TO.N,Net-(D2-RK)*%
X13620579Y30961000D02*
X13819579Y31160000D01*
X13819579Y31160000D02*
X14300000Y31160000D01*
%TO.N,Net-(D1-K)*%
X13475000Y23530000D02*
X13495000Y23510000D01*
X14225000Y23510000D02*
X14290000Y23445000D01*
X13495000Y23510000D02*
X14225000Y23510000D01*
%TO.N,Net-(IC1-VCC)*%
X4117506Y18664528D02*
X4260723Y18521311D01*
X4260723Y18521311D02*
X4260723Y18444277D01*
X5725000Y16980000D02*
X6890000Y16980000D01*
X4260723Y18444277D02*
X5725000Y16980000D01*
%TO.N,Net-(U1-PD1_IN)*%
X15690000Y20470000D02*
X14310000Y20470000D01*
X15690000Y18090000D02*
X14310000Y18090000D01*
X17000000Y20470000D02*
X15690000Y20470000D01*
X14310000Y20470000D02*
X13000000Y20470000D01*
X13000000Y20470000D02*
X13000000Y18090000D01*
X16150000Y21480000D02*
X15690000Y21020000D01*
X14310000Y18090000D02*
X13000000Y18090000D01*
X16200000Y21480000D02*
X16150000Y21480000D01*
X15690000Y21020000D02*
X15690000Y20470000D01*
%TO.N,FLASH_SID0*%
X24175827Y15755827D02*
X26593000Y18173000D01*
X21749316Y41005684D02*
X21190735Y41564265D01*
X22528000Y40208600D02*
X21749316Y40987284D01*
X23608000Y27576100D02*
X23608000Y27947857D01*
X21190735Y42300735D02*
X21215735Y42325735D01*
X21749316Y40987284D02*
X21749316Y41005684D01*
X23608000Y27947857D02*
X23607000Y27948857D01*
X26593000Y18173000D02*
X26593000Y22563300D01*
X22534000Y38717243D02*
X22528000Y38723243D01*
X24177000Y24979300D02*
X24177000Y27007100D01*
X24177000Y27007100D02*
X23608000Y27576100D01*
X26593000Y22563300D02*
X24177000Y24979300D01*
X23607000Y29111143D02*
X23945000Y29449143D01*
X22528000Y38723243D02*
X22528000Y40208600D01*
X24175827Y15680418D02*
X24175827Y15755827D01*
X21190735Y41564265D02*
X21190735Y42300735D01*
X23607000Y27948857D02*
X23607000Y29111143D01*
X23945000Y29449143D02*
X23945000Y34716300D01*
X23945000Y34716300D02*
X22534000Y36127300D01*
X22534000Y36127300D02*
X22534000Y38717243D01*
%TO.N,FLASH_SID3*%
X27395000Y17075000D02*
X27395000Y22895500D01*
X23336000Y36459500D02*
X23336000Y39049443D01*
X24979000Y25311500D02*
X24979000Y27339300D01*
X22551316Y41319484D02*
X22551316Y42580057D01*
X22552316Y43078943D02*
X22551316Y43079943D01*
X24747000Y35048500D02*
X23336000Y36459500D01*
X22551316Y43323243D02*
X22352316Y43522243D01*
X22551316Y43079943D02*
X22551316Y43323243D01*
X27395000Y22895500D02*
X24979000Y25311500D01*
X26550735Y16229265D02*
X26550735Y16230735D01*
X24410000Y28280057D02*
X24409000Y28281057D01*
X24409000Y28778943D02*
X24747000Y29116943D01*
X24409000Y28281057D02*
X24409000Y28778943D01*
X24410000Y27908300D02*
X24410000Y28280057D01*
X23336000Y39049443D02*
X23330000Y39055443D01*
X23330000Y39055443D02*
X23330000Y40540800D01*
X26550735Y16230735D02*
X27395000Y17075000D01*
X24979000Y27339300D02*
X24410000Y27908300D01*
X22552316Y42581057D02*
X22552316Y43078943D01*
X22551316Y42580057D02*
X22552316Y42581057D01*
X24747000Y29116943D02*
X24747000Y35048500D01*
X23330000Y40540800D02*
X22551316Y41319484D01*
%TO.N,FLASH_CS*%
X27998000Y29068800D02*
X28197000Y29267800D01*
X28197000Y31364042D02*
X28998000Y32165042D01*
X28998000Y32165042D02*
X28998000Y39324100D01*
X27998000Y26480000D02*
X27998000Y29068800D01*
X28998000Y39324100D02*
X25342100Y42980000D01*
X28197000Y29267800D02*
X28197000Y31364042D01*
%TO.N,FLASH_SID1*%
X27398000Y27016500D02*
X27398000Y29035900D01*
X28597000Y32331142D02*
X28597000Y39158000D01*
X27375000Y26993500D02*
X27398000Y27016500D01*
X27796000Y29433900D02*
X27796000Y31530142D01*
X28597000Y39158000D02*
X28225000Y39530000D01*
X25524000Y39530000D02*
X24775000Y38781000D01*
X27796000Y31530142D02*
X28597000Y32331142D01*
X27398000Y29035900D02*
X27796000Y29433900D01*
X28225000Y39530000D02*
X25524000Y39530000D01*
%TO.N,FLASH_SID2*%
X26103000Y26066958D02*
X26103000Y29448300D01*
X25950000Y37730000D02*
X25581574Y38098426D01*
X25950000Y29601300D02*
X25950000Y37730000D01*
X25581574Y38098426D02*
X25581574Y38739044D01*
X26103000Y29448300D02*
X25950000Y29601300D01*
X26120000Y26049958D02*
X26103000Y26066958D01*
D27*
%TO.N,+3.3V_LED*%
X14300000Y29710000D02*
X13645000Y29710000D01*
X16190000Y31160000D02*
X15600000Y31160000D01*
X13645000Y29710000D02*
X13625000Y29730000D01*
X16486765Y30955000D02*
X16395000Y30955000D01*
X14350000Y14130000D02*
X14350000Y14855000D01*
D26*
X14290000Y22555000D02*
X14895000Y22555000D01*
X14895000Y22555000D02*
X15340000Y23000000D01*
D27*
X15650000Y16305000D02*
X16350000Y16305000D01*
D26*
X14290000Y22555000D02*
X13425000Y22555000D01*
X13425000Y22555000D02*
X13400000Y22580000D01*
D27*
X16350000Y16305000D02*
X16375000Y16330000D01*
X16395000Y30955000D02*
X16190000Y31160000D01*
D25*
%TO.N,Net-(D2-GK)*%
X15200000Y17180000D02*
X15000000Y16980000D01*
X15600000Y17180000D02*
X15200000Y17180000D01*
X16450000Y29730000D02*
X16450000Y29905000D01*
X15846000Y30509000D02*
X15163100Y30509000D01*
X14950000Y30722100D02*
X14950000Y31160000D01*
X15163100Y30509000D02*
X14950000Y30722100D01*
X16450000Y29905000D02*
X15846000Y30509000D01*
X15000000Y16980000D02*
X15000000Y16305000D01*
%TO.N,Net-(D2-BK)*%
X12619000Y30361000D02*
X14744000Y30361000D01*
X11768999Y31211001D02*
X12619000Y30361000D01*
X11749899Y31211001D02*
X11768999Y31211001D01*
X14950000Y30155000D02*
X14950000Y29710000D01*
X14744000Y30361000D02*
X14950000Y30155000D01*
%TO.N,Net-(D3-RK)*%
X5629000Y23919400D02*
X5629000Y25761443D01*
X5629000Y25761443D02*
X6937910Y27070353D01*
X10350000Y21691027D02*
X7857373Y21691027D01*
X6937910Y27070353D02*
X7138883Y27070353D01*
X13550000Y16305000D02*
X14350000Y16305000D01*
X7857373Y21691027D02*
X5629000Y23919400D01*
X13525000Y16280000D02*
X13550000Y16305000D01*
%TO.N,Net-(D3-BK)*%
X15025000Y13480000D02*
X15025000Y14830000D01*
X15025000Y14830000D02*
X15000000Y14855000D01*
%TO.N,GPIO1*%
X10400000Y29130000D02*
X10400000Y31419500D01*
X10875834Y28452369D02*
X10875834Y28654166D01*
X15350000Y34630000D02*
X16350000Y33630000D01*
X10400000Y31419500D02*
X11141565Y32161065D01*
X17575000Y33630000D02*
X18603000Y32602000D01*
X11141565Y32493265D02*
X13303300Y34655000D01*
X11141565Y32161065D02*
X11141565Y32493265D01*
X10875834Y28654166D02*
X10400000Y29130000D01*
X16350000Y33630000D02*
X17575000Y33630000D01*
X15350000Y34655000D02*
X15350000Y34630000D01*
X18603000Y32602000D02*
X18603000Y31580000D01*
X13303300Y34655000D02*
X15350000Y34655000D01*
%TD*%
%TA.AperFunction,Conductor*%
%TO.N,GND*%
G36*
X8526300Y52054553D02*
G01*
X8582233Y52012681D01*
X8597527Y51985823D01*
X8631386Y51904078D01*
X8631393Y51904065D01*
X8718994Y51772962D01*
X8718997Y51772958D01*
X8830491Y51661464D01*
X8830495Y51661461D01*
X8961601Y51573858D01*
X8961603Y51573857D01*
X8961605Y51573856D01*
X9000952Y51557558D01*
X9055354Y51513720D01*
X9077421Y51447427D01*
X9077500Y51442998D01*
X9077500Y44403182D01*
X9057815Y44336143D01*
X9005011Y44290388D01*
X8935853Y44280444D01*
X8906048Y44288621D01*
X8758501Y44349736D01*
X8758489Y44349739D01*
X8603845Y44380500D01*
X8603842Y44380500D01*
X8446158Y44380500D01*
X8446155Y44380500D01*
X8291510Y44349739D01*
X8291498Y44349736D01*
X8145827Y44289398D01*
X8145814Y44289391D01*
X8014711Y44201790D01*
X8014707Y44201787D01*
X7903213Y44090293D01*
X7903210Y44090289D01*
X7815609Y43959186D01*
X7815602Y43959173D01*
X7755264Y43813502D01*
X7755261Y43813490D01*
X7724500Y43658847D01*
X7724500Y43501154D01*
X7755261Y43346511D01*
X7755264Y43346499D01*
X7815602Y43200828D01*
X7815609Y43200815D01*
X7903210Y43069712D01*
X7903213Y43069708D01*
X8014707Y42958214D01*
X8014711Y42958211D01*
X8145814Y42870610D01*
X8145827Y42870603D01*
X8291498Y42810265D01*
X8291503Y42810263D01*
X8406015Y42787485D01*
X8446153Y42779501D01*
X8446156Y42779500D01*
X8446158Y42779500D01*
X8603844Y42779500D01*
X8603845Y42779501D01*
X8758497Y42810263D01*
X8904179Y42870606D01*
X8904178Y42870606D01*
X8906048Y42871380D01*
X8975517Y42878849D01*
X9037996Y42847574D01*
X9073648Y42787485D01*
X9077500Y42756819D01*
X9077500Y41613848D01*
X9057815Y41546809D01*
X9041181Y41526167D01*
X8420481Y40905468D01*
X8420480Y40905466D01*
X8378775Y40833230D01*
X8341423Y40768535D01*
X8300499Y40615807D01*
X8300499Y40615805D01*
X8300499Y40447704D01*
X8300500Y40447691D01*
X8300500Y39706500D01*
X8280815Y39639461D01*
X8228011Y39593706D01*
X8176500Y39582500D01*
X8172155Y39582500D01*
X8017510Y39551739D01*
X8017498Y39551736D01*
X7871827Y39491398D01*
X7871814Y39491391D01*
X7740711Y39403790D01*
X7740707Y39403787D01*
X7629213Y39292293D01*
X7629210Y39292289D01*
X7541609Y39161186D01*
X7541602Y39161173D01*
X7481264Y39015502D01*
X7481261Y39015490D01*
X7450500Y38860847D01*
X7450500Y38701154D01*
X7481261Y38546511D01*
X7481264Y38546499D01*
X7541602Y38400828D01*
X7541609Y38400815D01*
X7629210Y38269712D01*
X7629213Y38269708D01*
X7740707Y38158214D01*
X7740711Y38158211D01*
X7871814Y38070610D01*
X7871821Y38070606D01*
X7926324Y38048031D01*
X7951876Y38027440D01*
X7978138Y38007780D01*
X7978939Y38005632D01*
X7980726Y38004192D01*
X7991090Y37973053D01*
X8002555Y37942316D01*
X8002067Y37940075D01*
X8002792Y37937898D01*
X7994676Y37906099D01*
X7987703Y37874043D01*
X7985870Y37871596D01*
X7985514Y37870198D01*
X7966552Y37845789D01*
X7914329Y37793566D01*
X7853006Y37760081D01*
X7783314Y37765065D01*
X7779196Y37766686D01*
X7646693Y37821570D01*
X7646681Y37821573D01*
X7453495Y37860000D01*
X7055000Y37860000D01*
X7055000Y37160000D01*
X6555000Y37160000D01*
X6555000Y37698216D01*
X6574685Y37765255D01*
X6617000Y37805603D01*
X6658365Y37829485D01*
X6765515Y37936635D01*
X6841281Y38067865D01*
X6880500Y38214234D01*
X6880500Y38365766D01*
X6841281Y38512135D01*
X6765515Y38643365D01*
X6658365Y38750515D01*
X6592750Y38788398D01*
X6527136Y38826281D01*
X6433881Y38851268D01*
X6380766Y38865500D01*
X6229234Y38865500D01*
X6082863Y38826281D01*
X5951635Y38750515D01*
X5951632Y38750513D01*
X5844487Y38643368D01*
X5844485Y38643365D01*
X5768719Y38512137D01*
X5739842Y38404363D01*
X5729500Y38365766D01*
X5729500Y38214234D01*
X5734490Y38195610D01*
X5768719Y38067864D01*
X5796687Y38019423D01*
X5844485Y37936635D01*
X5844486Y37936634D01*
X5848549Y37929597D01*
X5846346Y37928326D01*
X5866959Y37875017D01*
X5852923Y37806572D01*
X5804112Y37756580D01*
X5790845Y37750134D01*
X5781324Y37746191D01*
X5781315Y37746186D01*
X5617537Y37636752D01*
X5617533Y37636749D01*
X5478251Y37497467D01*
X5478248Y37497463D01*
X5416698Y37405347D01*
X5363085Y37360542D01*
X5293760Y37351835D01*
X5259894Y37363274D01*
X5259808Y37363063D01*
X5256676Y37364361D01*
X5255152Y37364875D01*
X5254182Y37365394D01*
X5108501Y37425736D01*
X5108489Y37425739D01*
X4953845Y37456500D01*
X4953842Y37456500D01*
X4796158Y37456500D01*
X4796155Y37456500D01*
X4641510Y37425739D01*
X4641498Y37425736D01*
X4495827Y37365398D01*
X4495814Y37365391D01*
X4364711Y37277790D01*
X4364707Y37277787D01*
X4253213Y37166293D01*
X4253210Y37166289D01*
X4211817Y37104340D01*
X4158204Y37059535D01*
X4088879Y37050828D01*
X4025852Y37080983D01*
X3989133Y37140426D01*
X3987096Y37149046D01*
X3986569Y37151693D01*
X3986569Y37151694D01*
X3911192Y37333672D01*
X3911185Y37333685D01*
X3801751Y37497463D01*
X3801748Y37497467D01*
X3662466Y37636749D01*
X3662462Y37636752D01*
X3498684Y37746186D01*
X3498671Y37746193D01*
X3316693Y37821570D01*
X3316681Y37821573D01*
X3123495Y37860000D01*
X2875000Y37860000D01*
X2875000Y37160000D01*
X2375000Y37160000D01*
X2375000Y37860000D01*
X2126504Y37860000D01*
X1933318Y37821573D01*
X1933306Y37821570D01*
X1751328Y37746193D01*
X1751315Y37746186D01*
X1587537Y37636752D01*
X1587533Y37636749D01*
X1448251Y37497467D01*
X1448248Y37497463D01*
X1338814Y37333685D01*
X1338807Y37333672D01*
X1263430Y37151693D01*
X1263430Y37151691D01*
X1255138Y37110000D01*
X2058012Y37110000D01*
X2040795Y37100060D01*
X1984940Y37044205D01*
X1945444Y36975796D01*
X1925000Y36899496D01*
X1925000Y36820504D01*
X1945444Y36744204D01*
X1984940Y36675795D01*
X2040795Y36619940D01*
X2058012Y36610000D01*
X1255138Y36610000D01*
X1263430Y36568310D01*
X1263430Y36568308D01*
X1338807Y36386329D01*
X1338814Y36386316D01*
X1448248Y36222538D01*
X1448251Y36222534D01*
X1587533Y36083252D01*
X1587537Y36083249D01*
X1751315Y35973815D01*
X1751328Y35973808D01*
X1933306Y35898431D01*
X1933318Y35898428D01*
X2126504Y35860001D01*
X2126508Y35860000D01*
X2375000Y35860000D01*
X2375000Y36560000D01*
X2875000Y36560000D01*
X2875000Y35860000D01*
X3123492Y35860000D01*
X3123495Y35860001D01*
X3316681Y35898428D01*
X3316693Y35898431D01*
X3498671Y35973808D01*
X3498684Y35973815D01*
X3662462Y36083249D01*
X3662466Y36083252D01*
X3801748Y36222534D01*
X3801751Y36222538D01*
X3911360Y36386578D01*
X3964972Y36431383D01*
X4034297Y36440090D01*
X4097324Y36409936D01*
X4129023Y36365140D01*
X4165604Y36276824D01*
X4165609Y36276815D01*
X4253210Y36145712D01*
X4253213Y36145708D01*
X4364707Y36034214D01*
X4364711Y36034211D01*
X4495814Y35946610D01*
X4495827Y35946603D01*
X4641498Y35886265D01*
X4641503Y35886263D01*
X4706147Y35873405D01*
X4796849Y35855362D01*
X4858760Y35822977D01*
X4860339Y35821426D01*
X5333332Y35348433D01*
X5344315Y35337448D01*
X5359731Y35309210D01*
X5377792Y35276133D01*
X5377791Y35276129D01*
X5377795Y35276122D01*
X5375122Y35238804D01*
X5372808Y35206441D01*
X5372804Y35206436D01*
X5372804Y35206431D01*
X5372786Y35206409D01*
X5344307Y35162094D01*
X4054034Y33871819D01*
X3992711Y33838334D01*
X3966353Y33835500D01*
X2927332Y33835500D01*
X2860293Y33855185D01*
X2814538Y33907989D01*
X2804594Y33977147D01*
X2824231Y34028393D01*
X2826191Y34031328D01*
X2901569Y34213307D01*
X2901572Y34213319D01*
X2939999Y34406505D01*
X2940000Y34406508D01*
X2940000Y34603492D01*
X2939999Y34603496D01*
X2901572Y34796682D01*
X2901569Y34796694D01*
X2826192Y34978672D01*
X2802572Y35014021D01*
X2265000Y34476449D01*
X2265000Y34547787D01*
X2242851Y34630445D01*
X2200064Y34704554D01*
X2139554Y34765064D01*
X2065445Y34807851D01*
X1982787Y34830000D01*
X1897213Y34830000D01*
X1814555Y34807851D01*
X1740446Y34765064D01*
X1679936Y34704554D01*
X1637149Y34630445D01*
X1615000Y34547787D01*
X1615000Y34476448D01*
X1077426Y35014022D01*
X1077426Y35014021D01*
X1053813Y34978682D01*
X1053809Y34978675D01*
X978429Y34796690D01*
X978427Y34796682D01*
X940000Y34603496D01*
X940000Y34406505D01*
X978427Y34213319D01*
X978430Y34213307D01*
X1053807Y34031329D01*
X1053814Y34031316D01*
X1115270Y33939341D01*
X1136148Y33872663D01*
X1117663Y33805283D01*
X1115271Y33801560D01*
X1053370Y33708918D01*
X1053364Y33708907D01*
X977950Y33526840D01*
X977947Y33526830D01*
X939500Y33333544D01*
X939500Y33333541D01*
X939500Y33136459D01*
X939500Y33136457D01*
X939499Y33136457D01*
X977947Y32943171D01*
X977950Y32943161D01*
X1038351Y32797340D01*
X1053368Y32761086D01*
X1073938Y32730301D01*
X1114971Y32668890D01*
X1135848Y32602213D01*
X1117363Y32534833D01*
X1114971Y32531110D01*
X1053366Y32438911D01*
X977950Y32256840D01*
X977947Y32256830D01*
X939500Y32063544D01*
X939500Y32063541D01*
X939500Y31866459D01*
X939500Y31866457D01*
X939499Y31866457D01*
X977947Y31673172D01*
X977949Y31673164D01*
X1006658Y31603854D01*
X1013934Y31586287D01*
X1020318Y31570876D01*
X1027787Y31501407D01*
X1005026Y31449116D01*
X996203Y31437330D01*
X996202Y31437329D01*
X945908Y31302483D01*
X939501Y31242884D01*
X939500Y31242865D01*
X939500Y30147130D01*
X939501Y30147124D01*
X945908Y30087517D01*
X996202Y29952672D01*
X996206Y29952665D01*
X1082452Y29837456D01*
X1082455Y29837453D01*
X1197664Y29751207D01*
X1197671Y29751203D01*
X1332517Y29700909D01*
X1332516Y29700909D01*
X1339444Y29700165D01*
X1392127Y29694500D01*
X2487872Y29694501D01*
X2547483Y29700909D01*
X2682331Y29751204D01*
X2797546Y29837454D01*
X2883796Y29952669D01*
X2934091Y30087517D01*
X2940500Y30147127D01*
X2940499Y31230501D01*
X2960184Y31297539D01*
X3012987Y31343294D01*
X3064499Y31354500D01*
X3466881Y31354500D01*
X3466897Y31354499D01*
X3474493Y31354499D01*
X3632604Y31354499D01*
X3632607Y31354499D01*
X3785335Y31395423D01*
X3844751Y31429727D01*
X3922266Y31474480D01*
X4034070Y31586284D01*
X4034070Y31586286D01*
X4044274Y31596489D01*
X4044277Y31596494D01*
X6282096Y33834312D01*
X6343417Y33867795D01*
X6413109Y33862811D01*
X6469042Y33820939D01*
X6486586Y33781757D01*
X6488494Y33782335D01*
X6490264Y33776499D01*
X6550602Y33630828D01*
X6550609Y33630815D01*
X6638210Y33499712D01*
X6638213Y33499708D01*
X6749707Y33388214D01*
X6749711Y33388211D01*
X6880814Y33300610D01*
X6880827Y33300603D01*
X7026498Y33240265D01*
X7026503Y33240263D01*
X7181153Y33209501D01*
X7181156Y33209500D01*
X7181158Y33209500D01*
X7338844Y33209500D01*
X7338845Y33209501D01*
X7493497Y33240263D01*
X7639179Y33300606D01*
X7639844Y33301050D01*
X7770286Y33388209D01*
X7770285Y33388209D01*
X7770289Y33388211D01*
X7814344Y33432267D01*
X7875666Y33465752D01*
X7945357Y33460768D01*
X7949471Y33459150D01*
X8004724Y33436263D01*
X8149908Y33407384D01*
X8159374Y33405501D01*
X8159377Y33405500D01*
X8159379Y33405500D01*
X8317064Y33405500D01*
X8328458Y33407767D01*
X8351308Y33412312D01*
X8372293Y33410435D01*
X8393147Y33413433D01*
X8406393Y33407384D01*
X8420898Y33406086D01*
X8437537Y33393161D01*
X8456703Y33384408D01*
X8464576Y33372158D01*
X8476076Y33363224D01*
X8483085Y33343356D01*
X8494477Y33325630D01*
X8498011Y33301050D01*
X8499322Y33297334D01*
X8499500Y33290695D01*
X8499500Y33255098D01*
X8479815Y33188059D01*
X8463181Y33167417D01*
X5476367Y30180604D01*
X5476361Y30180596D01*
X5434376Y30107874D01*
X5434376Y30107873D01*
X5397309Y30043671D01*
X5356385Y29890943D01*
X5356385Y29890941D01*
X5356385Y29866478D01*
X5336700Y29799439D01*
X5335487Y29797587D01*
X5247495Y29665899D01*
X5247488Y29665886D01*
X5187150Y29520215D01*
X5187147Y29520203D01*
X5156386Y29365560D01*
X5156386Y29207867D01*
X5187147Y29053224D01*
X5187150Y29053212D01*
X5247488Y28907541D01*
X5247495Y28907528D01*
X5322936Y28794623D01*
X5343814Y28727945D01*
X5325329Y28660565D01*
X5307515Y28638051D01*
X4561248Y27891785D01*
X4499925Y27858300D01*
X4430233Y27863284D01*
X4404676Y27876364D01*
X4291770Y27951806D01*
X4291757Y27951813D01*
X4146086Y28012151D01*
X4146074Y28012154D01*
X3991430Y28042915D01*
X3991427Y28042915D01*
X3833743Y28042915D01*
X3833740Y28042915D01*
X3679095Y28012154D01*
X3679083Y28012151D01*
X3533412Y27951813D01*
X3533399Y27951806D01*
X3402296Y27864205D01*
X3402292Y27864202D01*
X3290798Y27752708D01*
X3290795Y27752704D01*
X3203194Y27621601D01*
X3203187Y27621588D01*
X3142849Y27475917D01*
X3142846Y27475905D01*
X3112085Y27321262D01*
X3112085Y27163569D01*
X3142846Y27008926D01*
X3142849Y27008914D01*
X3203187Y26863243D01*
X3203194Y26863230D01*
X3290795Y26732127D01*
X3290798Y26732123D01*
X3388180Y26634741D01*
X3402882Y26607816D01*
X3419476Y26581996D01*
X3420367Y26575794D01*
X3421665Y26573418D01*
X3424499Y26547061D01*
X3424499Y26427243D01*
X3424499Y26427241D01*
X3424500Y26417247D01*
X3424500Y23341670D01*
X3424499Y23341652D01*
X3424499Y23175946D01*
X3424498Y23175946D01*
X3465422Y23023217D01*
X3481184Y22995917D01*
X3481186Y22995914D01*
X3544479Y22886286D01*
X3544481Y22886283D01*
X3663349Y22767415D01*
X3663355Y22767410D01*
X6861181Y19569584D01*
X6894666Y19508261D01*
X6897500Y19481903D01*
X6897500Y18902187D01*
X6877815Y18835148D01*
X6825011Y18789393D01*
X6755853Y18779449D01*
X6704610Y18799084D01*
X6689183Y18809392D01*
X6689172Y18809398D01*
X6543501Y18869736D01*
X6543489Y18869739D01*
X6388845Y18900500D01*
X6388842Y18900500D01*
X6231158Y18900500D01*
X6231155Y18900500D01*
X6076510Y18869739D01*
X6076498Y18869736D01*
X5930828Y18809398D01*
X5930812Y18809389D01*
X5888959Y18781424D01*
X5822282Y18760547D01*
X5754902Y18779033D01*
X5732389Y18796846D01*
X3637590Y20891645D01*
X3637588Y20891648D01*
X3518717Y21010519D01*
X3518716Y21010520D01*
X3423442Y21065526D01*
X3381785Y21089577D01*
X3229057Y21130501D01*
X3070943Y21130501D01*
X3063347Y21130501D01*
X3063331Y21130500D01*
X2854766Y21130500D01*
X2787727Y21150185D01*
X2785875Y21151398D01*
X2654185Y21239391D01*
X2654172Y21239398D01*
X2508501Y21299736D01*
X2508489Y21299739D01*
X2353845Y21330500D01*
X2353842Y21330500D01*
X2196158Y21330500D01*
X2196155Y21330500D01*
X2041510Y21299739D01*
X2041498Y21299736D01*
X1895827Y21239398D01*
X1895814Y21239391D01*
X1764711Y21151790D01*
X1764707Y21151787D01*
X1653213Y21040293D01*
X1653210Y21040289D01*
X1565609Y20909186D01*
X1565602Y20909173D01*
X1505264Y20763502D01*
X1505261Y20763490D01*
X1474500Y20608847D01*
X1474500Y20451154D01*
X1505261Y20296511D01*
X1505264Y20296499D01*
X1565602Y20150828D01*
X1565609Y20150815D01*
X1653210Y20019712D01*
X1653213Y20019708D01*
X1764707Y19908214D01*
X1764711Y19908211D01*
X1895814Y19820610D01*
X1895827Y19820603D01*
X2041498Y19760265D01*
X2041503Y19760263D01*
X2196153Y19729501D01*
X2196156Y19729500D01*
X2196158Y19729500D01*
X2353844Y19729500D01*
X2353845Y19729501D01*
X2508497Y19760263D01*
X2654179Y19820606D01*
X2782962Y19906657D01*
X2849636Y19927533D01*
X2917016Y19909049D01*
X2939531Y19891234D01*
X3488472Y19342293D01*
X3521957Y19280970D01*
X3516973Y19211278D01*
X3498961Y19179976D01*
X3499101Y19179882D01*
X3497712Y19177804D01*
X3496644Y19175947D01*
X3495716Y19174818D01*
X3408115Y19043714D01*
X3408108Y19043701D01*
X3347770Y18898030D01*
X3347767Y18898018D01*
X3317006Y18743375D01*
X3317006Y18585682D01*
X3347767Y18431039D01*
X3347770Y18431027D01*
X3408108Y18285356D01*
X3408115Y18285343D01*
X3495716Y18154240D01*
X3495719Y18154236D01*
X3607213Y18042742D01*
X3607217Y18042739D01*
X3738320Y17955138D01*
X3738333Y17955131D01*
X3825736Y17918929D01*
X3884009Y17894791D01*
X3943193Y17883019D01*
X4005103Y17850635D01*
X4006682Y17849083D01*
X5240139Y16615626D01*
X5240149Y16615615D01*
X5244479Y16611285D01*
X5244480Y16611284D01*
X5356284Y16499480D01*
X5356286Y16499479D01*
X5356290Y16499476D01*
X5493209Y16420427D01*
X5493216Y16420423D01*
X5585857Y16395600D01*
X5645942Y16379500D01*
X5645943Y16379500D01*
X6310234Y16379500D01*
X6377273Y16359815D01*
X6379125Y16358602D01*
X6510814Y16270610D01*
X6510827Y16270603D01*
X6656498Y16210265D01*
X6656503Y16210263D01*
X6712967Y16199032D01*
X6768801Y16187925D01*
X6830712Y16155540D01*
X6865286Y16094825D01*
X6861547Y16025055D01*
X6832291Y15978627D01*
X6397579Y15543916D01*
X6336256Y15510431D01*
X6266564Y15515415D01*
X6262446Y15517036D01*
X6183501Y15549736D01*
X6183489Y15549739D01*
X6028845Y15580500D01*
X6028842Y15580500D01*
X5871158Y15580500D01*
X5871155Y15580500D01*
X5716510Y15549739D01*
X5716498Y15549736D01*
X5570827Y15489398D01*
X5570814Y15489391D01*
X5439711Y15401790D01*
X5439707Y15401787D01*
X5328213Y15290293D01*
X5328210Y15290289D01*
X5240609Y15159186D01*
X5240602Y15159173D01*
X5180264Y15013502D01*
X5180261Y15013490D01*
X5149500Y14858847D01*
X5149500Y14701154D01*
X5180261Y14546511D01*
X5180264Y14546499D01*
X5240602Y14400828D01*
X5240609Y14400815D01*
X5328210Y14269712D01*
X5328212Y14269709D01*
X5338178Y14259744D01*
X5371665Y14198422D01*
X5374500Y14172060D01*
X5374500Y8911670D01*
X5374499Y8911652D01*
X5374499Y8745946D01*
X5374498Y8745946D01*
X5374499Y8745943D01*
X5415423Y8593215D01*
X5415424Y8593213D01*
X5415423Y8593213D01*
X5423919Y8578499D01*
X5423920Y8578498D01*
X5494477Y8456288D01*
X5494481Y8456283D01*
X5613349Y8337415D01*
X5613355Y8337410D01*
X6862117Y7088648D01*
X6895602Y7027325D01*
X6890618Y6957633D01*
X6848746Y6901700D01*
X6821891Y6886407D01*
X6780826Y6869397D01*
X6780814Y6869391D01*
X6649711Y6781790D01*
X6649707Y6781787D01*
X6538213Y6670293D01*
X6538210Y6670289D01*
X6450609Y6539186D01*
X6450602Y6539173D01*
X6390264Y6393502D01*
X6390261Y6393490D01*
X6359500Y6238847D01*
X6359500Y6081154D01*
X6390261Y5926511D01*
X6390264Y5926499D01*
X6450602Y5780828D01*
X6450609Y5780815D01*
X6538210Y5649712D01*
X6538213Y5649708D01*
X6649707Y5538214D01*
X6649711Y5538211D01*
X6780814Y5450610D01*
X6780827Y5450603D01*
X6904992Y5399173D01*
X6926503Y5390263D01*
X7032871Y5369105D01*
X7081153Y5359501D01*
X7081156Y5359500D01*
X7081158Y5359500D01*
X7238844Y5359500D01*
X7238845Y5359501D01*
X7393497Y5390263D01*
X7407270Y5395969D01*
X7409539Y5396213D01*
X7411369Y5397582D01*
X7444112Y5399930D01*
X7476738Y5403438D01*
X7478780Y5402416D01*
X7481060Y5402579D01*
X7509863Y5386858D01*
X7539218Y5372165D01*
X7541011Y5369857D01*
X7542389Y5369105D01*
X7547270Y5361802D01*
X7563545Y5340855D01*
X7569292Y5330334D01*
X7570423Y5326115D01*
X7591505Y5289600D01*
X7592236Y5288334D01*
X7649477Y5189188D01*
X7649481Y5189183D01*
X7768349Y5070315D01*
X7768355Y5070310D01*
X9471484Y3367181D01*
X9504969Y3305858D01*
X9499985Y3236166D01*
X9458113Y3180233D01*
X9392649Y3155816D01*
X9383803Y3155500D01*
X8612418Y3155500D01*
X8545379Y3175185D01*
X8543527Y3176398D01*
X8479184Y3219391D01*
X8479172Y3219398D01*
X8333501Y3279736D01*
X8333489Y3279739D01*
X8178845Y3310500D01*
X8178842Y3310500D01*
X8021158Y3310500D01*
X8021155Y3310500D01*
X7866510Y3279739D01*
X7866498Y3279736D01*
X7720827Y3219398D01*
X7720814Y3219391D01*
X7589711Y3131790D01*
X7589707Y3131787D01*
X7478213Y3020293D01*
X7478210Y3020289D01*
X7390609Y2889186D01*
X7390602Y2889173D01*
X7330264Y2743502D01*
X7330261Y2743490D01*
X7299500Y2588847D01*
X7299500Y2431154D01*
X7330261Y2276511D01*
X7330264Y2276499D01*
X7390602Y2130828D01*
X7390609Y2130815D01*
X7478210Y1999712D01*
X7478213Y1999708D01*
X7589707Y1888214D01*
X7589711Y1888211D01*
X7720814Y1800610D01*
X7720827Y1800603D01*
X7866498Y1740265D01*
X7866503Y1740263D01*
X8021153Y1709501D01*
X8021156Y1709500D01*
X8021158Y1709500D01*
X8178844Y1709500D01*
X8178845Y1709501D01*
X8333497Y1740263D01*
X8479179Y1800606D01*
X8610289Y1888211D01*
X8617688Y1895610D01*
X8640260Y1918181D01*
X8701583Y1951666D01*
X8727941Y1954500D01*
X9524903Y1954500D01*
X9591942Y1934815D01*
X9612583Y1918182D01*
X10611284Y919480D01*
X10611286Y919479D01*
X10611290Y919476D01*
X10716304Y858847D01*
X10748216Y840423D01*
X10900943Y799499D01*
X10900945Y799499D01*
X11066654Y799499D01*
X11066670Y799500D01*
X11428373Y799500D01*
X11458834Y790556D01*
X11489733Y783254D01*
X11492118Y780783D01*
X11495412Y779815D01*
X11516197Y755827D01*
X11538248Y732975D01*
X11539792Y728598D01*
X11541167Y727011D01*
X11549990Y699692D01*
X11564113Y628692D01*
X11557886Y559100D01*
X11515023Y503923D01*
X11449133Y480678D01*
X11442496Y480500D01*
X624500Y480500D01*
X557461Y500185D01*
X511706Y552989D01*
X500500Y604500D01*
X500500Y3448847D01*
X4109500Y3448847D01*
X4109500Y3291154D01*
X4140261Y3136511D01*
X4140264Y3136499D01*
X4200602Y2990828D01*
X4200609Y2990815D01*
X4288210Y2859712D01*
X4288213Y2859708D01*
X4399707Y2748214D01*
X4399711Y2748211D01*
X4530814Y2660610D01*
X4530827Y2660603D01*
X4676498Y2600265D01*
X4676503Y2600263D01*
X4831153Y2569501D01*
X4831156Y2569500D01*
X4831158Y2569500D01*
X4988844Y2569500D01*
X4988845Y2569501D01*
X5143497Y2600263D01*
X5289179Y2660606D01*
X5420289Y2748211D01*
X5531789Y2859711D01*
X5619394Y2990821D01*
X5679737Y3136503D01*
X5710500Y3291158D01*
X5710500Y3448842D01*
X5710500Y3448845D01*
X5710499Y3448847D01*
X5679738Y3603490D01*
X5679737Y3603497D01*
X5677782Y3608216D01*
X5619397Y3749173D01*
X5619390Y3749186D01*
X5531789Y3880289D01*
X5531786Y3880293D01*
X5420292Y3991787D01*
X5420288Y3991790D01*
X5289185Y4079391D01*
X5289172Y4079398D01*
X5143501Y4139736D01*
X5143489Y4139739D01*
X4988845Y4170500D01*
X4988842Y4170500D01*
X4831158Y4170500D01*
X4831155Y4170500D01*
X4676510Y4139739D01*
X4676498Y4139736D01*
X4530827Y4079398D01*
X4530814Y4079391D01*
X4399711Y3991790D01*
X4399707Y3991787D01*
X4288213Y3880293D01*
X4288210Y3880289D01*
X4200609Y3749186D01*
X4200602Y3749173D01*
X4140264Y3603502D01*
X4140261Y3603490D01*
X4109500Y3448847D01*
X500500Y3448847D01*
X500500Y10588847D01*
X1139500Y10588847D01*
X1139500Y10431154D01*
X1170261Y10276511D01*
X1170264Y10276499D01*
X1230602Y10130828D01*
X1230609Y10130815D01*
X1318210Y9999712D01*
X1318213Y9999708D01*
X1429707Y9888214D01*
X1429711Y9888211D01*
X1560814Y9800610D01*
X1560827Y9800603D01*
X1706440Y9740289D01*
X1706503Y9740263D01*
X1861153Y9709501D01*
X1861156Y9709500D01*
X1861158Y9709500D01*
X2018844Y9709500D01*
X2018845Y9709501D01*
X2173497Y9740263D01*
X2319179Y9800606D01*
X2450289Y9888211D01*
X2561789Y9999711D01*
X2649394Y10130821D01*
X2709737Y10276503D01*
X2740500Y10431158D01*
X2740500Y10588842D01*
X2740500Y10588845D01*
X2740499Y10588847D01*
X2734360Y10619711D01*
X2709737Y10743497D01*
X2706703Y10750821D01*
X2649397Y10889173D01*
X2649390Y10889186D01*
X2561789Y11020289D01*
X2561786Y11020293D01*
X2450292Y11131787D01*
X2450288Y11131790D01*
X2319185Y11219391D01*
X2319172Y11219398D01*
X2173501Y11279736D01*
X2173489Y11279739D01*
X2018845Y11310500D01*
X2018842Y11310500D01*
X1861158Y11310500D01*
X1861155Y11310500D01*
X1706510Y11279739D01*
X1706498Y11279736D01*
X1560827Y11219398D01*
X1560814Y11219391D01*
X1429711Y11131790D01*
X1429707Y11131787D01*
X1318213Y11020293D01*
X1318210Y11020289D01*
X1230609Y10889186D01*
X1230602Y10889173D01*
X1170264Y10743502D01*
X1170261Y10743490D01*
X1139500Y10588847D01*
X500500Y10588847D01*
X500500Y35367574D01*
X1430978Y35367574D01*
X1940000Y34858554D01*
X1940001Y34858554D01*
X2449020Y35367574D01*
X2413675Y35391191D01*
X2413673Y35391192D01*
X2231693Y35466570D01*
X2231681Y35466573D01*
X2038495Y35505000D01*
X1841504Y35505000D01*
X1648318Y35466573D01*
X1648310Y35466571D01*
X1466325Y35391191D01*
X1466318Y35391187D01*
X1430979Y35367574D01*
X1430978Y35367574D01*
X500500Y35367574D01*
X500500Y45750000D01*
X1255138Y45750000D01*
X2058012Y45750000D01*
X2040795Y45740060D01*
X1984940Y45684205D01*
X1945444Y45615796D01*
X1925000Y45539496D01*
X1925000Y45460504D01*
X1945444Y45384204D01*
X1984940Y45315795D01*
X2040795Y45259940D01*
X2058012Y45250000D01*
X1255138Y45250000D01*
X1263430Y45208310D01*
X1263430Y45208308D01*
X1338807Y45026329D01*
X1338814Y45026316D01*
X1448248Y44862538D01*
X1448251Y44862534D01*
X1587533Y44723252D01*
X1587537Y44723249D01*
X1751315Y44613815D01*
X1751328Y44613808D01*
X1933306Y44538431D01*
X1933318Y44538428D01*
X2126504Y44500001D01*
X2126508Y44500000D01*
X2375000Y44500000D01*
X2375000Y45200000D01*
X2875000Y45200000D01*
X2875000Y44500000D01*
X3123492Y44500000D01*
X3123495Y44500001D01*
X3316681Y44538428D01*
X3316693Y44538431D01*
X3498671Y44613808D01*
X3498684Y44613815D01*
X3662462Y44723249D01*
X3662466Y44723252D01*
X3801748Y44862534D01*
X3801751Y44862538D01*
X3911185Y45026316D01*
X3911192Y45026329D01*
X3986569Y45208308D01*
X3986569Y45208310D01*
X3994862Y45250000D01*
X3191988Y45250000D01*
X3209205Y45259940D01*
X3265060Y45315795D01*
X3304556Y45384204D01*
X3325000Y45460504D01*
X3325000Y45539496D01*
X3304556Y45615796D01*
X3265060Y45684205D01*
X3209205Y45740060D01*
X3191988Y45750000D01*
X3994862Y45750000D01*
X5285138Y45750000D01*
X6088012Y45750000D01*
X6070795Y45740060D01*
X6014940Y45684205D01*
X5975444Y45615796D01*
X5955000Y45539496D01*
X5955000Y45460504D01*
X5975444Y45384204D01*
X6014940Y45315795D01*
X6070795Y45259940D01*
X6088012Y45250000D01*
X5285138Y45250000D01*
X5293430Y45208310D01*
X5293430Y45208308D01*
X5368807Y45026329D01*
X5368814Y45026316D01*
X5478248Y44862538D01*
X5478251Y44862534D01*
X5617533Y44723252D01*
X5617537Y44723249D01*
X5781315Y44613815D01*
X5781328Y44613808D01*
X5790838Y44609869D01*
X5845243Y44566030D01*
X5867310Y44499736D01*
X5850033Y44432037D01*
X5846350Y44426595D01*
X5768719Y44292137D01*
X5733201Y44159578D01*
X5729500Y44145766D01*
X5729500Y43994234D01*
X5749109Y43921050D01*
X5768719Y43847864D01*
X5806602Y43782250D01*
X5844485Y43716635D01*
X5951635Y43609485D01*
X6065281Y43543871D01*
X6076099Y43537625D01*
X6082865Y43533719D01*
X6229234Y43494500D01*
X6229236Y43494500D01*
X6380764Y43494500D01*
X6380766Y43494500D01*
X6527135Y43533719D01*
X6658365Y43609485D01*
X6765515Y43716635D01*
X6841281Y43847865D01*
X6880500Y43994234D01*
X6880500Y44145766D01*
X6841281Y44292135D01*
X6765515Y44423365D01*
X6658365Y44530515D01*
X6644654Y44538431D01*
X6616998Y44554399D01*
X6568784Y44604967D01*
X6555000Y44661785D01*
X6555000Y45200000D01*
X7055000Y45200000D01*
X7055000Y44500000D01*
X7453492Y44500000D01*
X7453495Y44500001D01*
X7646681Y44538428D01*
X7646693Y44538431D01*
X7828671Y44613808D01*
X7828684Y44613815D01*
X7992462Y44723249D01*
X7992466Y44723252D01*
X8131748Y44862534D01*
X8131751Y44862538D01*
X8241185Y45026316D01*
X8241192Y45026329D01*
X8316569Y45208308D01*
X8316569Y45208310D01*
X8324862Y45250000D01*
X7521988Y45250000D01*
X7539205Y45259940D01*
X7595060Y45315795D01*
X7634556Y45384204D01*
X7655000Y45460504D01*
X7655000Y45539496D01*
X7634556Y45615796D01*
X7595060Y45684205D01*
X7539205Y45740060D01*
X7521988Y45750000D01*
X8324862Y45750000D01*
X8316569Y45791691D01*
X8316569Y45791693D01*
X8241192Y45973672D01*
X8241185Y45973685D01*
X8131751Y46137463D01*
X8131748Y46137467D01*
X7992466Y46276749D01*
X7992462Y46276752D01*
X7828684Y46386186D01*
X7828671Y46386193D01*
X7646693Y46461570D01*
X7646681Y46461573D01*
X7453495Y46500000D01*
X7055000Y46500000D01*
X7055000Y45800000D01*
X6555000Y45800000D01*
X6555000Y46500000D01*
X6156504Y46500000D01*
X5963318Y46461573D01*
X5963306Y46461570D01*
X5781328Y46386193D01*
X5781315Y46386186D01*
X5617537Y46276752D01*
X5617533Y46276749D01*
X5478251Y46137467D01*
X5478248Y46137463D01*
X5368814Y45973685D01*
X5368807Y45973672D01*
X5293430Y45791693D01*
X5293430Y45791691D01*
X5285138Y45750000D01*
X3994862Y45750000D01*
X3986569Y45791691D01*
X3986569Y45791693D01*
X3911192Y45973672D01*
X3911185Y45973685D01*
X3801751Y46137463D01*
X3801748Y46137467D01*
X3662466Y46276749D01*
X3662462Y46276752D01*
X3498684Y46386186D01*
X3498671Y46386193D01*
X3316693Y46461570D01*
X3316681Y46461573D01*
X3123495Y46500000D01*
X2875000Y46500000D01*
X2875000Y45800000D01*
X2375000Y45800000D01*
X2375000Y46500000D01*
X2126504Y46500000D01*
X1933318Y46461573D01*
X1933306Y46461570D01*
X1751328Y46386193D01*
X1751315Y46386186D01*
X1587537Y46276752D01*
X1587533Y46276749D01*
X1448251Y46137467D01*
X1448248Y46137463D01*
X1338814Y45973685D01*
X1338807Y45973672D01*
X1263430Y45791693D01*
X1263430Y45791691D01*
X1255138Y45750000D01*
X500500Y45750000D01*
X500500Y50532298D01*
X520185Y50599337D01*
X572989Y50645092D01*
X642147Y50655036D01*
X648667Y50653920D01*
X705435Y50642628D01*
X721157Y50639500D01*
X721158Y50639500D01*
X878844Y50639500D01*
X878845Y50639501D01*
X1033497Y50670263D01*
X1179179Y50730606D01*
X1202971Y50746503D01*
X1310875Y50818602D01*
X1377553Y50839480D01*
X1379766Y50839500D01*
X6873331Y50839500D01*
X6873347Y50839499D01*
X6880943Y50839499D01*
X7039054Y50839499D01*
X7039057Y50839499D01*
X7191785Y50880423D01*
X7263065Y50921577D01*
X7328716Y50959480D01*
X7440520Y51071284D01*
X7440520Y51071286D01*
X7450724Y51081489D01*
X7450728Y51081494D01*
X8395287Y52026054D01*
X8456608Y52059537D01*
X8526300Y52054553D01*
G37*
%TD.AperFunction*%
%TA.AperFunction,Conductor*%
G36*
X9621113Y21070842D02*
G01*
X9666868Y21018038D01*
X9678073Y20966227D01*
X9676936Y20500000D01*
X9676685Y20397288D01*
X9671128Y18120000D01*
X9670982Y18060000D01*
X9666677Y16295789D01*
X9661404Y14135000D01*
X9658648Y13005537D01*
X9662590Y12968227D01*
X9670068Y12897449D01*
X9681274Y12845637D01*
X9681278Y12845622D01*
X9715532Y12742497D01*
X9793316Y12621463D01*
X9793325Y12621452D01*
X9839069Y12568660D01*
X9839072Y12568657D01*
X9839076Y12568653D01*
X9947810Y12474433D01*
X9947813Y12474432D01*
X9947814Y12474431D01*
X10042682Y12431105D01*
X10078687Y12414662D01*
X10145726Y12394977D01*
X10145730Y12394976D01*
X10288146Y12374500D01*
X10288149Y12374500D01*
X14617843Y12374500D01*
X14635825Y12374821D01*
X14635835Y12374822D01*
X14635870Y12374822D01*
X14644716Y12375138D01*
X14662733Y12376104D01*
X14803325Y12406688D01*
X14868789Y12431105D01*
X14961258Y12481597D01*
X15029528Y12496448D01*
X15087728Y12477076D01*
X15091843Y12474431D01*
X15222710Y12414665D01*
X15222717Y12414662D01*
X15289756Y12394977D01*
X15289760Y12394976D01*
X15289759Y12394976D01*
X15298160Y12393769D01*
X15338398Y12387983D01*
X15401953Y12358961D01*
X15439728Y12300183D01*
X15439730Y12230314D01*
X15423854Y12196356D01*
X15365612Y12109191D01*
X15365602Y12109173D01*
X15305264Y11963502D01*
X15305261Y11963492D01*
X15278769Y11830308D01*
X15246384Y11768397D01*
X15185668Y11733823D01*
X15157152Y11730500D01*
X10704766Y11730500D01*
X10637727Y11750185D01*
X10635875Y11751398D01*
X10504185Y11839391D01*
X10504172Y11839398D01*
X10358501Y11899736D01*
X10358489Y11899739D01*
X10203845Y11930500D01*
X10203842Y11930500D01*
X10046158Y11930500D01*
X10046155Y11930500D01*
X9891510Y11899739D01*
X9891498Y11899736D01*
X9745827Y11839398D01*
X9745814Y11839391D01*
X9614711Y11751790D01*
X9614707Y11751787D01*
X9503213Y11640293D01*
X9503210Y11640289D01*
X9415609Y11509186D01*
X9415602Y11509173D01*
X9355264Y11363502D01*
X9355261Y11363490D01*
X9324500Y11208847D01*
X9324500Y11051154D01*
X9355261Y10896511D01*
X9355264Y10896499D01*
X9415602Y10750828D01*
X9415609Y10750815D01*
X9503210Y10619712D01*
X9503213Y10619708D01*
X9614707Y10508214D01*
X9614711Y10508211D01*
X9745814Y10420610D01*
X9745827Y10420603D01*
X9879062Y10365416D01*
X9891503Y10360263D01*
X10046153Y10329501D01*
X10046156Y10329500D01*
X10046158Y10329500D01*
X10203844Y10329500D01*
X10203845Y10329501D01*
X10358497Y10360263D01*
X10504179Y10420606D01*
X10552805Y10453097D01*
X10635875Y10508602D01*
X10702553Y10529480D01*
X10704766Y10529500D01*
X24013331Y10529500D01*
X24013347Y10529499D01*
X24020943Y10529499D01*
X24179054Y10529499D01*
X24179057Y10529499D01*
X24331785Y10570423D01*
X24381904Y10599361D01*
X24468716Y10649480D01*
X24580520Y10761284D01*
X24580520Y10761286D01*
X24590728Y10771493D01*
X24590729Y10771496D01*
X25503082Y11683847D01*
X26049500Y11683847D01*
X26049500Y11526154D01*
X26080261Y11371511D01*
X26080264Y11371499D01*
X26140602Y11225828D01*
X26140609Y11225815D01*
X26228210Y11094712D01*
X26228213Y11094708D01*
X26339707Y10983214D01*
X26339711Y10983211D01*
X26470814Y10895610D01*
X26470827Y10895603D01*
X26616498Y10835265D01*
X26616503Y10835263D01*
X26771153Y10804501D01*
X26771156Y10804500D01*
X26771158Y10804500D01*
X26928844Y10804500D01*
X26928845Y10804501D01*
X27083497Y10835263D01*
X27229179Y10895606D01*
X27360289Y10983211D01*
X27471789Y11094711D01*
X27559394Y11225821D01*
X27619737Y11371503D01*
X27650500Y11526158D01*
X27650500Y11683842D01*
X27650500Y11683845D01*
X27650499Y11683847D01*
X27626800Y11802989D01*
X27619737Y11838497D01*
X27619367Y11839391D01*
X27559397Y11984173D01*
X27559390Y11984186D01*
X27471789Y12115289D01*
X27471786Y12115293D01*
X27360292Y12226787D01*
X27360288Y12226790D01*
X27229185Y12314391D01*
X27229172Y12314398D01*
X27083501Y12374736D01*
X27083489Y12374739D01*
X26928845Y12405500D01*
X26928842Y12405500D01*
X26771158Y12405500D01*
X26771155Y12405500D01*
X26616510Y12374739D01*
X26616498Y12374736D01*
X26470827Y12314398D01*
X26470814Y12314391D01*
X26339711Y12226790D01*
X26339707Y12226787D01*
X26228213Y12115293D01*
X26228210Y12115289D01*
X26140609Y11984186D01*
X26140602Y11984173D01*
X26080264Y11838502D01*
X26080261Y11838490D01*
X26049500Y11683847D01*
X25503082Y11683847D01*
X25805520Y11986284D01*
X25884577Y12123216D01*
X25925501Y12275943D01*
X25925501Y12434058D01*
X25925501Y12441653D01*
X25925500Y12441671D01*
X25925500Y13237941D01*
X25945185Y13304980D01*
X25997989Y13350735D01*
X26067147Y13360679D01*
X26073658Y13359565D01*
X26095423Y13355235D01*
X26095425Y13355235D01*
X26253109Y13355235D01*
X26253110Y13355236D01*
X26407762Y13385998D01*
X26553444Y13446341D01*
X26684554Y13533946D01*
X26796054Y13645446D01*
X26883659Y13776556D01*
X26944002Y13922238D01*
X26955914Y13982128D01*
X26988297Y14044037D01*
X26989792Y14045559D01*
X27271119Y14326886D01*
X27332440Y14360369D01*
X27402132Y14355385D01*
X27437467Y14335053D01*
X27439708Y14333214D01*
X27439711Y14333211D01*
X27439714Y14333209D01*
X27570814Y14245610D01*
X27570827Y14245603D01*
X27684734Y14198422D01*
X27716503Y14185263D01*
X27871153Y14154501D01*
X27871156Y14154500D01*
X27871158Y14154500D01*
X27873500Y14154500D01*
X27874682Y14154153D01*
X27877218Y14153903D01*
X27877170Y14153423D01*
X27940539Y14134815D01*
X27986294Y14082011D01*
X27997500Y14030500D01*
X27997500Y10453097D01*
X27977815Y10386058D01*
X27961181Y10365416D01*
X27660339Y10064575D01*
X27599016Y10031090D01*
X27596850Y10030639D01*
X27441508Y9999739D01*
X27441498Y9999736D01*
X27295827Y9939398D01*
X27295814Y9939391D01*
X27164711Y9851790D01*
X27164707Y9851787D01*
X27053213Y9740293D01*
X27053210Y9740289D01*
X26965609Y9609186D01*
X26965602Y9609173D01*
X26905264Y9463502D01*
X26905261Y9463490D01*
X26874500Y9308847D01*
X26874500Y9308842D01*
X26874500Y9151158D01*
X26874500Y9151156D01*
X26874499Y9151156D01*
X26898860Y9028692D01*
X26892633Y8959100D01*
X26849770Y8903923D01*
X26783880Y8880678D01*
X26777243Y8880500D01*
X14421155Y8880500D01*
X14266510Y8849739D01*
X14266498Y8849736D01*
X14120827Y8789398D01*
X14120814Y8789391D01*
X13989711Y8701790D01*
X13989707Y8701787D01*
X13878213Y8590293D01*
X13878210Y8590289D01*
X13790609Y8459186D01*
X13790602Y8459173D01*
X13730264Y8313502D01*
X13730261Y8313490D01*
X13699500Y8158847D01*
X13699500Y8001154D01*
X13730261Y7846511D01*
X13730264Y7846499D01*
X13790602Y7700828D01*
X13790609Y7700815D01*
X13878210Y7569712D01*
X13878213Y7569708D01*
X13989707Y7458214D01*
X13989711Y7458211D01*
X14120814Y7370610D01*
X14120827Y7370603D01*
X14272130Y7307932D01*
X14271094Y7305433D01*
X14319768Y7273535D01*
X14348225Y7209722D01*
X14337664Y7140655D01*
X14291439Y7088262D01*
X14272787Y7078611D01*
X14215974Y7055079D01*
X14540000Y6731054D01*
X14540001Y6731054D01*
X14864024Y7055079D01*
X14860857Y7071001D01*
X14843758Y7084780D01*
X14821693Y7151074D01*
X14838972Y7218774D01*
X14890110Y7266384D01*
X14945614Y7279500D01*
X15234385Y7279500D01*
X15301424Y7259815D01*
X15347179Y7207011D01*
X15357123Y7137853D01*
X15328098Y7074297D01*
X15318407Y7067309D01*
X15315974Y7055079D01*
X15816777Y6554277D01*
X16317577Y6053476D01*
X16317578Y6053476D01*
X16361175Y6158725D01*
X16361179Y6158740D01*
X16389999Y6303627D01*
X16390000Y6303629D01*
X16390000Y6330500D01*
X16409685Y6397539D01*
X16462489Y6443294D01*
X16514000Y6454500D01*
X16528844Y6454500D01*
X16528845Y6454501D01*
X16683497Y6485263D01*
X16829179Y6545606D01*
X16960289Y6633211D01*
X17071789Y6744711D01*
X17159394Y6875821D01*
X17219737Y7021503D01*
X17243438Y7140655D01*
X17251203Y7179691D01*
X17283588Y7241602D01*
X17344303Y7276176D01*
X17372820Y7279500D01*
X27978844Y7279500D01*
X27978845Y7279501D01*
X28133497Y7310263D01*
X28279179Y7370606D01*
X28410289Y7458211D01*
X29287819Y8335741D01*
X29349142Y8369226D01*
X29418833Y8364242D01*
X29474767Y8322370D01*
X29499184Y8256906D01*
X29499500Y8248060D01*
X29499500Y604500D01*
X29479815Y537461D01*
X29427011Y491706D01*
X29375500Y480500D01*
X20507703Y480500D01*
X20440664Y500185D01*
X20394909Y552989D01*
X20384965Y622147D01*
X20386086Y628691D01*
X20400499Y701154D01*
X20400500Y701156D01*
X20400500Y858845D01*
X20400499Y858847D01*
X20369738Y1013490D01*
X20369737Y1013497D01*
X20369735Y1013502D01*
X20309397Y1159173D01*
X20309390Y1159186D01*
X20221789Y1290289D01*
X20221786Y1290293D01*
X20110292Y1401787D01*
X20110288Y1401790D01*
X19979185Y1489391D01*
X19979172Y1489398D01*
X19833501Y1549736D01*
X19833491Y1549739D01*
X19787676Y1558852D01*
X19725765Y1591237D01*
X19691191Y1651953D01*
X19693211Y1716477D01*
X19694733Y1721495D01*
X19694737Y1721503D01*
X19698469Y1740262D01*
X19725499Y1876154D01*
X19725500Y1876156D01*
X19725500Y2033845D01*
X19725499Y2033847D01*
X19712110Y2101158D01*
X19694737Y2188497D01*
X19694735Y2188502D01*
X19634397Y2334173D01*
X19634390Y2334186D01*
X19546789Y2465289D01*
X19546786Y2465293D01*
X19435292Y2576787D01*
X19435288Y2576790D01*
X19304185Y2664391D01*
X19304172Y2664398D01*
X19158501Y2724736D01*
X19158489Y2724739D01*
X19003845Y2755500D01*
X19003842Y2755500D01*
X18846158Y2755500D01*
X18846155Y2755500D01*
X18691510Y2724739D01*
X18691498Y2724736D01*
X18545827Y2664398D01*
X18545814Y2664391D01*
X18418391Y2579249D01*
X18351713Y2558371D01*
X18284333Y2576856D01*
X18237643Y2628835D01*
X18226527Y2677825D01*
X18226097Y2677782D01*
X18225759Y2681206D01*
X18225500Y2682351D01*
X18225500Y2683845D01*
X18225499Y2683847D01*
X18212696Y2748211D01*
X18194737Y2838497D01*
X18185950Y2859712D01*
X18134397Y2984173D01*
X18134390Y2984186D01*
X18046789Y3115289D01*
X18046786Y3115293D01*
X17990622Y3171457D01*
X24439499Y3171457D01*
X24477947Y2978171D01*
X24477950Y2978161D01*
X24553364Y2796093D01*
X24553371Y2796080D01*
X24662860Y2632219D01*
X24662863Y2632215D01*
X24802214Y2492864D01*
X24802218Y2492861D01*
X24966079Y2383372D01*
X24966092Y2383365D01*
X25084854Y2334173D01*
X25148165Y2307949D01*
X25148169Y2307949D01*
X25148170Y2307948D01*
X25341456Y2269500D01*
X25341459Y2269500D01*
X25538543Y2269500D01*
X25668582Y2295368D01*
X25731835Y2307949D01*
X25913914Y2383368D01*
X26077782Y2492861D01*
X26217139Y2632218D01*
X26326632Y2796086D01*
X26402051Y2978165D01*
X26432609Y3131789D01*
X26440500Y3171457D01*
X26440500Y3368544D01*
X26402052Y3561830D01*
X26402051Y3561831D01*
X26402051Y3561835D01*
X26382840Y3608216D01*
X26326635Y3743908D01*
X26326628Y3743921D01*
X26217139Y3907782D01*
X26217136Y3907786D01*
X26077785Y4047137D01*
X26077781Y4047140D01*
X25913920Y4156629D01*
X25913907Y4156636D01*
X25731839Y4232050D01*
X25731829Y4232053D01*
X25538543Y4270500D01*
X25538541Y4270500D01*
X25341459Y4270500D01*
X25341457Y4270500D01*
X25148170Y4232053D01*
X25148160Y4232050D01*
X24966092Y4156636D01*
X24966079Y4156629D01*
X24802218Y4047140D01*
X24802214Y4047137D01*
X24662863Y3907786D01*
X24662860Y3907782D01*
X24553371Y3743921D01*
X24553364Y3743908D01*
X24477950Y3561840D01*
X24477947Y3561830D01*
X24439500Y3368544D01*
X24439500Y3368541D01*
X24439500Y3171459D01*
X24439500Y3171457D01*
X24439499Y3171457D01*
X17990622Y3171457D01*
X17935292Y3226787D01*
X17935285Y3226792D01*
X17911495Y3242689D01*
X17897985Y3258855D01*
X17881119Y3271481D01*
X17876029Y3285126D01*
X17866690Y3296302D01*
X17864064Y3317208D01*
X17856703Y3336946D01*
X17859798Y3351177D01*
X17857984Y3365627D01*
X17867077Y3384633D01*
X17871556Y3405219D01*
X17886440Y3425103D01*
X17888140Y3428654D01*
X17892670Y3433435D01*
X17930520Y3471284D01*
X18006853Y3603497D01*
X18009577Y3608215D01*
X18050500Y3760942D01*
X18050500Y3919057D01*
X18050500Y4440235D01*
X18070185Y4507274D01*
X18071398Y4509126D01*
X18159390Y4640815D01*
X18159390Y4640816D01*
X18159394Y4640821D01*
X18219737Y4786503D01*
X18250500Y4941158D01*
X18250500Y5098842D01*
X18250500Y5098845D01*
X18250499Y5098847D01*
X18232529Y5189188D01*
X18219737Y5253497D01*
X18186332Y5334145D01*
X18176100Y5358847D01*
X23524500Y5358847D01*
X23524500Y5201154D01*
X23555261Y5046511D01*
X23555264Y5046499D01*
X23615602Y4900828D01*
X23615609Y4900815D01*
X23703210Y4769712D01*
X23703213Y4769708D01*
X23814707Y4658214D01*
X23814711Y4658211D01*
X23945814Y4570610D01*
X23945827Y4570603D01*
X24091498Y4510265D01*
X24091503Y4510263D01*
X24246153Y4479501D01*
X24246156Y4479500D01*
X24246158Y4479500D01*
X24403844Y4479500D01*
X24403845Y4479501D01*
X24558497Y4510263D01*
X24704179Y4570606D01*
X24835289Y4658211D01*
X24946789Y4769711D01*
X25034394Y4900821D01*
X25094737Y5046503D01*
X25125500Y5201158D01*
X25125500Y5358842D01*
X25125500Y5358845D01*
X25125499Y5358847D01*
X25119250Y5390264D01*
X25094737Y5513497D01*
X25058275Y5601525D01*
X25034397Y5659173D01*
X25034390Y5659186D01*
X24946789Y5790289D01*
X24946786Y5790293D01*
X24835292Y5901787D01*
X24835288Y5901790D01*
X24704185Y5989391D01*
X24704172Y5989398D01*
X24558501Y6049736D01*
X24558489Y6049739D01*
X24403845Y6080500D01*
X24403842Y6080500D01*
X24246158Y6080500D01*
X24246155Y6080500D01*
X24091510Y6049739D01*
X24091498Y6049736D01*
X23945827Y5989398D01*
X23945814Y5989391D01*
X23814711Y5901790D01*
X23814707Y5901787D01*
X23703213Y5790293D01*
X23703210Y5790289D01*
X23615609Y5659186D01*
X23615602Y5659173D01*
X23555264Y5513502D01*
X23555261Y5513490D01*
X23524500Y5358847D01*
X18176100Y5358847D01*
X18159397Y5399173D01*
X18159390Y5399186D01*
X18071789Y5530289D01*
X18071786Y5530293D01*
X17960292Y5641787D01*
X17960288Y5641790D01*
X17829185Y5729391D01*
X17829172Y5729398D01*
X17683501Y5789736D01*
X17683489Y5789739D01*
X17528845Y5820500D01*
X17528842Y5820500D01*
X17371158Y5820500D01*
X17371155Y5820500D01*
X17216510Y5789739D01*
X17216498Y5789736D01*
X17070827Y5729398D01*
X17070814Y5729391D01*
X16939711Y5641790D01*
X16939707Y5641787D01*
X16828213Y5530293D01*
X16828210Y5530289D01*
X16740609Y5399186D01*
X16740602Y5399173D01*
X16680264Y5253502D01*
X16680261Y5253490D01*
X16649500Y5098847D01*
X16649500Y4941154D01*
X16680261Y4786511D01*
X16680264Y4786499D01*
X16740602Y4640828D01*
X16740609Y4640815D01*
X16828602Y4509126D01*
X16849480Y4442449D01*
X16849500Y4440235D01*
X16849500Y4140097D01*
X16840855Y4110657D01*
X16834332Y4080670D01*
X16830577Y4075655D01*
X16829815Y4073058D01*
X16813181Y4052416D01*
X16693101Y3932336D01*
X16631778Y3898851D01*
X16605420Y3896017D01*
X16499798Y3896017D01*
X16432759Y3915702D01*
X16387004Y3968506D01*
X16377060Y4037664D01*
X16378181Y4044208D01*
X16389999Y4103627D01*
X16390000Y4103629D01*
X16390000Y4251372D01*
X16389999Y4251374D01*
X16361179Y4396260D01*
X16361178Y4396264D01*
X16317577Y4501525D01*
X15816777Y4000723D01*
X15748390Y3932336D01*
X15687067Y3898851D01*
X15660709Y3896017D01*
X15304325Y3896017D01*
X15237286Y3915702D01*
X15191531Y3968506D01*
X15181587Y4037664D01*
X15210612Y4101220D01*
X15216644Y4107698D01*
X15286446Y4177500D01*
X15266555Y4197391D01*
X15540000Y4197391D01*
X15540000Y4157609D01*
X15555224Y4120855D01*
X15583355Y4092724D01*
X15620109Y4077500D01*
X15659891Y4077500D01*
X15696645Y4092724D01*
X15724776Y4120855D01*
X15740000Y4157609D01*
X15740000Y4197391D01*
X15724776Y4234145D01*
X15696645Y4262276D01*
X15659891Y4277500D01*
X15620109Y4277500D01*
X15583355Y4262276D01*
X15555224Y4234145D01*
X15540000Y4197391D01*
X15266555Y4197391D01*
X15090000Y4373946D01*
X14893554Y4177500D01*
X14963356Y4107698D01*
X14996841Y4046375D01*
X14991857Y3976683D01*
X14949985Y3920750D01*
X14884521Y3896333D01*
X14875675Y3896017D01*
X14204325Y3896017D01*
X14137286Y3915702D01*
X14091531Y3968506D01*
X14081587Y4037664D01*
X14110612Y4101220D01*
X14116644Y4107698D01*
X14186446Y4177500D01*
X14166555Y4197391D01*
X14440000Y4197391D01*
X14440000Y4157609D01*
X14455224Y4120855D01*
X14483355Y4092724D01*
X14520109Y4077500D01*
X14559891Y4077500D01*
X14596645Y4092724D01*
X14624776Y4120855D01*
X14640000Y4157609D01*
X14640000Y4197391D01*
X14624776Y4234145D01*
X14596645Y4262276D01*
X14559891Y4277500D01*
X14520109Y4277500D01*
X14483355Y4262276D01*
X14455224Y4234145D01*
X14440000Y4197391D01*
X14166555Y4197391D01*
X13990000Y4373946D01*
X13793554Y4177500D01*
X13853872Y4117182D01*
X13864482Y4097750D01*
X13878985Y4081014D01*
X13880902Y4067680D01*
X13887357Y4055859D01*
X13885777Y4033774D01*
X13888929Y4011856D01*
X13883333Y3999604D01*
X13882373Y3986167D01*
X13869102Y3968441D01*
X13859905Y3948299D01*
X13848572Y3941016D01*
X13840501Y3930234D01*
X13819756Y3922497D01*
X13801127Y3910524D01*
X13779207Y3907373D01*
X13775037Y3905817D01*
X13766193Y3905501D01*
X13695943Y3905501D01*
X13695939Y3905501D01*
X13688333Y3905500D01*
X13688332Y3905501D01*
X13688331Y3905500D01*
X13409808Y3905500D01*
X13342769Y3925185D01*
X13322127Y3941819D01*
X13263223Y4000723D01*
X13066555Y4197391D01*
X13340000Y4197391D01*
X13340000Y4157609D01*
X13355224Y4120855D01*
X13383355Y4092724D01*
X13420109Y4077500D01*
X13459891Y4077500D01*
X13496645Y4092724D01*
X13524776Y4120855D01*
X13540000Y4157609D01*
X13540000Y4197391D01*
X13524776Y4234145D01*
X13496645Y4262276D01*
X13459891Y4277500D01*
X13420109Y4277500D01*
X13383355Y4262276D01*
X13355224Y4234145D01*
X13340000Y4197391D01*
X13066555Y4197391D01*
X12762421Y4501526D01*
X12762420Y4501526D01*
X12718823Y4396272D01*
X12718820Y4396260D01*
X12690000Y4251374D01*
X12690000Y4103627D01*
X12699933Y4053691D01*
X12698055Y4032708D01*
X12701054Y4011853D01*
X12695003Y3998606D01*
X12693706Y3984100D01*
X12680781Y3967462D01*
X12672029Y3948297D01*
X12659777Y3940424D01*
X12650843Y3928922D01*
X12630974Y3921913D01*
X12613251Y3910523D01*
X12588667Y3906989D01*
X12584953Y3905678D01*
X12578316Y3905500D01*
X12384297Y3905500D01*
X12317258Y3925185D01*
X12296616Y3941819D01*
X11510935Y4727500D01*
X13243554Y4727500D01*
X13440000Y4531054D01*
X13636446Y4727500D01*
X14343554Y4727500D01*
X14540000Y4531054D01*
X14736446Y4727500D01*
X15443554Y4727500D01*
X15640000Y4531054D01*
X15836446Y4727500D01*
X15640000Y4923946D01*
X15443554Y4727500D01*
X14736446Y4727500D01*
X14540000Y4923946D01*
X14343554Y4727500D01*
X13636446Y4727500D01*
X13440000Y4923946D01*
X13243554Y4727500D01*
X11510935Y4727500D01*
X10887061Y5351374D01*
X12690000Y5351374D01*
X12690000Y5203627D01*
X12718820Y5058741D01*
X12718822Y5058733D01*
X12762421Y4953476D01*
X13086446Y5277500D01*
X13086446Y5277501D01*
X13066556Y5297391D01*
X13340000Y5297391D01*
X13340000Y5257609D01*
X13355224Y5220855D01*
X13383355Y5192724D01*
X13420109Y5177500D01*
X13459891Y5177500D01*
X13496645Y5192724D01*
X13524776Y5220855D01*
X13540000Y5257609D01*
X13540000Y5277500D01*
X13793554Y5277500D01*
X13990000Y5081054D01*
X14186446Y5277500D01*
X14166555Y5297391D01*
X14440000Y5297391D01*
X14440000Y5257609D01*
X14455224Y5220855D01*
X14483355Y5192724D01*
X14520109Y5177500D01*
X14559891Y5177500D01*
X14596645Y5192724D01*
X14624776Y5220855D01*
X14640000Y5257609D01*
X14640000Y5277500D01*
X14893554Y5277500D01*
X15090000Y5081054D01*
X15286446Y5277500D01*
X15266555Y5297391D01*
X15540000Y5297391D01*
X15540000Y5257609D01*
X15555224Y5220855D01*
X15583355Y5192724D01*
X15620109Y5177500D01*
X15659891Y5177500D01*
X15696645Y5192724D01*
X15724776Y5220855D01*
X15740000Y5257609D01*
X15740000Y5277501D01*
X15993554Y5277501D01*
X15993554Y5277499D01*
X16317577Y4953476D01*
X16317578Y4953476D01*
X16361175Y5058725D01*
X16361179Y5058740D01*
X16389999Y5203627D01*
X16390000Y5203629D01*
X16390000Y5351372D01*
X16389999Y5351374D01*
X16361179Y5496260D01*
X16361178Y5496264D01*
X16317577Y5601525D01*
X15993554Y5277501D01*
X15740000Y5277501D01*
X15740000Y5297391D01*
X15724776Y5334145D01*
X15696645Y5362276D01*
X15659891Y5377500D01*
X15620109Y5377500D01*
X15583355Y5362276D01*
X15555224Y5334145D01*
X15540000Y5297391D01*
X15266555Y5297391D01*
X15090000Y5473946D01*
X14893554Y5277500D01*
X14640000Y5277500D01*
X14640000Y5297391D01*
X14624776Y5334145D01*
X14596645Y5362276D01*
X14559891Y5377500D01*
X14520109Y5377500D01*
X14483355Y5362276D01*
X14455224Y5334145D01*
X14440000Y5297391D01*
X14166555Y5297391D01*
X13990000Y5473946D01*
X13793554Y5277500D01*
X13540000Y5277500D01*
X13540000Y5297391D01*
X13524776Y5334145D01*
X13496645Y5362276D01*
X13459891Y5377500D01*
X13420109Y5377500D01*
X13383355Y5362276D01*
X13355224Y5334145D01*
X13340000Y5297391D01*
X13066556Y5297391D01*
X12762421Y5601526D01*
X12762420Y5601526D01*
X12718823Y5496272D01*
X12718820Y5496260D01*
X12690000Y5351374D01*
X10887061Y5351374D01*
X10410935Y5827500D01*
X13243554Y5827500D01*
X13440000Y5631054D01*
X13636446Y5827500D01*
X14343554Y5827500D01*
X14540000Y5631054D01*
X14736446Y5827500D01*
X15443554Y5827500D01*
X15640000Y5631054D01*
X15836446Y5827500D01*
X15640000Y6023946D01*
X15443554Y5827500D01*
X14736446Y5827500D01*
X14540000Y6023946D01*
X14343554Y5827500D01*
X13636446Y5827500D01*
X13440000Y6023946D01*
X13243554Y5827500D01*
X10410935Y5827500D01*
X9969819Y6268616D01*
X9955115Y6295544D01*
X9938523Y6321362D01*
X9937631Y6327563D01*
X9936334Y6329939D01*
X9933500Y6356297D01*
X9933500Y6451374D01*
X12690000Y6451374D01*
X12690000Y6303627D01*
X12718820Y6158741D01*
X12718822Y6158733D01*
X12762421Y6053476D01*
X13086446Y6377500D01*
X13086446Y6377501D01*
X13066556Y6397391D01*
X13340000Y6397391D01*
X13340000Y6357609D01*
X13355224Y6320855D01*
X13383355Y6292724D01*
X13420109Y6277500D01*
X13459891Y6277500D01*
X13496645Y6292724D01*
X13524776Y6320855D01*
X13540000Y6357609D01*
X13540000Y6377500D01*
X13793554Y6377500D01*
X13990000Y6181054D01*
X14186446Y6377500D01*
X14166555Y6397391D01*
X14440000Y6397391D01*
X14440000Y6357609D01*
X14455224Y6320855D01*
X14483355Y6292724D01*
X14520109Y6277500D01*
X14559891Y6277500D01*
X14596645Y6292724D01*
X14624776Y6320855D01*
X14640000Y6357609D01*
X14640000Y6377500D01*
X14893554Y6377500D01*
X15090000Y6181054D01*
X15286446Y6377500D01*
X15266555Y6397391D01*
X15540000Y6397391D01*
X15540000Y6357609D01*
X15555224Y6320855D01*
X15583355Y6292724D01*
X15620109Y6277500D01*
X15659891Y6277500D01*
X15696645Y6292724D01*
X15724776Y6320855D01*
X15740000Y6357609D01*
X15740000Y6397391D01*
X15724776Y6434145D01*
X15696645Y6462276D01*
X15659891Y6477500D01*
X15620109Y6477500D01*
X15583355Y6462276D01*
X15555224Y6434145D01*
X15540000Y6397391D01*
X15266555Y6397391D01*
X15090000Y6573946D01*
X14893554Y6377500D01*
X14640000Y6377500D01*
X14640000Y6397391D01*
X14624776Y6434145D01*
X14596645Y6462276D01*
X14559891Y6477500D01*
X14520109Y6477500D01*
X14483355Y6462276D01*
X14455224Y6434145D01*
X14440000Y6397391D01*
X14166555Y6397391D01*
X13990000Y6573946D01*
X13793554Y6377500D01*
X13540000Y6377500D01*
X13540000Y6397391D01*
X13524776Y6434145D01*
X13496645Y6462276D01*
X13459891Y6477500D01*
X13420109Y6477500D01*
X13383355Y6462276D01*
X13355224Y6434145D01*
X13340000Y6397391D01*
X13066556Y6397391D01*
X12762421Y6701526D01*
X12762420Y6701526D01*
X12718823Y6596272D01*
X12718820Y6596260D01*
X12690000Y6451374D01*
X9933500Y6451374D01*
X9933500Y7055080D01*
X13115974Y7055080D01*
X13115974Y7055079D01*
X13440000Y6731054D01*
X13440001Y6731054D01*
X13764024Y7055079D01*
X13658767Y7098678D01*
X13658759Y7098680D01*
X13513872Y7127500D01*
X13366128Y7127500D01*
X13221240Y7098680D01*
X13221228Y7098677D01*
X13115974Y7055080D01*
X9933500Y7055080D01*
X9933500Y7079240D01*
X9933501Y7079253D01*
X9933501Y7247356D01*
X9930163Y7259815D01*
X9892577Y7400084D01*
X9859016Y7458214D01*
X9813524Y7537010D01*
X9813518Y7537018D01*
X8037819Y9312717D01*
X8004334Y9374040D01*
X8001500Y9400398D01*
X8001500Y12780903D01*
X8021185Y12847942D01*
X8037819Y12868584D01*
X8561558Y13392323D01*
X9181520Y14012284D01*
X9260577Y14149216D01*
X9301501Y14301943D01*
X9301501Y14460058D01*
X9301501Y14467653D01*
X9301500Y14467671D01*
X9301500Y20191240D01*
X9301501Y20191253D01*
X9301501Y20359356D01*
X9291337Y20397288D01*
X9260577Y20512084D01*
X9260573Y20512091D01*
X9181524Y20649010D01*
X9181518Y20649018D01*
X8951690Y20878846D01*
X8918205Y20940169D01*
X8923189Y21009861D01*
X8965061Y21065794D01*
X9030525Y21090211D01*
X9039371Y21090527D01*
X9554074Y21090527D01*
X9621113Y21070842D01*
G37*
%TD.AperFunction*%
%TA.AperFunction,Conductor*%
G36*
X16680498Y2259815D02*
G01*
X16716561Y2224391D01*
X16803210Y2094712D01*
X16803213Y2094708D01*
X16914707Y1983214D01*
X16914711Y1983211D01*
X17045814Y1895610D01*
X17045827Y1895603D01*
X17191498Y1835265D01*
X17191503Y1835263D01*
X17191507Y1835263D01*
X17191508Y1835262D01*
X17227426Y1828117D01*
X17289337Y1795732D01*
X17323911Y1735016D01*
X17320171Y1665247D01*
X17279304Y1608575D01*
X17214286Y1582993D01*
X17203234Y1582500D01*
X15170505Y1582500D01*
X15103466Y1602185D01*
X15057711Y1654989D01*
X15047767Y1724147D01*
X15067403Y1775390D01*
X15084387Y1800810D01*
X15084388Y1800814D01*
X15084394Y1800821D01*
X15144737Y1946503D01*
X15175500Y2101158D01*
X15175500Y2155500D01*
X15195185Y2222539D01*
X15247989Y2268294D01*
X15299500Y2279500D01*
X16613459Y2279500D01*
X16680498Y2259815D01*
G37*
%TD.AperFunction*%
%TA.AperFunction,Conductor*%
G36*
X24969319Y15277701D02*
G01*
X24976524Y15277572D01*
X25008362Y15262339D01*
X25070814Y15220610D01*
X25070827Y15220603D01*
X25192684Y15170129D01*
X25216503Y15160263D01*
X25216511Y15160262D01*
X25221483Y15158753D01*
X25279923Y15120457D01*
X25308382Y15056646D01*
X25297824Y14987579D01*
X25273173Y14952410D01*
X24956286Y14635522D01*
X24844481Y14523718D01*
X24844477Y14523713D01*
X24806036Y14457129D01*
X24806036Y14457128D01*
X24765423Y14386786D01*
X24765423Y14386785D01*
X24724499Y14234057D01*
X24724499Y14234055D01*
X24724499Y14065954D01*
X24724500Y14065941D01*
X24724500Y12655098D01*
X24704815Y12588059D01*
X24688181Y12567417D01*
X23887584Y11766819D01*
X23826261Y11733334D01*
X23799903Y11730500D01*
X16992848Y11730500D01*
X16925809Y11750185D01*
X16880054Y11802989D01*
X16871231Y11830308D01*
X16844738Y11963492D01*
X16844737Y11963493D01*
X16844737Y11963497D01*
X16836170Y11984179D01*
X16784397Y12109173D01*
X16784390Y12109186D01*
X16735998Y12181609D01*
X16715120Y12248286D01*
X16733604Y12315666D01*
X16785583Y12362357D01*
X16839100Y12374500D01*
X18840825Y12374500D01*
X18846830Y12374822D01*
X18894865Y12377397D01*
X18921222Y12380231D01*
X18974623Y12388884D01*
X19109432Y12439163D01*
X19170756Y12472647D01*
X19170764Y12472651D01*
X19221998Y12511005D01*
X19222926Y12511672D01*
X19254798Y12522870D01*
X19286473Y12534684D01*
X19287680Y12534422D01*
X19288846Y12534831D01*
X19321731Y12527015D01*
X19354747Y12519833D01*
X19356293Y12518800D01*
X19356822Y12518674D01*
X19357435Y12518038D01*
X19373125Y12507554D01*
X19374968Y12506069D01*
X19404998Y12484415D01*
X19418841Y12474433D01*
X19418843Y12474432D01*
X19513713Y12431105D01*
X19549718Y12414662D01*
X19616757Y12394977D01*
X19616761Y12394976D01*
X19759177Y12374500D01*
X19759180Y12374500D01*
X19946000Y12374500D01*
X20017942Y12379645D01*
X20052877Y12384668D01*
X20123398Y12400013D01*
X20150680Y12412476D01*
X20207510Y12431390D01*
X20245416Y12455752D01*
X20254270Y12459796D01*
X20260331Y12463692D01*
X20260330Y12463693D01*
X20290764Y12483249D01*
X20312999Y12497538D01*
X20313037Y12497563D01*
X20313681Y12498122D01*
X20327862Y12508738D01*
X20328549Y12509179D01*
X20348516Y12526481D01*
X20348515Y12526482D01*
X20374482Y12548982D01*
X20381323Y12554909D01*
X20381347Y12554930D01*
X20383344Y12557235D01*
X20384794Y12558795D01*
X20385609Y12559280D01*
X20394420Y12568092D01*
X20417460Y12588059D01*
X20421768Y12591792D01*
X20446097Y12629655D01*
X20475569Y12663667D01*
X20494281Y12704644D01*
X20499072Y12712099D01*
X20499074Y12712102D01*
X20499081Y12712113D01*
X20499547Y12712838D01*
X20503308Y12721075D01*
X20503567Y12721642D01*
X20503571Y12721651D01*
X20517575Y12752317D01*
X20517576Y12752316D01*
X20528555Y12776356D01*
X20528568Y12776384D01*
X20530027Y12781356D01*
X20531526Y12785397D01*
X20532203Y12786306D01*
X20534996Y12793796D01*
X20535339Y12794546D01*
X20542783Y12819898D01*
X20542782Y12819899D01*
X20552577Y12853253D01*
X20552850Y12854185D01*
X20555011Y12861540D01*
X20555013Y12861545D01*
X20555015Y12861545D01*
X20555020Y12861573D01*
X20555024Y12861584D01*
X20555146Y12862436D01*
X20558908Y12879735D01*
X20569096Y12914438D01*
X20569093Y12950575D01*
X20570356Y12968227D01*
X20575499Y13003995D01*
X20575500Y13004000D01*
X20575500Y13062216D01*
X20595185Y13129255D01*
X20647989Y13175010D01*
X20717147Y13184954D01*
X20723692Y13183833D01*
X20871155Y13154500D01*
X20871158Y13154500D01*
X21028844Y13154500D01*
X21028845Y13154501D01*
X21183497Y13185263D01*
X21329179Y13245606D01*
X21362315Y13267748D01*
X21428991Y13288626D01*
X21489648Y13271987D01*
X21490446Y13273479D01*
X21495827Y13270603D01*
X21611552Y13222669D01*
X21641503Y13210263D01*
X21767176Y13185265D01*
X21796153Y13179501D01*
X21796156Y13179500D01*
X21796158Y13179500D01*
X21953844Y13179500D01*
X21953845Y13179501D01*
X22108497Y13210263D01*
X22254179Y13270606D01*
X22254184Y13270610D01*
X22259546Y13273475D01*
X22260815Y13271101D01*
X22316338Y13288548D01*
X22366128Y13279132D01*
X22502439Y13222670D01*
X22657089Y13191908D01*
X22657092Y13191907D01*
X22657094Y13191907D01*
X22814780Y13191907D01*
X22814781Y13191908D01*
X22969433Y13222670D01*
X23115115Y13283013D01*
X23246225Y13370618D01*
X23357725Y13482118D01*
X23445330Y13613228D01*
X23505673Y13758910D01*
X23536436Y13913565D01*
X23536436Y14071249D01*
X23536436Y14071252D01*
X23536435Y14071254D01*
X23513757Y14185263D01*
X23505673Y14225904D01*
X23502296Y14234057D01*
X23445333Y14371580D01*
X23445326Y14371593D01*
X23357725Y14502696D01*
X23353860Y14507406D01*
X23356036Y14509193D01*
X23347115Y14525531D01*
X23330523Y14551349D01*
X23329631Y14557550D01*
X23328334Y14559926D01*
X23325500Y14586284D01*
X23325500Y14779437D01*
X23345185Y14846476D01*
X23361813Y14867113D01*
X23526318Y15031618D01*
X23587638Y15065100D01*
X23657329Y15060116D01*
X23682887Y15047036D01*
X23796641Y14971028D01*
X23796654Y14971021D01*
X23942325Y14910683D01*
X23942330Y14910681D01*
X24096980Y14879919D01*
X24096983Y14879918D01*
X24096985Y14879918D01*
X24254671Y14879918D01*
X24254672Y14879919D01*
X24409324Y14910681D01*
X24555006Y14971024D01*
X24686116Y15058629D01*
X24797616Y15170129D01*
X24836370Y15228130D01*
X24843315Y15233933D01*
X24847222Y15242099D01*
X24869704Y15255988D01*
X24889980Y15272932D01*
X24898961Y15274061D01*
X24906665Y15278819D01*
X24933087Y15278348D01*
X24959305Y15281641D01*
X24969319Y15277701D01*
G37*
%TD.AperFunction*%
%TA.AperFunction,Conductor*%
G36*
X21527163Y34545953D02*
G01*
X21555658Y34542546D01*
X21562509Y34537909D01*
X21567311Y34536816D01*
X21573609Y34530396D01*
X21594527Y34516238D01*
X22105181Y34005584D01*
X22138666Y33944261D01*
X22141500Y33917903D01*
X22141500Y30247541D01*
X22121815Y30180502D01*
X22105181Y30159860D01*
X21923481Y29978161D01*
X21923479Y29978158D01*
X21887432Y29915721D01*
X21887431Y29915719D01*
X21844423Y29841229D01*
X21843411Y29837453D01*
X21803499Y29688500D01*
X21803499Y29688498D01*
X21803499Y29520397D01*
X21803500Y29520384D01*
X21803500Y27529618D01*
X21803499Y27529614D01*
X21803499Y27371500D01*
X21804434Y27368011D01*
X21804498Y27356454D01*
X21804463Y27356333D01*
X21804500Y27355771D01*
X21804500Y27164470D01*
X21804499Y27164452D01*
X21804499Y26998746D01*
X21804498Y26998746D01*
X21804499Y26998743D01*
X21840810Y26863230D01*
X21845424Y26846013D01*
X21860618Y26819697D01*
X21860619Y26819695D01*
X21924477Y26709088D01*
X21924481Y26709083D01*
X22036285Y26597279D01*
X22337181Y26296384D01*
X22370666Y26235061D01*
X22373500Y26208703D01*
X22373500Y24567670D01*
X22373499Y24567652D01*
X22373499Y24401946D01*
X22373498Y24401946D01*
X22414424Y24249211D01*
X22414425Y24249210D01*
X22433985Y24215332D01*
X22433986Y24215331D01*
X22493477Y24112288D01*
X22493481Y24112283D01*
X22612349Y23993415D01*
X22612355Y23993410D01*
X24753181Y21852584D01*
X24786666Y21791261D01*
X24789500Y21764903D01*
X24789500Y19178832D01*
X24769815Y19111793D01*
X24753181Y19091151D01*
X20787181Y15125151D01*
X20725858Y15091666D01*
X20656166Y15096650D01*
X20600233Y15138522D01*
X20575816Y15203986D01*
X20575500Y15212832D01*
X20575500Y16495369D01*
X20595185Y16562408D01*
X20647989Y16608163D01*
X20717147Y16618107D01*
X20746947Y16609932D01*
X20806503Y16585263D01*
X20961153Y16554501D01*
X20961156Y16554500D01*
X20961158Y16554500D01*
X21118844Y16554500D01*
X21118845Y16554501D01*
X21273497Y16585263D01*
X21419179Y16645606D01*
X21550289Y16733211D01*
X21661789Y16844711D01*
X21749394Y16975821D01*
X21809737Y17121503D01*
X21840500Y17276158D01*
X21840500Y17433842D01*
X21840500Y17433845D01*
X21840499Y17433847D01*
X21809738Y17588490D01*
X21809737Y17588497D01*
X21809735Y17588502D01*
X21749397Y17734173D01*
X21749390Y17734186D01*
X21661789Y17865289D01*
X21661786Y17865293D01*
X21550292Y17976787D01*
X21550288Y17976790D01*
X21419185Y18064391D01*
X21419172Y18064398D01*
X21273501Y18124736D01*
X21273489Y18124739D01*
X21118845Y18155500D01*
X21118842Y18155500D01*
X20961158Y18155500D01*
X20961155Y18155500D01*
X20806510Y18124739D01*
X20806498Y18124736D01*
X20746952Y18100071D01*
X20677482Y18092602D01*
X20615003Y18123878D01*
X20579352Y18183967D01*
X20575500Y18214632D01*
X20575500Y18524511D01*
X20595185Y18591550D01*
X20647989Y18637305D01*
X20717147Y18647249D01*
X20746948Y18639074D01*
X20816503Y18610263D01*
X20971153Y18579501D01*
X20971156Y18579500D01*
X20971158Y18579500D01*
X21128844Y18579500D01*
X21128845Y18579501D01*
X21283497Y18610263D01*
X21429179Y18670606D01*
X21560289Y18758211D01*
X21671789Y18869711D01*
X21759394Y19000821D01*
X21819737Y19146503D01*
X21850500Y19301158D01*
X21850500Y19458842D01*
X21850500Y19458845D01*
X21850499Y19458847D01*
X21819738Y19613490D01*
X21819737Y19613497D01*
X21819735Y19613502D01*
X21759397Y19759173D01*
X21759390Y19759186D01*
X21671789Y19890289D01*
X21671786Y19890293D01*
X21560292Y20001787D01*
X21560288Y20001790D01*
X21429185Y20089391D01*
X21429172Y20089398D01*
X21283501Y20149736D01*
X21283489Y20149739D01*
X21128845Y20180500D01*
X21128842Y20180500D01*
X20971158Y20180500D01*
X20971155Y20180500D01*
X20816510Y20149739D01*
X20816498Y20149736D01*
X20746952Y20120929D01*
X20677482Y20113460D01*
X20615003Y20144736D01*
X20579352Y20204825D01*
X20575500Y20235490D01*
X20575500Y20582795D01*
X20595185Y20649834D01*
X20647989Y20695589D01*
X20717147Y20705533D01*
X20746949Y20697357D01*
X20836503Y20660263D01*
X20991153Y20629501D01*
X20991156Y20629500D01*
X20991158Y20629500D01*
X21148844Y20629500D01*
X21148845Y20629501D01*
X21303497Y20660263D01*
X21449179Y20720606D01*
X21580289Y20808211D01*
X21691789Y20919711D01*
X21779394Y21050821D01*
X21839737Y21196503D01*
X21870500Y21351158D01*
X21870500Y21508842D01*
X21870500Y21508845D01*
X21870499Y21508847D01*
X21839738Y21663490D01*
X21839737Y21663497D01*
X21786816Y21791261D01*
X21779397Y21809173D01*
X21779390Y21809186D01*
X21691789Y21940289D01*
X21691786Y21940293D01*
X21580292Y22051787D01*
X21580288Y22051790D01*
X21449185Y22139391D01*
X21449172Y22139398D01*
X21303501Y22199736D01*
X21303489Y22199739D01*
X21148845Y22230500D01*
X21148842Y22230500D01*
X20991158Y22230500D01*
X20991155Y22230500D01*
X20836510Y22199739D01*
X20836498Y22199736D01*
X20746952Y22162645D01*
X20677482Y22155176D01*
X20615003Y22186452D01*
X20579351Y22246541D01*
X20575500Y22277206D01*
X20575500Y29330490D01*
X20575500Y29330500D01*
X20565752Y29421162D01*
X20578156Y29489917D01*
X20585931Y29503292D01*
X20634394Y29575821D01*
X20694737Y29721503D01*
X20725500Y29876158D01*
X20725500Y30033842D01*
X20725500Y30033845D01*
X20725499Y30033847D01*
X20710774Y30107874D01*
X20694737Y30188497D01*
X20694735Y30188502D01*
X20634396Y30334175D01*
X20634395Y30334177D01*
X20583300Y30410646D01*
X20562422Y30477324D01*
X20563664Y30497185D01*
X20569370Y30536865D01*
X20575500Y30579500D01*
X20575500Y33027305D01*
X20564063Y33134226D01*
X20552968Y33185494D01*
X20519177Y33287571D01*
X20519175Y33287574D01*
X20519174Y33287577D01*
X20501393Y33315375D01*
X20481852Y33382456D01*
X20501681Y33449453D01*
X20518166Y33469866D01*
X21162573Y34114272D01*
X21162578Y34114276D01*
X21172781Y34124480D01*
X21172783Y34124480D01*
X21284587Y34236284D01*
X21336084Y34325481D01*
X21363644Y34373215D01*
X21388757Y34466941D01*
X21391084Y34473000D01*
X21408499Y34495807D01*
X21423435Y34520310D01*
X21429438Y34523227D01*
X21433489Y34528531D01*
X21460471Y34538302D01*
X21486282Y34550840D01*
X21492908Y34550048D01*
X21499184Y34552320D01*
X21527163Y34545953D01*
G37*
%TD.AperFunction*%
%TA.AperFunction,Conductor*%
G36*
X27538539Y38284815D02*
G01*
X27584294Y38232011D01*
X27595500Y38180500D01*
X27595500Y32797340D01*
X27575815Y32730301D01*
X27559181Y32709659D01*
X26914481Y32064960D01*
X26914479Y32064957D01*
X26894818Y32030903D01*
X26875157Y31996848D01*
X26835423Y31928027D01*
X26794499Y31775299D01*
X26794499Y31775297D01*
X26794275Y31774461D01*
X26757910Y31714801D01*
X26695062Y31684272D01*
X26625687Y31692567D01*
X26571809Y31737052D01*
X26550535Y31803605D01*
X26550500Y31806555D01*
X26550500Y37640941D01*
X26550501Y37640954D01*
X26550501Y37809055D01*
X26550501Y37809057D01*
X26509577Y37961785D01*
X26509575Y37961787D01*
X26507473Y37969635D01*
X26510700Y37970500D01*
X26504865Y38024502D01*
X26536107Y38086998D01*
X26596177Y38122683D01*
X26602675Y38124160D01*
X26658497Y38135263D01*
X26804179Y38195606D01*
X26895830Y38256845D01*
X26935875Y38283602D01*
X27002553Y38304480D01*
X27004766Y38304500D01*
X27471500Y38304500D01*
X27538539Y38284815D01*
G37*
%TD.AperFunction*%
%TA.AperFunction,Conductor*%
G36*
X27285942Y55509815D02*
G01*
X27306584Y55493181D01*
X28762181Y54037584D01*
X28795666Y53976261D01*
X28798500Y53949903D01*
X28798500Y40672197D01*
X28778815Y40605158D01*
X28726011Y40559403D01*
X28656853Y40549459D01*
X28593297Y40578484D01*
X28586819Y40584516D01*
X26176674Y42994661D01*
X26143189Y43055984D01*
X26142738Y43058151D01*
X26119622Y43174361D01*
X26111837Y43213497D01*
X26111835Y43213502D01*
X26051497Y43359173D01*
X26051490Y43359186D01*
X25963889Y43490289D01*
X25963886Y43490293D01*
X25852392Y43601787D01*
X25852388Y43601790D01*
X25721285Y43689391D01*
X25721272Y43689398D01*
X25575601Y43749736D01*
X25575589Y43749739D01*
X25420945Y43780500D01*
X25420942Y43780500D01*
X25263258Y43780500D01*
X25263255Y43780500D01*
X25108610Y43749739D01*
X25108598Y43749736D01*
X24962927Y43689398D01*
X24962914Y43689391D01*
X24831811Y43601790D01*
X24831807Y43601787D01*
X24720313Y43490293D01*
X24720310Y43490289D01*
X24632709Y43359186D01*
X24632702Y43359173D01*
X24572364Y43213502D01*
X24572361Y43213490D01*
X24541600Y43058847D01*
X24541600Y42901154D01*
X24572361Y42746511D01*
X24572364Y42746499D01*
X24632702Y42600828D01*
X24632709Y42600815D01*
X24720310Y42469712D01*
X24720313Y42469708D01*
X24831807Y42358214D01*
X24831811Y42358211D01*
X24962914Y42270610D01*
X24962927Y42270603D01*
X25108598Y42210265D01*
X25108603Y42210263D01*
X25173247Y42197405D01*
X25263949Y42179362D01*
X25325860Y42146977D01*
X25327439Y42145426D01*
X27130684Y40342181D01*
X27164169Y40280858D01*
X27159185Y40211166D01*
X27117313Y40155233D01*
X27051849Y40130816D01*
X27043003Y40130500D01*
X25610669Y40130500D01*
X25610653Y40130501D01*
X25603057Y40130501D01*
X25444943Y40130501D01*
X25330397Y40099808D01*
X25292214Y40089577D01*
X25261759Y40071993D01*
X25261758Y40071993D01*
X25155287Y40010523D01*
X25155282Y40010519D01*
X24944181Y39799417D01*
X24882858Y39765932D01*
X24813166Y39770916D01*
X24757233Y39812788D01*
X24732816Y39878252D01*
X24732500Y39887098D01*
X24732500Y40952057D01*
X24732379Y40952507D01*
X24732361Y40952575D01*
X24715026Y41017270D01*
X24713941Y41021320D01*
X24691577Y41104784D01*
X24670237Y41141746D01*
X24612524Y41241710D01*
X24612521Y41241714D01*
X24612520Y41241716D01*
X24500716Y41353520D01*
X24500715Y41353521D01*
X24496385Y41357851D01*
X24496374Y41357861D01*
X23990135Y41864100D01*
X23956650Y41925423D01*
X23953816Y41951781D01*
X23953816Y46058219D01*
X23973501Y46125258D01*
X23990135Y46145900D01*
X24337416Y46493181D01*
X24398739Y46526666D01*
X24425097Y46529500D01*
X25795234Y46529500D01*
X25862273Y46509815D01*
X25864125Y46508602D01*
X25995814Y46420610D01*
X25995827Y46420603D01*
X26141498Y46360265D01*
X26141503Y46360263D01*
X26296153Y46329501D01*
X26296156Y46329500D01*
X26296158Y46329500D01*
X26453844Y46329500D01*
X26453845Y46329501D01*
X26608497Y46360263D01*
X26754179Y46420606D01*
X26885289Y46508211D01*
X26996789Y46619711D01*
X27084394Y46750821D01*
X27144737Y46896503D01*
X27175500Y47051158D01*
X27175500Y47208842D01*
X27175500Y47208845D01*
X27175499Y47208847D01*
X27154684Y47313490D01*
X27144737Y47363497D01*
X27142345Y47369273D01*
X27084397Y47509173D01*
X27084390Y47509186D01*
X26996789Y47640289D01*
X26996786Y47640293D01*
X26944760Y47692319D01*
X26911275Y47753642D01*
X26916259Y47823334D01*
X26944760Y47867681D01*
X26996786Y47919708D01*
X26996789Y47919711D01*
X27084394Y48050821D01*
X27144737Y48196503D01*
X27175500Y48351158D01*
X27175500Y48508842D01*
X27175500Y48508845D01*
X27175499Y48508847D01*
X27144738Y48663490D01*
X27144737Y48663497D01*
X27093670Y48786785D01*
X27084397Y48809173D01*
X27084390Y48809186D01*
X26996789Y48940289D01*
X26996786Y48940293D01*
X26885292Y49051787D01*
X26885288Y49051790D01*
X26754185Y49139391D01*
X26754172Y49139398D01*
X26608501Y49199736D01*
X26608489Y49199739D01*
X26453845Y49230500D01*
X26453842Y49230500D01*
X26296158Y49230500D01*
X26296155Y49230500D01*
X26141510Y49199739D01*
X26141498Y49199736D01*
X25995827Y49139398D01*
X25995814Y49139391D01*
X25864125Y49051398D01*
X25797447Y49030520D01*
X25795234Y49030500D01*
X24178769Y49030500D01*
X24178753Y49030501D01*
X24171157Y49030501D01*
X24013043Y49030501D01*
X23933110Y49009083D01*
X23860316Y48989578D01*
X23827313Y48970523D01*
X23827312Y48970524D01*
X23723387Y48910523D01*
X23723382Y48910519D01*
X22471797Y47658934D01*
X22471795Y47658931D01*
X22460621Y47639577D01*
X22429271Y47585276D01*
X22392739Y47522001D01*
X22351815Y47369273D01*
X22351815Y47369271D01*
X22351815Y47201170D01*
X22351816Y47201157D01*
X22351816Y44440091D01*
X22332131Y44373052D01*
X22279327Y44327297D01*
X22252008Y44318474D01*
X22118824Y44291982D01*
X22118814Y44291979D01*
X21973143Y44231641D01*
X21973130Y44231634D01*
X21842027Y44144033D01*
X21842023Y44144030D01*
X21730529Y44032536D01*
X21730526Y44032532D01*
X21642925Y43901429D01*
X21642918Y43901416D01*
X21582580Y43755745D01*
X21582577Y43755733D01*
X21551816Y43601090D01*
X21551816Y43592096D01*
X21550124Y43586337D01*
X21551267Y43580445D01*
X21540394Y43553201D01*
X21532131Y43525057D01*
X21527024Y43519696D01*
X21525371Y43515552D01*
X21505864Y43497479D01*
X21499854Y43491168D01*
X21498274Y43490041D01*
X21441027Y43451789D01*
X21431911Y43442674D01*
X21423538Y43436697D01*
X21399858Y43428473D01*
X21377858Y43416459D01*
X21367420Y43417206D01*
X21357536Y43413772D01*
X21333170Y43419655D01*
X21308166Y43421443D01*
X21299788Y43427715D01*
X21289618Y43430170D01*
X21272300Y43448293D01*
X21252233Y43463315D01*
X21248576Y43473119D01*
X21241347Y43480684D01*
X21236576Y43505293D01*
X21227816Y43528779D01*
X21227500Y43537625D01*
X21227500Y48256903D01*
X21247185Y48323942D01*
X21263819Y48344584D01*
X23262416Y50343181D01*
X23323739Y50376666D01*
X23350097Y50379500D01*
X25495234Y50379500D01*
X25562273Y50359815D01*
X25564125Y50358602D01*
X25695814Y50270610D01*
X25695827Y50270603D01*
X25841498Y50210265D01*
X25841503Y50210263D01*
X25996153Y50179501D01*
X25996156Y50179500D01*
X25996158Y50179500D01*
X26153844Y50179500D01*
X26153845Y50179501D01*
X26308497Y50210263D01*
X26454179Y50270606D01*
X26585289Y50358211D01*
X26696789Y50469711D01*
X26784394Y50600821D01*
X26844737Y50746503D01*
X26875500Y50901158D01*
X26875500Y51058842D01*
X26875500Y51058845D01*
X26875499Y51058847D01*
X26873025Y51071284D01*
X26844737Y51213497D01*
X26788728Y51348716D01*
X26784397Y51359173D01*
X26784390Y51359186D01*
X26696789Y51490289D01*
X26696786Y51490293D01*
X26585292Y51601787D01*
X26585288Y51601790D01*
X26454185Y51689391D01*
X26454172Y51689398D01*
X26308501Y51749736D01*
X26308489Y51749739D01*
X26153845Y51780500D01*
X26153842Y51780500D01*
X25996158Y51780500D01*
X25996155Y51780500D01*
X25841510Y51749739D01*
X25841498Y51749736D01*
X25695827Y51689398D01*
X25695814Y51689391D01*
X25564125Y51601398D01*
X25497447Y51580520D01*
X25495234Y51580500D01*
X23136669Y51580500D01*
X23136653Y51580501D01*
X23129057Y51580501D01*
X22970943Y51580501D01*
X22818215Y51539577D01*
X22773071Y51513513D01*
X22773070Y51513513D01*
X22681290Y51460525D01*
X22681282Y51460519D01*
X22569478Y51348714D01*
X20256284Y49035519D01*
X20144483Y48923719D01*
X20144481Y48923716D01*
X20065423Y48786786D01*
X20065423Y48786785D01*
X20024499Y48634057D01*
X20024499Y48634055D01*
X20024499Y48475943D01*
X20025439Y48468803D01*
X20026500Y48452617D01*
X20026500Y46452097D01*
X20006815Y46385058D01*
X19954011Y46339303D01*
X19884853Y46329359D01*
X19821297Y46358384D01*
X19814819Y46364416D01*
X18737590Y47441645D01*
X18737588Y47441648D01*
X18618717Y47560519D01*
X18618716Y47560520D01*
X18531904Y47610640D01*
X18531904Y47610641D01*
X18531900Y47610642D01*
X18481785Y47639577D01*
X18329057Y47680501D01*
X18170943Y47680501D01*
X18163347Y47680501D01*
X18163331Y47680500D01*
X17179766Y47680500D01*
X17112727Y47700185D01*
X17110875Y47701398D01*
X16979185Y47789391D01*
X16979172Y47789398D01*
X16833501Y47849736D01*
X16833489Y47849739D01*
X16678845Y47880500D01*
X16678842Y47880500D01*
X16521158Y47880500D01*
X16521155Y47880500D01*
X16366510Y47849739D01*
X16366498Y47849736D01*
X16220827Y47789398D01*
X16220814Y47789391D01*
X16089711Y47701790D01*
X16089707Y47701787D01*
X15978213Y47590293D01*
X15978210Y47590289D01*
X15890609Y47459186D01*
X15890602Y47459173D01*
X15830264Y47313502D01*
X15830261Y47313490D01*
X15799500Y47158847D01*
X15799500Y47001154D01*
X15830261Y46846511D01*
X15830264Y46846499D01*
X15890602Y46700828D01*
X15890609Y46700815D01*
X15978210Y46569712D01*
X15978212Y46569709D01*
X15993345Y46554577D01*
X16026832Y46493255D01*
X16021849Y46423563D01*
X16005893Y46395824D01*
X16006595Y46395354D01*
X15915609Y46259186D01*
X15915602Y46259173D01*
X15855264Y46113502D01*
X15855261Y46113490D01*
X15824500Y45958847D01*
X15824500Y45801154D01*
X15855261Y45646511D01*
X15855264Y45646499D01*
X15915602Y45500828D01*
X15915609Y45500815D01*
X16003210Y45369712D01*
X16003213Y45369708D01*
X16114707Y45258214D01*
X16114711Y45258211D01*
X16245814Y45170610D01*
X16245827Y45170603D01*
X16391498Y45110265D01*
X16391503Y45110263D01*
X16546153Y45079501D01*
X16546156Y45079500D01*
X16546158Y45079500D01*
X16703844Y45079500D01*
X16703845Y45079501D01*
X16858497Y45110263D01*
X17004179Y45170606D01*
X17078767Y45220444D01*
X17135875Y45258602D01*
X17202553Y45279480D01*
X17204766Y45279500D01*
X18582803Y45279500D01*
X18649842Y45259815D01*
X18670484Y45243181D01*
X19175916Y44737749D01*
X19209401Y44676426D01*
X19212235Y44650068D01*
X19212235Y41929226D01*
X19212234Y41929222D01*
X19212234Y41771108D01*
X19223625Y41728597D01*
X19224321Y41715672D01*
X19223872Y41713773D01*
X19224500Y41709006D01*
X19224500Y41307470D01*
X19224499Y41307452D01*
X19224499Y41141746D01*
X19224498Y41141746D01*
X19265423Y40989015D01*
X19286760Y40952058D01*
X19286762Y40952056D01*
X19344479Y40852086D01*
X19344481Y40852083D01*
X19463349Y40733215D01*
X19463355Y40733210D01*
X19980798Y40215767D01*
X20014283Y40154444D01*
X20009299Y40084752D01*
X19979706Y40039326D01*
X19971515Y40031336D01*
X19964711Y40026789D01*
X19879180Y39941259D01*
X19878649Y39940740D01*
X19848440Y39924727D01*
X19818419Y39908334D01*
X19817285Y39908213D01*
X19816917Y39908017D01*
X19816104Y39908086D01*
X19792060Y39905500D01*
X16736669Y39905500D01*
X16736653Y39905501D01*
X16729057Y39905501D01*
X16570943Y39905501D01*
X16469250Y39878252D01*
X16418214Y39864577D01*
X16402448Y39855474D01*
X16402437Y39855468D01*
X16400883Y39854570D01*
X16281284Y39785520D01*
X16268850Y39773087D01*
X16256508Y39765475D01*
X16236225Y39759928D01*
X16217771Y39749852D01*
X16203203Y39750895D01*
X16189114Y39747041D01*
X16169052Y39753340D01*
X16148080Y39754841D01*
X16132618Y39764779D01*
X16122453Y39767970D01*
X16116438Y39775178D01*
X16103740Y39783339D01*
X16085292Y39801787D01*
X16085288Y39801790D01*
X15954185Y39889391D01*
X15954172Y39889398D01*
X15808501Y39949736D01*
X15808489Y39949739D01*
X15653845Y39980500D01*
X15653842Y39980500D01*
X15496158Y39980500D01*
X15496155Y39980500D01*
X15341510Y39949739D01*
X15341498Y39949736D01*
X15195828Y39889398D01*
X15195812Y39889389D01*
X15175096Y39875547D01*
X15108418Y39854670D01*
X15041038Y39873156D01*
X15037316Y39875548D01*
X15033269Y39878252D01*
X14992490Y39905500D01*
X14979184Y39914391D01*
X14979181Y39914393D01*
X14979179Y39914394D01*
X14979176Y39914396D01*
X14979171Y39914398D01*
X14833501Y39974736D01*
X14833489Y39974739D01*
X14678845Y40005500D01*
X14678842Y40005500D01*
X14521158Y40005500D01*
X14521155Y40005500D01*
X14366510Y39974739D01*
X14366498Y39974736D01*
X14220827Y39914398D01*
X14220814Y39914391D01*
X14089711Y39826790D01*
X14089707Y39826787D01*
X13978213Y39715293D01*
X13978210Y39715289D01*
X13890609Y39584186D01*
X13890602Y39584173D01*
X13830264Y39438502D01*
X13830261Y39438490D01*
X13799500Y39283847D01*
X13799500Y39126154D01*
X13830261Y38971511D01*
X13830264Y38971499D01*
X13890602Y38825828D01*
X13890609Y38825815D01*
X13978210Y38694712D01*
X13978213Y38694708D01*
X14089707Y38583214D01*
X14089711Y38583211D01*
X14220814Y38495610D01*
X14220827Y38495603D01*
X14358693Y38438498D01*
X14366503Y38435263D01*
X14521158Y38404500D01*
X14521847Y38404363D01*
X14583758Y38371978D01*
X14585337Y38370427D01*
X14857284Y38098480D01*
X14857286Y38098479D01*
X14857290Y38098476D01*
X14994209Y38019427D01*
X14994212Y38019425D01*
X14994216Y38019423D01*
X15146943Y37978499D01*
X15146945Y37978499D01*
X15312654Y37978499D01*
X15312670Y37978500D01*
X15837331Y37978500D01*
X15837347Y37978499D01*
X15844943Y37978499D01*
X16003054Y37978499D01*
X16003057Y37978499D01*
X16155785Y38019423D01*
X16214775Y38053481D01*
X16292716Y38098480D01*
X16404520Y38210284D01*
X16404520Y38210286D01*
X16414724Y38220489D01*
X16414727Y38220494D01*
X16862416Y38668181D01*
X16923739Y38701666D01*
X16950097Y38704500D01*
X18429866Y38704500D01*
X18496905Y38684815D01*
X18542660Y38632011D01*
X18552604Y38562853D01*
X18544427Y38533050D01*
X18529789Y38497708D01*
X18505263Y38438498D01*
X18505261Y38438490D01*
X18474500Y38283847D01*
X18474500Y38126154D01*
X18505261Y37971511D01*
X18505264Y37971499D01*
X18565602Y37825828D01*
X18565609Y37825815D01*
X18653210Y37694712D01*
X18653213Y37694708D01*
X18764707Y37583214D01*
X18764711Y37583211D01*
X18895814Y37495610D01*
X18895827Y37495603D01*
X19030303Y37439902D01*
X19041503Y37435263D01*
X19191900Y37405347D01*
X19196153Y37404501D01*
X19196156Y37404500D01*
X19196158Y37404500D01*
X19353844Y37404500D01*
X19353845Y37404501D01*
X19508497Y37435263D01*
X19624701Y37483396D01*
X19654172Y37495603D01*
X19654172Y37495604D01*
X19654179Y37495606D01*
X19785289Y37583211D01*
X19896789Y37694711D01*
X19984394Y37825821D01*
X20044737Y37971503D01*
X20075500Y38126158D01*
X20075500Y38283842D01*
X20075500Y38283845D01*
X20075499Y38283847D01*
X20071490Y38304000D01*
X20044737Y38438497D01*
X20020162Y38497825D01*
X20012694Y38567292D01*
X20043969Y38629772D01*
X20104058Y38665424D01*
X20173883Y38662931D01*
X20182163Y38659843D01*
X20241503Y38635263D01*
X20373691Y38608969D01*
X20396153Y38604501D01*
X20396156Y38604500D01*
X20396158Y38604500D01*
X20553842Y38604500D01*
X20576308Y38608969D01*
X20597292Y38607092D01*
X20618147Y38610090D01*
X20631393Y38604041D01*
X20645898Y38602743D01*
X20662537Y38589818D01*
X20681703Y38581065D01*
X20689576Y38568815D01*
X20701076Y38559881D01*
X20708085Y38540013D01*
X20719477Y38522287D01*
X20723011Y38497708D01*
X20724322Y38493992D01*
X20724500Y38487352D01*
X20724500Y38311613D01*
X20724499Y38311595D01*
X20724499Y38304000D01*
X20724499Y38145886D01*
X20726274Y38139260D01*
X20730500Y38107167D01*
X20730500Y36440998D01*
X20710815Y36373959D01*
X20658011Y36328204D01*
X20630692Y36319381D01*
X20506597Y36294697D01*
X20506587Y36294694D01*
X20360916Y36234356D01*
X20360903Y36234349D01*
X20229800Y36146748D01*
X20229796Y36146745D01*
X20118302Y36035251D01*
X20118299Y36035247D01*
X20030698Y35904144D01*
X20030691Y35904131D01*
X19970352Y35758458D01*
X19968582Y35752621D01*
X19966493Y35753255D01*
X19938635Y35700050D01*
X19896892Y35671628D01*
X19823888Y35641388D01*
X19823881Y35641385D01*
X19692192Y35553392D01*
X19625514Y35532514D01*
X19623301Y35532494D01*
X17978088Y35532494D01*
X17962600Y35536644D01*
X17948855Y35535989D01*
X17916089Y35549107D01*
X17835073Y35595881D01*
X17835072Y35595882D01*
X17835072Y35595881D01*
X17802690Y35614577D01*
X17649962Y35655501D01*
X17491848Y35655501D01*
X17484252Y35655501D01*
X17484236Y35655500D01*
X17404766Y35655500D01*
X17337727Y35675185D01*
X17335875Y35676398D01*
X17204185Y35764391D01*
X17204172Y35764398D01*
X17058501Y35824736D01*
X17058489Y35824739D01*
X16903845Y35855500D01*
X16903842Y35855500D01*
X16746158Y35855500D01*
X16746155Y35855500D01*
X16591510Y35824739D01*
X16591498Y35824736D01*
X16445827Y35764398D01*
X16445814Y35764391D01*
X16314711Y35676790D01*
X16314707Y35676787D01*
X16203213Y35565293D01*
X16203210Y35565289D01*
X16115609Y35434186D01*
X16115604Y35434177D01*
X16065745Y35313804D01*
X16021904Y35259401D01*
X15955610Y35237336D01*
X15887911Y35254615D01*
X15863503Y35273576D01*
X15860292Y35276787D01*
X15860288Y35276790D01*
X15729185Y35364391D01*
X15729172Y35364398D01*
X15583501Y35424736D01*
X15583489Y35424739D01*
X15428845Y35455500D01*
X15428842Y35455500D01*
X15271158Y35455500D01*
X15271155Y35455500D01*
X15116510Y35424739D01*
X15116498Y35424736D01*
X14970827Y35364398D01*
X14970814Y35364391D01*
X14839125Y35276398D01*
X14772447Y35255520D01*
X14770234Y35255500D01*
X13389968Y35255500D01*
X13382360Y35255501D01*
X13382357Y35255501D01*
X13234499Y35255501D01*
X13167460Y35275186D01*
X13121705Y35327990D01*
X13121703Y35328004D01*
X13110500Y35379501D01*
X13110500Y37033847D01*
X13849500Y37033847D01*
X13849500Y36876154D01*
X13880261Y36721511D01*
X13880264Y36721499D01*
X13940602Y36575828D01*
X13940609Y36575815D01*
X14028210Y36444712D01*
X14028213Y36444708D01*
X14139707Y36333214D01*
X14139711Y36333211D01*
X14270814Y36245610D01*
X14270827Y36245603D01*
X14416498Y36185265D01*
X14416503Y36185263D01*
X14571153Y36154501D01*
X14571156Y36154500D01*
X14571158Y36154500D01*
X14728844Y36154500D01*
X14728845Y36154501D01*
X14883497Y36185263D01*
X15029179Y36245606D01*
X15160289Y36333211D01*
X15271789Y36444711D01*
X15359394Y36575821D01*
X15419737Y36721503D01*
X15450500Y36876158D01*
X15450500Y37033842D01*
X15450500Y37033845D01*
X15450499Y37033847D01*
X15427058Y37151693D01*
X15419737Y37188497D01*
X15382752Y37277787D01*
X15359397Y37334173D01*
X15359390Y37334186D01*
X15271789Y37465289D01*
X15271786Y37465293D01*
X15160292Y37576787D01*
X15160288Y37576790D01*
X15029185Y37664391D01*
X15029172Y37664398D01*
X14883501Y37724736D01*
X14883489Y37724739D01*
X14728845Y37755500D01*
X14728842Y37755500D01*
X14571158Y37755500D01*
X14571155Y37755500D01*
X14416510Y37724739D01*
X14416498Y37724736D01*
X14270827Y37664398D01*
X14270814Y37664391D01*
X14139711Y37576790D01*
X14139707Y37576787D01*
X14028213Y37465293D01*
X14028210Y37465289D01*
X13940609Y37334186D01*
X13940602Y37334173D01*
X13880264Y37188502D01*
X13880261Y37188490D01*
X13849500Y37033847D01*
X13110500Y37033847D01*
X13110500Y37439902D01*
X13116761Y37461227D01*
X13118378Y37483396D01*
X13127376Y37497377D01*
X13130185Y37506941D01*
X13135336Y37514350D01*
X13140606Y37521371D01*
X13205520Y37586284D01*
X13255639Y37673096D01*
X13284577Y37723215D01*
X13325501Y37875943D01*
X13325501Y38034057D01*
X13325501Y38041652D01*
X13325500Y38041670D01*
X13325500Y38216603D01*
X13345185Y38283642D01*
X13346398Y38285494D01*
X13418390Y38393238D01*
X13418390Y38393239D01*
X13418394Y38393244D01*
X13421533Y38400821D01*
X13437139Y38438498D01*
X13478737Y38538926D01*
X13509500Y38693581D01*
X13509500Y38851265D01*
X13509500Y38851268D01*
X13509499Y38851270D01*
X13478738Y39005913D01*
X13478737Y39005920D01*
X13428935Y39126154D01*
X13418397Y39151596D01*
X13418390Y39151609D01*
X13330789Y39282712D01*
X13330786Y39282716D01*
X13269575Y39343927D01*
X13236090Y39405250D01*
X13241074Y39474942D01*
X13269575Y39519289D01*
X13302025Y39551739D01*
X13366520Y39616234D01*
X13428756Y39724031D01*
X13445577Y39753165D01*
X13486501Y39905893D01*
X13486501Y40064007D01*
X13486501Y40071602D01*
X13486500Y40071620D01*
X13486500Y47669242D01*
X13506185Y47736281D01*
X13541611Y47772345D01*
X13553068Y47780000D01*
X13595289Y47808211D01*
X13706789Y47919711D01*
X13794394Y48050821D01*
X13854737Y48196503D01*
X13885500Y48351158D01*
X13885500Y48508842D01*
X13885500Y48508845D01*
X13885499Y48508847D01*
X13854738Y48663490D01*
X13854737Y48663497D01*
X13803670Y48786785D01*
X13794397Y48809173D01*
X13794390Y48809186D01*
X13706789Y48940289D01*
X13706786Y48940293D01*
X13598110Y49048969D01*
X13564625Y49110292D01*
X13561935Y49142624D01*
X13562575Y49155902D01*
X13572501Y49192943D01*
X13572501Y49351057D01*
X13572500Y49351061D01*
X13572500Y53718940D01*
X13572501Y53718953D01*
X13572501Y53887056D01*
X13571932Y53889179D01*
X13531577Y54039784D01*
X13519754Y54060263D01*
X13452524Y54176710D01*
X13452518Y54176718D01*
X12834573Y54794663D01*
X12801088Y54855986D01*
X12800637Y54858153D01*
X12776110Y54981457D01*
X12769737Y55013497D01*
X12738856Y55088050D01*
X12731388Y55157516D01*
X12762663Y55219996D01*
X12822752Y55255648D01*
X12853418Y55259500D01*
X24229903Y55259500D01*
X24296942Y55239815D01*
X24317584Y55223181D01*
X24725425Y54815340D01*
X24758910Y54754017D01*
X24759361Y54751851D01*
X24790261Y54596509D01*
X24790264Y54596499D01*
X24850602Y54450828D01*
X24850609Y54450815D01*
X24938210Y54319712D01*
X24938213Y54319708D01*
X25049707Y54208214D01*
X25049711Y54208211D01*
X25180814Y54120610D01*
X25180827Y54120603D01*
X25280060Y54079500D01*
X25326503Y54060263D01*
X25478157Y54030097D01*
X25481153Y54029501D01*
X25481156Y54029500D01*
X25481158Y54029500D01*
X25638843Y54029500D01*
X25640034Y54029737D01*
X25640671Y54029680D01*
X25644907Y54030097D01*
X25644986Y54029295D01*
X25709626Y54023515D01*
X25764807Y53980657D01*
X25788057Y53914769D01*
X25778797Y53860670D01*
X25730263Y53743497D01*
X25730262Y53743494D01*
X25730262Y53743493D01*
X25730261Y53743490D01*
X25699500Y53588847D01*
X25699500Y53431154D01*
X25730261Y53276511D01*
X25730264Y53276499D01*
X25790602Y53130828D01*
X25790609Y53130815D01*
X25878210Y52999712D01*
X25878213Y52999708D01*
X25989707Y52888214D01*
X25989711Y52888211D01*
X26120814Y52800610D01*
X26120827Y52800603D01*
X26194078Y52770262D01*
X26266503Y52740263D01*
X26421153Y52709501D01*
X26421156Y52709500D01*
X26421158Y52709500D01*
X26578844Y52709500D01*
X26578845Y52709501D01*
X26733497Y52740263D01*
X26879179Y52800606D01*
X27010289Y52888211D01*
X27121789Y52999711D01*
X27209394Y53130821D01*
X27269737Y53276503D01*
X27300500Y53431158D01*
X27300500Y53588842D01*
X27300500Y53588845D01*
X27300499Y53588847D01*
X27294532Y53618847D01*
X27269737Y53743497D01*
X27221203Y53860670D01*
X27209397Y53889173D01*
X27209390Y53889186D01*
X27121398Y54020875D01*
X27100520Y54087553D01*
X27100500Y54089766D01*
X27100500Y54940941D01*
X27100501Y54940954D01*
X27100501Y55109055D01*
X27100501Y55109057D01*
X27059577Y55261785D01*
X27059575Y55261788D01*
X27059575Y55261790D01*
X27059574Y55261791D01*
X27024862Y55321912D01*
X27024860Y55321916D01*
X27012396Y55343504D01*
X26995926Y55411402D01*
X27018779Y55477429D01*
X27073701Y55520618D01*
X27119785Y55529500D01*
X27218903Y55529500D01*
X27285942Y55509815D01*
G37*
%TD.AperFunction*%
%TA.AperFunction,Conductor*%
G36*
X29442539Y59459815D02*
G01*
X29488294Y59407011D01*
X29499500Y59355500D01*
X29499500Y55298097D01*
X29479815Y55231058D01*
X29427011Y55185303D01*
X29357853Y55175359D01*
X29294297Y55204384D01*
X29287819Y55210416D01*
X28006590Y56491645D01*
X28006588Y56491648D01*
X27887717Y56610519D01*
X27887716Y56610520D01*
X27799415Y56661500D01*
X27750785Y56689577D01*
X27598057Y56730501D01*
X27439943Y56730501D01*
X27432347Y56730501D01*
X27432331Y56730500D01*
X27029766Y56730500D01*
X26962727Y56750185D01*
X26960875Y56751398D01*
X26829185Y56839391D01*
X26829172Y56839398D01*
X26683501Y56899736D01*
X26683489Y56899739D01*
X26528845Y56930500D01*
X26528842Y56930500D01*
X26371158Y56930500D01*
X26371155Y56930500D01*
X26216510Y56899739D01*
X26216498Y56899736D01*
X26070827Y56839398D01*
X26070814Y56839391D01*
X25939711Y56751790D01*
X25871259Y56683338D01*
X25809935Y56649854D01*
X25740244Y56654839D01*
X25709178Y56671820D01*
X25702129Y56677107D01*
X25637716Y56741520D01*
X25550904Y56791640D01*
X25500785Y56820577D01*
X25348057Y56861501D01*
X25189943Y56861501D01*
X25182347Y56861501D01*
X25182331Y56861500D01*
X23553685Y56861500D01*
X23486646Y56881185D01*
X23440891Y56933989D01*
X23430947Y57003147D01*
X23439122Y57032948D01*
X23444737Y57046503D01*
X23475500Y57201158D01*
X23475500Y57358842D01*
X23475500Y57358845D01*
X23475499Y57358847D01*
X23444737Y57513497D01*
X23416450Y57581789D01*
X23384397Y57659173D01*
X23384390Y57659186D01*
X23296789Y57790289D01*
X23296786Y57790293D01*
X23185292Y57901787D01*
X23185288Y57901790D01*
X23054185Y57989391D01*
X23054172Y57989398D01*
X22908501Y58049736D01*
X22908489Y58049739D01*
X22753845Y58080500D01*
X22753842Y58080500D01*
X22596158Y58080500D01*
X22596155Y58080500D01*
X22441510Y58049739D01*
X22441498Y58049736D01*
X22295827Y57989398D01*
X22295814Y57989391D01*
X22164711Y57901790D01*
X22164707Y57901787D01*
X22053213Y57790293D01*
X22053208Y57790287D01*
X22034587Y57762418D01*
X21980975Y57717614D01*
X21911650Y57708907D01*
X21848622Y57739062D01*
X21828383Y57762420D01*
X21821787Y57772292D01*
X21710292Y57883787D01*
X21710288Y57883790D01*
X21579185Y57971391D01*
X21579172Y57971398D01*
X21433501Y58031736D01*
X21433489Y58031739D01*
X21278845Y58062500D01*
X21278842Y58062500D01*
X21121158Y58062500D01*
X21121155Y58062500D01*
X20966510Y58031739D01*
X20966498Y58031736D01*
X20820827Y57971398D01*
X20820814Y57971391D01*
X20689125Y57883398D01*
X20622447Y57862520D01*
X20620234Y57862500D01*
X11741641Y57862500D01*
X11719119Y57856466D01*
X11719120Y57856465D01*
X11588914Y57821577D01*
X11588909Y57821574D01*
X11451990Y57742525D01*
X11451982Y57742519D01*
X9197481Y55488018D01*
X9197479Y55488015D01*
X9188497Y55472457D01*
X9158561Y55420606D01*
X9118423Y55351085D01*
X9077499Y55198357D01*
X9077499Y55198355D01*
X9077499Y55030254D01*
X9077500Y55030241D01*
X9077500Y54458097D01*
X9057815Y54391058D01*
X9041181Y54370416D01*
X6747584Y52076819D01*
X6686261Y52043334D01*
X6659903Y52040500D01*
X1379766Y52040500D01*
X1312727Y52060185D01*
X1310875Y52061398D01*
X1179185Y52149391D01*
X1179172Y52149398D01*
X1033501Y52209736D01*
X1033489Y52209739D01*
X878845Y52240500D01*
X878842Y52240500D01*
X721158Y52240500D01*
X721155Y52240500D01*
X648691Y52226086D01*
X579100Y52232313D01*
X523922Y52275176D01*
X500678Y52341066D01*
X500500Y52347703D01*
X500500Y53618847D01*
X3859500Y53618847D01*
X3859500Y53461154D01*
X3890261Y53306511D01*
X3890264Y53306499D01*
X3950602Y53160828D01*
X3950609Y53160815D01*
X4038210Y53029712D01*
X4038213Y53029708D01*
X4149707Y52918214D01*
X4149711Y52918211D01*
X4280814Y52830610D01*
X4280827Y52830603D01*
X4398090Y52782032D01*
X4426503Y52770263D01*
X4577312Y52740265D01*
X4581153Y52739501D01*
X4581156Y52739500D01*
X4581158Y52739500D01*
X4738844Y52739500D01*
X4738845Y52739501D01*
X4893497Y52770263D01*
X5039179Y52830606D01*
X5170289Y52918211D01*
X5281789Y53029711D01*
X5369394Y53160821D01*
X5429737Y53306503D01*
X5460500Y53461158D01*
X5460500Y53618842D01*
X5460500Y53618845D01*
X5460499Y53618847D01*
X5440589Y53718940D01*
X5429737Y53773497D01*
X5382700Y53887056D01*
X5369397Y53919173D01*
X5369390Y53919186D01*
X5281789Y54050289D01*
X5281786Y54050293D01*
X5170292Y54161787D01*
X5170288Y54161790D01*
X5039185Y54249391D01*
X5039172Y54249398D01*
X4893501Y54309736D01*
X4893489Y54309739D01*
X4738845Y54340500D01*
X4738842Y54340500D01*
X4581158Y54340500D01*
X4581155Y54340500D01*
X4426510Y54309739D01*
X4426498Y54309736D01*
X4280827Y54249398D01*
X4280814Y54249391D01*
X4149711Y54161790D01*
X4149707Y54161787D01*
X4038213Y54050293D01*
X4038210Y54050289D01*
X3950609Y53919186D01*
X3950602Y53919173D01*
X3890264Y53773502D01*
X3890261Y53773490D01*
X3859500Y53618847D01*
X500500Y53618847D01*
X500500Y54981457D01*
X1359499Y54981457D01*
X1397947Y54788171D01*
X1397950Y54788161D01*
X1473364Y54606093D01*
X1473371Y54606080D01*
X1582860Y54442219D01*
X1582863Y54442215D01*
X1722214Y54302864D01*
X1722218Y54302861D01*
X1886079Y54193372D01*
X1886092Y54193365D01*
X2068160Y54117951D01*
X2068165Y54117949D01*
X2068169Y54117949D01*
X2068170Y54117948D01*
X2261456Y54079500D01*
X2261459Y54079500D01*
X2458543Y54079500D01*
X2588582Y54105368D01*
X2651835Y54117949D01*
X2833914Y54193368D01*
X2997782Y54302861D01*
X3137139Y54442218D01*
X3246632Y54606086D01*
X3322051Y54788165D01*
X3336110Y54858842D01*
X3360500Y54981457D01*
X3360500Y55178544D01*
X3322052Y55371830D01*
X3322051Y55371831D01*
X3322051Y55371835D01*
X3301849Y55420607D01*
X3246635Y55553908D01*
X3246628Y55553921D01*
X3137139Y55717782D01*
X3137136Y55717786D01*
X2997785Y55857137D01*
X2997781Y55857140D01*
X2833920Y55966629D01*
X2833907Y55966636D01*
X2651839Y56042050D01*
X2651829Y56042053D01*
X2458543Y56080500D01*
X2458541Y56080500D01*
X2261459Y56080500D01*
X2261457Y56080500D01*
X2068170Y56042053D01*
X2068160Y56042050D01*
X1886092Y55966636D01*
X1886079Y55966629D01*
X1722218Y55857140D01*
X1722214Y55857137D01*
X1582863Y55717786D01*
X1582860Y55717782D01*
X1473371Y55553921D01*
X1473364Y55553908D01*
X1397950Y55371840D01*
X1397947Y55371830D01*
X1359500Y55178544D01*
X1359500Y55178541D01*
X1359500Y54981459D01*
X1359500Y54981457D01*
X1359499Y54981457D01*
X500500Y54981457D01*
X500500Y57038847D01*
X3689500Y57038847D01*
X3689500Y56881154D01*
X3720261Y56726511D01*
X3720264Y56726499D01*
X3780602Y56580828D01*
X3780609Y56580815D01*
X3868210Y56449712D01*
X3868213Y56449708D01*
X3979707Y56338214D01*
X3979711Y56338211D01*
X4110814Y56250610D01*
X4110827Y56250603D01*
X4256498Y56190265D01*
X4256503Y56190263D01*
X4411153Y56159501D01*
X4411156Y56159500D01*
X4411158Y56159500D01*
X4568844Y56159500D01*
X4568845Y56159501D01*
X4723497Y56190263D01*
X4869179Y56250606D01*
X5000289Y56338211D01*
X5111789Y56449711D01*
X5199394Y56580821D01*
X5259737Y56726503D01*
X5290500Y56881158D01*
X5290500Y57038842D01*
X5290500Y57038845D01*
X5290499Y57038847D01*
X5259738Y57193490D01*
X5259737Y57193497D01*
X5256564Y57201158D01*
X5199397Y57339173D01*
X5199390Y57339186D01*
X5111789Y57470289D01*
X5111786Y57470293D01*
X5000292Y57581787D01*
X5000288Y57581790D01*
X4869185Y57669391D01*
X4869172Y57669398D01*
X4723501Y57729736D01*
X4723489Y57729739D01*
X4568845Y57760500D01*
X4568842Y57760500D01*
X4411158Y57760500D01*
X4411155Y57760500D01*
X4256510Y57729739D01*
X4256498Y57729736D01*
X4110827Y57669398D01*
X4110814Y57669391D01*
X3979711Y57581790D01*
X3979707Y57581787D01*
X3868213Y57470293D01*
X3868210Y57470289D01*
X3780609Y57339186D01*
X3780602Y57339173D01*
X3720264Y57193502D01*
X3720261Y57193490D01*
X3689500Y57038847D01*
X500500Y57038847D01*
X500500Y59355500D01*
X520185Y59422539D01*
X572989Y59468294D01*
X624500Y59479500D01*
X29375500Y59479500D01*
X29442539Y59459815D01*
G37*
%TD.AperFunction*%
%TD*%
%TA.AperFunction,Conductor*%
%TO.N,PD_GND*%
G36*
X13734754Y33164723D02*
G01*
X13801750Y33144893D01*
X13847390Y33091991D01*
X13857184Y33022811D01*
X13835105Y32970550D01*
X13835449Y32970351D01*
X13833856Y32967592D01*
X13832862Y32965239D01*
X13831389Y32963321D01*
X13765493Y32849187D01*
X13731385Y32721891D01*
X13731385Y32590107D01*
X13740939Y32554451D01*
X13765493Y32462812D01*
X13798439Y32405749D01*
X13831385Y32348685D01*
X13924571Y32255499D01*
X14038699Y32189607D01*
X14165993Y32155499D01*
X14165995Y32155499D01*
X14297775Y32155499D01*
X14297777Y32155499D01*
X14425071Y32189607D01*
X14539199Y32255499D01*
X14632385Y32348685D01*
X14698277Y32462813D01*
X14732385Y32590107D01*
X14732385Y32721891D01*
X14698277Y32849185D01*
X14632385Y32963313D01*
X14632383Y32963315D01*
X14628321Y32970351D01*
X14629490Y32971026D01*
X14607366Y33028254D01*
X14621404Y33096699D01*
X14670218Y33146688D01*
X14731200Y33162571D01*
X15781972Y33160301D01*
X15848967Y33140471D01*
X15894607Y33087569D01*
X15904401Y33018389D01*
X15889090Y32974302D01*
X15878104Y32955275D01*
X15843996Y32827979D01*
X15843996Y32696196D01*
X15878104Y32568900D01*
X15901273Y32528771D01*
X15943996Y32454773D01*
X16037182Y32361587D01*
X16113659Y32317433D01*
X16143517Y32300194D01*
X16151310Y32295695D01*
X16278604Y32261587D01*
X16278606Y32261587D01*
X16410386Y32261587D01*
X16410388Y32261587D01*
X16537682Y32295695D01*
X16651810Y32361587D01*
X16744996Y32454773D01*
X16810888Y32568901D01*
X16844996Y32696195D01*
X16844996Y32827979D01*
X16810888Y32955273D01*
X16808291Y32959771D01*
X16801308Y32971867D01*
X16784835Y33039767D01*
X16807687Y33105794D01*
X16862609Y33148985D01*
X16908955Y33157866D01*
X17572504Y33156433D01*
X17639499Y33136603D01*
X17659915Y33120114D01*
X18266181Y32513848D01*
X18299666Y32452525D01*
X18302500Y32426167D01*
X18302500Y32031500D01*
X18282815Y31964461D01*
X18230011Y31918706D01*
X18178500Y31907500D01*
X18131884Y31907500D01*
X18076354Y31892621D01*
X18048589Y31885181D01*
X17973911Y31842066D01*
X17973908Y31842064D01*
X17912936Y31781092D01*
X17912934Y31781089D01*
X17869818Y31706409D01*
X17869816Y31706405D01*
X17869178Y31704022D01*
X17868952Y31703352D01*
X17866979Y31695990D01*
X17866979Y31695989D01*
X17846500Y31619562D01*
X17846500Y31318438D01*
X17866979Y31242011D01*
X17866980Y31242010D01*
X17879405Y31220488D01*
X17906537Y31173493D01*
X17906539Y31173490D01*
X17906540Y31173489D01*
X18190489Y30889540D01*
X18249829Y30855280D01*
X18259008Y30849980D01*
X18259012Y30849978D01*
X18335438Y30829500D01*
X18335440Y30829500D01*
X18814560Y30829500D01*
X18814562Y30829500D01*
X18890989Y30849979D01*
X18959511Y30889540D01*
X19015460Y30945489D01*
X19290460Y31220489D01*
X19330022Y31289012D01*
X19350500Y31365438D01*
X19350500Y31444562D01*
X19350500Y32679167D01*
X19359143Y32708605D01*
X19365666Y32738590D01*
X19369422Y32743608D01*
X19370185Y32746206D01*
X19386816Y32766845D01*
X19400839Y32780869D01*
X19415978Y32792483D01*
X19415562Y32793025D01*
X19422005Y32797970D01*
X19422011Y32797973D01*
X19477960Y32853922D01*
X19739284Y33115247D01*
X19766327Y33130014D01*
X19792282Y33146614D01*
X19798286Y33147465D01*
X19800601Y33148728D01*
X19827222Y33151562D01*
X19946270Y33151305D01*
X20013265Y33131475D01*
X20058905Y33078573D01*
X20070000Y33027305D01*
X20070000Y30579500D01*
X20050315Y30512461D01*
X19997511Y30466706D01*
X19946000Y30455500D01*
X19859108Y30455500D01*
X19731812Y30421392D01*
X19617686Y30355500D01*
X19617683Y30355498D01*
X19524502Y30262317D01*
X19524500Y30262314D01*
X19458608Y30148188D01*
X19424500Y30020892D01*
X19424500Y29889109D01*
X19458608Y29761813D01*
X19462814Y29754529D01*
X19524500Y29647686D01*
X19617686Y29554500D01*
X19716521Y29497437D01*
X19724712Y29492708D01*
X19731814Y29488608D01*
X19859108Y29454500D01*
X19859110Y29454500D01*
X19946000Y29454500D01*
X20013039Y29434815D01*
X20058794Y29382011D01*
X20070000Y29330500D01*
X20070000Y13004000D01*
X20067449Y12995315D01*
X20068738Y12986353D01*
X20057759Y12962313D01*
X20050315Y12936961D01*
X20043474Y12931034D01*
X20039713Y12922797D01*
X20017478Y12908508D01*
X19997511Y12891206D01*
X19986996Y12888919D01*
X19980935Y12885023D01*
X19946000Y12880000D01*
X19759177Y12880000D01*
X19692138Y12899685D01*
X19671496Y12916318D01*
X19650853Y12936961D01*
X19607314Y12980500D01*
X19549969Y13013608D01*
X19493187Y13046392D01*
X19429539Y13063446D01*
X19365892Y13080500D01*
X19234108Y13080500D01*
X19106812Y13046392D01*
X18992686Y12980500D01*
X18928504Y12916318D01*
X18867180Y12882834D01*
X18840823Y12880000D01*
X15432176Y12880000D01*
X15365137Y12899685D01*
X15319382Y12952489D01*
X15309438Y13021647D01*
X15338463Y13085203D01*
X15344495Y13091681D01*
X15425500Y13172686D01*
X15491392Y13286814D01*
X15525500Y13414108D01*
X15525500Y13545892D01*
X15491392Y13673186D01*
X15425500Y13787314D01*
X15361818Y13850996D01*
X15347113Y13877927D01*
X15330523Y13903742D01*
X15329631Y13909945D01*
X15328334Y13912320D01*
X15325500Y13938677D01*
X15325500Y14180500D01*
X15345185Y14247539D01*
X15397989Y14293294D01*
X15449500Y14304500D01*
X15869750Y14304500D01*
X15869751Y14304501D01*
X15884568Y14307448D01*
X15928229Y14316132D01*
X15928229Y14316133D01*
X15928231Y14316133D01*
X15994552Y14360448D01*
X16038867Y14426769D01*
X16038867Y14426771D01*
X16038868Y14426771D01*
X16050499Y14485248D01*
X16050500Y14485250D01*
X16050500Y15224751D01*
X16050499Y15224753D01*
X16038868Y15283230D01*
X16038867Y15283231D01*
X15994552Y15349553D01*
X15928230Y15393868D01*
X15928229Y15393869D01*
X15869752Y15405500D01*
X15869748Y15405500D01*
X15430252Y15405500D01*
X15430249Y15405500D01*
X15359791Y15391485D01*
X15359537Y15392761D01*
X15339811Y15390642D01*
X15307353Y15385974D01*
X15304264Y15386822D01*
X15302977Y15386683D01*
X15300806Y15387770D01*
X15279483Y15393619D01*
X15219751Y15405500D01*
X15219748Y15405500D01*
X14780252Y15405500D01*
X14780249Y15405500D01*
X14709791Y15391485D01*
X14709537Y15392761D01*
X14689811Y15390642D01*
X14657353Y15385974D01*
X14654264Y15386822D01*
X14652977Y15386683D01*
X14650806Y15387770D01*
X14629483Y15393619D01*
X14569751Y15405500D01*
X14569748Y15405500D01*
X14130252Y15405500D01*
X14130247Y15405500D01*
X14071770Y15393869D01*
X14071769Y15393868D01*
X14005447Y15349553D01*
X13961132Y15283231D01*
X13961131Y15283230D01*
X13949500Y15224753D01*
X13949500Y15095539D01*
X13932889Y15033542D01*
X13930202Y15028889D01*
X13930201Y15028888D01*
X13914850Y14971598D01*
X13899500Y14914309D01*
X13899500Y14914307D01*
X13899500Y14383938D01*
X13885383Y14331249D01*
X13886719Y14330696D01*
X13883608Y14323186D01*
X13849500Y14195892D01*
X13849500Y14064109D01*
X13883608Y13936813D01*
X13899121Y13909945D01*
X13949500Y13822686D01*
X14042686Y13729500D01*
X14156814Y13663608D01*
X14284108Y13629500D01*
X14284110Y13629500D01*
X14400500Y13629500D01*
X14467539Y13609815D01*
X14513294Y13557011D01*
X14524500Y13505500D01*
X14524500Y13414109D01*
X14558608Y13286813D01*
X14573102Y13261710D01*
X14624500Y13172686D01*
X14624502Y13172684D01*
X14705505Y13091681D01*
X14738990Y13030358D01*
X14734006Y12960666D01*
X14692134Y12904733D01*
X14626670Y12880316D01*
X14617824Y12880000D01*
X10288146Y12880000D01*
X10221107Y12899685D01*
X10175352Y12952489D01*
X10164146Y13004303D01*
X10183820Y21066832D01*
X10203668Y21133821D01*
X10256584Y21179447D01*
X10307820Y21190527D01*
X10415890Y21190527D01*
X10415892Y21190527D01*
X10543186Y21224635D01*
X10657314Y21290527D01*
X10750500Y21383713D01*
X10816392Y21497841D01*
X10850500Y21625135D01*
X10850500Y21756919D01*
X10816392Y21884213D01*
X10750500Y21998341D01*
X10657314Y22091527D01*
X10589901Y22130448D01*
X10543187Y22157419D01*
X10479539Y22174473D01*
X10415892Y22191527D01*
X10284108Y22191527D01*
X10156812Y22157419D01*
X10042686Y22091527D01*
X10042683Y22091525D01*
X9979005Y22027846D01*
X9917682Y21994361D01*
X9891324Y21991527D01*
X8451106Y21991527D01*
X8384067Y22011212D01*
X8338312Y22064016D01*
X8328368Y22133174D01*
X8357393Y22196730D01*
X8389106Y22222914D01*
X8432012Y22247686D01*
X8443814Y22254500D01*
X8537000Y22347686D01*
X8602892Y22461814D01*
X8637000Y22589108D01*
X8637000Y22720892D01*
X8602892Y22848186D01*
X8537000Y22962314D01*
X8443814Y23055500D01*
X8386750Y23088446D01*
X8329687Y23121392D01*
X8263927Y23139012D01*
X8202392Y23155500D01*
X8070608Y23155500D01*
X7943312Y23121392D01*
X7829186Y23055500D01*
X7829183Y23055498D01*
X7736002Y22962317D01*
X7736000Y22962314D01*
X7670108Y22848188D01*
X7636000Y22720892D01*
X7636000Y22636733D01*
X7616315Y22569694D01*
X7563511Y22523939D01*
X7494353Y22513995D01*
X7430797Y22543020D01*
X7424319Y22549052D01*
X7186319Y22787052D01*
X7152834Y22848375D01*
X7150000Y22874733D01*
X7150000Y23818624D01*
X10099503Y23818624D01*
X10099503Y23686841D01*
X10133611Y23559545D01*
X10166557Y23502482D01*
X10199503Y23445418D01*
X10292689Y23352232D01*
X10406817Y23286340D01*
X10534111Y23252232D01*
X10534113Y23252232D01*
X10665893Y23252232D01*
X10665895Y23252232D01*
X10793189Y23286340D01*
X10907317Y23352232D01*
X11000503Y23445418D01*
X11066395Y23559546D01*
X11100503Y23686840D01*
X11100503Y23818624D01*
X11066395Y23945918D01*
X11066392Y23945923D01*
X11063283Y23953432D01*
X11065189Y23954222D01*
X11051320Y24011407D01*
X11074176Y24077433D01*
X11129100Y24120620D01*
X11175179Y24129500D01*
X11265893Y24129500D01*
X11265895Y24129500D01*
X11393189Y24163608D01*
X11507317Y24229500D01*
X11600503Y24322686D01*
X11666395Y24436814D01*
X11700503Y24564108D01*
X11700503Y24695892D01*
X11666395Y24823186D01*
X11600503Y24937314D01*
X11507317Y25030500D01*
X11420715Y25080500D01*
X11393190Y25096392D01*
X11329542Y25113446D01*
X11265895Y25130500D01*
X11134111Y25130500D01*
X11006815Y25096392D01*
X10892689Y25030500D01*
X10892686Y25030498D01*
X10799505Y24937317D01*
X10799503Y24937314D01*
X10733611Y24823188D01*
X10699503Y24695892D01*
X10699503Y24564109D01*
X10733612Y24436812D01*
X10736723Y24429300D01*
X10734816Y24428511D01*
X10748686Y24371325D01*
X10725830Y24305299D01*
X10670906Y24262112D01*
X10624827Y24253232D01*
X10534111Y24253232D01*
X10406815Y24219124D01*
X10292689Y24153232D01*
X10292686Y24153230D01*
X10199505Y24060049D01*
X10199503Y24060046D01*
X10133611Y23945920D01*
X10099503Y23818624D01*
X7150000Y23818624D01*
X7150000Y25719584D01*
X7169685Y25786623D01*
X7211998Y25826970D01*
X7307314Y25882000D01*
X7400500Y25975186D01*
X7466392Y26089314D01*
X7500500Y26216608D01*
X7500500Y26348392D01*
X7466392Y26475686D01*
X7435504Y26529186D01*
X7419031Y26597086D01*
X7441883Y26663113D01*
X7455199Y26678856D01*
X7539383Y26763039D01*
X7605275Y26877167D01*
X7639383Y27004461D01*
X7639383Y27136245D01*
X7605275Y27263539D01*
X7539383Y27377667D01*
X7446197Y27470853D01*
X7376697Y27510979D01*
X7328481Y27561546D01*
X7315259Y27630153D01*
X7341227Y27695018D01*
X7351006Y27706037D01*
X8068460Y28423489D01*
X8089262Y28459520D01*
X8108021Y28492011D01*
X8128500Y28568438D01*
X8128500Y29238768D01*
X8148185Y29305807D01*
X8164814Y29326444D01*
X8404792Y29566422D01*
X8466111Y29599904D01*
X8492361Y29602737D01*
X9975410Y29603883D01*
X10042459Y29584251D01*
X10088255Y29531483D01*
X10099500Y29479884D01*
X10099500Y29090438D01*
X10105784Y29066987D01*
X10119978Y29014013D01*
X10139754Y28979760D01*
X10159539Y28945491D01*
X10159541Y28945488D01*
X10369392Y28735637D01*
X10402877Y28674314D01*
X10401486Y28615863D01*
X10393702Y28586813D01*
X10375334Y28518261D01*
X10375334Y28386477D01*
X10390587Y28329553D01*
X10409442Y28259182D01*
X10434649Y28215523D01*
X10475334Y28145055D01*
X10475336Y28145053D01*
X10539247Y28081142D01*
X10572732Y28019819D01*
X10567748Y27950127D01*
X10558954Y27931462D01*
X10512064Y27850247D01*
X10477956Y27722950D01*
X10477956Y27591167D01*
X10512064Y27463871D01*
X10527787Y27436639D01*
X10577956Y27349744D01*
X10671142Y27256558D01*
X10785270Y27190666D01*
X10912564Y27156558D01*
X10912566Y27156558D01*
X11044346Y27156558D01*
X11044348Y27156558D01*
X11171642Y27190666D01*
X11285770Y27256558D01*
X11378956Y27349744D01*
X11444848Y27463872D01*
X11478956Y27591166D01*
X11478956Y27722950D01*
X11444848Y27850244D01*
X11378956Y27964372D01*
X11315041Y28028287D01*
X11281556Y28089610D01*
X11286540Y28159302D01*
X11295329Y28177956D01*
X11342226Y28259183D01*
X11376334Y28386477D01*
X11376334Y28518261D01*
X11342226Y28645555D01*
X11276334Y28759683D01*
X11183148Y28852869D01*
X11069020Y28918761D01*
X11056291Y28922172D01*
X11000706Y28954265D01*
X10736819Y29218152D01*
X10703334Y29279475D01*
X10700500Y29305833D01*
X10700500Y31243667D01*
X10709144Y31273108D01*
X10709967Y31276893D01*
X11249399Y31276893D01*
X11249399Y31145110D01*
X11283507Y31017814D01*
X11316453Y30960751D01*
X11349399Y30903687D01*
X11442585Y30810501D01*
X11556713Y30744609D01*
X11684007Y30710501D01*
X11684009Y30710501D01*
X11793166Y30710501D01*
X11860205Y30690816D01*
X11880847Y30674182D01*
X12378540Y30176489D01*
X12434489Y30120540D01*
X12434491Y30120539D01*
X12434495Y30120536D01*
X12503004Y30080983D01*
X12503011Y30080979D01*
X12579438Y30060500D01*
X12658562Y30060500D01*
X13033802Y30060500D01*
X13100841Y30040815D01*
X13146596Y29988011D01*
X13156540Y29918853D01*
X13153580Y29904423D01*
X13124500Y29795892D01*
X13124500Y29664108D01*
X13140637Y29603883D01*
X13158608Y29536813D01*
X13184073Y29492708D01*
X13224500Y29422686D01*
X13317686Y29329500D01*
X13431814Y29263608D01*
X13559108Y29229500D01*
X13559110Y29229500D01*
X13690890Y29229500D01*
X13690892Y29229500D01*
X13787087Y29255275D01*
X13819180Y29259500D01*
X13860033Y29259500D01*
X13927072Y29239815D01*
X13947714Y29223181D01*
X13955446Y29215449D01*
X13974999Y29202384D01*
X14021769Y29171133D01*
X14077307Y29160086D01*
X14139216Y29127702D01*
X14173791Y29066987D01*
X14170052Y28997217D01*
X14160506Y28976475D01*
X14158609Y28973190D01*
X14158609Y28973189D01*
X14158608Y28973187D01*
X14158608Y28973186D01*
X14124500Y28845892D01*
X14124500Y28714108D01*
X14150824Y28615863D01*
X14158609Y28586812D01*
X14158609Y28586811D01*
X14167449Y28571500D01*
X14183922Y28503600D01*
X14161070Y28437573D01*
X14106148Y28394382D01*
X14060062Y28385500D01*
X14020247Y28385500D01*
X13961770Y28373869D01*
X13961769Y28373868D01*
X13895447Y28329553D01*
X13852722Y28265609D01*
X13846630Y28260519D01*
X13843333Y28253297D01*
X13820205Y28238434D01*
X13799110Y28220804D01*
X13789735Y28218853D01*
X13784555Y28215523D01*
X13749620Y28210500D01*
X13560380Y28210500D01*
X13493341Y28230185D01*
X13457278Y28265609D01*
X13414552Y28329553D01*
X13348230Y28373868D01*
X13348229Y28373869D01*
X13289752Y28385500D01*
X13289748Y28385500D01*
X13221636Y28385500D01*
X13154597Y28405185D01*
X13108842Y28457989D01*
X13098898Y28527147D01*
X13114249Y28571500D01*
X13166392Y28661814D01*
X13200500Y28789108D01*
X13200500Y28920892D01*
X13166392Y29048186D01*
X13100500Y29162314D01*
X13007314Y29255500D01*
X12920135Y29305833D01*
X12893187Y29321392D01*
X12822799Y29340252D01*
X12765892Y29355500D01*
X12634108Y29355500D01*
X12506812Y29321392D01*
X12392686Y29255500D01*
X12392683Y29255498D01*
X12299502Y29162317D01*
X12299500Y29162314D01*
X12233608Y29048188D01*
X12199500Y28920892D01*
X12199500Y28789109D01*
X12233608Y28661813D01*
X12242994Y28645557D01*
X12299500Y28547686D01*
X12392686Y28454500D01*
X12478102Y28405185D01*
X12483014Y28402349D01*
X12531230Y28351782D01*
X12544453Y28283175D01*
X12542632Y28270773D01*
X12529500Y28204749D01*
X12529500Y27615248D01*
X12541131Y27556771D01*
X12541132Y27556770D01*
X12585447Y27490448D01*
X12644391Y27451063D01*
X12689196Y27397451D01*
X12699500Y27347961D01*
X12699500Y26092040D01*
X12679815Y26025001D01*
X12644392Y25988939D01*
X12585448Y25949554D01*
X12541132Y25883231D01*
X12541131Y25883230D01*
X12529500Y25824753D01*
X12529500Y25235248D01*
X12541131Y25176771D01*
X12541132Y25176770D01*
X12585447Y25110448D01*
X12651767Y25066134D01*
X12656902Y25064007D01*
X12711307Y25020167D01*
X12733373Y24953873D01*
X12716841Y24887448D01*
X12708609Y24873190D01*
X12708609Y24873189D01*
X12674500Y24745892D01*
X12674500Y24614109D01*
X12708608Y24486813D01*
X12737476Y24436814D01*
X12774500Y24372686D01*
X12867686Y24279500D01*
X12981814Y24213608D01*
X13109108Y24179500D01*
X13109110Y24179500D01*
X13136192Y24179500D01*
X13203231Y24159815D01*
X13248986Y24107011D01*
X13258930Y24037853D01*
X13229905Y23974297D01*
X13198194Y23948114D01*
X13194391Y23945918D01*
X13167686Y23930500D01*
X13167683Y23930498D01*
X13074502Y23837317D01*
X13074500Y23837314D01*
X13008608Y23723188D01*
X12985600Y23637317D01*
X12974500Y23595892D01*
X12974500Y23464108D01*
X12981091Y23439511D01*
X13008608Y23336813D01*
X13033002Y23294562D01*
X13074500Y23222686D01*
X13074502Y23222684D01*
X13120428Y23176758D01*
X13153913Y23115435D01*
X13148929Y23045743D01*
X13107057Y22989810D01*
X13094754Y22981695D01*
X13092686Y22980500D01*
X13092683Y22980498D01*
X12999502Y22887317D01*
X12999500Y22887314D01*
X12933608Y22773188D01*
X12919596Y22720892D01*
X12899500Y22645892D01*
X12899500Y22514108D01*
X12913512Y22461814D01*
X12933608Y22386813D01*
X12956200Y22347684D01*
X12999500Y22272686D01*
X13024500Y22247686D01*
X13117686Y22154500D01*
X13173723Y22122147D01*
X13188513Y22113608D01*
X13188514Y22113607D01*
X13231808Y22088611D01*
X13231809Y22088611D01*
X13231814Y22088608D01*
X13359107Y22054500D01*
X13359108Y22054500D01*
X13359109Y22054500D01*
X14960890Y22054500D01*
X14960892Y22054500D01*
X15002622Y22065682D01*
X15019767Y22070275D01*
X15051859Y22074500D01*
X15787324Y22074500D01*
X15854363Y22054815D01*
X15900118Y22002011D01*
X15910062Y21932853D01*
X15881037Y21869297D01*
X15875005Y21862819D01*
X15799502Y21787317D01*
X15799500Y21787314D01*
X15733608Y21673188D01*
X15699500Y21545892D01*
X15699500Y21505833D01*
X15679815Y21438794D01*
X15663181Y21418152D01*
X15449541Y21204513D01*
X15449535Y21204505D01*
X15409982Y21135996D01*
X15409979Y21135991D01*
X15396326Y21085038D01*
X15394843Y21079500D01*
X15389500Y21059561D01*
X15389500Y21032040D01*
X15369815Y20965001D01*
X15353712Y20944893D01*
X15343075Y20934127D01*
X15341769Y20933867D01*
X15275448Y20889552D01*
X15231133Y20823231D01*
X15230531Y20820208D01*
X15217832Y20807353D01*
X15197205Y20795927D01*
X15179110Y20780804D01*
X15164362Y20777734D01*
X15156713Y20773496D01*
X15147046Y20774129D01*
X15129620Y20770500D01*
X14870380Y20770500D01*
X14803341Y20790185D01*
X14767278Y20825609D01*
X14724552Y20889553D01*
X14658230Y20933868D01*
X14658229Y20933869D01*
X14599752Y20945500D01*
X14599748Y20945500D01*
X14020252Y20945500D01*
X14020247Y20945500D01*
X13961770Y20933869D01*
X13961769Y20933868D01*
X13895447Y20889553D01*
X13852722Y20825609D01*
X13846630Y20820519D01*
X13843333Y20813297D01*
X13820205Y20798434D01*
X13799110Y20780804D01*
X13789735Y20778853D01*
X13784555Y20775523D01*
X13749620Y20770500D01*
X13560380Y20770500D01*
X13493341Y20790185D01*
X13457278Y20825609D01*
X13414552Y20889553D01*
X13348230Y20933868D01*
X13348229Y20933869D01*
X13289752Y20945500D01*
X13289748Y20945500D01*
X12710252Y20945500D01*
X12710247Y20945500D01*
X12651770Y20933869D01*
X12651769Y20933868D01*
X12585447Y20889553D01*
X12541132Y20823231D01*
X12541131Y20823230D01*
X12529500Y20764753D01*
X12529500Y20175248D01*
X12541131Y20116771D01*
X12541132Y20116770D01*
X12585447Y20050448D01*
X12644391Y20011063D01*
X12689196Y19957451D01*
X12699500Y19907961D01*
X12699500Y18652040D01*
X12679815Y18585001D01*
X12644392Y18548939D01*
X12585448Y18509554D01*
X12541132Y18443231D01*
X12541131Y18443230D01*
X12529500Y18384753D01*
X12529500Y17795248D01*
X12541131Y17736771D01*
X12541132Y17736770D01*
X12585447Y17670448D01*
X12651769Y17626133D01*
X12651770Y17626132D01*
X12710247Y17614501D01*
X12710250Y17614500D01*
X12710252Y17614500D01*
X13289750Y17614500D01*
X13289751Y17614501D01*
X13304568Y17617448D01*
X13348229Y17626132D01*
X13348229Y17626133D01*
X13348231Y17626133D01*
X13414552Y17670448D01*
X13457278Y17734392D01*
X13463369Y17739482D01*
X13466667Y17746703D01*
X13489794Y17761567D01*
X13510890Y17779196D01*
X13520264Y17781148D01*
X13525445Y17784477D01*
X13560380Y17789500D01*
X13749620Y17789500D01*
X13816659Y17769815D01*
X13852722Y17734391D01*
X13895447Y17670448D01*
X13961769Y17626133D01*
X13961770Y17626132D01*
X14020247Y17614501D01*
X14020250Y17614500D01*
X14020252Y17614500D01*
X14599750Y17614500D01*
X14599751Y17614501D01*
X14614568Y17617448D01*
X14658229Y17626132D01*
X14658229Y17626133D01*
X14658231Y17626133D01*
X14724552Y17670448D01*
X14767278Y17734392D01*
X14820890Y17779196D01*
X14870380Y17789500D01*
X15129620Y17789500D01*
X15137237Y17787264D01*
X15145075Y17788533D01*
X15170285Y17777560D01*
X15196659Y17769815D01*
X15203489Y17763106D01*
X15209138Y17760647D01*
X15232723Y17734390D01*
X15261843Y17690808D01*
X15282720Y17624130D01*
X15264235Y17556750D01*
X15246424Y17534239D01*
X15227341Y17515155D01*
X15168216Y17482869D01*
X15168288Y17482603D01*
X15167192Y17482310D01*
X15166018Y17481668D01*
X15162529Y17481061D01*
X15084010Y17460022D01*
X15015489Y17420460D01*
X15015486Y17420458D01*
X14759541Y17164513D01*
X14759535Y17164505D01*
X14719982Y17095996D01*
X14719979Y17095991D01*
X14699500Y17019561D01*
X14699500Y16979500D01*
X14679815Y16912461D01*
X14627011Y16866706D01*
X14575500Y16855500D01*
X14130247Y16855500D01*
X14071770Y16843869D01*
X14071769Y16843868D01*
X14005446Y16799552D01*
X13964368Y16738075D01*
X13910755Y16693270D01*
X13841430Y16684564D01*
X13799267Y16699580D01*
X13718188Y16746391D01*
X13718187Y16746392D01*
X13718186Y16746392D01*
X13590892Y16780500D01*
X13459108Y16780500D01*
X13331812Y16746392D01*
X13217686Y16680500D01*
X13217683Y16680498D01*
X13124502Y16587317D01*
X13124500Y16587314D01*
X13058608Y16473188D01*
X13024500Y16345892D01*
X13024500Y16214109D01*
X13058608Y16086813D01*
X13091554Y16029750D01*
X13124500Y15972686D01*
X13217686Y15879500D01*
X13331814Y15813608D01*
X13459108Y15779500D01*
X13459110Y15779500D01*
X13590890Y15779500D01*
X13590892Y15779500D01*
X13718186Y15813608D01*
X13823377Y15874341D01*
X13891275Y15890813D01*
X13957302Y15867961D01*
X13988477Y15835845D01*
X14005446Y15810449D01*
X14071769Y15766133D01*
X14071770Y15766132D01*
X14130247Y15754501D01*
X14130250Y15754500D01*
X14130252Y15754500D01*
X14569750Y15754500D01*
X14569751Y15754501D01*
X14584485Y15757432D01*
X14640210Y15768515D01*
X14640464Y15767238D01*
X14660166Y15769357D01*
X14692647Y15774027D01*
X14694731Y15773076D01*
X14697009Y15773320D01*
X14720899Y15766306D01*
X14780247Y15754501D01*
X14780250Y15754500D01*
X14780252Y15754500D01*
X15219750Y15754500D01*
X15219751Y15754501D01*
X15234485Y15757432D01*
X15290210Y15768515D01*
X15290464Y15767238D01*
X15310166Y15769357D01*
X15342647Y15774027D01*
X15344731Y15773076D01*
X15347009Y15773320D01*
X15370899Y15766306D01*
X15430247Y15754501D01*
X15430250Y15754500D01*
X15430252Y15754500D01*
X15869750Y15754500D01*
X15869751Y15754501D01*
X15884568Y15757448D01*
X15928229Y15766132D01*
X15928229Y15766133D01*
X15928231Y15766133D01*
X15994552Y15810448D01*
X15994553Y15810449D01*
X16002286Y15818181D01*
X16029213Y15832885D01*
X16055032Y15849477D01*
X16061232Y15850369D01*
X16063609Y15851666D01*
X16089967Y15854500D01*
X16199481Y15854500D01*
X16231574Y15850275D01*
X16309108Y15829500D01*
X16309110Y15829500D01*
X16440890Y15829500D01*
X16440892Y15829500D01*
X16568186Y15863608D01*
X16682314Y15929500D01*
X16775500Y16022686D01*
X16841392Y16136814D01*
X16875500Y16264108D01*
X16875500Y16395892D01*
X16841392Y16523186D01*
X16775500Y16637314D01*
X16682314Y16730500D01*
X16595712Y16780500D01*
X16568187Y16796392D01*
X16504539Y16813446D01*
X16440892Y16830500D01*
X16309108Y16830500D01*
X16309106Y16830500D01*
X16204368Y16802436D01*
X16134519Y16804099D01*
X16076656Y16843262D01*
X16049153Y16907491D01*
X16060740Y16976393D01*
X16064893Y16984217D01*
X16066390Y16986811D01*
X16066392Y16986814D01*
X16100500Y17114108D01*
X16100500Y17245892D01*
X16066392Y17373186D01*
X16011236Y17468718D01*
X15994764Y17536616D01*
X16017616Y17602643D01*
X16049734Y17633819D01*
X16104551Y17670447D01*
X16147277Y17734390D01*
X16148867Y17736769D01*
X16148867Y17736771D01*
X16148868Y17736771D01*
X16158911Y17787264D01*
X16160500Y17795252D01*
X16160500Y18384748D01*
X16160500Y18384751D01*
X16160499Y18384753D01*
X16148868Y18443230D01*
X16148867Y18443231D01*
X16104552Y18509553D01*
X16038230Y18553868D01*
X16038229Y18553869D01*
X15979752Y18565500D01*
X15979748Y18565500D01*
X15400252Y18565500D01*
X15400247Y18565500D01*
X15341770Y18553869D01*
X15341769Y18553868D01*
X15275447Y18509553D01*
X15232722Y18445609D01*
X15179110Y18400804D01*
X15129620Y18390500D01*
X14870380Y18390500D01*
X14803341Y18410185D01*
X14767278Y18445609D01*
X14724552Y18509553D01*
X14658230Y18553868D01*
X14658229Y18553869D01*
X14599752Y18565500D01*
X14599748Y18565500D01*
X14020252Y18565500D01*
X14020247Y18565500D01*
X13961770Y18553869D01*
X13961769Y18553868D01*
X13895447Y18509553D01*
X13852722Y18445609D01*
X13846630Y18440519D01*
X13843333Y18433297D01*
X13820205Y18418434D01*
X13799110Y18400804D01*
X13789735Y18398853D01*
X13784555Y18395523D01*
X13749620Y18390500D01*
X13560380Y18390500D01*
X13493341Y18410185D01*
X13457278Y18445609D01*
X13414551Y18509554D01*
X13355608Y18548939D01*
X13310804Y18602551D01*
X13300500Y18652040D01*
X13300500Y19907961D01*
X13320185Y19975000D01*
X13336288Y19995109D01*
X13346921Y20005873D01*
X13348231Y20006133D01*
X13414552Y20050448D01*
X13458867Y20116769D01*
X13459468Y20119794D01*
X13472168Y20132648D01*
X13492796Y20144076D01*
X13510890Y20159196D01*
X13525636Y20162267D01*
X13533287Y20166504D01*
X13542953Y20165872D01*
X13560380Y20169500D01*
X13749620Y20169500D01*
X13816659Y20149815D01*
X13852722Y20114391D01*
X13895447Y20050448D01*
X13961769Y20006133D01*
X13961770Y20006132D01*
X14020247Y19994501D01*
X14020250Y19994500D01*
X14020252Y19994500D01*
X14599750Y19994500D01*
X14599751Y19994501D01*
X14614568Y19997448D01*
X14658229Y20006132D01*
X14658229Y20006133D01*
X14658231Y20006133D01*
X14724552Y20050448D01*
X14767278Y20114392D01*
X14820890Y20159196D01*
X14870380Y20169500D01*
X15129620Y20169500D01*
X15196659Y20149815D01*
X15232722Y20114391D01*
X15275447Y20050448D01*
X15341769Y20006133D01*
X15341770Y20006132D01*
X15400247Y19994501D01*
X15400250Y19994500D01*
X15400252Y19994500D01*
X15979750Y19994500D01*
X15979751Y19994501D01*
X15994568Y19997448D01*
X16038229Y20006132D01*
X16038229Y20006133D01*
X16038231Y20006133D01*
X16104552Y20050448D01*
X16147278Y20114392D01*
X16153369Y20119482D01*
X16156667Y20126703D01*
X16179794Y20141567D01*
X16200890Y20159196D01*
X16210264Y20161148D01*
X16215445Y20164477D01*
X16250380Y20169500D01*
X16439620Y20169500D01*
X16506659Y20149815D01*
X16542722Y20114391D01*
X16585447Y20050448D01*
X16651769Y20006133D01*
X16651770Y20006132D01*
X16710247Y19994501D01*
X16710250Y19994500D01*
X16710252Y19994500D01*
X17289750Y19994500D01*
X17289751Y19994501D01*
X17304568Y19997448D01*
X17348229Y20006132D01*
X17348229Y20006133D01*
X17348231Y20006133D01*
X17414552Y20050448D01*
X17458867Y20116769D01*
X17458867Y20116771D01*
X17458868Y20116771D01*
X17470499Y20175248D01*
X17470500Y20175250D01*
X17470500Y20764751D01*
X17470499Y20764753D01*
X17458868Y20823230D01*
X17458867Y20823231D01*
X17414552Y20889553D01*
X17348230Y20933868D01*
X17348229Y20933869D01*
X17289752Y20945500D01*
X17289748Y20945500D01*
X16710252Y20945500D01*
X16710251Y20945500D01*
X16690567Y20941585D01*
X16620975Y20947814D01*
X16565799Y20990678D01*
X16542556Y21056568D01*
X16558625Y21124565D01*
X16578691Y21150878D01*
X16600500Y21172686D01*
X16666392Y21286814D01*
X16700500Y21414108D01*
X16700500Y21545892D01*
X16666392Y21673186D01*
X16600500Y21787314D01*
X16507314Y21880500D01*
X16450250Y21913446D01*
X16393187Y21946392D01*
X16329539Y21963446D01*
X16265892Y21980500D01*
X16241348Y21980500D01*
X16174309Y22000185D01*
X16128554Y22052989D01*
X16118610Y22122147D01*
X16138247Y22173392D01*
X16153867Y22196769D01*
X16153868Y22196771D01*
X16165499Y22255248D01*
X16165500Y22255250D01*
X16165500Y23395892D01*
X18074500Y23395892D01*
X18074500Y23264108D01*
X18087541Y23215438D01*
X18108608Y23136813D01*
X18120951Y23115435D01*
X18174500Y23022686D01*
X18267686Y22929500D01*
X18381814Y22863608D01*
X18509108Y22829500D01*
X18509110Y22829500D01*
X18640890Y22829500D01*
X18640892Y22829500D01*
X18768186Y22863608D01*
X18882314Y22929500D01*
X18975500Y23022686D01*
X19041392Y23136814D01*
X19075500Y23264108D01*
X19075500Y23395892D01*
X19041392Y23523186D01*
X18975500Y23637314D01*
X18882314Y23730500D01*
X18810935Y23771711D01*
X18768187Y23796392D01*
X18704539Y23813446D01*
X18640892Y23830500D01*
X18509108Y23830500D01*
X18381812Y23796392D01*
X18267686Y23730500D01*
X18267683Y23730498D01*
X18174502Y23637317D01*
X18174500Y23637314D01*
X18108608Y23523188D01*
X18074500Y23395892D01*
X16165500Y23395892D01*
X16165500Y23744751D01*
X16165499Y23744753D01*
X16153868Y23803230D01*
X16153867Y23803231D01*
X16109552Y23869553D01*
X16043230Y23913868D01*
X16043229Y23913869D01*
X15984752Y23925500D01*
X15984748Y23925500D01*
X14695252Y23925500D01*
X14695249Y23925500D01*
X14636768Y23913868D01*
X14631412Y23911649D01*
X14561942Y23904183D01*
X14551775Y23907169D01*
X14484752Y23920500D01*
X14484748Y23920500D01*
X14095252Y23920500D01*
X14095247Y23920500D01*
X14036770Y23908869D01*
X14036769Y23908868D01*
X13981816Y23872149D01*
X13915138Y23851271D01*
X13847758Y23869756D01*
X13825244Y23887570D01*
X13782316Y23930498D01*
X13782314Y23930500D01*
X13706456Y23974297D01*
X13668187Y23996392D01*
X13604539Y24013446D01*
X13540892Y24030500D01*
X13513808Y24030500D01*
X13446769Y24050185D01*
X13401014Y24102989D01*
X13391070Y24172147D01*
X13420095Y24235703D01*
X13451807Y24261887D01*
X13452197Y24262112D01*
X13482314Y24279500D01*
X13575500Y24372686D01*
X13641392Y24486814D01*
X13675500Y24614108D01*
X13675500Y24745892D01*
X13641392Y24873186D01*
X13575500Y24987314D01*
X13544995Y25017819D01*
X13534382Y25037256D01*
X13519882Y25053989D01*
X13517965Y25067321D01*
X13511510Y25079142D01*
X13513089Y25101229D01*
X13509938Y25123147D01*
X13515533Y25135399D01*
X13516494Y25148834D01*
X13529764Y25166561D01*
X13538963Y25186703D01*
X13550294Y25193986D01*
X13558366Y25204767D01*
X13579111Y25212505D01*
X13597741Y25224477D01*
X13619659Y25227629D01*
X13623830Y25229184D01*
X13632676Y25229500D01*
X13749620Y25229500D01*
X13816659Y25209815D01*
X13852722Y25174391D01*
X13895447Y25110448D01*
X13961769Y25066133D01*
X13961770Y25066132D01*
X14020247Y25054501D01*
X14020250Y25054500D01*
X14020252Y25054500D01*
X14599750Y25054500D01*
X14599751Y25054501D01*
X14614568Y25057448D01*
X14658229Y25066132D01*
X14658229Y25066133D01*
X14658231Y25066133D01*
X14724552Y25110448D01*
X14767278Y25174392D01*
X14820890Y25219196D01*
X14870380Y25229500D01*
X15129620Y25229500D01*
X15196659Y25209815D01*
X15232722Y25174391D01*
X15275447Y25110448D01*
X15341769Y25066133D01*
X15341770Y25066132D01*
X15400247Y25054501D01*
X15400250Y25054500D01*
X15400252Y25054500D01*
X15979750Y25054500D01*
X15979751Y25054501D01*
X15994568Y25057448D01*
X16038229Y25066132D01*
X16038229Y25066133D01*
X16038231Y25066133D01*
X16104552Y25110448D01*
X16148867Y25176769D01*
X16148867Y25176771D01*
X16148868Y25176771D01*
X16160499Y25235248D01*
X16160500Y25235250D01*
X16160500Y25824751D01*
X16160499Y25824753D01*
X16148868Y25883230D01*
X16148867Y25883231D01*
X16104552Y25949553D01*
X16038230Y25993868D01*
X16038229Y25993869D01*
X15979752Y26005500D01*
X15979748Y26005500D01*
X15400252Y26005500D01*
X15400247Y26005500D01*
X15341770Y25993869D01*
X15341769Y25993868D01*
X15275447Y25949553D01*
X15232722Y25885609D01*
X15179110Y25840804D01*
X15129620Y25830500D01*
X14870380Y25830500D01*
X14803341Y25850185D01*
X14767278Y25885609D01*
X14724552Y25949553D01*
X14658230Y25993868D01*
X14658229Y25993869D01*
X14599752Y26005500D01*
X14599748Y26005500D01*
X14020252Y26005500D01*
X14020247Y26005500D01*
X13961770Y25993869D01*
X13961769Y25993868D01*
X13895447Y25949553D01*
X13852722Y25885609D01*
X13846630Y25880519D01*
X13843333Y25873297D01*
X13820205Y25858434D01*
X13799110Y25840804D01*
X13789735Y25838853D01*
X13784555Y25835523D01*
X13749620Y25830500D01*
X13560380Y25830500D01*
X13493341Y25850185D01*
X13457278Y25885609D01*
X13414551Y25949554D01*
X13355608Y25988939D01*
X13310804Y26042551D01*
X13300500Y26092040D01*
X13300500Y27347961D01*
X13320185Y27415000D01*
X13336288Y27435109D01*
X13346921Y27445873D01*
X13348231Y27446133D01*
X13414552Y27490448D01*
X13458867Y27556769D01*
X13459468Y27559794D01*
X13472168Y27572648D01*
X13492796Y27584076D01*
X13510890Y27599196D01*
X13525636Y27602267D01*
X13533287Y27606504D01*
X13542953Y27605872D01*
X13560380Y27609500D01*
X13749620Y27609500D01*
X13816659Y27589815D01*
X13852722Y27554391D01*
X13895447Y27490448D01*
X13961769Y27446133D01*
X13961770Y27446132D01*
X14020247Y27434501D01*
X14020250Y27434500D01*
X14020252Y27434500D01*
X14599750Y27434500D01*
X14599751Y27434501D01*
X14614568Y27437448D01*
X14658229Y27446132D01*
X14658229Y27446133D01*
X14658231Y27446133D01*
X14724552Y27490448D01*
X14767278Y27554392D01*
X14820890Y27599196D01*
X14870380Y27609500D01*
X15129620Y27609500D01*
X15196659Y27589815D01*
X15232722Y27554391D01*
X15275447Y27490448D01*
X15341769Y27446133D01*
X15341770Y27446132D01*
X15400247Y27434501D01*
X15400250Y27434500D01*
X15400252Y27434500D01*
X15979750Y27434500D01*
X15979751Y27434501D01*
X15994568Y27437448D01*
X16038229Y27446132D01*
X16038229Y27446133D01*
X16038231Y27446133D01*
X16104552Y27490448D01*
X16147278Y27554392D01*
X16153369Y27559482D01*
X16156667Y27566703D01*
X16179794Y27581567D01*
X16200890Y27599196D01*
X16210264Y27601148D01*
X16215445Y27604477D01*
X16250380Y27609500D01*
X16439620Y27609500D01*
X16506659Y27589815D01*
X16542722Y27554391D01*
X16585447Y27490449D01*
X16645741Y27450161D01*
X16690545Y27396548D01*
X16693634Y27388740D01*
X16699500Y27372305D01*
X16699500Y27365438D01*
X16719979Y27289011D01*
X16738580Y27256793D01*
X16752920Y27231956D01*
X16754337Y27229500D01*
X16759540Y27220489D01*
X16909540Y27070489D01*
X16965489Y27014540D01*
X16965491Y27014539D01*
X16965495Y27014536D01*
X16982946Y27004461D01*
X17034011Y26974979D01*
X17110438Y26954500D01*
X17189562Y26954500D01*
X17566324Y26954500D01*
X17633363Y26934815D01*
X17654005Y26918181D01*
X17717686Y26854500D01*
X17831814Y26788608D01*
X17959108Y26754500D01*
X17959110Y26754500D01*
X18090890Y26754500D01*
X18090892Y26754500D01*
X18218186Y26788608D01*
X18332314Y26854500D01*
X18425500Y26947686D01*
X18491392Y27061814D01*
X18519221Y27165678D01*
X18555586Y27225337D01*
X18618433Y27255866D01*
X18687808Y27247571D01*
X18714486Y27231956D01*
X18717680Y27229506D01*
X18717686Y27229500D01*
X18831814Y27163608D01*
X18959108Y27129500D01*
X18959110Y27129500D01*
X19090890Y27129500D01*
X19090892Y27129500D01*
X19218186Y27163608D01*
X19332314Y27229500D01*
X19425500Y27322686D01*
X19491392Y27436814D01*
X19525500Y27564108D01*
X19525500Y27695892D01*
X19491392Y27823186D01*
X19425500Y27937314D01*
X19332314Y28030500D01*
X19244600Y28081142D01*
X19218187Y28096392D01*
X19154539Y28113446D01*
X19090892Y28130500D01*
X18959108Y28130500D01*
X18831812Y28096392D01*
X18717686Y28030500D01*
X18717683Y28030498D01*
X18624502Y27937317D01*
X18624500Y27937314D01*
X18558608Y27823188D01*
X18530778Y27719324D01*
X18494412Y27659663D01*
X18431565Y27629135D01*
X18362190Y27637430D01*
X18335515Y27653044D01*
X18332318Y27655497D01*
X18332315Y27655499D01*
X18332314Y27655500D01*
X18262353Y27695892D01*
X18218187Y27721392D01*
X18154539Y27738446D01*
X18090892Y27755500D01*
X17959108Y27755500D01*
X17831812Y27721392D01*
X17717686Y27655500D01*
X17717683Y27655498D01*
X17682181Y27619995D01*
X17620858Y27586510D01*
X17551166Y27591494D01*
X17495233Y27633366D01*
X17470816Y27698830D01*
X17470500Y27707676D01*
X17470500Y28204751D01*
X17470499Y28204753D01*
X17458868Y28263230D01*
X17458867Y28263231D01*
X17414552Y28329553D01*
X17348230Y28373868D01*
X17348229Y28373869D01*
X17289752Y28385500D01*
X17289748Y28385500D01*
X16710252Y28385500D01*
X16710247Y28385500D01*
X16651770Y28373869D01*
X16651769Y28373868D01*
X16585447Y28329553D01*
X16542722Y28265609D01*
X16536630Y28260519D01*
X16533333Y28253297D01*
X16510205Y28238434D01*
X16489110Y28220804D01*
X16479735Y28218853D01*
X16474555Y28215523D01*
X16439620Y28210500D01*
X16250380Y28210500D01*
X16183341Y28230185D01*
X16147278Y28265609D01*
X16104552Y28329553D01*
X16038230Y28373868D01*
X16038229Y28373869D01*
X15979752Y28385500D01*
X15979748Y28385500D01*
X15400252Y28385500D01*
X15400247Y28385500D01*
X15341770Y28373869D01*
X15341769Y28373868D01*
X15275447Y28329553D01*
X15232722Y28265609D01*
X15226630Y28260519D01*
X15223333Y28253297D01*
X15200205Y28238434D01*
X15179110Y28220804D01*
X15169735Y28218853D01*
X15164555Y28215523D01*
X15129620Y28210500D01*
X15062676Y28210500D01*
X14995637Y28230185D01*
X14949882Y28282989D01*
X14939938Y28352147D01*
X14968963Y28415703D01*
X14974995Y28422181D01*
X14990387Y28437573D01*
X15025500Y28472686D01*
X15091392Y28586814D01*
X15125500Y28714108D01*
X15125500Y28845892D01*
X15091392Y28973186D01*
X15091389Y28973192D01*
X15089498Y28976468D01*
X15088741Y28979586D01*
X15088280Y28980700D01*
X15088453Y28980772D01*
X15083075Y29002942D01*
X15073295Y29028376D01*
X15074956Y29036403D01*
X15073024Y29044368D01*
X15081935Y29070116D01*
X15087458Y29096795D01*
X15093195Y29102649D01*
X15095876Y29110395D01*
X15117294Y29127240D01*
X15136363Y29146696D01*
X15147038Y29150631D01*
X15150796Y29153586D01*
X15169305Y29159363D01*
X15170978Y29159745D01*
X15228231Y29171133D01*
X15232031Y29173673D01*
X15247421Y29177183D01*
X15272263Y29175659D01*
X15297009Y29178320D01*
X15315012Y29173034D01*
X15317160Y29172902D01*
X15318295Y29172070D01*
X15320899Y29171306D01*
X15380247Y29159501D01*
X15380250Y29159500D01*
X15380252Y29159500D01*
X15819750Y29159500D01*
X15819751Y29159501D01*
X15834568Y29162448D01*
X15878229Y29171132D01*
X15878229Y29171133D01*
X15878231Y29171133D01*
X15944552Y29215448D01*
X15988867Y29281769D01*
X15988867Y29281770D01*
X15990179Y29283733D01*
X16043791Y29328538D01*
X16113116Y29337245D01*
X16155276Y29322232D01*
X16256814Y29263608D01*
X16384108Y29229500D01*
X16384110Y29229500D01*
X16515890Y29229500D01*
X16515892Y29229500D01*
X16643186Y29263608D01*
X16757314Y29329500D01*
X16850500Y29422686D01*
X16916392Y29536814D01*
X16950500Y29664108D01*
X16950500Y29795892D01*
X16916392Y29923186D01*
X16895658Y29959099D01*
X17861293Y29959099D01*
X17861293Y29827316D01*
X17895401Y29700020D01*
X17897781Y29695898D01*
X17961293Y29585893D01*
X18054479Y29492707D01*
X18168607Y29426815D01*
X18295901Y29392707D01*
X18295903Y29392707D01*
X18427683Y29392707D01*
X18427685Y29392707D01*
X18554979Y29426815D01*
X18669107Y29492707D01*
X18762293Y29585893D01*
X18828185Y29700021D01*
X18862293Y29827315D01*
X18862293Y29959099D01*
X18828185Y30086393D01*
X18762293Y30200521D01*
X18669107Y30293707D01*
X18612043Y30326653D01*
X18554980Y30359599D01*
X18491332Y30376653D01*
X18427685Y30393707D01*
X18295901Y30393707D01*
X18168605Y30359599D01*
X18054479Y30293707D01*
X18054476Y30293705D01*
X17961295Y30200524D01*
X17961293Y30200521D01*
X17895401Y30086395D01*
X17861293Y29959099D01*
X16895658Y29959099D01*
X16850500Y30037314D01*
X16757314Y30130500D01*
X16677659Y30176489D01*
X16643185Y30196393D01*
X16593852Y30209612D01*
X16579966Y30217629D01*
X16566520Y30220554D01*
X16538266Y30241705D01*
X16525349Y30254622D01*
X16491864Y30315945D01*
X16496848Y30385637D01*
X16538720Y30441570D01*
X16580934Y30462077D01*
X16679951Y30488608D01*
X16794079Y30554500D01*
X16887265Y30647686D01*
X16953157Y30761814D01*
X16987265Y30889108D01*
X16987265Y31020892D01*
X16953157Y31148186D01*
X16887265Y31262314D01*
X16794079Y31355500D01*
X16679951Y31421392D01*
X16555988Y31454608D01*
X16500402Y31486701D01*
X16466616Y31520487D01*
X16466614Y31520489D01*
X16397646Y31560308D01*
X16363888Y31579799D01*
X16351780Y31583043D01*
X16339673Y31586287D01*
X16339670Y31586288D01*
X16301478Y31596522D01*
X16249309Y31610500D01*
X16249308Y31610500D01*
X16039967Y31610500D01*
X15972928Y31630185D01*
X15952286Y31646819D01*
X15944553Y31654552D01*
X15878230Y31698868D01*
X15878229Y31698869D01*
X15819752Y31710500D01*
X15819748Y31710500D01*
X15380252Y31710500D01*
X15380249Y31710500D01*
X15309791Y31696485D01*
X15309537Y31697761D01*
X15252977Y31691683D01*
X15229089Y31698697D01*
X15169751Y31710500D01*
X15169748Y31710500D01*
X14730252Y31710500D01*
X14730249Y31710500D01*
X14659791Y31696485D01*
X14659537Y31697761D01*
X14602977Y31691683D01*
X14579089Y31698697D01*
X14519751Y31710500D01*
X14519748Y31710500D01*
X14080252Y31710500D01*
X14080247Y31710500D01*
X14021770Y31698869D01*
X14021769Y31698868D01*
X13955447Y31654553D01*
X13911132Y31588231D01*
X13911132Y31588230D01*
X13905578Y31560308D01*
X13873193Y31498397D01*
X13812477Y31463823D01*
X13803165Y31461996D01*
X13793622Y31460500D01*
X13780017Y31460500D01*
X13760832Y31455360D01*
X13754314Y31454338D01*
X13733458Y31457067D01*
X13703017Y31457067D01*
X13686474Y31461500D01*
X13686471Y31461500D01*
X13554687Y31461500D01*
X13427391Y31427392D01*
X13313265Y31361500D01*
X13313262Y31361498D01*
X13220081Y31268317D01*
X13220079Y31268314D01*
X13154187Y31154188D01*
X13120079Y31026892D01*
X13120079Y30895108D01*
X13140849Y30817593D01*
X13140253Y30792599D01*
X13143812Y30767853D01*
X13139436Y30758273D01*
X13139186Y30747743D01*
X13125173Y30727040D01*
X13114787Y30704297D01*
X13105925Y30698603D01*
X13100023Y30689881D01*
X13077042Y30680040D01*
X13056009Y30666523D01*
X13040153Y30664244D01*
X13035795Y30662377D01*
X13021074Y30661500D01*
X12794833Y30661500D01*
X12727794Y30681185D01*
X12707152Y30697819D01*
X12286718Y31118253D01*
X12253233Y31179576D01*
X12250399Y31205934D01*
X12250399Y31276891D01*
X12250399Y31276893D01*
X12216291Y31404187D01*
X12150399Y31518315D01*
X12057213Y31611501D01*
X11982645Y31654553D01*
X11943086Y31677393D01*
X11867070Y31697761D01*
X11815791Y31711501D01*
X11684007Y31711501D01*
X11556711Y31677393D01*
X11442585Y31611501D01*
X11442582Y31611499D01*
X11349401Y31518318D01*
X11349399Y31518315D01*
X11283507Y31404189D01*
X11249399Y31276893D01*
X10709967Y31276893D01*
X10715668Y31303094D01*
X10719422Y31308110D01*
X10720185Y31310706D01*
X10736819Y31331348D01*
X10778172Y31372701D01*
X11073088Y31667617D01*
X11382025Y31976554D01*
X11410956Y32026665D01*
X11421586Y32045076D01*
X11442065Y32121503D01*
X11442065Y32317433D01*
X11450709Y32346874D01*
X11457233Y32376860D01*
X11460987Y32381876D01*
X11461750Y32384472D01*
X11478380Y32405110D01*
X11627721Y32554452D01*
X11689044Y32587936D01*
X11758736Y32582952D01*
X11814669Y32541080D01*
X11822789Y32528771D01*
X11862915Y32459271D01*
X11956101Y32366085D01*
X12070229Y32300193D01*
X12197523Y32266085D01*
X12197525Y32266085D01*
X12329305Y32266085D01*
X12329307Y32266085D01*
X12456601Y32300193D01*
X12570729Y32366085D01*
X12663915Y32459271D01*
X12729807Y32573399D01*
X12763915Y32700693D01*
X12763915Y32832477D01*
X12729807Y32959771D01*
X12727762Y32963313D01*
X12717731Y32980688D01*
X12701258Y33048588D01*
X12724110Y33114615D01*
X12779031Y33157805D01*
X12825381Y33166688D01*
X13734754Y33164723D01*
G37*
%TD.AperFunction*%
%TD*%
M02*
