%TF.GenerationSoftware,KiCad,Pcbnew,9.0.5*%
%TF.CreationDate,2025-11-23T16:16:19+01:00*%
%TF.ProjectId,horsesense,686f7273-6573-4656-9e73-652e6b696361,1.0*%
%TF.SameCoordinates,Original*%
%TF.FileFunction,Copper,L4,Bot*%
%TF.FilePolarity,Positive*%
%FSLAX46Y46*%
G04 Gerber Fmt 4.6, Leading zero omitted, Abs format (unit mm)*
G04 Created by KiCad (PCBNEW 9.0.5) date 2025-11-23 16:16:19*
%MOMM*%
%LPD*%
G01*
G04 APERTURE LIST*
%TA.AperFunction,HeatsinkPad*%
%ADD10C,0.600000*%
%TD*%
%TA.AperFunction,ComponentPad*%
%ADD11R,1.000000X1.000000*%
%TD*%
%TA.AperFunction,ComponentPad*%
%ADD12C,1.000000*%
%TD*%
%TA.AperFunction,HeatsinkPad*%
%ADD13C,0.500000*%
%TD*%
%TA.AperFunction,HeatsinkPad*%
%ADD14R,2.700000X2.700000*%
%TD*%
%TA.AperFunction,HeatsinkPad*%
%ADD15O,2.100000X1.000000*%
%TD*%
%TA.AperFunction,HeatsinkPad*%
%ADD16O,1.800000X1.000000*%
%TD*%
%TA.AperFunction,SMDPad,CuDef*%
%ADD17R,0.540000X0.550000*%
%TD*%
%TA.AperFunction,SMDPad,CuDef*%
%ADD18C,1.000000*%
%TD*%
%TA.AperFunction,SMDPad,CuDef*%
%ADD19R,2.200000X2.200000*%
%TD*%
%TA.AperFunction,SMDPad,CuDef*%
%ADD20R,1.250000X2.200000*%
%TD*%
%TA.AperFunction,ViaPad*%
%ADD21C,0.600000*%
%TD*%
%TA.AperFunction,Conductor*%
%ADD22C,0.500000*%
%TD*%
%TA.AperFunction,Conductor*%
%ADD23C,0.200000*%
%TD*%
%TA.AperFunction,Conductor*%
%ADD24C,0.600000*%
%TD*%
%TA.AperFunction,Conductor*%
%ADD25C,0.140000*%
%TD*%
G04 APERTURE END LIST*
D10*
%TO.P,U9,41,GND*%
%TO.N,GND*%
X16550000Y51570000D03*
X16550000Y50170000D03*
X17250000Y52270000D03*
X17250000Y50870000D03*
X17250000Y49470000D03*
X17950000Y51570000D03*
X17950000Y50170000D03*
X18650000Y52270000D03*
X18650000Y50870000D03*
X18650000Y49470000D03*
X19350000Y51570000D03*
X19350000Y50170000D03*
%TD*%
D11*
%TO.P,J4,1,Pin_1*%
%TO.N,+3.3V*%
X1940000Y30695000D03*
D12*
%TO.P,J4,2,Pin_2*%
%TO.N,Net-(J4-Pin_2)*%
X1940000Y31965000D03*
%TO.P,J4,3,Pin_3*%
%TO.N,Net-(J4-Pin_3)*%
X1940000Y33235000D03*
%TO.P,J4,4,Pin_4*%
%TO.N,GND*%
X1940000Y34505000D03*
%TD*%
D13*
%TO.P,U3,25,GND*%
%TO.N,GND*%
X13440000Y4177500D03*
X14540000Y4177500D03*
X15640000Y4177500D03*
X13440000Y5277500D03*
X14540000Y5277500D03*
D14*
X14540000Y5277500D03*
D13*
X15640000Y5277500D03*
X13440000Y6377500D03*
X14540000Y6377500D03*
X15640000Y6377500D03*
%TD*%
D15*
%TO.P,J1,S1,SHIELD*%
%TO.N,GND*%
X6795000Y45450000D03*
D16*
X2615000Y45450000D03*
D15*
X6795000Y36810000D03*
D16*
X2615000Y36810000D03*
%TD*%
D17*
%TO.P,D6,1*%
%TO.N,Net-(U1-PD1_IN)*%
X13000000Y27910000D03*
%TO.P,D6,2*%
X14310000Y27910000D03*
%TO.P,D6,3*%
X15690000Y27910000D03*
%TO.P,D6,4*%
X17000000Y27910000D03*
%TO.P,D6,5*%
%TO.N,PD_GND*%
X17000000Y25530000D03*
%TO.P,D6,6*%
%TO.N,Net-(U1-PD1_IN)*%
X15690000Y25530000D03*
%TO.P,D6,7*%
X14310000Y25530000D03*
%TO.P,D6,8*%
X13000000Y25530000D03*
%TD*%
D18*
%TO.P,TP4,1,1*%
%TO.N,unconnected-(TP4-Pad1)*%
X2360000Y55080000D03*
%TD*%
D19*
%TO.P,D2,1,A*%
%TO.N,+3.3V_LED*%
X15900000Y22980000D03*
D20*
%TO.P,D2,2,K*%
%TO.N,Net-(D2-K)*%
X13625000Y22980000D03*
%TD*%
D19*
%TO.P,D1,1,A*%
%TO.N,+3.3V_LED*%
X15900000Y30450000D03*
D20*
%TO.P,D1,2,K*%
%TO.N,Net-(D1-K)*%
X13625000Y30450000D03*
%TD*%
D17*
%TO.P,D4,1*%
%TO.N,Net-(U1-PD2_IN)*%
X13000000Y20470000D03*
%TO.P,D4,2*%
X14310000Y20470000D03*
%TO.P,D4,3*%
X15690000Y20470000D03*
%TO.P,D4,4*%
X17000000Y20470000D03*
%TO.P,D4,5*%
%TO.N,PD_GND*%
X17000000Y18090000D03*
%TO.P,D4,6*%
%TO.N,Net-(U1-PD2_IN)*%
X15690000Y18090000D03*
%TO.P,D4,7*%
X14310000Y18090000D03*
%TO.P,D4,8*%
X13000000Y18090000D03*
%TD*%
D18*
%TO.P,TP3,1,1*%
%TO.N,unconnected-(TP3-Pad1)*%
X25440000Y3270000D03*
%TD*%
D19*
%TO.P,D3,1,A*%
%TO.N,+3.3V_LED*%
X15900000Y15580000D03*
D20*
%TO.P,D3,2,K*%
%TO.N,Net-(D3-K)*%
X13625000Y15580000D03*
%TD*%
D21*
%TO.N,+3.3V*%
X20580000Y19100000D03*
X4490000Y56960000D03*
X27597000Y14000000D03*
X11530000Y11740000D03*
X20680000Y25290000D03*
X20740000Y22190000D03*
X3930000Y27290000D03*
X7260000Y34010000D03*
X9330000Y30440000D03*
X1570000Y10880000D03*
X4660000Y53540000D03*
X13930000Y38936513D03*
%TO.N,GND*%
X11362000Y30970000D03*
X6140000Y22660000D03*
X11810000Y38770000D03*
X20320000Y6930000D03*
X9960000Y1481000D03*
X18170000Y31150000D03*
X26070000Y14140000D03*
X5070000Y1481000D03*
X12390000Y58630000D03*
X19160000Y39130000D03*
X26900000Y58690000D03*
X4390000Y50550000D03*
X24208000Y28615000D03*
X1800000Y12380000D03*
X20730000Y37970000D03*
X4740000Y12270000D03*
X8270000Y32980000D03*
X18930000Y14740000D03*
X11360000Y10360000D03*
X18620000Y9000000D03*
X1570000Y27290000D03*
X1750000Y24080000D03*
X5365152Y29236194D03*
X17360000Y1181000D03*
X2980000Y21850000D03*
X3840000Y7170000D03*
X5243804Y21490288D03*
X21740000Y18880000D03*
X4430000Y58860000D03*
X11840000Y36760000D03*
X22450000Y23130000D03*
X6390000Y24970000D03*
X27490000Y36300000D03*
X4410000Y34860000D03*
X8100000Y54290000D03*
X11361999Y31828649D03*
X2440000Y1940000D03*
X26290000Y31090000D03*
X22932735Y24252735D03*
X12280000Y7700000D03*
X22470000Y21190000D03*
%TO.N,+1.8V*%
X13940000Y36760000D03*
X14920000Y35110000D03*
X22180000Y36780000D03*
%TO.N,VBUS*%
X12790000Y780000D03*
X8300000Y38730000D03*
X8450000Y43530000D03*
%TO.N,+BATT*%
X23150000Y8110000D03*
X16570000Y8990000D03*
%TO.N,Net-(U3-REGN)*%
X8100000Y2510000D03*
X19990000Y780000D03*
%TO.N,Vsys*%
X12420000Y9120000D03*
X5290000Y3750000D03*
X7160000Y6160000D03*
X29200000Y30950000D03*
%TO.N,Net-(IC1-PON)*%
X2110000Y21090000D03*
X4560815Y22090288D03*
%TO.N,SDA*%
X4420000Y32420000D03*
X17279527Y2689686D03*
X12290000Y49700000D03*
X7030000Y26370000D03*
%TO.N,SCL*%
X11113955Y33430649D03*
X13085000Y48430000D03*
X8300000Y27060000D03*
X16346615Y2694517D03*
%TO.N,Net-(U9-IO0)*%
X800000Y51440000D03*
X22230000Y57262000D03*
%TO.N,MAX_MOSI_1_8*%
X19246611Y37949490D03*
X16761405Y36792178D03*
%TO.N,MAX_SCLK_1_8*%
X15532987Y35658976D03*
X19503765Y37191946D03*
%TO.N,MAX_MISO_1_8*%
X19017074Y36513000D03*
X16090000Y36357185D03*
%TO.N,INT_BAT*%
X26553257Y10909000D03*
X26450000Y56130000D03*
%TO.N,CE_BAT*%
X17450000Y5020000D03*
X13690000Y43070000D03*
%TO.N,PSEL_BAT*%
X12530000Y2440000D03*
X12000000Y54780000D03*
%TO.N,ICM_FSYNC*%
X9530918Y33995347D03*
X12180000Y53530000D03*
%TO.N,GPS_TX*%
X13680000Y45890000D03*
X20529994Y14760000D03*
%TO.N,ICM_INT2*%
X8754971Y33786499D03*
X11970000Y51050000D03*
%TO.N,GPS_RST*%
X25440000Y48430000D03*
X23006000Y26492891D03*
%TO.N,ICM_INT*%
X9340784Y52283250D03*
X9326149Y40961899D03*
%TO.N,GPS_PP1*%
X26220000Y50970000D03*
X22130000Y14760000D03*
%TO.N,FLASH_SCLK*%
X24100000Y15550000D03*
X21060001Y44191515D03*
%TO.N,GPS_SEL*%
X10700000Y10961000D03*
X26670000Y47160000D03*
%TO.N,Net-(J4-Pin_3)*%
X26500000Y53510000D03*
%TO.N,GPS_RX*%
X21329997Y14760000D03*
X13610000Y47130000D03*
%TO.N,ICM_AD0*%
X26440000Y57310000D03*
X9710000Y40260000D03*
%TO.N,Net-(J4-Pin_2)*%
X25560000Y54830000D03*
%TO.N,GPS_FIX*%
X22988219Y14754528D03*
X25634915Y39294915D03*
%TO.N,Net-(U1-PD2_IN)*%
X12410000Y21470000D03*
%TO.N,Net-(D2-K)*%
X16141169Y34041961D03*
X10858819Y29703246D03*
X12270000Y22980000D03*
%TO.N,Net-(D1-K)*%
X15780000Y32050002D03*
%TO.N,Net-(D3-K)*%
X15747856Y34888368D03*
%TO.N,Net-(U1-PD1_IN)*%
X17670000Y29040000D03*
%TO.N,PD_GND*%
X17630000Y13940000D03*
X17110000Y26780000D03*
%TO.N,FLASH_SID0*%
X21215735Y42325735D03*
X23140000Y15540000D03*
%TO.N,FLASH_SID3*%
X25070000Y15520000D03*
X21560000Y45540000D03*
%TO.N,FLASH_CS*%
X27597000Y27070000D03*
X23954316Y43236477D03*
%TO.N,FLASH_SID1*%
X24535933Y42687182D03*
X26796997Y27070000D03*
%TO.N,FLASH_SID2*%
X25996994Y27070000D03*
X25110000Y42130000D03*
%TO.N,+3.3V_LED*%
X16380000Y13070000D03*
X16120000Y17190000D03*
X16617628Y35129999D03*
X15580000Y21370000D03*
X16390000Y28730000D03*
%TD*%
D22*
%TO.N,VBUS*%
X7490917Y35611000D02*
X1561000Y35611000D01*
X12741000Y731000D02*
X2319000Y731000D01*
X12790000Y780000D02*
X12741000Y731000D01*
X8300000Y38730000D02*
X8300000Y36420083D01*
X2319000Y731000D02*
X820000Y2230000D01*
X8450000Y43530000D02*
X8300000Y43380000D01*
X1561000Y35611000D02*
X820000Y34870000D01*
X8300000Y36420083D02*
X7490917Y35611000D01*
X820000Y2230000D02*
X820000Y34870000D01*
X8300000Y43380000D02*
X8300000Y38730000D01*
D23*
%TO.N,Net-(U3-REGN)*%
X8100000Y2510000D02*
X8530000Y2940000D01*
X13310000Y1400000D02*
X14129000Y581000D01*
X11174900Y1968000D02*
X11742900Y1400000D01*
X19791000Y581000D02*
X19990000Y780000D01*
X14129000Y581000D02*
X19791000Y581000D01*
X8530000Y2940000D02*
X10195800Y2940000D01*
X11742900Y1400000D02*
X13310000Y1400000D01*
X11167800Y1968000D02*
X11174900Y1968000D01*
X10195800Y2940000D02*
X11167800Y1968000D01*
D24*
%TO.N,Vsys*%
X13409000Y10109000D02*
X12400000Y9100000D01*
X28658000Y10109000D02*
X13409000Y10109000D01*
X29200000Y30950000D02*
X29199000Y30949000D01*
X29199000Y30949000D02*
X29199000Y10650000D01*
X29199000Y10650000D02*
X28658000Y10109000D01*
D23*
%TO.N,Net-(IC1-PON)*%
X4560815Y21260815D02*
X4390000Y21090000D01*
X4560815Y22090288D02*
X4560815Y21260815D01*
X4390000Y21090000D02*
X2110000Y21090000D01*
%TO.N,SDA*%
X9038000Y4664900D02*
X9038000Y4672000D01*
X5930000Y30910000D02*
X7280000Y30910000D01*
X12518000Y39910900D02*
X12519000Y39911900D01*
X7299000Y26639000D02*
X7299000Y30913486D01*
X10131918Y33746404D02*
X10131918Y34181918D01*
X7280000Y30910000D02*
X8280000Y31910000D01*
X12084000Y42248343D02*
X12084000Y49451043D01*
X17279527Y2689686D02*
X16429841Y1840000D01*
X11341000Y2369000D02*
X11333900Y2369000D01*
X7800000Y31414486D02*
X7800000Y31430000D01*
X12519000Y41813343D02*
X12084000Y42248343D01*
X12519000Y39911900D02*
X12519000Y41813343D01*
X16429841Y1840000D02*
X11870000Y1840000D01*
X8130000Y5580000D02*
X8130000Y6670000D01*
X9038000Y4672000D02*
X8130000Y5580000D01*
X7299000Y30913486D02*
X7800000Y31414486D01*
X12084000Y49451043D02*
X12290000Y49657043D01*
X11333900Y2369000D02*
X9038000Y4664900D01*
X12518000Y36568000D02*
X12518000Y39910900D01*
X8760000Y32390000D02*
X8775514Y32390000D01*
X7030000Y26370000D02*
X7299000Y26639000D01*
X7030000Y7770000D02*
X7030000Y26370000D01*
X8775514Y32390000D02*
X10131918Y33746404D01*
X12290000Y49657043D02*
X12290000Y49700000D01*
X11870000Y1840000D02*
X11341000Y2369000D01*
X10131918Y34181918D02*
X12518000Y36568000D01*
X7800000Y31430000D02*
X8280000Y31910000D01*
X4420000Y32420000D02*
X5930000Y30910000D01*
X8130000Y6670000D02*
X7030000Y7770000D01*
X8280000Y31910000D02*
X8760000Y32390000D01*
%TO.N,SCL*%
X13321000Y39579700D02*
X13321000Y42145543D01*
X13276000Y48430000D02*
X13085000Y48430000D01*
X13320000Y36235800D02*
X13320000Y39578700D01*
X10933918Y33430649D02*
X11113955Y33430649D01*
X13321000Y42145543D02*
X12886000Y42580543D01*
X12886000Y48040000D02*
X13276000Y48430000D01*
X7832000Y25754957D02*
X8300000Y26222957D01*
X8932000Y7002200D02*
X7832000Y8102200D01*
X8300000Y26222957D02*
X8300000Y27060000D01*
X8300000Y30780286D02*
X10933918Y33414204D01*
X12886000Y42580543D02*
X12886000Y48040000D01*
X8300000Y27060000D02*
X8300000Y30780286D01*
X11812900Y3060000D02*
X8932000Y5940900D01*
X13589000Y2241000D02*
X12770000Y3060000D01*
X8932000Y5940900D02*
X8932000Y7002200D01*
X12770000Y3060000D02*
X11812900Y3060000D01*
X11113955Y34029755D02*
X13320000Y36235800D01*
X10933918Y33414204D02*
X10933918Y33430649D01*
X16346615Y2694517D02*
X15893098Y2241000D01*
X11113955Y33430649D02*
X11113955Y34029755D01*
X7832000Y8102200D02*
X7832000Y25754957D01*
X15893098Y2241000D02*
X13589000Y2241000D01*
X13320000Y39578700D02*
X13321000Y39579700D01*
%TO.N,Net-(U9-IO0)*%
X22230000Y57262000D02*
X21582000Y57262000D01*
X21582000Y57262000D02*
X21383000Y57063000D01*
X6960000Y51440000D02*
X800000Y51440000D01*
X21383000Y57063000D02*
X11621700Y57063000D01*
X9678000Y54158000D02*
X6960000Y51440000D01*
X11621700Y57063000D02*
X9678000Y55119300D01*
X9678000Y55119300D02*
X9678000Y54158000D01*
D25*
%TO.N,MAX_MOSI_1_8*%
X19253590Y35942000D02*
X20074765Y36763175D01*
X16761405Y36792178D02*
X17611583Y35942000D01*
X20074765Y37428462D02*
X19553737Y37949490D01*
X19553737Y37949490D02*
X19246611Y37949490D01*
X20074765Y36763175D02*
X20074765Y37428462D01*
X17611583Y35942000D02*
X19253590Y35942000D01*
%TO.N,MAX_SCLK_1_8*%
X15520000Y37050000D02*
X15520000Y35671963D01*
X16250000Y37780000D02*
X15520000Y37050000D01*
X19491819Y37180000D02*
X19210000Y37180000D01*
X15520000Y35671963D02*
X15532987Y35658976D01*
X19503765Y37191946D02*
X19491819Y37180000D01*
X18610000Y37780000D02*
X16250000Y37780000D01*
X19210000Y37180000D02*
X18610000Y37780000D01*
%TO.N,MAX_MISO_1_8*%
X19017074Y36513000D02*
X19017074Y36872926D01*
X16090000Y37137754D02*
X16090000Y36357185D01*
X16392246Y37440000D02*
X16090000Y37137754D01*
X18450000Y37440000D02*
X16392246Y37440000D01*
X19017074Y36872926D02*
X18450000Y37440000D01*
D23*
%TO.N,INT_BAT*%
X28390000Y10710000D02*
X28598000Y10918000D01*
X29399000Y39900000D02*
X29399000Y46130000D01*
X27519000Y56130000D02*
X26450000Y56130000D01*
X28598000Y25010000D02*
X28598000Y29130000D01*
X28598000Y10918000D02*
X28598000Y11800000D01*
X29399000Y31998942D02*
X29399000Y32190000D01*
X28598000Y29130000D02*
X28598000Y31197942D01*
X28250000Y10710000D02*
X28390000Y10710000D01*
X26553257Y10909000D02*
X26752257Y10710000D01*
X28598000Y11800000D02*
X28598000Y25010000D01*
X26752257Y10710000D02*
X28250000Y10710000D01*
X29399000Y54250000D02*
X27519000Y56130000D01*
X29399000Y37410000D02*
X29399000Y39900000D01*
X29399000Y46130000D02*
X29399000Y54250000D01*
X29399000Y32190000D02*
X29399000Y37410000D01*
X28598000Y31197942D02*
X29399000Y31998942D01*
%TO.N,CE_BAT*%
X9578943Y29839000D02*
X9931000Y30191057D01*
X11362898Y32829649D02*
X11714955Y33181706D01*
X14541000Y36821000D02*
X14570000Y36850000D01*
X13356814Y35636814D02*
X13879000Y36159000D01*
X14541000Y36511057D02*
X14541000Y36821000D01*
X17450000Y3840000D02*
X16905517Y3295517D01*
X8233000Y25460000D02*
X8920000Y26147000D01*
X8920000Y27400000D02*
X8701000Y27619000D01*
X14570000Y36850000D02*
X14570000Y39510000D01*
X8920000Y26147000D02*
X8920000Y27400000D01*
X9931000Y30221000D02*
X10361000Y30651000D01*
X13755100Y2642000D02*
X12936100Y3461000D01*
X8701000Y28991000D02*
X9549000Y29839000D01*
X8701000Y27619000D02*
X8701000Y28991000D01*
X17450000Y5020000D02*
X17450000Y3840000D01*
X13879000Y36159000D02*
X14188943Y36159000D01*
X13690000Y42912000D02*
X13690000Y43070000D01*
X15462000Y2642000D02*
X13755100Y2642000D01*
X10361000Y32274186D02*
X10916463Y32829649D01*
X12936100Y3461000D02*
X11979000Y3461000D01*
X16097672Y3295517D02*
X15745615Y2943460D01*
X9333000Y6107000D02*
X9333000Y7168300D01*
X13721000Y42881000D02*
X13690000Y42912000D01*
X16905517Y3295517D02*
X16097672Y3295517D01*
X10916463Y32829649D02*
X11362898Y32829649D01*
X13722000Y40358000D02*
X13722000Y42311643D01*
X8233000Y8268300D02*
X8233000Y25460000D01*
X10361000Y30651000D02*
X10361000Y32274186D01*
X15745615Y2925615D02*
X15462000Y2642000D01*
X9931000Y30191057D02*
X9931000Y30221000D01*
X13288114Y35636814D02*
X13356814Y35636814D01*
X13722000Y42311643D02*
X13721000Y42312643D01*
X15745615Y2943460D02*
X15745615Y2925615D01*
X11714955Y33181706D02*
X11714955Y34063655D01*
X9549000Y29839000D02*
X9578943Y29839000D01*
X11714955Y34063655D02*
X13288114Y35636814D01*
X9333000Y7168300D02*
X8233000Y8268300D01*
X14188943Y36159000D02*
X14541000Y36511057D01*
X14570000Y39510000D02*
X13722000Y40358000D01*
X13721000Y42312643D02*
X13721000Y42881000D01*
X11979000Y3461000D02*
X9333000Y6107000D01*
%TO.N,PSEL_BAT*%
X10532918Y34015818D02*
X12919000Y36401900D01*
X7431000Y25921057D02*
X7631000Y26121057D01*
X12920000Y39745800D02*
X12920000Y41979443D01*
X12485000Y48785000D02*
X12972000Y49272000D01*
X12530000Y2440000D02*
X11837100Y2440000D01*
X8531000Y5774800D02*
X8531000Y6836100D01*
X7700000Y26210000D02*
X7700000Y30747386D01*
X12485000Y42414443D02*
X12485000Y48785000D01*
X12972000Y49272000D02*
X12972000Y53808000D01*
X12919000Y39744800D02*
X12920000Y39745800D01*
X12920000Y41979443D02*
X12485000Y42414443D01*
X7431000Y7936100D02*
X7431000Y25921057D01*
X9453350Y4852450D02*
X8531000Y5774800D01*
X11507100Y2770000D02*
X11500000Y2770000D01*
X10532918Y33580304D02*
X10532918Y34015818D01*
X12919000Y36401900D02*
X12919000Y39744800D01*
X7700000Y30747386D02*
X10532918Y33580304D01*
X7631000Y26121057D02*
X7631000Y26141000D01*
X9439000Y4831000D02*
X9439000Y4838100D01*
X8531000Y6836100D02*
X7431000Y7936100D01*
X12972000Y53808000D02*
X12000000Y54780000D01*
X7631000Y26141000D02*
X7700000Y26210000D01*
X9439000Y4838100D02*
X9453350Y4852450D01*
X11837100Y2440000D02*
X11507100Y2770000D01*
X11500000Y2770000D02*
X9439000Y4831000D01*
%TO.N,ICM_FSYNC*%
X11180000Y35925858D02*
X11180000Y39140000D01*
X12118000Y40078000D02*
X12118000Y41647243D01*
X9530918Y34276776D02*
X11180000Y35925858D01*
X12070943Y50301000D02*
X12571000Y50801057D01*
X11683000Y49913057D02*
X11689000Y49919057D01*
X12041057Y50301000D02*
X12070943Y50301000D01*
X9530918Y33995347D02*
X9530918Y34276776D01*
X12571000Y53022470D02*
X12180000Y53413470D01*
X11180000Y39140000D02*
X12118000Y40078000D01*
X11689000Y49919057D02*
X11689000Y49948943D01*
X12180000Y53413470D02*
X12180000Y53530000D01*
X11689000Y49948943D02*
X12041057Y50301000D01*
X12571000Y50801057D02*
X12571000Y53022470D01*
X11683000Y42082243D02*
X11683000Y49913057D01*
X12118000Y41647243D02*
X11683000Y42082243D01*
%TO.N,GPS_TX*%
X23964000Y24070000D02*
X22004000Y26030000D01*
X20529994Y14760000D02*
X20529994Y14914138D01*
X22890000Y35680000D02*
X22890000Y37768800D01*
X22004000Y26030000D02*
X22004000Y34794000D01*
X22890000Y37768800D02*
X19246000Y41412800D01*
X23964000Y18348144D02*
X23964000Y24070000D01*
X20529994Y14914138D02*
X23964000Y18348144D01*
X18253900Y46729000D02*
X14519000Y46729000D01*
X14519000Y46729000D02*
X13680000Y45890000D01*
X19246000Y41412800D02*
X19246000Y45736900D01*
X19246000Y45736900D02*
X18253900Y46729000D01*
X22004000Y34794000D02*
X22890000Y35680000D01*
%TO.N,ICM_INT2*%
X8754971Y34067929D02*
X10779000Y36091958D01*
X11282000Y41916143D02*
X11282000Y50362000D01*
X10779000Y39306100D02*
X11717000Y40244100D01*
X8754971Y33786499D02*
X8754971Y34067929D01*
X11717000Y40244100D02*
X11717000Y41481143D01*
X10779000Y36091958D02*
X10779000Y39306100D01*
X11717000Y41481143D02*
X11282000Y41916143D01*
X11282000Y50362000D02*
X11970000Y51050000D01*
%TO.N,GPS_RST*%
X22806000Y34461800D02*
X23692000Y35347800D01*
X22806000Y26692891D02*
X22806000Y34461800D01*
X20048000Y46145042D02*
X20627929Y46724972D01*
X23006000Y26492891D02*
X22806000Y26692891D01*
X25440000Y47467100D02*
X25440000Y48430000D01*
X23692000Y35347800D02*
X23692000Y38120900D01*
X24697872Y46724972D02*
X25440000Y47467100D01*
X20048000Y41764900D02*
X20048000Y46145042D01*
X20627929Y46724972D02*
X24697872Y46724972D01*
X23692000Y38120900D02*
X20048000Y41764900D01*
%TO.N,ICM_INT*%
X9360000Y52264034D02*
X9340784Y52283250D01*
X9184034Y52264034D02*
X9360000Y52264034D01*
X9678000Y51770068D02*
X9184034Y52264034D01*
X9678000Y41313750D02*
X9678000Y51770068D01*
X9326149Y40961899D02*
X9678000Y41313750D01*
%TO.N,GPS_PP1*%
X20449000Y45812972D02*
X20960000Y46323972D01*
X24863972Y46323972D02*
X26090000Y47550000D01*
X24766000Y24421100D02*
X23607000Y25580100D01*
X23607000Y27010000D02*
X23207000Y27410000D01*
X22130000Y14760000D02*
X22130000Y15379944D01*
X23207000Y27410000D02*
X23207000Y34295700D01*
X24093000Y38287000D02*
X23025000Y39355000D01*
X24766000Y18015944D02*
X24766000Y24421100D01*
X20449000Y41931000D02*
X20449000Y45812972D01*
X26090000Y47550000D02*
X26090000Y50840000D01*
X26090000Y50840000D02*
X26220000Y50970000D01*
X24093000Y35181700D02*
X24093000Y38287000D01*
X24093000Y38287000D02*
X20449000Y41931000D01*
X23207000Y34295700D02*
X24093000Y35181700D01*
X20960000Y46323972D02*
X24863972Y46323972D01*
X22130000Y15379944D02*
X24766000Y18015944D01*
X23607000Y25580100D02*
X23607000Y27010000D01*
%TO.N,FLASH_SCLK*%
X24900000Y28304200D02*
X24578000Y27982200D01*
X24009000Y33963500D02*
X24009000Y29841000D01*
X21816735Y42574678D02*
X21816735Y42573265D01*
X24578000Y27982200D02*
X24578000Y25743300D01*
X24009000Y29841000D02*
X24900000Y28950000D01*
X24900000Y28950000D02*
X24900000Y28304200D01*
X24578000Y25743300D02*
X25568000Y24753300D01*
X21464678Y42926735D02*
X21816735Y42574678D01*
X21816735Y42573265D02*
X21970000Y42420000D01*
X25568000Y24753300D02*
X25568000Y17018000D01*
X21463265Y42926735D02*
X21464678Y42926735D01*
X24895000Y34849500D02*
X24009000Y33963500D01*
X25568000Y17018000D02*
X24100000Y15550000D01*
X21050000Y43340000D02*
X21463265Y42926735D01*
X21970000Y42420000D02*
X21970000Y41544200D01*
X21060001Y44191515D02*
X21050000Y44181514D01*
X24895000Y38619200D02*
X24895000Y34849500D01*
X21970000Y41544200D02*
X24895000Y38619200D01*
X21050000Y44181514D02*
X21050000Y43340000D01*
%TO.N,GPS_SEL*%
X28197000Y31364042D02*
X28197000Y11997000D01*
X28998000Y45580000D02*
X28998000Y32165042D01*
X28998000Y32165042D02*
X28197000Y31364042D01*
X27418000Y47160000D02*
X28998000Y45580000D01*
X25755314Y10961000D02*
X10700000Y10961000D01*
X26670000Y47160000D02*
X27418000Y47160000D01*
X26384314Y11590000D02*
X25755314Y10961000D01*
X27790000Y11590000D02*
X26384314Y11590000D01*
X28197000Y11997000D02*
X27790000Y11590000D01*
%TO.N,Net-(J4-Pin_3)*%
X10480000Y54787100D02*
X11953900Y56261000D01*
X10915000Y40576300D02*
X10915000Y41148943D01*
X3195000Y33235000D02*
X3637450Y33677450D01*
X1940000Y33235000D02*
X3195000Y33235000D01*
X9977000Y39638300D02*
X10915000Y40576300D01*
X10915000Y41148943D02*
X10480000Y41583943D01*
X26500000Y55030000D02*
X26500000Y53510000D01*
X25269000Y56261000D02*
X26500000Y55030000D01*
X9977000Y36424158D02*
X9977000Y39638300D01*
X11953900Y56261000D02*
X25269000Y56261000D01*
X3637450Y33677450D02*
X5537450Y33677450D01*
X8462842Y34910000D02*
X9977000Y36424158D01*
X5537450Y33677450D02*
X6770000Y34910000D01*
X6770000Y34910000D02*
X8462842Y34910000D01*
X10480000Y41583943D02*
X10480000Y54787100D01*
%TO.N,GPS_RX*%
X19647000Y41578900D02*
X19647000Y45903000D01*
X22405000Y26215000D02*
X22405000Y34627900D01*
X22405000Y34627900D02*
X23291000Y35513900D01*
X24365000Y24255000D02*
X22405000Y26215000D01*
X21329997Y14760000D02*
X21329997Y15147041D01*
X19647000Y45903000D02*
X18420000Y47130000D01*
X23291000Y35513900D02*
X23291000Y37934900D01*
X24365000Y18182044D02*
X24365000Y24255000D01*
X18420000Y47130000D02*
X13610000Y47130000D01*
X23291000Y37934900D02*
X19647000Y41578900D01*
X21329997Y15147041D02*
X24365000Y18182044D01*
%TO.N,ICM_AD0*%
X9710000Y40260000D02*
X10079000Y40629000D01*
X11787800Y56662000D02*
X25812000Y56662000D01*
X26440000Y57290000D02*
X26440000Y57310000D01*
X10079000Y40629000D02*
X10079000Y54953200D01*
X25812000Y56662000D02*
X26440000Y57290000D01*
X10079000Y54953200D02*
X11787800Y56662000D01*
%TO.N,Net-(J4-Pin_2)*%
X24530000Y55860000D02*
X25560000Y54830000D01*
X10881000Y41750043D02*
X10881000Y54621000D01*
X2774000Y32834000D02*
X3361100Y32834000D01*
X7396392Y33276450D02*
X10378000Y36258058D01*
X11316000Y41315043D02*
X10881000Y41750043D01*
X1940000Y31965000D02*
X1940000Y32000000D01*
X12120000Y55860000D02*
X24530000Y55860000D01*
X11316000Y40410200D02*
X11316000Y41315043D01*
X3803550Y33276450D02*
X7396392Y33276450D01*
X10378000Y36258058D02*
X10378000Y39472200D01*
X3361100Y32834000D02*
X3803550Y33276450D01*
X10881000Y54621000D02*
X12120000Y55860000D01*
X1940000Y32000000D02*
X2774000Y32834000D01*
X10378000Y39472200D02*
X11316000Y40410200D01*
%TO.N,GPS_FIX*%
X25697000Y34517300D02*
X25697000Y38951400D01*
X25702000Y29282200D02*
X24811000Y30173200D01*
X25697000Y38951400D02*
X25494200Y39154200D01*
X24811000Y30173200D02*
X24811000Y33631300D01*
X26370000Y15970057D02*
X26370000Y25820000D01*
X24811000Y33631300D02*
X25697000Y34517300D01*
X23152691Y14919000D02*
X25318943Y14919000D01*
X26370000Y25820000D02*
X25380000Y26810000D01*
X25318943Y14919000D02*
X26370000Y15970057D01*
X25702000Y27972000D02*
X25702000Y29282200D01*
X22988219Y14754528D02*
X23152691Y14919000D01*
X25380000Y27650000D02*
X25702000Y27972000D01*
X25380000Y26810000D02*
X25380000Y27650000D01*
X25494200Y39154200D02*
X25634915Y39294915D01*
%TO.N,Net-(U1-PD2_IN)*%
X15690000Y20470000D02*
X14310000Y20470000D01*
X15690000Y18090000D02*
X14310000Y18090000D01*
X12410000Y21470000D02*
X13000000Y20880000D01*
X13000000Y20880000D02*
X13000000Y20470000D01*
X17000000Y20470000D02*
X15690000Y20470000D01*
X14310000Y20470000D02*
X13000000Y20470000D01*
X13000000Y20470000D02*
X13000000Y18090000D01*
X14310000Y18090000D02*
X13000000Y18090000D01*
D25*
%TO.N,Net-(D2-K)*%
X16063961Y34041961D02*
X16141169Y34041961D01*
X11174682Y30019109D02*
X11209109Y30019109D01*
X12270000Y22980000D02*
X12290000Y22960000D01*
X16011000Y33989000D02*
X16063961Y34041961D01*
X12732074Y33989000D02*
X16011000Y33989000D01*
X12290000Y22960000D02*
X13483473Y22960000D01*
X12486955Y32861932D02*
X12486955Y33743881D01*
X10858819Y29703246D02*
X11174682Y30019109D01*
X11589000Y30399000D02*
X11598516Y30399000D01*
X11209109Y30019109D02*
X11589000Y30399000D01*
X11933000Y32307977D02*
X12486955Y32861932D01*
X11598516Y30399000D02*
X11933000Y30733484D01*
X11933000Y30733484D02*
X11933000Y32307977D01*
X12486955Y33743881D02*
X12732074Y33989000D01*
X13483473Y22960000D02*
X13503473Y22980000D01*
%TO.N,Net-(D1-K)*%
X14100000Y31670000D02*
X14100000Y30450000D01*
X15780000Y32050002D02*
X14480002Y32050002D01*
X14480002Y32050002D02*
X14100000Y31670000D01*
D23*
%TO.N,Net-(D3-K)*%
X10540000Y15580000D02*
X14100000Y15580000D01*
X15219488Y34360000D02*
X12578400Y34360000D01*
X11082563Y32428649D02*
X10762000Y32108086D01*
X12578400Y34360000D02*
X12115955Y33897555D01*
X11528998Y32428649D02*
X11082563Y32428649D01*
X12115955Y33015606D02*
X11528998Y32428649D01*
X15747856Y34888368D02*
X15219488Y34360000D01*
X10762000Y32108086D02*
X10762000Y30454957D01*
X10090000Y29782957D02*
X10090000Y16030000D01*
X12115955Y33897555D02*
X12115955Y33015606D01*
X10762000Y30454957D02*
X10090000Y29782957D01*
X10090000Y16030000D02*
X10540000Y15580000D01*
D25*
%TO.N,Net-(U1-PD1_IN)*%
X17670000Y29040000D02*
X17030000Y28400000D01*
D23*
X14310000Y25530000D02*
X13000000Y25530000D01*
X13000000Y27910000D02*
X13000000Y25530000D01*
X15690000Y27910000D02*
X14310000Y27910000D01*
D25*
X17030000Y27940000D02*
X17000000Y27910000D01*
X17030000Y28400000D02*
X17030000Y27940000D01*
D23*
X17000000Y27910000D02*
X15690000Y27910000D01*
X15690000Y25530000D02*
X14310000Y25530000D01*
X14310000Y27910000D02*
X13000000Y27910000D01*
%TO.N,FLASH_SID0*%
X23608000Y27576100D02*
X23608000Y34129600D01*
X24177000Y25577200D02*
X24177000Y27007100D01*
X25167000Y17567000D02*
X25167000Y24587200D01*
X24177000Y27007100D02*
X23608000Y27576100D01*
X23608000Y34129600D02*
X24494000Y35015600D01*
X24494000Y38453100D02*
X23733550Y39213550D01*
X24494000Y35015600D02*
X24494000Y38453100D01*
X24494000Y38453100D02*
X21190735Y41756365D01*
X21190735Y42300735D02*
X21215735Y42325735D01*
X23140000Y15540000D02*
X25167000Y17567000D01*
X25167000Y24587200D02*
X24177000Y25577200D01*
X21190735Y41756365D02*
X21190735Y42300735D01*
%TO.N,FLASH_SID3*%
X21560000Y45540000D02*
X21660000Y45440000D01*
X25033915Y39045972D02*
X25296000Y38783887D01*
X22371000Y42586100D02*
X22371000Y41710300D01*
X25301000Y28138100D02*
X24979000Y27816100D01*
X21651000Y43551057D02*
X21650000Y43550057D01*
X25969000Y16419000D02*
X25070000Y15520000D01*
X25301000Y29116100D02*
X25301000Y28138100D01*
X24410000Y33797400D02*
X24410000Y30007100D01*
X24410000Y30007100D02*
X25301000Y29116100D01*
X25296000Y34683400D02*
X24410000Y33797400D01*
X21660000Y43810000D02*
X21651000Y43801000D01*
X25969000Y25653900D02*
X25969000Y16419000D01*
X21650000Y43550057D02*
X21650000Y43308513D01*
X24979000Y27816100D02*
X24979000Y26643900D01*
X22217735Y42740778D02*
X22217735Y42739365D01*
X25296000Y38783887D02*
X25296000Y34683400D01*
X21651000Y43801000D02*
X21651000Y43551057D01*
X21660000Y45440000D02*
X21660000Y43810000D01*
X22371000Y41710300D02*
X25033915Y39047385D01*
X24979000Y26643900D02*
X25969000Y25653900D01*
X22217735Y42739365D02*
X22371000Y42586100D01*
X21650000Y43308513D02*
X22217735Y42740778D01*
X25033915Y39047385D02*
X25033915Y39045972D01*
%TO.N,FLASH_CS*%
X27796000Y27706000D02*
X27597000Y27507000D01*
X27597000Y27507000D02*
X27597000Y27070000D01*
X28597000Y41517200D02*
X28597000Y32331142D01*
X28597000Y32331142D02*
X27796000Y31530142D01*
X24047839Y43330000D02*
X26750000Y43330000D01*
X23954316Y43236477D02*
X24047839Y43330000D01*
X27148000Y42932000D02*
X27182200Y42932000D01*
X26750000Y43330000D02*
X27148000Y42932000D01*
X27182200Y42932000D02*
X28597000Y41517200D01*
X27796000Y31530142D02*
X27796000Y27706000D01*
%TO.N,FLASH_SID1*%
X27016100Y42531000D02*
X28196000Y41351100D01*
X27395000Y31696242D02*
X27395000Y28145000D01*
X27210000Y27960000D02*
X27200057Y27960000D01*
X26782900Y42730000D02*
X26981900Y42531000D01*
X24535933Y42687182D02*
X24578751Y42730000D01*
X27200057Y27960000D02*
X26796997Y27556940D01*
X26796997Y27556940D02*
X26796997Y27070000D01*
X26981900Y42531000D02*
X27016100Y42531000D01*
X27395000Y28145000D02*
X27210000Y27960000D01*
X24578751Y42730000D02*
X26782900Y42730000D01*
X28196000Y41351100D02*
X28196000Y32497242D01*
X28196000Y32497242D02*
X27395000Y31696242D01*
%TO.N,FLASH_SID2*%
X26098000Y38848000D02*
X26260000Y39010000D01*
X26260000Y39010000D02*
X26260000Y39600000D01*
X25996994Y27070000D02*
X26103000Y27176006D01*
X25212000Y33465200D02*
X26098000Y34351200D01*
X26103000Y27176006D02*
X26103000Y29448300D01*
X26103000Y29448300D02*
X25212000Y30339300D01*
X26260000Y39600000D02*
X25110000Y40750000D01*
X25212000Y30339300D02*
X25212000Y33465200D01*
X25110000Y40750000D02*
X25110000Y42130000D01*
X26098000Y34351200D02*
X26098000Y38848000D01*
D25*
%TO.N,+3.3V_LED*%
X15990000Y31120000D02*
X15975000Y31120000D01*
D22*
X16375000Y30025000D02*
X16375000Y30450000D01*
X16120000Y17190000D02*
X16375000Y16935000D01*
X16390000Y28730000D02*
X16390000Y30010000D01*
D25*
X17361001Y34386626D02*
X17361001Y30621001D01*
D22*
X16375000Y22980000D02*
X16375000Y22165000D01*
D25*
X16617628Y35129999D02*
X17361001Y34386626D01*
X17361001Y30621001D02*
X17190000Y30450000D01*
X17190000Y30450000D02*
X15900000Y30450000D01*
D22*
X16375000Y22165000D02*
X15580000Y21370000D01*
X16375000Y16935000D02*
X16375000Y15580000D01*
X16390000Y30010000D02*
X16375000Y30025000D01*
%TD*%
%TA.AperFunction,Conductor*%
%TO.N,GND*%
G36*
X9408834Y25684085D02*
G01*
X9464767Y25642213D01*
X9489184Y25576749D01*
X9489500Y25567903D01*
X9489500Y16116670D01*
X9489499Y16116652D01*
X9489499Y15950946D01*
X9489498Y15950946D01*
X9527566Y15808879D01*
X9530423Y15798215D01*
X9532249Y15795053D01*
X9532253Y15795039D01*
X9532256Y15795040D01*
X9609475Y15661291D01*
X9609481Y15661283D01*
X9682807Y15587957D01*
X9690017Y15574753D01*
X9701132Y15564609D01*
X9706423Y15544707D01*
X9716292Y15526634D01*
X9715509Y15510533D01*
X9719085Y15497085D01*
X9713737Y15474080D01*
X9713165Y15462291D01*
X9710888Y15455216D01*
X9705206Y15442859D01*
X9685346Y15375872D01*
X9685345Y15375870D01*
X9685337Y15375817D01*
X9685336Y15375813D01*
X9664497Y15233514D01*
X9658670Y13005644D01*
X9658671Y13005630D01*
X9670080Y12897517D01*
X9681288Y12845675D01*
X9715556Y12742494D01*
X9793339Y12621463D01*
X9793347Y12621452D01*
X9839091Y12568660D01*
X9839094Y12568657D01*
X9839098Y12568653D01*
X9947832Y12474433D01*
X9947835Y12474432D01*
X9947836Y12474431D01*
X10042093Y12431384D01*
X10078709Y12414662D01*
X10145748Y12394977D01*
X10145752Y12394976D01*
X10288168Y12374500D01*
X10759218Y12374500D01*
X10826257Y12354815D01*
X10872012Y12302011D01*
X10881956Y12232853D01*
X10862320Y12181609D01*
X10820609Y12119186D01*
X10820602Y12119173D01*
X10760264Y11973502D01*
X10760261Y11973490D01*
X10737947Y11861309D01*
X10705562Y11799398D01*
X10644847Y11764824D01*
X10627152Y11762762D01*
X10627218Y11762097D01*
X10621153Y11761500D01*
X10466510Y11730739D01*
X10466498Y11730736D01*
X10320827Y11670398D01*
X10320814Y11670391D01*
X10189711Y11582790D01*
X10189707Y11582787D01*
X10078213Y11471293D01*
X10078210Y11471289D01*
X9990609Y11340186D01*
X9990602Y11340173D01*
X9930264Y11194502D01*
X9930261Y11194490D01*
X9899500Y11039847D01*
X9899500Y10882154D01*
X9930261Y10727511D01*
X9930264Y10727499D01*
X9990602Y10581828D01*
X9990609Y10581815D01*
X10078210Y10450712D01*
X10078213Y10450708D01*
X10189707Y10339214D01*
X10189711Y10339211D01*
X10320814Y10251610D01*
X10320827Y10251603D01*
X10399894Y10218853D01*
X10466503Y10191263D01*
X10621153Y10160501D01*
X10621156Y10160500D01*
X10621158Y10160500D01*
X10778844Y10160500D01*
X10778845Y10160501D01*
X10933497Y10191263D01*
X11079179Y10251606D01*
X11133663Y10288011D01*
X11210875Y10339602D01*
X11277553Y10360480D01*
X11279766Y10360500D01*
X12229060Y10360500D01*
X12296099Y10340815D01*
X12341854Y10288011D01*
X12351798Y10218853D01*
X12322773Y10155297D01*
X12316741Y10148819D01*
X11778213Y9610293D01*
X11778210Y9610289D01*
X11690609Y9479186D01*
X11690602Y9479173D01*
X11630264Y9333502D01*
X11630261Y9333490D01*
X11599500Y9178847D01*
X11599500Y9021154D01*
X11630261Y8866511D01*
X11630264Y8866499D01*
X11690602Y8720828D01*
X11690609Y8720815D01*
X11778210Y8589712D01*
X11778213Y8589708D01*
X11889707Y8478214D01*
X11889711Y8478211D01*
X12020814Y8390610D01*
X12020827Y8390603D01*
X12134541Y8343502D01*
X12166503Y8330263D01*
X12321153Y8299501D01*
X12321156Y8299500D01*
X12321158Y8299500D01*
X12478844Y8299500D01*
X12478845Y8299501D01*
X12633497Y8330263D01*
X12779179Y8390606D01*
X12910289Y8478211D01*
X13704259Y9272181D01*
X13765582Y9305666D01*
X13791940Y9308500D01*
X15666076Y9308500D01*
X15733115Y9288815D01*
X15778870Y9236011D01*
X15788814Y9166853D01*
X15787693Y9160309D01*
X15769500Y9068847D01*
X15769500Y8911154D01*
X15800261Y8756511D01*
X15800264Y8756499D01*
X15860602Y8610828D01*
X15860609Y8610815D01*
X15948210Y8479712D01*
X15948213Y8479708D01*
X16059707Y8368214D01*
X16059711Y8368211D01*
X16190814Y8280610D01*
X16190827Y8280603D01*
X16336498Y8220265D01*
X16336503Y8220263D01*
X16491153Y8189501D01*
X16491156Y8189500D01*
X16491158Y8189500D01*
X16648844Y8189500D01*
X16648845Y8189501D01*
X16803497Y8220263D01*
X16949179Y8280606D01*
X16949186Y8280612D01*
X16949190Y8280613D01*
X16975262Y8298034D01*
X16975266Y8298036D01*
X17043309Y8343502D01*
X17080289Y8368211D01*
X17191789Y8479711D01*
X17279394Y8610821D01*
X17339737Y8756503D01*
X17370500Y8911158D01*
X17370500Y9068842D01*
X17370500Y9068845D01*
X17370499Y9068847D01*
X17352307Y9160309D01*
X17358534Y9229901D01*
X17401397Y9285078D01*
X17467287Y9308322D01*
X17473924Y9308500D01*
X28736844Y9308500D01*
X28736845Y9308501D01*
X28891497Y9339263D01*
X29037179Y9399606D01*
X29168289Y9487211D01*
X29287820Y9606743D01*
X29349141Y9640226D01*
X29418833Y9635242D01*
X29474767Y9593371D01*
X29499184Y9527907D01*
X29499500Y9519060D01*
X29499500Y604500D01*
X29479815Y537461D01*
X29427011Y491706D01*
X29375500Y480500D01*
X20897703Y480500D01*
X20830664Y500185D01*
X20784909Y552989D01*
X20774965Y622147D01*
X20776086Y628691D01*
X20790499Y701154D01*
X20790500Y701156D01*
X20790500Y858845D01*
X20790499Y858847D01*
X20759738Y1013490D01*
X20759737Y1013497D01*
X20759735Y1013502D01*
X20699397Y1159173D01*
X20699390Y1159186D01*
X20611789Y1290289D01*
X20611786Y1290293D01*
X20500292Y1401787D01*
X20500288Y1401790D01*
X20369185Y1489391D01*
X20369172Y1489398D01*
X20223501Y1549736D01*
X20223489Y1549739D01*
X20068845Y1580500D01*
X20068842Y1580500D01*
X19911158Y1580500D01*
X19911155Y1580500D01*
X19756510Y1549739D01*
X19756498Y1549736D01*
X19610827Y1489398D01*
X19610814Y1489391D01*
X19479711Y1401790D01*
X19479707Y1401787D01*
X19368210Y1290290D01*
X19332343Y1236609D01*
X19278731Y1191804D01*
X19229241Y1181500D01*
X16919939Y1181500D01*
X16898696Y1187738D01*
X16876607Y1189317D01*
X16865821Y1197391D01*
X16852900Y1201185D01*
X16838402Y1217917D01*
X16820673Y1231188D01*
X16815964Y1243811D01*
X16807145Y1253989D01*
X16803993Y1275905D01*
X16796255Y1296652D01*
X16799118Y1309815D01*
X16797201Y1323147D01*
X16806399Y1343290D01*
X16811106Y1364925D01*
X16824375Y1382652D01*
X16826226Y1386703D01*
X16832242Y1393166D01*
X16910361Y1471284D01*
X16910362Y1471287D01*
X17294189Y1855114D01*
X17355510Y1888597D01*
X17357677Y1889048D01*
X17415612Y1900573D01*
X17513024Y1919949D01*
X17658706Y1980292D01*
X17789816Y2067897D01*
X17901316Y2179397D01*
X17988921Y2310507D01*
X17992777Y2319815D01*
X18002594Y2343520D01*
X18049264Y2456189D01*
X18080027Y2610844D01*
X18080027Y2768528D01*
X18080027Y2768531D01*
X18080026Y2768533D01*
X18049264Y2923183D01*
X18026490Y2978165D01*
X17988924Y3068859D01*
X17988917Y3068872D01*
X17920371Y3171457D01*
X24439499Y3171457D01*
X24477947Y2978171D01*
X24477950Y2978161D01*
X24553364Y2796093D01*
X24553371Y2796080D01*
X24662860Y2632219D01*
X24662863Y2632215D01*
X24802214Y2492864D01*
X24802218Y2492861D01*
X24966079Y2383372D01*
X24966092Y2383365D01*
X25125454Y2317356D01*
X25148165Y2307949D01*
X25148169Y2307949D01*
X25148170Y2307948D01*
X25341456Y2269500D01*
X25341459Y2269500D01*
X25538543Y2269500D01*
X25668582Y2295368D01*
X25731835Y2307949D01*
X25913914Y2383368D01*
X26077782Y2492861D01*
X26217139Y2632218D01*
X26326632Y2796086D01*
X26402051Y2978165D01*
X26420094Y3068872D01*
X26440500Y3171457D01*
X26440500Y3368544D01*
X26402052Y3561830D01*
X26402051Y3561833D01*
X26402051Y3561835D01*
X26382840Y3608215D01*
X26326635Y3743908D01*
X26326628Y3743921D01*
X26217139Y3907782D01*
X26217136Y3907786D01*
X26077785Y4047137D01*
X26077781Y4047140D01*
X25913920Y4156629D01*
X25913907Y4156636D01*
X25731839Y4232050D01*
X25731829Y4232053D01*
X25538543Y4270500D01*
X25538541Y4270500D01*
X25341459Y4270500D01*
X25341457Y4270500D01*
X25148170Y4232053D01*
X25148160Y4232050D01*
X24966092Y4156636D01*
X24966079Y4156629D01*
X24802218Y4047140D01*
X24802214Y4047137D01*
X24662863Y3907786D01*
X24662860Y3907782D01*
X24553371Y3743921D01*
X24553364Y3743908D01*
X24477950Y3561840D01*
X24477947Y3561830D01*
X24439500Y3368544D01*
X24439500Y3368541D01*
X24439500Y3171459D01*
X24439500Y3171457D01*
X24439499Y3171457D01*
X17920371Y3171457D01*
X17901316Y3199975D01*
X17901313Y3199979D01*
X17867945Y3233346D01*
X17863606Y3241292D01*
X17856357Y3246718D01*
X17847122Y3271478D01*
X17834459Y3294668D01*
X17835104Y3303700D01*
X17831941Y3312183D01*
X17837558Y3338005D01*
X17839443Y3364360D01*
X17845260Y3373413D01*
X17846793Y3380456D01*
X17867942Y3408707D01*
X17930520Y3471284D01*
X17982799Y3561835D01*
X18009577Y3608215D01*
X18050500Y3760942D01*
X18050500Y3919057D01*
X18050500Y4440235D01*
X18070185Y4507274D01*
X18071398Y4509126D01*
X18078490Y4519739D01*
X18159394Y4640821D01*
X18219737Y4786503D01*
X18250500Y4941158D01*
X18250500Y5098842D01*
X18250500Y5098845D01*
X18250499Y5098847D01*
X18234854Y5177500D01*
X18219737Y5253497D01*
X18201556Y5297391D01*
X18159397Y5399173D01*
X18159390Y5399186D01*
X18071789Y5530289D01*
X18071786Y5530293D01*
X17960292Y5641787D01*
X17960288Y5641790D01*
X17829185Y5729391D01*
X17829172Y5729398D01*
X17683501Y5789736D01*
X17683489Y5789739D01*
X17528845Y5820500D01*
X17528842Y5820500D01*
X17371158Y5820500D01*
X17371155Y5820500D01*
X17216510Y5789739D01*
X17216498Y5789736D01*
X17070827Y5729398D01*
X17070814Y5729391D01*
X16939711Y5641790D01*
X16939707Y5641787D01*
X16828213Y5530293D01*
X16828210Y5530289D01*
X16740609Y5399186D01*
X16740602Y5399173D01*
X16680264Y5253502D01*
X16680261Y5253490D01*
X16649500Y5098847D01*
X16649500Y4941154D01*
X16680261Y4786511D01*
X16680264Y4786499D01*
X16740602Y4640828D01*
X16740609Y4640815D01*
X16813950Y4531054D01*
X16821510Y4519739D01*
X16828602Y4509126D01*
X16849480Y4442449D01*
X16849500Y4440235D01*
X16849500Y4140097D01*
X16840855Y4110657D01*
X16834332Y4080670D01*
X16830577Y4075655D01*
X16829815Y4073058D01*
X16813181Y4052416D01*
X16693101Y3932336D01*
X16631778Y3898851D01*
X16605420Y3896017D01*
X16499798Y3896017D01*
X16432759Y3915702D01*
X16387004Y3968506D01*
X16377060Y4037664D01*
X16378181Y4044208D01*
X16389999Y4103627D01*
X16390000Y4103629D01*
X16390000Y4251372D01*
X16389999Y4251374D01*
X16361179Y4396260D01*
X16361178Y4396264D01*
X16317577Y4501525D01*
X15816777Y4000723D01*
X15315974Y3499923D01*
X15325751Y3450770D01*
X15325510Y3448083D01*
X15326660Y3445640D01*
X15322414Y3413484D01*
X15319524Y3381178D01*
X15317759Y3378227D01*
X15317515Y3376371D01*
X15310796Y3366575D01*
X15298777Y3346462D01*
X15295445Y3342527D01*
X15265095Y3312176D01*
X15255102Y3294870D01*
X15247919Y3286383D01*
X15227655Y3273029D01*
X15210094Y3256284D01*
X15197679Y3253273D01*
X15189580Y3247934D01*
X15174980Y3247766D01*
X15153276Y3242500D01*
X14865944Y3242500D01*
X14798905Y3262185D01*
X14753150Y3314989D01*
X14743206Y3384147D01*
X14772231Y3447703D01*
X14818490Y3481060D01*
X14864024Y3499922D01*
X14864024Y3499923D01*
X14540001Y3823946D01*
X14540000Y3823946D01*
X14215975Y3499923D01*
X14261511Y3481061D01*
X14315914Y3437219D01*
X14337978Y3370925D01*
X14320698Y3303226D01*
X14269561Y3255616D01*
X14214057Y3242500D01*
X14055197Y3242500D01*
X13988158Y3262185D01*
X13967516Y3278819D01*
X13807969Y3438366D01*
X13786785Y3477161D01*
X13122765Y4141181D01*
X13066555Y4197391D01*
X13340000Y4197391D01*
X13340000Y4157609D01*
X13355224Y4120855D01*
X13383355Y4092724D01*
X13420109Y4077500D01*
X13459891Y4077500D01*
X13496645Y4092724D01*
X13524776Y4120855D01*
X13540000Y4157609D01*
X13540000Y4177500D01*
X13793554Y4177500D01*
X13990000Y3981054D01*
X14186446Y4177500D01*
X14166555Y4197391D01*
X14440000Y4197391D01*
X14440000Y4157609D01*
X14455224Y4120855D01*
X14483355Y4092724D01*
X14520109Y4077500D01*
X14559891Y4077500D01*
X14596645Y4092724D01*
X14624776Y4120855D01*
X14640000Y4157609D01*
X14640000Y4177500D01*
X14893554Y4177500D01*
X15090000Y3981054D01*
X15286446Y4177500D01*
X15266555Y4197391D01*
X15540000Y4197391D01*
X15540000Y4157609D01*
X15555224Y4120855D01*
X15583355Y4092724D01*
X15620109Y4077500D01*
X15659891Y4077500D01*
X15696645Y4092724D01*
X15724776Y4120855D01*
X15740000Y4157609D01*
X15740000Y4197391D01*
X15724776Y4234145D01*
X15696645Y4262276D01*
X15659891Y4277500D01*
X15620109Y4277500D01*
X15583355Y4262276D01*
X15555224Y4234145D01*
X15540000Y4197391D01*
X15266555Y4197391D01*
X15090000Y4373946D01*
X14893554Y4177500D01*
X14640000Y4177500D01*
X14640000Y4197391D01*
X14624776Y4234145D01*
X14596645Y4262276D01*
X14559891Y4277500D01*
X14520109Y4277500D01*
X14483355Y4262276D01*
X14455224Y4234145D01*
X14440000Y4197391D01*
X14166555Y4197391D01*
X13990000Y4373946D01*
X13793554Y4177500D01*
X13540000Y4177500D01*
X13540000Y4197391D01*
X13524776Y4234145D01*
X13496645Y4262276D01*
X13459891Y4277500D01*
X13420109Y4277500D01*
X13383355Y4262276D01*
X13355224Y4234145D01*
X13340000Y4197391D01*
X13066555Y4197391D01*
X12762421Y4501526D01*
X12762420Y4501526D01*
X12718823Y4396272D01*
X12718820Y4396260D01*
X12690000Y4251374D01*
X12690000Y4185500D01*
X12670315Y4118461D01*
X12617511Y4072706D01*
X12566000Y4061500D01*
X12279097Y4061500D01*
X12212058Y4081185D01*
X12191416Y4097819D01*
X11561735Y4727500D01*
X13243554Y4727500D01*
X13440000Y4531054D01*
X13636446Y4727500D01*
X14343554Y4727500D01*
X14540000Y4531054D01*
X14736446Y4727500D01*
X15443554Y4727500D01*
X15640000Y4531054D01*
X15836446Y4727500D01*
X15640000Y4923946D01*
X15443554Y4727500D01*
X14736446Y4727500D01*
X14540000Y4923946D01*
X14343554Y4727500D01*
X13636446Y4727500D01*
X13440000Y4923946D01*
X13243554Y4727500D01*
X11561735Y4727500D01*
X10937861Y5351374D01*
X12690000Y5351374D01*
X12690000Y5203627D01*
X12718820Y5058741D01*
X12718822Y5058733D01*
X12762421Y4953476D01*
X13086446Y5277500D01*
X13086446Y5277501D01*
X13066556Y5297391D01*
X13340000Y5297391D01*
X13340000Y5257609D01*
X13355224Y5220855D01*
X13383355Y5192724D01*
X13420109Y5177500D01*
X13459891Y5177500D01*
X13496645Y5192724D01*
X13524776Y5220855D01*
X13540000Y5257609D01*
X13540000Y5277500D01*
X13793554Y5277500D01*
X13990000Y5081054D01*
X14186446Y5277500D01*
X14166555Y5297391D01*
X14440000Y5297391D01*
X14440000Y5257609D01*
X14455224Y5220855D01*
X14483355Y5192724D01*
X14520109Y5177500D01*
X14559891Y5177500D01*
X14596645Y5192724D01*
X14624776Y5220855D01*
X14640000Y5257609D01*
X14640000Y5277500D01*
X14893554Y5277500D01*
X15090000Y5081054D01*
X15286446Y5277500D01*
X15266555Y5297391D01*
X15540000Y5297391D01*
X15540000Y5257609D01*
X15555224Y5220855D01*
X15583355Y5192724D01*
X15620109Y5177500D01*
X15659891Y5177500D01*
X15696645Y5192724D01*
X15724776Y5220855D01*
X15740000Y5257609D01*
X15740000Y5277501D01*
X15993554Y5277501D01*
X15993554Y5277499D01*
X16317577Y4953476D01*
X16317578Y4953476D01*
X16361175Y5058725D01*
X16361179Y5058740D01*
X16389999Y5203627D01*
X16390000Y5203629D01*
X16390000Y5351372D01*
X16389999Y5351374D01*
X16361179Y5496260D01*
X16361178Y5496264D01*
X16317577Y5601525D01*
X15993554Y5277501D01*
X15740000Y5277501D01*
X15740000Y5297391D01*
X15724776Y5334145D01*
X15696645Y5362276D01*
X15659891Y5377500D01*
X15620109Y5377500D01*
X15583355Y5362276D01*
X15555224Y5334145D01*
X15540000Y5297391D01*
X15266555Y5297391D01*
X15090000Y5473946D01*
X14893554Y5277500D01*
X14640000Y5277500D01*
X14640000Y5297391D01*
X14624776Y5334145D01*
X14596645Y5362276D01*
X14559891Y5377500D01*
X14520109Y5377500D01*
X14483355Y5362276D01*
X14455224Y5334145D01*
X14440000Y5297391D01*
X14166555Y5297391D01*
X13990000Y5473946D01*
X13793554Y5277500D01*
X13540000Y5277500D01*
X13540000Y5297391D01*
X13524776Y5334145D01*
X13496645Y5362276D01*
X13459891Y5377500D01*
X13420109Y5377500D01*
X13383355Y5362276D01*
X13355224Y5334145D01*
X13340000Y5297391D01*
X13066556Y5297391D01*
X12762421Y5601526D01*
X12762420Y5601526D01*
X12718823Y5496272D01*
X12718820Y5496260D01*
X12690000Y5351374D01*
X10937861Y5351374D01*
X10461735Y5827500D01*
X13243554Y5827500D01*
X13440000Y5631054D01*
X13636446Y5827500D01*
X14343554Y5827500D01*
X14540000Y5631054D01*
X14736446Y5827500D01*
X15443554Y5827500D01*
X15640000Y5631054D01*
X15836446Y5827500D01*
X15640000Y6023946D01*
X15443554Y5827500D01*
X14736446Y5827500D01*
X14540000Y6023946D01*
X14343554Y5827500D01*
X13636446Y5827500D01*
X13440000Y6023946D01*
X13243554Y5827500D01*
X10461735Y5827500D01*
X9969819Y6319416D01*
X9955115Y6346344D01*
X9938523Y6372162D01*
X9937631Y6378363D01*
X9936334Y6380739D01*
X9933500Y6407097D01*
X9933500Y6451374D01*
X12690000Y6451374D01*
X12690000Y6303627D01*
X12718820Y6158741D01*
X12718822Y6158733D01*
X12762421Y6053476D01*
X13086446Y6377500D01*
X13086446Y6377501D01*
X13066556Y6397391D01*
X13340000Y6397391D01*
X13340000Y6357609D01*
X13355224Y6320855D01*
X13383355Y6292724D01*
X13420109Y6277500D01*
X13459891Y6277500D01*
X13496645Y6292724D01*
X13524776Y6320855D01*
X13540000Y6357609D01*
X13540000Y6377500D01*
X13793554Y6377500D01*
X13990000Y6181054D01*
X14186446Y6377500D01*
X14166555Y6397391D01*
X14440000Y6397391D01*
X14440000Y6357609D01*
X14455224Y6320855D01*
X14483355Y6292724D01*
X14520109Y6277500D01*
X14559891Y6277500D01*
X14596645Y6292724D01*
X14624776Y6320855D01*
X14640000Y6357609D01*
X14640000Y6377500D01*
X14893554Y6377500D01*
X15090000Y6181054D01*
X15286446Y6377500D01*
X15266555Y6397391D01*
X15540000Y6397391D01*
X15540000Y6357609D01*
X15555224Y6320855D01*
X15583355Y6292724D01*
X15620109Y6277500D01*
X15659891Y6277500D01*
X15696645Y6292724D01*
X15724776Y6320855D01*
X15740000Y6357609D01*
X15740000Y6377501D01*
X15993554Y6377501D01*
X15993554Y6377499D01*
X16317577Y6053476D01*
X16317578Y6053476D01*
X16361175Y6158725D01*
X16361179Y6158740D01*
X16389999Y6303627D01*
X16390000Y6303629D01*
X16390000Y6451372D01*
X16389999Y6451374D01*
X16361179Y6596260D01*
X16361178Y6596264D01*
X16317577Y6701525D01*
X15993554Y6377501D01*
X15740000Y6377501D01*
X15740000Y6397391D01*
X15724776Y6434145D01*
X15696645Y6462276D01*
X15659891Y6477500D01*
X15620109Y6477500D01*
X15583355Y6462276D01*
X15555224Y6434145D01*
X15540000Y6397391D01*
X15266555Y6397391D01*
X15090000Y6573946D01*
X14893554Y6377500D01*
X14640000Y6377500D01*
X14640000Y6397391D01*
X14624776Y6434145D01*
X14596645Y6462276D01*
X14559891Y6477500D01*
X14520109Y6477500D01*
X14483355Y6462276D01*
X14455224Y6434145D01*
X14440000Y6397391D01*
X14166555Y6397391D01*
X13990000Y6573946D01*
X13793554Y6377500D01*
X13540000Y6377500D01*
X13540000Y6397391D01*
X13524776Y6434145D01*
X13496645Y6462276D01*
X13459891Y6477500D01*
X13420109Y6477500D01*
X13383355Y6462276D01*
X13355224Y6434145D01*
X13340000Y6397391D01*
X13066556Y6397391D01*
X12762421Y6701526D01*
X12762420Y6701526D01*
X12718823Y6596272D01*
X12718820Y6596260D01*
X12690000Y6451374D01*
X9933500Y6451374D01*
X9933500Y7055080D01*
X13115974Y7055080D01*
X13115974Y7055079D01*
X13440000Y6731054D01*
X13440001Y6731054D01*
X13764024Y7055079D01*
X13764022Y7055080D01*
X14215974Y7055080D01*
X14215974Y7055079D01*
X14540000Y6731054D01*
X14540001Y6731054D01*
X14864024Y7055079D01*
X14864022Y7055080D01*
X15315974Y7055080D01*
X15315974Y7055079D01*
X15640000Y6731054D01*
X15640001Y6731054D01*
X15964024Y7055079D01*
X15858767Y7098678D01*
X15858759Y7098680D01*
X15713872Y7127500D01*
X15566128Y7127500D01*
X15421240Y7098680D01*
X15421228Y7098677D01*
X15315974Y7055080D01*
X14864022Y7055080D01*
X14758767Y7098678D01*
X14758759Y7098680D01*
X14613872Y7127500D01*
X14466128Y7127500D01*
X14321240Y7098680D01*
X14321228Y7098677D01*
X14215974Y7055080D01*
X13764022Y7055080D01*
X13658767Y7098678D01*
X13658759Y7098680D01*
X13513872Y7127500D01*
X13366128Y7127500D01*
X13221240Y7098680D01*
X13221228Y7098677D01*
X13115974Y7055080D01*
X9933500Y7055080D01*
X9933500Y7079241D01*
X9933501Y7079254D01*
X9933501Y7247355D01*
X9933501Y7247357D01*
X9892577Y7400085D01*
X9870828Y7437753D01*
X9858273Y7459501D01*
X9858272Y7459502D01*
X9813521Y7537014D01*
X9813520Y7537016D01*
X9701716Y7648820D01*
X9701715Y7648821D01*
X9697385Y7653151D01*
X9697374Y7653161D01*
X9161688Y8188847D01*
X22349500Y8188847D01*
X22349500Y8031154D01*
X22380261Y7876511D01*
X22380264Y7876499D01*
X22440602Y7730828D01*
X22440609Y7730815D01*
X22528210Y7599712D01*
X22528213Y7599708D01*
X22639707Y7488214D01*
X22639711Y7488211D01*
X22770814Y7400610D01*
X22770827Y7400603D01*
X22916498Y7340265D01*
X22916503Y7340263D01*
X23071153Y7309501D01*
X23071156Y7309500D01*
X23071158Y7309500D01*
X23228844Y7309500D01*
X23228845Y7309501D01*
X23383497Y7340263D01*
X23529179Y7400606D01*
X23660289Y7488211D01*
X23771789Y7599711D01*
X23859394Y7730821D01*
X23919737Y7876503D01*
X23950500Y8031158D01*
X23950500Y8188842D01*
X23950500Y8188845D01*
X23950499Y8188847D01*
X23944250Y8220263D01*
X23919737Y8343497D01*
X23900224Y8390606D01*
X23859397Y8489173D01*
X23859390Y8489186D01*
X23771789Y8620289D01*
X23771786Y8620293D01*
X23660292Y8731787D01*
X23660288Y8731790D01*
X23529185Y8819391D01*
X23529172Y8819398D01*
X23383501Y8879736D01*
X23383489Y8879739D01*
X23228845Y8910500D01*
X23228842Y8910500D01*
X23071158Y8910500D01*
X23071155Y8910500D01*
X22916510Y8879739D01*
X22916498Y8879736D01*
X22770827Y8819398D01*
X22770814Y8819391D01*
X22639711Y8731790D01*
X22639707Y8731787D01*
X22528213Y8620293D01*
X22528210Y8620289D01*
X22440609Y8489186D01*
X22440602Y8489173D01*
X22380264Y8343502D01*
X22380261Y8343490D01*
X22349500Y8188847D01*
X9161688Y8188847D01*
X8869819Y8480716D01*
X8836334Y8542039D01*
X8833500Y8568397D01*
X8833500Y25159903D01*
X8853185Y25226942D01*
X8869819Y25247584D01*
X9078457Y25456222D01*
X9277820Y25655585D01*
X9339142Y25689069D01*
X9408834Y25684085D01*
G37*
%TD.AperFunction*%
%TA.AperFunction,Conductor*%
G36*
X3576559Y32249672D02*
G01*
X3634423Y32210510D01*
X3653366Y32179011D01*
X3710602Y32040828D01*
X3710609Y32040815D01*
X3798210Y31909712D01*
X3798213Y31909708D01*
X3909707Y31798214D01*
X3909711Y31798211D01*
X4040814Y31710610D01*
X4040827Y31710603D01*
X4131212Y31673165D01*
X4186503Y31650263D01*
X4251147Y31637405D01*
X4341849Y31619362D01*
X4403760Y31586977D01*
X4405339Y31585426D01*
X5445139Y30545626D01*
X5445149Y30545615D01*
X5449479Y30541285D01*
X5449480Y30541284D01*
X5561284Y30429480D01*
X5561286Y30429479D01*
X5561290Y30429476D01*
X5698209Y30350427D01*
X5698216Y30350423D01*
X5806087Y30321519D01*
X5806086Y30321519D01*
X5822503Y30317121D01*
X5850942Y30309500D01*
X5850943Y30309500D01*
X6574500Y30309500D01*
X6641539Y30289815D01*
X6687294Y30237011D01*
X6698500Y30185500D01*
X6698500Y27177532D01*
X6678815Y27110493D01*
X6643391Y27074430D01*
X6519711Y26991790D01*
X6519707Y26991787D01*
X6408213Y26880293D01*
X6408210Y26880289D01*
X6320609Y26749186D01*
X6320602Y26749173D01*
X6260264Y26603502D01*
X6260261Y26603490D01*
X6229500Y26448847D01*
X6229500Y26291154D01*
X6260261Y26136511D01*
X6260264Y26136499D01*
X6320602Y25990828D01*
X6320609Y25990815D01*
X6408602Y25859126D01*
X6429480Y25792449D01*
X6429500Y25790235D01*
X6429500Y7856670D01*
X6429499Y7856652D01*
X6429499Y7690946D01*
X6429498Y7690946D01*
X6470424Y7538211D01*
X6470425Y7538210D01*
X6491504Y7501701D01*
X6491505Y7501700D01*
X6549477Y7401288D01*
X6549481Y7401283D01*
X6668349Y7282415D01*
X6668355Y7282410D01*
X6862117Y7088648D01*
X6895602Y7027325D01*
X6890618Y6957633D01*
X6848746Y6901700D01*
X6821891Y6886407D01*
X6780826Y6869397D01*
X6780814Y6869391D01*
X6649711Y6781790D01*
X6649707Y6781787D01*
X6538213Y6670293D01*
X6538210Y6670289D01*
X6450609Y6539186D01*
X6450602Y6539173D01*
X6390264Y6393502D01*
X6390261Y6393490D01*
X6359500Y6238847D01*
X6359500Y6081154D01*
X6390261Y5926511D01*
X6390264Y5926499D01*
X6450602Y5780828D01*
X6450609Y5780815D01*
X6538210Y5649712D01*
X6538213Y5649708D01*
X6649707Y5538214D01*
X6649711Y5538211D01*
X6780814Y5450610D01*
X6780827Y5450603D01*
X6904992Y5399173D01*
X6926503Y5390263D01*
X7067202Y5362276D01*
X7081153Y5359501D01*
X7081156Y5359500D01*
X7081158Y5359500D01*
X7238844Y5359500D01*
X7238845Y5359501D01*
X7393497Y5390263D01*
X7416217Y5399675D01*
X7416978Y5399756D01*
X7417581Y5400230D01*
X7451675Y5403487D01*
X7485686Y5407144D01*
X7486371Y5406802D01*
X7487134Y5406874D01*
X7517562Y5391189D01*
X7548166Y5375870D01*
X7548783Y5375095D01*
X7549238Y5374860D01*
X7570944Y5347259D01*
X7571056Y5347118D01*
X7578546Y5334145D01*
X7582019Y5328131D01*
X7582019Y5328129D01*
X7582021Y5328127D01*
X7649477Y5211288D01*
X7649481Y5211283D01*
X7768349Y5092415D01*
X7768355Y5092410D01*
X8536235Y4324530D01*
X8538374Y4322338D01*
X8548557Y4311639D01*
X8557480Y4296184D01*
X8669284Y4184380D01*
X8669286Y4184379D01*
X8677448Y4176217D01*
X9101484Y3752181D01*
X9134969Y3690858D01*
X9129985Y3621166D01*
X9088113Y3565233D01*
X9022649Y3540816D01*
X9013803Y3540500D01*
X8616669Y3540500D01*
X8616653Y3540501D01*
X8609057Y3540501D01*
X8450943Y3540501D01*
X8299506Y3499923D01*
X8298215Y3499577D01*
X8298213Y3499576D01*
X8273298Y3485193D01*
X8273299Y3485192D01*
X8161287Y3420523D01*
X8085337Y3344573D01*
X8024013Y3311089D01*
X8021848Y3310638D01*
X7866508Y3279739D01*
X7866498Y3279736D01*
X7720827Y3219398D01*
X7720814Y3219391D01*
X7589711Y3131790D01*
X7589707Y3131787D01*
X7478213Y3020293D01*
X7478210Y3020289D01*
X7390609Y2889186D01*
X7390602Y2889173D01*
X7330264Y2743502D01*
X7330261Y2743490D01*
X7299500Y2588847D01*
X7299500Y2431154D01*
X7330261Y2276511D01*
X7330264Y2276499D01*
X7390602Y2130828D01*
X7390609Y2130815D01*
X7478210Y1999712D01*
X7478213Y1999708D01*
X7589707Y1888214D01*
X7589711Y1888211D01*
X7720814Y1800610D01*
X7720827Y1800603D01*
X7866498Y1740265D01*
X7866503Y1740263D01*
X7892944Y1735004D01*
X7932589Y1727117D01*
X7994500Y1694732D01*
X8029075Y1634016D01*
X8025335Y1564247D01*
X7984468Y1507575D01*
X7919450Y1481994D01*
X7908398Y1481500D01*
X2681229Y1481500D01*
X2614190Y1501185D01*
X2593548Y1517819D01*
X1606819Y2504549D01*
X1573334Y2565872D01*
X1570500Y2592230D01*
X1570500Y3828847D01*
X4489500Y3828847D01*
X4489500Y3671154D01*
X4520261Y3516511D01*
X4520264Y3516499D01*
X4580602Y3370828D01*
X4580609Y3370815D01*
X4668210Y3239712D01*
X4668213Y3239708D01*
X4779707Y3128214D01*
X4779711Y3128211D01*
X4910814Y3040610D01*
X4910827Y3040603D01*
X5056498Y2980265D01*
X5056503Y2980263D01*
X5211153Y2949501D01*
X5211156Y2949500D01*
X5211158Y2949500D01*
X5368844Y2949500D01*
X5368845Y2949501D01*
X5523497Y2980263D01*
X5669179Y3040606D01*
X5800289Y3128211D01*
X5911789Y3239711D01*
X5999394Y3370821D01*
X6059737Y3516503D01*
X6090500Y3671158D01*
X6090500Y3828842D01*
X6090500Y3828845D01*
X6090499Y3828847D01*
X6072555Y3919057D01*
X6059737Y3983497D01*
X6044378Y4020577D01*
X5999397Y4129173D01*
X5999390Y4129186D01*
X5911789Y4260289D01*
X5911786Y4260293D01*
X5800292Y4371787D01*
X5800288Y4371790D01*
X5669185Y4459391D01*
X5669172Y4459398D01*
X5523501Y4519736D01*
X5523489Y4519739D01*
X5368845Y4550500D01*
X5368842Y4550500D01*
X5211158Y4550500D01*
X5211155Y4550500D01*
X5056510Y4519739D01*
X5056498Y4519736D01*
X4910827Y4459398D01*
X4910814Y4459391D01*
X4779711Y4371790D01*
X4779707Y4371787D01*
X4668213Y4260293D01*
X4668210Y4260289D01*
X4580609Y4129186D01*
X4580602Y4129173D01*
X4520264Y3983502D01*
X4520261Y3983490D01*
X4489500Y3828847D01*
X1570500Y3828847D01*
X1570500Y9962153D01*
X1590185Y10029192D01*
X1642989Y10074947D01*
X1670309Y10083770D01*
X1686291Y10086950D01*
X1803497Y10110263D01*
X1949179Y10170606D01*
X2080289Y10258211D01*
X2191789Y10369711D01*
X2279394Y10500821D01*
X2339737Y10646503D01*
X2370500Y10801158D01*
X2370500Y10958842D01*
X2370500Y10958845D01*
X2370499Y10958847D01*
X2339738Y11113490D01*
X2339737Y11113497D01*
X2306184Y11194502D01*
X2279397Y11259173D01*
X2279390Y11259186D01*
X2191789Y11390289D01*
X2191786Y11390293D01*
X2080292Y11501787D01*
X2080288Y11501790D01*
X1949185Y11589391D01*
X1949172Y11589398D01*
X1803501Y11649736D01*
X1803491Y11649739D01*
X1670308Y11676231D01*
X1608397Y11708616D01*
X1573823Y11769332D01*
X1570500Y11797848D01*
X1570500Y20261434D01*
X1590185Y20328473D01*
X1642989Y20374228D01*
X1712147Y20384172D01*
X1741952Y20375995D01*
X1856682Y20328473D01*
X1876503Y20320263D01*
X2031153Y20289501D01*
X2031156Y20289500D01*
X2031158Y20289500D01*
X2188844Y20289500D01*
X2188845Y20289501D01*
X2343497Y20320263D01*
X2489179Y20380606D01*
X2494516Y20384172D01*
X2620875Y20468602D01*
X2687553Y20489480D01*
X2689766Y20489500D01*
X4303331Y20489500D01*
X4303347Y20489499D01*
X4310943Y20489499D01*
X4469054Y20489499D01*
X4469057Y20489499D01*
X4621785Y20530423D01*
X4691006Y20570388D01*
X4758716Y20609480D01*
X4870520Y20721284D01*
X4870520Y20721286D01*
X4880723Y20731488D01*
X4880727Y20731494D01*
X4919321Y20770087D01*
X4919326Y20770091D01*
X4929529Y20780295D01*
X4929531Y20780295D01*
X5041335Y20892099D01*
X5112006Y21014506D01*
X5120392Y21029030D01*
X5161316Y21181758D01*
X5161316Y21339872D01*
X5161316Y21347467D01*
X5161315Y21347485D01*
X5161315Y21510523D01*
X5181000Y21577562D01*
X5182213Y21579414D01*
X5249230Y21679711D01*
X5270209Y21711109D01*
X5330552Y21856791D01*
X5361315Y22011446D01*
X5361315Y22169130D01*
X5361315Y22169133D01*
X5361314Y22169135D01*
X5330553Y22323778D01*
X5330552Y22323785D01*
X5330550Y22323790D01*
X5270212Y22469461D01*
X5270205Y22469474D01*
X5182604Y22600577D01*
X5182601Y22600581D01*
X5071107Y22712075D01*
X5071103Y22712078D01*
X4940000Y22799679D01*
X4939987Y22799686D01*
X4794316Y22860024D01*
X4794304Y22860027D01*
X4639660Y22890788D01*
X4639657Y22890788D01*
X4481973Y22890788D01*
X4481970Y22890788D01*
X4327325Y22860027D01*
X4327313Y22860024D01*
X4181642Y22799686D01*
X4181629Y22799679D01*
X4050526Y22712078D01*
X4050522Y22712075D01*
X3939028Y22600581D01*
X3939025Y22600577D01*
X3851424Y22469474D01*
X3851417Y22469461D01*
X3791079Y22323790D01*
X3791076Y22323778D01*
X3760315Y22169135D01*
X3760315Y22011442D01*
X3791076Y21856799D01*
X3792846Y21850964D01*
X3790208Y21850164D01*
X3796408Y21792478D01*
X3765130Y21730000D01*
X3705040Y21694350D01*
X3674379Y21690500D01*
X2689766Y21690500D01*
X2622727Y21710185D01*
X2620875Y21711398D01*
X2489185Y21799391D01*
X2489172Y21799398D01*
X2343501Y21859736D01*
X2343489Y21859739D01*
X2188845Y21890500D01*
X2188842Y21890500D01*
X2031158Y21890500D01*
X2031155Y21890500D01*
X1876510Y21859739D01*
X1876507Y21859738D01*
X1876506Y21859738D01*
X1876503Y21859737D01*
X1799431Y21827813D01*
X1741952Y21804005D01*
X1672482Y21796537D01*
X1610003Y21827813D01*
X1574351Y21887902D01*
X1570500Y21918567D01*
X1570500Y27368847D01*
X3129500Y27368847D01*
X3129500Y27211154D01*
X3160261Y27056511D01*
X3160264Y27056499D01*
X3220602Y26910828D01*
X3220609Y26910815D01*
X3308210Y26779712D01*
X3308213Y26779708D01*
X3419707Y26668214D01*
X3419711Y26668211D01*
X3550814Y26580610D01*
X3550827Y26580603D01*
X3696498Y26520265D01*
X3696503Y26520263D01*
X3851153Y26489501D01*
X3851156Y26489500D01*
X3851158Y26489500D01*
X4008844Y26489500D01*
X4008845Y26489501D01*
X4163497Y26520263D01*
X4309179Y26580606D01*
X4440289Y26668211D01*
X4551789Y26779711D01*
X4639394Y26910821D01*
X4699737Y27056503D01*
X4730500Y27211158D01*
X4730500Y27368842D01*
X4730500Y27368845D01*
X4730499Y27368847D01*
X4699738Y27523490D01*
X4699737Y27523497D01*
X4699735Y27523502D01*
X4639397Y27669173D01*
X4639390Y27669186D01*
X4551789Y27800289D01*
X4551786Y27800293D01*
X4440292Y27911787D01*
X4440288Y27911790D01*
X4309185Y27999391D01*
X4309172Y27999398D01*
X4163501Y28059736D01*
X4163489Y28059739D01*
X4008845Y28090500D01*
X4008842Y28090500D01*
X3851158Y28090500D01*
X3851155Y28090500D01*
X3696510Y28059739D01*
X3696498Y28059736D01*
X3550827Y27999398D01*
X3550814Y27999391D01*
X3419711Y27911790D01*
X3419707Y27911787D01*
X3308213Y27800293D01*
X3308210Y27800289D01*
X3220609Y27669186D01*
X3220602Y27669173D01*
X3160264Y27523502D01*
X3160261Y27523490D01*
X3129500Y27368847D01*
X1570500Y27368847D01*
X1570500Y29570501D01*
X1590185Y29637540D01*
X1642989Y29683295D01*
X1694500Y29694501D01*
X2487871Y29694501D01*
X2487872Y29694501D01*
X2547483Y29700909D01*
X2682331Y29751204D01*
X2797546Y29837454D01*
X2883796Y29952669D01*
X2934091Y30087517D01*
X2940500Y30147127D01*
X2940499Y31242872D01*
X2934091Y31302483D01*
X2883796Y31437331D01*
X2874975Y31449114D01*
X2850558Y31514577D01*
X2859679Y31570872D01*
X2902051Y31673165D01*
X2922367Y31775299D01*
X2940500Y31866457D01*
X2940500Y32063544D01*
X2938877Y32071701D01*
X2939584Y32079614D01*
X2936808Y32087060D01*
X2942652Y32113919D01*
X2945101Y32141293D01*
X2950354Y32149309D01*
X2951665Y32155332D01*
X2972813Y32183580D01*
X2986423Y32197188D01*
X3047749Y32230668D01*
X3074098Y32233500D01*
X3274431Y32233500D01*
X3274447Y32233499D01*
X3282043Y32233499D01*
X3440155Y32233499D01*
X3440157Y32233499D01*
X3506713Y32251333D01*
X3576559Y32249672D01*
G37*
%TD.AperFunction*%
%TA.AperFunction,Conductor*%
G36*
X9962742Y2319815D02*
G01*
X9983384Y2303181D01*
X10593383Y1693181D01*
X10626868Y1631858D01*
X10621884Y1562166D01*
X10580012Y1506233D01*
X10514548Y1481816D01*
X10505702Y1481500D01*
X8291602Y1481500D01*
X8224563Y1501185D01*
X8178808Y1553989D01*
X8168864Y1623147D01*
X8197889Y1686703D01*
X8256667Y1724477D01*
X8267411Y1727117D01*
X8300370Y1733674D01*
X8333497Y1740263D01*
X8479179Y1800606D01*
X8610289Y1888211D01*
X8721789Y1999711D01*
X8809394Y2130821D01*
X8864124Y2262953D01*
X8907964Y2317356D01*
X8974258Y2339421D01*
X8978685Y2339500D01*
X9895703Y2339500D01*
X9962742Y2319815D01*
G37*
%TD.AperFunction*%
%TA.AperFunction,Conductor*%
G36*
X27216322Y26356756D02*
G01*
X27219014Y26357045D01*
X27244447Y26349578D01*
X27363503Y26300263D01*
X27473987Y26278287D01*
X27496691Y26273770D01*
X27558602Y26241385D01*
X27593176Y26180670D01*
X27596500Y26152153D01*
X27596500Y14917848D01*
X27576815Y14850809D01*
X27524011Y14805054D01*
X27496692Y14796231D01*
X27363508Y14769739D01*
X27363498Y14769736D01*
X27217827Y14709398D01*
X27217814Y14709391D01*
X27086711Y14621790D01*
X27086707Y14621787D01*
X26975213Y14510293D01*
X26975210Y14510289D01*
X26887609Y14379186D01*
X26887602Y14379173D01*
X26827264Y14233502D01*
X26827261Y14233490D01*
X26796500Y14078847D01*
X26796500Y13921154D01*
X26827261Y13766511D01*
X26827264Y13766499D01*
X26887602Y13620828D01*
X26887609Y13620815D01*
X26975210Y13489712D01*
X26975213Y13489708D01*
X27086707Y13378214D01*
X27086711Y13378211D01*
X27217814Y13290610D01*
X27217827Y13290603D01*
X27363498Y13230265D01*
X27363503Y13230263D01*
X27473987Y13208287D01*
X27496691Y13203770D01*
X27558602Y13171385D01*
X27593176Y13110670D01*
X27596500Y13082153D01*
X27596500Y12314500D01*
X27576815Y12247461D01*
X27524011Y12201706D01*
X27472500Y12190500D01*
X26305254Y12190500D01*
X26264333Y12179536D01*
X26264333Y12179535D01*
X26227065Y12169549D01*
X26152528Y12149577D01*
X26152523Y12149574D01*
X26015604Y12070525D01*
X26015596Y12070519D01*
X25918580Y11973502D01*
X25903794Y11958716D01*
X25903792Y11958714D01*
X25706579Y11761500D01*
X25542898Y11597819D01*
X25481575Y11564334D01*
X25455217Y11561500D01*
X12454500Y11561500D01*
X12387461Y11581185D01*
X12341706Y11633989D01*
X12330500Y11685500D01*
X12330500Y11818845D01*
X12330499Y11818847D01*
X12322053Y11861309D01*
X12299737Y11973497D01*
X12299735Y11973502D01*
X12239397Y12119173D01*
X12239390Y12119186D01*
X12197680Y12181609D01*
X12176802Y12248286D01*
X12195286Y12315667D01*
X12247265Y12362357D01*
X12300782Y12374500D01*
X15755490Y12374500D01*
X15755500Y12374500D01*
X15862956Y12386053D01*
X15886766Y12391233D01*
X15956458Y12386251D01*
X15982017Y12373171D01*
X16000821Y12360606D01*
X16000823Y12360605D01*
X16000825Y12360604D01*
X16142283Y12302011D01*
X16146503Y12300263D01*
X16301153Y12269501D01*
X16301156Y12269500D01*
X16301158Y12269500D01*
X16458844Y12269500D01*
X16458845Y12269501D01*
X16613497Y12300263D01*
X16759179Y12360606D01*
X16780222Y12374668D01*
X16846899Y12395546D01*
X16866755Y12394305D01*
X17004500Y12374500D01*
X17004503Y12374500D01*
X19945990Y12374500D01*
X19946000Y12374500D01*
X20053456Y12386053D01*
X20104967Y12397259D01*
X20139197Y12408653D01*
X20207497Y12431384D01*
X20207501Y12431387D01*
X20207504Y12431387D01*
X20328543Y12509175D01*
X20381347Y12554930D01*
X20475567Y12663664D01*
X20535338Y12794541D01*
X20555023Y12861580D01*
X20555024Y12861584D01*
X20575500Y13004000D01*
X20575500Y13851105D01*
X20582528Y13875041D01*
X20585468Y13899815D01*
X20592202Y13907987D01*
X20595185Y13918144D01*
X20614036Y13934480D01*
X20629905Y13953733D01*
X20642182Y13958868D01*
X20647989Y13963899D01*
X20661637Y13969183D01*
X20668371Y13971343D01*
X20763491Y13990263D01*
X20887274Y14041536D01*
X20892132Y14043093D01*
X20922153Y14043835D01*
X20952011Y14047045D01*
X20959777Y14044765D01*
X20961981Y14044819D01*
X20964210Y14043464D01*
X20977444Y14039578D01*
X21096500Y13990263D01*
X21202476Y13969183D01*
X21251150Y13959501D01*
X21251153Y13959500D01*
X21251155Y13959500D01*
X21408841Y13959500D01*
X21408842Y13959501D01*
X21563494Y13990263D01*
X21682547Y14039577D01*
X21752014Y14047045D01*
X21777447Y14039578D01*
X21896503Y13990263D01*
X22002479Y13969183D01*
X22051153Y13959501D01*
X22051156Y13959500D01*
X22051158Y13959500D01*
X22208844Y13959500D01*
X22208845Y13959501D01*
X22363497Y13990263D01*
X22505490Y14049079D01*
X22574959Y14056547D01*
X22603116Y14046754D01*
X22603411Y14047465D01*
X22754717Y13984793D01*
X22754722Y13984791D01*
X22881863Y13959501D01*
X22909372Y13954029D01*
X22909375Y13954028D01*
X22909377Y13954028D01*
X23067063Y13954028D01*
X23067064Y13954029D01*
X23221716Y13984791D01*
X23367398Y14045134D01*
X23498508Y14132739D01*
X23610008Y14244239D01*
X23622804Y14263391D01*
X23676416Y14308195D01*
X23725907Y14318500D01*
X25232274Y14318500D01*
X25232290Y14318499D01*
X25239886Y14318499D01*
X25397997Y14318499D01*
X25398000Y14318499D01*
X25550728Y14359423D01*
X25605912Y14391284D01*
X25687659Y14438480D01*
X25799463Y14550284D01*
X25799463Y14550286D01*
X25809667Y14560489D01*
X25809671Y14560494D01*
X26728506Y15479329D01*
X26728511Y15479333D01*
X26738714Y15489537D01*
X26738716Y15489537D01*
X26850520Y15601341D01*
X26924653Y15729744D01*
X26929577Y15738272D01*
X26970500Y15891000D01*
X26970500Y16049114D01*
X26970500Y25899057D01*
X26970500Y25899059D01*
X26968476Y25906610D01*
X26968475Y25906612D01*
X26967088Y25911789D01*
X26947950Y25983215D01*
X26929577Y26051784D01*
X26892362Y26116242D01*
X26888644Y26126484D01*
X26887110Y26150913D01*
X26881339Y26174703D01*
X26884960Y26185167D01*
X26884267Y26196216D01*
X26896185Y26217599D01*
X26904192Y26240730D01*
X26912893Y26247574D01*
X26918285Y26257245D01*
X26939870Y26268789D01*
X26959113Y26283921D01*
X26979464Y26289963D01*
X26979898Y26290194D01*
X26980171Y26290173D01*
X26980999Y26290418D01*
X27030494Y26300263D01*
X27149547Y26349577D01*
X27180051Y26352856D01*
X27210253Y26358305D01*
X27216322Y26356756D01*
G37*
%TD.AperFunction*%
%TA.AperFunction,Conductor*%
G36*
X21659935Y25518581D02*
G01*
X21686259Y25498506D01*
X23327181Y23857584D01*
X23360666Y23796261D01*
X23363500Y23769903D01*
X23363500Y18648241D01*
X23343815Y18581202D01*
X23327181Y18560560D01*
X20787181Y16020560D01*
X20725858Y15987075D01*
X20656166Y15992059D01*
X20600233Y16033931D01*
X20575816Y16099395D01*
X20575500Y16108241D01*
X20575500Y18181158D01*
X20595185Y18248197D01*
X20647989Y18293952D01*
X20675309Y18302775D01*
X20739438Y18315532D01*
X20813497Y18330263D01*
X20959179Y18390606D01*
X21090289Y18478211D01*
X21201789Y18589711D01*
X21289394Y18720821D01*
X21349737Y18866503D01*
X21380500Y19021158D01*
X21380500Y19178842D01*
X21380500Y19178845D01*
X21380499Y19178847D01*
X21349738Y19333490D01*
X21349737Y19333497D01*
X21349735Y19333502D01*
X21289397Y19479173D01*
X21289390Y19479186D01*
X21201789Y19610289D01*
X21201786Y19610293D01*
X21090292Y19721787D01*
X21090288Y19721790D01*
X20959185Y19809391D01*
X20959172Y19809398D01*
X20813501Y19869736D01*
X20813491Y19869739D01*
X20675308Y19897226D01*
X20613397Y19929611D01*
X20578823Y19990327D01*
X20575500Y20018843D01*
X20575500Y21265500D01*
X20595185Y21332539D01*
X20647989Y21378294D01*
X20699500Y21389500D01*
X20818844Y21389500D01*
X20818845Y21389501D01*
X20973497Y21420263D01*
X21119179Y21480606D01*
X21250289Y21568211D01*
X21361789Y21679711D01*
X21449394Y21810821D01*
X21509737Y21956503D01*
X21540500Y22111158D01*
X21540500Y22268842D01*
X21540500Y22268845D01*
X21540499Y22268847D01*
X21509738Y22423490D01*
X21509737Y22423497D01*
X21490693Y22469474D01*
X21449397Y22569173D01*
X21449390Y22569186D01*
X21361789Y22700289D01*
X21361786Y22700293D01*
X21250292Y22811787D01*
X21250288Y22811790D01*
X21119185Y22899391D01*
X21119172Y22899398D01*
X20973501Y22959736D01*
X20973489Y22959739D01*
X20818845Y22990500D01*
X20818842Y22990500D01*
X20699500Y22990500D01*
X20632461Y23010185D01*
X20586706Y23062989D01*
X20575500Y23114500D01*
X20575500Y24365500D01*
X20595185Y24432539D01*
X20647989Y24478294D01*
X20699500Y24489500D01*
X20758844Y24489500D01*
X20758845Y24489501D01*
X20913497Y24520263D01*
X21059179Y24580606D01*
X21190289Y24668211D01*
X21301789Y24779711D01*
X21389394Y24910821D01*
X21449737Y25056503D01*
X21480500Y25211158D01*
X21480500Y25368842D01*
X21476961Y25386633D01*
X21483187Y25456222D01*
X21526049Y25511401D01*
X21591938Y25534647D01*
X21659935Y25518581D01*
G37*
%TD.AperFunction*%
%TA.AperFunction,Conductor*%
G36*
X18020842Y46108815D02*
G01*
X18041484Y46092181D01*
X18609181Y45524484D01*
X18642666Y45463161D01*
X18645500Y45436803D01*
X18645500Y41499470D01*
X18645499Y41499452D01*
X18645499Y41333746D01*
X18645498Y41333746D01*
X18645499Y41333743D01*
X18686423Y41181015D01*
X18686424Y41181013D01*
X18686423Y41181013D01*
X18704591Y41149547D01*
X18704593Y41149545D01*
X18704594Y41149543D01*
X18731832Y41102365D01*
X18765479Y41044085D01*
X18884349Y40925215D01*
X18884355Y40925210D01*
X22043803Y37765762D01*
X22077288Y37704439D01*
X22072304Y37634747D01*
X22030432Y37578814D01*
X21980317Y37556464D01*
X21946504Y37549738D01*
X21946498Y37549736D01*
X21800827Y37489398D01*
X21800814Y37489391D01*
X21669711Y37401790D01*
X21669707Y37401787D01*
X21558213Y37290293D01*
X21558210Y37290289D01*
X21470609Y37159186D01*
X21470602Y37159173D01*
X21410264Y37013502D01*
X21410261Y37013490D01*
X21379500Y36858847D01*
X21379500Y36701154D01*
X21410261Y36546511D01*
X21410264Y36546499D01*
X21470602Y36400828D01*
X21470609Y36400815D01*
X21558210Y36269712D01*
X21558213Y36269708D01*
X21669707Y36158214D01*
X21669711Y36158211D01*
X21800814Y36070610D01*
X21800827Y36070603D01*
X21946498Y36010265D01*
X21946503Y36010263D01*
X22020166Y35995611D01*
X22073064Y35985088D01*
X22134975Y35952703D01*
X22169549Y35891988D01*
X22165810Y35822218D01*
X22136554Y35775790D01*
X21523481Y35162718D01*
X21523475Y35162710D01*
X21480870Y35088914D01*
X21480870Y35088913D01*
X21444423Y35025785D01*
X21403499Y34873057D01*
X21403499Y34873055D01*
X21403499Y34704954D01*
X21403500Y34704941D01*
X21403500Y26109061D01*
X21403499Y26109057D01*
X21403499Y26051784D01*
X21403499Y25997941D01*
X21383814Y25930902D01*
X21331010Y25885147D01*
X21270545Y25876454D01*
X21261852Y25875204D01*
X21226810Y25891207D01*
X21198296Y25904229D01*
X21191818Y25910261D01*
X21190292Y25911787D01*
X21190287Y25911791D01*
X21059185Y25999391D01*
X21059172Y25999398D01*
X20913501Y26059736D01*
X20913489Y26059739D01*
X20758845Y26090500D01*
X20758842Y26090500D01*
X20699500Y26090500D01*
X20632461Y26110185D01*
X20586706Y26162989D01*
X20575500Y26214500D01*
X20575500Y33027301D01*
X20575500Y33027305D01*
X20564063Y33134226D01*
X20552968Y33185494D01*
X20519177Y33287571D01*
X20441651Y33408779D01*
X20396011Y33461681D01*
X20396008Y33461684D01*
X20287487Y33556131D01*
X20287484Y33556133D01*
X20156736Y33616188D01*
X20089741Y33636018D01*
X20089739Y33636019D01*
X20089734Y33636020D01*
X20089731Y33636021D01*
X19947373Y33656803D01*
X19947364Y33656804D01*
X19947362Y33656804D01*
X19921062Y33656861D01*
X18055233Y33660892D01*
X17988236Y33680722D01*
X17942596Y33733624D01*
X17931501Y33784892D01*
X17931501Y34461732D01*
X17931501Y34461734D01*
X17892623Y34606831D01*
X17817515Y34736921D01*
X17711296Y34843140D01*
X17454447Y35099989D01*
X17442249Y35122327D01*
X17426668Y35142450D01*
X17424239Y35155311D01*
X17420962Y35161312D01*
X17418604Y35176810D01*
X17418128Y35182225D01*
X17418128Y35208841D01*
X17413934Y35229923D01*
X17413344Y35236640D01*
X17418941Y35264554D01*
X17421479Y35292901D01*
X17425721Y35298363D01*
X17427082Y35305146D01*
X17446882Y35325603D01*
X17464342Y35348078D01*
X17470864Y35350379D01*
X17475676Y35355350D01*
X17503393Y35361855D01*
X17530232Y35371322D01*
X17536868Y35371500D01*
X19328696Y35371500D01*
X19328698Y35371500D01*
X19473795Y35410378D01*
X19603885Y35485486D01*
X20531279Y36412880D01*
X20606387Y36542970D01*
X20645265Y36688067D01*
X20645265Y36838283D01*
X20645265Y37503570D01*
X20606387Y37648667D01*
X20531279Y37778757D01*
X20425060Y37884976D01*
X19913571Y38396465D01*
X19898149Y38415256D01*
X19868398Y38459782D01*
X19756903Y38571277D01*
X19756899Y38571280D01*
X19625796Y38658881D01*
X19625783Y38658888D01*
X19480112Y38719226D01*
X19480100Y38719229D01*
X19325456Y38749990D01*
X19325453Y38749990D01*
X19167769Y38749990D01*
X19167766Y38749990D01*
X19013121Y38719229D01*
X19013109Y38719226D01*
X18867438Y38658888D01*
X18867425Y38658881D01*
X18736322Y38571280D01*
X18736318Y38571277D01*
X18624823Y38459782D01*
X18602462Y38426316D01*
X18588626Y38405609D01*
X18535016Y38360804D01*
X18485525Y38350500D01*
X16174892Y38350500D01*
X16029793Y38311622D01*
X15899705Y38236514D01*
X15899702Y38236512D01*
X15382181Y37718990D01*
X15320858Y37685505D01*
X15251166Y37690489D01*
X15195233Y37732361D01*
X15170816Y37797825D01*
X15170500Y37806671D01*
X15170500Y39589055D01*
X15170500Y39589057D01*
X15155267Y39645907D01*
X15129577Y39741785D01*
X15083875Y39820943D01*
X15050520Y39878716D01*
X14938716Y39990520D01*
X14938715Y39990521D01*
X14934385Y39994851D01*
X14934374Y39994861D01*
X14358819Y40570416D01*
X14325334Y40631739D01*
X14322500Y40658097D01*
X14322500Y42391156D01*
X14321500Y42406422D01*
X14321500Y42536630D01*
X14341185Y42603669D01*
X14342362Y42605469D01*
X14399394Y42690821D01*
X14459737Y42836503D01*
X14490500Y42991158D01*
X14490500Y43148842D01*
X14490500Y43148845D01*
X14490499Y43148847D01*
X14488751Y43157635D01*
X14459737Y43303497D01*
X14414579Y43412520D01*
X14399397Y43449173D01*
X14399390Y43449186D01*
X14311789Y43580289D01*
X14311786Y43580293D01*
X14200292Y43691787D01*
X14200288Y43691790D01*
X14069185Y43779391D01*
X14069172Y43779398D01*
X13923501Y43839736D01*
X13923489Y43839739D01*
X13768845Y43870500D01*
X13768842Y43870500D01*
X13611158Y43870500D01*
X13610500Y43870500D01*
X13543461Y43890185D01*
X13497706Y43942989D01*
X13486500Y43994500D01*
X13486500Y44965500D01*
X13506185Y45032539D01*
X13558989Y45078294D01*
X13610500Y45089500D01*
X13758844Y45089500D01*
X13758845Y45089501D01*
X13913497Y45120263D01*
X14059179Y45180606D01*
X14190289Y45268211D01*
X14301789Y45379711D01*
X14389394Y45510821D01*
X14449737Y45656503D01*
X14476954Y45793330D01*
X14480638Y45811850D01*
X14513023Y45873761D01*
X14514518Y45875284D01*
X14731416Y46092181D01*
X14792739Y46125666D01*
X14819097Y46128500D01*
X17953803Y46128500D01*
X18020842Y46108815D01*
G37*
%TD.AperFunction*%
%TA.AperFunction,Conductor*%
G36*
X26512242Y42120856D02*
G01*
X26542229Y42114332D01*
X26547244Y42110578D01*
X26549841Y42109815D01*
X26570483Y42093181D01*
X26613184Y42050480D01*
X26679964Y42011925D01*
X26705646Y41992219D01*
X27559181Y41138684D01*
X27592666Y41077361D01*
X27595500Y41051003D01*
X27595500Y32797340D01*
X27575815Y32730301D01*
X27559181Y32709659D01*
X26914481Y32064960D01*
X26914475Y32064952D01*
X26880055Y32005333D01*
X26880055Y32005331D01*
X26835423Y31928028D01*
X26835423Y31928027D01*
X26794499Y31775299D01*
X26794499Y31775297D01*
X26794499Y31607196D01*
X26794500Y31607183D01*
X26794500Y29905399D01*
X26788261Y29884154D01*
X26786682Y29862066D01*
X26778609Y29851283D01*
X26774815Y29838360D01*
X26758081Y29823861D01*
X26744811Y29806133D01*
X26732190Y29801426D01*
X26722011Y29792605D01*
X26700094Y29789454D01*
X26679347Y29781715D01*
X26666185Y29784578D01*
X26652853Y29782661D01*
X26632711Y29791860D01*
X26611074Y29796566D01*
X26593347Y29809837D01*
X26589297Y29811686D01*
X26582820Y29817717D01*
X26516382Y29884154D01*
X26471716Y29928820D01*
X26471713Y29928822D01*
X25848819Y30551716D01*
X25815334Y30613039D01*
X25812500Y30639397D01*
X25812500Y33165104D01*
X25832185Y33232143D01*
X25848815Y33252781D01*
X26456506Y33860473D01*
X26456511Y33860476D01*
X26466714Y33870680D01*
X26466716Y33870680D01*
X26578520Y33982484D01*
X26595641Y34012139D01*
X26639916Y34088825D01*
X26639919Y34088834D01*
X26639925Y34088842D01*
X26657577Y34119415D01*
X26698500Y34272142D01*
X26698500Y34430257D01*
X26698500Y38547902D01*
X26718185Y38614941D01*
X26734823Y38635587D01*
X26740519Y38641283D01*
X26746218Y38651154D01*
X26819577Y38778216D01*
X26860501Y38930943D01*
X26860501Y39089058D01*
X26860501Y39096653D01*
X26860500Y39096671D01*
X26860500Y39510940D01*
X26860501Y39510953D01*
X26860501Y39679056D01*
X26860501Y39679057D01*
X26819577Y39831784D01*
X26779372Y39901422D01*
X26740524Y39968710D01*
X26740518Y39968718D01*
X25746819Y40962417D01*
X25713334Y41023740D01*
X25710500Y41050098D01*
X25710500Y41550235D01*
X25730185Y41617274D01*
X25731398Y41619126D01*
X25819390Y41750815D01*
X25819390Y41750816D01*
X25819394Y41750821D01*
X25879737Y41896503D01*
X25892176Y41959036D01*
X25906231Y42029692D01*
X25938616Y42091603D01*
X25999332Y42126177D01*
X26027848Y42129500D01*
X26482802Y42129500D01*
X26512242Y42120856D01*
G37*
%TD.AperFunction*%
%TA.AperFunction,Conductor*%
G36*
X8237321Y33165632D02*
G01*
X8262878Y33152552D01*
X8380857Y33073720D01*
X8379891Y33072275D01*
X8423843Y33029102D01*
X8439305Y32960964D01*
X8415475Y32895284D01*
X8396938Y32876359D01*
X8397030Y32876267D01*
X7904214Y32383451D01*
X7431285Y31910521D01*
X7319479Y31798715D01*
X7067584Y31546819D01*
X7006261Y31513334D01*
X6979903Y31510500D01*
X6230097Y31510500D01*
X6163058Y31530185D01*
X6142416Y31546819D01*
X5254574Y32434661D01*
X5245510Y32451261D01*
X5232379Y32464869D01*
X5221972Y32494366D01*
X5221089Y32495984D01*
X5220637Y32498152D01*
X5214748Y32527760D01*
X5220977Y32597352D01*
X5263841Y32652529D01*
X5329731Y32675772D01*
X5336366Y32675950D01*
X7309723Y32675950D01*
X7309739Y32675949D01*
X7317335Y32675949D01*
X7475446Y32675949D01*
X7475449Y32675949D01*
X7628177Y32716873D01*
X7678296Y32745811D01*
X7765108Y32795930D01*
X7876912Y32907734D01*
X7876912Y32907736D01*
X7887120Y32917943D01*
X7887122Y32917946D01*
X8106308Y33137133D01*
X8167629Y33170616D01*
X8237321Y33165632D01*
G37*
%TD.AperFunction*%
%TA.AperFunction,Conductor*%
G36*
X5638942Y34840815D02*
G01*
X5684697Y34788011D01*
X5694641Y34718853D01*
X5665616Y34655297D01*
X5659584Y34648819D01*
X5325034Y34314269D01*
X5263711Y34280784D01*
X5237353Y34277950D01*
X3724120Y34277950D01*
X3724104Y34277951D01*
X3716508Y34277951D01*
X3558393Y34277951D01*
X3418186Y34240383D01*
X3405661Y34237026D01*
X3268737Y34157972D01*
X3268731Y34157968D01*
X3043618Y33932854D01*
X2982295Y33899369D01*
X2912603Y33904353D01*
X2856670Y33946225D01*
X2832253Y34011689D01*
X2841376Y34067988D01*
X2901570Y34213311D01*
X2901572Y34213319D01*
X2939999Y34406505D01*
X2940000Y34406508D01*
X2940000Y34603490D01*
X2918355Y34712310D01*
X2924583Y34781901D01*
X2967447Y34837078D01*
X3033337Y34860322D01*
X3039973Y34860500D01*
X5571903Y34860500D01*
X5638942Y34840815D01*
G37*
%TD.AperFunction*%
%TA.AperFunction,Conductor*%
G36*
X8489344Y52057196D02*
G01*
X8522126Y52056025D01*
X8524010Y52054717D01*
X8526300Y52054553D01*
X8552564Y52034892D01*
X8579518Y52016177D01*
X8581080Y52013545D01*
X8582233Y52012681D01*
X8597527Y51985823D01*
X8631386Y51904078D01*
X8631393Y51904065D01*
X8718994Y51772962D01*
X8718997Y51772958D01*
X8830491Y51661464D01*
X8830495Y51661461D01*
X8961601Y51573858D01*
X8961603Y51573857D01*
X8961605Y51573856D01*
X9000952Y51557558D01*
X9055354Y51513720D01*
X9077421Y51447427D01*
X9077500Y51442998D01*
X9077500Y44305460D01*
X9057815Y44238421D01*
X9005011Y44192666D01*
X8935853Y44182722D01*
X8884610Y44202357D01*
X8829183Y44239392D01*
X8829172Y44239398D01*
X8683501Y44299736D01*
X8683489Y44299739D01*
X8528845Y44330500D01*
X8528842Y44330500D01*
X8371158Y44330500D01*
X8371155Y44330500D01*
X8216510Y44299739D01*
X8216498Y44299736D01*
X8070827Y44239398D01*
X8070814Y44239391D01*
X7939711Y44151790D01*
X7939707Y44151787D01*
X7828213Y44040293D01*
X7828207Y44040285D01*
X7740607Y43909182D01*
X7740604Y43909177D01*
X7728378Y43879662D01*
X7716924Y43858233D01*
X7691730Y43820524D01*
X7691727Y43820519D01*
X7634914Y43735493D01*
X7578343Y43598918D01*
X7578340Y43598908D01*
X7549500Y43453921D01*
X7549500Y39034604D01*
X7540062Y38987156D01*
X7530263Y38963497D01*
X7530262Y38963494D01*
X7530260Y38963489D01*
X7499500Y38808847D01*
X7499500Y38651154D01*
X7530261Y38496511D01*
X7530263Y38496503D01*
X7540061Y38472849D01*
X7549500Y38425396D01*
X7549500Y37934000D01*
X7529815Y37866961D01*
X7477011Y37821206D01*
X7425500Y37810000D01*
X7045000Y37810000D01*
X7045000Y37110000D01*
X6545000Y37110000D01*
X6545000Y37648216D01*
X6564685Y37715255D01*
X6607000Y37755603D01*
X6648365Y37779485D01*
X6755515Y37886635D01*
X6831281Y38017865D01*
X6870500Y38164234D01*
X6870500Y38315766D01*
X6831281Y38462135D01*
X6755515Y38593365D01*
X6648365Y38700515D01*
X6562672Y38749990D01*
X6517136Y38776281D01*
X6395614Y38808842D01*
X6370766Y38815500D01*
X6219234Y38815500D01*
X6072863Y38776281D01*
X5941635Y38700515D01*
X5941632Y38700513D01*
X5834487Y38593368D01*
X5834485Y38593365D01*
X5758719Y38462137D01*
X5719500Y38315766D01*
X5719500Y38164235D01*
X5758719Y38017864D01*
X5798153Y37949563D01*
X5834485Y37886635D01*
X5834486Y37886634D01*
X5838549Y37879597D01*
X5836346Y37878326D01*
X5856959Y37825017D01*
X5842923Y37756572D01*
X5794112Y37706580D01*
X5780845Y37700134D01*
X5771324Y37696191D01*
X5771315Y37696186D01*
X5607537Y37586752D01*
X5607533Y37586749D01*
X5468251Y37447467D01*
X5468248Y37447463D01*
X5358814Y37283685D01*
X5358807Y37283672D01*
X5283430Y37101693D01*
X5283430Y37101691D01*
X5275138Y37060000D01*
X6078012Y37060000D01*
X6060795Y37050060D01*
X6004940Y36994205D01*
X5965444Y36925796D01*
X5945000Y36849496D01*
X5945000Y36770504D01*
X5965444Y36694204D01*
X6004940Y36625795D01*
X6060795Y36569940D01*
X6078012Y36560000D01*
X5275138Y36560000D01*
X5284618Y36512337D01*
X5282545Y36511925D01*
X5283091Y36451643D01*
X5245850Y36392525D01*
X5182559Y36362927D01*
X5163803Y36361500D01*
X4096197Y36361500D01*
X4029158Y36381185D01*
X3983403Y36433989D01*
X3973459Y36503147D01*
X3975496Y36512315D01*
X3975382Y36512337D01*
X3984862Y36560000D01*
X3181988Y36560000D01*
X3199205Y36569940D01*
X3255060Y36625795D01*
X3294556Y36694204D01*
X3315000Y36770504D01*
X3315000Y36849496D01*
X3294556Y36925796D01*
X3255060Y36994205D01*
X3199205Y37050060D01*
X3181988Y37060000D01*
X3984862Y37060000D01*
X3976569Y37101691D01*
X3976569Y37101693D01*
X3901192Y37283672D01*
X3901185Y37283685D01*
X3791751Y37447463D01*
X3791748Y37447467D01*
X3652466Y37586749D01*
X3652462Y37586752D01*
X3488684Y37696186D01*
X3488671Y37696193D01*
X3306693Y37771570D01*
X3306681Y37771573D01*
X3113495Y37810000D01*
X2865000Y37810000D01*
X2865000Y37110000D01*
X2365000Y37110000D01*
X2365000Y37810000D01*
X2116504Y37810000D01*
X1923318Y37771573D01*
X1923306Y37771570D01*
X1741328Y37696193D01*
X1741315Y37696186D01*
X1577537Y37586752D01*
X1577533Y37586749D01*
X1438251Y37447467D01*
X1438248Y37447463D01*
X1328814Y37283685D01*
X1328807Y37283672D01*
X1253430Y37101693D01*
X1253430Y37101691D01*
X1245138Y37060000D01*
X2048012Y37060000D01*
X2030795Y37050060D01*
X1974940Y36994205D01*
X1935444Y36925796D01*
X1915000Y36849496D01*
X1915000Y36770504D01*
X1935444Y36694204D01*
X1974940Y36625795D01*
X2030795Y36569940D01*
X2048012Y36560000D01*
X1245138Y36560000D01*
X1253430Y36518310D01*
X1253430Y36518308D01*
X1284598Y36443062D01*
X1292067Y36373593D01*
X1260792Y36311114D01*
X1217492Y36281050D01*
X1205510Y36276087D01*
X1205498Y36276081D01*
X1082584Y36193952D01*
X1082580Y36193949D01*
X712181Y35823549D01*
X650858Y35790064D01*
X581166Y35795048D01*
X525233Y35836920D01*
X500816Y35902384D01*
X500500Y35911230D01*
X500500Y45700000D01*
X1245138Y45700000D01*
X2048012Y45700000D01*
X2030795Y45690060D01*
X1974940Y45634205D01*
X1935444Y45565796D01*
X1915000Y45489496D01*
X1915000Y45410504D01*
X1935444Y45334204D01*
X1974940Y45265795D01*
X2030795Y45209940D01*
X2048012Y45200000D01*
X1245138Y45200000D01*
X1253430Y45158310D01*
X1253430Y45158308D01*
X1328807Y44976329D01*
X1328814Y44976316D01*
X1438248Y44812538D01*
X1438251Y44812534D01*
X1577533Y44673252D01*
X1577537Y44673249D01*
X1741315Y44563815D01*
X1741328Y44563808D01*
X1923306Y44488431D01*
X1923318Y44488428D01*
X2116504Y44450001D01*
X2116508Y44450000D01*
X2365000Y44450000D01*
X2365000Y45150000D01*
X2865000Y45150000D01*
X2865000Y44450000D01*
X3113492Y44450000D01*
X3113495Y44450001D01*
X3306681Y44488428D01*
X3306693Y44488431D01*
X3488671Y44563808D01*
X3488684Y44563815D01*
X3652462Y44673249D01*
X3652466Y44673252D01*
X3791748Y44812534D01*
X3791751Y44812538D01*
X3901185Y44976316D01*
X3901192Y44976329D01*
X3976569Y45158308D01*
X3976569Y45158310D01*
X3984862Y45200000D01*
X3181988Y45200000D01*
X3199205Y45209940D01*
X3255060Y45265795D01*
X3294556Y45334204D01*
X3315000Y45410504D01*
X3315000Y45489496D01*
X3294556Y45565796D01*
X3255060Y45634205D01*
X3199205Y45690060D01*
X3181988Y45700000D01*
X3984862Y45700000D01*
X5275138Y45700000D01*
X6078012Y45700000D01*
X6060795Y45690060D01*
X6004940Y45634205D01*
X5965444Y45565796D01*
X5945000Y45489496D01*
X5945000Y45410504D01*
X5965444Y45334204D01*
X6004940Y45265795D01*
X6060795Y45209940D01*
X6078012Y45200000D01*
X5275138Y45200000D01*
X5283430Y45158310D01*
X5283430Y45158308D01*
X5358807Y44976329D01*
X5358814Y44976316D01*
X5468248Y44812538D01*
X5468251Y44812534D01*
X5607533Y44673252D01*
X5607537Y44673249D01*
X5771315Y44563815D01*
X5771328Y44563808D01*
X5780838Y44559869D01*
X5835243Y44516030D01*
X5857310Y44449736D01*
X5840033Y44382037D01*
X5836350Y44376595D01*
X5758719Y44242137D01*
X5719500Y44095766D01*
X5719500Y43944234D01*
X5736802Y43879662D01*
X5758719Y43797864D01*
X5769381Y43779398D01*
X5834485Y43666635D01*
X5941635Y43559485D01*
X6072865Y43483719D01*
X6219234Y43444500D01*
X6219236Y43444500D01*
X6370764Y43444500D01*
X6370766Y43444500D01*
X6517135Y43483719D01*
X6648365Y43559485D01*
X6755515Y43666635D01*
X6831281Y43797865D01*
X6870500Y43944234D01*
X6870500Y44095766D01*
X6831281Y44242135D01*
X6755515Y44373365D01*
X6648365Y44480515D01*
X6634654Y44488431D01*
X6606998Y44504399D01*
X6558784Y44554967D01*
X6545000Y44611785D01*
X6545000Y45150000D01*
X7045000Y45150000D01*
X7045000Y44450000D01*
X7443492Y44450000D01*
X7443495Y44450001D01*
X7636681Y44488428D01*
X7636693Y44488431D01*
X7818671Y44563808D01*
X7818684Y44563815D01*
X7982462Y44673249D01*
X7982466Y44673252D01*
X8121748Y44812534D01*
X8121751Y44812538D01*
X8231185Y44976316D01*
X8231192Y44976329D01*
X8306569Y45158308D01*
X8306569Y45158310D01*
X8314862Y45200000D01*
X7511988Y45200000D01*
X7529205Y45209940D01*
X7585060Y45265795D01*
X7624556Y45334204D01*
X7645000Y45410504D01*
X7645000Y45489496D01*
X7624556Y45565796D01*
X7585060Y45634205D01*
X7529205Y45690060D01*
X7511988Y45700000D01*
X8314862Y45700000D01*
X8306569Y45741691D01*
X8306569Y45741693D01*
X8231192Y45923672D01*
X8231185Y45923685D01*
X8121751Y46087463D01*
X8121748Y46087467D01*
X7982466Y46226749D01*
X7982462Y46226752D01*
X7818684Y46336186D01*
X7818671Y46336193D01*
X7636693Y46411570D01*
X7636681Y46411573D01*
X7443495Y46450000D01*
X7045000Y46450000D01*
X7045000Y45750000D01*
X6545000Y45750000D01*
X6545000Y46450000D01*
X6146504Y46450000D01*
X5953318Y46411573D01*
X5953306Y46411570D01*
X5771328Y46336193D01*
X5771315Y46336186D01*
X5607537Y46226752D01*
X5607533Y46226749D01*
X5468251Y46087467D01*
X5468248Y46087463D01*
X5358814Y45923685D01*
X5358807Y45923672D01*
X5283430Y45741693D01*
X5283430Y45741691D01*
X5275138Y45700000D01*
X3984862Y45700000D01*
X3976569Y45741691D01*
X3976569Y45741693D01*
X3901192Y45923672D01*
X3901185Y45923685D01*
X3791751Y46087463D01*
X3791748Y46087467D01*
X3652466Y46226749D01*
X3652462Y46226752D01*
X3488684Y46336186D01*
X3488671Y46336193D01*
X3306693Y46411570D01*
X3306681Y46411573D01*
X3113495Y46450000D01*
X2865000Y46450000D01*
X2865000Y45750000D01*
X2365000Y45750000D01*
X2365000Y46450000D01*
X2116504Y46450000D01*
X1923318Y46411573D01*
X1923306Y46411570D01*
X1741328Y46336193D01*
X1741315Y46336186D01*
X1577537Y46226752D01*
X1577533Y46226749D01*
X1438251Y46087467D01*
X1438248Y46087463D01*
X1328814Y45923685D01*
X1328807Y45923672D01*
X1253430Y45741693D01*
X1253430Y45741691D01*
X1245138Y45700000D01*
X500500Y45700000D01*
X500500Y50532298D01*
X520185Y50599337D01*
X572989Y50645092D01*
X642147Y50655036D01*
X648667Y50653920D01*
X705435Y50642628D01*
X721157Y50639500D01*
X721158Y50639500D01*
X878844Y50639500D01*
X878845Y50639501D01*
X1033497Y50670263D01*
X1179179Y50730606D01*
X1179185Y50730610D01*
X1310875Y50818602D01*
X1377553Y50839480D01*
X1379766Y50839500D01*
X6873331Y50839500D01*
X6873347Y50839499D01*
X6880943Y50839499D01*
X7039054Y50839499D01*
X7039057Y50839499D01*
X7191785Y50880423D01*
X7241904Y50909361D01*
X7328716Y50959480D01*
X7440520Y51071284D01*
X7440520Y51071286D01*
X7450728Y51081493D01*
X7450730Y51081496D01*
X8395287Y52026054D01*
X8424075Y52041773D01*
X8452300Y52058519D01*
X8454593Y52058438D01*
X8456608Y52059537D01*
X8489344Y52057196D01*
G37*
%TD.AperFunction*%
%TA.AperFunction,Conductor*%
G36*
X27285942Y55509815D02*
G01*
X27306584Y55493181D01*
X28762181Y54037584D01*
X28795666Y53976261D01*
X28798500Y53949903D01*
X28798500Y46928097D01*
X28778815Y46861058D01*
X28726011Y46815303D01*
X28656853Y46805359D01*
X28593297Y46834384D01*
X28586819Y46840416D01*
X27905590Y47521645D01*
X27905588Y47521648D01*
X27786717Y47640519D01*
X27786716Y47640520D01*
X27672496Y47706465D01*
X27672496Y47706466D01*
X27672491Y47706467D01*
X27664567Y47711042D01*
X27649786Y47719577D01*
X27609017Y47730501D01*
X27497057Y47760501D01*
X27338943Y47760501D01*
X27331347Y47760501D01*
X27331331Y47760500D01*
X27249766Y47760500D01*
X27182727Y47780185D01*
X27180875Y47781398D01*
X27049185Y47869391D01*
X27049172Y47869398D01*
X26903501Y47929736D01*
X26903491Y47929739D01*
X26790308Y47952253D01*
X26728397Y47984638D01*
X26693823Y48045354D01*
X26690500Y48073870D01*
X26690500Y50257059D01*
X26710185Y50324098D01*
X26726819Y50344740D01*
X26841786Y50459708D01*
X26841789Y50459711D01*
X26929394Y50590821D01*
X26989737Y50736503D01*
X27020500Y50891158D01*
X27020500Y51048842D01*
X27020500Y51048845D01*
X27020499Y51048847D01*
X26989738Y51203490D01*
X26989737Y51203497D01*
X26989735Y51203502D01*
X26929397Y51349173D01*
X26929390Y51349186D01*
X26841789Y51480289D01*
X26841786Y51480293D01*
X26730292Y51591787D01*
X26730288Y51591790D01*
X26599185Y51679391D01*
X26599172Y51679398D01*
X26453501Y51739736D01*
X26453489Y51739739D01*
X26298845Y51770500D01*
X26298842Y51770500D01*
X26141158Y51770500D01*
X26141155Y51770500D01*
X25986510Y51739739D01*
X25986498Y51739736D01*
X25840827Y51679398D01*
X25840814Y51679391D01*
X25709711Y51591790D01*
X25709707Y51591787D01*
X25598213Y51480293D01*
X25598210Y51480289D01*
X25510609Y51349186D01*
X25510602Y51349173D01*
X25450264Y51203502D01*
X25450261Y51203490D01*
X25419500Y51048847D01*
X25419500Y50891154D01*
X25450261Y50736511D01*
X25450264Y50736499D01*
X25480061Y50664563D01*
X25489500Y50617111D01*
X25489500Y49354500D01*
X25469815Y49287461D01*
X25417011Y49241706D01*
X25365500Y49230500D01*
X25361155Y49230500D01*
X25206510Y49199739D01*
X25206498Y49199736D01*
X25060827Y49139398D01*
X25060814Y49139391D01*
X24929711Y49051790D01*
X24929707Y49051787D01*
X24818213Y48940293D01*
X24818210Y48940289D01*
X24730609Y48809186D01*
X24730602Y48809173D01*
X24670264Y48663502D01*
X24670261Y48663490D01*
X24639500Y48508847D01*
X24639500Y48351154D01*
X24670261Y48196511D01*
X24670264Y48196499D01*
X24730602Y48050828D01*
X24730609Y48050815D01*
X24796467Y47952253D01*
X24811510Y47929739D01*
X24818602Y47919126D01*
X24824252Y47901080D01*
X24834477Y47885170D01*
X24838928Y47854211D01*
X24839480Y47852449D01*
X24839500Y47850235D01*
X24839500Y47767197D01*
X24819815Y47700158D01*
X24803181Y47679516D01*
X24485456Y47361791D01*
X24424133Y47328306D01*
X24397775Y47325472D01*
X20548870Y47325472D01*
X20521791Y47318217D01*
X20521792Y47318216D01*
X20396143Y47284549D01*
X20396138Y47284546D01*
X20259219Y47205497D01*
X20259211Y47205491D01*
X19814159Y46760438D01*
X19752836Y46726953D01*
X19683144Y46731937D01*
X19638797Y46760438D01*
X18907590Y47491645D01*
X18907588Y47491648D01*
X18788717Y47610519D01*
X18788709Y47610525D01*
X18683470Y47671284D01*
X18683469Y47671285D01*
X18683469Y47671284D01*
X18651785Y47689577D01*
X18499057Y47730501D01*
X18340943Y47730501D01*
X18333347Y47730501D01*
X18333331Y47730500D01*
X14189766Y47730500D01*
X14122727Y47750185D01*
X14120875Y47751398D01*
X13989185Y47839391D01*
X13989172Y47839398D01*
X13862730Y47891771D01*
X13808326Y47935612D01*
X13786261Y48001906D01*
X13795620Y48053782D01*
X13854737Y48196503D01*
X13885500Y48351158D01*
X13885500Y48508842D01*
X13885500Y48508845D01*
X13885499Y48508847D01*
X13854738Y48663490D01*
X13854737Y48663497D01*
X13854735Y48663502D01*
X13794397Y48809173D01*
X13794390Y48809186D01*
X13706789Y48940289D01*
X13706786Y48940293D01*
X13598110Y49048969D01*
X13564625Y49110292D01*
X13561935Y49142624D01*
X13562575Y49155902D01*
X13572501Y49192943D01*
X13572501Y49351057D01*
X13572500Y49351061D01*
X13572500Y53718940D01*
X13572501Y53718953D01*
X13572501Y53887056D01*
X13571932Y53889179D01*
X13531577Y54039784D01*
X13519754Y54060263D01*
X13452524Y54176710D01*
X13452518Y54176718D01*
X12834573Y54794663D01*
X12801088Y54855986D01*
X12800637Y54858153D01*
X12776110Y54981457D01*
X12769737Y55013497D01*
X12738856Y55088050D01*
X12731388Y55157516D01*
X12762663Y55219996D01*
X12822752Y55255648D01*
X12853418Y55259500D01*
X24229903Y55259500D01*
X24296942Y55239815D01*
X24317584Y55223181D01*
X24725425Y54815340D01*
X24758910Y54754017D01*
X24759361Y54751851D01*
X24790261Y54596509D01*
X24790264Y54596499D01*
X24850602Y54450828D01*
X24850609Y54450815D01*
X24938210Y54319712D01*
X24938213Y54319708D01*
X25049707Y54208214D01*
X25049711Y54208211D01*
X25180814Y54120610D01*
X25180827Y54120603D01*
X25280060Y54079500D01*
X25326503Y54060263D01*
X25478157Y54030097D01*
X25481153Y54029501D01*
X25481156Y54029500D01*
X25481158Y54029500D01*
X25638843Y54029500D01*
X25640034Y54029737D01*
X25640671Y54029680D01*
X25644907Y54030097D01*
X25644986Y54029295D01*
X25709626Y54023515D01*
X25764807Y53980657D01*
X25788057Y53914769D01*
X25778797Y53860670D01*
X25730263Y53743497D01*
X25730262Y53743494D01*
X25730262Y53743493D01*
X25730261Y53743490D01*
X25699500Y53588847D01*
X25699500Y53431154D01*
X25730261Y53276511D01*
X25730264Y53276499D01*
X25790602Y53130828D01*
X25790609Y53130815D01*
X25878210Y52999712D01*
X25878213Y52999708D01*
X25989707Y52888214D01*
X25989711Y52888211D01*
X26120814Y52800610D01*
X26120827Y52800603D01*
X26194078Y52770262D01*
X26266503Y52740263D01*
X26421153Y52709501D01*
X26421156Y52709500D01*
X26421158Y52709500D01*
X26578844Y52709500D01*
X26578845Y52709501D01*
X26733497Y52740263D01*
X26879179Y52800606D01*
X27010289Y52888211D01*
X27121789Y52999711D01*
X27209394Y53130821D01*
X27269737Y53276503D01*
X27300500Y53431158D01*
X27300500Y53588842D01*
X27300500Y53588845D01*
X27300499Y53588847D01*
X27294532Y53618847D01*
X27269737Y53743497D01*
X27221203Y53860670D01*
X27209397Y53889173D01*
X27209390Y53889186D01*
X27121398Y54020875D01*
X27100520Y54087553D01*
X27100500Y54089766D01*
X27100500Y54940941D01*
X27100501Y54940954D01*
X27100501Y55109055D01*
X27100501Y55109057D01*
X27059577Y55261785D01*
X27059575Y55261788D01*
X27059575Y55261790D01*
X27059574Y55261791D01*
X27024862Y55321912D01*
X27024860Y55321916D01*
X27012396Y55343504D01*
X26995926Y55411402D01*
X27018779Y55477429D01*
X27073701Y55520618D01*
X27119785Y55529500D01*
X27218903Y55529500D01*
X27285942Y55509815D01*
G37*
%TD.AperFunction*%
%TA.AperFunction,Conductor*%
G36*
X29442539Y59459815D02*
G01*
X29488294Y59407011D01*
X29499500Y59355500D01*
X29499500Y55298097D01*
X29479815Y55231058D01*
X29427011Y55185303D01*
X29357853Y55175359D01*
X29294297Y55204384D01*
X29287819Y55210416D01*
X28006590Y56491645D01*
X28006588Y56491648D01*
X27887717Y56610519D01*
X27887716Y56610520D01*
X27799415Y56661500D01*
X27750785Y56689577D01*
X27598057Y56730501D01*
X27439943Y56730501D01*
X27432347Y56730501D01*
X27432331Y56730500D01*
X27247532Y56730500D01*
X27180493Y56750185D01*
X27134738Y56802989D01*
X27124794Y56872147D01*
X27144430Y56923391D01*
X27146736Y56926844D01*
X27149394Y56930821D01*
X27209737Y57076503D01*
X27240500Y57231158D01*
X27240500Y57388842D01*
X27240500Y57388845D01*
X27240499Y57388847D01*
X27209738Y57543490D01*
X27209737Y57543497D01*
X27209728Y57543519D01*
X27149397Y57689173D01*
X27149390Y57689186D01*
X27061789Y57820289D01*
X27061786Y57820293D01*
X26950292Y57931787D01*
X26950288Y57931790D01*
X26819185Y58019391D01*
X26819172Y58019398D01*
X26673501Y58079736D01*
X26673489Y58079739D01*
X26518845Y58110500D01*
X26518842Y58110500D01*
X26361158Y58110500D01*
X26361155Y58110500D01*
X26206510Y58079739D01*
X26206498Y58079736D01*
X26060827Y58019398D01*
X26060814Y58019391D01*
X25929711Y57931790D01*
X25929707Y57931787D01*
X25818213Y57820293D01*
X25818210Y57820289D01*
X25730609Y57689186D01*
X25730602Y57689173D01*
X25670264Y57543502D01*
X25670261Y57543490D01*
X25639500Y57388847D01*
X25638903Y57382782D01*
X25637395Y57382931D01*
X25630855Y57360657D01*
X25624332Y57330670D01*
X25620577Y57325655D01*
X25619815Y57323058D01*
X25603181Y57302416D01*
X25599584Y57298819D01*
X25538261Y57265334D01*
X25511903Y57262500D01*
X23147848Y57262500D01*
X23080809Y57282185D01*
X23035054Y57334989D01*
X23026231Y57362308D01*
X22999738Y57495492D01*
X22999737Y57495493D01*
X22999737Y57495497D01*
X22979846Y57543519D01*
X22939397Y57641173D01*
X22939390Y57641186D01*
X22851789Y57772289D01*
X22851786Y57772293D01*
X22740292Y57883787D01*
X22740288Y57883790D01*
X22609185Y57971391D01*
X22609172Y57971398D01*
X22463501Y58031736D01*
X22463489Y58031739D01*
X22308845Y58062500D01*
X22308842Y58062500D01*
X22151158Y58062500D01*
X22151155Y58062500D01*
X21996510Y58031739D01*
X21996498Y58031736D01*
X21850827Y57971398D01*
X21850814Y57971391D01*
X21719125Y57883398D01*
X21652447Y57862520D01*
X21650234Y57862500D01*
X21502940Y57862500D01*
X21462019Y57851536D01*
X21462019Y57851535D01*
X21424751Y57841549D01*
X21350214Y57821577D01*
X21350209Y57821574D01*
X21213290Y57742525D01*
X21213282Y57742519D01*
X21170583Y57699819D01*
X21109260Y57666334D01*
X21082902Y57663500D01*
X11708369Y57663500D01*
X11708353Y57663501D01*
X11700757Y57663501D01*
X11542643Y57663501D01*
X11435287Y57634735D01*
X11389910Y57622576D01*
X11389909Y57622575D01*
X11339796Y57593641D01*
X11339795Y57593640D01*
X11319265Y57581787D01*
X11252985Y57543521D01*
X11252982Y57543519D01*
X9197481Y55488018D01*
X9197479Y55488015D01*
X9188497Y55472457D01*
X9158561Y55420606D01*
X9118423Y55351085D01*
X9077499Y55198357D01*
X9077499Y55198355D01*
X9077499Y55030254D01*
X9077500Y55030241D01*
X9077500Y54458097D01*
X9057815Y54391058D01*
X9041181Y54370416D01*
X6747584Y52076819D01*
X6686261Y52043334D01*
X6659903Y52040500D01*
X1379766Y52040500D01*
X1312727Y52060185D01*
X1310875Y52061398D01*
X1179185Y52149391D01*
X1179172Y52149398D01*
X1033501Y52209736D01*
X1033489Y52209739D01*
X878845Y52240500D01*
X878842Y52240500D01*
X721158Y52240500D01*
X721155Y52240500D01*
X648691Y52226086D01*
X579100Y52232313D01*
X523922Y52275176D01*
X500678Y52341066D01*
X500500Y52347703D01*
X500500Y53618847D01*
X3859500Y53618847D01*
X3859500Y53461154D01*
X3890261Y53306511D01*
X3890264Y53306499D01*
X3950602Y53160828D01*
X3950609Y53160815D01*
X4038210Y53029712D01*
X4038213Y53029708D01*
X4149707Y52918214D01*
X4149711Y52918211D01*
X4280814Y52830610D01*
X4280827Y52830603D01*
X4398090Y52782032D01*
X4426503Y52770263D01*
X4577312Y52740265D01*
X4581153Y52739501D01*
X4581156Y52739500D01*
X4581158Y52739500D01*
X4738844Y52739500D01*
X4738845Y52739501D01*
X4893497Y52770263D01*
X5039179Y52830606D01*
X5170289Y52918211D01*
X5281789Y53029711D01*
X5369394Y53160821D01*
X5429737Y53306503D01*
X5460500Y53461158D01*
X5460500Y53618842D01*
X5460500Y53618845D01*
X5460499Y53618847D01*
X5440589Y53718940D01*
X5429737Y53773497D01*
X5382700Y53887056D01*
X5369397Y53919173D01*
X5369390Y53919186D01*
X5281789Y54050289D01*
X5281786Y54050293D01*
X5170292Y54161787D01*
X5170288Y54161790D01*
X5039185Y54249391D01*
X5039172Y54249398D01*
X4893501Y54309736D01*
X4893489Y54309739D01*
X4738845Y54340500D01*
X4738842Y54340500D01*
X4581158Y54340500D01*
X4581155Y54340500D01*
X4426510Y54309739D01*
X4426498Y54309736D01*
X4280827Y54249398D01*
X4280814Y54249391D01*
X4149711Y54161790D01*
X4149707Y54161787D01*
X4038213Y54050293D01*
X4038210Y54050289D01*
X3950609Y53919186D01*
X3950602Y53919173D01*
X3890264Y53773502D01*
X3890261Y53773490D01*
X3859500Y53618847D01*
X500500Y53618847D01*
X500500Y54981457D01*
X1359499Y54981457D01*
X1397947Y54788171D01*
X1397950Y54788161D01*
X1473364Y54606093D01*
X1473371Y54606080D01*
X1582860Y54442219D01*
X1582863Y54442215D01*
X1722214Y54302864D01*
X1722218Y54302861D01*
X1886079Y54193372D01*
X1886092Y54193365D01*
X2068160Y54117951D01*
X2068165Y54117949D01*
X2068169Y54117949D01*
X2068170Y54117948D01*
X2261456Y54079500D01*
X2261459Y54079500D01*
X2458543Y54079500D01*
X2588582Y54105368D01*
X2651835Y54117949D01*
X2833914Y54193368D01*
X2997782Y54302861D01*
X3137139Y54442218D01*
X3246632Y54606086D01*
X3322051Y54788165D01*
X3336110Y54858842D01*
X3360500Y54981457D01*
X3360500Y55178544D01*
X3322052Y55371830D01*
X3322051Y55371831D01*
X3322051Y55371835D01*
X3301849Y55420607D01*
X3246635Y55553908D01*
X3246628Y55553921D01*
X3137139Y55717782D01*
X3137136Y55717786D01*
X2997785Y55857137D01*
X2997781Y55857140D01*
X2833920Y55966629D01*
X2833907Y55966636D01*
X2651839Y56042050D01*
X2651829Y56042053D01*
X2458543Y56080500D01*
X2458541Y56080500D01*
X2261459Y56080500D01*
X2261457Y56080500D01*
X2068170Y56042053D01*
X2068160Y56042050D01*
X1886092Y55966636D01*
X1886079Y55966629D01*
X1722218Y55857140D01*
X1722214Y55857137D01*
X1582863Y55717786D01*
X1582860Y55717782D01*
X1473371Y55553921D01*
X1473364Y55553908D01*
X1397950Y55371840D01*
X1397947Y55371830D01*
X1359500Y55178544D01*
X1359500Y55178541D01*
X1359500Y54981459D01*
X1359500Y54981457D01*
X1359499Y54981457D01*
X500500Y54981457D01*
X500500Y57038847D01*
X3689500Y57038847D01*
X3689500Y56881154D01*
X3720261Y56726511D01*
X3720264Y56726499D01*
X3780602Y56580828D01*
X3780609Y56580815D01*
X3868210Y56449712D01*
X3868213Y56449708D01*
X3979707Y56338214D01*
X3979711Y56338211D01*
X4110814Y56250610D01*
X4110827Y56250603D01*
X4256498Y56190265D01*
X4256503Y56190263D01*
X4411153Y56159501D01*
X4411156Y56159500D01*
X4411158Y56159500D01*
X4568844Y56159500D01*
X4568845Y56159501D01*
X4723497Y56190263D01*
X4869179Y56250606D01*
X5000289Y56338211D01*
X5111789Y56449711D01*
X5199394Y56580821D01*
X5259737Y56726503D01*
X5290500Y56881158D01*
X5290500Y57038842D01*
X5290500Y57038845D01*
X5290499Y57038847D01*
X5259737Y57193497D01*
X5244138Y57231156D01*
X5199397Y57339173D01*
X5199390Y57339186D01*
X5111789Y57470289D01*
X5111786Y57470293D01*
X5000292Y57581787D01*
X5000288Y57581790D01*
X4869185Y57669391D01*
X4869172Y57669398D01*
X4723501Y57729736D01*
X4723489Y57729739D01*
X4568845Y57760500D01*
X4568842Y57760500D01*
X4411158Y57760500D01*
X4411155Y57760500D01*
X4256510Y57729739D01*
X4256498Y57729736D01*
X4110827Y57669398D01*
X4110814Y57669391D01*
X3979711Y57581790D01*
X3979707Y57581787D01*
X3868213Y57470293D01*
X3868210Y57470289D01*
X3780609Y57339186D01*
X3780602Y57339173D01*
X3720264Y57193502D01*
X3720261Y57193490D01*
X3689500Y57038847D01*
X500500Y57038847D01*
X500500Y59355500D01*
X520185Y59422539D01*
X572989Y59468294D01*
X624500Y59479500D01*
X29375500Y59479500D01*
X29442539Y59459815D01*
G37*
%TD.AperFunction*%
%TD*%
%TA.AperFunction,Conductor*%
%TO.N,PD_GND*%
G36*
X16966773Y33157741D02*
G01*
X17033766Y33137912D01*
X17079406Y33085010D01*
X17090501Y33033742D01*
X17090501Y31874500D01*
X17070816Y31807461D01*
X17018012Y31761706D01*
X16966501Y31750500D01*
X16379504Y31750500D01*
X16312465Y31770185D01*
X16266710Y31822989D01*
X16256766Y31892147D01*
X16259726Y31906581D01*
X16280500Y31984110D01*
X16280500Y32115894D01*
X16246392Y32243188D01*
X16180500Y32357316D01*
X16087314Y32450502D01*
X15991210Y32505988D01*
X15973187Y32516394D01*
X15909539Y32533448D01*
X15845892Y32550502D01*
X15714108Y32550502D01*
X15586812Y32516394D01*
X15472686Y32450502D01*
X15379004Y32356820D01*
X15317680Y32323336D01*
X15291323Y32320502D01*
X14426196Y32320502D01*
X14426194Y32320502D01*
X14426192Y32320501D01*
X14367957Y32296380D01*
X14367957Y32296379D01*
X14341987Y32285622D01*
X14326773Y32279320D01*
X14326773Y32279319D01*
X13870683Y31823229D01*
X13863898Y31813074D01*
X13862016Y31814331D01*
X13828421Y31772643D01*
X13762127Y31750579D01*
X13757703Y31750500D01*
X12980247Y31750500D01*
X12921770Y31738869D01*
X12921769Y31738868D01*
X12855447Y31694553D01*
X12811132Y31628231D01*
X12811131Y31628230D01*
X12799500Y31569753D01*
X12799500Y29330248D01*
X12811131Y29271771D01*
X12811132Y29271770D01*
X12855447Y29205448D01*
X12921769Y29161133D01*
X12921770Y29161132D01*
X12980247Y29149501D01*
X12980250Y29149500D01*
X12980252Y29149500D01*
X14269750Y29149500D01*
X14269751Y29149501D01*
X14284568Y29152448D01*
X14328229Y29161132D01*
X14328229Y29161133D01*
X14328231Y29161133D01*
X14394552Y29205448D01*
X14394553Y29205449D01*
X14421898Y29246373D01*
X14475510Y29291179D01*
X14544835Y29299886D01*
X14607862Y29269732D01*
X14628102Y29246373D01*
X14655446Y29205449D01*
X14721769Y29161133D01*
X14721770Y29161132D01*
X14780247Y29149501D01*
X14780250Y29149500D01*
X14780252Y29149500D01*
X15815500Y29149500D01*
X15824185Y29146950D01*
X15833147Y29148238D01*
X15857187Y29137260D01*
X15882539Y29129815D01*
X15888466Y29122975D01*
X15896703Y29119213D01*
X15910992Y29096979D01*
X15928294Y29077011D01*
X15930581Y29066497D01*
X15934477Y29060435D01*
X15939500Y29025500D01*
X15939500Y28983938D01*
X15925383Y28931249D01*
X15926719Y28930696D01*
X15923608Y28923186D01*
X15889500Y28795892D01*
X15889500Y28664108D01*
X15922327Y28541592D01*
X15920665Y28471744D01*
X15881502Y28413881D01*
X15817274Y28386377D01*
X15802553Y28385500D01*
X15400247Y28385500D01*
X15341770Y28373869D01*
X15341769Y28373868D01*
X15275447Y28329553D01*
X15232722Y28265609D01*
X15179110Y28220804D01*
X15129620Y28210500D01*
X14870380Y28210500D01*
X14803341Y28230185D01*
X14767278Y28265609D01*
X14724552Y28329553D01*
X14658230Y28373868D01*
X14658229Y28373869D01*
X14599752Y28385500D01*
X14599748Y28385500D01*
X14020252Y28385500D01*
X14020247Y28385500D01*
X13961770Y28373869D01*
X13961769Y28373868D01*
X13895447Y28329553D01*
X13852722Y28265609D01*
X13846630Y28260519D01*
X13843333Y28253297D01*
X13820205Y28238434D01*
X13799110Y28220804D01*
X13789735Y28218853D01*
X13784555Y28215523D01*
X13749620Y28210500D01*
X13560380Y28210500D01*
X13493341Y28230185D01*
X13457278Y28265609D01*
X13414552Y28329553D01*
X13348230Y28373868D01*
X13348229Y28373869D01*
X13289752Y28385500D01*
X13289748Y28385500D01*
X12710252Y28385500D01*
X12710247Y28385500D01*
X12651770Y28373869D01*
X12651769Y28373868D01*
X12585447Y28329553D01*
X12541132Y28263231D01*
X12541131Y28263230D01*
X12529500Y28204753D01*
X12529500Y27615248D01*
X12541131Y27556771D01*
X12541132Y27556770D01*
X12585447Y27490448D01*
X12644391Y27451063D01*
X12689196Y27397451D01*
X12699500Y27347961D01*
X12699500Y26092040D01*
X12679815Y26025001D01*
X12644392Y25988939D01*
X12585448Y25949554D01*
X12541132Y25883231D01*
X12541131Y25883230D01*
X12529500Y25824753D01*
X12529500Y25235248D01*
X12541131Y25176771D01*
X12541132Y25176770D01*
X12585447Y25110448D01*
X12651769Y25066133D01*
X12651770Y25066132D01*
X12710247Y25054501D01*
X12710250Y25054500D01*
X12710252Y25054500D01*
X13289750Y25054500D01*
X13289751Y25054501D01*
X13304568Y25057448D01*
X13348229Y25066132D01*
X13348229Y25066133D01*
X13348231Y25066133D01*
X13414552Y25110448D01*
X13457278Y25174392D01*
X13463369Y25179482D01*
X13466667Y25186703D01*
X13489794Y25201567D01*
X13510890Y25219196D01*
X13520264Y25221148D01*
X13525445Y25224477D01*
X13560380Y25229500D01*
X13749620Y25229500D01*
X13816659Y25209815D01*
X13852722Y25174391D01*
X13895447Y25110448D01*
X13961769Y25066133D01*
X13961770Y25066132D01*
X14020247Y25054501D01*
X14020250Y25054500D01*
X14020252Y25054500D01*
X14599750Y25054500D01*
X14599751Y25054501D01*
X14614568Y25057448D01*
X14658229Y25066132D01*
X14658229Y25066133D01*
X14658231Y25066133D01*
X14724552Y25110448D01*
X14767278Y25174392D01*
X14820890Y25219196D01*
X14870380Y25229500D01*
X15129620Y25229500D01*
X15196659Y25209815D01*
X15232722Y25174391D01*
X15275447Y25110448D01*
X15341769Y25066133D01*
X15341770Y25066132D01*
X15400247Y25054501D01*
X15400250Y25054500D01*
X15400252Y25054500D01*
X15979750Y25054500D01*
X15979751Y25054501D01*
X15994568Y25057448D01*
X16038229Y25066132D01*
X16038231Y25066133D01*
X16090890Y25101319D01*
X16157567Y25122198D01*
X16224948Y25103714D01*
X16271638Y25051736D01*
X16275963Y25041553D01*
X16286644Y25012916D01*
X16286649Y25012907D01*
X16372809Y24897813D01*
X16372812Y24897810D01*
X16487906Y24811650D01*
X16487913Y24811646D01*
X16622620Y24761404D01*
X16622627Y24761402D01*
X16682155Y24755001D01*
X16682172Y24755000D01*
X16750000Y24755000D01*
X17250000Y24755000D01*
X17317828Y24755000D01*
X17317844Y24755001D01*
X17377372Y24761402D01*
X17377379Y24761404D01*
X17512086Y24811646D01*
X17512093Y24811650D01*
X17627187Y24897810D01*
X17627190Y24897813D01*
X17713350Y25012907D01*
X17713354Y25012914D01*
X17763596Y25147621D01*
X17763598Y25147628D01*
X17769999Y25207156D01*
X17770000Y25207173D01*
X17770000Y25280000D01*
X17250000Y25280000D01*
X17250000Y24755000D01*
X16750000Y24755000D01*
X16750000Y25780000D01*
X17250000Y25780000D01*
X17770000Y25780000D01*
X17770000Y25852828D01*
X17769999Y25852845D01*
X17763598Y25912373D01*
X17763596Y25912380D01*
X17713354Y26047087D01*
X17713350Y26047094D01*
X17627190Y26162188D01*
X17627187Y26162191D01*
X17512093Y26248351D01*
X17512086Y26248355D01*
X17377379Y26298597D01*
X17377372Y26298599D01*
X17317844Y26305000D01*
X17250000Y26305000D01*
X17250000Y25780000D01*
X16750000Y25780000D01*
X16750000Y26305000D01*
X16682155Y26305000D01*
X16622627Y26298599D01*
X16622620Y26298597D01*
X16487913Y26248355D01*
X16487906Y26248351D01*
X16372812Y26162191D01*
X16372809Y26162188D01*
X16286649Y26047094D01*
X16286645Y26047086D01*
X16275963Y26018447D01*
X16234091Y25962515D01*
X16168626Y25938099D01*
X16100353Y25952952D01*
X16090891Y25958681D01*
X16038230Y25993868D01*
X16038229Y25993869D01*
X15979752Y26005500D01*
X15979748Y26005500D01*
X15400252Y26005500D01*
X15400247Y26005500D01*
X15341770Y25993869D01*
X15341769Y25993868D01*
X15275447Y25949553D01*
X15232722Y25885609D01*
X15179110Y25840804D01*
X15129620Y25830500D01*
X14870380Y25830500D01*
X14803341Y25850185D01*
X14767278Y25885609D01*
X14724552Y25949553D01*
X14658230Y25993868D01*
X14658229Y25993869D01*
X14599752Y26005500D01*
X14599748Y26005500D01*
X14020252Y26005500D01*
X14020247Y26005500D01*
X13961770Y25993869D01*
X13961769Y25993868D01*
X13895447Y25949553D01*
X13852722Y25885609D01*
X13846630Y25880519D01*
X13843333Y25873297D01*
X13820205Y25858434D01*
X13799110Y25840804D01*
X13789735Y25838853D01*
X13784555Y25835523D01*
X13749620Y25830500D01*
X13560380Y25830500D01*
X13493341Y25850185D01*
X13457278Y25885609D01*
X13414551Y25949554D01*
X13355608Y25988939D01*
X13310804Y26042551D01*
X13300500Y26092040D01*
X13300500Y27347961D01*
X13320185Y27415000D01*
X13336288Y27435109D01*
X13346921Y27445873D01*
X13348231Y27446133D01*
X13414552Y27490448D01*
X13458867Y27556769D01*
X13459468Y27559794D01*
X13472168Y27572648D01*
X13492796Y27584076D01*
X13510890Y27599196D01*
X13525636Y27602267D01*
X13533287Y27606504D01*
X13542953Y27605872D01*
X13560380Y27609500D01*
X13749620Y27609500D01*
X13816659Y27589815D01*
X13852722Y27554391D01*
X13895447Y27490448D01*
X13961769Y27446133D01*
X13961770Y27446132D01*
X14020247Y27434501D01*
X14020250Y27434500D01*
X14020252Y27434500D01*
X14599750Y27434500D01*
X14599751Y27434501D01*
X14614568Y27437448D01*
X14658229Y27446132D01*
X14658229Y27446133D01*
X14658231Y27446133D01*
X14724552Y27490448D01*
X14767278Y27554392D01*
X14820890Y27599196D01*
X14870380Y27609500D01*
X15129620Y27609500D01*
X15196659Y27589815D01*
X15232722Y27554391D01*
X15275447Y27490448D01*
X15341769Y27446133D01*
X15341770Y27446132D01*
X15400247Y27434501D01*
X15400250Y27434500D01*
X15400252Y27434500D01*
X15979750Y27434500D01*
X15979751Y27434501D01*
X15994568Y27437448D01*
X16038229Y27446132D01*
X16038229Y27446133D01*
X16038231Y27446133D01*
X16104552Y27490448D01*
X16147278Y27554392D01*
X16153369Y27559482D01*
X16156667Y27566703D01*
X16179794Y27581567D01*
X16200890Y27599196D01*
X16210264Y27601148D01*
X16215445Y27604477D01*
X16250380Y27609500D01*
X16439620Y27609500D01*
X16506659Y27589815D01*
X16542722Y27554391D01*
X16585447Y27490448D01*
X16651769Y27446133D01*
X16651770Y27446132D01*
X16710247Y27434501D01*
X16710250Y27434500D01*
X16710252Y27434500D01*
X17289750Y27434500D01*
X17289751Y27434501D01*
X17304568Y27437448D01*
X17348229Y27446132D01*
X17348229Y27446133D01*
X17348231Y27446133D01*
X17414552Y27490448D01*
X17458867Y27556769D01*
X17458867Y27556771D01*
X17458868Y27556771D01*
X17470499Y27615248D01*
X17470500Y27615250D01*
X17470500Y28204751D01*
X17470499Y28204753D01*
X17458868Y28263229D01*
X17457278Y28265609D01*
X17442067Y28288374D01*
X17432580Y28318670D01*
X17421485Y28348419D01*
X17422214Y28351773D01*
X17421189Y28355048D01*
X17429587Y28385666D01*
X17436337Y28416692D01*
X17439116Y28420406D01*
X17439672Y28422429D01*
X17457485Y28444942D01*
X17515726Y28503182D01*
X17577049Y28536666D01*
X17603406Y28539500D01*
X17735890Y28539500D01*
X17735892Y28539500D01*
X17863186Y28573608D01*
X17977314Y28639500D01*
X18070500Y28732686D01*
X18136392Y28846814D01*
X18170500Y28974108D01*
X18170500Y29105892D01*
X18136392Y29233186D01*
X18070500Y29347314D01*
X17977314Y29440500D01*
X17920250Y29473446D01*
X17863187Y29506392D01*
X17799539Y29523446D01*
X17735892Y29540500D01*
X17604108Y29540500D01*
X17476814Y29506392D01*
X17476813Y29506392D01*
X17476811Y29506391D01*
X17476810Y29506391D01*
X17386500Y29454250D01*
X17318600Y29437777D01*
X17252573Y29460630D01*
X17209382Y29515551D01*
X17200500Y29561637D01*
X17200500Y30078708D01*
X17206131Y30097888D01*
X17206845Y30117867D01*
X17215775Y30130729D01*
X17220185Y30145747D01*
X17235290Y30158836D01*
X17246693Y30175259D01*
X17270643Y30189470D01*
X17272989Y30191502D01*
X17277047Y30193269D01*
X17302338Y30203745D01*
X17302338Y30203746D01*
X17302340Y30203746D01*
X17343226Y30220681D01*
X17590320Y30467775D01*
X17620164Y30539826D01*
X17631501Y30567195D01*
X17631501Y30688121D01*
X17632244Y30694877D01*
X17643182Y30721105D01*
X17651186Y30748362D01*
X17656453Y30752927D01*
X17659138Y30759363D01*
X17682522Y30775516D01*
X17703990Y30794117D01*
X17710889Y30795110D01*
X17716627Y30799072D01*
X17745026Y30800018D01*
X17773148Y30804061D01*
X17779489Y30801165D01*
X17786458Y30801397D01*
X17810859Y30786839D01*
X17836704Y30775036D01*
X17843182Y30769004D01*
X17862686Y30749500D01*
X17976814Y30683608D01*
X18104108Y30649500D01*
X18104110Y30649500D01*
X18235890Y30649500D01*
X18235892Y30649500D01*
X18363186Y30683608D01*
X18477314Y30749500D01*
X18570500Y30842686D01*
X18636392Y30956814D01*
X18670500Y31084108D01*
X18670500Y31215892D01*
X18636392Y31343186D01*
X18570500Y31457314D01*
X18477314Y31550500D01*
X18420250Y31583446D01*
X18363187Y31616392D01*
X18299539Y31633446D01*
X18235892Y31650500D01*
X18104108Y31650500D01*
X17976812Y31616392D01*
X17862686Y31550500D01*
X17862683Y31550498D01*
X17843182Y31530996D01*
X17781859Y31497511D01*
X17712167Y31502495D01*
X17656234Y31544367D01*
X17631817Y31609831D01*
X17631501Y31618677D01*
X17631501Y33032037D01*
X17651186Y33099076D01*
X17703990Y33144831D01*
X17755765Y33156037D01*
X19946270Y33151305D01*
X20013265Y33131475D01*
X20058905Y33078573D01*
X20070000Y33027305D01*
X20070000Y14993296D01*
X20063704Y14961573D01*
X20065706Y14961036D01*
X20063603Y14953188D01*
X20063602Y14953186D01*
X20029494Y14825892D01*
X20029494Y14694108D01*
X20034853Y14674109D01*
X20065706Y14558962D01*
X20063671Y14558417D01*
X20070000Y14526703D01*
X20070000Y13004000D01*
X20050315Y12936961D01*
X19997511Y12891206D01*
X19946000Y12880000D01*
X17004500Y12880000D01*
X16937461Y12899685D01*
X16891706Y12952489D01*
X16880500Y13004000D01*
X16880500Y13135890D01*
X16880500Y13135892D01*
X16846392Y13263186D01*
X16780500Y13377314D01*
X16687314Y13470500D01*
X16630250Y13503446D01*
X16573187Y13536392D01*
X16509539Y13553446D01*
X16445892Y13570500D01*
X16314108Y13570500D01*
X16186812Y13536392D01*
X16072686Y13470500D01*
X16072683Y13470498D01*
X15979502Y13377317D01*
X15979500Y13377314D01*
X15913608Y13263188D01*
X15879500Y13135892D01*
X15879500Y13004000D01*
X15859815Y12936961D01*
X15807011Y12891206D01*
X15755500Y12880000D01*
X10288168Y12880000D01*
X10221129Y12899685D01*
X10175374Y12952489D01*
X10164168Y13004324D01*
X10168150Y14526703D01*
X10169995Y15232186D01*
X10189855Y15299173D01*
X10242779Y15344790D01*
X10311963Y15354552D01*
X10355994Y15339249D01*
X10424011Y15299979D01*
X10500438Y15279500D01*
X10579562Y15279500D01*
X12675500Y15279500D01*
X12742539Y15259815D01*
X12788294Y15207011D01*
X12799500Y15155500D01*
X12799500Y14460248D01*
X12811131Y14401771D01*
X12811132Y14401770D01*
X12855447Y14335448D01*
X12921769Y14291133D01*
X12921770Y14291132D01*
X12980247Y14279501D01*
X12980250Y14279500D01*
X12980252Y14279500D01*
X14269750Y14279500D01*
X14269751Y14279501D01*
X14284568Y14282448D01*
X14328229Y14291132D01*
X14328229Y14291133D01*
X14328231Y14291133D01*
X14394552Y14335448D01*
X14397260Y14339500D01*
X14421898Y14376373D01*
X14475510Y14421179D01*
X14544835Y14429886D01*
X14607862Y14399732D01*
X14628102Y14376373D01*
X14655446Y14335449D01*
X14721769Y14291133D01*
X14721770Y14291132D01*
X14780247Y14279501D01*
X14780250Y14279500D01*
X14780252Y14279500D01*
X17019750Y14279500D01*
X17019751Y14279501D01*
X17034568Y14282448D01*
X17078229Y14291132D01*
X17078229Y14291133D01*
X17078231Y14291133D01*
X17144552Y14335448D01*
X17188867Y14401769D01*
X17188867Y14401771D01*
X17188868Y14401771D01*
X17200499Y14460248D01*
X17200500Y14460250D01*
X17200500Y14805892D01*
X18429500Y14805892D01*
X18429500Y14674109D01*
X18463608Y14546813D01*
X18475219Y14526703D01*
X18529500Y14432686D01*
X18622686Y14339500D01*
X18736814Y14273608D01*
X18864108Y14239500D01*
X18864110Y14239500D01*
X18995890Y14239500D01*
X18995892Y14239500D01*
X19123186Y14273608D01*
X19237314Y14339500D01*
X19330500Y14432686D01*
X19396392Y14546814D01*
X19430500Y14674108D01*
X19430500Y14805892D01*
X19396392Y14933186D01*
X19330500Y15047314D01*
X19237314Y15140500D01*
X19180250Y15173446D01*
X19123187Y15206392D01*
X19048544Y15226392D01*
X18995892Y15240500D01*
X18864108Y15240500D01*
X18736812Y15206392D01*
X18622686Y15140500D01*
X18622683Y15140498D01*
X18529502Y15047317D01*
X18529500Y15047314D01*
X18463608Y14933188D01*
X18429500Y14805892D01*
X17200500Y14805892D01*
X17200500Y16699751D01*
X17200499Y16699753D01*
X17188868Y16758230D01*
X17188867Y16758231D01*
X17144552Y16824553D01*
X17078230Y16868868D01*
X17078229Y16868869D01*
X17019752Y16880500D01*
X17019748Y16880500D01*
X16949228Y16880500D01*
X16882189Y16900185D01*
X16836434Y16952989D01*
X16826289Y16988315D01*
X16825500Y16994306D01*
X16825500Y16994309D01*
X16794799Y17108886D01*
X16794797Y17108890D01*
X16769731Y17152305D01*
X16769731Y17152304D01*
X16750531Y17185560D01*
X16734059Y17253457D01*
X16750000Y17299516D01*
X16750000Y17315000D01*
X17250000Y17315000D01*
X17317828Y17315000D01*
X17317844Y17315001D01*
X17377372Y17321402D01*
X17377379Y17321404D01*
X17512086Y17371646D01*
X17512093Y17371650D01*
X17627187Y17457810D01*
X17627190Y17457813D01*
X17713350Y17572907D01*
X17713354Y17572914D01*
X17763596Y17707621D01*
X17763598Y17707628D01*
X17769999Y17767156D01*
X17770000Y17767173D01*
X17770000Y17840000D01*
X17250000Y17840000D01*
X17250000Y17315000D01*
X16750000Y17315000D01*
X16750000Y18340000D01*
X17250000Y18340000D01*
X17770000Y18340000D01*
X17770000Y18412828D01*
X17769999Y18412845D01*
X17763598Y18472373D01*
X17763596Y18472380D01*
X17713354Y18607087D01*
X17713350Y18607094D01*
X17627190Y18722188D01*
X17627187Y18722191D01*
X17512093Y18808351D01*
X17512086Y18808355D01*
X17377379Y18858597D01*
X17377372Y18858599D01*
X17317844Y18865000D01*
X17250000Y18865000D01*
X17250000Y18340000D01*
X16750000Y18340000D01*
X16750000Y18865000D01*
X16682155Y18865000D01*
X16622627Y18858599D01*
X16622620Y18858597D01*
X16487913Y18808355D01*
X16487906Y18808351D01*
X16372812Y18722191D01*
X16372809Y18722188D01*
X16286649Y18607094D01*
X16286645Y18607086D01*
X16275963Y18578447D01*
X16234091Y18522515D01*
X16168626Y18498099D01*
X16100353Y18512952D01*
X16090891Y18518681D01*
X16038230Y18553868D01*
X16038229Y18553869D01*
X15979752Y18565500D01*
X15979748Y18565500D01*
X15400252Y18565500D01*
X15400247Y18565500D01*
X15341770Y18553869D01*
X15341769Y18553868D01*
X15275447Y18509553D01*
X15232722Y18445609D01*
X15179110Y18400804D01*
X15129620Y18390500D01*
X14870380Y18390500D01*
X14803341Y18410185D01*
X14767278Y18445609D01*
X14724552Y18509553D01*
X14658230Y18553868D01*
X14658229Y18553869D01*
X14599752Y18565500D01*
X14599748Y18565500D01*
X14020252Y18565500D01*
X14020247Y18565500D01*
X13961770Y18553869D01*
X13961769Y18553868D01*
X13895447Y18509553D01*
X13852722Y18445609D01*
X13846630Y18440519D01*
X13843333Y18433297D01*
X13820205Y18418434D01*
X13799110Y18400804D01*
X13789735Y18398853D01*
X13784555Y18395523D01*
X13749620Y18390500D01*
X13560380Y18390500D01*
X13493341Y18410185D01*
X13457278Y18445609D01*
X13414551Y18509554D01*
X13355608Y18548939D01*
X13310804Y18602551D01*
X13300500Y18652040D01*
X13300500Y19907961D01*
X13320185Y19975000D01*
X13336288Y19995109D01*
X13346921Y20005873D01*
X13348231Y20006133D01*
X13414552Y20050448D01*
X13458867Y20116769D01*
X13459468Y20119794D01*
X13472168Y20132648D01*
X13492796Y20144076D01*
X13510890Y20159196D01*
X13525636Y20162267D01*
X13533287Y20166504D01*
X13542953Y20165872D01*
X13560380Y20169500D01*
X13749620Y20169500D01*
X13816659Y20149815D01*
X13852722Y20114391D01*
X13895447Y20050448D01*
X13961769Y20006133D01*
X13961770Y20006132D01*
X14020247Y19994501D01*
X14020250Y19994500D01*
X14020252Y19994500D01*
X14599750Y19994500D01*
X14599751Y19994501D01*
X14614568Y19997448D01*
X14658229Y20006132D01*
X14658229Y20006133D01*
X14658231Y20006133D01*
X14724552Y20050448D01*
X14767278Y20114392D01*
X14820890Y20159196D01*
X14870380Y20169500D01*
X15129620Y20169500D01*
X15196659Y20149815D01*
X15232722Y20114391D01*
X15275447Y20050448D01*
X15341769Y20006133D01*
X15341770Y20006132D01*
X15400247Y19994501D01*
X15400250Y19994500D01*
X15400252Y19994500D01*
X15979750Y19994500D01*
X15979751Y19994501D01*
X15994568Y19997448D01*
X16038229Y20006132D01*
X16038229Y20006133D01*
X16038231Y20006133D01*
X16104552Y20050448D01*
X16147278Y20114392D01*
X16153369Y20119482D01*
X16156667Y20126703D01*
X16179794Y20141567D01*
X16200890Y20159196D01*
X16210264Y20161148D01*
X16215445Y20164477D01*
X16250380Y20169500D01*
X16439620Y20169500D01*
X16506659Y20149815D01*
X16542722Y20114391D01*
X16585447Y20050448D01*
X16651769Y20006133D01*
X16651770Y20006132D01*
X16710247Y19994501D01*
X16710250Y19994500D01*
X16710252Y19994500D01*
X17289750Y19994500D01*
X17289751Y19994501D01*
X17304568Y19997448D01*
X17348229Y20006132D01*
X17348229Y20006133D01*
X17348231Y20006133D01*
X17414552Y20050448D01*
X17458867Y20116769D01*
X17458867Y20116771D01*
X17458868Y20116771D01*
X17470499Y20175248D01*
X17470500Y20175250D01*
X17470500Y20764751D01*
X17470499Y20764753D01*
X17458868Y20823230D01*
X17458867Y20823231D01*
X17414552Y20889553D01*
X17348230Y20933868D01*
X17348229Y20933869D01*
X17289752Y20945500D01*
X17289748Y20945500D01*
X16710252Y20945500D01*
X16710247Y20945500D01*
X16651770Y20933869D01*
X16651769Y20933868D01*
X16585447Y20889553D01*
X16542722Y20825609D01*
X16536630Y20820519D01*
X16533333Y20813297D01*
X16510205Y20798434D01*
X16489110Y20780804D01*
X16479735Y20778853D01*
X16474555Y20775523D01*
X16439620Y20770500D01*
X16250380Y20770500D01*
X16183341Y20790185D01*
X16147278Y20825609D01*
X16104551Y20889554D01*
X16039466Y20933043D01*
X16037586Y20935292D01*
X16034833Y20936294D01*
X16015325Y20961929D01*
X15994662Y20986655D01*
X15994296Y20989564D01*
X15992522Y20991896D01*
X15989970Y21024009D01*
X15985955Y21055980D01*
X15987149Y21059511D01*
X15986988Y21061546D01*
X15994427Y21081019D01*
X15999061Y21094711D01*
X15999981Y21096430D01*
X16046392Y21176814D01*
X16049728Y21189267D01*
X16056497Y21201898D01*
X16068125Y21213712D01*
X16078110Y21231009D01*
X16490286Y21643184D01*
X16551608Y21676666D01*
X16577966Y21679500D01*
X17019750Y21679500D01*
X17019751Y21679501D01*
X17034568Y21682448D01*
X17078229Y21691132D01*
X17078229Y21691133D01*
X17078231Y21691133D01*
X17144552Y21735448D01*
X17188867Y21801769D01*
X17188867Y21801771D01*
X17188868Y21801771D01*
X17200499Y21860248D01*
X17200500Y21860250D01*
X17200500Y24099751D01*
X17200499Y24099753D01*
X17188868Y24158230D01*
X17188867Y24158231D01*
X17144552Y24224553D01*
X17078230Y24268868D01*
X17078229Y24268869D01*
X17019752Y24280500D01*
X17019748Y24280500D01*
X14780252Y24280500D01*
X14780247Y24280500D01*
X14721770Y24268869D01*
X14721769Y24268868D01*
X14655447Y24224553D01*
X14628102Y24183627D01*
X14574489Y24138822D01*
X14505164Y24130115D01*
X14442137Y24160270D01*
X14421898Y24183627D01*
X14394552Y24224553D01*
X14328230Y24268868D01*
X14328229Y24268869D01*
X14269752Y24280500D01*
X14269748Y24280500D01*
X12980252Y24280500D01*
X12980247Y24280500D01*
X12921770Y24268869D01*
X12921769Y24268868D01*
X12855447Y24224553D01*
X12811132Y24158231D01*
X12811131Y24158230D01*
X12799500Y24099753D01*
X12799500Y23457676D01*
X12779815Y23390637D01*
X12727011Y23344882D01*
X12657853Y23334938D01*
X12594297Y23363963D01*
X12587819Y23369995D01*
X12577316Y23380498D01*
X12577314Y23380500D01*
X12520250Y23413446D01*
X12463187Y23446392D01*
X12399539Y23463446D01*
X12335892Y23480500D01*
X12204108Y23480500D01*
X12076812Y23446392D01*
X11962686Y23380500D01*
X11962683Y23380498D01*
X11869502Y23287317D01*
X11869500Y23287314D01*
X11803608Y23173188D01*
X11769500Y23045892D01*
X11769500Y22914109D01*
X11803608Y22786813D01*
X11836554Y22729750D01*
X11869500Y22672686D01*
X11962686Y22579500D01*
X12076814Y22513608D01*
X12204108Y22479500D01*
X12204110Y22479500D01*
X12335890Y22479500D01*
X12335892Y22479500D01*
X12463186Y22513608D01*
X12577314Y22579500D01*
X12587819Y22590005D01*
X12649142Y22623490D01*
X12718834Y22618506D01*
X12774767Y22576634D01*
X12799184Y22511170D01*
X12799500Y22502324D01*
X12799500Y22037825D01*
X12779815Y21970786D01*
X12727011Y21925031D01*
X12657853Y21915087D01*
X12613501Y21930437D01*
X12603187Y21936392D01*
X12539539Y21953446D01*
X12475892Y21970500D01*
X12344108Y21970500D01*
X12216812Y21936392D01*
X12102686Y21870500D01*
X12102683Y21870498D01*
X12009502Y21777317D01*
X12009500Y21777314D01*
X11943608Y21663188D01*
X11928556Y21607011D01*
X11909500Y21535892D01*
X11909500Y21404108D01*
X11914791Y21384362D01*
X11943608Y21276813D01*
X11970051Y21231013D01*
X12009500Y21162686D01*
X12102686Y21069500D01*
X12216814Y21003608D01*
X12344108Y20969500D01*
X12344110Y20969500D01*
X12419133Y20969500D01*
X12486172Y20949815D01*
X12531927Y20897011D01*
X12541871Y20827853D01*
X12540750Y20821309D01*
X12529500Y20764753D01*
X12529500Y20175248D01*
X12541131Y20116771D01*
X12541132Y20116770D01*
X12585447Y20050448D01*
X12644391Y20011063D01*
X12689196Y19957451D01*
X12699500Y19907961D01*
X12699500Y18652040D01*
X12679815Y18585001D01*
X12644392Y18548939D01*
X12585448Y18509554D01*
X12541132Y18443231D01*
X12541131Y18443230D01*
X12529500Y18384753D01*
X12529500Y17795248D01*
X12541131Y17736771D01*
X12541132Y17736770D01*
X12585447Y17670448D01*
X12651769Y17626133D01*
X12651770Y17626132D01*
X12710247Y17614501D01*
X12710250Y17614500D01*
X12710252Y17614500D01*
X13289750Y17614500D01*
X13289751Y17614501D01*
X13304568Y17617448D01*
X13348229Y17626132D01*
X13348229Y17626133D01*
X13348231Y17626133D01*
X13414552Y17670448D01*
X13457278Y17734392D01*
X13463369Y17739482D01*
X13466667Y17746703D01*
X13489794Y17761567D01*
X13510890Y17779196D01*
X13520264Y17781148D01*
X13525445Y17784477D01*
X13560380Y17789500D01*
X13749620Y17789500D01*
X13816659Y17769815D01*
X13852722Y17734391D01*
X13895447Y17670448D01*
X13961769Y17626133D01*
X13961770Y17626132D01*
X14020247Y17614501D01*
X14020250Y17614500D01*
X14020252Y17614500D01*
X14599750Y17614500D01*
X14599751Y17614501D01*
X14614568Y17617448D01*
X14658229Y17626132D01*
X14658229Y17626133D01*
X14658231Y17626133D01*
X14724552Y17670448D01*
X14767278Y17734392D01*
X14820890Y17779196D01*
X14870380Y17789500D01*
X15129620Y17789500D01*
X15196659Y17769815D01*
X15232722Y17734391D01*
X15275447Y17670448D01*
X15341769Y17626133D01*
X15341770Y17626132D01*
X15400247Y17614501D01*
X15400250Y17614500D01*
X15400252Y17614500D01*
X15572383Y17614500D01*
X15639422Y17594815D01*
X15685177Y17542011D01*
X15695121Y17472853D01*
X15679770Y17428499D01*
X15653608Y17383187D01*
X15653608Y17383186D01*
X15619500Y17255892D01*
X15619500Y17124108D01*
X15642949Y17036591D01*
X15641287Y16966744D01*
X15602125Y16908881D01*
X15537896Y16881377D01*
X15523175Y16880500D01*
X14780247Y16880500D01*
X14721770Y16868869D01*
X14721769Y16868868D01*
X14655447Y16824553D01*
X14628102Y16783627D01*
X14574489Y16738822D01*
X14505164Y16730115D01*
X14442137Y16760270D01*
X14421898Y16783627D01*
X14394552Y16824553D01*
X14328230Y16868868D01*
X14328229Y16868869D01*
X14269752Y16880500D01*
X14269748Y16880500D01*
X12980252Y16880500D01*
X12980247Y16880500D01*
X12921770Y16868869D01*
X12921769Y16868868D01*
X12855447Y16824553D01*
X12811132Y16758231D01*
X12811131Y16758230D01*
X12799500Y16699753D01*
X12799500Y16004500D01*
X12779815Y15937461D01*
X12727011Y15891706D01*
X12675500Y15880500D01*
X10715833Y15880500D01*
X10648794Y15900185D01*
X10628152Y15916819D01*
X10426819Y16118152D01*
X10393334Y16179475D01*
X10390500Y16205833D01*
X10390500Y29180928D01*
X10410185Y29247967D01*
X10462989Y29293722D01*
X10532147Y29303666D01*
X10576498Y29288316D01*
X10665633Y29236854D01*
X10792927Y29202746D01*
X10792929Y29202746D01*
X10924709Y29202746D01*
X10924711Y29202746D01*
X11052005Y29236854D01*
X11166133Y29302746D01*
X11259319Y29395932D01*
X11325211Y29510060D01*
X11359319Y29637354D01*
X11359319Y29735412D01*
X11379004Y29802451D01*
X11395633Y29823089D01*
X11718058Y30145515D01*
X11742351Y30161743D01*
X11741583Y30162893D01*
X11751738Y30169680D01*
X11751742Y30169681D01*
X12162319Y30580258D01*
X12191438Y30650559D01*
X12203500Y30679678D01*
X12203500Y32144570D01*
X12223185Y32211609D01*
X12239819Y32232251D01*
X12458070Y32450502D01*
X12716274Y32708706D01*
X12716274Y32708708D01*
X12716276Y32708709D01*
X12736864Y32758417D01*
X12757455Y32808127D01*
X12757455Y32915737D01*
X12757455Y33042566D01*
X12777140Y33109605D01*
X12829944Y33155360D01*
X12881720Y33166566D01*
X16966773Y33157741D01*
G37*
%TD.AperFunction*%
%TD*%
M02*
