M48
; DRILL file {KiCad 9.0.5} date 2026-01-04T14:55:48+0100
; FORMAT={-:-/ absolute / inch / decimal}
; #@! TF.CreationDate,2026-01-04T14:55:48+01:00
; #@! TF.GenerationSoftware,Kicad,Pcbnew,9.0.5
; #@! TF.FileFunction,Plated,1,4,PTH
FMAT,2
INCH
; #@! TA.AperFunction,Plated,PTH,ComponentDrill
T1C0.0039
; #@! TA.AperFunction,Plated,PTH,ComponentDrill
T2C0.0079
; #@! TA.AperFunction,Plated,PTH,ViaDrill
T3C0.0118
; #@! TA.AperFunction,Plated,PTH,ComponentDrill
T4C0.0236
; #@! TA.AperFunction,Plated,PTH,ComponentDrill
T5C0.0256
%
G90
G05
T1
X0.7156Y1.2433
X0.7313Y1.2433
T2
X0.5291Y0.2511
X0.5291Y0.2078
X0.5291Y0.1645
X0.5724Y0.2511
X0.5724Y0.2078
X0.5724Y0.1645
X0.6157Y0.2511
X0.6157Y0.2078
X0.6157Y0.1645
X0.6516Y2.0303
X0.6516Y1.9752
X0.6791Y2.0579
X0.6791Y2.0028
X0.6791Y1.9476
X0.7067Y2.0303
X0.7067Y1.9752
X0.7343Y2.0579
X0.7343Y2.0028
X0.7343Y1.9476
X0.7618Y2.0303
X0.7618Y1.9752
T3
X0.0315Y2.0252
X0.0618Y1.0744
X0.0618Y0.8299
X0.0618Y0.4392
X0.0689Y0.948
X0.0709Y0.4874
X0.0961Y0.0764
X0.1035Y0.8299
X0.1083Y1.4047
X0.1142Y1.0671
X0.1268Y0.8563
X0.1388Y1.3949
X0.1512Y0.2823
X0.1728Y1.9902
X0.1744Y2.3173
X0.1768Y2.2425
X0.1835Y2.1079
X0.1866Y0.4831
X0.1914Y1.3783
X0.1949Y1.1411
X0.1996Y0.0583
X0.2083Y0.1476
X0.2345Y1.153
X0.2484Y0.7126
X0.2579Y0.5819
X0.2626Y0.772
X0.2713Y0.6685
X0.2756Y1.0347
X0.2811Y1.0658
X0.2819Y0.2425
X0.2858Y1.339
X0.3189Y2.1374
X0.3189Y0.0988
X0.3203Y0.8919
X0.3243Y1.3467
X0.3268Y1.5287
X0.3273Y1.3135
X0.3346Y0.3939
X0.3406Y1.7108
X0.3677Y2.0584
X0.3921Y0.0583
X0.3986Y0.4382
X0.4075Y0.854
X0.4173Y0.9351
X0.4259Y1.3903
X0.4322Y1.0889
X0.4356Y1.1202
X0.4409Y0.9697
X0.4431Y1.3406
X0.4472Y0.4079
X0.4626Y1.2288
X0.4713Y2.0098
X0.4724Y2.1567
X0.4795Y2.1075
X0.4828Y1.29
X0.4835Y0.3031
X0.4839Y1.9567
X0.4878Y2.3083
X0.489Y0.3591
X0.4933Y0.0961
X0.499Y0.9648
X0.5Y1.136
X0.5004Y1.5265
X0.5035Y0.0307
X0.5152Y1.9067
X0.5161Y1.4559
X0.5276Y0.889
X0.5305Y0.9264
X0.5325Y0.6409
X0.5362Y1.2189
X0.5364Y1.1705
X0.5394Y1.5425
X0.5472Y1.8535
X0.5472Y1.8063
X0.5603Y1.2857
X0.565Y0.5563
X0.5748Y1.5435
X0.5758Y1.1331
X0.5768Y1.4549
X0.5846Y1.7128
X0.5915Y0.5307
X0.5955Y0.0961
X0.6043Y1.3644
X0.6132Y1.5425
X0.6142Y0.6764
X0.6329Y0.4618
X0.6378Y0.8457
X0.6435Y1.2898
X0.6447Y0.6429
X0.6476Y1.1705
X0.6491Y1.2187
X0.6524Y0.3539
X0.6624Y1.3801
X0.6654Y1.3488
X0.687Y0.1976
X0.7096Y1.073
X0.7205Y0.0465
X0.7229Y1.1769
X0.7303Y0.9047
X0.7331Y0.3543
X0.7451Y0.077
X0.7486Y1.3517
X0.749Y1.0878
X0.7598Y0.4953
X0.7667Y1.4382
X0.7766Y0.0307
X0.7785Y0.9421
X0.7835Y0.5219
X0.7844Y1.1793
X0.7954Y1.3753
X0.8002Y1.4608
X0.8002Y1.4126
X0.8061Y1.5514
X0.8224Y0.6413
X0.8238Y1.0898
X0.8264Y0.885
X0.8287Y0.763
X0.8353Y1.6664
X0.8356Y0.2709
X0.8425Y0.5504
X0.8612Y1.011
X0.8642Y1.6862
X0.88Y1.7135
X0.8891Y0.5484
X0.8947Y0.3546
X0.9094Y0.763
X0.9094Y0.6882
X0.9134Y0.9156
X0.9134Y0.8457
X0.9301Y0.5514
X0.9518Y0.0612
X0.9518Y0.6173
X0.9603Y0.537
X0.9724Y2.2544
X0.9739Y1.5031
X0.9813Y1.4608
X0.9833Y0.6168
X0.9846Y1.1232
X1.0059Y1.5258
X1.0063Y2.1587
X1.0148Y0.6155
X1.0228Y1.0406
X1.0266Y2.0071
X1.0374Y1.5258
X1.0384Y1.9067
X1.0384Y1.8555
X1.0409Y2.2563
X1.0413Y2.2098
X1.0423Y0.5583
X1.0433Y2.1067
X1.0443Y0.4972
X1.0531Y1.1764
X1.0591Y2.3106
X1.062Y0.6242
X1.0671Y1.1174
X1.0689Y1.5274
X1.0768Y1.0859
X1.0823Y1.4291
X1.0896Y0.3634
X1.1004Y0.5041
X1.1496Y1.2185
T5
X0.0764Y1.3585
X0.0764Y1.3085
X0.0764Y1.2585
X0.0764Y1.2085
T4
G00X0.1191Y1.7913
M15
G01X0.0876Y1.7913
M16
G05
G00X0.1191Y1.4512
M15
G01X0.0876Y1.4512
M16
G05
G00X0.2896Y1.7913
M15
G01X0.2463Y1.7913
M16
G05
G00X0.2896Y1.4512
M15
G01X0.2463Y1.4512
M16
G05
M30
