%TF.GenerationSoftware,KiCad,Pcbnew,9.0.5*%
%TF.CreationDate,2025-12-23T07:57:35+01:00*%
%TF.ProjectId,horsesense,686f7273-6573-4656-9e73-652e6b696361,1.0*%
%TF.SameCoordinates,Original*%
%TF.FileFunction,Copper,L2,Inr*%
%TF.FilePolarity,Positive*%
%FSLAX46Y46*%
G04 Gerber Fmt 4.6, Leading zero omitted, Abs format (unit mm)*
G04 Created by KiCad (PCBNEW 9.0.5) date 2025-12-23 07:57:35*
%MOMM*%
%LPD*%
G01*
G04 APERTURE LIST*
%TA.AperFunction,HeatsinkPad*%
%ADD10C,0.600000*%
%TD*%
%TA.AperFunction,ComponentPad*%
%ADD11C,0.254000*%
%TD*%
%TA.AperFunction,ComponentPad*%
%ADD12R,1.000000X1.000000*%
%TD*%
%TA.AperFunction,ComponentPad*%
%ADD13C,1.000000*%
%TD*%
%TA.AperFunction,HeatsinkPad*%
%ADD14C,0.500000*%
%TD*%
%TA.AperFunction,HeatsinkPad*%
%ADD15O,2.100000X1.000000*%
%TD*%
%TA.AperFunction,HeatsinkPad*%
%ADD16O,1.800000X1.000000*%
%TD*%
%TA.AperFunction,ViaPad*%
%ADD17C,0.600000*%
%TD*%
G04 APERTURE END LIST*
D10*
%TO.N,GND*%
%TO.C,U9*%
X16550000Y51570000D03*
X16550000Y50170000D03*
X17250000Y52270000D03*
X17250000Y50870000D03*
X17250000Y49470000D03*
X17950000Y51570000D03*
X17950000Y50170000D03*
X18650000Y52270000D03*
X18650000Y50870000D03*
X18650000Y49470000D03*
X19350000Y51570000D03*
X19350000Y50170000D03*
%TD*%
D11*
%TO.N,MAX_INT_1_8*%
%TO.C,U1*%
X18175000Y31580000D03*
%TO.N,GPIO1*%
X18575000Y31580000D03*
%TD*%
D12*
%TO.N,+3.3V*%
%TO.C,J4*%
X1940000Y30695000D03*
D13*
%TO.N,Net-(J4-Pin_2)*%
X1940000Y31965000D03*
%TO.N,Net-(J4-Pin_3)*%
X1940000Y33235000D03*
%TO.N,GND*%
X1940000Y34505000D03*
%TD*%
D14*
%TO.N,GND*%
%TO.C,U3*%
X13440000Y4177500D03*
X14540000Y4177500D03*
X15640000Y4177500D03*
X13440000Y5277500D03*
X14540000Y5277500D03*
X15640000Y5277500D03*
X13440000Y6377500D03*
X14540000Y6377500D03*
X15640000Y6377500D03*
%TD*%
D15*
%TO.N,GND*%
%TO.C,J1*%
X6795000Y45450000D03*
D16*
X2615000Y45450000D03*
D15*
X6795000Y36810000D03*
D16*
X2615000Y36810000D03*
%TD*%
D17*
%TO.N,+3.3V*%
X20890000Y16290000D03*
X4490000Y56960000D03*
X12263415Y32766585D03*
X20990000Y22480000D03*
X21050000Y19380000D03*
X2900000Y27105000D03*
X26525000Y12630000D03*
X7260000Y34010000D03*
X20325000Y37105000D03*
X26975000Y15855000D03*
X15575000Y39180000D03*
X1570000Y10880000D03*
X4660000Y53540000D03*
%TO.N,GND*%
X13110000Y36980000D03*
X24175000Y1555000D03*
X20320000Y6930000D03*
X13700000Y39180000D03*
X9960000Y1481000D03*
X5070000Y1481000D03*
X12390000Y58630000D03*
X18361793Y29893207D03*
X26900000Y58690000D03*
X4390000Y50550000D03*
X1800000Y12380000D03*
X4740000Y12270000D03*
X19475000Y36530000D03*
X8312409Y33363938D03*
X21875000Y25680000D03*
X14850000Y43505000D03*
X11360000Y10360000D03*
X8136500Y22655000D03*
X18620000Y9000000D03*
X1570000Y27290000D03*
X1750000Y24080000D03*
X19300000Y12580000D03*
X27950000Y12805000D03*
X12700000Y28855000D03*
X6670000Y19610000D03*
X7000000Y26282500D03*
X4949931Y28984147D03*
X17360000Y1181000D03*
X18550000Y22980000D03*
X2630000Y21080000D03*
X3840000Y7170000D03*
X20925000Y27680000D03*
X14625000Y28780000D03*
X23100000Y17480000D03*
X4430000Y58860000D03*
X24391393Y13638607D03*
X23200000Y21480000D03*
X27490000Y36300000D03*
X4861765Y35008000D03*
X8100000Y54290000D03*
X2440000Y1940000D03*
X26795000Y30955000D03*
X23200000Y23255000D03*
X19900000Y13255000D03*
X12280000Y7700000D03*
X23100000Y19380000D03*
%TO.N,+1.8V*%
X19025000Y27630000D03*
X14650000Y36955000D03*
X24925000Y37105000D03*
%TO.N,VBUS*%
X12790000Y780000D03*
X8300000Y38730000D03*
X8450000Y43530000D03*
%TO.N,+BATT*%
X22724265Y9005735D03*
X16570000Y8990000D03*
%TO.N,Net-(U3-REGN)*%
X8100000Y2510000D03*
X19990000Y780000D03*
%TO.N,Vsys*%
X12420000Y9120000D03*
X5290000Y3750000D03*
X7160000Y6160000D03*
X29200000Y30950000D03*
%TO.N,Net-(IC1-PON)*%
X6310000Y18100000D03*
X1570000Y21080000D03*
%TO.N,SDA*%
X17279527Y2689686D03*
X12290000Y49700000D03*
X6550000Y14780000D03*
X10817515Y35312485D03*
%TO.N,SCL*%
X8500000Y10005000D03*
X11254251Y34050749D03*
X13085000Y48430000D03*
X16346615Y2694517D03*
%TO.N,MAX_INT*%
X20475000Y39405000D03*
X14600000Y39205000D03*
%TO.N,Net-(U9-IO0)*%
X800000Y51440000D03*
X24700000Y57262000D03*
%TO.N,MAX_CS_1_8*%
X16825000Y35055000D03*
X20203067Y34931994D03*
%TO.N,MAX_SCLK_1_8*%
X19013235Y34331994D03*
X16902354Y34258749D03*
%TO.N,INT_BAT*%
X27675000Y9230000D03*
X26450000Y56130000D03*
%TO.N,CE_BAT*%
X17450000Y5020000D03*
X12709000Y38772423D03*
%TO.N,PSEL_BAT*%
X12530000Y2440000D03*
X12000000Y54780000D03*
%TO.N,MAX_INT_1_8*%
X20325000Y35880000D03*
%TO.N,ICM_FSYNC*%
X5956886Y29286713D03*
X12180000Y53530000D03*
%TO.N,GPS_TX*%
X13900000Y45880000D03*
X21400000Y13980000D03*
%TO.N,ICM_INT2*%
X8238221Y34206000D03*
X11970000Y51050000D03*
%TO.N,GPS_RST*%
X25010000Y28530000D03*
X26375000Y48430000D03*
%TO.N,ICM_INT*%
X9340784Y52283250D03*
X2750000Y35680000D03*
%TO.N,GPS_PP1*%
X26075000Y50980000D03*
X23625000Y14005000D03*
%TO.N,FLASH_SCLK*%
X24975710Y15666588D03*
X21951316Y42830000D03*
%TO.N,GPS_SEL*%
X10125000Y11130000D03*
X26375000Y47130000D03*
%TO.N,Net-(J4-Pin_3)*%
X26500000Y53510000D03*
%TO.N,GPS_RX*%
X13900000Y47080000D03*
X22584070Y13930000D03*
%TO.N,ICM_AD0*%
X26440000Y57310000D03*
X3525735Y35429265D03*
%TO.N,Net-(J4-Pin_2)*%
X25560000Y54830000D03*
%TO.N,GPS_FIX*%
X27997000Y38855000D03*
X26475000Y14180000D03*
%TO.N,Net-(U1-PD2_IN)*%
X18025000Y27255000D03*
X19925000Y29955000D03*
%TO.N,Net-(D2-RK)*%
X13620579Y30961000D03*
%TO.N,Net-(D1-K)*%
X13475000Y23530000D03*
%TO.N,Net-(IC1-VCC)*%
X6890000Y16980000D03*
X3220000Y21750000D03*
%TO.N,Net-(U1-PD1_IN)*%
X16200000Y21480000D03*
%TO.N,PD_GND*%
X19775000Y23930000D03*
%TO.N,FLASH_SID0*%
X21215735Y42325735D03*
X24175827Y15680418D03*
%TO.N,FLASH_SID3*%
X25775000Y15632821D03*
X22352316Y43522243D03*
%TO.N,FLASH_CS*%
X27998000Y26705000D03*
X24738000Y38180000D03*
%TO.N,FLASH_SID1*%
X25550000Y38755000D03*
X27500000Y27427685D03*
%TO.N,FLASH_SID2*%
X25996994Y27070000D03*
X27050000Y38830000D03*
%TO.N,+3.3V_LED*%
X12675000Y24505000D03*
X14231885Y32655999D03*
X16075000Y11730000D03*
X16344496Y32762087D03*
X16375000Y16330000D03*
X13400000Y22580000D03*
X16486765Y30955000D03*
%TO.N,Net-(D2-GK)*%
X11200003Y24630000D03*
X15600000Y17180000D03*
X10978456Y27657058D03*
X16450000Y29730000D03*
%TO.N,Net-(D2-BK)*%
X11749899Y31211001D03*
%TO.N,Net-(D3-RK)*%
X7138883Y27070353D03*
X13525000Y15980000D03*
X10350000Y21691027D03*
%TO.N,Net-(D3-BK)*%
X15025000Y13480000D03*
%TO.N,GPIO1*%
X15350000Y34655000D03*
X11064975Y28452369D03*
X10600003Y23752732D03*
%TD*%
%TA.AperFunction,Conductor*%
%TO.N,GND*%
G36*
X29442539Y59459815D02*
G01*
X29488294Y59407011D01*
X29499500Y59355500D01*
X29499500Y31857703D01*
X29479815Y31790664D01*
X29427011Y31744909D01*
X29357853Y31734965D01*
X29351309Y31736086D01*
X29278845Y31750500D01*
X29278842Y31750500D01*
X29121158Y31750500D01*
X29121155Y31750500D01*
X28966510Y31719739D01*
X28966498Y31719736D01*
X28820827Y31659398D01*
X28820814Y31659391D01*
X28689711Y31571790D01*
X28689707Y31571787D01*
X28578213Y31460293D01*
X28578210Y31460289D01*
X28490609Y31329186D01*
X28490602Y31329173D01*
X28430264Y31183502D01*
X28430261Y31183490D01*
X28399500Y31028847D01*
X28399500Y30871154D01*
X28430261Y30716511D01*
X28430264Y30716499D01*
X28490602Y30570828D01*
X28490609Y30570815D01*
X28578210Y30439712D01*
X28578213Y30439708D01*
X28689707Y30328214D01*
X28689711Y30328211D01*
X28820814Y30240610D01*
X28820827Y30240603D01*
X28946612Y30188502D01*
X28966503Y30180263D01*
X29121153Y30149501D01*
X29121156Y30149500D01*
X29121158Y30149500D01*
X29278843Y30149500D01*
X29294564Y30152628D01*
X29351309Y30163915D01*
X29420899Y30157688D01*
X29476077Y30114826D01*
X29499322Y30048937D01*
X29499500Y30042298D01*
X29499500Y604500D01*
X29479815Y537461D01*
X29427011Y491706D01*
X29375500Y480500D01*
X20897703Y480500D01*
X20830664Y500185D01*
X20784909Y552989D01*
X20774965Y622147D01*
X20776086Y628691D01*
X20790499Y701154D01*
X20790500Y701156D01*
X20790500Y858845D01*
X20790499Y858847D01*
X20759738Y1013490D01*
X20759737Y1013497D01*
X20759735Y1013502D01*
X20699397Y1159173D01*
X20699390Y1159186D01*
X20611789Y1290289D01*
X20611786Y1290293D01*
X20500292Y1401787D01*
X20500288Y1401790D01*
X20369185Y1489391D01*
X20369172Y1489398D01*
X20223501Y1549736D01*
X20223489Y1549739D01*
X20068845Y1580500D01*
X20068842Y1580500D01*
X19911158Y1580500D01*
X19911155Y1580500D01*
X19756510Y1549739D01*
X19756498Y1549736D01*
X19610827Y1489398D01*
X19610814Y1489391D01*
X19479711Y1401790D01*
X19479707Y1401787D01*
X19368213Y1290293D01*
X19368210Y1290289D01*
X19280609Y1159186D01*
X19280602Y1159173D01*
X19220264Y1013502D01*
X19220261Y1013490D01*
X19189500Y858847D01*
X19189500Y701154D01*
X19203914Y628691D01*
X19197687Y559100D01*
X19154824Y503922D01*
X19088934Y480678D01*
X19082297Y480500D01*
X13697703Y480500D01*
X13630664Y500185D01*
X13584909Y552989D01*
X13574965Y622147D01*
X13576086Y628691D01*
X13590499Y701154D01*
X13590500Y701156D01*
X13590500Y858845D01*
X13590499Y858847D01*
X13559738Y1013490D01*
X13559737Y1013497D01*
X13559735Y1013502D01*
X13499397Y1159173D01*
X13499390Y1159186D01*
X13411789Y1290289D01*
X13411786Y1290293D01*
X13300292Y1401787D01*
X13300288Y1401790D01*
X13169185Y1489391D01*
X13169172Y1489398D01*
X13023501Y1549736D01*
X13023486Y1549741D01*
X13020411Y1550352D01*
X13018951Y1551116D01*
X13017665Y1551506D01*
X13017739Y1551750D01*
X12958503Y1582742D01*
X12923934Y1643461D01*
X12927680Y1713230D01*
X12968551Y1769899D01*
X12975710Y1775061D01*
X13040289Y1818211D01*
X13151789Y1929711D01*
X13239394Y2060821D01*
X13299737Y2206503D01*
X13330500Y2361158D01*
X13330500Y2518842D01*
X13330500Y2518845D01*
X13330499Y2518847D01*
X13312200Y2610842D01*
X13299737Y2673497D01*
X13270745Y2743490D01*
X13239397Y2819173D01*
X13239390Y2819186D01*
X13151789Y2950289D01*
X13151786Y2950293D01*
X13040292Y3061787D01*
X13040288Y3061790D01*
X12909185Y3149391D01*
X12909172Y3149398D01*
X12763501Y3209736D01*
X12763489Y3209739D01*
X12608845Y3240500D01*
X12608842Y3240500D01*
X12451158Y3240500D01*
X12451155Y3240500D01*
X12296510Y3209739D01*
X12296498Y3209736D01*
X12150827Y3149398D01*
X12150814Y3149391D01*
X12019711Y3061790D01*
X12019707Y3061787D01*
X11908213Y2950293D01*
X11908210Y2950289D01*
X11820609Y2819186D01*
X11820602Y2819173D01*
X11760264Y2673502D01*
X11760261Y2673490D01*
X11729500Y2518847D01*
X11729500Y2361154D01*
X11760261Y2206511D01*
X11760264Y2206499D01*
X11820602Y2060828D01*
X11820609Y2060815D01*
X11908210Y1929712D01*
X11908213Y1929708D01*
X12019707Y1818214D01*
X12019711Y1818211D01*
X12150814Y1730610D01*
X12150827Y1730603D01*
X12296498Y1670265D01*
X12296503Y1670263D01*
X12296507Y1670263D01*
X12296508Y1670262D01*
X12299578Y1669651D01*
X12301037Y1668888D01*
X12302335Y1668494D01*
X12302260Y1668248D01*
X12361489Y1637266D01*
X12396063Y1576550D01*
X12392323Y1506781D01*
X12351456Y1450109D01*
X12344278Y1444932D01*
X12279707Y1401787D01*
X12168213Y1290293D01*
X12168210Y1290289D01*
X12080609Y1159186D01*
X12080602Y1159173D01*
X12020264Y1013502D01*
X12020261Y1013490D01*
X11989500Y858847D01*
X11989500Y701154D01*
X12003914Y628691D01*
X11997687Y559100D01*
X11954824Y503922D01*
X11888934Y480678D01*
X11882297Y480500D01*
X624500Y480500D01*
X557461Y500185D01*
X511706Y552989D01*
X500500Y604500D01*
X500500Y2588847D01*
X7299500Y2588847D01*
X7299500Y2431154D01*
X7330261Y2276511D01*
X7330264Y2276499D01*
X7390602Y2130828D01*
X7390609Y2130815D01*
X7478210Y1999712D01*
X7478213Y1999708D01*
X7589707Y1888214D01*
X7589711Y1888211D01*
X7720814Y1800610D01*
X7720827Y1800603D01*
X7866498Y1740265D01*
X7866503Y1740263D01*
X8002406Y1713230D01*
X8021153Y1709501D01*
X8021156Y1709500D01*
X8021158Y1709500D01*
X8178844Y1709500D01*
X8178845Y1709501D01*
X8333497Y1740263D01*
X8479179Y1800606D01*
X8610289Y1888211D01*
X8721789Y1999711D01*
X8809394Y2130821D01*
X8869737Y2276503D01*
X8900500Y2431158D01*
X8900500Y2588842D01*
X8900500Y2588845D01*
X8900499Y2588847D01*
X8896124Y2610842D01*
X8869737Y2743497D01*
X8857366Y2773364D01*
X8809397Y2889173D01*
X8809390Y2889186D01*
X8721789Y3020289D01*
X8721786Y3020293D01*
X8610292Y3131787D01*
X8610288Y3131790D01*
X8479185Y3219391D01*
X8479172Y3219398D01*
X8333501Y3279736D01*
X8333489Y3279739D01*
X8178845Y3310500D01*
X8178842Y3310500D01*
X8021158Y3310500D01*
X8021155Y3310500D01*
X7866510Y3279739D01*
X7866498Y3279736D01*
X7720827Y3219398D01*
X7720814Y3219391D01*
X7589711Y3131790D01*
X7589707Y3131787D01*
X7478213Y3020293D01*
X7478210Y3020289D01*
X7390609Y2889186D01*
X7390602Y2889173D01*
X7330264Y2743502D01*
X7330261Y2743490D01*
X7299500Y2588847D01*
X500500Y2588847D01*
X500500Y3828847D01*
X4489500Y3828847D01*
X4489500Y3671154D01*
X4520261Y3516511D01*
X4520264Y3516499D01*
X4580602Y3370828D01*
X4580609Y3370815D01*
X4668210Y3239712D01*
X4668213Y3239708D01*
X4779707Y3128214D01*
X4779711Y3128211D01*
X4910814Y3040610D01*
X4910827Y3040603D01*
X5056498Y2980265D01*
X5056503Y2980263D01*
X5211153Y2949501D01*
X5211156Y2949500D01*
X5211158Y2949500D01*
X5368844Y2949500D01*
X5368845Y2949501D01*
X5523497Y2980263D01*
X5669179Y3040606D01*
X5800289Y3128211D01*
X5911789Y3239711D01*
X5999394Y3370821D01*
X6052869Y3499923D01*
X13115975Y3499923D01*
X13221236Y3456322D01*
X13221240Y3456321D01*
X13366126Y3427501D01*
X13366129Y3427500D01*
X13513871Y3427500D01*
X13513873Y3427501D01*
X13658760Y3456321D01*
X13658775Y3456325D01*
X13764024Y3499922D01*
X13764024Y3499923D01*
X14215975Y3499923D01*
X14321236Y3456322D01*
X14321240Y3456321D01*
X14466126Y3427501D01*
X14466129Y3427500D01*
X14613871Y3427500D01*
X14613873Y3427501D01*
X14758760Y3456321D01*
X14758775Y3456325D01*
X14864024Y3499922D01*
X14864024Y3499923D01*
X15315975Y3499923D01*
X15421236Y3456322D01*
X15421240Y3456321D01*
X15566126Y3427501D01*
X15566129Y3427500D01*
X15648157Y3427500D01*
X15715196Y3407815D01*
X15760951Y3355011D01*
X15770895Y3285853D01*
X15741870Y3222297D01*
X15735838Y3215819D01*
X15724828Y3204810D01*
X15724825Y3204806D01*
X15637224Y3073703D01*
X15637217Y3073690D01*
X15576879Y2928019D01*
X15576876Y2928007D01*
X15546115Y2773364D01*
X15546115Y2615671D01*
X15576876Y2461028D01*
X15576879Y2461016D01*
X15637217Y2315345D01*
X15637224Y2315332D01*
X15724825Y2184229D01*
X15724828Y2184225D01*
X15836322Y2072731D01*
X15836326Y2072728D01*
X15967429Y1985127D01*
X15967442Y1985120D01*
X16113113Y1924782D01*
X16113118Y1924780D01*
X16267768Y1894018D01*
X16267771Y1894017D01*
X16267773Y1894017D01*
X16425459Y1894017D01*
X16425460Y1894018D01*
X16580112Y1924780D01*
X16725794Y1985123D01*
X16740562Y1994991D01*
X16807236Y2015871D01*
X16874617Y1997389D01*
X16878333Y1995002D01*
X16900348Y1980292D01*
X16900350Y1980291D01*
X16900354Y1980289D01*
X17034362Y1924782D01*
X17046030Y1919949D01*
X17176393Y1894018D01*
X17200680Y1889187D01*
X17200683Y1889186D01*
X17200685Y1889186D01*
X17358371Y1889186D01*
X17358372Y1889187D01*
X17513024Y1919949D01*
X17658706Y1980292D01*
X17789816Y2067897D01*
X17901316Y2179397D01*
X17988921Y2310507D01*
X18049264Y2456189D01*
X18080027Y2610844D01*
X18080027Y2768528D01*
X18080027Y2768531D01*
X18080026Y2768533D01*
X18049265Y2923176D01*
X18049264Y2923183D01*
X18038363Y2949501D01*
X17988924Y3068859D01*
X17988917Y3068872D01*
X17901316Y3199975D01*
X17901313Y3199979D01*
X17789819Y3311473D01*
X17789815Y3311476D01*
X17658712Y3399077D01*
X17658699Y3399084D01*
X17513028Y3459422D01*
X17513016Y3459425D01*
X17358372Y3490186D01*
X17358369Y3490186D01*
X17200685Y3490186D01*
X17200682Y3490186D01*
X17046037Y3459425D01*
X17046025Y3459422D01*
X16900349Y3399082D01*
X16885574Y3389209D01*
X16818896Y3368333D01*
X16751517Y3386819D01*
X16747797Y3389210D01*
X16725794Y3403912D01*
X16725792Y3403913D01*
X16580116Y3464253D01*
X16580104Y3464256D01*
X16425460Y3495017D01*
X16425457Y3495017D01*
X16267773Y3495017D01*
X16267770Y3495017D01*
X16113125Y3464256D01*
X16113107Y3464251D01*
X16109450Y3462736D01*
X16107383Y3462514D01*
X16107291Y3462486D01*
X16107285Y3462504D01*
X16039980Y3455273D01*
X15977504Y3486554D01*
X15974327Y3489620D01*
X15640001Y3823946D01*
X15640000Y3823946D01*
X15315975Y3499923D01*
X14864024Y3499923D01*
X14540001Y3823946D01*
X14540000Y3823946D01*
X14215975Y3499923D01*
X13764024Y3499923D01*
X13440001Y3823946D01*
X13440000Y3823946D01*
X13115975Y3499923D01*
X6052869Y3499923D01*
X6059737Y3516503D01*
X6090500Y3671158D01*
X6090500Y3828842D01*
X6090500Y3828845D01*
X6090499Y3828847D01*
X6064663Y3958733D01*
X6059737Y3983497D01*
X6009978Y4103627D01*
X5999397Y4129173D01*
X5999390Y4129186D01*
X5959711Y4188570D01*
X5917746Y4251374D01*
X12690000Y4251374D01*
X12690000Y4103627D01*
X12718820Y3958741D01*
X12718822Y3958733D01*
X12762421Y3853476D01*
X13086446Y4177500D01*
X13086446Y4177501D01*
X13066556Y4197391D01*
X13340000Y4197391D01*
X13340000Y4157609D01*
X13355224Y4120855D01*
X13383355Y4092724D01*
X13420109Y4077500D01*
X13459891Y4077500D01*
X13496645Y4092724D01*
X13524776Y4120855D01*
X13540000Y4157609D01*
X13540000Y4177500D01*
X13793554Y4177500D01*
X13990000Y3981054D01*
X14186446Y4177500D01*
X14166555Y4197391D01*
X14440000Y4197391D01*
X14440000Y4157609D01*
X14455224Y4120855D01*
X14483355Y4092724D01*
X14520109Y4077500D01*
X14559891Y4077500D01*
X14596645Y4092724D01*
X14624776Y4120855D01*
X14640000Y4157609D01*
X14640000Y4177500D01*
X14893554Y4177500D01*
X15090000Y3981054D01*
X15286446Y4177500D01*
X15266555Y4197391D01*
X15540000Y4197391D01*
X15540000Y4157609D01*
X15555224Y4120855D01*
X15583355Y4092724D01*
X15620109Y4077500D01*
X15659891Y4077500D01*
X15696645Y4092724D01*
X15724776Y4120855D01*
X15740000Y4157609D01*
X15740000Y4177501D01*
X15993554Y4177501D01*
X15993554Y4177499D01*
X16317577Y3853476D01*
X16317578Y3853476D01*
X16361175Y3958725D01*
X16361179Y3958740D01*
X16389999Y4103627D01*
X16390000Y4103629D01*
X16390000Y4251372D01*
X16389999Y4251374D01*
X16361179Y4396260D01*
X16361178Y4396264D01*
X16317577Y4501525D01*
X15993554Y4177501D01*
X15740000Y4177501D01*
X15740000Y4197391D01*
X15724776Y4234145D01*
X15696645Y4262276D01*
X15659891Y4277500D01*
X15620109Y4277500D01*
X15583355Y4262276D01*
X15555224Y4234145D01*
X15540000Y4197391D01*
X15266555Y4197391D01*
X15090000Y4373946D01*
X14893554Y4177500D01*
X14640000Y4177500D01*
X14640000Y4197391D01*
X14624776Y4234145D01*
X14596645Y4262276D01*
X14559891Y4277500D01*
X14520109Y4277500D01*
X14483355Y4262276D01*
X14455224Y4234145D01*
X14440000Y4197391D01*
X14166555Y4197391D01*
X13990000Y4373946D01*
X13793554Y4177500D01*
X13540000Y4177500D01*
X13540000Y4197391D01*
X13524776Y4234145D01*
X13496645Y4262276D01*
X13459891Y4277500D01*
X13420109Y4277500D01*
X13383355Y4262276D01*
X13355224Y4234145D01*
X13340000Y4197391D01*
X13066556Y4197391D01*
X12762421Y4501526D01*
X12762420Y4501526D01*
X12718823Y4396272D01*
X12718820Y4396260D01*
X12690000Y4251374D01*
X5917746Y4251374D01*
X5911789Y4260289D01*
X5911786Y4260293D01*
X5800292Y4371787D01*
X5800288Y4371790D01*
X5669185Y4459391D01*
X5669172Y4459398D01*
X5523501Y4519736D01*
X5523489Y4519739D01*
X5368845Y4550500D01*
X5368842Y4550500D01*
X5211158Y4550500D01*
X5211155Y4550500D01*
X5056510Y4519739D01*
X5056498Y4519736D01*
X4910827Y4459398D01*
X4910814Y4459391D01*
X4779711Y4371790D01*
X4779707Y4371787D01*
X4668213Y4260293D01*
X4668210Y4260289D01*
X4580609Y4129186D01*
X4580602Y4129173D01*
X4520264Y3983502D01*
X4520261Y3983490D01*
X4489500Y3828847D01*
X500500Y3828847D01*
X500500Y4727500D01*
X13243554Y4727500D01*
X13440000Y4531054D01*
X13636446Y4727500D01*
X14343554Y4727500D01*
X14540000Y4531054D01*
X14736446Y4727500D01*
X15443554Y4727500D01*
X15640000Y4531054D01*
X15836446Y4727500D01*
X15640000Y4923946D01*
X15443554Y4727500D01*
X14736446Y4727500D01*
X14540000Y4923946D01*
X14343554Y4727500D01*
X13636446Y4727500D01*
X13440000Y4923946D01*
X13243554Y4727500D01*
X500500Y4727500D01*
X500500Y5351374D01*
X12690000Y5351374D01*
X12690000Y5203627D01*
X12718820Y5058741D01*
X12718822Y5058733D01*
X12762421Y4953476D01*
X13086446Y5277500D01*
X13086446Y5277501D01*
X13066556Y5297391D01*
X13340000Y5297391D01*
X13340000Y5257609D01*
X13355224Y5220855D01*
X13383355Y5192724D01*
X13420109Y5177500D01*
X13459891Y5177500D01*
X13496645Y5192724D01*
X13524776Y5220855D01*
X13540000Y5257609D01*
X13540000Y5277500D01*
X13793554Y5277500D01*
X13990000Y5081054D01*
X14186446Y5277500D01*
X14166555Y5297391D01*
X14440000Y5297391D01*
X14440000Y5257609D01*
X14455224Y5220855D01*
X14483355Y5192724D01*
X14520109Y5177500D01*
X14559891Y5177500D01*
X14596645Y5192724D01*
X14624776Y5220855D01*
X14640000Y5257609D01*
X14640000Y5277500D01*
X14893554Y5277500D01*
X15090000Y5081054D01*
X15286446Y5277500D01*
X15266555Y5297391D01*
X15540000Y5297391D01*
X15540000Y5257609D01*
X15555224Y5220855D01*
X15583355Y5192724D01*
X15620109Y5177500D01*
X15659891Y5177500D01*
X15696645Y5192724D01*
X15724776Y5220855D01*
X15740000Y5257609D01*
X15740000Y5277501D01*
X15993554Y5277501D01*
X15993554Y5277499D01*
X16317577Y4953476D01*
X16317578Y4953476D01*
X16361175Y5058725D01*
X16361179Y5058740D01*
X16369157Y5098847D01*
X16649500Y5098847D01*
X16649500Y4941154D01*
X16680261Y4786511D01*
X16680264Y4786499D01*
X16740602Y4640828D01*
X16740609Y4640815D01*
X16828210Y4509712D01*
X16828213Y4509708D01*
X16939707Y4398214D01*
X16939711Y4398211D01*
X17070814Y4310610D01*
X17070827Y4310603D01*
X17216498Y4250265D01*
X17216503Y4250263D01*
X17371153Y4219501D01*
X17371156Y4219500D01*
X17371158Y4219500D01*
X17528844Y4219500D01*
X17528845Y4219501D01*
X17683497Y4250263D01*
X17829179Y4310606D01*
X17960289Y4398211D01*
X18071789Y4509711D01*
X18159394Y4640821D01*
X18219737Y4786503D01*
X18250500Y4941158D01*
X18250500Y5098842D01*
X18250500Y5098845D01*
X18250499Y5098847D01*
X18234854Y5177500D01*
X18219737Y5253497D01*
X18186332Y5334145D01*
X18159397Y5399173D01*
X18159390Y5399186D01*
X18071789Y5530289D01*
X18071786Y5530293D01*
X17960292Y5641787D01*
X17960288Y5641790D01*
X17829185Y5729391D01*
X17829172Y5729398D01*
X17683501Y5789736D01*
X17683489Y5789739D01*
X17528845Y5820500D01*
X17528842Y5820500D01*
X17371158Y5820500D01*
X17371155Y5820500D01*
X17216510Y5789739D01*
X17216498Y5789736D01*
X17070827Y5729398D01*
X17070814Y5729391D01*
X16939711Y5641790D01*
X16939707Y5641787D01*
X16828213Y5530293D01*
X16828210Y5530289D01*
X16740609Y5399186D01*
X16740602Y5399173D01*
X16680264Y5253502D01*
X16680261Y5253490D01*
X16649500Y5098847D01*
X16369157Y5098847D01*
X16375180Y5129125D01*
X16375180Y5129126D01*
X16390000Y5203629D01*
X16390000Y5351372D01*
X16389999Y5351374D01*
X16361179Y5496260D01*
X16361178Y5496264D01*
X16317577Y5601525D01*
X15993554Y5277501D01*
X15740000Y5277501D01*
X15740000Y5297391D01*
X15724776Y5334145D01*
X15696645Y5362276D01*
X15659891Y5377500D01*
X15620109Y5377500D01*
X15583355Y5362276D01*
X15555224Y5334145D01*
X15540000Y5297391D01*
X15266555Y5297391D01*
X15090000Y5473946D01*
X14893554Y5277500D01*
X14640000Y5277500D01*
X14640000Y5297391D01*
X14624776Y5334145D01*
X14596645Y5362276D01*
X14559891Y5377500D01*
X14520109Y5377500D01*
X14483355Y5362276D01*
X14455224Y5334145D01*
X14440000Y5297391D01*
X14166555Y5297391D01*
X13990000Y5473946D01*
X13793554Y5277500D01*
X13540000Y5277500D01*
X13540000Y5297391D01*
X13524776Y5334145D01*
X13496645Y5362276D01*
X13459891Y5377500D01*
X13420109Y5377500D01*
X13383355Y5362276D01*
X13355224Y5334145D01*
X13340000Y5297391D01*
X13066556Y5297391D01*
X12762421Y5601526D01*
X12762420Y5601526D01*
X12718823Y5496272D01*
X12718820Y5496260D01*
X12690000Y5351374D01*
X500500Y5351374D01*
X500500Y6238847D01*
X6359500Y6238847D01*
X6359500Y6081154D01*
X6390261Y5926511D01*
X6390264Y5926499D01*
X6450602Y5780828D01*
X6450609Y5780815D01*
X6538210Y5649712D01*
X6538213Y5649708D01*
X6649707Y5538214D01*
X6649711Y5538211D01*
X6780814Y5450610D01*
X6780827Y5450603D01*
X6904992Y5399173D01*
X6926503Y5390263D01*
X7067202Y5362276D01*
X7081153Y5359501D01*
X7081156Y5359500D01*
X7081158Y5359500D01*
X7238844Y5359500D01*
X7238845Y5359501D01*
X7393497Y5390263D01*
X7539179Y5450606D01*
X7544769Y5454342D01*
X7554083Y5460564D01*
X7554083Y5460565D01*
X7670289Y5538211D01*
X7781789Y5649711D01*
X7869394Y5780821D01*
X7873088Y5789739D01*
X7888729Y5827500D01*
X13243554Y5827500D01*
X13440000Y5631054D01*
X13636446Y5827500D01*
X14343554Y5827500D01*
X14540000Y5631054D01*
X14736446Y5827500D01*
X15443554Y5827500D01*
X15640000Y5631054D01*
X15836446Y5827500D01*
X15640000Y6023946D01*
X15443554Y5827500D01*
X14736446Y5827500D01*
X14540000Y6023946D01*
X14343554Y5827500D01*
X13636446Y5827500D01*
X13440000Y6023946D01*
X13243554Y5827500D01*
X7888729Y5827500D01*
X7929656Y5926307D01*
X7929656Y5926309D01*
X7929737Y5926503D01*
X7960500Y6081158D01*
X7960500Y6238842D01*
X7960500Y6238845D01*
X7960499Y6238847D01*
X7944186Y6320855D01*
X7929737Y6393497D01*
X7905764Y6451374D01*
X12690000Y6451374D01*
X12690000Y6303627D01*
X12718820Y6158741D01*
X12718822Y6158733D01*
X12762421Y6053476D01*
X13086446Y6377500D01*
X13086446Y6377501D01*
X13066556Y6397391D01*
X13340000Y6397391D01*
X13340000Y6357609D01*
X13355224Y6320855D01*
X13383355Y6292724D01*
X13420109Y6277500D01*
X13459891Y6277500D01*
X13496645Y6292724D01*
X13524776Y6320855D01*
X13540000Y6357609D01*
X13540000Y6377500D01*
X13793554Y6377500D01*
X13990000Y6181054D01*
X14186446Y6377500D01*
X14166555Y6397391D01*
X14440000Y6397391D01*
X14440000Y6357609D01*
X14455224Y6320855D01*
X14483355Y6292724D01*
X14520109Y6277500D01*
X14559891Y6277500D01*
X14596645Y6292724D01*
X14624776Y6320855D01*
X14640000Y6357609D01*
X14640000Y6377500D01*
X14893554Y6377500D01*
X15090000Y6181054D01*
X15286446Y6377500D01*
X15266555Y6397391D01*
X15540000Y6397391D01*
X15540000Y6357609D01*
X15555224Y6320855D01*
X15583355Y6292724D01*
X15620109Y6277500D01*
X15659891Y6277500D01*
X15696645Y6292724D01*
X15724776Y6320855D01*
X15740000Y6357609D01*
X15740000Y6377501D01*
X15993554Y6377501D01*
X15993554Y6377499D01*
X16317577Y6053476D01*
X16317578Y6053476D01*
X16361175Y6158725D01*
X16361179Y6158740D01*
X16389999Y6303627D01*
X16390000Y6303629D01*
X16390000Y6451372D01*
X16389999Y6451374D01*
X16361179Y6596260D01*
X16361178Y6596264D01*
X16317577Y6701525D01*
X15993554Y6377501D01*
X15740000Y6377501D01*
X15740000Y6397391D01*
X15724776Y6434145D01*
X15696645Y6462276D01*
X15659891Y6477500D01*
X15620109Y6477500D01*
X15583355Y6462276D01*
X15555224Y6434145D01*
X15540000Y6397391D01*
X15266555Y6397391D01*
X15090000Y6573946D01*
X14893554Y6377500D01*
X14640000Y6377500D01*
X14640000Y6397391D01*
X14624776Y6434145D01*
X14596645Y6462276D01*
X14559891Y6477500D01*
X14520109Y6477500D01*
X14483355Y6462276D01*
X14455224Y6434145D01*
X14440000Y6397391D01*
X14166555Y6397391D01*
X13990000Y6573946D01*
X13793554Y6377500D01*
X13540000Y6377500D01*
X13540000Y6397391D01*
X13524776Y6434145D01*
X13496645Y6462276D01*
X13459891Y6477500D01*
X13420109Y6477500D01*
X13383355Y6462276D01*
X13355224Y6434145D01*
X13340000Y6397391D01*
X13066556Y6397391D01*
X12762421Y6701526D01*
X12762420Y6701526D01*
X12718823Y6596272D01*
X12718820Y6596260D01*
X12690000Y6451374D01*
X7905764Y6451374D01*
X7894942Y6477500D01*
X7869397Y6539173D01*
X7869390Y6539186D01*
X7781789Y6670289D01*
X7781786Y6670293D01*
X7670292Y6781787D01*
X7670288Y6781790D01*
X7539185Y6869391D01*
X7539172Y6869398D01*
X7466007Y6899703D01*
X7393501Y6929736D01*
X7393489Y6929739D01*
X7238845Y6960500D01*
X7238842Y6960500D01*
X7081158Y6960500D01*
X7081155Y6960500D01*
X6926510Y6929739D01*
X6926498Y6929736D01*
X6780827Y6869398D01*
X6780814Y6869391D01*
X6649711Y6781790D01*
X6649707Y6781787D01*
X6538213Y6670293D01*
X6538210Y6670289D01*
X6450609Y6539186D01*
X6450602Y6539173D01*
X6390264Y6393502D01*
X6390261Y6393490D01*
X6359500Y6238847D01*
X500500Y6238847D01*
X500500Y7055080D01*
X13115974Y7055080D01*
X13115974Y7055079D01*
X13440000Y6731054D01*
X13440001Y6731054D01*
X13764024Y7055079D01*
X13764022Y7055080D01*
X14215974Y7055080D01*
X14215974Y7055079D01*
X14540000Y6731054D01*
X14540001Y6731054D01*
X14864024Y7055079D01*
X14864022Y7055080D01*
X15315974Y7055080D01*
X15315974Y7055079D01*
X15640000Y6731054D01*
X15640001Y6731054D01*
X15964024Y7055079D01*
X15858767Y7098678D01*
X15858759Y7098680D01*
X15713872Y7127500D01*
X15566128Y7127500D01*
X15421240Y7098680D01*
X15421228Y7098677D01*
X15315974Y7055080D01*
X14864022Y7055080D01*
X14758767Y7098678D01*
X14758759Y7098680D01*
X14613872Y7127500D01*
X14466128Y7127500D01*
X14321240Y7098680D01*
X14321228Y7098677D01*
X14215974Y7055080D01*
X13764022Y7055080D01*
X13658767Y7098678D01*
X13658759Y7098680D01*
X13513872Y7127500D01*
X13366128Y7127500D01*
X13221240Y7098680D01*
X13221228Y7098677D01*
X13115974Y7055080D01*
X500500Y7055080D01*
X500500Y9198847D01*
X11619500Y9198847D01*
X11619500Y9041154D01*
X11650261Y8886511D01*
X11650264Y8886499D01*
X11710602Y8740828D01*
X11710609Y8740815D01*
X11798210Y8609712D01*
X11798213Y8609708D01*
X11909707Y8498214D01*
X11909711Y8498211D01*
X12040814Y8410610D01*
X12040827Y8410603D01*
X12105184Y8383946D01*
X12186503Y8350263D01*
X12341153Y8319501D01*
X12341156Y8319500D01*
X12341158Y8319500D01*
X12498844Y8319500D01*
X12498845Y8319501D01*
X12653497Y8350263D01*
X12799179Y8410606D01*
X12930289Y8498211D01*
X13041789Y8609711D01*
X13129394Y8740821D01*
X13189737Y8886503D01*
X13220500Y9041158D01*
X13220500Y9068847D01*
X15769500Y9068847D01*
X15769500Y8911154D01*
X15800261Y8756511D01*
X15800264Y8756499D01*
X15860602Y8610828D01*
X15860609Y8610815D01*
X15948210Y8479712D01*
X15948213Y8479708D01*
X16059707Y8368214D01*
X16059711Y8368211D01*
X16190814Y8280610D01*
X16190827Y8280603D01*
X16298510Y8236000D01*
X16336503Y8220263D01*
X16491153Y8189501D01*
X16491156Y8189500D01*
X16491158Y8189500D01*
X16648844Y8189500D01*
X16648845Y8189501D01*
X16803497Y8220263D01*
X16949179Y8280606D01*
X17080289Y8368211D01*
X17191789Y8479711D01*
X17279394Y8610821D01*
X17339737Y8756503D01*
X17370500Y8911158D01*
X17370500Y9068842D01*
X17370500Y9068845D01*
X17370499Y9068846D01*
X17367369Y9084582D01*
X21923765Y9084582D01*
X21923765Y8926889D01*
X21954526Y8772246D01*
X21954529Y8772234D01*
X22014867Y8626563D01*
X22014874Y8626550D01*
X22102475Y8495447D01*
X22102478Y8495443D01*
X22213972Y8383949D01*
X22213976Y8383946D01*
X22345079Y8296345D01*
X22345092Y8296338D01*
X22490763Y8236000D01*
X22490768Y8235998D01*
X22645418Y8205236D01*
X22645421Y8205235D01*
X22645423Y8205235D01*
X22803109Y8205235D01*
X22803110Y8205236D01*
X22957762Y8235998D01*
X23103444Y8296341D01*
X23234554Y8383946D01*
X23346054Y8495446D01*
X23433659Y8626556D01*
X23494002Y8772238D01*
X23524765Y8926893D01*
X23524765Y9084577D01*
X23524765Y9084580D01*
X23524764Y9084582D01*
X23511522Y9151154D01*
X23494002Y9239232D01*
X23470653Y9295603D01*
X23465167Y9308847D01*
X26874500Y9308847D01*
X26874500Y9151154D01*
X26905261Y8996511D01*
X26905264Y8996499D01*
X26965602Y8850828D01*
X26965609Y8850815D01*
X27053210Y8719712D01*
X27053213Y8719708D01*
X27164707Y8608214D01*
X27164711Y8608211D01*
X27295814Y8520610D01*
X27295827Y8520603D01*
X27394558Y8479708D01*
X27441503Y8460263D01*
X27596153Y8429501D01*
X27596156Y8429500D01*
X27596158Y8429500D01*
X27753844Y8429500D01*
X27753845Y8429501D01*
X27908497Y8460263D01*
X28054179Y8520606D01*
X28185289Y8608211D01*
X28296789Y8719711D01*
X28384394Y8850821D01*
X28444737Y8996503D01*
X28475500Y9151158D01*
X28475500Y9308842D01*
X28475500Y9308845D01*
X28475499Y9308847D01*
X28466619Y9353490D01*
X28444737Y9463497D01*
X28431808Y9494711D01*
X28384397Y9609173D01*
X28384390Y9609186D01*
X28296789Y9740289D01*
X28296786Y9740293D01*
X28185292Y9851787D01*
X28185288Y9851790D01*
X28054185Y9939391D01*
X28054172Y9939398D01*
X27908501Y9999736D01*
X27908489Y9999739D01*
X27753845Y10030500D01*
X27753842Y10030500D01*
X27596158Y10030500D01*
X27596155Y10030500D01*
X27441510Y9999739D01*
X27441498Y9999736D01*
X27295827Y9939398D01*
X27295814Y9939391D01*
X27164711Y9851790D01*
X27164707Y9851787D01*
X27053213Y9740293D01*
X27053210Y9740289D01*
X26965609Y9609186D01*
X26965602Y9609173D01*
X26905264Y9463502D01*
X26905261Y9463490D01*
X26874500Y9308847D01*
X23465167Y9308847D01*
X23433662Y9384908D01*
X23433655Y9384921D01*
X23346054Y9516024D01*
X23346051Y9516028D01*
X23234557Y9627522D01*
X23234553Y9627525D01*
X23103450Y9715126D01*
X23103437Y9715133D01*
X22957766Y9775471D01*
X22957754Y9775474D01*
X22803110Y9806235D01*
X22803107Y9806235D01*
X22645423Y9806235D01*
X22645420Y9806235D01*
X22490775Y9775474D01*
X22490763Y9775471D01*
X22345092Y9715133D01*
X22345079Y9715126D01*
X22213976Y9627525D01*
X22213972Y9627522D01*
X22102478Y9516028D01*
X22102475Y9516024D01*
X22014874Y9384921D01*
X22014867Y9384908D01*
X21954529Y9239237D01*
X21954526Y9239225D01*
X21923765Y9084582D01*
X17367369Y9084582D01*
X17339738Y9223492D01*
X17339737Y9223493D01*
X17339737Y9223497D01*
X17334864Y9235262D01*
X17279397Y9369173D01*
X17279390Y9369186D01*
X17191789Y9500289D01*
X17191786Y9500293D01*
X17080292Y9611787D01*
X17080288Y9611790D01*
X16949185Y9699391D01*
X16949172Y9699398D01*
X16803501Y9759736D01*
X16803489Y9759739D01*
X16648845Y9790500D01*
X16648842Y9790500D01*
X16491158Y9790500D01*
X16491155Y9790500D01*
X16336510Y9759739D01*
X16336498Y9759736D01*
X16190827Y9699398D01*
X16190814Y9699391D01*
X16059711Y9611790D01*
X16059707Y9611787D01*
X15948213Y9500293D01*
X15948210Y9500289D01*
X15860609Y9369186D01*
X15860602Y9369173D01*
X15800264Y9223502D01*
X15800261Y9223490D01*
X15769500Y9068847D01*
X13220500Y9068847D01*
X13220500Y9198842D01*
X13220500Y9198845D01*
X13220499Y9198847D01*
X13215595Y9223502D01*
X13189737Y9353497D01*
X13183241Y9369179D01*
X13129397Y9499173D01*
X13129390Y9499186D01*
X13041789Y9630289D01*
X13041786Y9630293D01*
X12930292Y9741787D01*
X12930288Y9741790D01*
X12799185Y9829391D01*
X12799172Y9829398D01*
X12653501Y9889736D01*
X12653489Y9889739D01*
X12498845Y9920500D01*
X12498842Y9920500D01*
X12341158Y9920500D01*
X12341155Y9920500D01*
X12186510Y9889739D01*
X12186498Y9889736D01*
X12040827Y9829398D01*
X12040814Y9829391D01*
X11909711Y9741790D01*
X11909707Y9741787D01*
X11798213Y9630293D01*
X11798210Y9630289D01*
X11710609Y9499186D01*
X11710602Y9499173D01*
X11650264Y9353502D01*
X11650261Y9353490D01*
X11619500Y9198847D01*
X500500Y9198847D01*
X500500Y10958847D01*
X769500Y10958847D01*
X769500Y10801154D01*
X800261Y10646511D01*
X800264Y10646499D01*
X860602Y10500828D01*
X860609Y10500815D01*
X948210Y10369712D01*
X948213Y10369708D01*
X1059707Y10258214D01*
X1059711Y10258211D01*
X1190814Y10170610D01*
X1190827Y10170603D01*
X1336498Y10110265D01*
X1336503Y10110263D01*
X1491153Y10079501D01*
X1491156Y10079500D01*
X1491158Y10079500D01*
X1648844Y10079500D01*
X1648845Y10079501D01*
X1670694Y10083847D01*
X7699500Y10083847D01*
X7699500Y9926154D01*
X7730261Y9771511D01*
X7730264Y9771499D01*
X7790602Y9625828D01*
X7790609Y9625815D01*
X7878210Y9494712D01*
X7878213Y9494708D01*
X7989707Y9383214D01*
X7989711Y9383211D01*
X8120814Y9295610D01*
X8120827Y9295603D01*
X8256909Y9239237D01*
X8266503Y9235263D01*
X8421153Y9204501D01*
X8421156Y9204500D01*
X8421158Y9204500D01*
X8578844Y9204500D01*
X8578845Y9204501D01*
X8733497Y9235263D01*
X8879179Y9295606D01*
X8879186Y9295612D01*
X8879190Y9295613D01*
X8897779Y9308034D01*
X8897783Y9308036D01*
X8965826Y9353502D01*
X9010289Y9383211D01*
X9121789Y9494711D01*
X9209394Y9625821D01*
X9269737Y9771503D01*
X9300500Y9926158D01*
X9300500Y10083842D01*
X9300500Y10083845D01*
X9300499Y10083847D01*
X9295245Y10110262D01*
X9269737Y10238497D01*
X9232043Y10329500D01*
X9209397Y10384173D01*
X9209390Y10384186D01*
X9121789Y10515289D01*
X9121786Y10515293D01*
X9010292Y10626787D01*
X9010288Y10626790D01*
X8879185Y10714391D01*
X8879172Y10714398D01*
X8733501Y10774736D01*
X8733489Y10774739D01*
X8578845Y10805500D01*
X8578842Y10805500D01*
X8421158Y10805500D01*
X8421155Y10805500D01*
X8266510Y10774739D01*
X8266498Y10774736D01*
X8120827Y10714398D01*
X8120814Y10714391D01*
X7989711Y10626790D01*
X7989707Y10626787D01*
X7878213Y10515293D01*
X7878210Y10515289D01*
X7790609Y10384186D01*
X7790602Y10384173D01*
X7730264Y10238502D01*
X7730261Y10238490D01*
X7699500Y10083847D01*
X1670694Y10083847D01*
X1803497Y10110263D01*
X1949179Y10170606D01*
X1949185Y10170610D01*
X1982749Y10193036D01*
X2050792Y10238502D01*
X2080289Y10258211D01*
X2191789Y10369711D01*
X2279394Y10500821D01*
X2285389Y10515293D01*
X2331571Y10626789D01*
X2339737Y10646503D01*
X2370500Y10801158D01*
X2370500Y10958842D01*
X2370500Y10958845D01*
X2370499Y10958847D01*
X2340788Y11108211D01*
X2339737Y11113497D01*
X2300242Y11208847D01*
X9324500Y11208847D01*
X9324500Y11051154D01*
X9355261Y10896511D01*
X9355264Y10896499D01*
X9415602Y10750828D01*
X9415609Y10750815D01*
X9503210Y10619712D01*
X9503213Y10619708D01*
X9614707Y10508214D01*
X9614711Y10508211D01*
X9745814Y10420610D01*
X9745827Y10420603D01*
X9891498Y10360265D01*
X9891503Y10360263D01*
X10046153Y10329501D01*
X10046156Y10329500D01*
X10046158Y10329500D01*
X10203844Y10329500D01*
X10203845Y10329501D01*
X10358497Y10360263D01*
X10504179Y10420606D01*
X10635289Y10508211D01*
X10746789Y10619711D01*
X10834394Y10750821D01*
X10894737Y10896503D01*
X10925500Y11051158D01*
X10925500Y11208842D01*
X10925500Y11208845D01*
X10925499Y11208847D01*
X10915486Y11259186D01*
X10894737Y11363497D01*
X10894735Y11363502D01*
X10834397Y11509173D01*
X10834390Y11509186D01*
X10746789Y11640289D01*
X10746786Y11640293D01*
X10635292Y11751787D01*
X10635288Y11751790D01*
X10549897Y11808847D01*
X15274500Y11808847D01*
X15274500Y11651154D01*
X15305261Y11496511D01*
X15305264Y11496499D01*
X15365602Y11350828D01*
X15365609Y11350815D01*
X15453210Y11219712D01*
X15453213Y11219708D01*
X15564707Y11108214D01*
X15564711Y11108211D01*
X15695814Y11020610D01*
X15695827Y11020603D01*
X15841498Y10960265D01*
X15841503Y10960263D01*
X15996153Y10929501D01*
X15996156Y10929500D01*
X15996158Y10929500D01*
X16153844Y10929500D01*
X16153845Y10929501D01*
X16308497Y10960263D01*
X16454179Y11020606D01*
X16585289Y11108211D01*
X16696789Y11219711D01*
X16784394Y11350821D01*
X16844737Y11496503D01*
X16875500Y11651158D01*
X16875500Y11808842D01*
X16875500Y11808845D01*
X16875499Y11808847D01*
X16853269Y11920603D01*
X16844737Y11963497D01*
X16826215Y12008214D01*
X16784397Y12109173D01*
X16784390Y12109186D01*
X16696789Y12240289D01*
X16696786Y12240293D01*
X16585292Y12351787D01*
X16585288Y12351790D01*
X16454185Y12439391D01*
X16454172Y12439398D01*
X16308501Y12499736D01*
X16308489Y12499739D01*
X16153845Y12530500D01*
X16153842Y12530500D01*
X15996158Y12530500D01*
X15996155Y12530500D01*
X15841510Y12499739D01*
X15841498Y12499736D01*
X15695827Y12439398D01*
X15695814Y12439391D01*
X15564711Y12351790D01*
X15564707Y12351787D01*
X15453213Y12240293D01*
X15453210Y12240289D01*
X15365609Y12109186D01*
X15365602Y12109173D01*
X15305264Y11963502D01*
X15305261Y11963490D01*
X15274500Y11808847D01*
X10549897Y11808847D01*
X10504185Y11839391D01*
X10504172Y11839398D01*
X10358501Y11899736D01*
X10358489Y11899739D01*
X10203845Y11930500D01*
X10203842Y11930500D01*
X10046158Y11930500D01*
X10046155Y11930500D01*
X9891510Y11899739D01*
X9891498Y11899736D01*
X9745827Y11839398D01*
X9745814Y11839391D01*
X9614711Y11751790D01*
X9614707Y11751787D01*
X9503213Y11640293D01*
X9503210Y11640289D01*
X9415609Y11509186D01*
X9415602Y11509173D01*
X9355264Y11363502D01*
X9355261Y11363490D01*
X9324500Y11208847D01*
X2300242Y11208847D01*
X2295742Y11219712D01*
X2279397Y11259173D01*
X2279390Y11259186D01*
X2191789Y11390289D01*
X2191786Y11390293D01*
X2080292Y11501787D01*
X2080288Y11501790D01*
X1949185Y11589391D01*
X1949172Y11589398D01*
X1803501Y11649736D01*
X1803489Y11649739D01*
X1648845Y11680500D01*
X1648842Y11680500D01*
X1491158Y11680500D01*
X1491155Y11680500D01*
X1336510Y11649739D01*
X1336498Y11649736D01*
X1190827Y11589398D01*
X1190814Y11589391D01*
X1059711Y11501790D01*
X1059707Y11501787D01*
X948213Y11390293D01*
X948210Y11390289D01*
X860609Y11259186D01*
X860602Y11259173D01*
X800264Y11113502D01*
X800261Y11113490D01*
X769500Y10958847D01*
X500500Y10958847D01*
X500500Y13558847D01*
X14224500Y13558847D01*
X14224500Y13401154D01*
X14255261Y13246511D01*
X14255264Y13246499D01*
X14315602Y13100828D01*
X14315609Y13100815D01*
X14403210Y12969712D01*
X14403213Y12969708D01*
X14514707Y12858214D01*
X14514711Y12858211D01*
X14645814Y12770610D01*
X14645827Y12770603D01*
X14791498Y12710265D01*
X14791503Y12710263D01*
X14946153Y12679501D01*
X14946156Y12679500D01*
X14946158Y12679500D01*
X15103844Y12679500D01*
X15103845Y12679501D01*
X15258497Y12710263D01*
X15404179Y12770606D01*
X15535289Y12858211D01*
X15646789Y12969711D01*
X15734394Y13100821D01*
X15794737Y13246503D01*
X15825500Y13401158D01*
X15825500Y13558842D01*
X15825500Y13558845D01*
X15825499Y13558847D01*
X15812177Y13625821D01*
X15794737Y13713497D01*
X15770712Y13771499D01*
X15734397Y13859173D01*
X15734390Y13859186D01*
X15646790Y13990288D01*
X15646784Y13990295D01*
X15578232Y14058847D01*
X20599500Y14058847D01*
X20599500Y13901154D01*
X20630261Y13746511D01*
X20630264Y13746499D01*
X20690602Y13600828D01*
X20690609Y13600815D01*
X20778210Y13469712D01*
X20778213Y13469708D01*
X20889707Y13358214D01*
X20889711Y13358211D01*
X21020814Y13270610D01*
X21020827Y13270603D01*
X21166498Y13210265D01*
X21166503Y13210263D01*
X21321153Y13179501D01*
X21321156Y13179500D01*
X21321158Y13179500D01*
X21478844Y13179500D01*
X21478845Y13179501D01*
X21633497Y13210263D01*
X21779179Y13270606D01*
X21893708Y13347133D01*
X21960385Y13368010D01*
X22027765Y13349526D01*
X22050280Y13331711D01*
X22073777Y13308214D01*
X22073781Y13308211D01*
X22204884Y13220610D01*
X22204897Y13220603D01*
X22304130Y13179500D01*
X22350573Y13160263D01*
X22505223Y13129501D01*
X22505226Y13129500D01*
X22505228Y13129500D01*
X22662914Y13129500D01*
X22662915Y13129501D01*
X22817567Y13160263D01*
X22963249Y13220606D01*
X23075500Y13295610D01*
X23091767Y13306479D01*
X23158444Y13327357D01*
X23225824Y13308873D01*
X23229539Y13306485D01*
X23245821Y13295606D01*
X23245824Y13295605D01*
X23245825Y13295604D01*
X23391498Y13235265D01*
X23391503Y13235263D01*
X23517176Y13210265D01*
X23546153Y13204501D01*
X23546156Y13204500D01*
X23546158Y13204500D01*
X23703844Y13204500D01*
X23703845Y13204501D01*
X23858497Y13235263D01*
X24004179Y13295606D01*
X24135289Y13383211D01*
X24246789Y13494711D01*
X24334394Y13625821D01*
X24394737Y13771503D01*
X24425500Y13926158D01*
X24425500Y14083842D01*
X24425500Y14083845D01*
X24425499Y14083847D01*
X24394738Y14238490D01*
X24394737Y14238497D01*
X24390081Y14249737D01*
X24334397Y14384173D01*
X24334390Y14384186D01*
X24246789Y14515289D01*
X24246786Y14515293D01*
X24135292Y14626787D01*
X24135288Y14626790D01*
X24096338Y14652816D01*
X24051533Y14706429D01*
X24042826Y14775754D01*
X24072981Y14838781D01*
X24132424Y14875500D01*
X24165229Y14879918D01*
X24254671Y14879918D01*
X24254672Y14879919D01*
X24409324Y14910681D01*
X24511623Y14953055D01*
X24581089Y14960523D01*
X24606525Y14953054D01*
X24711279Y14909664D01*
X24742213Y14896851D01*
X24896863Y14866089D01*
X24896866Y14866088D01*
X24896868Y14866088D01*
X25054554Y14866088D01*
X25054555Y14866089D01*
X25209207Y14896851D01*
X25288176Y14929562D01*
X25357641Y14937030D01*
X25390174Y14925716D01*
X25390192Y14925758D01*
X25390930Y14925453D01*
X25394085Y14924355D01*
X25395825Y14923425D01*
X25541498Y14863086D01*
X25541503Y14863084D01*
X25663682Y14838781D01*
X25696153Y14832322D01*
X25696156Y14832321D01*
X25716126Y14832321D01*
X25783165Y14812636D01*
X25828920Y14759832D01*
X25838864Y14690674D01*
X25819228Y14639430D01*
X25765609Y14559185D01*
X25765602Y14559173D01*
X25705264Y14413502D01*
X25705261Y14413490D01*
X25674500Y14258847D01*
X25674500Y14101154D01*
X25705261Y13946511D01*
X25705264Y13946499D01*
X25765602Y13800828D01*
X25765609Y13800815D01*
X25853210Y13669712D01*
X25853213Y13669708D01*
X25964707Y13558214D01*
X25964711Y13558211D01*
X26064703Y13491398D01*
X26109508Y13437786D01*
X26118215Y13368461D01*
X26088061Y13305433D01*
X26064704Y13285195D01*
X26014713Y13251792D01*
X26014707Y13251787D01*
X25903213Y13140293D01*
X25903210Y13140289D01*
X25815609Y13009186D01*
X25815602Y13009173D01*
X25755264Y12863502D01*
X25755261Y12863490D01*
X25724500Y12708847D01*
X25724500Y12551154D01*
X25755261Y12396511D01*
X25755264Y12396499D01*
X25815602Y12250828D01*
X25815609Y12250815D01*
X25903210Y12119712D01*
X25903213Y12119708D01*
X26014707Y12008214D01*
X26014711Y12008211D01*
X26145814Y11920610D01*
X26145827Y11920603D01*
X26291498Y11860265D01*
X26291503Y11860263D01*
X26446153Y11829501D01*
X26446156Y11829500D01*
X26446158Y11829500D01*
X26603844Y11829500D01*
X26603845Y11829501D01*
X26758497Y11860263D01*
X26904179Y11920606D01*
X27035289Y12008211D01*
X27146789Y12119711D01*
X27234394Y12250821D01*
X27294737Y12396503D01*
X27325500Y12551158D01*
X27325500Y12708842D01*
X27325500Y12708845D01*
X27325499Y12708847D01*
X27295788Y12858211D01*
X27294737Y12863497D01*
X27294735Y12863502D01*
X27234397Y13009173D01*
X27234390Y13009186D01*
X27146789Y13140289D01*
X27146786Y13140293D01*
X27035292Y13251787D01*
X27035288Y13251790D01*
X26935296Y13318603D01*
X26890491Y13372215D01*
X26881784Y13441540D01*
X26911939Y13504568D01*
X26935293Y13524806D01*
X26985289Y13558211D01*
X27096789Y13669711D01*
X27184394Y13800821D01*
X27244737Y13946503D01*
X27275500Y14101158D01*
X27275500Y14258842D01*
X27275500Y14258845D01*
X27275499Y14258847D01*
X27255543Y14359173D01*
X27244737Y14413497D01*
X27212929Y14490289D01*
X27184397Y14559173D01*
X27184390Y14559186D01*
X27096789Y14690289D01*
X27096786Y14690293D01*
X26985292Y14801787D01*
X26985288Y14801790D01*
X26946963Y14827398D01*
X26902158Y14881010D01*
X26893451Y14950335D01*
X26923605Y15013363D01*
X26983048Y15050082D01*
X27015854Y15054500D01*
X27053844Y15054500D01*
X27053845Y15054501D01*
X27208497Y15085263D01*
X27354179Y15145606D01*
X27485289Y15233211D01*
X27596789Y15344711D01*
X27684394Y15475821D01*
X27744737Y15621503D01*
X27775500Y15776158D01*
X27775500Y15933842D01*
X27775500Y15933845D01*
X27775499Y15933847D01*
X27751099Y16056511D01*
X27744737Y16088497D01*
X27744735Y16088502D01*
X27684397Y16234173D01*
X27684390Y16234186D01*
X27596789Y16365289D01*
X27596786Y16365293D01*
X27485292Y16476787D01*
X27485288Y16476790D01*
X27354185Y16564391D01*
X27354172Y16564398D01*
X27208501Y16624736D01*
X27208489Y16624739D01*
X27053845Y16655500D01*
X27053842Y16655500D01*
X26896158Y16655500D01*
X26896155Y16655500D01*
X26741510Y16624739D01*
X26741498Y16624736D01*
X26595827Y16564398D01*
X26595814Y16564391D01*
X26464711Y16476790D01*
X26464707Y16476787D01*
X26353213Y16365293D01*
X26353209Y16365288D01*
X26350004Y16360491D01*
X26296388Y16315690D01*
X26227063Y16306988D01*
X26178017Y16326287D01*
X26154182Y16342213D01*
X26154181Y16342214D01*
X26154179Y16342215D01*
X26154176Y16342217D01*
X26154171Y16342219D01*
X26008501Y16402557D01*
X26008489Y16402560D01*
X25853845Y16433321D01*
X25853842Y16433321D01*
X25696158Y16433321D01*
X25696155Y16433321D01*
X25541511Y16402561D01*
X25541506Y16402559D01*
X25541504Y16402559D01*
X25541503Y16402558D01*
X25541501Y16402557D01*
X25462534Y16369849D01*
X25393064Y16362382D01*
X25360535Y16373693D01*
X25360518Y16373651D01*
X25359797Y16373950D01*
X25356641Y16375047D01*
X25354894Y16375981D01*
X25209211Y16436324D01*
X25209199Y16436327D01*
X25054555Y16467088D01*
X25054552Y16467088D01*
X24896868Y16467088D01*
X24896865Y16467088D01*
X24742220Y16436327D01*
X24742208Y16436324D01*
X24639915Y16393953D01*
X24570445Y16386484D01*
X24545011Y16393953D01*
X24409328Y16450154D01*
X24409316Y16450157D01*
X24254672Y16480918D01*
X24254669Y16480918D01*
X24096985Y16480918D01*
X24096982Y16480918D01*
X23942337Y16450157D01*
X23942325Y16450154D01*
X23796654Y16389816D01*
X23796641Y16389809D01*
X23665538Y16302208D01*
X23665534Y16302205D01*
X23554040Y16190711D01*
X23554037Y16190707D01*
X23466436Y16059604D01*
X23466429Y16059591D01*
X23406091Y15913920D01*
X23406088Y15913908D01*
X23375327Y15759265D01*
X23375327Y15601572D01*
X23406088Y15446929D01*
X23406091Y15446917D01*
X23466429Y15301246D01*
X23466436Y15301233D01*
X23554037Y15170130D01*
X23554040Y15170126D01*
X23665534Y15058632D01*
X23665538Y15058629D01*
X23704489Y15032602D01*
X23749294Y14978989D01*
X23758001Y14909664D01*
X23727846Y14846637D01*
X23668403Y14809918D01*
X23635598Y14805500D01*
X23546155Y14805500D01*
X23391510Y14774739D01*
X23391498Y14774736D01*
X23245827Y14714398D01*
X23245816Y14714392D01*
X23117301Y14628521D01*
X23050624Y14607644D01*
X22983244Y14626129D01*
X22979521Y14628521D01*
X22963249Y14639394D01*
X22963247Y14639395D01*
X22963244Y14639397D01*
X22817571Y14699736D01*
X22817559Y14699739D01*
X22662915Y14730500D01*
X22662912Y14730500D01*
X22505228Y14730500D01*
X22505225Y14730500D01*
X22350580Y14699739D01*
X22350568Y14699736D01*
X22204897Y14639398D01*
X22204886Y14639392D01*
X22090360Y14562868D01*
X22023683Y14541991D01*
X21956303Y14560476D01*
X21933789Y14578290D01*
X21910292Y14601787D01*
X21910288Y14601790D01*
X21779185Y14689391D01*
X21779172Y14689398D01*
X21633501Y14749736D01*
X21633489Y14749739D01*
X21478845Y14780500D01*
X21478842Y14780500D01*
X21321158Y14780500D01*
X21321155Y14780500D01*
X21166510Y14749739D01*
X21166498Y14749736D01*
X21020827Y14689398D01*
X21020814Y14689391D01*
X20889711Y14601790D01*
X20889707Y14601787D01*
X20778213Y14490293D01*
X20778210Y14490289D01*
X20690609Y14359186D01*
X20690602Y14359173D01*
X20630264Y14213502D01*
X20630261Y14213490D01*
X20599500Y14058847D01*
X15578232Y14058847D01*
X15535292Y14101787D01*
X15535288Y14101790D01*
X15404185Y14189391D01*
X15404172Y14189398D01*
X15258501Y14249736D01*
X15258489Y14249739D01*
X15103845Y14280500D01*
X15103842Y14280500D01*
X14946158Y14280500D01*
X14946155Y14280500D01*
X14791510Y14249739D01*
X14791498Y14249736D01*
X14645827Y14189398D01*
X14645814Y14189391D01*
X14514711Y14101790D01*
X14514707Y14101787D01*
X14403213Y13990293D01*
X14403210Y13990289D01*
X14315609Y13859186D01*
X14315602Y13859173D01*
X14255264Y13713502D01*
X14255261Y13713490D01*
X14224500Y13558847D01*
X500500Y13558847D01*
X500500Y14858847D01*
X5749500Y14858847D01*
X5749500Y14701154D01*
X5780261Y14546511D01*
X5780264Y14546499D01*
X5840602Y14400828D01*
X5840609Y14400815D01*
X5928210Y14269712D01*
X5928213Y14269708D01*
X6039707Y14158214D01*
X6039711Y14158211D01*
X6170814Y14070610D01*
X6170827Y14070603D01*
X6316498Y14010265D01*
X6316503Y14010263D01*
X6471153Y13979501D01*
X6471156Y13979500D01*
X6471158Y13979500D01*
X6628844Y13979500D01*
X6628845Y13979501D01*
X6783497Y14010263D01*
X6929179Y14070606D01*
X7060289Y14158211D01*
X7171789Y14269711D01*
X7259394Y14400821D01*
X7319737Y14546503D01*
X7350500Y14701158D01*
X7350500Y14858842D01*
X7350500Y14858845D01*
X7350499Y14858847D01*
X7340189Y14910680D01*
X7319737Y15013497D01*
X7274574Y15122532D01*
X7259397Y15159173D01*
X7259390Y15159186D01*
X7171789Y15290289D01*
X7171786Y15290293D01*
X7060292Y15401787D01*
X7060288Y15401790D01*
X6929185Y15489391D01*
X6929172Y15489398D01*
X6783501Y15549736D01*
X6783489Y15549739D01*
X6628845Y15580500D01*
X6628842Y15580500D01*
X6471158Y15580500D01*
X6471155Y15580500D01*
X6316510Y15549739D01*
X6316498Y15549736D01*
X6170827Y15489398D01*
X6170814Y15489391D01*
X6039711Y15401790D01*
X6039707Y15401787D01*
X5928213Y15290293D01*
X5928210Y15290289D01*
X5840609Y15159186D01*
X5840602Y15159173D01*
X5780264Y15013502D01*
X5780261Y15013490D01*
X5749500Y14858847D01*
X500500Y14858847D01*
X500500Y16058847D01*
X12724500Y16058847D01*
X12724500Y15901154D01*
X12755261Y15746511D01*
X12755264Y15746499D01*
X12815602Y15600828D01*
X12815609Y15600815D01*
X12903210Y15469712D01*
X12903213Y15469708D01*
X13014707Y15358214D01*
X13014711Y15358211D01*
X13145814Y15270610D01*
X13145827Y15270603D01*
X13236101Y15233211D01*
X13291503Y15210263D01*
X13446153Y15179501D01*
X13446156Y15179500D01*
X13446158Y15179500D01*
X13603844Y15179500D01*
X13603845Y15179501D01*
X13758497Y15210263D01*
X13904179Y15270606D01*
X14035289Y15358211D01*
X14146789Y15469711D01*
X14234394Y15600821D01*
X14294737Y15746503D01*
X14325500Y15901158D01*
X14325500Y16058842D01*
X14325500Y16058845D01*
X14325499Y16058847D01*
X14319600Y16088502D01*
X14294737Y16213497D01*
X14286170Y16234179D01*
X14234397Y16359173D01*
X14234390Y16359186D01*
X14146789Y16490289D01*
X14146786Y16490293D01*
X14035292Y16601787D01*
X14035288Y16601790D01*
X13904185Y16689391D01*
X13904172Y16689398D01*
X13758501Y16749736D01*
X13758489Y16749739D01*
X13603845Y16780500D01*
X13603842Y16780500D01*
X13446158Y16780500D01*
X13446155Y16780500D01*
X13291510Y16749739D01*
X13291498Y16749736D01*
X13145827Y16689398D01*
X13145814Y16689391D01*
X13014711Y16601790D01*
X13014707Y16601787D01*
X12903213Y16490293D01*
X12903210Y16490289D01*
X12815609Y16359186D01*
X12815602Y16359173D01*
X12755264Y16213502D01*
X12755261Y16213490D01*
X12724500Y16058847D01*
X500500Y16058847D01*
X500500Y18178847D01*
X5509500Y18178847D01*
X5509500Y18021154D01*
X5540261Y17866511D01*
X5540264Y17866499D01*
X5600602Y17720828D01*
X5600609Y17720815D01*
X5688210Y17589712D01*
X5688213Y17589708D01*
X5799707Y17478214D01*
X5799711Y17478211D01*
X5930814Y17390610D01*
X5930821Y17390606D01*
X6044373Y17343572D01*
X6098774Y17299733D01*
X6120840Y17233439D01*
X6118536Y17204821D01*
X6089500Y17058847D01*
X6089500Y16901154D01*
X6120261Y16746511D01*
X6120264Y16746499D01*
X6180602Y16600828D01*
X6180609Y16600815D01*
X6268210Y16469712D01*
X6268213Y16469708D01*
X6379707Y16358214D01*
X6379711Y16358211D01*
X6510814Y16270610D01*
X6510827Y16270603D01*
X6648683Y16213502D01*
X6656503Y16210263D01*
X6811153Y16179501D01*
X6811156Y16179500D01*
X6811158Y16179500D01*
X6968844Y16179500D01*
X6968845Y16179501D01*
X6979179Y16181557D01*
X7004287Y16186550D01*
X7004292Y16186551D01*
X7089800Y16203561D01*
X7123497Y16210263D01*
X7237289Y16257397D01*
X7269172Y16270603D01*
X7269172Y16270604D01*
X7269179Y16270606D01*
X7400289Y16358211D01*
X7511789Y16469711D01*
X7599394Y16600821D01*
X7659737Y16746503D01*
X7690500Y16901158D01*
X7690500Y17058842D01*
X7690500Y17058845D01*
X7690499Y17058847D01*
X7682365Y17099739D01*
X7659737Y17213497D01*
X7651477Y17233439D01*
X7640953Y17258847D01*
X14799500Y17258847D01*
X14799500Y17101154D01*
X14830261Y16946511D01*
X14830264Y16946499D01*
X14890602Y16800828D01*
X14890609Y16800815D01*
X14978210Y16669712D01*
X14978213Y16669708D01*
X15089707Y16558214D01*
X15089711Y16558211D01*
X15220814Y16470610D01*
X15220827Y16470603D01*
X15366498Y16410265D01*
X15366503Y16410263D01*
X15469332Y16389809D01*
X15474691Y16388743D01*
X15536602Y16356359D01*
X15571176Y16295643D01*
X15574500Y16267126D01*
X15574500Y16251154D01*
X15605261Y16096511D01*
X15605264Y16096499D01*
X15665602Y15950828D01*
X15665609Y15950815D01*
X15753210Y15819712D01*
X15753213Y15819708D01*
X15864707Y15708214D01*
X15864711Y15708211D01*
X15995814Y15620610D01*
X15995827Y15620603D01*
X16092646Y15580500D01*
X16141503Y15560263D01*
X16296153Y15529501D01*
X16296156Y15529500D01*
X16296158Y15529500D01*
X16453844Y15529500D01*
X16453845Y15529501D01*
X16608497Y15560263D01*
X16754179Y15620606D01*
X16885289Y15708211D01*
X16996789Y15819711D01*
X17084394Y15950821D01*
X17144737Y16096503D01*
X17175500Y16251158D01*
X17175500Y16368847D01*
X20089500Y16368847D01*
X20089500Y16211154D01*
X20120261Y16056511D01*
X20120264Y16056499D01*
X20180602Y15910828D01*
X20180609Y15910815D01*
X20268210Y15779712D01*
X20268213Y15779708D01*
X20379707Y15668214D01*
X20379711Y15668211D01*
X20510814Y15580610D01*
X20510827Y15580603D01*
X20656498Y15520265D01*
X20656503Y15520263D01*
X20811153Y15489501D01*
X20811156Y15489500D01*
X20811158Y15489500D01*
X20968844Y15489500D01*
X20968845Y15489501D01*
X21123497Y15520263D01*
X21269179Y15580606D01*
X21400289Y15668211D01*
X21511789Y15779711D01*
X21599394Y15910821D01*
X21659737Y16056503D01*
X21690500Y16211158D01*
X21690500Y16368842D01*
X21690500Y16368845D01*
X21690499Y16368847D01*
X21674325Y16450157D01*
X21659737Y16523497D01*
X21645357Y16558214D01*
X21599397Y16669173D01*
X21599390Y16669186D01*
X21511789Y16800289D01*
X21511786Y16800293D01*
X21400292Y16911787D01*
X21400288Y16911790D01*
X21269185Y16999391D01*
X21269172Y16999398D01*
X21123501Y17059736D01*
X21123489Y17059739D01*
X20968845Y17090500D01*
X20968842Y17090500D01*
X20811158Y17090500D01*
X20811155Y17090500D01*
X20656510Y17059739D01*
X20656498Y17059736D01*
X20510827Y16999398D01*
X20510814Y16999391D01*
X20379711Y16911790D01*
X20379707Y16911787D01*
X20268213Y16800293D01*
X20268210Y16800289D01*
X20180609Y16669186D01*
X20180602Y16669173D01*
X20120264Y16523502D01*
X20120261Y16523490D01*
X20089500Y16368847D01*
X17175500Y16368847D01*
X17175500Y16408842D01*
X17175500Y16408845D01*
X17175499Y16408847D01*
X17152695Y16523490D01*
X17144737Y16563497D01*
X17144367Y16564391D01*
X17084397Y16709173D01*
X17084390Y16709186D01*
X16996789Y16840289D01*
X16996786Y16840293D01*
X16885292Y16951787D01*
X16885288Y16951790D01*
X16754185Y17039391D01*
X16754172Y17039398D01*
X16608501Y17099736D01*
X16608491Y17099739D01*
X16500308Y17121258D01*
X16438397Y17153643D01*
X16403823Y17214359D01*
X16400500Y17242875D01*
X16400500Y17258845D01*
X16400499Y17258847D01*
X16386293Y17330263D01*
X16369737Y17413497D01*
X16337929Y17490289D01*
X16309397Y17559173D01*
X16309390Y17559186D01*
X16221789Y17690289D01*
X16221786Y17690293D01*
X16110292Y17801787D01*
X16110288Y17801790D01*
X15979185Y17889391D01*
X15979172Y17889398D01*
X15833501Y17949736D01*
X15833489Y17949739D01*
X15678845Y17980500D01*
X15678842Y17980500D01*
X15521158Y17980500D01*
X15521155Y17980500D01*
X15366510Y17949739D01*
X15366498Y17949736D01*
X15220827Y17889398D01*
X15220814Y17889391D01*
X15089711Y17801790D01*
X15089707Y17801787D01*
X14978213Y17690293D01*
X14978210Y17690289D01*
X14890609Y17559186D01*
X14890602Y17559173D01*
X14830264Y17413502D01*
X14830261Y17413490D01*
X14799500Y17258847D01*
X7640953Y17258847D01*
X7599397Y17359173D01*
X7599390Y17359186D01*
X7511789Y17490289D01*
X7511786Y17490293D01*
X7400292Y17601787D01*
X7400288Y17601790D01*
X7269185Y17689391D01*
X7269176Y17689396D01*
X7155627Y17736429D01*
X7101224Y17780270D01*
X7079159Y17846564D01*
X7081463Y17875182D01*
X7084290Y17889391D01*
X7102413Y17980500D01*
X7110500Y18021156D01*
X7110500Y18178845D01*
X7110499Y18178847D01*
X7079738Y18333490D01*
X7079737Y18333497D01*
X7079735Y18333502D01*
X7019397Y18479173D01*
X7019390Y18479186D01*
X6931789Y18610289D01*
X6931786Y18610293D01*
X6820292Y18721787D01*
X6820288Y18721790D01*
X6689185Y18809391D01*
X6689172Y18809398D01*
X6543501Y18869736D01*
X6543489Y18869739D01*
X6388845Y18900500D01*
X6388842Y18900500D01*
X6231158Y18900500D01*
X6231155Y18900500D01*
X6076510Y18869739D01*
X6076498Y18869736D01*
X5930827Y18809398D01*
X5930814Y18809391D01*
X5799711Y18721790D01*
X5799707Y18721787D01*
X5688213Y18610293D01*
X5688210Y18610289D01*
X5600609Y18479186D01*
X5600602Y18479173D01*
X5540264Y18333502D01*
X5540261Y18333490D01*
X5509500Y18178847D01*
X500500Y18178847D01*
X500500Y19458847D01*
X20249500Y19458847D01*
X20249500Y19301154D01*
X20280261Y19146511D01*
X20280264Y19146499D01*
X20340602Y19000828D01*
X20340609Y19000815D01*
X20428210Y18869712D01*
X20428213Y18869708D01*
X20539707Y18758214D01*
X20539711Y18758211D01*
X20670814Y18670610D01*
X20670827Y18670603D01*
X20816440Y18610289D01*
X20816503Y18610263D01*
X20971153Y18579501D01*
X20971156Y18579500D01*
X20971158Y18579500D01*
X21128844Y18579500D01*
X21128845Y18579501D01*
X21283497Y18610263D01*
X21429179Y18670606D01*
X21560289Y18758211D01*
X21671789Y18869711D01*
X21759394Y19000821D01*
X21819737Y19146503D01*
X21850500Y19301158D01*
X21850500Y19458842D01*
X21850500Y19458845D01*
X21850499Y19458847D01*
X21819738Y19613490D01*
X21819737Y19613497D01*
X21819735Y19613502D01*
X21759397Y19759173D01*
X21759390Y19759186D01*
X21671789Y19890289D01*
X21671786Y19890293D01*
X21560292Y20001787D01*
X21560288Y20001790D01*
X21429185Y20089391D01*
X21429172Y20089398D01*
X21283501Y20149736D01*
X21283489Y20149739D01*
X21128845Y20180500D01*
X21128842Y20180500D01*
X20971158Y20180500D01*
X20971155Y20180500D01*
X20816510Y20149739D01*
X20816498Y20149736D01*
X20670827Y20089398D01*
X20670814Y20089391D01*
X20539711Y20001790D01*
X20539707Y20001787D01*
X20428213Y19890293D01*
X20428210Y19890289D01*
X20340609Y19759186D01*
X20340602Y19759173D01*
X20280264Y19613502D01*
X20280261Y19613490D01*
X20249500Y19458847D01*
X500500Y19458847D01*
X500500Y21158847D01*
X769500Y21158847D01*
X769500Y21001154D01*
X800261Y20846511D01*
X800264Y20846499D01*
X860602Y20700828D01*
X860609Y20700815D01*
X948210Y20569712D01*
X948213Y20569708D01*
X1059707Y20458214D01*
X1059711Y20458211D01*
X1190814Y20370610D01*
X1190827Y20370603D01*
X1336498Y20310265D01*
X1336503Y20310263D01*
X1491153Y20279501D01*
X1491156Y20279500D01*
X1491158Y20279500D01*
X1648844Y20279500D01*
X1648845Y20279501D01*
X1803497Y20310263D01*
X1949179Y20370606D01*
X2080289Y20458211D01*
X2191789Y20569711D01*
X2279394Y20700821D01*
X2339737Y20846503D01*
X2370500Y21001158D01*
X2370500Y21158842D01*
X2370498Y21158851D01*
X2370312Y21160739D01*
X2370500Y21161731D01*
X2370500Y21164934D01*
X2371107Y21164934D01*
X2383324Y21229387D01*
X2431384Y21280102D01*
X2499233Y21296783D01*
X2565330Y21274134D01*
X2594301Y21244382D01*
X2594347Y21244419D01*
X2594783Y21243888D01*
X2596811Y21241805D01*
X2598209Y21239713D01*
X2598213Y21239708D01*
X2709707Y21128214D01*
X2709711Y21128211D01*
X2840814Y21040610D01*
X2840827Y21040603D01*
X2983203Y20981630D01*
X2986503Y20980263D01*
X3141153Y20949501D01*
X3141156Y20949500D01*
X3141158Y20949500D01*
X3298844Y20949500D01*
X3298845Y20949501D01*
X3453497Y20980263D01*
X3599179Y21040606D01*
X3730289Y21128211D01*
X3841789Y21239711D01*
X3929394Y21370821D01*
X3989737Y21516503D01*
X4020500Y21671158D01*
X4020500Y21769874D01*
X9549500Y21769874D01*
X9549500Y21612181D01*
X9580261Y21457538D01*
X9580264Y21457526D01*
X9640602Y21311855D01*
X9640609Y21311842D01*
X9728210Y21180739D01*
X9728213Y21180735D01*
X9839707Y21069241D01*
X9839711Y21069238D01*
X9970814Y20981637D01*
X9970827Y20981630D01*
X10116498Y20921292D01*
X10116503Y20921290D01*
X10271153Y20890528D01*
X10271156Y20890527D01*
X10271158Y20890527D01*
X10428844Y20890527D01*
X10428845Y20890528D01*
X10583497Y20921290D01*
X10725872Y20980263D01*
X10729172Y20981630D01*
X10729172Y20981631D01*
X10729179Y20981633D01*
X10860289Y21069238D01*
X10971789Y21180738D01*
X11059394Y21311848D01*
X11119737Y21457530D01*
X11139299Y21555875D01*
X11139890Y21558847D01*
X15399500Y21558847D01*
X15399500Y21401154D01*
X15430261Y21246511D01*
X15430264Y21246499D01*
X15490602Y21100828D01*
X15490609Y21100815D01*
X15578210Y20969712D01*
X15578213Y20969708D01*
X15689707Y20858214D01*
X15689711Y20858211D01*
X15820814Y20770610D01*
X15820827Y20770603D01*
X15966498Y20710265D01*
X15966503Y20710263D01*
X16121153Y20679501D01*
X16121156Y20679500D01*
X16121158Y20679500D01*
X16278844Y20679500D01*
X16278845Y20679501D01*
X16433497Y20710263D01*
X16579179Y20770606D01*
X16710289Y20858211D01*
X16821789Y20969711D01*
X16909394Y21100821D01*
X16969737Y21246503D01*
X17000500Y21401158D01*
X17000500Y21558842D01*
X17000500Y21558845D01*
X17000499Y21558847D01*
X16989889Y21612186D01*
X16969737Y21713497D01*
X16942398Y21779500D01*
X16909397Y21859173D01*
X16909390Y21859186D01*
X16821789Y21990289D01*
X16821786Y21990293D01*
X16710292Y22101787D01*
X16710288Y22101790D01*
X16579185Y22189391D01*
X16579172Y22189398D01*
X16433501Y22249736D01*
X16433489Y22249739D01*
X16278845Y22280500D01*
X16278842Y22280500D01*
X16121158Y22280500D01*
X16121155Y22280500D01*
X15966510Y22249739D01*
X15966498Y22249736D01*
X15820827Y22189398D01*
X15820814Y22189391D01*
X15689711Y22101790D01*
X15689707Y22101787D01*
X15578213Y21990293D01*
X15578210Y21990289D01*
X15490609Y21859186D01*
X15490602Y21859173D01*
X15430264Y21713502D01*
X15430261Y21713490D01*
X15399500Y21558847D01*
X11139890Y21558847D01*
X11145909Y21589103D01*
X11145913Y21589124D01*
X11150500Y21612186D01*
X11150500Y21769872D01*
X11150499Y21769874D01*
X11134613Y21849739D01*
X11119737Y21924524D01*
X11119735Y21924529D01*
X11059397Y22070200D01*
X11059390Y22070213D01*
X10971789Y22201316D01*
X10971786Y22201320D01*
X10860292Y22312814D01*
X10860288Y22312817D01*
X10729185Y22400418D01*
X10729172Y22400425D01*
X10583501Y22460763D01*
X10583489Y22460766D01*
X10428845Y22491527D01*
X10428842Y22491527D01*
X10271158Y22491527D01*
X10271155Y22491527D01*
X10116510Y22460766D01*
X10116498Y22460763D01*
X9970827Y22400425D01*
X9970814Y22400418D01*
X9839711Y22312817D01*
X9839707Y22312814D01*
X9728213Y22201320D01*
X9728210Y22201316D01*
X9640609Y22070213D01*
X9640602Y22070200D01*
X9580264Y21924529D01*
X9580261Y21924517D01*
X9549500Y21769874D01*
X4020500Y21769874D01*
X4020500Y21828842D01*
X4020500Y21828845D01*
X4020499Y21828847D01*
X4014658Y21858211D01*
X3989737Y21983497D01*
X3954028Y22069708D01*
X3929397Y22129173D01*
X3929390Y22129186D01*
X3841789Y22260289D01*
X3841786Y22260293D01*
X3730292Y22371787D01*
X3730288Y22371790D01*
X3599185Y22459391D01*
X3599172Y22459398D01*
X3453501Y22519736D01*
X3453489Y22519739D01*
X3298845Y22550500D01*
X3298842Y22550500D01*
X3141158Y22550500D01*
X3141155Y22550500D01*
X2986510Y22519739D01*
X2986498Y22519736D01*
X2840827Y22459398D01*
X2840814Y22459391D01*
X2709711Y22371790D01*
X2709707Y22371787D01*
X2598213Y22260293D01*
X2598210Y22260289D01*
X2510609Y22129186D01*
X2510602Y22129173D01*
X2450264Y21983502D01*
X2450261Y21983490D01*
X2419500Y21828847D01*
X2419500Y21671157D01*
X2419688Y21669248D01*
X2419500Y21668257D01*
X2419500Y21665066D01*
X2418895Y21665066D01*
X2406669Y21600602D01*
X2358603Y21549892D01*
X2290752Y21533218D01*
X2224658Y21555875D01*
X2195698Y21585619D01*
X2195653Y21585581D01*
X2195213Y21586117D01*
X2193186Y21588199D01*
X2191789Y21590289D01*
X2191786Y21590293D01*
X2080292Y21701787D01*
X2080288Y21701790D01*
X1949185Y21789391D01*
X1949172Y21789398D01*
X1803501Y21849736D01*
X1803489Y21849739D01*
X1648845Y21880500D01*
X1648842Y21880500D01*
X1491158Y21880500D01*
X1491155Y21880500D01*
X1336510Y21849739D01*
X1336498Y21849736D01*
X1190827Y21789398D01*
X1190814Y21789391D01*
X1059711Y21701790D01*
X1059707Y21701787D01*
X948213Y21590293D01*
X948210Y21590289D01*
X860609Y21459186D01*
X860602Y21459173D01*
X800264Y21313502D01*
X800261Y21313490D01*
X769500Y21158847D01*
X500500Y21158847D01*
X500500Y23831579D01*
X9799503Y23831579D01*
X9799503Y23673886D01*
X9830264Y23519243D01*
X9830267Y23519231D01*
X9890605Y23373560D01*
X9890612Y23373547D01*
X9978213Y23242444D01*
X9978216Y23242440D01*
X10089710Y23130946D01*
X10089714Y23130943D01*
X10220817Y23043342D01*
X10220830Y23043335D01*
X10366501Y22982997D01*
X10366506Y22982995D01*
X10521156Y22952233D01*
X10521159Y22952232D01*
X10521161Y22952232D01*
X10678847Y22952232D01*
X10678848Y22952233D01*
X10833500Y22982995D01*
X10979182Y23043338D01*
X11110292Y23130943D01*
X11221792Y23242443D01*
X11309397Y23373553D01*
X11369740Y23519235D01*
X11400503Y23673890D01*
X11400503Y23763741D01*
X11420188Y23830780D01*
X11472992Y23876535D01*
X11477051Y23878302D01*
X11579175Y23920603D01*
X11579175Y23920604D01*
X11579182Y23920606D01*
X11710292Y24008211D01*
X11803610Y24101530D01*
X11864931Y24135013D01*
X11934623Y24130029D01*
X11990557Y24088158D01*
X11994392Y24082738D01*
X12053210Y23994712D01*
X12053213Y23994708D01*
X12164707Y23883214D01*
X12164711Y23883211D01*
X12295814Y23795610D01*
X12295827Y23795603D01*
X12373356Y23763490D01*
X12441503Y23735263D01*
X12551987Y23713287D01*
X12574691Y23708770D01*
X12636602Y23676385D01*
X12671176Y23615670D01*
X12674500Y23587153D01*
X12674500Y23451154D01*
X12705261Y23296511D01*
X12705264Y23296499D01*
X12760543Y23163042D01*
X12768012Y23093573D01*
X12749084Y23046700D01*
X12690612Y22959191D01*
X12690602Y22959173D01*
X12630264Y22813502D01*
X12630261Y22813490D01*
X12599500Y22658847D01*
X12599500Y22501154D01*
X12630261Y22346511D01*
X12630264Y22346499D01*
X12690602Y22200828D01*
X12690609Y22200815D01*
X12778210Y22069712D01*
X12778213Y22069708D01*
X12889707Y21958214D01*
X12889711Y21958211D01*
X13020814Y21870610D01*
X13020827Y21870603D01*
X13166498Y21810265D01*
X13166503Y21810263D01*
X13321153Y21779501D01*
X13321156Y21779500D01*
X13321158Y21779500D01*
X13478844Y21779500D01*
X13478845Y21779501D01*
X13633497Y21810263D01*
X13751592Y21859179D01*
X13779172Y21870603D01*
X13779172Y21870604D01*
X13779179Y21870606D01*
X13910289Y21958211D01*
X14021789Y22069711D01*
X14109394Y22200821D01*
X14169737Y22346503D01*
X14200500Y22501158D01*
X14200500Y22558847D01*
X20189500Y22558847D01*
X20189500Y22401154D01*
X20220261Y22246511D01*
X20220264Y22246499D01*
X20280602Y22100828D01*
X20280609Y22100815D01*
X20368210Y21969712D01*
X20368213Y21969708D01*
X20479707Y21858214D01*
X20479711Y21858211D01*
X20610814Y21770610D01*
X20610827Y21770603D01*
X20748683Y21713502D01*
X20756503Y21710263D01*
X20911153Y21679501D01*
X20911156Y21679500D01*
X20911158Y21679500D01*
X21068844Y21679500D01*
X21068845Y21679501D01*
X21223497Y21710263D01*
X21369179Y21770606D01*
X21500289Y21858211D01*
X21611789Y21969711D01*
X21699394Y22100821D01*
X21759737Y22246503D01*
X21790500Y22401158D01*
X21790500Y22558842D01*
X21790500Y22558845D01*
X21790499Y22558847D01*
X21759737Y22713497D01*
X21718314Y22813502D01*
X21699397Y22859173D01*
X21699390Y22859186D01*
X21611789Y22990289D01*
X21611786Y22990293D01*
X21500292Y23101787D01*
X21500288Y23101790D01*
X21369185Y23189391D01*
X21369172Y23189398D01*
X21223501Y23249736D01*
X21223489Y23249739D01*
X21068845Y23280500D01*
X21068842Y23280500D01*
X20911158Y23280500D01*
X20911155Y23280500D01*
X20756510Y23249739D01*
X20756498Y23249736D01*
X20610827Y23189398D01*
X20610814Y23189391D01*
X20479711Y23101790D01*
X20479707Y23101787D01*
X20368213Y22990293D01*
X20368210Y22990289D01*
X20280609Y22859186D01*
X20280602Y22859173D01*
X20220264Y22713502D01*
X20220261Y22713490D01*
X20189500Y22558847D01*
X14200500Y22558847D01*
X14200500Y22658842D01*
X14200500Y22658845D01*
X14200499Y22658847D01*
X14169738Y22813490D01*
X14169737Y22813497D01*
X14114456Y22946959D01*
X14106987Y23016428D01*
X14125913Y23063299D01*
X14184394Y23150821D01*
X14244737Y23296503D01*
X14275500Y23451158D01*
X14275500Y23608842D01*
X14275500Y23608845D01*
X14275499Y23608847D01*
X14250353Y23735263D01*
X14244737Y23763497D01*
X14244636Y23763741D01*
X14184397Y23909173D01*
X14184390Y23909186D01*
X14159763Y23946043D01*
X14117798Y24008847D01*
X18974500Y24008847D01*
X18974500Y23851154D01*
X19005261Y23696511D01*
X19005264Y23696499D01*
X19065602Y23550828D01*
X19065609Y23550815D01*
X19153210Y23419712D01*
X19153213Y23419708D01*
X19264707Y23308214D01*
X19264711Y23308211D01*
X19395814Y23220610D01*
X19395827Y23220603D01*
X19471181Y23189391D01*
X19541503Y23160263D01*
X19688889Y23130946D01*
X19696153Y23129501D01*
X19696156Y23129500D01*
X19696158Y23129500D01*
X19853844Y23129500D01*
X19853845Y23129501D01*
X20008497Y23160263D01*
X20154179Y23220606D01*
X20285289Y23308211D01*
X20396789Y23419711D01*
X20484394Y23550821D01*
X20544737Y23696503D01*
X20575500Y23851158D01*
X20575500Y24008842D01*
X20575500Y24008845D01*
X20575499Y24008847D01*
X20557063Y24101528D01*
X20544737Y24163497D01*
X20513298Y24239398D01*
X20484397Y24309173D01*
X20484390Y24309186D01*
X20396789Y24440289D01*
X20396786Y24440293D01*
X20285292Y24551787D01*
X20285288Y24551790D01*
X20154185Y24639391D01*
X20154172Y24639398D01*
X20008501Y24699736D01*
X20008489Y24699739D01*
X19853845Y24730500D01*
X19853842Y24730500D01*
X19696158Y24730500D01*
X19696155Y24730500D01*
X19541510Y24699739D01*
X19541498Y24699736D01*
X19395827Y24639398D01*
X19395814Y24639391D01*
X19264711Y24551790D01*
X19264707Y24551787D01*
X19153213Y24440293D01*
X19153210Y24440289D01*
X19065609Y24309186D01*
X19065602Y24309173D01*
X19005264Y24163502D01*
X19005261Y24163490D01*
X18974500Y24008847D01*
X14117798Y24008847D01*
X14096789Y24040289D01*
X14096786Y24040293D01*
X13985292Y24151787D01*
X13985288Y24151790D01*
X13854185Y24239391D01*
X13854172Y24239398D01*
X13708501Y24299736D01*
X13708491Y24299739D01*
X13575308Y24326231D01*
X13513397Y24358616D01*
X13478823Y24419332D01*
X13475500Y24447848D01*
X13475500Y24583845D01*
X13475499Y24583847D01*
X13468508Y24618992D01*
X13444737Y24738497D01*
X13392959Y24863502D01*
X13384397Y24884173D01*
X13384390Y24884186D01*
X13296789Y25015289D01*
X13296786Y25015293D01*
X13185292Y25126787D01*
X13185288Y25126790D01*
X13054185Y25214391D01*
X13054172Y25214398D01*
X12908501Y25274736D01*
X12908489Y25274739D01*
X12753845Y25305500D01*
X12753842Y25305500D01*
X12596158Y25305500D01*
X12596155Y25305500D01*
X12441510Y25274739D01*
X12441498Y25274736D01*
X12295827Y25214398D01*
X12295814Y25214391D01*
X12164711Y25126790D01*
X12071393Y25033472D01*
X12010069Y24999988D01*
X11940378Y25004972D01*
X11884445Y25046844D01*
X11880610Y25052263D01*
X11821792Y25140289D01*
X11821789Y25140293D01*
X11710295Y25251787D01*
X11710291Y25251790D01*
X11579188Y25339391D01*
X11579175Y25339398D01*
X11433504Y25399736D01*
X11433492Y25399739D01*
X11278848Y25430500D01*
X11278845Y25430500D01*
X11121161Y25430500D01*
X11121158Y25430500D01*
X10966513Y25399739D01*
X10966501Y25399736D01*
X10820830Y25339398D01*
X10820817Y25339391D01*
X10689714Y25251790D01*
X10689710Y25251787D01*
X10578216Y25140293D01*
X10578213Y25140289D01*
X10490612Y25009186D01*
X10490605Y25009173D01*
X10430267Y24863502D01*
X10430264Y24863490D01*
X10399503Y24708847D01*
X10399503Y24618992D01*
X10379818Y24551953D01*
X10327014Y24506198D01*
X10322956Y24504431D01*
X10220827Y24462128D01*
X10220817Y24462123D01*
X10089714Y24374522D01*
X10089710Y24374519D01*
X9978216Y24263025D01*
X9978213Y24263021D01*
X9890612Y24131918D01*
X9890605Y24131905D01*
X9830267Y23986234D01*
X9830264Y23986222D01*
X9799503Y23831579D01*
X500500Y23831579D01*
X500500Y27183847D01*
X2099500Y27183847D01*
X2099500Y27026154D01*
X2130261Y26871511D01*
X2130264Y26871499D01*
X2190602Y26725828D01*
X2190609Y26725815D01*
X2278210Y26594712D01*
X2278213Y26594708D01*
X2389707Y26483214D01*
X2389711Y26483211D01*
X2520814Y26395610D01*
X2520827Y26395603D01*
X2605326Y26360603D01*
X2666503Y26335263D01*
X2821153Y26304501D01*
X2821156Y26304500D01*
X2821158Y26304500D01*
X2978844Y26304500D01*
X2978845Y26304501D01*
X3133497Y26335263D01*
X3279179Y26395606D01*
X3410289Y26483211D01*
X3521789Y26594711D01*
X3609394Y26725821D01*
X3669737Y26871503D01*
X3700500Y27026158D01*
X3700500Y27149200D01*
X6338383Y27149200D01*
X6338383Y26991507D01*
X6369144Y26836864D01*
X6369147Y26836852D01*
X6429485Y26691181D01*
X6429492Y26691168D01*
X6517093Y26560065D01*
X6517096Y26560061D01*
X6628590Y26448567D01*
X6628594Y26448564D01*
X6759697Y26360963D01*
X6759710Y26360956D01*
X6896009Y26304500D01*
X6905386Y26300616D01*
X7060036Y26269854D01*
X7060039Y26269853D01*
X7060041Y26269853D01*
X7217727Y26269853D01*
X7217728Y26269854D01*
X7372380Y26300616D01*
X7517210Y26360606D01*
X7518055Y26360956D01*
X7518055Y26360957D01*
X7518062Y26360959D01*
X7649172Y26448564D01*
X7760672Y26560064D01*
X7848277Y26691174D01*
X7908620Y26836856D01*
X7939383Y26991511D01*
X7939383Y27149195D01*
X7939383Y27149198D01*
X7939382Y27149200D01*
X7913786Y27277879D01*
X7908620Y27303850D01*
X7899119Y27326787D01*
X7848280Y27449526D01*
X7848273Y27449539D01*
X7760672Y27580642D01*
X7760669Y27580646D01*
X7649175Y27692140D01*
X7649171Y27692143D01*
X7583677Y27735905D01*
X10177956Y27735905D01*
X10177956Y27578212D01*
X10208717Y27423569D01*
X10208720Y27423557D01*
X10269058Y27277886D01*
X10269065Y27277873D01*
X10356666Y27146770D01*
X10356669Y27146766D01*
X10468163Y27035272D01*
X10468167Y27035269D01*
X10599270Y26947668D01*
X10599283Y26947661D01*
X10744954Y26887323D01*
X10744959Y26887321D01*
X10880963Y26860268D01*
X10899609Y26856559D01*
X10899612Y26856558D01*
X10899614Y26856558D01*
X11057300Y26856558D01*
X11057301Y26856559D01*
X11211953Y26887321D01*
X11357635Y26947664D01*
X11488745Y27035269D01*
X11600245Y27146769D01*
X11687850Y27277879D01*
X11698608Y27303850D01*
X11711033Y27333847D01*
X17224500Y27333847D01*
X17224500Y27176154D01*
X17255261Y27021511D01*
X17255264Y27021499D01*
X17315602Y26875828D01*
X17315609Y26875815D01*
X17403210Y26744712D01*
X17403213Y26744708D01*
X17514707Y26633214D01*
X17514711Y26633211D01*
X17645814Y26545610D01*
X17645827Y26545603D01*
X17791498Y26485265D01*
X17791503Y26485263D01*
X17946153Y26454501D01*
X17946156Y26454500D01*
X17946158Y26454500D01*
X18103844Y26454500D01*
X18103845Y26454501D01*
X18258497Y26485263D01*
X18404179Y26545606D01*
X18535289Y26633211D01*
X18646789Y26744711D01*
X18685886Y26803224D01*
X18739497Y26848029D01*
X18808821Y26856738D01*
X18813180Y26855951D01*
X18946155Y26829500D01*
X18946158Y26829500D01*
X19103844Y26829500D01*
X19103845Y26829501D01*
X19258497Y26860263D01*
X19371166Y26906933D01*
X19404172Y26920603D01*
X19404172Y26920604D01*
X19404179Y26920606D01*
X19535289Y27008211D01*
X19646789Y27119711D01*
X19734394Y27250821D01*
X19794737Y27396503D01*
X19825500Y27551158D01*
X19825500Y27708842D01*
X19825500Y27708845D01*
X19825499Y27708847D01*
X19811465Y27779398D01*
X19794737Y27863497D01*
X19790081Y27874737D01*
X19734397Y28009173D01*
X19734390Y28009186D01*
X19646789Y28140289D01*
X19646786Y28140293D01*
X19535292Y28251787D01*
X19535288Y28251790D01*
X19404185Y28339391D01*
X19404172Y28339398D01*
X19258501Y28399736D01*
X19258489Y28399739D01*
X19103845Y28430500D01*
X19103842Y28430500D01*
X18946158Y28430500D01*
X18946155Y28430500D01*
X18791510Y28399739D01*
X18791498Y28399736D01*
X18645827Y28339398D01*
X18645814Y28339391D01*
X18514711Y28251790D01*
X18514707Y28251787D01*
X18403213Y28140293D01*
X18403210Y28140289D01*
X18364113Y28081776D01*
X18310500Y28036971D01*
X18241175Y28028264D01*
X18236820Y28029050D01*
X18103846Y28055500D01*
X18103842Y28055500D01*
X17946158Y28055500D01*
X17946155Y28055500D01*
X17791510Y28024739D01*
X17791498Y28024736D01*
X17645827Y27964398D01*
X17645814Y27964391D01*
X17514711Y27876790D01*
X17514707Y27876787D01*
X17403213Y27765293D01*
X17403210Y27765289D01*
X17315609Y27634186D01*
X17315602Y27634173D01*
X17255264Y27488502D01*
X17255261Y27488490D01*
X17224500Y27333847D01*
X11711033Y27333847D01*
X11733209Y27387386D01*
X11733209Y27387387D01*
X11748193Y27423561D01*
X11778956Y27578216D01*
X11778956Y27735900D01*
X11778956Y27735903D01*
X11778955Y27735905D01*
X11763342Y27814394D01*
X11748193Y27890555D01*
X11736872Y27917885D01*
X11729405Y27987353D01*
X11748334Y28034227D01*
X11774369Y28073190D01*
X11834712Y28218872D01*
X11865475Y28373527D01*
X11865475Y28531211D01*
X11865475Y28531214D01*
X11865474Y28531216D01*
X11853634Y28590743D01*
X11850033Y28608847D01*
X24209500Y28608847D01*
X24209500Y28451154D01*
X24240261Y28296511D01*
X24240264Y28296499D01*
X24300602Y28150828D01*
X24300609Y28150815D01*
X24388210Y28019712D01*
X24388213Y28019708D01*
X24499707Y27908214D01*
X24499711Y27908211D01*
X24630814Y27820610D01*
X24630827Y27820603D01*
X24764359Y27765293D01*
X24776503Y27760263D01*
X24931153Y27729501D01*
X24931156Y27729500D01*
X24931158Y27729500D01*
X25088844Y27729500D01*
X25173977Y27746435D01*
X25240470Y27759661D01*
X25310061Y27753434D01*
X25365238Y27710571D01*
X25388483Y27644682D01*
X25372416Y27576685D01*
X25367763Y27569154D01*
X25287606Y27449191D01*
X25287596Y27449173D01*
X25227258Y27303502D01*
X25227255Y27303490D01*
X25196494Y27148847D01*
X25196494Y26991154D01*
X25227255Y26836511D01*
X25227258Y26836499D01*
X25287596Y26690828D01*
X25287603Y26690815D01*
X25375204Y26559712D01*
X25375207Y26559708D01*
X25486701Y26448214D01*
X25486705Y26448211D01*
X25617808Y26360610D01*
X25617821Y26360603D01*
X25753265Y26304501D01*
X25763497Y26300263D01*
X25916372Y26269854D01*
X25918147Y26269501D01*
X25918150Y26269500D01*
X25918152Y26269500D01*
X26075838Y26269500D01*
X26075839Y26269501D01*
X26230491Y26300263D01*
X26376173Y26360606D01*
X26507283Y26448211D01*
X26618783Y26559711D01*
X26706388Y26690821D01*
X26752058Y26801081D01*
X26795897Y26855481D01*
X26862191Y26877547D01*
X26929890Y26860268D01*
X26954299Y26841307D01*
X26989707Y26805899D01*
X26989711Y26805896D01*
X27120817Y26718293D01*
X27120819Y26718293D01*
X27120821Y26718291D01*
X27122755Y26717490D01*
X27123177Y26717315D01*
X27124221Y26716474D01*
X27126187Y26715423D01*
X27125987Y26715051D01*
X27177581Y26673475D01*
X27197342Y26626946D01*
X27228261Y26471509D01*
X27228264Y26471499D01*
X27288602Y26325828D01*
X27288609Y26325815D01*
X27376210Y26194712D01*
X27376213Y26194708D01*
X27487707Y26083214D01*
X27487711Y26083211D01*
X27618814Y25995610D01*
X27618827Y25995603D01*
X27764498Y25935265D01*
X27764503Y25935263D01*
X27919153Y25904501D01*
X27919156Y25904500D01*
X27919158Y25904500D01*
X28076844Y25904500D01*
X28076845Y25904501D01*
X28231497Y25935263D01*
X28377179Y25995606D01*
X28508289Y26083211D01*
X28619789Y26194711D01*
X28707394Y26325821D01*
X28767737Y26471503D01*
X28798500Y26626158D01*
X28798500Y26783842D01*
X28798500Y26783845D01*
X28798499Y26783847D01*
X28794113Y26805896D01*
X28767737Y26938497D01*
X28738861Y27008211D01*
X28707397Y27084173D01*
X28707390Y27084186D01*
X28619789Y27215289D01*
X28619786Y27215293D01*
X28508292Y27326787D01*
X28508284Y27326793D01*
X28377181Y27414393D01*
X28377180Y27414394D01*
X28374820Y27415371D01*
X28373772Y27416215D01*
X28371801Y27417269D01*
X28372000Y27417643D01*
X28320417Y27459213D01*
X28300657Y27505741D01*
X28269738Y27661175D01*
X28269737Y27661182D01*
X28249996Y27708842D01*
X28209397Y27806858D01*
X28209390Y27806871D01*
X28121789Y27937974D01*
X28121786Y27937978D01*
X28010292Y28049472D01*
X28010288Y28049475D01*
X27879185Y28137076D01*
X27879172Y28137083D01*
X27733501Y28197421D01*
X27733489Y28197424D01*
X27578845Y28228185D01*
X27578842Y28228185D01*
X27421158Y28228185D01*
X27421155Y28228185D01*
X27266510Y28197424D01*
X27266498Y28197421D01*
X27120827Y28137083D01*
X27120814Y28137076D01*
X26989711Y28049475D01*
X26989707Y28049472D01*
X26878213Y27937978D01*
X26878210Y27937974D01*
X26790609Y27806871D01*
X26790604Y27806862D01*
X26744936Y27696607D01*
X26701095Y27642204D01*
X26634801Y27620139D01*
X26567102Y27637418D01*
X26542694Y27656379D01*
X26507286Y27691787D01*
X26507282Y27691790D01*
X26376179Y27779391D01*
X26376166Y27779398D01*
X26230495Y27839736D01*
X26230483Y27839739D01*
X26075839Y27870500D01*
X26075836Y27870500D01*
X25918152Y27870500D01*
X25918147Y27870500D01*
X25766523Y27840340D01*
X25696931Y27846567D01*
X25641754Y27889430D01*
X25618510Y27955320D01*
X25634578Y28023317D01*
X25639223Y28030838D01*
X25719394Y28150821D01*
X25779737Y28296503D01*
X25810500Y28451158D01*
X25810500Y28608842D01*
X25810500Y28608845D01*
X25810499Y28608847D01*
X25779737Y28763497D01*
X25720078Y28907528D01*
X25719397Y28909173D01*
X25719390Y28909186D01*
X25631789Y29040289D01*
X25631786Y29040293D01*
X25520292Y29151787D01*
X25520288Y29151790D01*
X25389185Y29239391D01*
X25389172Y29239398D01*
X25243501Y29299736D01*
X25243489Y29299739D01*
X25088845Y29330500D01*
X25088842Y29330500D01*
X24931158Y29330500D01*
X24931155Y29330500D01*
X24776510Y29299739D01*
X24776498Y29299736D01*
X24630827Y29239398D01*
X24630814Y29239391D01*
X24499711Y29151790D01*
X24499707Y29151787D01*
X24388213Y29040293D01*
X24388210Y29040289D01*
X24300609Y28909186D01*
X24300602Y28909173D01*
X24240264Y28763502D01*
X24240261Y28763490D01*
X24209500Y28608847D01*
X11850033Y28608847D01*
X11834713Y28685861D01*
X11834712Y28685862D01*
X11834712Y28685866D01*
X11834710Y28685871D01*
X11774372Y28831542D01*
X11774365Y28831555D01*
X11686764Y28962658D01*
X11686761Y28962662D01*
X11575267Y29074156D01*
X11575263Y29074159D01*
X11444160Y29161760D01*
X11444147Y29161767D01*
X11298476Y29222105D01*
X11298464Y29222108D01*
X11143820Y29252869D01*
X11143817Y29252869D01*
X10986133Y29252869D01*
X10986130Y29252869D01*
X10831485Y29222108D01*
X10831473Y29222105D01*
X10685802Y29161767D01*
X10685789Y29161760D01*
X10554686Y29074159D01*
X10554682Y29074156D01*
X10443188Y28962662D01*
X10443185Y28962658D01*
X10355584Y28831555D01*
X10355577Y28831542D01*
X10295239Y28685871D01*
X10295236Y28685859D01*
X10264475Y28531216D01*
X10264475Y28373523D01*
X10295235Y28218881D01*
X10295238Y28218871D01*
X10306557Y28191544D01*
X10314024Y28122074D01*
X10295099Y28075205D01*
X10269063Y28036239D01*
X10269058Y28036230D01*
X10208720Y27890560D01*
X10208717Y27890548D01*
X10177956Y27735905D01*
X7583677Y27735905D01*
X7518068Y27779744D01*
X7518055Y27779751D01*
X7372384Y27840089D01*
X7372372Y27840092D01*
X7217728Y27870853D01*
X7217725Y27870853D01*
X7060041Y27870853D01*
X7060038Y27870853D01*
X6905393Y27840092D01*
X6905381Y27840089D01*
X6759710Y27779751D01*
X6759697Y27779744D01*
X6628594Y27692143D01*
X6628590Y27692140D01*
X6517096Y27580646D01*
X6517093Y27580642D01*
X6429492Y27449539D01*
X6429485Y27449526D01*
X6369147Y27303855D01*
X6369144Y27303843D01*
X6338383Y27149200D01*
X3700500Y27149200D01*
X3700500Y27183842D01*
X3700500Y27183845D01*
X3700499Y27183847D01*
X3687177Y27250821D01*
X3669737Y27338497D01*
X3645712Y27396499D01*
X3609397Y27484173D01*
X3609390Y27484186D01*
X3521789Y27615289D01*
X3521786Y27615293D01*
X3410292Y27726787D01*
X3410288Y27726790D01*
X3279185Y27814391D01*
X3279172Y27814398D01*
X3133501Y27874736D01*
X3133489Y27874739D01*
X2978845Y27905500D01*
X2978842Y27905500D01*
X2821158Y27905500D01*
X2821155Y27905500D01*
X2666510Y27874739D01*
X2666498Y27874736D01*
X2520827Y27814398D01*
X2520814Y27814391D01*
X2389711Y27726790D01*
X2389707Y27726787D01*
X2278213Y27615293D01*
X2278210Y27615289D01*
X2190609Y27484186D01*
X2190602Y27484173D01*
X2130264Y27338502D01*
X2130261Y27338490D01*
X2099500Y27183847D01*
X500500Y27183847D01*
X500500Y29365560D01*
X5156386Y29365560D01*
X5156386Y29207867D01*
X5187147Y29053224D01*
X5187150Y29053212D01*
X5247488Y28907541D01*
X5247495Y28907528D01*
X5335096Y28776425D01*
X5335099Y28776421D01*
X5446593Y28664927D01*
X5446597Y28664924D01*
X5577700Y28577323D01*
X5577713Y28577316D01*
X5689010Y28531216D01*
X5723389Y28516976D01*
X5878039Y28486214D01*
X5878042Y28486213D01*
X5878044Y28486213D01*
X6035730Y28486213D01*
X6035731Y28486214D01*
X6190383Y28516976D01*
X6336065Y28577319D01*
X6467175Y28664924D01*
X6578675Y28776424D01*
X6666280Y28907534D01*
X6726623Y29053216D01*
X6757386Y29207871D01*
X6757386Y29365555D01*
X6757386Y29365558D01*
X6757385Y29365560D01*
X6741641Y29444711D01*
X6726623Y29520210D01*
X6703591Y29575815D01*
X6666283Y29665886D01*
X6666276Y29665899D01*
X6578675Y29797002D01*
X6578672Y29797006D01*
X6467178Y29908500D01*
X6467174Y29908503D01*
X6336071Y29996104D01*
X6336058Y29996111D01*
X6190387Y30056449D01*
X6190375Y30056452D01*
X6035731Y30087213D01*
X6035728Y30087213D01*
X5878044Y30087213D01*
X5878041Y30087213D01*
X5723396Y30056452D01*
X5723384Y30056449D01*
X5577713Y29996111D01*
X5577700Y29996104D01*
X5446597Y29908503D01*
X5446593Y29908500D01*
X5335099Y29797006D01*
X5335096Y29797002D01*
X5247495Y29665899D01*
X5247488Y29665886D01*
X5187150Y29520215D01*
X5187147Y29520203D01*
X5156386Y29365560D01*
X500500Y29365560D01*
X500500Y33136457D01*
X939499Y33136457D01*
X977947Y32943171D01*
X977950Y32943161D01*
X1020296Y32840929D01*
X1053368Y32761086D01*
X1097352Y32695260D01*
X1114971Y32668890D01*
X1135848Y32602213D01*
X1117363Y32534833D01*
X1114971Y32531110D01*
X1053366Y32438911D01*
X977950Y32256840D01*
X977947Y32256830D01*
X939500Y32063544D01*
X939500Y32063541D01*
X939500Y31866459D01*
X939500Y31866457D01*
X939499Y31866457D01*
X977947Y31673172D01*
X977949Y31673164D01*
X979098Y31670391D01*
X1019940Y31571787D01*
X1020318Y31570876D01*
X1027787Y31501407D01*
X1005026Y31449116D01*
X996203Y31437330D01*
X996202Y31437329D01*
X945908Y31302483D01*
X939501Y31242884D01*
X939501Y31242877D01*
X939500Y31242865D01*
X939500Y30147130D01*
X939501Y30147124D01*
X945908Y30087517D01*
X996202Y29952672D01*
X996206Y29952665D01*
X1082452Y29837456D01*
X1082455Y29837453D01*
X1197664Y29751207D01*
X1197671Y29751203D01*
X1332517Y29700909D01*
X1332516Y29700909D01*
X1339444Y29700165D01*
X1392127Y29694500D01*
X2487872Y29694501D01*
X2547483Y29700909D01*
X2682331Y29751204D01*
X2797546Y29837454D01*
X2883796Y29952669D01*
X2934091Y30087517D01*
X2940500Y30147127D01*
X2940499Y31242872D01*
X2934091Y31302483D01*
X2924136Y31329173D01*
X2883797Y31437329D01*
X2883795Y31437332D01*
X2874976Y31449113D01*
X2850558Y31514577D01*
X2859679Y31570872D01*
X2902051Y31673165D01*
X2919622Y31761500D01*
X2940500Y31866457D01*
X2940500Y32063544D01*
X2902052Y32256830D01*
X2902051Y32256831D01*
X2902051Y32256835D01*
X2902049Y32256840D01*
X2826635Y32438908D01*
X2826633Y32438912D01*
X2826632Y32438914D01*
X2765029Y32531109D01*
X2744151Y32597786D01*
X2762635Y32665166D01*
X2765029Y32668891D01*
X2777872Y32688113D01*
X2826632Y32761086D01*
X2902051Y32943165D01*
X2940500Y33136459D01*
X2940500Y33333541D01*
X2940500Y33333544D01*
X2902052Y33526830D01*
X2902051Y33526831D01*
X2902051Y33526835D01*
X2864314Y33617942D01*
X2826635Y33708908D01*
X2826628Y33708921D01*
X2764728Y33801560D01*
X2743850Y33868237D01*
X2762334Y33935617D01*
X2764729Y33939343D01*
X2826189Y34031324D01*
X2826191Y34031327D01*
X2850016Y34088847D01*
X6459500Y34088847D01*
X6459500Y33931154D01*
X6490261Y33776511D01*
X6490264Y33776499D01*
X6550602Y33630828D01*
X6550609Y33630815D01*
X6638210Y33499712D01*
X6638213Y33499708D01*
X6749707Y33388214D01*
X6749711Y33388211D01*
X6880814Y33300610D01*
X6880827Y33300603D01*
X6988423Y33256036D01*
X7026503Y33240263D01*
X7162693Y33213173D01*
X7181153Y33209501D01*
X7181156Y33209500D01*
X7181158Y33209500D01*
X7338844Y33209500D01*
X7338845Y33209501D01*
X7493497Y33240263D01*
X7639179Y33300606D01*
X7770289Y33388211D01*
X7814344Y33432267D01*
X7875666Y33465752D01*
X7945357Y33460768D01*
X7949471Y33459150D01*
X8004724Y33436263D01*
X8159374Y33405501D01*
X8159377Y33405500D01*
X8159379Y33405500D01*
X8317065Y33405500D01*
X8317066Y33405501D01*
X8471718Y33436263D01*
X8617400Y33496606D01*
X8748510Y33584211D01*
X8860010Y33695711D01*
X8947615Y33826821D01*
X9007958Y33972503D01*
X9038721Y34127158D01*
X9038721Y34284842D01*
X9038721Y34284845D01*
X9038720Y34284847D01*
X9033675Y34310208D01*
X9007958Y34439497D01*
X8998549Y34462213D01*
X8947618Y34585173D01*
X8947611Y34585186D01*
X8860010Y34716289D01*
X8860007Y34716293D01*
X8748513Y34827787D01*
X8748509Y34827790D01*
X8617406Y34915391D01*
X8617393Y34915398D01*
X8471722Y34975736D01*
X8471710Y34975739D01*
X8317066Y35006500D01*
X8317063Y35006500D01*
X8159379Y35006500D01*
X8159376Y35006500D01*
X8004731Y34975739D01*
X8004719Y34975736D01*
X7859048Y34915398D01*
X7859035Y34915391D01*
X7727935Y34827792D01*
X7727929Y34827788D01*
X7683873Y34783732D01*
X7622550Y34750248D01*
X7552858Y34755234D01*
X7548741Y34756854D01*
X7528920Y34765064D01*
X7493497Y34779737D01*
X7493489Y34779739D01*
X7338845Y34810500D01*
X7338842Y34810500D01*
X7181158Y34810500D01*
X7181155Y34810500D01*
X7026510Y34779739D01*
X7026498Y34779736D01*
X6880827Y34719398D01*
X6880814Y34719391D01*
X6749711Y34631790D01*
X6749707Y34631787D01*
X6638213Y34520293D01*
X6638210Y34520289D01*
X6550609Y34389186D01*
X6550602Y34389173D01*
X6490264Y34243502D01*
X6490261Y34243490D01*
X6459500Y34088847D01*
X2850016Y34088847D01*
X2872193Y34142386D01*
X2872193Y34142387D01*
X2901570Y34213311D01*
X2901572Y34213319D01*
X2939999Y34406505D01*
X2940000Y34406508D01*
X2940000Y34603492D01*
X2939403Y34609554D01*
X2940618Y34609674D01*
X2946269Y34672857D01*
X2989130Y34728037D01*
X3055019Y34751284D01*
X3123016Y34735219D01*
X3130552Y34730564D01*
X3146549Y34719875D01*
X3146562Y34719868D01*
X3269887Y34668786D01*
X3292238Y34659528D01*
X3438447Y34630445D01*
X3446888Y34628766D01*
X3446891Y34628765D01*
X3446893Y34628765D01*
X3604579Y34628765D01*
X3604580Y34628766D01*
X3759232Y34659528D01*
X3903755Y34719391D01*
X3904907Y34719868D01*
X3904907Y34719869D01*
X3904914Y34719871D01*
X4036024Y34807476D01*
X4147524Y34918976D01*
X4235129Y35050086D01*
X4238495Y35058211D01*
X4269263Y35132494D01*
X4295472Y35195768D01*
X4326235Y35350423D01*
X4326235Y35391332D01*
X10017015Y35391332D01*
X10017015Y35233639D01*
X10047776Y35078996D01*
X10047779Y35078984D01*
X10108117Y34933313D01*
X10108124Y34933300D01*
X10195725Y34802197D01*
X10195728Y34802193D01*
X10307222Y34690699D01*
X10307226Y34690696D01*
X10438329Y34603095D01*
X10438336Y34603091D01*
X10475918Y34587525D01*
X10530321Y34543684D01*
X10552387Y34477390D01*
X10543027Y34425511D01*
X10484515Y34284251D01*
X10484512Y34284239D01*
X10453751Y34129596D01*
X10453751Y33971903D01*
X10484512Y33817260D01*
X10484515Y33817248D01*
X10544853Y33671577D01*
X10544860Y33671564D01*
X10632461Y33540461D01*
X10632464Y33540457D01*
X10743958Y33428963D01*
X10743962Y33428960D01*
X10875065Y33341359D01*
X10875078Y33341352D01*
X11020749Y33281014D01*
X11020754Y33281012D01*
X11146316Y33256036D01*
X11175404Y33250250D01*
X11175407Y33250249D01*
X11175409Y33250249D01*
X11333095Y33250249D01*
X11393492Y33262263D01*
X11463084Y33256036D01*
X11518261Y33213173D01*
X11541506Y33147284D01*
X11532245Y33093194D01*
X11493679Y33000087D01*
X11493676Y33000075D01*
X11462915Y32845432D01*
X11462915Y32687739D01*
X11493676Y32533096D01*
X11493679Y32533084D01*
X11554017Y32387413D01*
X11554024Y32387400D01*
X11641625Y32256297D01*
X11641628Y32256293D01*
X11686648Y32211273D01*
X11720133Y32149950D01*
X11715149Y32080258D01*
X11673277Y32024325D01*
X11623160Y32001975D01*
X11516406Y31980740D01*
X11516397Y31980737D01*
X11370726Y31920399D01*
X11370713Y31920392D01*
X11239610Y31832791D01*
X11239606Y31832788D01*
X11128112Y31721294D01*
X11128109Y31721290D01*
X11040508Y31590187D01*
X11040501Y31590174D01*
X10980163Y31444503D01*
X10980160Y31444491D01*
X10949399Y31289848D01*
X10949399Y31132155D01*
X10980160Y30977512D01*
X10980163Y30977500D01*
X11040501Y30831829D01*
X11040508Y30831816D01*
X11128109Y30700713D01*
X11128112Y30700709D01*
X11239606Y30589215D01*
X11239610Y30589212D01*
X11370713Y30501611D01*
X11370726Y30501604D01*
X11508080Y30444711D01*
X11516402Y30441264D01*
X11664527Y30411800D01*
X11671052Y30410502D01*
X11671055Y30410501D01*
X11671057Y30410501D01*
X11828743Y30410501D01*
X11828744Y30410502D01*
X11983396Y30441264D01*
X12129078Y30501607D01*
X12260188Y30589212D01*
X12371688Y30700712D01*
X12459293Y30831822D01*
X12519636Y30977504D01*
X12532036Y31039842D01*
X12532037Y31039847D01*
X12820079Y31039847D01*
X12820079Y30882154D01*
X12850840Y30727511D01*
X12850843Y30727499D01*
X12911181Y30581828D01*
X12911188Y30581815D01*
X12998789Y30450712D01*
X12998792Y30450708D01*
X13110286Y30339214D01*
X13110290Y30339211D01*
X13241393Y30251610D01*
X13241406Y30251603D01*
X13347633Y30207603D01*
X13387082Y30191263D01*
X13524569Y30163915D01*
X13541732Y30160501D01*
X13541735Y30160500D01*
X13541737Y30160500D01*
X13699423Y30160500D01*
X13699424Y30160501D01*
X13854076Y30191263D01*
X13999758Y30251606D01*
X14130868Y30339211D01*
X14242368Y30450711D01*
X14329973Y30581821D01*
X14333035Y30589212D01*
X14364174Y30664391D01*
X14390316Y30727503D01*
X14421079Y30882158D01*
X14421079Y31039842D01*
X14421079Y31039845D01*
X14421078Y31039847D01*
X14410586Y31092592D01*
X14390316Y31194497D01*
X14390314Y31194502D01*
X14329976Y31340173D01*
X14329969Y31340186D01*
X14242368Y31471289D01*
X14242365Y31471293D01*
X14130871Y31582787D01*
X14130867Y31582790D01*
X14058658Y31631039D01*
X14013853Y31684652D01*
X14005146Y31753977D01*
X14035301Y31817004D01*
X14094744Y31853723D01*
X14146927Y31855586D01*
X14146978Y31856096D01*
X14150773Y31855723D01*
X14151746Y31855757D01*
X14153043Y31855499D01*
X14153045Y31855499D01*
X14310729Y31855499D01*
X14310730Y31855500D01*
X14465382Y31886262D01*
X14611064Y31946605D01*
X14742174Y32034210D01*
X14853674Y32145710D01*
X14941279Y32276820D01*
X15001622Y32422502D01*
X15032385Y32577157D01*
X15032385Y32734841D01*
X15032385Y32734844D01*
X15032384Y32734846D01*
X15001622Y32889496D01*
X15001620Y32889501D01*
X14941282Y33035172D01*
X14941275Y33035185D01*
X14853674Y33166288D01*
X14853671Y33166292D01*
X14742177Y33277786D01*
X14742173Y33277789D01*
X14611070Y33365390D01*
X14611057Y33365397D01*
X14465386Y33425735D01*
X14465374Y33425738D01*
X14310730Y33456499D01*
X14310727Y33456499D01*
X14153043Y33456499D01*
X14153040Y33456499D01*
X13998395Y33425738D01*
X13998383Y33425735D01*
X13852712Y33365397D01*
X13852699Y33365390D01*
X13721596Y33277789D01*
X13721592Y33277786D01*
X13610098Y33166292D01*
X13610095Y33166288D01*
X13522494Y33035185D01*
X13522487Y33035172D01*
X13462149Y32889501D01*
X13462146Y32889489D01*
X13431385Y32734846D01*
X13431385Y32577153D01*
X13462146Y32422510D01*
X13462149Y32422498D01*
X13522487Y32276827D01*
X13522494Y32276814D01*
X13610095Y32145711D01*
X13610098Y32145707D01*
X13721592Y32034213D01*
X13721596Y32034210D01*
X13793805Y31985961D01*
X13838610Y31932349D01*
X13847317Y31863024D01*
X13817163Y31799996D01*
X13757719Y31763277D01*
X13705536Y31761413D01*
X13705486Y31760903D01*
X13701700Y31761276D01*
X13700727Y31761241D01*
X13699425Y31761500D01*
X13699421Y31761500D01*
X13541737Y31761500D01*
X13541734Y31761500D01*
X13387089Y31730739D01*
X13387077Y31730736D01*
X13241406Y31670398D01*
X13241393Y31670391D01*
X13110290Y31582790D01*
X13110286Y31582787D01*
X12998792Y31471293D01*
X12998789Y31471289D01*
X12911188Y31340186D01*
X12911181Y31340173D01*
X12850843Y31194502D01*
X12850840Y31194490D01*
X12820079Y31039847D01*
X12532037Y31039847D01*
X12538060Y31070125D01*
X12538060Y31070126D01*
X12550399Y31132157D01*
X12550399Y31289846D01*
X12550398Y31289848D01*
X12547885Y31302483D01*
X12519636Y31444498D01*
X12519634Y31444503D01*
X12459296Y31590174D01*
X12459289Y31590187D01*
X12371688Y31721290D01*
X12371685Y31721294D01*
X12326665Y31766314D01*
X12293180Y31827637D01*
X12298164Y31897329D01*
X12340036Y31953262D01*
X12390155Y31975612D01*
X12442500Y31986025D01*
X12496912Y31996848D01*
X12631735Y32052693D01*
X12642587Y32057188D01*
X12642587Y32057189D01*
X12642594Y32057191D01*
X12773704Y32144796D01*
X12885204Y32256296D01*
X12972809Y32387406D01*
X13033152Y32533088D01*
X13063915Y32687743D01*
X13063915Y32845427D01*
X13063915Y32845430D01*
X13063914Y32845432D01*
X13044474Y32943161D01*
X13033152Y33000082D01*
X13033150Y33000087D01*
X12972812Y33145758D01*
X12972805Y33145771D01*
X12885204Y33276874D01*
X12885201Y33276878D01*
X12773707Y33388372D01*
X12773703Y33388375D01*
X12642600Y33475976D01*
X12642587Y33475983D01*
X12496916Y33536321D01*
X12496904Y33536324D01*
X12342260Y33567085D01*
X12342257Y33567085D01*
X12184573Y33567085D01*
X12124171Y33555071D01*
X12054579Y33561300D01*
X11999402Y33604163D01*
X11976159Y33670053D01*
X11985419Y33724139D01*
X12023988Y33817252D01*
X12054751Y33971907D01*
X12054751Y34129591D01*
X12054751Y34129594D01*
X12054750Y34129596D01*
X12032095Y34243490D01*
X12023988Y34284246D01*
X11984510Y34379555D01*
X11963648Y34429922D01*
X11963641Y34429935D01*
X11876040Y34561038D01*
X11876037Y34561042D01*
X11764543Y34672536D01*
X11764539Y34672539D01*
X11672786Y34733847D01*
X14549500Y34733847D01*
X14549500Y34576154D01*
X14580261Y34421511D01*
X14580264Y34421499D01*
X14640602Y34275828D01*
X14640609Y34275815D01*
X14728210Y34144712D01*
X14728213Y34144708D01*
X14839707Y34033214D01*
X14839711Y34033211D01*
X14970814Y33945610D01*
X14970827Y33945603D01*
X15116498Y33885265D01*
X15116503Y33885263D01*
X15271153Y33854501D01*
X15271156Y33854500D01*
X15271158Y33854500D01*
X15428844Y33854500D01*
X15428845Y33854501D01*
X15583497Y33885263D01*
X15729179Y33945606D01*
X15860289Y34033211D01*
X15922075Y34094998D01*
X15983396Y34128481D01*
X16053088Y34123497D01*
X16109022Y34081626D01*
X16131371Y34031511D01*
X16132614Y34025262D01*
X16132618Y34025248D01*
X16192956Y33879577D01*
X16192963Y33879564D01*
X16283949Y33743395D01*
X16282164Y33742203D01*
X16305678Y33686808D01*
X16293873Y33617942D01*
X16246710Y33566392D01*
X16206701Y33550861D01*
X16111004Y33531826D01*
X16110994Y33531823D01*
X15965323Y33471485D01*
X15965310Y33471478D01*
X15834207Y33383877D01*
X15834203Y33383874D01*
X15722709Y33272380D01*
X15722706Y33272376D01*
X15635105Y33141273D01*
X15635098Y33141260D01*
X15574760Y32995589D01*
X15574757Y32995577D01*
X15543996Y32840934D01*
X15543996Y32683241D01*
X15574757Y32528598D01*
X15574760Y32528586D01*
X15635098Y32382915D01*
X15635105Y32382902D01*
X15722706Y32251799D01*
X15722709Y32251795D01*
X15834203Y32140301D01*
X15834207Y32140298D01*
X15965310Y32052697D01*
X15965323Y32052690D01*
X16064764Y32011501D01*
X16110999Y31992350D01*
X16244218Y31965851D01*
X16306129Y31933467D01*
X16340703Y31872751D01*
X16336964Y31802981D01*
X16296098Y31746309D01*
X16256036Y31725578D01*
X16253274Y31724741D01*
X16107592Y31664398D01*
X16107579Y31664391D01*
X15976476Y31576790D01*
X15976472Y31576787D01*
X15864978Y31465293D01*
X15864975Y31465289D01*
X15777374Y31334186D01*
X15777367Y31334173D01*
X15717029Y31188502D01*
X15717026Y31188490D01*
X15686265Y31033847D01*
X15686265Y30876154D01*
X15717026Y30721511D01*
X15717029Y30721499D01*
X15777367Y30575828D01*
X15777374Y30575815D01*
X15864975Y30444712D01*
X15868841Y30440001D01*
X15866739Y30438277D01*
X15894607Y30387241D01*
X15889623Y30317549D01*
X15861123Y30273203D01*
X15828214Y30240294D01*
X15828210Y30240289D01*
X15740609Y30109186D01*
X15740602Y30109173D01*
X15680264Y29963502D01*
X15680261Y29963490D01*
X15649500Y29808847D01*
X15649500Y29651154D01*
X15680261Y29496511D01*
X15680264Y29496499D01*
X15740602Y29350828D01*
X15740609Y29350815D01*
X15828210Y29219712D01*
X15828213Y29219708D01*
X15939707Y29108214D01*
X15939711Y29108211D01*
X16070814Y29020610D01*
X16070827Y29020603D01*
X16210711Y28962662D01*
X16216503Y28960263D01*
X16371153Y28929501D01*
X16371156Y28929500D01*
X16371158Y28929500D01*
X16528844Y28929500D01*
X16528845Y28929501D01*
X16683497Y28960263D01*
X16829179Y29020606D01*
X16960289Y29108211D01*
X17071789Y29219711D01*
X17159394Y29350821D01*
X17219737Y29496503D01*
X17250500Y29651158D01*
X17250500Y29808842D01*
X17250500Y29808845D01*
X17250499Y29808847D01*
X17237110Y29876158D01*
X17219737Y29963497D01*
X17190598Y30033847D01*
X19124500Y30033847D01*
X19124500Y29876154D01*
X19155261Y29721511D01*
X19155264Y29721499D01*
X19215602Y29575828D01*
X19215609Y29575815D01*
X19303210Y29444712D01*
X19303213Y29444708D01*
X19414707Y29333214D01*
X19414711Y29333211D01*
X19545814Y29245610D01*
X19545827Y29245603D01*
X19691498Y29185265D01*
X19691503Y29185263D01*
X19809625Y29161767D01*
X19846153Y29154501D01*
X19846156Y29154500D01*
X19846158Y29154500D01*
X20003844Y29154500D01*
X20003845Y29154501D01*
X20158497Y29185263D01*
X20289182Y29239394D01*
X20304172Y29245603D01*
X20304172Y29245604D01*
X20304179Y29245606D01*
X20435289Y29333211D01*
X20546789Y29444711D01*
X20634394Y29575821D01*
X20694737Y29721503D01*
X20725500Y29876158D01*
X20725500Y30033842D01*
X20725500Y30033845D01*
X20725499Y30033847D01*
X20721003Y30056450D01*
X20694737Y30188497D01*
X20693591Y30191263D01*
X20634397Y30334173D01*
X20634390Y30334186D01*
X20546789Y30465289D01*
X20546786Y30465293D01*
X20435292Y30576787D01*
X20435288Y30576790D01*
X20304185Y30664391D01*
X20304172Y30664398D01*
X20158501Y30724736D01*
X20158489Y30724739D01*
X20003845Y30755500D01*
X20003842Y30755500D01*
X19846158Y30755500D01*
X19846155Y30755500D01*
X19691510Y30724739D01*
X19691498Y30724736D01*
X19545827Y30664398D01*
X19545814Y30664391D01*
X19414711Y30576790D01*
X19414707Y30576787D01*
X19303213Y30465293D01*
X19303210Y30465289D01*
X19215609Y30334186D01*
X19215602Y30334173D01*
X19155264Y30188502D01*
X19155261Y30188490D01*
X19124500Y30033847D01*
X17190598Y30033847D01*
X17168367Y30087517D01*
X17159397Y30109173D01*
X17159390Y30109186D01*
X17071789Y30240289D01*
X17067924Y30244999D01*
X17070025Y30246724D01*
X17042157Y30297760D01*
X17047141Y30367452D01*
X17075643Y30411800D01*
X17108551Y30444708D01*
X17108554Y30444711D01*
X17196159Y30575821D01*
X17256502Y30721503D01*
X17287265Y30876158D01*
X17287265Y31033842D01*
X17287265Y31033845D01*
X17287264Y31033847D01*
X17256502Y31188497D01*
X17233980Y31242871D01*
X17196162Y31334173D01*
X17196155Y31334186D01*
X17108554Y31465289D01*
X17108551Y31465293D01*
X17055649Y31518195D01*
X17547499Y31518195D01*
X17571613Y31396971D01*
X17571616Y31396961D01*
X17618913Y31282774D01*
X17618920Y31282761D01*
X17687588Y31179993D01*
X17687591Y31179989D01*
X17774988Y31092592D01*
X17774992Y31092589D01*
X17877760Y31023921D01*
X17877773Y31023914D01*
X17989799Y30977512D01*
X17991965Y30976615D01*
X17991969Y30976615D01*
X17991970Y30976614D01*
X18113194Y30952500D01*
X18113197Y30952500D01*
X18236805Y30952500D01*
X18350808Y30975177D01*
X18399192Y30975177D01*
X18513194Y30952500D01*
X18513197Y30952500D01*
X18636805Y30952500D01*
X18718361Y30968724D01*
X18758035Y30976615D01*
X18872233Y31023917D01*
X18975008Y31092589D01*
X19062411Y31179992D01*
X19131083Y31282767D01*
X19178385Y31396965D01*
X19193170Y31471293D01*
X19202500Y31518195D01*
X19202500Y31641806D01*
X19178386Y31763030D01*
X19178385Y31763031D01*
X19178385Y31763035D01*
X19166941Y31790664D01*
X19131086Y31877227D01*
X19131079Y31877240D01*
X19062411Y31980008D01*
X19062408Y31980012D01*
X18975011Y32067409D01*
X18975007Y32067412D01*
X18872239Y32136080D01*
X18872226Y32136087D01*
X18758039Y32183384D01*
X18758029Y32183387D01*
X18636805Y32207500D01*
X18636803Y32207500D01*
X18513197Y32207500D01*
X18513195Y32207500D01*
X18399192Y32184823D01*
X18350808Y32184823D01*
X18236805Y32207500D01*
X18236803Y32207500D01*
X18113197Y32207500D01*
X18113195Y32207500D01*
X17991970Y32183387D01*
X17991960Y32183384D01*
X17877773Y32136087D01*
X17877760Y32136080D01*
X17774992Y32067412D01*
X17774988Y32067409D01*
X17687591Y31980012D01*
X17687588Y31980008D01*
X17618920Y31877240D01*
X17618913Y31877227D01*
X17571616Y31763040D01*
X17571613Y31763030D01*
X17547500Y31641806D01*
X17547500Y31641803D01*
X17547500Y31518197D01*
X17547500Y31518195D01*
X17547499Y31518195D01*
X17055649Y31518195D01*
X16997057Y31576787D01*
X16997053Y31576790D01*
X16865950Y31664391D01*
X16865937Y31664398D01*
X16720266Y31724736D01*
X16720256Y31724739D01*
X16587041Y31751237D01*
X16525131Y31783622D01*
X16490556Y31844338D01*
X16494296Y31914107D01*
X16535163Y31970779D01*
X16575241Y31991515D01*
X16577990Y31992350D01*
X16577993Y31992350D01*
X16723675Y32052693D01*
X16854785Y32140298D01*
X16966285Y32251798D01*
X17053890Y32382908D01*
X17114233Y32528590D01*
X17144996Y32683245D01*
X17144996Y32840929D01*
X17144996Y32840932D01*
X17144995Y32840934D01*
X17135334Y32889501D01*
X17114233Y32995584D01*
X17055882Y33136457D01*
X17053893Y33141260D01*
X17053886Y33141273D01*
X16962901Y33277441D01*
X16964686Y33278634D01*
X16941172Y33334023D01*
X16952973Y33402889D01*
X17000133Y33454442D01*
X17040143Y33469975D01*
X17135851Y33489012D01*
X17281533Y33549355D01*
X17412643Y33636960D01*
X17524143Y33748460D01*
X17611748Y33879570D01*
X17672091Y34025252D01*
X17702854Y34179907D01*
X17702854Y34337591D01*
X17702854Y34337594D01*
X17691885Y34392736D01*
X17691885Y34392737D01*
X17688284Y34410841D01*
X18212735Y34410841D01*
X18212735Y34253148D01*
X18243496Y34098505D01*
X18243499Y34098493D01*
X18303837Y33952822D01*
X18303844Y33952809D01*
X18391445Y33821706D01*
X18391448Y33821702D01*
X18502942Y33710208D01*
X18502946Y33710205D01*
X18634049Y33622604D01*
X18634062Y33622597D01*
X18768082Y33567085D01*
X18779738Y33562257D01*
X18932724Y33531826D01*
X18934388Y33531495D01*
X18934391Y33531494D01*
X18934393Y33531494D01*
X19092079Y33531494D01*
X19092080Y33531495D01*
X19246732Y33562257D01*
X19392414Y33622600D01*
X19523524Y33710205D01*
X19635024Y33821705D01*
X19722629Y33952815D01*
X19730536Y33971903D01*
X19747202Y34012139D01*
X19782972Y34098497D01*
X19782972Y34098498D01*
X19785303Y34104125D01*
X19788007Y34103005D01*
X19819195Y34151005D01*
X19882895Y34179712D01*
X19947380Y34171448D01*
X19969565Y34162259D01*
X19969570Y34162257D01*
X20069463Y34142387D01*
X20124220Y34131495D01*
X20124223Y34131494D01*
X20124225Y34131494D01*
X20281911Y34131494D01*
X20281912Y34131495D01*
X20436564Y34162257D01*
X20582246Y34222600D01*
X20713356Y34310205D01*
X20824856Y34421705D01*
X20912461Y34552815D01*
X20972804Y34698497D01*
X21003567Y34853152D01*
X21003567Y35010836D01*
X21003567Y35010839D01*
X21003566Y35010841D01*
X20990011Y35078984D01*
X20972804Y35165491D01*
X20935992Y35254362D01*
X20928524Y35323830D01*
X20947451Y35370703D01*
X21034394Y35500821D01*
X21036618Y35506189D01*
X21053102Y35545987D01*
X21094737Y35646503D01*
X21125500Y35801158D01*
X21125500Y35958842D01*
X21125500Y35958845D01*
X21125499Y35958847D01*
X21107158Y36051054D01*
X21094737Y36113497D01*
X21077753Y36154501D01*
X21034397Y36259173D01*
X21034390Y36259186D01*
X20946790Y36390288D01*
X20941468Y36395610D01*
X20932259Y36404819D01*
X20898774Y36466139D01*
X20903757Y36535830D01*
X20932259Y36580182D01*
X20946789Y36594711D01*
X21034394Y36725821D01*
X21094737Y36871503D01*
X21125500Y37026158D01*
X21125500Y37183842D01*
X21125500Y37183845D01*
X21125499Y37183847D01*
X21095596Y37334179D01*
X21094737Y37338497D01*
X21094735Y37338502D01*
X21034397Y37484173D01*
X21034390Y37484186D01*
X20946789Y37615289D01*
X20946786Y37615293D01*
X20835292Y37726787D01*
X20835288Y37726790D01*
X20704185Y37814391D01*
X20704172Y37814398D01*
X20558501Y37874736D01*
X20558489Y37874739D01*
X20403845Y37905500D01*
X20403842Y37905500D01*
X20246158Y37905500D01*
X20246155Y37905500D01*
X20091510Y37874739D01*
X20091498Y37874736D01*
X19945827Y37814398D01*
X19945814Y37814391D01*
X19814711Y37726790D01*
X19814707Y37726787D01*
X19703213Y37615293D01*
X19703210Y37615289D01*
X19615609Y37484186D01*
X19615602Y37484173D01*
X19555264Y37338502D01*
X19555261Y37338490D01*
X19524500Y37183847D01*
X19524500Y37026154D01*
X19555261Y36871511D01*
X19555264Y36871499D01*
X19615602Y36725828D01*
X19615609Y36725815D01*
X19703210Y36594712D01*
X19703213Y36594708D01*
X19717740Y36580181D01*
X19751225Y36518858D01*
X19746241Y36449166D01*
X19717740Y36404819D01*
X19703213Y36390293D01*
X19703210Y36390289D01*
X19615609Y36259186D01*
X19615602Y36259173D01*
X19555264Y36113502D01*
X19555261Y36113490D01*
X19524500Y35958847D01*
X19524500Y35801154D01*
X19555261Y35646511D01*
X19555264Y35646499D01*
X19592073Y35557634D01*
X19599542Y35488165D01*
X19580614Y35441291D01*
X19493676Y35311180D01*
X19493669Y35311167D01*
X19430999Y35159864D01*
X19428477Y35160909D01*
X19396297Y35112297D01*
X19332354Y35084136D01*
X19268921Y35092540D01*
X19246732Y35101731D01*
X19246727Y35101732D01*
X19246724Y35101733D01*
X19092080Y35132494D01*
X19092077Y35132494D01*
X18934393Y35132494D01*
X18934390Y35132494D01*
X18779745Y35101733D01*
X18779733Y35101730D01*
X18634062Y35041392D01*
X18634049Y35041385D01*
X18502946Y34953784D01*
X18502942Y34953781D01*
X18391448Y34842287D01*
X18391445Y34842283D01*
X18303844Y34711180D01*
X18303837Y34711167D01*
X18243499Y34565496D01*
X18243496Y34565484D01*
X18212735Y34410841D01*
X17688284Y34410841D01*
X17682583Y34439497D01*
X17672091Y34492246D01*
X17650785Y34543684D01*
X17611750Y34637924D01*
X17611749Y34637926D01*
X17591129Y34668786D01*
X17570251Y34735464D01*
X17579671Y34785131D01*
X17594735Y34821498D01*
X17594735Y34821499D01*
X17594737Y34821503D01*
X17625500Y34976158D01*
X17625500Y35133842D01*
X17625500Y35133845D01*
X17625499Y35133847D01*
X17619206Y35165484D01*
X17594737Y35288497D01*
X17585347Y35311167D01*
X17534397Y35434173D01*
X17534390Y35434186D01*
X17446789Y35565289D01*
X17446786Y35565293D01*
X17335292Y35676787D01*
X17335288Y35676790D01*
X17204185Y35764391D01*
X17204172Y35764398D01*
X17058501Y35824736D01*
X17058489Y35824739D01*
X16903845Y35855500D01*
X16903842Y35855500D01*
X16746158Y35855500D01*
X16746155Y35855500D01*
X16591510Y35824739D01*
X16591498Y35824736D01*
X16445827Y35764398D01*
X16445814Y35764391D01*
X16314711Y35676790D01*
X16314707Y35676787D01*
X16203213Y35565293D01*
X16203210Y35565289D01*
X16115609Y35434186D01*
X16115604Y35434177D01*
X16065745Y35313804D01*
X16021904Y35259401D01*
X15955610Y35237336D01*
X15887911Y35254615D01*
X15863503Y35273576D01*
X15860292Y35276787D01*
X15860288Y35276790D01*
X15729185Y35364391D01*
X15729172Y35364398D01*
X15583501Y35424736D01*
X15583489Y35424739D01*
X15428845Y35455500D01*
X15428842Y35455500D01*
X15271158Y35455500D01*
X15271155Y35455500D01*
X15116510Y35424739D01*
X15116498Y35424736D01*
X14970827Y35364398D01*
X14970814Y35364391D01*
X14839711Y35276790D01*
X14839707Y35276787D01*
X14728213Y35165293D01*
X14728210Y35165289D01*
X14640609Y35034186D01*
X14640602Y35034173D01*
X14580264Y34888502D01*
X14580261Y34888490D01*
X14549500Y34733847D01*
X11672786Y34733847D01*
X11633436Y34760140D01*
X11633430Y34760143D01*
X11595846Y34775711D01*
X11541443Y34819553D01*
X11519379Y34885847D01*
X11528739Y34937725D01*
X11587252Y35078988D01*
X11618015Y35233643D01*
X11618015Y35391327D01*
X11618015Y35391330D01*
X11618014Y35391332D01*
X11609492Y35434173D01*
X11587252Y35545982D01*
X11564398Y35601158D01*
X11526912Y35691658D01*
X11526905Y35691671D01*
X11439304Y35822774D01*
X11439301Y35822778D01*
X11327807Y35934272D01*
X11327803Y35934275D01*
X11196700Y36021876D01*
X11196687Y36021883D01*
X11051016Y36082221D01*
X11051004Y36082224D01*
X10896360Y36112985D01*
X10896357Y36112985D01*
X10738673Y36112985D01*
X10738670Y36112985D01*
X10584025Y36082224D01*
X10584013Y36082221D01*
X10438342Y36021883D01*
X10438329Y36021876D01*
X10307226Y35934275D01*
X10307222Y35934272D01*
X10195728Y35822778D01*
X10195725Y35822774D01*
X10108124Y35691671D01*
X10108117Y35691658D01*
X10047779Y35545987D01*
X10047776Y35545975D01*
X10017015Y35391332D01*
X4326235Y35391332D01*
X4326235Y35508107D01*
X4326235Y35508110D01*
X4326234Y35508112D01*
X4324818Y35515230D01*
X4295472Y35662762D01*
X4289662Y35676789D01*
X4235132Y35808438D01*
X4235125Y35808451D01*
X4147524Y35939554D01*
X4147521Y35939558D01*
X4036027Y36051052D01*
X4036023Y36051055D01*
X3914132Y36132501D01*
X3869327Y36186114D01*
X3860620Y36255439D01*
X3879922Y36304495D01*
X3901189Y36336324D01*
X3901191Y36336327D01*
X3976569Y36518308D01*
X3976569Y36518310D01*
X3984862Y36560000D01*
X3181988Y36560000D01*
X3199205Y36569940D01*
X3255060Y36625795D01*
X3294556Y36694204D01*
X3315000Y36770504D01*
X3315000Y36849496D01*
X3294556Y36925796D01*
X3255060Y36994205D01*
X3199205Y37050060D01*
X3181988Y37060000D01*
X3984862Y37060000D01*
X5275138Y37060000D01*
X6078012Y37060000D01*
X6060795Y37050060D01*
X6004940Y36994205D01*
X5965444Y36925796D01*
X5945000Y36849496D01*
X5945000Y36770504D01*
X5965444Y36694204D01*
X6004940Y36625795D01*
X6060795Y36569940D01*
X6078012Y36560000D01*
X5275138Y36560000D01*
X5283430Y36518310D01*
X5283430Y36518308D01*
X5358807Y36336329D01*
X5358814Y36336316D01*
X5468248Y36172538D01*
X5468251Y36172534D01*
X5607533Y36033252D01*
X5607537Y36033249D01*
X5771315Y35923815D01*
X5771328Y35923808D01*
X5953306Y35848431D01*
X5953318Y35848428D01*
X6146504Y35810001D01*
X6146508Y35810000D01*
X6545000Y35810000D01*
X6545000Y36510000D01*
X7045000Y36510000D01*
X7045000Y35810000D01*
X7443492Y35810000D01*
X7443495Y35810001D01*
X7636681Y35848428D01*
X7636693Y35848431D01*
X7818671Y35923808D01*
X7818684Y35923815D01*
X7982462Y36033249D01*
X7982466Y36033252D01*
X8121748Y36172534D01*
X8121751Y36172538D01*
X8231185Y36336316D01*
X8231192Y36336329D01*
X8306569Y36518308D01*
X8306569Y36518310D01*
X8314862Y36560000D01*
X7511988Y36560000D01*
X7529205Y36569940D01*
X7585060Y36625795D01*
X7624556Y36694204D01*
X7645000Y36770504D01*
X7645000Y36849496D01*
X7624556Y36925796D01*
X7585060Y36994205D01*
X7545418Y37033847D01*
X13849500Y37033847D01*
X13849500Y36876154D01*
X13880261Y36721511D01*
X13880264Y36721499D01*
X13940602Y36575828D01*
X13940609Y36575815D01*
X14028210Y36444712D01*
X14028213Y36444708D01*
X14139707Y36333214D01*
X14139711Y36333211D01*
X14270814Y36245610D01*
X14270827Y36245603D01*
X14404369Y36190289D01*
X14416503Y36185263D01*
X14571153Y36154501D01*
X14571156Y36154500D01*
X14571158Y36154500D01*
X14728844Y36154500D01*
X14728845Y36154501D01*
X14883497Y36185263D01*
X15029179Y36245606D01*
X15160289Y36333211D01*
X15271789Y36444711D01*
X15359394Y36575821D01*
X15419737Y36721503D01*
X15450500Y36876158D01*
X15450500Y37033842D01*
X15450500Y37033845D01*
X15450499Y37033847D01*
X15437004Y37101691D01*
X15419737Y37188497D01*
X15380315Y37283672D01*
X15359397Y37334173D01*
X15359390Y37334186D01*
X15271789Y37465289D01*
X15271786Y37465293D01*
X15160292Y37576787D01*
X15160288Y37576790D01*
X15029185Y37664391D01*
X15029172Y37664398D01*
X14883501Y37724736D01*
X14883489Y37724739D01*
X14728845Y37755500D01*
X14728842Y37755500D01*
X14571158Y37755500D01*
X14571155Y37755500D01*
X14416510Y37724739D01*
X14416498Y37724736D01*
X14270827Y37664398D01*
X14270814Y37664391D01*
X14139711Y37576790D01*
X14139707Y37576787D01*
X14028213Y37465293D01*
X14028210Y37465289D01*
X13940609Y37334186D01*
X13940602Y37334173D01*
X13880264Y37188502D01*
X13880261Y37188490D01*
X13849500Y37033847D01*
X7545418Y37033847D01*
X7529205Y37050060D01*
X7511988Y37060000D01*
X8314864Y37060000D01*
X8314863Y37060001D01*
X8306572Y37101681D01*
X8306569Y37101693D01*
X8231192Y37283672D01*
X8231185Y37283685D01*
X8121751Y37447463D01*
X8121748Y37447467D01*
X7982466Y37586749D01*
X7982462Y37586752D01*
X7818684Y37696186D01*
X7818671Y37696193D01*
X7636693Y37771570D01*
X7636681Y37771573D01*
X7443495Y37810000D01*
X7045000Y37810000D01*
X7045000Y37110000D01*
X6545000Y37110000D01*
X6545000Y37648216D01*
X6564685Y37715255D01*
X6607000Y37755603D01*
X6648365Y37779485D01*
X6755515Y37886635D01*
X6766407Y37905500D01*
X6776721Y37923363D01*
X6822517Y38002686D01*
X6831281Y38017865D01*
X6870500Y38164234D01*
X6870500Y38315766D01*
X6831281Y38462135D01*
X6755515Y38593365D01*
X6648365Y38700515D01*
X6569560Y38746013D01*
X6517136Y38776281D01*
X6421944Y38801787D01*
X6395596Y38808847D01*
X7499500Y38808847D01*
X7499500Y38651154D01*
X7530261Y38496511D01*
X7530264Y38496499D01*
X7590602Y38350828D01*
X7590609Y38350815D01*
X7678210Y38219712D01*
X7678213Y38219708D01*
X7789707Y38108214D01*
X7789711Y38108211D01*
X7920814Y38020610D01*
X7920827Y38020603D01*
X8038353Y37971923D01*
X8066503Y37960263D01*
X8206800Y37932356D01*
X8221153Y37929501D01*
X8221156Y37929500D01*
X8221158Y37929500D01*
X8378844Y37929500D01*
X8378845Y37929501D01*
X8533497Y37960263D01*
X8646166Y38006933D01*
X8679172Y38020603D01*
X8679172Y38020604D01*
X8679179Y38020606D01*
X8810289Y38108211D01*
X8921789Y38219711D01*
X9009394Y38350821D01*
X9069737Y38496503D01*
X9100500Y38651158D01*
X9100500Y38808842D01*
X9092061Y38851265D01*
X9092060Y38851270D01*
X11908500Y38851270D01*
X11908500Y38693577D01*
X11939261Y38538934D01*
X11939264Y38538922D01*
X11999602Y38393251D01*
X11999609Y38393238D01*
X12087210Y38262135D01*
X12087213Y38262131D01*
X12198707Y38150637D01*
X12198711Y38150634D01*
X12329814Y38063033D01*
X12329827Y38063026D01*
X12475498Y38002688D01*
X12475503Y38002686D01*
X12630153Y37971924D01*
X12630156Y37971923D01*
X12630158Y37971923D01*
X12787844Y37971923D01*
X12787845Y37971924D01*
X12942497Y38002686D01*
X13067588Y38054500D01*
X13088172Y38063026D01*
X13088172Y38063027D01*
X13088179Y38063029D01*
X13219289Y38150634D01*
X13327502Y38258847D01*
X23937500Y38258847D01*
X23937500Y38101154D01*
X23968261Y37946511D01*
X23968264Y37946499D01*
X24028602Y37800828D01*
X24028609Y37800815D01*
X24116210Y37669712D01*
X24116213Y37669708D01*
X24182247Y37603674D01*
X24215732Y37542351D01*
X24210748Y37472659D01*
X24209128Y37468542D01*
X24155263Y37338497D01*
X24155261Y37338490D01*
X24124500Y37183847D01*
X24124500Y37026154D01*
X24155261Y36871511D01*
X24155264Y36871499D01*
X24215602Y36725828D01*
X24215609Y36725815D01*
X24303210Y36594712D01*
X24303213Y36594708D01*
X24414707Y36483214D01*
X24414711Y36483211D01*
X24545814Y36395610D01*
X24545827Y36395603D01*
X24688929Y36336329D01*
X24691503Y36335263D01*
X24846153Y36304501D01*
X24846156Y36304500D01*
X24846158Y36304500D01*
X25003844Y36304500D01*
X25003845Y36304501D01*
X25158497Y36335263D01*
X25304179Y36395606D01*
X25435289Y36483211D01*
X25546789Y36594711D01*
X25634394Y36725821D01*
X25694737Y36871503D01*
X25725500Y37026158D01*
X25725500Y37183842D01*
X25725500Y37183845D01*
X25725499Y37183847D01*
X25695596Y37334179D01*
X25694737Y37338497D01*
X25694735Y37338502D01*
X25634397Y37484173D01*
X25634390Y37484186D01*
X25546789Y37615289D01*
X25546786Y37615293D01*
X25480752Y37681327D01*
X25471171Y37698872D01*
X25457549Y37713504D01*
X25454769Y37728911D01*
X25447267Y37742650D01*
X25448693Y37762592D01*
X25445144Y37782263D01*
X25452029Y37809241D01*
X25452251Y37812342D01*
X25453872Y37816461D01*
X25479343Y37877953D01*
X25523184Y37932356D01*
X25589478Y37954421D01*
X25593904Y37954500D01*
X25628844Y37954500D01*
X25628845Y37954501D01*
X25783497Y37985263D01*
X25929179Y38045606D01*
X26060289Y38133211D01*
X26171789Y38244711D01*
X26221955Y38319790D01*
X26275565Y38364593D01*
X26344890Y38373301D01*
X26407918Y38343147D01*
X26424230Y38324324D01*
X26424347Y38324419D01*
X26427924Y38320060D01*
X26428153Y38319796D01*
X26428205Y38319717D01*
X26428213Y38319708D01*
X26539707Y38208214D01*
X26539711Y38208211D01*
X26670814Y38120610D01*
X26670827Y38120603D01*
X26809825Y38063029D01*
X26816503Y38060263D01*
X26971153Y38029501D01*
X26971156Y38029500D01*
X26971158Y38029500D01*
X27128844Y38029500D01*
X27128845Y38029501D01*
X27283497Y38060263D01*
X27429179Y38120606D01*
X27473315Y38150098D01*
X27539991Y38170976D01*
X27607371Y38152492D01*
X27611096Y38150099D01*
X27617816Y38145609D01*
X27617827Y38145603D01*
X27725138Y38101154D01*
X27763503Y38085263D01*
X27889176Y38060265D01*
X27918153Y38054501D01*
X27918156Y38054500D01*
X27918158Y38054500D01*
X28075844Y38054500D01*
X28075845Y38054501D01*
X28230497Y38085263D01*
X28376179Y38145606D01*
X28507289Y38233211D01*
X28618789Y38344711D01*
X28706394Y38475821D01*
X28766737Y38621503D01*
X28797500Y38776158D01*
X28797500Y38933842D01*
X28797500Y38933845D01*
X28797499Y38933847D01*
X28791600Y38963502D01*
X28766737Y39088497D01*
X28758170Y39109179D01*
X28706397Y39234173D01*
X28706390Y39234186D01*
X28618789Y39365289D01*
X28618786Y39365293D01*
X28507292Y39476787D01*
X28507288Y39476790D01*
X28376185Y39564391D01*
X28376172Y39564398D01*
X28230501Y39624736D01*
X28230489Y39624739D01*
X28075845Y39655500D01*
X28075842Y39655500D01*
X27918158Y39655500D01*
X27918155Y39655500D01*
X27763510Y39624739D01*
X27763498Y39624736D01*
X27617828Y39564398D01*
X27617812Y39564389D01*
X27573681Y39534902D01*
X27507003Y39514025D01*
X27439624Y39532511D01*
X27435900Y39534903D01*
X27429179Y39539394D01*
X27429172Y39539398D01*
X27283501Y39599736D01*
X27283489Y39599739D01*
X27128845Y39630500D01*
X27128842Y39630500D01*
X26971158Y39630500D01*
X26971155Y39630500D01*
X26816510Y39599739D01*
X26816498Y39599736D01*
X26670827Y39539398D01*
X26670814Y39539391D01*
X26539711Y39451790D01*
X26539707Y39451787D01*
X26428213Y39340293D01*
X26428210Y39340289D01*
X26378045Y39265212D01*
X26324432Y39220407D01*
X26255107Y39211700D01*
X26192080Y39241855D01*
X26175770Y39260678D01*
X26175653Y39260581D01*
X26172069Y39264948D01*
X26171843Y39265209D01*
X26171790Y39265288D01*
X26171786Y39265293D01*
X26060292Y39376787D01*
X26060288Y39376790D01*
X25929185Y39464391D01*
X25929172Y39464398D01*
X25783501Y39524736D01*
X25783489Y39524739D01*
X25628845Y39555500D01*
X25628842Y39555500D01*
X25471158Y39555500D01*
X25471155Y39555500D01*
X25316510Y39524739D01*
X25316498Y39524736D01*
X25170827Y39464398D01*
X25170814Y39464391D01*
X25039711Y39376790D01*
X25039707Y39376787D01*
X24928213Y39265293D01*
X24928210Y39265289D01*
X24840609Y39134186D01*
X24840602Y39134173D01*
X24808657Y39057048D01*
X24764816Y39002644D01*
X24698522Y38980579D01*
X24694096Y38980500D01*
X24659155Y38980500D01*
X24504510Y38949739D01*
X24504498Y38949736D01*
X24358827Y38889398D01*
X24358814Y38889391D01*
X24227711Y38801790D01*
X24227707Y38801787D01*
X24116213Y38690293D01*
X24116210Y38690289D01*
X24028609Y38559186D01*
X24028602Y38559173D01*
X23968264Y38413502D01*
X23968261Y38413490D01*
X23937500Y38258847D01*
X13327502Y38258847D01*
X13330789Y38262134D01*
X13418394Y38393244D01*
X13478737Y38538926D01*
X13509500Y38693581D01*
X13509500Y38851265D01*
X13509500Y38851268D01*
X13509499Y38851270D01*
X13501915Y38889398D01*
X13478737Y39005920D01*
X13439290Y39101154D01*
X13418397Y39151596D01*
X13418395Y39151600D01*
X13418394Y39151602D01*
X13359135Y39240289D01*
X13330792Y39282708D01*
X13330786Y39282716D01*
X13329655Y39283847D01*
X13799500Y39283847D01*
X13799500Y39126154D01*
X13830261Y38971511D01*
X13830264Y38971499D01*
X13890602Y38825828D01*
X13890609Y38825815D01*
X13978210Y38694712D01*
X13978213Y38694708D01*
X14089707Y38583214D01*
X14089711Y38583211D01*
X14220814Y38495610D01*
X14220827Y38495603D01*
X14328942Y38450821D01*
X14366503Y38435263D01*
X14475963Y38413490D01*
X14521153Y38404501D01*
X14521156Y38404500D01*
X14521158Y38404500D01*
X14678844Y38404500D01*
X14678845Y38404501D01*
X14833497Y38435263D01*
X14979179Y38495606D01*
X14999901Y38509453D01*
X15066573Y38530331D01*
X15133954Y38511849D01*
X15137682Y38509453D01*
X15195814Y38470610D01*
X15195827Y38470603D01*
X15333683Y38413502D01*
X15341503Y38410263D01*
X15496153Y38379501D01*
X15496156Y38379500D01*
X15496158Y38379500D01*
X15653844Y38379500D01*
X15653845Y38379501D01*
X15664179Y38381557D01*
X15689287Y38386550D01*
X15689292Y38386551D01*
X15779530Y38404501D01*
X15808497Y38410263D01*
X15954179Y38470606D01*
X16085289Y38558211D01*
X16196789Y38669711D01*
X16284394Y38800821D01*
X16287719Y38808847D01*
X16305290Y38851268D01*
X16344737Y38946503D01*
X16375500Y39101158D01*
X16375500Y39258842D01*
X16375500Y39258845D01*
X16375499Y39258847D01*
X16374285Y39264948D01*
X16344737Y39413497D01*
X16315597Y39483847D01*
X19674500Y39483847D01*
X19674500Y39326154D01*
X19705261Y39171511D01*
X19705264Y39171499D01*
X19765602Y39025828D01*
X19765609Y39025815D01*
X19853210Y38894712D01*
X19853213Y38894708D01*
X19964707Y38783214D01*
X19964711Y38783211D01*
X20095814Y38695610D01*
X20095827Y38695603D01*
X20203138Y38651154D01*
X20241503Y38635263D01*
X20396153Y38604501D01*
X20396156Y38604500D01*
X20396158Y38604500D01*
X20553844Y38604500D01*
X20553845Y38604501D01*
X20708497Y38635263D01*
X20849281Y38693577D01*
X20854172Y38695603D01*
X20854172Y38695604D01*
X20854179Y38695606D01*
X20985289Y38783211D01*
X21096789Y38894711D01*
X21184394Y39025821D01*
X21244737Y39171503D01*
X21275500Y39326158D01*
X21275500Y39483842D01*
X21275500Y39483845D01*
X21275499Y39483847D01*
X21265343Y39534903D01*
X21244737Y39638497D01*
X21212929Y39715289D01*
X21184397Y39784173D01*
X21184390Y39784186D01*
X21096789Y39915289D01*
X21096786Y39915293D01*
X20985292Y40026787D01*
X20985288Y40026790D01*
X20854185Y40114391D01*
X20854172Y40114398D01*
X20708501Y40174736D01*
X20708489Y40174739D01*
X20553845Y40205500D01*
X20553842Y40205500D01*
X20396158Y40205500D01*
X20396155Y40205500D01*
X20241510Y40174739D01*
X20241498Y40174736D01*
X20095827Y40114398D01*
X20095814Y40114391D01*
X19964711Y40026790D01*
X19964707Y40026787D01*
X19853213Y39915293D01*
X19853210Y39915289D01*
X19765609Y39784186D01*
X19765602Y39784173D01*
X19705264Y39638502D01*
X19705261Y39638490D01*
X19674500Y39483847D01*
X16315597Y39483847D01*
X16298660Y39524737D01*
X16284397Y39559173D01*
X16284390Y39559186D01*
X16196789Y39690289D01*
X16196786Y39690293D01*
X16085292Y39801787D01*
X16085288Y39801790D01*
X15954185Y39889391D01*
X15954172Y39889398D01*
X15808501Y39949736D01*
X15808489Y39949739D01*
X15653845Y39980500D01*
X15653842Y39980500D01*
X15496158Y39980500D01*
X15496155Y39980500D01*
X15341510Y39949739D01*
X15341498Y39949736D01*
X15195828Y39889398D01*
X15195812Y39889389D01*
X15175096Y39875547D01*
X15108418Y39854670D01*
X15041038Y39873156D01*
X15037316Y39875548D01*
X14979184Y39914391D01*
X14979181Y39914393D01*
X14979179Y39914394D01*
X14979176Y39914396D01*
X14979171Y39914398D01*
X14833501Y39974736D01*
X14833489Y39974739D01*
X14678845Y40005500D01*
X14678842Y40005500D01*
X14521158Y40005500D01*
X14521155Y40005500D01*
X14366510Y39974739D01*
X14366498Y39974736D01*
X14220827Y39914398D01*
X14220814Y39914391D01*
X14089711Y39826790D01*
X14089707Y39826787D01*
X13978213Y39715293D01*
X13978210Y39715289D01*
X13890609Y39584186D01*
X13890602Y39584173D01*
X13830264Y39438502D01*
X13830261Y39438490D01*
X13799500Y39283847D01*
X13329655Y39283847D01*
X13219292Y39394210D01*
X13219288Y39394213D01*
X13088185Y39481814D01*
X13088172Y39481821D01*
X12942501Y39542159D01*
X12942489Y39542162D01*
X12787845Y39572923D01*
X12787842Y39572923D01*
X12630158Y39572923D01*
X12630155Y39572923D01*
X12475510Y39542162D01*
X12475498Y39542159D01*
X12329827Y39481821D01*
X12329814Y39481814D01*
X12198711Y39394213D01*
X12198707Y39394210D01*
X12087213Y39282716D01*
X12087210Y39282712D01*
X11999609Y39151609D01*
X11999602Y39151596D01*
X11939264Y39005925D01*
X11939261Y39005913D01*
X11908500Y38851270D01*
X9092060Y38851270D01*
X9073117Y38946503D01*
X9069737Y38963497D01*
X9069735Y38963502D01*
X9009397Y39109173D01*
X9009390Y39109186D01*
X8921789Y39240289D01*
X8921786Y39240293D01*
X8810292Y39351787D01*
X8810288Y39351790D01*
X8679185Y39439391D01*
X8679172Y39439398D01*
X8533501Y39499736D01*
X8533489Y39499739D01*
X8378845Y39530500D01*
X8378842Y39530500D01*
X8221158Y39530500D01*
X8221155Y39530500D01*
X8066510Y39499739D01*
X8066498Y39499736D01*
X7920827Y39439398D01*
X7920814Y39439391D01*
X7789711Y39351790D01*
X7789707Y39351787D01*
X7678213Y39240293D01*
X7678210Y39240289D01*
X7590609Y39109186D01*
X7590602Y39109173D01*
X7530264Y38963502D01*
X7530261Y38963490D01*
X7499500Y38808847D01*
X6395596Y38808847D01*
X6370766Y38815500D01*
X6219234Y38815500D01*
X6072863Y38776281D01*
X5941635Y38700515D01*
X5941632Y38700513D01*
X5834487Y38593368D01*
X5834485Y38593365D01*
X5758719Y38462137D01*
X5734916Y38373301D01*
X5719500Y38315766D01*
X5719500Y38164234D01*
X5731191Y38120603D01*
X5758719Y38017864D01*
X5791976Y37960263D01*
X5834485Y37886635D01*
X5834486Y37886634D01*
X5838549Y37879597D01*
X5836346Y37878326D01*
X5856959Y37825017D01*
X5842923Y37756572D01*
X5794112Y37706580D01*
X5780845Y37700134D01*
X5771324Y37696191D01*
X5771315Y37696186D01*
X5607537Y37586752D01*
X5607533Y37586749D01*
X5468251Y37447467D01*
X5468248Y37447463D01*
X5358814Y37283685D01*
X5358807Y37283672D01*
X5283430Y37101693D01*
X5283430Y37101691D01*
X5275138Y37060000D01*
X3984862Y37060000D01*
X3976569Y37101691D01*
X3976569Y37101693D01*
X3901192Y37283672D01*
X3901185Y37283685D01*
X3791751Y37447463D01*
X3791748Y37447467D01*
X3652466Y37586749D01*
X3652462Y37586752D01*
X3488684Y37696186D01*
X3488671Y37696193D01*
X3306693Y37771570D01*
X3306681Y37771573D01*
X3113495Y37810000D01*
X2865000Y37810000D01*
X2865000Y37110000D01*
X2365000Y37110000D01*
X2365000Y37810000D01*
X2116504Y37810000D01*
X1923318Y37771573D01*
X1923306Y37771570D01*
X1741328Y37696193D01*
X1741315Y37696186D01*
X1577537Y37586752D01*
X1577533Y37586749D01*
X1438251Y37447467D01*
X1438248Y37447463D01*
X1328814Y37283685D01*
X1328807Y37283672D01*
X1253430Y37101693D01*
X1253430Y37101691D01*
X1245138Y37060000D01*
X2048012Y37060000D01*
X2030795Y37050060D01*
X1974940Y36994205D01*
X1935444Y36925796D01*
X1915000Y36849496D01*
X1915000Y36770504D01*
X1935444Y36694204D01*
X1974940Y36625795D01*
X2030795Y36569940D01*
X2048012Y36560000D01*
X1245138Y36560000D01*
X1253430Y36518310D01*
X1253430Y36518308D01*
X1328807Y36336329D01*
X1328814Y36336316D01*
X1438248Y36172538D01*
X1438251Y36172534D01*
X1577533Y36033252D01*
X1577537Y36033249D01*
X1741315Y35923815D01*
X1741328Y35923808D01*
X1872952Y35869288D01*
X1888516Y35856746D01*
X1906703Y35848440D01*
X1915167Y35835270D01*
X1927356Y35825447D01*
X1933668Y35806480D01*
X1944477Y35789662D01*
X1948439Y35762102D01*
X1949421Y35759153D01*
X1949500Y35754727D01*
X1949500Y35628024D01*
X1929815Y35560985D01*
X1877011Y35515230D01*
X1847280Y35507212D01*
X1847484Y35506189D01*
X1648318Y35466573D01*
X1648310Y35466571D01*
X1466325Y35391191D01*
X1466318Y35391187D01*
X1430979Y35367574D01*
X1430978Y35367574D01*
X1968553Y34830000D01*
X1897213Y34830000D01*
X1814555Y34807851D01*
X1740446Y34765064D01*
X1679936Y34704554D01*
X1637149Y34630445D01*
X1615000Y34547787D01*
X1615000Y34476448D01*
X1077426Y35014022D01*
X1077426Y35014021D01*
X1053813Y34978682D01*
X1053809Y34978675D01*
X978429Y34796690D01*
X978427Y34796682D01*
X940000Y34603496D01*
X940000Y34406505D01*
X978427Y34213319D01*
X978430Y34213307D01*
X1053807Y34031329D01*
X1053814Y34031316D01*
X1115270Y33939341D01*
X1136148Y33872663D01*
X1117663Y33805283D01*
X1115271Y33801560D01*
X1053370Y33708918D01*
X1053364Y33708907D01*
X977950Y33526840D01*
X977947Y33526830D01*
X939500Y33333544D01*
X939500Y33333541D01*
X939500Y33136459D01*
X939500Y33136457D01*
X939499Y33136457D01*
X500500Y33136457D01*
X500500Y42404582D01*
X20415235Y42404582D01*
X20415235Y42246889D01*
X20445996Y42092246D01*
X20445999Y42092234D01*
X20506337Y41946563D01*
X20506344Y41946550D01*
X20593945Y41815447D01*
X20593948Y41815443D01*
X20705442Y41703949D01*
X20705446Y41703946D01*
X20836549Y41616345D01*
X20836562Y41616338D01*
X20982233Y41556000D01*
X20982238Y41555998D01*
X21136888Y41525236D01*
X21136891Y41525235D01*
X21136893Y41525235D01*
X21294579Y41525235D01*
X21294580Y41525236D01*
X21449232Y41555998D01*
X21594914Y41616341D01*
X21726024Y41703946D01*
X21837524Y41815446D01*
X21925129Y41946556D01*
X21928037Y41953577D01*
X21971872Y42007978D01*
X22024386Y42027295D01*
X22024184Y42028311D01*
X22110650Y42045512D01*
X22184813Y42060263D01*
X22330495Y42120606D01*
X22461605Y42208211D01*
X22573105Y42319711D01*
X22660710Y42450821D01*
X22721053Y42596503D01*
X22751816Y42751158D01*
X22751816Y42760149D01*
X22771501Y42827188D01*
X22806922Y42863249D01*
X22862605Y42900454D01*
X22974105Y43011954D01*
X23061710Y43143064D01*
X23122053Y43288746D01*
X23152816Y43443401D01*
X23152816Y43601085D01*
X23152816Y43601088D01*
X23152815Y43601090D01*
X23151272Y43608847D01*
X23122053Y43755740D01*
X23104605Y43797864D01*
X23061713Y43901416D01*
X23061706Y43901429D01*
X22974105Y44032532D01*
X22974102Y44032536D01*
X22862608Y44144030D01*
X22862604Y44144033D01*
X22731501Y44231634D01*
X22731488Y44231641D01*
X22585817Y44291979D01*
X22585805Y44291982D01*
X22431161Y44322743D01*
X22431158Y44322743D01*
X22273474Y44322743D01*
X22273471Y44322743D01*
X22118826Y44291982D01*
X22118814Y44291979D01*
X21973143Y44231641D01*
X21973130Y44231634D01*
X21842027Y44144033D01*
X21842023Y44144030D01*
X21730529Y44032536D01*
X21730526Y44032532D01*
X21642925Y43901429D01*
X21642918Y43901416D01*
X21582580Y43755745D01*
X21582577Y43755733D01*
X21551816Y43601090D01*
X21551816Y43592096D01*
X21532131Y43525057D01*
X21496707Y43488994D01*
X21441027Y43451790D01*
X21441023Y43451787D01*
X21329529Y43340293D01*
X21329526Y43340289D01*
X21241923Y43209183D01*
X21241921Y43209178D01*
X21239011Y43202153D01*
X21195168Y43147751D01*
X21142665Y43128436D01*
X21142867Y43127424D01*
X20982245Y43095474D01*
X20982233Y43095471D01*
X20836562Y43035133D01*
X20836549Y43035126D01*
X20705446Y42947525D01*
X20705442Y42947522D01*
X20593948Y42836028D01*
X20593945Y42836024D01*
X20506344Y42704921D01*
X20506337Y42704908D01*
X20445999Y42559237D01*
X20445996Y42559225D01*
X20415235Y42404582D01*
X500500Y42404582D01*
X500500Y45700000D01*
X1245138Y45700000D01*
X2048012Y45700000D01*
X2030795Y45690060D01*
X1974940Y45634205D01*
X1935444Y45565796D01*
X1915000Y45489496D01*
X1915000Y45410504D01*
X1935444Y45334204D01*
X1974940Y45265795D01*
X2030795Y45209940D01*
X2048012Y45200000D01*
X1245138Y45200000D01*
X1253430Y45158310D01*
X1253430Y45158308D01*
X1328807Y44976329D01*
X1328814Y44976316D01*
X1438248Y44812538D01*
X1438251Y44812534D01*
X1577533Y44673252D01*
X1577537Y44673249D01*
X1741315Y44563815D01*
X1741328Y44563808D01*
X1923306Y44488431D01*
X1923318Y44488428D01*
X2116504Y44450001D01*
X2116508Y44450000D01*
X2365000Y44450000D01*
X2365000Y45150000D01*
X2865000Y45150000D01*
X2865000Y44450000D01*
X3113492Y44450000D01*
X3113495Y44450001D01*
X3306681Y44488428D01*
X3306693Y44488431D01*
X3488671Y44563808D01*
X3488684Y44563815D01*
X3652462Y44673249D01*
X3652466Y44673252D01*
X3791748Y44812534D01*
X3791751Y44812538D01*
X3901185Y44976316D01*
X3901192Y44976329D01*
X3976569Y45158308D01*
X3976569Y45158310D01*
X3984862Y45200000D01*
X3181988Y45200000D01*
X3199205Y45209940D01*
X3255060Y45265795D01*
X3294556Y45334204D01*
X3315000Y45410504D01*
X3315000Y45489496D01*
X3294556Y45565796D01*
X3255060Y45634205D01*
X3199205Y45690060D01*
X3181988Y45700000D01*
X3984862Y45700000D01*
X5275138Y45700000D01*
X6078012Y45700000D01*
X6060795Y45690060D01*
X6004940Y45634205D01*
X5965444Y45565796D01*
X5945000Y45489496D01*
X5945000Y45410504D01*
X5965444Y45334204D01*
X6004940Y45265795D01*
X6060795Y45209940D01*
X6078012Y45200000D01*
X5275138Y45200000D01*
X5283430Y45158310D01*
X5283430Y45158308D01*
X5358807Y44976329D01*
X5358814Y44976316D01*
X5468248Y44812538D01*
X5468251Y44812534D01*
X5607533Y44673252D01*
X5607537Y44673249D01*
X5771315Y44563815D01*
X5771328Y44563808D01*
X5780838Y44559869D01*
X5835243Y44516030D01*
X5857310Y44449736D01*
X5840033Y44382037D01*
X5836350Y44376595D01*
X5758719Y44242137D01*
X5732433Y44144033D01*
X5719500Y44095766D01*
X5719500Y43944234D01*
X5730971Y43901422D01*
X5758719Y43797864D01*
X5783037Y43755745D01*
X5834485Y43666635D01*
X5941635Y43559485D01*
X6072865Y43483719D01*
X6219234Y43444500D01*
X6219236Y43444500D01*
X6370764Y43444500D01*
X6370766Y43444500D01*
X6517135Y43483719D01*
X6648365Y43559485D01*
X6697727Y43608847D01*
X7649500Y43608847D01*
X7649500Y43451154D01*
X7680261Y43296511D01*
X7680264Y43296499D01*
X7740602Y43150828D01*
X7740609Y43150815D01*
X7828210Y43019712D01*
X7828213Y43019708D01*
X7939707Y42908214D01*
X7939711Y42908211D01*
X8070814Y42820610D01*
X8070827Y42820603D01*
X8216498Y42760265D01*
X8216503Y42760263D01*
X8371153Y42729501D01*
X8371156Y42729500D01*
X8371158Y42729500D01*
X8528844Y42729500D01*
X8528845Y42729501D01*
X8683497Y42760263D01*
X8829179Y42820606D01*
X8960289Y42908211D01*
X9071789Y43019711D01*
X9159394Y43150821D01*
X9219737Y43296503D01*
X9250500Y43451158D01*
X9250500Y43608842D01*
X9250500Y43608845D01*
X9250499Y43608847D01*
X9219737Y43763497D01*
X9205502Y43797864D01*
X9159397Y43909173D01*
X9159390Y43909186D01*
X9071789Y44040289D01*
X9071786Y44040293D01*
X8960292Y44151787D01*
X8960288Y44151790D01*
X8829185Y44239391D01*
X8829172Y44239398D01*
X8683501Y44299736D01*
X8683489Y44299739D01*
X8528845Y44330500D01*
X8528842Y44330500D01*
X8371158Y44330500D01*
X8371155Y44330500D01*
X8216510Y44299739D01*
X8216498Y44299736D01*
X8070827Y44239398D01*
X8070814Y44239391D01*
X7939711Y44151790D01*
X7939707Y44151787D01*
X7828213Y44040293D01*
X7828210Y44040289D01*
X7740609Y43909186D01*
X7740602Y43909173D01*
X7680264Y43763502D01*
X7680261Y43763490D01*
X7649500Y43608847D01*
X6697727Y43608847D01*
X6755515Y43666635D01*
X6831281Y43797865D01*
X6870500Y43944234D01*
X6870500Y44095766D01*
X6831281Y44242135D01*
X6755515Y44373365D01*
X6648365Y44480515D01*
X6634654Y44488431D01*
X6606998Y44504399D01*
X6558784Y44554967D01*
X6545000Y44611785D01*
X6545000Y45150000D01*
X7045000Y45150000D01*
X7045000Y44450000D01*
X7443492Y44450000D01*
X7443495Y44450001D01*
X7636681Y44488428D01*
X7636693Y44488431D01*
X7818671Y44563808D01*
X7818684Y44563815D01*
X7982462Y44673249D01*
X7982466Y44673252D01*
X8121748Y44812534D01*
X8121751Y44812538D01*
X8231185Y44976316D01*
X8231192Y44976329D01*
X8306569Y45158308D01*
X8306569Y45158310D01*
X8314862Y45200000D01*
X7511988Y45200000D01*
X7529205Y45209940D01*
X7585060Y45265795D01*
X7624556Y45334204D01*
X7645000Y45410504D01*
X7645000Y45489496D01*
X7624556Y45565796D01*
X7585060Y45634205D01*
X7529205Y45690060D01*
X7511988Y45700000D01*
X8314862Y45700000D01*
X8306569Y45741691D01*
X8306569Y45741693D01*
X8231192Y45923672D01*
X8231185Y45923685D01*
X8121751Y46087463D01*
X8121748Y46087467D01*
X7982466Y46226749D01*
X7982462Y46226752D01*
X7818684Y46336186D01*
X7818671Y46336193D01*
X7636693Y46411570D01*
X7636681Y46411573D01*
X7443495Y46450000D01*
X7045000Y46450000D01*
X7045000Y45750000D01*
X6545000Y45750000D01*
X6545000Y46450000D01*
X6146504Y46450000D01*
X5953318Y46411573D01*
X5953306Y46411570D01*
X5771328Y46336193D01*
X5771315Y46336186D01*
X5607537Y46226752D01*
X5607533Y46226749D01*
X5468251Y46087467D01*
X5468248Y46087463D01*
X5358814Y45923685D01*
X5358807Y45923672D01*
X5283430Y45741693D01*
X5283430Y45741691D01*
X5275138Y45700000D01*
X3984862Y45700000D01*
X3976569Y45741691D01*
X3976569Y45741693D01*
X3901192Y45923672D01*
X3901185Y45923685D01*
X3791751Y46087463D01*
X3791748Y46087467D01*
X3652466Y46226749D01*
X3652462Y46226752D01*
X3488684Y46336186D01*
X3488671Y46336193D01*
X3306693Y46411570D01*
X3306681Y46411573D01*
X3113495Y46450000D01*
X2865000Y46450000D01*
X2865000Y45750000D01*
X2365000Y45750000D01*
X2365000Y46450000D01*
X2116504Y46450000D01*
X1923318Y46411573D01*
X1923306Y46411570D01*
X1741328Y46336193D01*
X1741315Y46336186D01*
X1577537Y46226752D01*
X1577533Y46226749D01*
X1438251Y46087467D01*
X1438248Y46087463D01*
X1328814Y45923685D01*
X1328807Y45923672D01*
X1253430Y45741693D01*
X1253430Y45741691D01*
X1245138Y45700000D01*
X500500Y45700000D01*
X500500Y50532298D01*
X520185Y50599337D01*
X572989Y50645092D01*
X642147Y50655036D01*
X648667Y50653920D01*
X705435Y50642628D01*
X721157Y50639500D01*
X721158Y50639500D01*
X878844Y50639500D01*
X878845Y50639501D01*
X1033497Y50670263D01*
X1179179Y50730606D01*
X1310289Y50818211D01*
X1421789Y50929711D01*
X1509394Y51060821D01*
X1537569Y51128842D01*
X1537571Y51128847D01*
X11169500Y51128847D01*
X11169500Y50971154D01*
X11200261Y50816511D01*
X11200264Y50816499D01*
X11260602Y50670828D01*
X11260609Y50670815D01*
X11348210Y50539712D01*
X11348213Y50539708D01*
X11459707Y50428214D01*
X11459711Y50428211D01*
X11590821Y50340606D01*
X11591338Y50340329D01*
X11591558Y50340113D01*
X11595886Y50337221D01*
X11595337Y50336401D01*
X11641186Y50291371D01*
X11656652Y50223234D01*
X11635995Y50162077D01*
X11580612Y50079191D01*
X11580602Y50079173D01*
X11520264Y49933502D01*
X11520261Y49933490D01*
X11489500Y49778847D01*
X11489500Y49621154D01*
X11520261Y49466511D01*
X11520264Y49466499D01*
X11580602Y49320828D01*
X11580609Y49320815D01*
X11668210Y49189712D01*
X11668213Y49189708D01*
X11779707Y49078214D01*
X11779711Y49078211D01*
X11910814Y48990610D01*
X11910827Y48990603D01*
X12032288Y48940293D01*
X12056503Y48930263D01*
X12211153Y48899501D01*
X12211156Y48899500D01*
X12227439Y48899500D01*
X12294478Y48879815D01*
X12340233Y48827011D01*
X12350177Y48757853D01*
X12342000Y48728048D01*
X12315264Y48663502D01*
X12315261Y48663490D01*
X12284500Y48508847D01*
X12284500Y48351154D01*
X12315261Y48196511D01*
X12315264Y48196499D01*
X12375602Y48050828D01*
X12375609Y48050815D01*
X12463210Y47919712D01*
X12463213Y47919708D01*
X12574707Y47808214D01*
X12574711Y47808211D01*
X12705814Y47720610D01*
X12705827Y47720603D01*
X12851498Y47660265D01*
X12851503Y47660263D01*
X13006153Y47629501D01*
X13006156Y47629500D01*
X13075576Y47629500D01*
X13142615Y47609815D01*
X13188370Y47557011D01*
X13198314Y47487853D01*
X13190137Y47458048D01*
X13130264Y47313502D01*
X13130261Y47313490D01*
X13099500Y47158847D01*
X13099500Y47001154D01*
X13130261Y46846511D01*
X13130264Y46846499D01*
X13190602Y46700828D01*
X13190609Y46700815D01*
X13278210Y46569712D01*
X13278213Y46569708D01*
X13280240Y46567681D01*
X13280962Y46566358D01*
X13282076Y46565001D01*
X13281818Y46564790D01*
X13313725Y46506358D01*
X13308741Y46436666D01*
X13282001Y46395061D01*
X13282076Y46394999D01*
X13281552Y46394361D01*
X13280240Y46392319D01*
X13278213Y46390293D01*
X13278210Y46390289D01*
X13190609Y46259186D01*
X13190602Y46259173D01*
X13130264Y46113502D01*
X13130261Y46113490D01*
X13099500Y45958847D01*
X13099500Y45801154D01*
X13130261Y45646511D01*
X13130264Y45646499D01*
X13190602Y45500828D01*
X13190609Y45500815D01*
X13278210Y45369712D01*
X13278213Y45369708D01*
X13389707Y45258214D01*
X13389711Y45258211D01*
X13520814Y45170610D01*
X13520827Y45170603D01*
X13666498Y45110265D01*
X13666503Y45110263D01*
X13821153Y45079501D01*
X13821156Y45079500D01*
X13821158Y45079500D01*
X13978844Y45079500D01*
X13978845Y45079501D01*
X14133497Y45110263D01*
X14279179Y45170606D01*
X14410289Y45258211D01*
X14521789Y45369711D01*
X14609394Y45500821D01*
X14669737Y45646503D01*
X14700500Y45801158D01*
X14700500Y45958842D01*
X14700500Y45958845D01*
X14700499Y45958847D01*
X14669737Y46113497D01*
X14622826Y46226752D01*
X14609397Y46259173D01*
X14609390Y46259186D01*
X14521789Y46390289D01*
X14519766Y46392312D01*
X14519043Y46393635D01*
X14517924Y46394999D01*
X14518182Y46395212D01*
X14486276Y46453632D01*
X14491255Y46523324D01*
X14517999Y46564940D01*
X14517924Y46565001D01*
X14518454Y46565649D01*
X14519766Y46567688D01*
X14521789Y46569711D01*
X14609394Y46700821D01*
X14669737Y46846503D01*
X14700500Y47001158D01*
X14700500Y47158842D01*
X14700500Y47158845D01*
X14700499Y47158847D01*
X14669738Y47313490D01*
X14669737Y47313497D01*
X14669735Y47313502D01*
X14609397Y47459173D01*
X14609390Y47459186D01*
X14521789Y47590289D01*
X14521786Y47590293D01*
X14410292Y47701787D01*
X14410288Y47701790D01*
X14279185Y47789391D01*
X14279172Y47789398D01*
X14133501Y47849736D01*
X14133489Y47849739D01*
X13978845Y47880500D01*
X13978842Y47880500D01*
X13909424Y47880500D01*
X13842385Y47900185D01*
X13796630Y47952989D01*
X13786686Y48022147D01*
X13794863Y48051952D01*
X13854735Y48196499D01*
X13854737Y48196503D01*
X13885500Y48351158D01*
X13885500Y48508842D01*
X13885500Y48508845D01*
X13885499Y48508847D01*
X25574500Y48508847D01*
X25574500Y48351154D01*
X25605261Y48196511D01*
X25605264Y48196499D01*
X25665602Y48050828D01*
X25665609Y48050815D01*
X25753210Y47919712D01*
X25753213Y47919708D01*
X25805240Y47867681D01*
X25838725Y47806358D01*
X25833741Y47736666D01*
X25805240Y47692319D01*
X25753213Y47640293D01*
X25753210Y47640289D01*
X25665609Y47509186D01*
X25665602Y47509173D01*
X25605264Y47363502D01*
X25605261Y47363490D01*
X25574500Y47208847D01*
X25574500Y47051154D01*
X25605261Y46896511D01*
X25605264Y46896499D01*
X25665602Y46750828D01*
X25665609Y46750815D01*
X25753210Y46619712D01*
X25753213Y46619708D01*
X25864707Y46508214D01*
X25864711Y46508211D01*
X25995814Y46420610D01*
X25995827Y46420603D01*
X26069013Y46390289D01*
X26141503Y46360263D01*
X26296153Y46329501D01*
X26296156Y46329500D01*
X26296158Y46329500D01*
X26453844Y46329500D01*
X26453845Y46329501D01*
X26608497Y46360263D01*
X26754179Y46420606D01*
X26885289Y46508211D01*
X26996789Y46619711D01*
X27084394Y46750821D01*
X27144737Y46896503D01*
X27175500Y47051158D01*
X27175500Y47208842D01*
X27175500Y47208845D01*
X27175499Y47208847D01*
X27154684Y47313490D01*
X27144737Y47363497D01*
X27105102Y47459186D01*
X27084397Y47509173D01*
X27084390Y47509186D01*
X26996789Y47640289D01*
X26996786Y47640293D01*
X26944760Y47692319D01*
X26911275Y47753642D01*
X26916259Y47823334D01*
X26944760Y47867681D01*
X26996786Y47919708D01*
X26996789Y47919711D01*
X27084394Y48050821D01*
X27084863Y48051952D01*
X27144735Y48196499D01*
X27144737Y48196503D01*
X27175500Y48351158D01*
X27175500Y48508842D01*
X27175500Y48508845D01*
X27175499Y48508847D01*
X27144738Y48663490D01*
X27144737Y48663497D01*
X27144735Y48663502D01*
X27084397Y48809173D01*
X27084390Y48809186D01*
X26996789Y48940289D01*
X26996786Y48940293D01*
X26885292Y49051787D01*
X26885288Y49051790D01*
X26754185Y49139391D01*
X26754172Y49139398D01*
X26608501Y49199736D01*
X26608489Y49199739D01*
X26453845Y49230500D01*
X26453842Y49230500D01*
X26296158Y49230500D01*
X26296155Y49230500D01*
X26141510Y49199739D01*
X26141498Y49199736D01*
X25995827Y49139398D01*
X25995814Y49139391D01*
X25864711Y49051790D01*
X25864707Y49051787D01*
X25753213Y48940293D01*
X25753210Y48940289D01*
X25665609Y48809186D01*
X25665602Y48809173D01*
X25605264Y48663502D01*
X25605261Y48663490D01*
X25574500Y48508847D01*
X13885499Y48508847D01*
X13854738Y48663490D01*
X13854737Y48663497D01*
X13854735Y48663502D01*
X13794397Y48809173D01*
X13794390Y48809186D01*
X13706789Y48940289D01*
X13706786Y48940293D01*
X13595292Y49051787D01*
X13595288Y49051790D01*
X13464185Y49139391D01*
X13464172Y49139398D01*
X13318501Y49199736D01*
X13318489Y49199739D01*
X13163845Y49230500D01*
X13163842Y49230500D01*
X13147561Y49230500D01*
X13080522Y49250185D01*
X13034767Y49302989D01*
X13024823Y49372147D01*
X13033000Y49401952D01*
X13059735Y49466499D01*
X13059737Y49466503D01*
X13090500Y49621158D01*
X13090500Y49778842D01*
X13090500Y49778845D01*
X13090499Y49778847D01*
X13059738Y49933490D01*
X13059737Y49933497D01*
X13059735Y49933502D01*
X12999397Y50079173D01*
X12999390Y50079186D01*
X12911789Y50210289D01*
X12911786Y50210293D01*
X12800292Y50321787D01*
X12800288Y50321790D01*
X12669181Y50409394D01*
X12668654Y50409675D01*
X12668429Y50409896D01*
X12664114Y50412779D01*
X12664660Y50413598D01*
X12618809Y50458637D01*
X12603348Y50526775D01*
X12624002Y50587923D01*
X12679394Y50670821D01*
X12739737Y50816503D01*
X12770500Y50971158D01*
X12770500Y51058847D01*
X25274500Y51058847D01*
X25274500Y50901154D01*
X25305261Y50746511D01*
X25305264Y50746499D01*
X25365602Y50600828D01*
X25365609Y50600815D01*
X25453210Y50469712D01*
X25453213Y50469708D01*
X25564707Y50358214D01*
X25564711Y50358211D01*
X25695814Y50270610D01*
X25695827Y50270603D01*
X25841440Y50210289D01*
X25841503Y50210263D01*
X25996153Y50179501D01*
X25996156Y50179500D01*
X25996158Y50179500D01*
X26153844Y50179500D01*
X26153845Y50179501D01*
X26308497Y50210263D01*
X26454179Y50270606D01*
X26585289Y50358211D01*
X26696789Y50469711D01*
X26784394Y50600821D01*
X26844737Y50746503D01*
X26875500Y50901158D01*
X26875500Y51058842D01*
X26875500Y51058845D01*
X26875499Y51058847D01*
X26861575Y51128847D01*
X26844737Y51213497D01*
X26815745Y51283490D01*
X26784397Y51359173D01*
X26784390Y51359186D01*
X26696789Y51490289D01*
X26696786Y51490293D01*
X26585292Y51601787D01*
X26585288Y51601790D01*
X26454185Y51689391D01*
X26454172Y51689398D01*
X26308501Y51749736D01*
X26308489Y51749739D01*
X26153845Y51780500D01*
X26153842Y51780500D01*
X25996158Y51780500D01*
X25996155Y51780500D01*
X25841510Y51749739D01*
X25841498Y51749736D01*
X25695827Y51689398D01*
X25695814Y51689391D01*
X25564711Y51601790D01*
X25564707Y51601787D01*
X25453213Y51490293D01*
X25453210Y51490289D01*
X25365609Y51359186D01*
X25365602Y51359173D01*
X25305264Y51213502D01*
X25305261Y51213490D01*
X25274500Y51058847D01*
X12770500Y51058847D01*
X12770500Y51128842D01*
X12770500Y51128845D01*
X12770499Y51128847D01*
X12755051Y51206508D01*
X12739737Y51283497D01*
X12739735Y51283502D01*
X12679397Y51429173D01*
X12679390Y51429186D01*
X12591789Y51560289D01*
X12591786Y51560293D01*
X12480292Y51671787D01*
X12480288Y51671790D01*
X12349185Y51759391D01*
X12349172Y51759398D01*
X12203501Y51819736D01*
X12203489Y51819739D01*
X12048845Y51850500D01*
X12048842Y51850500D01*
X11891158Y51850500D01*
X11891155Y51850500D01*
X11736510Y51819739D01*
X11736498Y51819736D01*
X11590827Y51759398D01*
X11590814Y51759391D01*
X11459711Y51671790D01*
X11459707Y51671787D01*
X11348213Y51560293D01*
X11348210Y51560289D01*
X11260609Y51429186D01*
X11260602Y51429173D01*
X11200264Y51283502D01*
X11200261Y51283490D01*
X11169500Y51128847D01*
X1537571Y51128847D01*
X1559745Y51182379D01*
X1559747Y51182386D01*
X1569737Y51206503D01*
X1600500Y51361158D01*
X1600500Y51518842D01*
X1600500Y51518845D01*
X1600499Y51518847D01*
X1592255Y51560293D01*
X1569737Y51673497D01*
X1534156Y51759398D01*
X1509397Y51819173D01*
X1509390Y51819186D01*
X1421789Y51950289D01*
X1421786Y51950293D01*
X1310292Y52061787D01*
X1310288Y52061790D01*
X1179185Y52149391D01*
X1179172Y52149398D01*
X1033501Y52209736D01*
X1033489Y52209739D01*
X878845Y52240500D01*
X878842Y52240500D01*
X721158Y52240500D01*
X721155Y52240500D01*
X648691Y52226086D01*
X579100Y52232313D01*
X523922Y52275176D01*
X500678Y52341066D01*
X500500Y52347703D01*
X500500Y52362097D01*
X8540284Y52362097D01*
X8540284Y52204404D01*
X8571045Y52049761D01*
X8571048Y52049749D01*
X8631386Y51904078D01*
X8631393Y51904065D01*
X8718994Y51772962D01*
X8718997Y51772958D01*
X8830491Y51661464D01*
X8830495Y51661461D01*
X8961598Y51573860D01*
X8961611Y51573853D01*
X9107282Y51513515D01*
X9107287Y51513513D01*
X9261937Y51482751D01*
X9261940Y51482750D01*
X9261942Y51482750D01*
X9419628Y51482750D01*
X9419629Y51482751D01*
X9574281Y51513513D01*
X9719963Y51573856D01*
X9851073Y51661461D01*
X9962573Y51772961D01*
X10050178Y51904071D01*
X10110521Y52049753D01*
X10141284Y52204408D01*
X10141284Y52362092D01*
X10141284Y52362095D01*
X10141283Y52362097D01*
X10110522Y52516740D01*
X10110521Y52516747D01*
X10110519Y52516752D01*
X10050181Y52662423D01*
X10050174Y52662436D01*
X9962573Y52793539D01*
X9962570Y52793543D01*
X9851076Y52905037D01*
X9851072Y52905040D01*
X9719969Y52992641D01*
X9719956Y52992648D01*
X9574285Y53052986D01*
X9574273Y53052989D01*
X9419629Y53083750D01*
X9419626Y53083750D01*
X9261942Y53083750D01*
X9261939Y53083750D01*
X9107294Y53052989D01*
X9107282Y53052986D01*
X8961611Y52992648D01*
X8961598Y52992641D01*
X8830495Y52905040D01*
X8830491Y52905037D01*
X8718997Y52793543D01*
X8718994Y52793539D01*
X8631393Y52662436D01*
X8631386Y52662423D01*
X8571048Y52516752D01*
X8571045Y52516740D01*
X8540284Y52362097D01*
X500500Y52362097D01*
X500500Y53618847D01*
X3859500Y53618847D01*
X3859500Y53461154D01*
X3890261Y53306511D01*
X3890264Y53306499D01*
X3950602Y53160828D01*
X3950609Y53160815D01*
X4038210Y53029712D01*
X4038213Y53029708D01*
X4149707Y52918214D01*
X4149711Y52918211D01*
X4280814Y52830610D01*
X4280827Y52830603D01*
X4370309Y52793539D01*
X4426503Y52770263D01*
X4577312Y52740265D01*
X4581153Y52739501D01*
X4581156Y52739500D01*
X4581158Y52739500D01*
X4738844Y52739500D01*
X4738845Y52739501D01*
X4893497Y52770263D01*
X5006166Y52816933D01*
X5039172Y52830603D01*
X5039172Y52830604D01*
X5039179Y52830606D01*
X5170289Y52918211D01*
X5281789Y53029711D01*
X5369394Y53160821D01*
X5429737Y53306503D01*
X5460500Y53461158D01*
X5460500Y53618842D01*
X5460500Y53618845D01*
X5460499Y53618847D01*
X5429737Y53773497D01*
X5381823Y53889173D01*
X5369397Y53919173D01*
X5369390Y53919186D01*
X5281789Y54050289D01*
X5281786Y54050293D01*
X5170292Y54161787D01*
X5170288Y54161790D01*
X5039185Y54249391D01*
X5039172Y54249398D01*
X4893501Y54309736D01*
X4893489Y54309739D01*
X4738845Y54340500D01*
X4738842Y54340500D01*
X4581158Y54340500D01*
X4581155Y54340500D01*
X4426510Y54309739D01*
X4426498Y54309736D01*
X4280827Y54249398D01*
X4280814Y54249391D01*
X4149711Y54161790D01*
X4149707Y54161787D01*
X4038213Y54050293D01*
X4038210Y54050289D01*
X3950609Y53919186D01*
X3950602Y53919173D01*
X3890264Y53773502D01*
X3890261Y53773490D01*
X3859500Y53618847D01*
X500500Y53618847D01*
X500500Y54858847D01*
X11199500Y54858847D01*
X11199500Y54701154D01*
X11230261Y54546511D01*
X11230264Y54546499D01*
X11290602Y54400828D01*
X11290609Y54400815D01*
X11378210Y54269712D01*
X11378213Y54269708D01*
X11489707Y54158214D01*
X11494419Y54154347D01*
X11493405Y54153112D01*
X11533236Y54105465D01*
X11541953Y54036141D01*
X11522650Y53987070D01*
X11470608Y53909184D01*
X11470602Y53909173D01*
X11410264Y53763502D01*
X11410261Y53763490D01*
X11379500Y53608847D01*
X11379500Y53451154D01*
X11410261Y53296511D01*
X11410264Y53296499D01*
X11470602Y53150828D01*
X11470609Y53150815D01*
X11558210Y53019712D01*
X11558213Y53019708D01*
X11669707Y52908214D01*
X11669711Y52908211D01*
X11800814Y52820610D01*
X11800827Y52820603D01*
X11922363Y52770262D01*
X11946503Y52760263D01*
X12101153Y52729501D01*
X12101156Y52729500D01*
X12101158Y52729500D01*
X12258844Y52729500D01*
X12258845Y52729501D01*
X12413497Y52760263D01*
X12559179Y52820606D01*
X12690289Y52908211D01*
X12801789Y53019711D01*
X12889394Y53150821D01*
X12949737Y53296503D01*
X12980500Y53451158D01*
X12980500Y53608842D01*
X12980500Y53608845D01*
X12980499Y53608847D01*
X12978510Y53618847D01*
X12949737Y53763497D01*
X12897681Y53889173D01*
X12889397Y53909173D01*
X12889390Y53909186D01*
X12801789Y54040289D01*
X12801786Y54040293D01*
X12690292Y54151787D01*
X12685581Y54155653D01*
X12686593Y54156887D01*
X12646760Y54204543D01*
X12638047Y54273867D01*
X12657350Y54322932D01*
X12709394Y54400821D01*
X12769737Y54546503D01*
X12800500Y54701158D01*
X12800500Y54858842D01*
X12800500Y54858845D01*
X12800499Y54858847D01*
X12769738Y55013490D01*
X12769737Y55013497D01*
X12769735Y55013502D01*
X12709397Y55159173D01*
X12709390Y55159186D01*
X12621789Y55290289D01*
X12621786Y55290293D01*
X12510292Y55401787D01*
X12510288Y55401790D01*
X12379185Y55489391D01*
X12379172Y55489398D01*
X12233501Y55549736D01*
X12233489Y55549739D01*
X12078845Y55580500D01*
X12078842Y55580500D01*
X11921158Y55580500D01*
X11921155Y55580500D01*
X11766510Y55549739D01*
X11766498Y55549736D01*
X11620827Y55489398D01*
X11620814Y55489391D01*
X11489711Y55401790D01*
X11489707Y55401787D01*
X11378213Y55290293D01*
X11378210Y55290289D01*
X11290609Y55159186D01*
X11290602Y55159173D01*
X11230264Y55013502D01*
X11230261Y55013490D01*
X11199500Y54858847D01*
X500500Y54858847D01*
X500500Y57038847D01*
X3689500Y57038847D01*
X3689500Y56881154D01*
X3720261Y56726511D01*
X3720264Y56726499D01*
X3780602Y56580828D01*
X3780609Y56580815D01*
X3868210Y56449712D01*
X3868213Y56449708D01*
X3979707Y56338214D01*
X3979711Y56338211D01*
X4110814Y56250610D01*
X4110827Y56250603D01*
X4256498Y56190265D01*
X4256503Y56190263D01*
X4411153Y56159501D01*
X4411156Y56159500D01*
X4411158Y56159500D01*
X4568844Y56159500D01*
X4568845Y56159501D01*
X4723497Y56190263D01*
X4869179Y56250606D01*
X5000289Y56338211D01*
X5111789Y56449711D01*
X5199394Y56580821D01*
X5259737Y56726503D01*
X5290500Y56881158D01*
X5290500Y57038842D01*
X5290500Y57038845D01*
X5290499Y57038847D01*
X5283827Y57072387D01*
X5259737Y57193497D01*
X5199394Y57339179D01*
X5199390Y57339186D01*
X5198280Y57340847D01*
X23899500Y57340847D01*
X23899500Y57183154D01*
X23930261Y57028511D01*
X23930264Y57028499D01*
X23990602Y56882828D01*
X23990609Y56882815D01*
X24078210Y56751712D01*
X24078213Y56751708D01*
X24189707Y56640214D01*
X24189711Y56640211D01*
X24320814Y56552610D01*
X24320827Y56552603D01*
X24425678Y56509173D01*
X24466503Y56492263D01*
X24621153Y56461501D01*
X24621156Y56461500D01*
X24621158Y56461500D01*
X24778844Y56461500D01*
X24778845Y56461501D01*
X24933497Y56492263D01*
X25079179Y56552606D01*
X25210289Y56640211D01*
X25321789Y56751711D01*
X25409394Y56882821D01*
X25465381Y57017987D01*
X25509219Y57072387D01*
X25575513Y57094453D01*
X25643212Y57077175D01*
X25690823Y57026038D01*
X25694501Y57017985D01*
X25730604Y56930825D01*
X25730609Y56930815D01*
X25818210Y56799712D01*
X25822076Y56795001D01*
X25820521Y56793726D01*
X25849587Y56740496D01*
X25844603Y56670804D01*
X25831523Y56645247D01*
X25740609Y56509186D01*
X25740602Y56509173D01*
X25680264Y56363502D01*
X25680261Y56363490D01*
X25649500Y56208847D01*
X25649500Y56051154D01*
X25680261Y55896511D01*
X25680263Y55896503D01*
X25719427Y55801953D01*
X25726896Y55732483D01*
X25695621Y55670004D01*
X25635532Y55634352D01*
X25604866Y55630500D01*
X25481155Y55630500D01*
X25326510Y55599739D01*
X25326498Y55599736D01*
X25180827Y55539398D01*
X25180814Y55539391D01*
X25049711Y55451790D01*
X25049707Y55451787D01*
X24938213Y55340293D01*
X24938210Y55340289D01*
X24850609Y55209186D01*
X24850602Y55209173D01*
X24790264Y55063502D01*
X24790261Y55063490D01*
X24759500Y54908847D01*
X24759500Y54751154D01*
X24790261Y54596511D01*
X24790264Y54596499D01*
X24850602Y54450828D01*
X24850609Y54450815D01*
X24938210Y54319712D01*
X24938213Y54319708D01*
X25049707Y54208214D01*
X25049711Y54208211D01*
X25180814Y54120610D01*
X25180827Y54120603D01*
X25326498Y54060265D01*
X25326503Y54060263D01*
X25447772Y54036141D01*
X25481153Y54029501D01*
X25481156Y54029500D01*
X25481158Y54029500D01*
X25638843Y54029500D01*
X25640034Y54029737D01*
X25640671Y54029680D01*
X25644907Y54030097D01*
X25644986Y54029295D01*
X25709626Y54023515D01*
X25764807Y53980657D01*
X25788057Y53914769D01*
X25778797Y53860670D01*
X25730263Y53743497D01*
X25730262Y53743494D01*
X25730262Y53743493D01*
X25730261Y53743490D01*
X25699500Y53588847D01*
X25699500Y53431154D01*
X25730261Y53276511D01*
X25730264Y53276499D01*
X25790602Y53130828D01*
X25790609Y53130815D01*
X25878210Y52999712D01*
X25878213Y52999708D01*
X25989707Y52888214D01*
X25989711Y52888211D01*
X26120814Y52800610D01*
X26120827Y52800603D01*
X26266498Y52740265D01*
X26266503Y52740263D01*
X26421153Y52709501D01*
X26421156Y52709500D01*
X26421158Y52709500D01*
X26578844Y52709500D01*
X26578845Y52709501D01*
X26733497Y52740263D01*
X26879179Y52800606D01*
X27010289Y52888211D01*
X27121789Y52999711D01*
X27209394Y53130821D01*
X27269737Y53276503D01*
X27300500Y53431158D01*
X27300500Y53588842D01*
X27300500Y53588845D01*
X27300499Y53588847D01*
X27269738Y53743490D01*
X27269737Y53743497D01*
X27221203Y53860670D01*
X27209397Y53889173D01*
X27209390Y53889186D01*
X27121789Y54020289D01*
X27121786Y54020293D01*
X27010292Y54131787D01*
X27010288Y54131790D01*
X26879185Y54219391D01*
X26879172Y54219398D01*
X26733501Y54279736D01*
X26733489Y54279739D01*
X26578845Y54310500D01*
X26578842Y54310500D01*
X26421158Y54310500D01*
X26421150Y54310500D01*
X26419946Y54310260D01*
X26419303Y54310318D01*
X26415093Y54309903D01*
X26415014Y54310702D01*
X26350354Y54316493D01*
X26295181Y54359360D01*
X26271941Y54425252D01*
X26281202Y54479330D01*
X26329737Y54596503D01*
X26360500Y54751158D01*
X26360500Y54908842D01*
X26360500Y54908845D01*
X26360499Y54908847D01*
X26339684Y55013490D01*
X26329737Y55063497D01*
X26290572Y55158049D01*
X26283104Y55227517D01*
X26314379Y55289996D01*
X26374468Y55325648D01*
X26405134Y55329500D01*
X26528844Y55329500D01*
X26528845Y55329501D01*
X26683497Y55360263D01*
X26829179Y55420606D01*
X26960289Y55508211D01*
X27071789Y55619711D01*
X27159394Y55750821D01*
X27219737Y55896503D01*
X27250500Y56051158D01*
X27250500Y56208842D01*
X27250500Y56208845D01*
X27250499Y56208847D01*
X27242193Y56250603D01*
X27219737Y56363497D01*
X27184028Y56449708D01*
X27159397Y56509173D01*
X27159390Y56509186D01*
X27071789Y56640289D01*
X27067924Y56644999D01*
X27069478Y56646275D01*
X27040412Y56699505D01*
X27045396Y56769197D01*
X27058476Y56794755D01*
X27061784Y56799707D01*
X27061789Y56799711D01*
X27149394Y56930821D01*
X27209737Y57076503D01*
X27240500Y57231158D01*
X27240500Y57388842D01*
X27240500Y57388845D01*
X27240499Y57388847D01*
X27209738Y57543490D01*
X27209737Y57543497D01*
X27169276Y57641179D01*
X27149397Y57689173D01*
X27149390Y57689186D01*
X27061789Y57820289D01*
X27061786Y57820293D01*
X26950292Y57931787D01*
X26950288Y57931790D01*
X26819185Y58019391D01*
X26819172Y58019398D01*
X26673501Y58079736D01*
X26673489Y58079739D01*
X26518845Y58110500D01*
X26518842Y58110500D01*
X26361158Y58110500D01*
X26361155Y58110500D01*
X26206510Y58079739D01*
X26206498Y58079736D01*
X26060827Y58019398D01*
X26060814Y58019391D01*
X25929711Y57931790D01*
X25929707Y57931787D01*
X25818213Y57820293D01*
X25818210Y57820289D01*
X25730609Y57689186D01*
X25730602Y57689173D01*
X25674620Y57554017D01*
X25630779Y57499613D01*
X25564485Y57477548D01*
X25496786Y57494827D01*
X25449175Y57545964D01*
X25445498Y57554017D01*
X25409397Y57641173D01*
X25409390Y57641186D01*
X25321789Y57772289D01*
X25321786Y57772293D01*
X25210292Y57883787D01*
X25210288Y57883790D01*
X25079185Y57971391D01*
X25079172Y57971398D01*
X24933501Y58031736D01*
X24933489Y58031739D01*
X24778845Y58062500D01*
X24778842Y58062500D01*
X24621158Y58062500D01*
X24621155Y58062500D01*
X24466510Y58031739D01*
X24466498Y58031736D01*
X24320827Y57971398D01*
X24320814Y57971391D01*
X24189711Y57883790D01*
X24189707Y57883787D01*
X24078213Y57772293D01*
X24078210Y57772289D01*
X23990609Y57641186D01*
X23990602Y57641173D01*
X23930264Y57495502D01*
X23930261Y57495490D01*
X23899500Y57340847D01*
X5198280Y57340847D01*
X5111789Y57470289D01*
X5111786Y57470293D01*
X5000292Y57581787D01*
X5000288Y57581790D01*
X4869185Y57669391D01*
X4869172Y57669398D01*
X4723501Y57729736D01*
X4723489Y57729739D01*
X4568845Y57760500D01*
X4568842Y57760500D01*
X4411158Y57760500D01*
X4411155Y57760500D01*
X4256510Y57729739D01*
X4256498Y57729736D01*
X4110827Y57669398D01*
X4110814Y57669391D01*
X3979711Y57581790D01*
X3979707Y57581787D01*
X3868213Y57470293D01*
X3868210Y57470289D01*
X3780609Y57339186D01*
X3780602Y57339173D01*
X3720264Y57193502D01*
X3720261Y57193490D01*
X3689500Y57038847D01*
X500500Y57038847D01*
X500500Y59355500D01*
X520185Y59422539D01*
X572989Y59468294D01*
X624500Y59479500D01*
X29375500Y59479500D01*
X29442539Y59459815D01*
G37*
%TD.AperFunction*%
%TD*%
M02*
