%TF.GenerationSoftware,KiCad,Pcbnew,9.0.5*%
%TF.CreationDate,2025-12-23T07:57:35+01:00*%
%TF.ProjectId,horsesense,686f7273-6573-4656-9e73-652e6b696361,1.0*%
%TF.SameCoordinates,Original*%
%TF.FileFunction,Copper,L4,Bot*%
%TF.FilePolarity,Positive*%
%FSLAX46Y46*%
G04 Gerber Fmt 4.6, Leading zero omitted, Abs format (unit mm)*
G04 Created by KiCad (PCBNEW 9.0.5) date 2025-12-23 07:57:35*
%MOMM*%
%LPD*%
G01*
G04 APERTURE LIST*
%TA.AperFunction,HeatsinkPad*%
%ADD10C,0.600000*%
%TD*%
%TA.AperFunction,ComponentPad*%
%ADD11C,0.254000*%
%TD*%
%TA.AperFunction,ComponentPad*%
%ADD12R,1.000000X1.000000*%
%TD*%
%TA.AperFunction,ComponentPad*%
%ADD13C,1.000000*%
%TD*%
%TA.AperFunction,HeatsinkPad*%
%ADD14C,0.500000*%
%TD*%
%TA.AperFunction,HeatsinkPad*%
%ADD15R,2.700000X2.700000*%
%TD*%
%TA.AperFunction,HeatsinkPad*%
%ADD16O,2.100000X1.000000*%
%TD*%
%TA.AperFunction,HeatsinkPad*%
%ADD17O,1.800000X1.000000*%
%TD*%
%TA.AperFunction,SMDPad,CuDef*%
%ADD18R,0.540000X0.550000*%
%TD*%
%TA.AperFunction,SMDPad,CuDef*%
%ADD19C,1.000000*%
%TD*%
%TA.AperFunction,SMDPad,CuDef*%
%ADD20R,0.400000X0.700000*%
%TD*%
%TA.AperFunction,SMDPad,CuDef*%
%ADD21R,0.350000X0.550000*%
%TD*%
%TA.AperFunction,SMDPad,CuDef*%
%ADD22R,1.250000X1.450000*%
%TD*%
%TA.AperFunction,ViaPad*%
%ADD23C,0.600000*%
%TD*%
%TA.AperFunction,Conductor*%
%ADD24C,0.140000*%
%TD*%
%TA.AperFunction,Conductor*%
%ADD25C,0.500000*%
%TD*%
%TA.AperFunction,Conductor*%
%ADD26C,0.200000*%
%TD*%
%TA.AperFunction,Conductor*%
%ADD27C,0.600000*%
%TD*%
G04 APERTURE END LIST*
D10*
%TO.P,U9,41,GND*%
%TO.N,GND*%
X16550000Y51570000D03*
X16550000Y50170000D03*
X17250000Y52270000D03*
X17250000Y50870000D03*
X17250000Y49470000D03*
X17950000Y51570000D03*
X17950000Y50170000D03*
X18650000Y52270000D03*
X18650000Y50870000D03*
X18650000Y49470000D03*
X19350000Y51570000D03*
X19350000Y50170000D03*
%TD*%
D11*
%TO.P,U1,B2,\u002AINT*%
%TO.N,MAX_INT_1_8*%
X18175000Y31580000D03*
%TO.P,U1,B3,GPIO1*%
%TO.N,GPIO1*%
X18575000Y31580000D03*
%TD*%
D12*
%TO.P,J4,1,Pin_1*%
%TO.N,+3.3V*%
X1940000Y30695000D03*
D13*
%TO.P,J4,2,Pin_2*%
%TO.N,Net-(J4-Pin_2)*%
X1940000Y31965000D03*
%TO.P,J4,3,Pin_3*%
%TO.N,Net-(J4-Pin_3)*%
X1940000Y33235000D03*
%TO.P,J4,4,Pin_4*%
%TO.N,GND*%
X1940000Y34505000D03*
%TD*%
D14*
%TO.P,U3,25,GND*%
%TO.N,GND*%
X13440000Y4177500D03*
X14540000Y4177500D03*
X15640000Y4177500D03*
X13440000Y5277500D03*
X14540000Y5277500D03*
D15*
X14540000Y5277500D03*
D14*
X15640000Y5277500D03*
X13440000Y6377500D03*
X14540000Y6377500D03*
X15640000Y6377500D03*
%TD*%
D16*
%TO.P,J1,S1,SHIELD*%
%TO.N,GND*%
X6795000Y45450000D03*
D17*
X2615000Y45450000D03*
D16*
X6795000Y36810000D03*
D17*
X2615000Y36810000D03*
%TD*%
D18*
%TO.P,D6,1*%
%TO.N,Net-(U1-PD2_IN)*%
X13000000Y27910000D03*
%TO.P,D6,2*%
X14310000Y27910000D03*
%TO.P,D6,3*%
X15690000Y27910000D03*
%TO.P,D6,4*%
X17000000Y27910000D03*
%TO.P,D6,5*%
%TO.N,PD_GND*%
X17000000Y25530000D03*
%TO.P,D6,6*%
%TO.N,Net-(U1-PD2_IN)*%
X15690000Y25530000D03*
%TO.P,D6,7*%
X14310000Y25530000D03*
%TO.P,D6,8*%
X13000000Y25530000D03*
%TD*%
D19*
%TO.P,TP4,1,1*%
%TO.N,unconnected-(TP4-Pad1)*%
X2360000Y55080000D03*
%TD*%
D20*
%TO.P,D2,1,RK*%
%TO.N,Net-(D2-RK)*%
X14300000Y31160000D03*
%TO.P,D2,2,A*%
%TO.N,+3.3V_LED*%
X14300000Y29710000D03*
%TO.P,D2,3,GK*%
%TO.N,Net-(D2-GK)*%
X14950000Y31160000D03*
%TO.P,D2,4,BK*%
%TO.N,Net-(D2-BK)*%
X14950000Y29710000D03*
%TO.P,D2,5,A*%
%TO.N,+3.3V_LED*%
X15600000Y31160000D03*
%TO.P,D2,6*%
%TO.N,N/C*%
X15600000Y29710000D03*
%TD*%
D21*
%TO.P,D1,1,A*%
%TO.N,+3.3V_LED*%
X14290000Y22555000D03*
D22*
X15340000Y23000000D03*
D21*
%TO.P,D1,2,K*%
%TO.N,Net-(D1-K)*%
X14290000Y23445000D03*
%TD*%
D18*
%TO.P,D4,1*%
%TO.N,Net-(U1-PD1_IN)*%
X13000000Y20470000D03*
%TO.P,D4,2*%
X14310000Y20470000D03*
%TO.P,D4,3*%
X15690000Y20470000D03*
%TO.P,D4,4*%
X17000000Y20470000D03*
%TO.P,D4,5*%
%TO.N,PD_GND*%
X17000000Y18090000D03*
%TO.P,D4,6*%
%TO.N,Net-(U1-PD1_IN)*%
X15690000Y18090000D03*
%TO.P,D4,7*%
X14310000Y18090000D03*
%TO.P,D4,8*%
X13000000Y18090000D03*
%TD*%
D19*
%TO.P,TP3,1,1*%
%TO.N,unconnected-(TP3-Pad1)*%
X25440000Y3270000D03*
%TD*%
D20*
%TO.P,D3,1,RK*%
%TO.N,Net-(D3-RK)*%
X14350000Y16305000D03*
%TO.P,D3,2,A*%
%TO.N,+3.3V_LED*%
X14350000Y14855000D03*
%TO.P,D3,3,GK*%
%TO.N,Net-(D2-GK)*%
X15000000Y16305000D03*
%TO.P,D3,4,BK*%
%TO.N,Net-(D3-BK)*%
X15000000Y14855000D03*
%TO.P,D3,5,A*%
%TO.N,+3.3V_LED*%
X15650000Y16305000D03*
%TO.P,D3,6*%
%TO.N,N/C*%
X15650000Y14855000D03*
%TD*%
D23*
%TO.N,+3.3V*%
X20890000Y16290000D03*
X4490000Y56960000D03*
X12263415Y32766585D03*
X20990000Y22480000D03*
X21050000Y19380000D03*
X2900000Y27105000D03*
X26525000Y12630000D03*
X7260000Y34010000D03*
X20325000Y37105000D03*
X26975000Y15855000D03*
X15575000Y39180000D03*
X1570000Y10880000D03*
X4660000Y53540000D03*
%TO.N,GND*%
X13110000Y36980000D03*
X24175000Y1555000D03*
X20320000Y6930000D03*
X13700000Y39180000D03*
X9960000Y1481000D03*
X5070000Y1481000D03*
X12390000Y58630000D03*
X18361793Y29893207D03*
X26900000Y58690000D03*
X4390000Y50550000D03*
X1800000Y12380000D03*
X4740000Y12270000D03*
X19475000Y36530000D03*
X8312409Y33363938D03*
X21875000Y25680000D03*
X14850000Y43505000D03*
X11360000Y10360000D03*
X8136500Y22655000D03*
X18620000Y9000000D03*
X1570000Y27290000D03*
X1750000Y24080000D03*
X19300000Y12580000D03*
X27950000Y12805000D03*
X12700000Y28855000D03*
X6670000Y19610000D03*
X7000000Y26282500D03*
X4949931Y28984147D03*
X17360000Y1181000D03*
X18550000Y22980000D03*
X2630000Y21080000D03*
X3840000Y7170000D03*
X20925000Y27680000D03*
X14625000Y28780000D03*
X23100000Y17480000D03*
X4430000Y58860000D03*
X24391393Y13638607D03*
X23200000Y21480000D03*
X27490000Y36300000D03*
X4861765Y35008000D03*
X8100000Y54290000D03*
X2440000Y1940000D03*
X26795000Y30955000D03*
X23200000Y23255000D03*
X19900000Y13255000D03*
X12280000Y7700000D03*
X23100000Y19380000D03*
%TO.N,+1.8V*%
X19025000Y27630000D03*
X14650000Y36955000D03*
X24925000Y37105000D03*
%TO.N,VBUS*%
X12790000Y780000D03*
X8300000Y38730000D03*
X8450000Y43530000D03*
%TO.N,+BATT*%
X22724265Y9005735D03*
X16570000Y8990000D03*
%TO.N,Net-(U3-REGN)*%
X8100000Y2510000D03*
X19990000Y780000D03*
%TO.N,Vsys*%
X12420000Y9120000D03*
X5290000Y3750000D03*
X7160000Y6160000D03*
X29200000Y30950000D03*
%TO.N,Net-(IC1-PON)*%
X6310000Y18100000D03*
X1570000Y21080000D03*
%TO.N,SDA*%
X17279527Y2689686D03*
X12290000Y49700000D03*
X6550000Y14780000D03*
X10817515Y35312485D03*
%TO.N,SCL*%
X8500000Y10005000D03*
X11254251Y34050749D03*
X13085000Y48430000D03*
X16346615Y2694517D03*
%TO.N,MAX_INT*%
X20475000Y39405000D03*
X14600000Y39205000D03*
%TO.N,Net-(U9-IO0)*%
X800000Y51440000D03*
X24700000Y57262000D03*
%TO.N,MAX_CS_1_8*%
X16825000Y35055000D03*
X20203067Y34931994D03*
%TO.N,MAX_SCLK_1_8*%
X19013235Y34331994D03*
X16902354Y34258749D03*
%TO.N,INT_BAT*%
X27675000Y9230000D03*
X26450000Y56130000D03*
%TO.N,CE_BAT*%
X17450000Y5020000D03*
X12709000Y38772423D03*
%TO.N,PSEL_BAT*%
X12530000Y2440000D03*
X12000000Y54780000D03*
%TO.N,MAX_INT_1_8*%
X20325000Y35880000D03*
%TO.N,ICM_FSYNC*%
X5956886Y29286713D03*
X12180000Y53530000D03*
%TO.N,GPS_TX*%
X13900000Y45880000D03*
X21400000Y13980000D03*
%TO.N,ICM_INT2*%
X8238221Y34206000D03*
X11970000Y51050000D03*
%TO.N,GPS_RST*%
X25010000Y28530000D03*
X26375000Y48430000D03*
%TO.N,ICM_INT*%
X9340784Y52283250D03*
X2750000Y35680000D03*
%TO.N,GPS_PP1*%
X26075000Y50980000D03*
X23625000Y14005000D03*
%TO.N,FLASH_SCLK*%
X24975710Y15666588D03*
X21951316Y42830000D03*
%TO.N,GPS_SEL*%
X10125000Y11130000D03*
X26375000Y47130000D03*
%TO.N,Net-(J4-Pin_3)*%
X26500000Y53510000D03*
%TO.N,GPS_RX*%
X13900000Y47080000D03*
X22584070Y13930000D03*
%TO.N,ICM_AD0*%
X26440000Y57310000D03*
X3525735Y35429265D03*
%TO.N,Net-(J4-Pin_2)*%
X25560000Y54830000D03*
%TO.N,GPS_FIX*%
X27997000Y38855000D03*
X26475000Y14180000D03*
%TO.N,Net-(U1-PD2_IN)*%
X18025000Y27255000D03*
X19925000Y29955000D03*
%TO.N,Net-(D2-RK)*%
X13620579Y30961000D03*
%TO.N,Net-(D1-K)*%
X13475000Y23530000D03*
%TO.N,Net-(IC1-VCC)*%
X6890000Y16980000D03*
X3220000Y21750000D03*
%TO.N,Net-(U1-PD1_IN)*%
X16200000Y21480000D03*
%TO.N,PD_GND*%
X19775000Y23930000D03*
%TO.N,FLASH_SID0*%
X21215735Y42325735D03*
X24175827Y15680418D03*
%TO.N,FLASH_SID3*%
X25775000Y15632821D03*
X22352316Y43522243D03*
%TO.N,FLASH_CS*%
X27998000Y26705000D03*
X24738000Y38180000D03*
%TO.N,FLASH_SID1*%
X25550000Y38755000D03*
X27500000Y27427685D03*
%TO.N,FLASH_SID2*%
X25996994Y27070000D03*
X27050000Y38830000D03*
%TO.N,+3.3V_LED*%
X12675000Y24505000D03*
X14231885Y32655999D03*
X16075000Y11730000D03*
X16344496Y32762087D03*
X16375000Y16330000D03*
X13400000Y22580000D03*
X16486765Y30955000D03*
%TO.N,Net-(D2-GK)*%
X11200003Y24630000D03*
X15600000Y17180000D03*
X10978456Y27657058D03*
X16450000Y29730000D03*
%TO.N,Net-(D2-BK)*%
X11749899Y31211001D03*
%TO.N,Net-(D3-RK)*%
X7138883Y27070353D03*
X13525000Y15980000D03*
X10350000Y21691027D03*
%TO.N,Net-(D3-BK)*%
X15025000Y13480000D03*
%TO.N,GPIO1*%
X15350000Y34655000D03*
X11064975Y28452369D03*
X10600003Y23752732D03*
%TD*%
D24*
%TO.N,MAX_INT_1_8*%
X18175000Y31580000D02*
X18175000Y31400395D01*
X18175000Y31400395D02*
X18393395Y31182000D01*
X18393395Y31198748D02*
X18410143Y31182000D01*
X18393395Y31182000D02*
X18393395Y31198748D01*
X18410143Y31182000D02*
X18739857Y31182000D01*
X18739857Y31182000D02*
X18973000Y31415143D01*
X18973000Y31415143D02*
X18973000Y32728000D01*
X20774067Y35430933D02*
X20325000Y35880000D01*
X18973000Y32728000D02*
X20774067Y34529067D01*
X20774067Y34529067D02*
X20774067Y35430933D01*
D25*
%TO.N,VBUS*%
X820000Y41030000D02*
X820000Y36880000D01*
X7650000Y42730000D02*
X2520000Y42730000D01*
X820000Y2230000D02*
X820000Y36880000D01*
X820000Y36880000D02*
X820000Y37525000D01*
X12790000Y780000D02*
X12741000Y731000D01*
X2520000Y42730000D02*
X820000Y41030000D01*
X2319000Y731000D02*
X820000Y2230000D01*
X12741000Y731000D02*
X2319000Y731000D01*
X8450000Y43530000D02*
X7650000Y42730000D01*
X8450000Y43530000D02*
X8300000Y43380000D01*
X8300000Y43380000D02*
X8300000Y38730000D01*
D26*
%TO.N,Net-(U3-REGN)*%
X8100000Y2510000D02*
X8530000Y2940000D01*
X13310000Y1400000D02*
X14129000Y581000D01*
X11174900Y1968000D02*
X11742900Y1400000D01*
X19791000Y581000D02*
X19990000Y780000D01*
X14129000Y581000D02*
X19791000Y581000D01*
X8530000Y2940000D02*
X10195800Y2940000D01*
X11742900Y1400000D02*
X13310000Y1400000D01*
X11167800Y1968000D02*
X11174900Y1968000D01*
X10195800Y2940000D02*
X11167800Y1968000D01*
D27*
%TO.N,Vsys*%
X27875000Y8055000D02*
X13445000Y8055000D01*
X13445000Y8055000D02*
X12400000Y9100000D01*
X29199000Y30949000D02*
X29199000Y9379000D01*
X29199000Y9379000D02*
X27875000Y8055000D01*
X29200000Y30950000D02*
X29199000Y30949000D01*
D26*
%TO.N,Net-(IC1-PON)*%
X2900000Y18100000D02*
X1570000Y19430000D01*
X1570000Y19430000D02*
X1570000Y21080000D01*
X6310000Y18100000D02*
X2900000Y18100000D01*
%TO.N,SDA*%
X11341000Y2369000D02*
X11333900Y2369000D01*
X11300000Y36076400D02*
X11307000Y36083400D01*
X12779943Y1840000D02*
X12778943Y1839000D01*
X12280057Y1840000D02*
X11870000Y1840000D01*
X11307000Y36083400D02*
X11307000Y39540150D01*
X16429841Y1840000D02*
X12779943Y1840000D01*
X11307000Y39540150D02*
X12084000Y40317150D01*
X7498000Y7302000D02*
X7498000Y14755000D01*
X12290000Y49657043D02*
X12290000Y49700000D01*
X10817515Y35312485D02*
X11300000Y35794970D01*
X7498000Y19782000D02*
X4025000Y23255000D01*
X17279527Y2689686D02*
X16429841Y1840000D01*
X11333900Y2369000D02*
X9038000Y4664900D01*
X9038000Y4664900D02*
X9038000Y4672000D01*
X12778943Y1839000D02*
X12281057Y1839000D01*
X9501000Y33995970D02*
X10817515Y35312485D01*
X12084000Y49451043D02*
X12290000Y49657043D01*
X6625000Y29912900D02*
X9501000Y32788900D01*
X11300000Y35794970D02*
X11300000Y36076400D01*
X7473000Y14780000D02*
X7498000Y14755000D01*
X11870000Y1840000D02*
X11341000Y2369000D01*
X12281057Y1839000D02*
X12280057Y1840000D01*
X9038000Y4672000D02*
X8130000Y5580000D01*
X4025000Y26506300D02*
X6625000Y29106300D01*
X12084000Y40317150D02*
X12084000Y49451043D01*
X7498000Y14755000D02*
X7498000Y19782000D01*
X6550000Y14780000D02*
X7473000Y14780000D01*
X4025000Y23255000D02*
X4025000Y26506300D01*
X9501000Y32788900D02*
X9501000Y33995970D01*
X8130000Y5580000D02*
X8130000Y6670000D01*
X8130000Y6670000D02*
X7498000Y7302000D01*
X6625000Y29106300D02*
X6625000Y29912900D01*
%TO.N,SCL*%
X8300000Y7634200D02*
X8300000Y9122157D01*
X12101000Y35178928D02*
X12101000Y35461770D01*
X11918237Y34996165D02*
X12101000Y35178928D01*
X16346615Y2694517D02*
X15893098Y2241000D01*
X12109000Y35751200D02*
X12109000Y39207950D01*
X8500000Y9322157D02*
X8500000Y9805000D01*
X8500000Y10712900D02*
X8300000Y10912900D01*
X12109000Y39207950D02*
X12886000Y39984950D01*
X12102000Y35462770D02*
X12102000Y35744200D01*
X8932000Y5940900D02*
X8932000Y7002200D01*
X4827000Y26174100D02*
X7427000Y28774100D01*
X12102000Y35744200D02*
X12109000Y35751200D01*
X12886000Y48040000D02*
X13276000Y48430000D01*
X7427000Y28774100D02*
X7427000Y29580700D01*
X8500000Y10005000D02*
X8300000Y10005000D01*
X10339565Y32493265D02*
X7725650Y29879350D01*
X11254251Y34050749D02*
X10339565Y33136063D01*
X8500000Y9805000D02*
X8300000Y10005000D01*
X8300000Y9122157D02*
X8500000Y9322157D01*
X13276000Y48430000D02*
X13085000Y48430000D01*
X10339565Y33136063D02*
X10339565Y32493265D01*
X12886000Y39984950D02*
X12886000Y48040000D01*
X8300000Y10005000D02*
X8500000Y10205000D01*
X8500000Y10205000D02*
X8500000Y10712900D01*
X4827000Y23587200D02*
X4827000Y26174100D01*
X8300000Y20114200D02*
X4827000Y23587200D01*
X11918237Y34714735D02*
X11918237Y34996165D01*
X11254251Y34050749D02*
X11918237Y34714735D01*
X8300000Y10912900D02*
X8300000Y20114200D01*
X12770000Y3060000D02*
X11812900Y3060000D01*
X13589000Y2241000D02*
X12770000Y3060000D01*
X12101000Y35461770D02*
X12102000Y35462770D01*
X7427000Y29580700D02*
X7725650Y29879350D01*
X11812900Y3060000D02*
X8932000Y5940900D01*
X8932000Y7002200D02*
X8300000Y7634200D01*
X15893098Y2241000D02*
X13589000Y2241000D01*
X7725650Y29879350D02*
X8011981Y30165681D01*
%TO.N,MAX_INT*%
X20375000Y39305000D02*
X16650000Y39305000D01*
X16650000Y39305000D02*
X15924000Y38579000D01*
X15924000Y38579000D02*
X15226000Y38579000D01*
X15226000Y38579000D02*
X14600000Y39205000D01*
X20475000Y39405000D02*
X20375000Y39305000D01*
%TO.N,Net-(U9-IO0)*%
X21582000Y57262000D02*
X21383000Y57063000D01*
X21383000Y57063000D02*
X11621700Y57063000D01*
X9678000Y54158000D02*
X6960000Y51440000D01*
X9678000Y55119300D02*
X9678000Y54158000D01*
X11621700Y57063000D02*
X9678000Y55119300D01*
X6960000Y51440000D02*
X800000Y51440000D01*
X24700000Y57262000D02*
X21582000Y57262000D01*
%TO.N,MAX_CS_1_8*%
X16825000Y35055000D02*
X17570905Y35055000D01*
X17570905Y35055000D02*
X17693911Y34931994D01*
X17693911Y34931994D02*
X20203067Y34931994D01*
%TO.N,MAX_SCLK_1_8*%
X16975599Y34331994D02*
X19013235Y34331994D01*
X16902354Y34258749D02*
X16975599Y34331994D01*
%TO.N,INT_BAT*%
X27519000Y56130000D02*
X26450000Y56130000D01*
X28598000Y10153000D02*
X28598000Y31197942D01*
X29399000Y54250000D02*
X27519000Y56130000D01*
X28598000Y31197942D02*
X29399000Y31998942D01*
X27675000Y9230000D02*
X28598000Y10153000D01*
X29399000Y31998942D02*
X29399000Y54250000D01*
%TO.N,CE_BAT*%
X10740565Y32659365D02*
X10740565Y32327165D01*
X7828000Y29414600D02*
X7828000Y28608000D01*
X8701000Y20280300D02*
X8701000Y11079000D01*
X15462000Y2642000D02*
X15745615Y2925615D01*
X12525000Y36240000D02*
X12525000Y34443800D01*
X16097672Y3295517D02*
X16905517Y3295517D01*
X15745615Y2925615D02*
X15745615Y2943460D01*
X12525000Y34443800D02*
X10740565Y32659365D01*
X10740565Y32327165D02*
X7828000Y29414600D01*
X9175000Y10606413D02*
X9175000Y9430057D01*
X8701000Y11079000D02*
X9160765Y10619235D01*
X7828000Y28608000D02*
X5228000Y26008000D01*
X12510000Y36255000D02*
X12525000Y36240000D01*
X9160765Y10619235D02*
X9162178Y10619235D01*
X12936100Y3461000D02*
X13755100Y2642000D01*
X15745615Y2943460D02*
X16097672Y3295517D01*
X13755100Y2642000D02*
X15462000Y2642000D01*
X9162178Y10619235D02*
X9175000Y10606413D01*
X11979000Y3461000D02*
X12936100Y3461000D01*
X5228000Y26008000D02*
X5228000Y23753300D01*
X9333000Y6107000D02*
X11979000Y3461000D01*
X9175000Y9430057D02*
X8701000Y8956057D01*
X16905517Y3295517D02*
X17450000Y3840000D01*
X5228000Y23753300D02*
X8701000Y20280300D01*
X8701000Y8956057D02*
X8701000Y7800300D01*
X9333000Y7168300D02*
X9333000Y6107000D01*
X12709000Y38772423D02*
X12510000Y38573423D01*
X12510000Y38573423D02*
X12510000Y36255000D01*
X8701000Y7800300D02*
X9333000Y7168300D01*
X17450000Y3840000D02*
X17450000Y5020000D01*
%TO.N,PSEL_BAT*%
X11500000Y2770000D02*
X11507100Y2770000D01*
X7026000Y29746800D02*
X7026000Y28940200D01*
X8531000Y6836100D02*
X8531000Y5774800D01*
X11701000Y35910300D02*
X11701000Y35628870D01*
X7899000Y7468100D02*
X8531000Y6836100D01*
X9453350Y4852450D02*
X9439000Y4838100D01*
X9439000Y4831000D02*
X11500000Y2770000D01*
X8531000Y5774800D02*
X9453350Y4852450D01*
X7026000Y28940200D02*
X4426000Y26340200D01*
X12972000Y53808000D02*
X12972000Y49272000D01*
X7899000Y19948100D02*
X7899000Y7468100D01*
X12972000Y49272000D02*
X12485000Y48785000D01*
X11701000Y35628870D02*
X11700000Y35627870D01*
X12000000Y54780000D02*
X12972000Y53808000D01*
X11837100Y2440000D02*
X12530000Y2440000D01*
X11708000Y35917300D02*
X11701000Y35910300D01*
X11507100Y2770000D02*
X11837100Y2440000D01*
X11700000Y35627870D02*
X11700000Y35345028D01*
X12485000Y40151050D02*
X11708000Y39374050D01*
X12485000Y48785000D02*
X12485000Y40151050D01*
X11700000Y35345028D02*
X9938565Y33583593D01*
X9938565Y33583593D02*
X9938565Y32659365D01*
X9439000Y4838100D02*
X9439000Y4831000D01*
X9938565Y32659365D02*
X7026000Y29746800D01*
X4426000Y26340200D02*
X4426000Y23421100D01*
X11708000Y39374050D02*
X11708000Y35917300D01*
X4426000Y23421100D02*
X7899000Y19948100D01*
%TO.N,ICM_FSYNC*%
X11683000Y49913057D02*
X11689000Y49919057D01*
X9100000Y34443500D02*
X10906000Y36249500D01*
X9100000Y32955000D02*
X9100000Y34443500D01*
X12571000Y53022470D02*
X12180000Y53413470D01*
X5956886Y29811886D02*
X9100000Y32955000D01*
X12070943Y50301000D02*
X12571000Y50801057D01*
X5956886Y29286713D02*
X5956886Y29811886D01*
X11683000Y40483250D02*
X11683000Y49913057D01*
X10906000Y39706250D02*
X11683000Y40483250D01*
X12041057Y50301000D02*
X12070943Y50301000D01*
X11689000Y49919057D02*
X11689000Y49948943D01*
X11689000Y49948943D02*
X12041057Y50301000D01*
X10906000Y36249500D02*
X10906000Y39706250D01*
X12180000Y53413470D02*
X12180000Y53530000D01*
X12571000Y50801057D02*
X12571000Y53022470D01*
%TO.N,GPS_TX*%
X25390000Y18695000D02*
X25390000Y22662900D01*
X23802118Y17083418D02*
X25366300Y18647600D01*
X21331000Y35629000D02*
X21331000Y38218943D01*
X22405000Y27449557D02*
X22404000Y27450557D01*
X25366300Y18647600D02*
X25366300Y18671300D01*
X19825000Y41220800D02*
X19825000Y41837900D01*
X25366300Y18671300D02*
X25390000Y18695000D01*
X22974000Y25078900D02*
X22974000Y26508800D01*
X22405000Y27077800D02*
X22405000Y27449557D01*
X25390000Y22662900D02*
X22974000Y25078900D01*
X21325000Y38224943D02*
X21325000Y39710300D01*
X22974000Y26508800D02*
X22405000Y27077800D01*
X19812735Y44925635D02*
X19825000Y44937900D01*
X22404000Y29609443D02*
X22742000Y29947443D01*
X22100000Y14325000D02*
X22100000Y15588734D01*
X20546316Y40499484D02*
X19825000Y41220800D01*
X20546316Y40488984D02*
X20546316Y40499484D01*
X21325000Y39710300D02*
X20546316Y40488984D01*
X22404000Y27450557D02*
X22404000Y29609443D01*
X22100000Y15588734D02*
X23594684Y17083418D01*
X23594684Y17083418D02*
X23802118Y17083418D01*
X19812735Y41850165D02*
X19812735Y44925635D01*
X19825000Y41837900D02*
X19812735Y41850165D01*
X21331000Y38218943D02*
X21325000Y38224943D01*
X19825000Y44937900D02*
X18882900Y45880000D01*
X21400000Y13980000D02*
X21755000Y13980000D01*
X22742000Y29947443D02*
X22742000Y34218000D01*
X22742000Y34218000D02*
X21331000Y35629000D01*
X21755000Y13980000D02*
X22100000Y14325000D01*
X18882900Y45880000D02*
X13900000Y45880000D01*
%TO.N,ICM_INT2*%
X8238221Y34206000D02*
X8392821Y34360600D01*
X11282000Y40649350D02*
X11282000Y50362000D01*
X10505000Y39872350D02*
X11282000Y40649350D01*
X11282000Y50362000D02*
X11970000Y51050000D01*
X8392821Y34360600D02*
X8450000Y34360600D01*
X8450000Y34360600D02*
X10505000Y36415600D01*
X10505000Y36415600D02*
X10505000Y39872350D01*
%TO.N,GPS_RST*%
X22952316Y47290216D02*
X24092100Y48430000D01*
X23737000Y39215543D02*
X23731000Y39221543D01*
X23731000Y40706900D02*
X22952316Y41485584D01*
X25148000Y35214600D02*
X23737000Y36625600D01*
X23731000Y39221543D02*
X23731000Y40706900D01*
X22952316Y41485584D02*
X22952316Y47290216D01*
X25148000Y28668000D02*
X25148000Y35214600D01*
X23737000Y36625600D02*
X23737000Y39215543D01*
X25010000Y28530000D02*
X25148000Y28668000D01*
X24092100Y48430000D02*
X26375000Y48430000D01*
%TO.N,ICM_INT*%
X2775000Y35680000D02*
X3104000Y36009000D01*
X7830000Y36009000D02*
X8901000Y37080000D01*
X4270000Y36009000D02*
X7830000Y36009000D01*
X3774943Y36030000D02*
X4249000Y36030000D01*
X9678000Y41313750D02*
X9678000Y51770068D01*
X9184034Y52264034D02*
X9360000Y52264034D01*
X8901000Y40536750D02*
X9678000Y41313750D01*
X3276792Y36030265D02*
X3774678Y36030265D01*
X9678000Y51770068D02*
X9184034Y52264034D01*
X3104000Y36009000D02*
X3255527Y36009000D01*
X3774678Y36030265D02*
X3774943Y36030000D01*
X8901000Y37080000D02*
X8901000Y40536750D01*
X4249000Y36030000D02*
X4270000Y36009000D01*
X2750000Y35680000D02*
X2775000Y35680000D01*
X3255527Y36009000D02*
X3276792Y36030265D01*
X9360000Y52264034D02*
X9340784Y52283250D01*
%TO.N,GPS_PP1*%
X26192000Y18339100D02*
X26192000Y22995100D01*
X23625000Y14855000D02*
X23574827Y14905173D01*
X20614735Y42182365D02*
X20614735Y42634605D01*
X24134318Y16281418D02*
X26192000Y18339100D01*
X23926884Y16281418D02*
X24134318Y16281418D01*
X23776000Y25411100D02*
X23776000Y26841000D01*
X26192000Y22995100D02*
X23776000Y25411100D01*
X22127000Y38557143D02*
X22127000Y40042500D01*
X23776000Y26841000D02*
X23207000Y27410000D01*
X23625000Y14005000D02*
X23625000Y14855000D01*
X20625000Y48555000D02*
X23050000Y50980000D01*
X23050000Y50980000D02*
X26075000Y50980000D01*
X21348316Y40831684D02*
X20627000Y41553000D01*
X21348316Y40821184D02*
X21348316Y40831684D01*
X20627000Y48553000D02*
X20625000Y48555000D01*
X22133000Y35961200D02*
X22133000Y38551143D01*
X20627000Y42646870D02*
X20627000Y48553000D01*
X23207000Y27781757D02*
X23206000Y27782757D01*
X23206000Y29277243D02*
X23544000Y29615243D01*
X23574827Y15929361D02*
X23926884Y16281418D01*
X23207000Y27410000D02*
X23207000Y27781757D01*
X20627000Y41553000D02*
X20627000Y42170100D01*
X20614735Y42634605D02*
X20627000Y42646870D01*
X23574827Y14905173D02*
X23574827Y15929361D01*
X22133000Y38551143D02*
X22127000Y38557143D01*
X23544000Y34550200D02*
X22133000Y35961200D01*
X22127000Y40042500D02*
X21348316Y40821184D01*
X23544000Y29615243D02*
X23544000Y34550200D01*
X20627000Y42170100D02*
X20614735Y42182365D01*
X23206000Y27782757D02*
X23206000Y29277243D01*
%TO.N,FLASH_SCLK*%
X24578000Y27173200D02*
X24578000Y25743300D01*
X25174000Y15829000D02*
X25011588Y15666588D01*
X22929000Y38889343D02*
X22935000Y38883343D01*
X24009000Y27742200D02*
X24578000Y27173200D01*
X24009000Y28113957D02*
X24009000Y27742200D01*
X25011588Y15666588D02*
X24975710Y15666588D01*
X26994000Y17891100D02*
X25374000Y16271100D01*
X24346000Y34882400D02*
X24346000Y29283043D01*
X22935000Y36293400D02*
X24346000Y34882400D01*
X22150316Y41153384D02*
X22929000Y40374700D01*
X22929000Y40374700D02*
X22929000Y38889343D01*
X22935000Y38883343D02*
X22935000Y36293400D01*
X24578000Y25743300D02*
X26994000Y23327300D01*
X24008000Y28114957D02*
X24009000Y28113957D01*
X22150316Y42631000D02*
X22150316Y41153384D01*
X25374000Y16271100D02*
X25374000Y16081764D01*
X24346000Y29283043D02*
X24008000Y28945043D01*
X25374000Y16081764D02*
X25174000Y15881764D01*
X21951316Y42830000D02*
X22150316Y42631000D01*
X25174000Y15881764D02*
X25174000Y15829000D01*
X24008000Y28945043D02*
X24008000Y28114957D01*
X26994000Y23327300D02*
X26994000Y17891100D01*
%TO.N,GPS_SEL*%
X24132000Y39387643D02*
X24132000Y40873000D01*
X10125000Y11130000D02*
X24100000Y11130000D01*
X25702000Y29282200D02*
X25549000Y29435200D01*
X27796000Y17551000D02*
X27796000Y24334000D01*
X24132000Y40873000D02*
X23353316Y41651684D01*
X24138000Y36791700D02*
X24138000Y39381643D01*
X26375000Y15055000D02*
X26375000Y16030000D01*
X27796000Y24334000D02*
X25380000Y26750000D01*
X24138000Y39381643D02*
X24132000Y39387643D01*
X25549000Y35380700D02*
X24138000Y36791700D01*
X26325000Y16080000D02*
X27796000Y17551000D01*
X25380000Y27650000D02*
X25702000Y27972000D01*
X24100000Y11130000D02*
X25750000Y12780000D01*
X23353316Y46358316D02*
X24125000Y47130000D01*
X25750000Y12780000D02*
X25750000Y14430000D01*
X23353316Y41651684D02*
X23353316Y46358316D01*
X24125000Y47130000D02*
X26375000Y47130000D01*
X26375000Y16030000D02*
X26325000Y16080000D01*
X25702000Y27972000D02*
X25702000Y29282200D01*
X25380000Y26750000D02*
X25380000Y27650000D01*
X25750000Y14430000D02*
X26375000Y15055000D01*
X25549000Y29435200D02*
X25549000Y35380700D01*
%TO.N,Net-(J4-Pin_3)*%
X25269000Y56261000D02*
X26500000Y55030000D01*
X3637450Y33677450D02*
X4472450Y33677450D01*
X11953900Y56261000D02*
X25269000Y56261000D01*
X4472450Y33677450D02*
X6002000Y35207000D01*
X3195000Y33235000D02*
X3637450Y33677450D01*
X9703000Y36747800D02*
X9703000Y40204550D01*
X1940000Y33235000D02*
X3195000Y33235000D01*
X8162200Y35207000D02*
X9703000Y36747800D01*
X26500000Y55030000D02*
X26500000Y53510000D01*
X10480000Y54787100D02*
X11953900Y56261000D01*
X10480000Y40981550D02*
X10480000Y54787100D01*
X6002000Y35207000D02*
X8162200Y35207000D01*
X9703000Y40204550D02*
X10480000Y40981550D01*
%TO.N,GPS_RX*%
X22806000Y27615657D02*
X22805000Y27616657D01*
X23029535Y14784535D02*
X23173827Y14928827D01*
X23375000Y25245000D02*
X23375000Y26674900D01*
X23173827Y16095461D02*
X23760784Y16682418D01*
X21732000Y38385043D02*
X21726000Y38391043D01*
X20226000Y45104000D02*
X18250000Y47080000D01*
X20947316Y40655084D02*
X20947316Y40665584D01*
X20226000Y41386900D02*
X20226000Y42004000D01*
X20213735Y42800705D02*
X20226000Y42812970D01*
X23173827Y14928827D02*
X23173827Y16095461D01*
X22584070Y13930000D02*
X23029535Y14375465D01*
X23029535Y14375465D02*
X23029535Y14784535D01*
X22806000Y27243900D02*
X22806000Y27615657D01*
X18250000Y47080000D02*
X13900000Y47080000D01*
X23143000Y34384100D02*
X21732000Y35795100D01*
X20213735Y42016265D02*
X20213735Y42800705D01*
X21726000Y39876400D02*
X20947316Y40655084D01*
X22805000Y27616657D02*
X22805000Y29443343D01*
X22805000Y29443343D02*
X23143000Y29781343D01*
X23375000Y26674900D02*
X22806000Y27243900D01*
X23968218Y16682418D02*
X25791000Y18505200D01*
X23760784Y16682418D02*
X23968218Y16682418D01*
X20947316Y40665584D02*
X20226000Y41386900D01*
X21732000Y35795100D02*
X21732000Y38385043D01*
X21726000Y38391043D02*
X21726000Y39876400D01*
X25791000Y22829000D02*
X23375000Y25245000D01*
X23143000Y29781343D02*
X23143000Y34384100D01*
X20226000Y42812970D02*
X20226000Y45104000D01*
X25791000Y18505200D02*
X25791000Y22829000D01*
X20226000Y42004000D02*
X20213735Y42016265D01*
%TO.N,ICM_AD0*%
X11787800Y56662000D02*
X25812000Y56662000D01*
X7996100Y35608000D02*
X9302000Y36913900D01*
X9302000Y36913900D02*
X9302000Y40370650D01*
X4103900Y35608000D02*
X7996100Y35608000D01*
X4082900Y35629000D02*
X4103900Y35608000D01*
X10079000Y54953200D02*
X11787800Y56662000D01*
X10079000Y41147650D02*
X10079000Y54953200D01*
X3725470Y35629000D02*
X4082900Y35629000D01*
X3525735Y35429265D02*
X3725470Y35629000D01*
X9302000Y40370650D02*
X10079000Y41147650D01*
X25812000Y56662000D02*
X26440000Y57290000D01*
X26440000Y57290000D02*
X26440000Y57310000D01*
%TO.N,Net-(J4-Pin_2)*%
X10881000Y40815450D02*
X10881000Y54621000D01*
X10104000Y36581700D02*
X10104000Y40038450D01*
X2774000Y32834000D02*
X3361100Y32834000D01*
X1940000Y32000000D02*
X2774000Y32834000D01*
X12120000Y55860000D02*
X24530000Y55860000D01*
X24530000Y55860000D02*
X25560000Y54830000D01*
X4875000Y33276450D02*
X6404550Y34806000D01*
X10104000Y40038450D02*
X10881000Y40815450D01*
X8328300Y34806000D02*
X10104000Y36581700D01*
X3803550Y33276450D02*
X4875000Y33276450D01*
X3361100Y32834000D02*
X3803550Y33276450D01*
X10881000Y54621000D02*
X12120000Y55860000D01*
X6404550Y34806000D02*
X8328300Y34806000D01*
X1940000Y31965000D02*
X1940000Y32000000D01*
%TO.N,GPS_FIX*%
X27997000Y38733000D02*
X28196000Y38534000D01*
X27395000Y31696242D02*
X27395000Y28300000D01*
X28197000Y15902000D02*
X26475000Y14180000D01*
X26899000Y26954057D02*
X28197000Y25656057D01*
X28196000Y38534000D02*
X28196000Y32497242D01*
X26899000Y27804000D02*
X26899000Y26954057D01*
X28197000Y25656057D02*
X28197000Y15902000D01*
X27997000Y38855000D02*
X27997000Y38733000D01*
X27395000Y28300000D02*
X26899000Y27804000D01*
X28196000Y32497242D02*
X27395000Y31696242D01*
%TO.N,Net-(U1-PD2_IN)*%
X14310000Y25530000D02*
X13000000Y25530000D01*
X13000000Y27910000D02*
X13000000Y25530000D01*
X15690000Y27910000D02*
X14310000Y27910000D01*
X17150000Y27255000D02*
X18025000Y27255000D01*
X17000000Y27405000D02*
X17150000Y27255000D01*
X17000000Y27910000D02*
X15690000Y27910000D01*
X17000000Y27910000D02*
X17000000Y27405000D01*
X15690000Y25530000D02*
X14310000Y25530000D01*
X14310000Y27910000D02*
X13000000Y27910000D01*
%TO.N,Net-(D2-RK)*%
X13620579Y30961000D02*
X13819579Y31160000D01*
X13819579Y31160000D02*
X14300000Y31160000D01*
%TO.N,Net-(D1-K)*%
X13475000Y23530000D02*
X13495000Y23510000D01*
X14225000Y23510000D02*
X14290000Y23445000D01*
X13495000Y23510000D02*
X14225000Y23510000D01*
%TO.N,Net-(IC1-VCC)*%
X4834466Y20425477D02*
X6911000Y18348943D01*
X6911000Y17001000D02*
X6890000Y16980000D01*
X6911000Y18348943D02*
X6911000Y17001000D01*
X4544523Y20425477D02*
X4834466Y20425477D01*
X3220000Y21750000D02*
X4544523Y20425477D01*
%TO.N,Net-(U1-PD1_IN)*%
X15690000Y20470000D02*
X14310000Y20470000D01*
X15690000Y18090000D02*
X14310000Y18090000D01*
X17000000Y20470000D02*
X15690000Y20470000D01*
X14310000Y20470000D02*
X13000000Y20470000D01*
X13000000Y20470000D02*
X13000000Y18090000D01*
X16150000Y21480000D02*
X15690000Y21020000D01*
X14310000Y18090000D02*
X13000000Y18090000D01*
X16200000Y21480000D02*
X16150000Y21480000D01*
X15690000Y21020000D02*
X15690000Y20470000D01*
%TO.N,FLASH_SID0*%
X24175827Y15680418D02*
X24175827Y15755827D01*
X22534000Y38717243D02*
X22528000Y38723243D01*
X24177000Y25577200D02*
X24177000Y27007100D01*
X24177000Y27007100D02*
X23608000Y27576100D01*
X23607000Y29111143D02*
X23945000Y29449143D01*
X23945000Y29449143D02*
X23945000Y34716300D01*
X22528000Y38723243D02*
X22528000Y40208600D01*
X23608000Y27947857D02*
X23607000Y27948857D01*
X26593000Y23161200D02*
X24177000Y25577200D01*
X23607000Y27948857D02*
X23607000Y29111143D01*
X22534000Y36127300D02*
X22534000Y38717243D01*
X21190735Y42300735D02*
X21215735Y42325735D01*
X26593000Y18173000D02*
X26593000Y23161200D01*
X23945000Y34716300D02*
X22534000Y36127300D01*
X22528000Y40208600D02*
X21749316Y40987284D01*
X21749316Y40987284D02*
X21749316Y41005684D01*
X24175827Y15755827D02*
X26593000Y18173000D01*
X21749316Y41005684D02*
X21190735Y41564265D01*
X21190735Y41564265D02*
X21190735Y42300735D01*
X23608000Y27576100D02*
X23608000Y27947857D01*
%TO.N,FLASH_SID3*%
X24747000Y35048500D02*
X24747000Y29116943D01*
X24409000Y28281057D02*
X24410000Y28280057D01*
X27395000Y17725000D02*
X25775000Y16105000D01*
X22352316Y43522243D02*
X22551316Y43323243D01*
X24410000Y28280057D02*
X24410000Y27908300D01*
X24979000Y26583900D02*
X27395000Y24167900D01*
X22551316Y41319484D02*
X23330000Y40540800D01*
X27395000Y24167900D02*
X27395000Y17725000D01*
X22551316Y43323243D02*
X22551316Y41319484D01*
X23336000Y39049443D02*
X23336000Y36459500D01*
X23330000Y40540800D02*
X23330000Y39055443D01*
X23336000Y36459500D02*
X24747000Y35048500D01*
X24979000Y27339300D02*
X24979000Y26583900D01*
X25775000Y16105000D02*
X25775000Y15632821D01*
X24747000Y29116943D02*
X24409000Y28778943D01*
X23330000Y39055443D02*
X23336000Y39049443D01*
X24409000Y28778943D02*
X24409000Y28281057D01*
X24410000Y27908300D02*
X24979000Y27339300D01*
%TO.N,FLASH_CS*%
X28197000Y26904000D02*
X28197000Y31364042D01*
X24738000Y39343000D02*
X24738000Y38180000D01*
X28197000Y31364042D02*
X28998000Y32165042D01*
X28998000Y32165042D02*
X28998000Y39324100D01*
X27998000Y26705000D02*
X28197000Y26904000D01*
X28391100Y39931000D02*
X25326000Y39931000D01*
X28998000Y39324100D02*
X28391100Y39931000D01*
X25326000Y39931000D02*
X24738000Y39343000D01*
%TO.N,FLASH_SID1*%
X27525000Y27452685D02*
X27500000Y27427685D01*
X27796000Y27726000D02*
X27525000Y27455000D01*
X27796000Y31530142D02*
X27796000Y27726000D01*
X27525000Y27455000D02*
X27525000Y27452685D01*
X28225000Y39530000D02*
X28597000Y39158000D01*
X25550000Y39255000D02*
X25825000Y39530000D01*
X25550000Y38755000D02*
X25550000Y39255000D01*
X25825000Y39530000D02*
X28225000Y39530000D01*
X28597000Y32331142D02*
X27796000Y31530142D01*
X28597000Y39158000D02*
X28597000Y32331142D01*
%TO.N,FLASH_SID2*%
X26103000Y29448300D02*
X25950000Y29601300D01*
X25950000Y37730000D02*
X27050000Y38830000D01*
X26103000Y27176006D02*
X26103000Y29448300D01*
X25996994Y27070000D02*
X26103000Y27176006D01*
X25950000Y29601300D02*
X25950000Y37730000D01*
D25*
%TO.N,+3.3V_LED*%
X16190000Y31160000D02*
X15600000Y31160000D01*
X16486765Y30955000D02*
X16395000Y30955000D01*
D27*
X14290000Y22555000D02*
X14895000Y22555000D01*
X14895000Y22555000D02*
X15340000Y23000000D01*
D25*
X15650000Y16305000D02*
X16350000Y16305000D01*
D27*
X14290000Y22555000D02*
X13425000Y22555000D01*
X13425000Y22555000D02*
X13400000Y22580000D01*
D25*
X16350000Y16305000D02*
X16375000Y16330000D01*
X16395000Y30955000D02*
X16190000Y31160000D01*
D26*
%TO.N,Net-(D2-GK)*%
X15200000Y17180000D02*
X15000000Y16980000D01*
X15600000Y17180000D02*
X15200000Y17180000D01*
X16450000Y29730000D02*
X16450000Y29905000D01*
X15846000Y30509000D02*
X15163100Y30509000D01*
X14950000Y30722100D02*
X14950000Y31160000D01*
X15163100Y30509000D02*
X14950000Y30722100D01*
X16450000Y29905000D02*
X15846000Y30509000D01*
X15000000Y16980000D02*
X15000000Y16305000D01*
%TO.N,Net-(D2-BK)*%
X12619000Y30361000D02*
X14744000Y30361000D01*
X11768999Y31211001D02*
X12619000Y30361000D01*
X11749899Y31211001D02*
X11768999Y31211001D01*
X14950000Y30155000D02*
X14950000Y29710000D01*
X14744000Y30361000D02*
X14950000Y30155000D01*
%TO.N,Net-(D3-RK)*%
X5629000Y23919400D02*
X5629000Y25761443D01*
X5629000Y25761443D02*
X6937910Y27070353D01*
X6168400Y23380000D02*
X5629000Y23919400D01*
X6937910Y27070353D02*
X7138883Y27070353D01*
X8661027Y23380000D02*
X6168400Y23380000D01*
X13525000Y16280000D02*
X13550000Y16305000D01*
X10350000Y21691027D02*
X8661027Y23380000D01*
X13525000Y15980000D02*
X13525000Y16280000D01*
X13550000Y16305000D02*
X14350000Y16305000D01*
%TO.N,Net-(D3-BK)*%
X15025000Y13480000D02*
X15025000Y14830000D01*
X15025000Y14830000D02*
X15000000Y14855000D01*
%TO.N,GPIO1*%
X10400000Y29130000D02*
X11064975Y28465025D01*
X13303300Y34655000D02*
X11141565Y32493265D01*
X15350000Y34630000D02*
X16350000Y33630000D01*
D24*
X18575000Y31580000D02*
X18575000Y32878000D01*
D26*
X16350000Y33630000D02*
X17925000Y33630000D01*
X15350000Y34655000D02*
X15350000Y34630000D01*
X17925000Y33630000D02*
X18626000Y32929000D01*
X11064975Y28465025D02*
X11064975Y28452369D01*
D24*
X18575000Y32878000D02*
X18626000Y32929000D01*
D26*
X11141565Y32161065D02*
X10400000Y31419500D01*
X10400000Y31419500D02*
X10400000Y29130000D01*
X15350000Y34655000D02*
X13303300Y34655000D01*
X11141565Y32493265D02*
X11141565Y32161065D01*
%TD*%
%TA.AperFunction,Conductor*%
%TO.N,PD_GND*%
G36*
X13734754Y33164723D02*
G01*
X13801750Y33144893D01*
X13847390Y33091991D01*
X13857184Y33022811D01*
X13835105Y32970550D01*
X13835449Y32970351D01*
X13833856Y32967592D01*
X13832862Y32965239D01*
X13831389Y32963321D01*
X13765493Y32849187D01*
X13745392Y32774167D01*
X13731385Y32721891D01*
X13731385Y32590107D01*
X13738221Y32564594D01*
X13765493Y32462812D01*
X13770136Y32454771D01*
X13831385Y32348685D01*
X13924571Y32255499D01*
X14038699Y32189607D01*
X14165993Y32155499D01*
X14165995Y32155499D01*
X14297775Y32155499D01*
X14297777Y32155499D01*
X14425071Y32189607D01*
X14539199Y32255499D01*
X14632385Y32348685D01*
X14698277Y32462813D01*
X14732385Y32590107D01*
X14732385Y32721891D01*
X14698277Y32849185D01*
X14632385Y32963313D01*
X14632383Y32963315D01*
X14628321Y32970351D01*
X14629490Y32971026D01*
X14607366Y33028254D01*
X14621404Y33096699D01*
X14670218Y33146688D01*
X14731200Y33162571D01*
X15781972Y33160301D01*
X15848967Y33140471D01*
X15894607Y33087569D01*
X15904401Y33018389D01*
X15889090Y32974302D01*
X15878104Y32955275D01*
X15843996Y32827979D01*
X15843996Y32696196D01*
X15878104Y32568900D01*
X15901273Y32528771D01*
X15943996Y32454773D01*
X16037182Y32361587D01*
X16113659Y32317433D01*
X16143517Y32300194D01*
X16151310Y32295695D01*
X16278604Y32261587D01*
X16278606Y32261587D01*
X16410386Y32261587D01*
X16410388Y32261587D01*
X16537682Y32295695D01*
X16651810Y32361587D01*
X16744996Y32454773D01*
X16810888Y32568901D01*
X16844996Y32696195D01*
X16844996Y32827979D01*
X16810888Y32955273D01*
X16808291Y32959771D01*
X16801308Y32971867D01*
X16784835Y33039767D01*
X16807687Y33105794D01*
X16862609Y33148985D01*
X16908955Y33157866D01*
X17923261Y33155675D01*
X17990257Y33135845D01*
X18010673Y33119356D01*
X18268181Y32861848D01*
X18301666Y32800525D01*
X18304500Y32774167D01*
X18304500Y32031500D01*
X18284815Y31964461D01*
X18232011Y31918706D01*
X18180500Y31907500D01*
X18131884Y31907500D01*
X18076354Y31892621D01*
X18048589Y31885181D01*
X17973911Y31842066D01*
X17973908Y31842064D01*
X17912936Y31781092D01*
X17912934Y31781089D01*
X17869819Y31706411D01*
X17865873Y31691683D01*
X17847500Y31623116D01*
X17847500Y31536884D01*
X17869819Y31453590D01*
X17884944Y31427392D01*
X17887887Y31422296D01*
X17900311Y31392253D01*
X17904500Y31376548D01*
X17904500Y31346589D01*
X17923807Y31299979D01*
X17926941Y31292412D01*
X17926944Y31292402D01*
X17945678Y31247175D01*
X17945679Y31247173D01*
X17945681Y31247169D01*
X18240169Y30952681D01*
X18281347Y30935626D01*
X18281349Y30935624D01*
X18281350Y30935624D01*
X18339589Y30911500D01*
X18339590Y30911500D01*
X18793661Y30911500D01*
X18793663Y30911500D01*
X18851901Y30935624D01*
X18893083Y30952681D01*
X19202319Y31261917D01*
X19222028Y31309500D01*
X19243500Y31361337D01*
X19243500Y32564594D01*
X19263185Y32631633D01*
X19279814Y32652270D01*
X19742783Y33115239D01*
X19769825Y33130005D01*
X19795783Y33146607D01*
X19801787Y33147458D01*
X19804102Y33148721D01*
X19830717Y33151554D01*
X19946270Y33151305D01*
X20013265Y33131475D01*
X20058906Y33078572D01*
X20070000Y33027305D01*
X20070000Y30579500D01*
X20050315Y30512461D01*
X19997511Y30466706D01*
X19946000Y30455500D01*
X19859108Y30455500D01*
X19731812Y30421392D01*
X19617686Y30355500D01*
X19617683Y30355498D01*
X19524502Y30262317D01*
X19524500Y30262314D01*
X19458608Y30148188D01*
X19424500Y30020892D01*
X19424500Y29889109D01*
X19458608Y29761813D01*
X19462814Y29754529D01*
X19524500Y29647686D01*
X19617686Y29554500D01*
X19716521Y29497437D01*
X19724712Y29492708D01*
X19731814Y29488608D01*
X19859108Y29454500D01*
X19859110Y29454500D01*
X19946000Y29454500D01*
X20013039Y29434815D01*
X20058794Y29382011D01*
X20070000Y29330500D01*
X20070000Y13879500D01*
X20050315Y13812461D01*
X19997511Y13766706D01*
X19946000Y13755500D01*
X19834108Y13755500D01*
X19706812Y13721392D01*
X19592686Y13655500D01*
X19592683Y13655498D01*
X19499502Y13562317D01*
X19499500Y13562314D01*
X19433608Y13448188D01*
X19399500Y13320892D01*
X19399500Y13204500D01*
X19379815Y13137461D01*
X19327011Y13091706D01*
X19275500Y13080500D01*
X19234108Y13080500D01*
X19106812Y13046392D01*
X18992686Y12980500D01*
X18928504Y12916318D01*
X18867180Y12882834D01*
X18840823Y12880000D01*
X15432176Y12880000D01*
X15365137Y12899685D01*
X15319382Y12952489D01*
X15309438Y13021647D01*
X15338463Y13085203D01*
X15344495Y13091681D01*
X15344520Y13091706D01*
X15425500Y13172686D01*
X15491392Y13286814D01*
X15525500Y13414108D01*
X15525500Y13545892D01*
X15491392Y13673186D01*
X15425500Y13787314D01*
X15361818Y13850996D01*
X15347113Y13877927D01*
X15330523Y13903742D01*
X15329631Y13909945D01*
X15328334Y13912320D01*
X15325500Y13938677D01*
X15325500Y14180500D01*
X15345185Y14247539D01*
X15397989Y14293294D01*
X15449500Y14304500D01*
X15869750Y14304500D01*
X15869751Y14304501D01*
X15884568Y14307448D01*
X15928229Y14316132D01*
X15928229Y14316133D01*
X15928231Y14316133D01*
X15994552Y14360448D01*
X16038867Y14426769D01*
X16038867Y14426771D01*
X16038868Y14426771D01*
X16050499Y14485248D01*
X16050500Y14485250D01*
X16050500Y15224751D01*
X16050499Y15224753D01*
X16038868Y15283230D01*
X16038867Y15283231D01*
X15994552Y15349553D01*
X15928230Y15393868D01*
X15928229Y15393869D01*
X15869752Y15405500D01*
X15869748Y15405500D01*
X15430252Y15405500D01*
X15430249Y15405500D01*
X15359791Y15391485D01*
X15359537Y15392761D01*
X15339811Y15390642D01*
X15307353Y15385974D01*
X15304264Y15386822D01*
X15302977Y15386683D01*
X15300806Y15387770D01*
X15279483Y15393619D01*
X15219751Y15405500D01*
X15219748Y15405500D01*
X14780252Y15405500D01*
X14780249Y15405500D01*
X14709791Y15391485D01*
X14709537Y15392761D01*
X14689811Y15390642D01*
X14657353Y15385974D01*
X14654264Y15386822D01*
X14652977Y15386683D01*
X14650806Y15387770D01*
X14629483Y15393619D01*
X14569751Y15405500D01*
X14569748Y15405500D01*
X14130252Y15405500D01*
X14130247Y15405500D01*
X14071770Y15393869D01*
X14071769Y15393868D01*
X14005447Y15349553D01*
X13961132Y15283231D01*
X13961131Y15283230D01*
X13949500Y15224753D01*
X13949500Y14485248D01*
X13961131Y14426771D01*
X13961132Y14426770D01*
X14005447Y14360448D01*
X14071769Y14316133D01*
X14071770Y14316132D01*
X14130247Y14304501D01*
X14130250Y14304500D01*
X14130252Y14304500D01*
X14569749Y14304500D01*
X14573730Y14305293D01*
X14576303Y14305804D01*
X14597289Y14303928D01*
X14618147Y14306926D01*
X14631392Y14300878D01*
X14645895Y14299580D01*
X14662535Y14286655D01*
X14681703Y14277901D01*
X14689575Y14265652D01*
X14701074Y14256720D01*
X14708085Y14236850D01*
X14719477Y14219123D01*
X14723010Y14194549D01*
X14724322Y14190831D01*
X14724500Y14184188D01*
X14724500Y13938677D01*
X14704815Y13871638D01*
X14688182Y13850996D01*
X14624500Y13787314D01*
X14558608Y13673188D01*
X14524500Y13545892D01*
X14524500Y13414109D01*
X14558608Y13286813D01*
X14591554Y13229750D01*
X14624500Y13172686D01*
X14624502Y13172684D01*
X14705505Y13091681D01*
X14738990Y13030358D01*
X14734006Y12960666D01*
X14692134Y12904733D01*
X14626670Y12880316D01*
X14617824Y12880000D01*
X10288146Y12880000D01*
X10221107Y12899685D01*
X10175352Y12952489D01*
X10164146Y13004303D01*
X10183083Y20764753D01*
X12529500Y20764753D01*
X12529500Y20175248D01*
X12541131Y20116771D01*
X12541132Y20116770D01*
X12585447Y20050448D01*
X12644391Y20011063D01*
X12689196Y19957451D01*
X12699500Y19907961D01*
X12699500Y18652040D01*
X12679815Y18585001D01*
X12644392Y18548939D01*
X12585448Y18509554D01*
X12541132Y18443231D01*
X12541131Y18443230D01*
X12529500Y18384753D01*
X12529500Y17795248D01*
X12541131Y17736771D01*
X12541132Y17736770D01*
X12585447Y17670448D01*
X12651769Y17626133D01*
X12651770Y17626132D01*
X12710247Y17614501D01*
X12710250Y17614500D01*
X12710252Y17614500D01*
X13289750Y17614500D01*
X13289751Y17614501D01*
X13304568Y17617448D01*
X13348229Y17626132D01*
X13348229Y17626133D01*
X13348231Y17626133D01*
X13414552Y17670448D01*
X13457278Y17734392D01*
X13463369Y17739482D01*
X13466667Y17746703D01*
X13489794Y17761567D01*
X13510890Y17779196D01*
X13520264Y17781148D01*
X13525445Y17784477D01*
X13560380Y17789500D01*
X13749620Y17789500D01*
X13816659Y17769815D01*
X13852722Y17734391D01*
X13895447Y17670448D01*
X13961769Y17626133D01*
X13961770Y17626132D01*
X14020247Y17614501D01*
X14020250Y17614500D01*
X14020252Y17614500D01*
X14599750Y17614500D01*
X14599751Y17614501D01*
X14614568Y17617448D01*
X14658229Y17626132D01*
X14658229Y17626133D01*
X14658231Y17626133D01*
X14724552Y17670448D01*
X14767278Y17734392D01*
X14820890Y17779196D01*
X14870380Y17789500D01*
X15129620Y17789500D01*
X15137237Y17787264D01*
X15145075Y17788533D01*
X15170285Y17777560D01*
X15196659Y17769815D01*
X15203489Y17763106D01*
X15209138Y17760647D01*
X15232723Y17734390D01*
X15261843Y17690808D01*
X15282720Y17624130D01*
X15264235Y17556750D01*
X15246424Y17534239D01*
X15227341Y17515155D01*
X15168216Y17482869D01*
X15168288Y17482603D01*
X15167192Y17482310D01*
X15166018Y17481668D01*
X15162529Y17481061D01*
X15084010Y17460022D01*
X15015489Y17420460D01*
X15015486Y17420458D01*
X14759541Y17164513D01*
X14759535Y17164505D01*
X14719982Y17095996D01*
X14719979Y17095991D01*
X14699500Y17019561D01*
X14699500Y16979500D01*
X14679815Y16912461D01*
X14627011Y16866706D01*
X14575500Y16855500D01*
X14130247Y16855500D01*
X14071770Y16843869D01*
X14071769Y16843868D01*
X14005447Y16799553D01*
X13961132Y16733231D01*
X13961132Y16733230D01*
X13955578Y16705308D01*
X13923193Y16643397D01*
X13862477Y16608823D01*
X13833961Y16605500D01*
X13510438Y16605500D01*
X13459486Y16591848D01*
X13434010Y16585021D01*
X13390712Y16560022D01*
X13390710Y16560021D01*
X13365490Y16545461D01*
X13365487Y16545459D01*
X13284542Y16464514D01*
X13284538Y16464508D01*
X13261822Y16425164D01*
X13223252Y16386592D01*
X13224131Y16385446D01*
X13217689Y16380504D01*
X13124500Y16287314D01*
X13058608Y16173188D01*
X13024500Y16045892D01*
X13024500Y15914109D01*
X13058608Y15786813D01*
X13077630Y15753867D01*
X13124500Y15672686D01*
X13217686Y15579500D01*
X13331814Y15513608D01*
X13459108Y15479500D01*
X13459110Y15479500D01*
X13590890Y15479500D01*
X13590892Y15479500D01*
X13718186Y15513608D01*
X13832314Y15579500D01*
X13925500Y15672686D01*
X13944532Y15705652D01*
X13995097Y15753867D01*
X14063704Y15767091D01*
X14076111Y15765269D01*
X14130249Y15754500D01*
X14130252Y15754500D01*
X14569750Y15754500D01*
X14569751Y15754501D01*
X14584485Y15757432D01*
X14640210Y15768515D01*
X14640464Y15767238D01*
X14660166Y15769357D01*
X14692647Y15774027D01*
X14694731Y15773076D01*
X14697009Y15773320D01*
X14720899Y15766306D01*
X14780247Y15754501D01*
X14780250Y15754500D01*
X14780252Y15754500D01*
X15219750Y15754500D01*
X15219751Y15754501D01*
X15234485Y15757432D01*
X15290210Y15768515D01*
X15290464Y15767238D01*
X15310166Y15769357D01*
X15342647Y15774027D01*
X15344731Y15773076D01*
X15347009Y15773320D01*
X15370899Y15766306D01*
X15430247Y15754501D01*
X15430250Y15754500D01*
X15430252Y15754500D01*
X15869750Y15754500D01*
X15869751Y15754501D01*
X15884568Y15757448D01*
X15928229Y15766132D01*
X15928229Y15766133D01*
X15928231Y15766133D01*
X15994552Y15810448D01*
X15994553Y15810449D01*
X16002286Y15818181D01*
X16029213Y15832885D01*
X16055032Y15849477D01*
X16061232Y15850369D01*
X16063609Y15851666D01*
X16089967Y15854500D01*
X16199481Y15854500D01*
X16231574Y15850275D01*
X16309108Y15829500D01*
X16309110Y15829500D01*
X16440890Y15829500D01*
X16440892Y15829500D01*
X16568186Y15863608D01*
X16682314Y15929500D01*
X16775500Y16022686D01*
X16841392Y16136814D01*
X16875500Y16264108D01*
X16875500Y16395892D01*
X16841392Y16523186D01*
X16775500Y16637314D01*
X16682314Y16730500D01*
X16584776Y16786814D01*
X16568187Y16796392D01*
X16504539Y16813446D01*
X16440892Y16830500D01*
X16309108Y16830500D01*
X16309106Y16830500D01*
X16204368Y16802436D01*
X16134519Y16804099D01*
X16076656Y16843262D01*
X16049153Y16907491D01*
X16060740Y16976393D01*
X16064893Y16984217D01*
X16066390Y16986811D01*
X16066392Y16986814D01*
X16100500Y17114108D01*
X16100500Y17245892D01*
X16066392Y17373186D01*
X16011236Y17468718D01*
X16010071Y17473522D01*
X16006767Y17477200D01*
X16001916Y17507136D01*
X15994764Y17536616D01*
X15996381Y17541291D01*
X15995591Y17546170D01*
X16007695Y17573980D01*
X16017616Y17602643D01*
X16022041Y17606940D01*
X16023476Y17610234D01*
X16049730Y17633818D01*
X16090891Y17661321D01*
X16157569Y17682198D01*
X16224949Y17663714D01*
X16271639Y17611735D01*
X16275963Y17601553D01*
X16286644Y17572916D01*
X16286649Y17572907D01*
X16372809Y17457813D01*
X16372812Y17457810D01*
X16487906Y17371650D01*
X16487913Y17371646D01*
X16622620Y17321404D01*
X16622627Y17321402D01*
X16682155Y17315001D01*
X16682172Y17315000D01*
X16750000Y17315000D01*
X17250000Y17315000D01*
X17317828Y17315000D01*
X17317844Y17315001D01*
X17377372Y17321402D01*
X17377379Y17321404D01*
X17512086Y17371646D01*
X17512093Y17371650D01*
X17627187Y17457810D01*
X17627190Y17457813D01*
X17713350Y17572907D01*
X17713354Y17572914D01*
X17763596Y17707621D01*
X17763598Y17707628D01*
X17769999Y17767156D01*
X17770000Y17767173D01*
X17770000Y17840000D01*
X17250000Y17840000D01*
X17250000Y17315000D01*
X16750000Y17315000D01*
X16750000Y18340000D01*
X17250000Y18340000D01*
X17770000Y18340000D01*
X17770000Y18412828D01*
X17769999Y18412845D01*
X17763598Y18472373D01*
X17763596Y18472380D01*
X17713354Y18607087D01*
X17713350Y18607094D01*
X17627190Y18722188D01*
X17627187Y18722191D01*
X17512093Y18808351D01*
X17512086Y18808355D01*
X17377379Y18858597D01*
X17377372Y18858599D01*
X17317844Y18865000D01*
X17250000Y18865000D01*
X17250000Y18340000D01*
X16750000Y18340000D01*
X16750000Y18865000D01*
X16682155Y18865000D01*
X16622627Y18858599D01*
X16622620Y18858597D01*
X16487913Y18808355D01*
X16487906Y18808351D01*
X16372812Y18722191D01*
X16372809Y18722188D01*
X16286649Y18607094D01*
X16286645Y18607086D01*
X16275963Y18578447D01*
X16234091Y18522515D01*
X16168626Y18498099D01*
X16100353Y18512952D01*
X16090891Y18518681D01*
X16038230Y18553868D01*
X16038229Y18553869D01*
X15979752Y18565500D01*
X15979748Y18565500D01*
X15400252Y18565500D01*
X15400247Y18565500D01*
X15341770Y18553869D01*
X15341769Y18553868D01*
X15275447Y18509553D01*
X15232722Y18445609D01*
X15179110Y18400804D01*
X15129620Y18390500D01*
X14870380Y18390500D01*
X14803341Y18410185D01*
X14767278Y18445609D01*
X14724552Y18509553D01*
X14658230Y18553868D01*
X14658229Y18553869D01*
X14599752Y18565500D01*
X14599748Y18565500D01*
X14020252Y18565500D01*
X14020247Y18565500D01*
X13961770Y18553869D01*
X13961769Y18553868D01*
X13895447Y18509553D01*
X13852722Y18445609D01*
X13846630Y18440519D01*
X13843333Y18433297D01*
X13820205Y18418434D01*
X13799110Y18400804D01*
X13789735Y18398853D01*
X13784555Y18395523D01*
X13749620Y18390500D01*
X13560380Y18390500D01*
X13493341Y18410185D01*
X13457278Y18445609D01*
X13414551Y18509554D01*
X13355608Y18548939D01*
X13310804Y18602551D01*
X13300500Y18652040D01*
X13300500Y19907961D01*
X13320185Y19975000D01*
X13336288Y19995109D01*
X13346921Y20005873D01*
X13348231Y20006133D01*
X13414552Y20050448D01*
X13458867Y20116769D01*
X13459468Y20119794D01*
X13472168Y20132648D01*
X13492796Y20144076D01*
X13510890Y20159196D01*
X13525636Y20162267D01*
X13533287Y20166504D01*
X13542953Y20165872D01*
X13560380Y20169500D01*
X13749620Y20169500D01*
X13816659Y20149815D01*
X13852722Y20114391D01*
X13895447Y20050448D01*
X13961769Y20006133D01*
X13961770Y20006132D01*
X14020247Y19994501D01*
X14020250Y19994500D01*
X14020252Y19994500D01*
X14599750Y19994500D01*
X14599751Y19994501D01*
X14614568Y19997448D01*
X14658229Y20006132D01*
X14658229Y20006133D01*
X14658231Y20006133D01*
X14724552Y20050448D01*
X14767278Y20114392D01*
X14820890Y20159196D01*
X14870380Y20169500D01*
X15129620Y20169500D01*
X15196659Y20149815D01*
X15232722Y20114391D01*
X15275447Y20050448D01*
X15341769Y20006133D01*
X15341770Y20006132D01*
X15400247Y19994501D01*
X15400250Y19994500D01*
X15400252Y19994500D01*
X15979750Y19994500D01*
X15979751Y19994501D01*
X15994568Y19997448D01*
X16038229Y20006132D01*
X16038229Y20006133D01*
X16038231Y20006133D01*
X16104552Y20050448D01*
X16147278Y20114392D01*
X16153369Y20119482D01*
X16156667Y20126703D01*
X16179794Y20141567D01*
X16200890Y20159196D01*
X16210264Y20161148D01*
X16215445Y20164477D01*
X16250380Y20169500D01*
X16439620Y20169500D01*
X16506659Y20149815D01*
X16542722Y20114391D01*
X16585447Y20050448D01*
X16651769Y20006133D01*
X16651770Y20006132D01*
X16710247Y19994501D01*
X16710250Y19994500D01*
X16710252Y19994500D01*
X17289750Y19994500D01*
X17289751Y19994501D01*
X17304568Y19997448D01*
X17348229Y20006132D01*
X17348229Y20006133D01*
X17348231Y20006133D01*
X17414552Y20050448D01*
X17458867Y20116769D01*
X17458867Y20116771D01*
X17458868Y20116771D01*
X17470499Y20175248D01*
X17470500Y20175250D01*
X17470500Y20764751D01*
X17470499Y20764753D01*
X17458868Y20823230D01*
X17458867Y20823231D01*
X17414552Y20889553D01*
X17348230Y20933868D01*
X17348229Y20933869D01*
X17289752Y20945500D01*
X17289748Y20945500D01*
X16710252Y20945500D01*
X16710251Y20945500D01*
X16690567Y20941585D01*
X16620975Y20947814D01*
X16565799Y20990678D01*
X16542556Y21056568D01*
X16558625Y21124565D01*
X16578691Y21150878D01*
X16600500Y21172686D01*
X16666392Y21286814D01*
X16700500Y21414108D01*
X16700500Y21545892D01*
X16666392Y21673186D01*
X16600500Y21787314D01*
X16507314Y21880500D01*
X16450250Y21913446D01*
X16393187Y21946392D01*
X16329539Y21963446D01*
X16265892Y21980500D01*
X16241348Y21980500D01*
X16174309Y22000185D01*
X16128554Y22052989D01*
X16118610Y22122147D01*
X16138247Y22173392D01*
X16153867Y22196769D01*
X16153868Y22196771D01*
X16165350Y22254500D01*
X16165500Y22255252D01*
X16165500Y23045892D01*
X18049500Y23045892D01*
X18049500Y22914108D01*
X18066554Y22850461D01*
X18083608Y22786813D01*
X18091475Y22773188D01*
X18149500Y22672686D01*
X18242686Y22579500D01*
X18356814Y22513608D01*
X18484108Y22479500D01*
X18484110Y22479500D01*
X18615890Y22479500D01*
X18615892Y22479500D01*
X18743186Y22513608D01*
X18857314Y22579500D01*
X18950500Y22672686D01*
X19016392Y22786814D01*
X19050500Y22914108D01*
X19050500Y23045892D01*
X19016392Y23173186D01*
X18950500Y23287314D01*
X18857314Y23380500D01*
X18800250Y23413446D01*
X18743187Y23446392D01*
X18677065Y23464109D01*
X18615892Y23480500D01*
X18484108Y23480500D01*
X18356812Y23446392D01*
X18242686Y23380500D01*
X18242683Y23380498D01*
X18149502Y23287317D01*
X18149500Y23287314D01*
X18083608Y23173188D01*
X18054774Y23065576D01*
X18049500Y23045892D01*
X16165500Y23045892D01*
X16165500Y23744748D01*
X16165500Y23744751D01*
X16165499Y23744753D01*
X16153868Y23803230D01*
X16153867Y23803231D01*
X16109552Y23869553D01*
X16043230Y23913868D01*
X16043229Y23913869D01*
X15984752Y23925500D01*
X15984748Y23925500D01*
X14695252Y23925500D01*
X14695249Y23925500D01*
X14636768Y23913868D01*
X14631412Y23911649D01*
X14561942Y23904183D01*
X14551775Y23907169D01*
X14484752Y23920500D01*
X14484748Y23920500D01*
X14095252Y23920500D01*
X14095247Y23920500D01*
X14036770Y23908869D01*
X14036769Y23908868D01*
X13981816Y23872149D01*
X13915138Y23851271D01*
X13847758Y23869756D01*
X13825244Y23887570D01*
X13782316Y23930498D01*
X13782314Y23930500D01*
X13725250Y23963446D01*
X13668187Y23996392D01*
X13604539Y24013446D01*
X13540892Y24030500D01*
X13409108Y24030500D01*
X13281812Y23996392D01*
X13167686Y23930500D01*
X13167683Y23930498D01*
X13074502Y23837317D01*
X13074500Y23837314D01*
X13008608Y23723188D01*
X12991683Y23660021D01*
X12974500Y23595892D01*
X12974500Y23464108D01*
X12981091Y23439511D01*
X13008608Y23336813D01*
X13033002Y23294562D01*
X13074500Y23222686D01*
X13074502Y23222684D01*
X13120428Y23176758D01*
X13153913Y23115435D01*
X13148929Y23045743D01*
X13107057Y22989810D01*
X13094754Y22981695D01*
X13092686Y22980500D01*
X13092683Y22980498D01*
X12999502Y22887317D01*
X12999500Y22887314D01*
X12933608Y22773188D01*
X12899500Y22645892D01*
X12899500Y22514109D01*
X12933608Y22386813D01*
X12956200Y22347684D01*
X12999500Y22272686D01*
X13024500Y22247686D01*
X13117686Y22154500D01*
X13173723Y22122147D01*
X13188513Y22113608D01*
X13188514Y22113607D01*
X13231808Y22088611D01*
X13231809Y22088611D01*
X13231814Y22088608D01*
X13359107Y22054500D01*
X13359108Y22054500D01*
X13359109Y22054500D01*
X14960890Y22054500D01*
X14960892Y22054500D01*
X15002622Y22065682D01*
X15019767Y22070275D01*
X15051859Y22074500D01*
X15787324Y22074500D01*
X15854363Y22054815D01*
X15900118Y22002011D01*
X15910062Y21932853D01*
X15881037Y21869297D01*
X15875005Y21862819D01*
X15799502Y21787317D01*
X15799500Y21787314D01*
X15733608Y21673188D01*
X15699500Y21545892D01*
X15699500Y21505833D01*
X15679815Y21438794D01*
X15663181Y21418152D01*
X15449541Y21204513D01*
X15449535Y21204505D01*
X15409982Y21135996D01*
X15409979Y21135991D01*
X15396326Y21085038D01*
X15394843Y21079500D01*
X15389500Y21059561D01*
X15389500Y21032040D01*
X15369815Y20965001D01*
X15353712Y20944893D01*
X15343075Y20934127D01*
X15341769Y20933867D01*
X15275448Y20889552D01*
X15231133Y20823231D01*
X15230531Y20820208D01*
X15217832Y20807353D01*
X15197205Y20795927D01*
X15179110Y20780804D01*
X15164362Y20777734D01*
X15156713Y20773496D01*
X15147046Y20774129D01*
X15129620Y20770500D01*
X14870380Y20770500D01*
X14803341Y20790185D01*
X14767278Y20825609D01*
X14724552Y20889553D01*
X14658230Y20933868D01*
X14658229Y20933869D01*
X14599752Y20945500D01*
X14599748Y20945500D01*
X14020252Y20945500D01*
X14020247Y20945500D01*
X13961770Y20933869D01*
X13961769Y20933868D01*
X13895447Y20889553D01*
X13852722Y20825609D01*
X13846630Y20820519D01*
X13843333Y20813297D01*
X13820205Y20798434D01*
X13799110Y20780804D01*
X13789735Y20778853D01*
X13784555Y20775523D01*
X13749620Y20770500D01*
X13560380Y20770500D01*
X13493341Y20790185D01*
X13457278Y20825609D01*
X13414552Y20889553D01*
X13348230Y20933868D01*
X13348229Y20933869D01*
X13289752Y20945500D01*
X13289748Y20945500D01*
X12710252Y20945500D01*
X12710247Y20945500D01*
X12651770Y20933869D01*
X12651769Y20933868D01*
X12585447Y20889553D01*
X12541132Y20823231D01*
X12541131Y20823230D01*
X12529500Y20764753D01*
X10183083Y20764753D01*
X10183820Y21066832D01*
X10203669Y21133821D01*
X10256584Y21179447D01*
X10307820Y21190527D01*
X10415890Y21190527D01*
X10415892Y21190527D01*
X10543186Y21224635D01*
X10657314Y21290527D01*
X10750500Y21383713D01*
X10816392Y21497841D01*
X10850500Y21625135D01*
X10850500Y21756919D01*
X10816392Y21884213D01*
X10750500Y21998341D01*
X10657314Y22091527D01*
X10548244Y22154499D01*
X10543187Y22157419D01*
X10479539Y22174473D01*
X10415892Y22191527D01*
X10325833Y22191527D01*
X10258794Y22211212D01*
X10238152Y22227846D01*
X8845540Y23620459D01*
X8845538Y23620460D01*
X8835960Y23625990D01*
X8835960Y23625991D01*
X8835958Y23625991D01*
X8777016Y23660021D01*
X8700589Y23680500D01*
X7274000Y23680500D01*
X7265314Y23683051D01*
X7256353Y23681762D01*
X7232312Y23692741D01*
X7206961Y23700185D01*
X7201033Y23707026D01*
X7192797Y23710787D01*
X7178507Y23733022D01*
X7161206Y23752989D01*
X7158918Y23763504D01*
X7155023Y23769565D01*
X7150000Y23804500D01*
X7150000Y23818624D01*
X10099503Y23818624D01*
X10099503Y23686840D01*
X10100864Y23681762D01*
X10133611Y23559545D01*
X10149051Y23532803D01*
X10199503Y23445418D01*
X10292689Y23352232D01*
X10406817Y23286340D01*
X10534111Y23252232D01*
X10534113Y23252232D01*
X10665893Y23252232D01*
X10665895Y23252232D01*
X10793189Y23286340D01*
X10907317Y23352232D01*
X11000503Y23445418D01*
X11066395Y23559546D01*
X11100503Y23686840D01*
X11100503Y23818624D01*
X11066395Y23945918D01*
X11066392Y23945923D01*
X11063283Y23953432D01*
X11065189Y23954222D01*
X11051320Y24011407D01*
X11074176Y24077433D01*
X11129100Y24120620D01*
X11175179Y24129500D01*
X11265893Y24129500D01*
X11265895Y24129500D01*
X11393189Y24163608D01*
X11507317Y24229500D01*
X11600503Y24322686D01*
X11666395Y24436814D01*
X11700503Y24564108D01*
X11700503Y24695892D01*
X11666395Y24823186D01*
X11600503Y24937314D01*
X11507317Y25030500D01*
X11445599Y25066133D01*
X11393190Y25096392D01*
X11329542Y25113446D01*
X11265895Y25130500D01*
X11134111Y25130500D01*
X11006815Y25096392D01*
X10892689Y25030500D01*
X10892686Y25030498D01*
X10799505Y24937317D01*
X10799503Y24937314D01*
X10733611Y24823188D01*
X10717056Y24761402D01*
X10699503Y24695892D01*
X10699503Y24564108D01*
X10732996Y24439108D01*
X10733612Y24436812D01*
X10736723Y24429300D01*
X10734816Y24428511D01*
X10748686Y24371325D01*
X10725830Y24305299D01*
X10670906Y24262112D01*
X10624827Y24253232D01*
X10534111Y24253232D01*
X10406815Y24219124D01*
X10292689Y24153232D01*
X10292686Y24153230D01*
X10199505Y24060049D01*
X10199503Y24060046D01*
X10133611Y23945920D01*
X10113149Y23869553D01*
X10099503Y23818624D01*
X7150000Y23818624D01*
X7150000Y25719584D01*
X7169685Y25786623D01*
X7211998Y25826970D01*
X7307314Y25882000D01*
X7400500Y25975186D01*
X7466392Y26089314D01*
X7500500Y26216608D01*
X7500500Y26348392D01*
X7466392Y26475686D01*
X7435504Y26529186D01*
X7419031Y26597086D01*
X7441883Y26663113D01*
X7455199Y26678856D01*
X7539383Y26763039D01*
X7605275Y26877167D01*
X7639383Y27004461D01*
X7639383Y27136245D01*
X7605275Y27263539D01*
X7539383Y27377667D01*
X7446197Y27470853D01*
X7376697Y27510979D01*
X7328481Y27561546D01*
X7315259Y27630153D01*
X7341227Y27695018D01*
X7351006Y27706037D01*
X8068460Y28423489D01*
X8089262Y28459520D01*
X8108021Y28492011D01*
X8128500Y28568438D01*
X8128500Y29238768D01*
X8148185Y29305807D01*
X8164814Y29326444D01*
X8404792Y29566422D01*
X8466111Y29599904D01*
X8492361Y29602737D01*
X9975410Y29603883D01*
X10042459Y29584251D01*
X10088255Y29531483D01*
X10099500Y29479884D01*
X10099500Y29090438D01*
X10105784Y29066987D01*
X10119978Y29014013D01*
X10139754Y28979760D01*
X10159539Y28945491D01*
X10159541Y28945488D01*
X10528156Y28576873D01*
X10561641Y28515550D01*
X10564475Y28489192D01*
X10564475Y28386477D01*
X10579728Y28329553D01*
X10598583Y28259182D01*
X10601981Y28253297D01*
X10651367Y28167758D01*
X10667840Y28099860D01*
X10644988Y28033833D01*
X10631662Y28018078D01*
X10577956Y27964372D01*
X10512064Y27850246D01*
X10477956Y27722950D01*
X10477956Y27591167D01*
X10512064Y27463871D01*
X10527787Y27436639D01*
X10577956Y27349744D01*
X10671142Y27256558D01*
X10785270Y27190666D01*
X10912564Y27156558D01*
X10912566Y27156558D01*
X11044346Y27156558D01*
X11044348Y27156558D01*
X11171642Y27190666D01*
X11285770Y27256558D01*
X11378956Y27349744D01*
X11444848Y27463872D01*
X11478956Y27591166D01*
X11478956Y27722950D01*
X11444848Y27850244D01*
X11394578Y27937314D01*
X11392064Y27941669D01*
X11375591Y28009569D01*
X11398443Y28075596D01*
X11411770Y28091350D01*
X11420280Y28099860D01*
X11465475Y28145055D01*
X11531367Y28259183D01*
X11565475Y28386477D01*
X11565475Y28518261D01*
X11531367Y28645555D01*
X11465475Y28759683D01*
X11372289Y28852869D01*
X11315225Y28885815D01*
X11258162Y28918761D01*
X11194514Y28935815D01*
X11130867Y28952869D01*
X11130866Y28952869D01*
X11053464Y28952869D01*
X10986425Y28972554D01*
X10965783Y28989188D01*
X10736819Y29218152D01*
X10703334Y29279475D01*
X10700500Y29305833D01*
X10700500Y31243667D01*
X10709144Y31273108D01*
X10709967Y31276893D01*
X11249399Y31276893D01*
X11249399Y31145110D01*
X11283507Y31017814D01*
X11316453Y30960751D01*
X11349399Y30903687D01*
X11442585Y30810501D01*
X11556713Y30744609D01*
X11684007Y30710501D01*
X11684009Y30710501D01*
X11793166Y30710501D01*
X11860205Y30690816D01*
X11880847Y30674182D01*
X12378540Y30176489D01*
X12434489Y30120540D01*
X12434491Y30120539D01*
X12434495Y30120536D01*
X12503004Y30080983D01*
X12503011Y30080979D01*
X12579438Y30060500D01*
X12658562Y30060500D01*
X13775500Y30060500D01*
X13842539Y30040815D01*
X13888294Y29988011D01*
X13899500Y29936500D01*
X13899500Y29340248D01*
X13911131Y29281771D01*
X13911132Y29281770D01*
X13955447Y29215448D01*
X13974999Y29202384D01*
X14021769Y29171133D01*
X14077307Y29160086D01*
X14139216Y29127702D01*
X14173791Y29066987D01*
X14170052Y28997217D01*
X14160506Y28976475D01*
X14158609Y28973190D01*
X14158609Y28973189D01*
X14158608Y28973187D01*
X14158608Y28973186D01*
X14124500Y28845892D01*
X14124500Y28714108D01*
X14138512Y28661813D01*
X14158609Y28586812D01*
X14158609Y28586811D01*
X14167449Y28571500D01*
X14183922Y28503600D01*
X14161070Y28437573D01*
X14106148Y28394382D01*
X14060062Y28385500D01*
X14020247Y28385500D01*
X13961770Y28373869D01*
X13961769Y28373868D01*
X13895447Y28329553D01*
X13852722Y28265609D01*
X13846630Y28260519D01*
X13843333Y28253297D01*
X13820205Y28238434D01*
X13799110Y28220804D01*
X13789735Y28218853D01*
X13784555Y28215523D01*
X13749620Y28210500D01*
X13560380Y28210500D01*
X13493341Y28230185D01*
X13457278Y28265609D01*
X13414552Y28329553D01*
X13348230Y28373868D01*
X13348229Y28373869D01*
X13289752Y28385500D01*
X13289748Y28385500D01*
X13221636Y28385500D01*
X13154597Y28405185D01*
X13108842Y28457989D01*
X13098898Y28527147D01*
X13114249Y28571500D01*
X13166392Y28661814D01*
X13200500Y28789108D01*
X13200500Y28920892D01*
X13166392Y29048186D01*
X13100500Y29162314D01*
X13007314Y29255500D01*
X12920135Y29305833D01*
X12893187Y29321392D01*
X12822799Y29340252D01*
X12765892Y29355500D01*
X12634108Y29355500D01*
X12506812Y29321392D01*
X12392686Y29255500D01*
X12392683Y29255498D01*
X12299502Y29162317D01*
X12299500Y29162314D01*
X12233608Y29048188D01*
X12199500Y28920892D01*
X12199500Y28789109D01*
X12233608Y28661813D01*
X12242994Y28645557D01*
X12299500Y28547686D01*
X12392686Y28454500D01*
X12478102Y28405185D01*
X12483014Y28402349D01*
X12531230Y28351782D01*
X12544453Y28283175D01*
X12542632Y28270773D01*
X12529500Y28204749D01*
X12529500Y27615248D01*
X12541131Y27556771D01*
X12541132Y27556770D01*
X12585447Y27490448D01*
X12644391Y27451063D01*
X12689196Y27397451D01*
X12699500Y27347961D01*
X12699500Y26092040D01*
X12679815Y26025001D01*
X12644392Y25988939D01*
X12585448Y25949554D01*
X12541132Y25883231D01*
X12541131Y25883230D01*
X12529500Y25824753D01*
X12529500Y25235248D01*
X12541131Y25176771D01*
X12541133Y25176767D01*
X12552378Y25159938D01*
X12573256Y25093261D01*
X12554771Y25025881D01*
X12502792Y24979191D01*
X12482804Y24971803D01*
X12481814Y24971393D01*
X12367686Y24905500D01*
X12367683Y24905498D01*
X12274502Y24812317D01*
X12274500Y24812314D01*
X12208608Y24698188D01*
X12174500Y24570892D01*
X12174500Y24439108D01*
X12191554Y24375461D01*
X12208608Y24311813D01*
X12241554Y24254750D01*
X12274500Y24197686D01*
X12367686Y24104500D01*
X12481814Y24038608D01*
X12609108Y24004500D01*
X12609110Y24004500D01*
X12740890Y24004500D01*
X12740892Y24004500D01*
X12868186Y24038608D01*
X12982314Y24104500D01*
X13075500Y24197686D01*
X13141392Y24311814D01*
X13175500Y24439108D01*
X13175500Y24570892D01*
X13141392Y24698186D01*
X13075500Y24812314D01*
X13044995Y24842819D01*
X13011510Y24904142D01*
X13016494Y24973834D01*
X13058366Y25029767D01*
X13123830Y25054184D01*
X13132676Y25054500D01*
X13289750Y25054500D01*
X13289751Y25054501D01*
X13304568Y25057448D01*
X13348229Y25066132D01*
X13348229Y25066133D01*
X13348231Y25066133D01*
X13414552Y25110448D01*
X13457278Y25174392D01*
X13463369Y25179482D01*
X13466667Y25186703D01*
X13489794Y25201567D01*
X13510890Y25219196D01*
X13520264Y25221148D01*
X13525445Y25224477D01*
X13560380Y25229500D01*
X13749620Y25229500D01*
X13816659Y25209815D01*
X13852722Y25174391D01*
X13895447Y25110448D01*
X13961769Y25066133D01*
X13961770Y25066132D01*
X14020247Y25054501D01*
X14020250Y25054500D01*
X14020252Y25054500D01*
X14599750Y25054500D01*
X14599751Y25054501D01*
X14614568Y25057448D01*
X14658229Y25066132D01*
X14658229Y25066133D01*
X14658231Y25066133D01*
X14724552Y25110448D01*
X14767278Y25174392D01*
X14820890Y25219196D01*
X14870380Y25229500D01*
X15129620Y25229500D01*
X15196659Y25209815D01*
X15232722Y25174391D01*
X15275447Y25110448D01*
X15341769Y25066133D01*
X15341770Y25066132D01*
X15400247Y25054501D01*
X15400250Y25054500D01*
X15400252Y25054500D01*
X15979750Y25054500D01*
X15979751Y25054501D01*
X15994568Y25057448D01*
X16038229Y25066132D01*
X16038231Y25066133D01*
X16090890Y25101319D01*
X16157567Y25122198D01*
X16224948Y25103714D01*
X16271638Y25051736D01*
X16275963Y25041553D01*
X16286644Y25012916D01*
X16286649Y25012907D01*
X16372809Y24897813D01*
X16372812Y24897810D01*
X16487906Y24811650D01*
X16487913Y24811646D01*
X16622620Y24761404D01*
X16622627Y24761402D01*
X16682155Y24755001D01*
X16682172Y24755000D01*
X16750000Y24755000D01*
X17250000Y24755000D01*
X17317828Y24755000D01*
X17317844Y24755001D01*
X17377372Y24761402D01*
X17377379Y24761404D01*
X17512086Y24811646D01*
X17512093Y24811650D01*
X17627187Y24897810D01*
X17627190Y24897813D01*
X17713350Y25012907D01*
X17713354Y25012914D01*
X17763596Y25147621D01*
X17763598Y25147628D01*
X17769999Y25207156D01*
X17770000Y25207173D01*
X17770000Y25280000D01*
X17250000Y25280000D01*
X17250000Y24755000D01*
X16750000Y24755000D01*
X16750000Y25780000D01*
X17250000Y25780000D01*
X17770000Y25780000D01*
X17770000Y25852828D01*
X17769999Y25852845D01*
X17763598Y25912373D01*
X17763596Y25912380D01*
X17713354Y26047087D01*
X17713350Y26047094D01*
X17627190Y26162188D01*
X17627187Y26162191D01*
X17512093Y26248351D01*
X17512086Y26248355D01*
X17377379Y26298597D01*
X17377372Y26298599D01*
X17317844Y26305000D01*
X17250000Y26305000D01*
X17250000Y25780000D01*
X16750000Y25780000D01*
X16750000Y26305000D01*
X16682155Y26305000D01*
X16622627Y26298599D01*
X16622620Y26298597D01*
X16487913Y26248355D01*
X16487906Y26248351D01*
X16372812Y26162191D01*
X16372809Y26162188D01*
X16286649Y26047094D01*
X16286645Y26047086D01*
X16275963Y26018447D01*
X16234091Y25962515D01*
X16168626Y25938099D01*
X16100353Y25952952D01*
X16090891Y25958681D01*
X16038230Y25993868D01*
X16038229Y25993869D01*
X15979752Y26005500D01*
X15979748Y26005500D01*
X15400252Y26005500D01*
X15400247Y26005500D01*
X15341770Y25993869D01*
X15341769Y25993868D01*
X15275447Y25949553D01*
X15232722Y25885609D01*
X15179110Y25840804D01*
X15129620Y25830500D01*
X14870380Y25830500D01*
X14803341Y25850185D01*
X14767278Y25885609D01*
X14724552Y25949553D01*
X14658230Y25993868D01*
X14658229Y25993869D01*
X14599752Y26005500D01*
X14599748Y26005500D01*
X14020252Y26005500D01*
X14020247Y26005500D01*
X13961770Y25993869D01*
X13961769Y25993868D01*
X13895447Y25949553D01*
X13852722Y25885609D01*
X13846630Y25880519D01*
X13843333Y25873297D01*
X13820205Y25858434D01*
X13799110Y25840804D01*
X13789735Y25838853D01*
X13784555Y25835523D01*
X13749620Y25830500D01*
X13560380Y25830500D01*
X13493341Y25850185D01*
X13457278Y25885609D01*
X13414551Y25949554D01*
X13355608Y25988939D01*
X13310804Y26042551D01*
X13300500Y26092040D01*
X13300500Y27347961D01*
X13320185Y27415000D01*
X13336288Y27435109D01*
X13346921Y27445873D01*
X13348231Y27446133D01*
X13414552Y27490448D01*
X13458867Y27556769D01*
X13459468Y27559794D01*
X13472168Y27572648D01*
X13492796Y27584076D01*
X13510890Y27599196D01*
X13525636Y27602267D01*
X13533287Y27606504D01*
X13542953Y27605872D01*
X13560380Y27609500D01*
X13749620Y27609500D01*
X13816659Y27589815D01*
X13852722Y27554391D01*
X13895447Y27490448D01*
X13961769Y27446133D01*
X13961770Y27446132D01*
X14020247Y27434501D01*
X14020250Y27434500D01*
X14020252Y27434500D01*
X14599750Y27434500D01*
X14599751Y27434501D01*
X14614568Y27437448D01*
X14658229Y27446132D01*
X14658229Y27446133D01*
X14658231Y27446133D01*
X14724552Y27490448D01*
X14767278Y27554392D01*
X14820890Y27599196D01*
X14870380Y27609500D01*
X15129620Y27609500D01*
X15196659Y27589815D01*
X15232722Y27554391D01*
X15275447Y27490448D01*
X15341769Y27446133D01*
X15341770Y27446132D01*
X15400247Y27434501D01*
X15400250Y27434500D01*
X15400252Y27434500D01*
X15979750Y27434500D01*
X15979751Y27434501D01*
X15994568Y27437448D01*
X16038229Y27446132D01*
X16038229Y27446133D01*
X16038231Y27446133D01*
X16104552Y27490448D01*
X16147278Y27554392D01*
X16153369Y27559482D01*
X16156667Y27566703D01*
X16179794Y27581567D01*
X16200890Y27599196D01*
X16210264Y27601148D01*
X16215445Y27604477D01*
X16250380Y27609500D01*
X16439620Y27609500D01*
X16506659Y27589815D01*
X16542722Y27554391D01*
X16585447Y27490449D01*
X16645741Y27450161D01*
X16690545Y27396548D01*
X16693634Y27388740D01*
X16699500Y27372305D01*
X16699500Y27365438D01*
X16719979Y27289011D01*
X16738580Y27256793D01*
X16752920Y27231956D01*
X16754337Y27229500D01*
X16759540Y27220489D01*
X16909540Y27070489D01*
X16965489Y27014540D01*
X16965491Y27014539D01*
X16965495Y27014536D01*
X16982946Y27004461D01*
X17034011Y26974979D01*
X17110438Y26954500D01*
X17189562Y26954500D01*
X17566324Y26954500D01*
X17633363Y26934815D01*
X17654005Y26918181D01*
X17717686Y26854500D01*
X17831814Y26788608D01*
X17959108Y26754500D01*
X17959110Y26754500D01*
X18090890Y26754500D01*
X18090892Y26754500D01*
X18218186Y26788608D01*
X18332314Y26854500D01*
X18425500Y26947686D01*
X18491392Y27061814D01*
X18519221Y27165678D01*
X18555586Y27225337D01*
X18618433Y27255866D01*
X18687808Y27247571D01*
X18714486Y27231956D01*
X18717680Y27229506D01*
X18717686Y27229500D01*
X18831814Y27163608D01*
X18959108Y27129500D01*
X18959110Y27129500D01*
X19090890Y27129500D01*
X19090892Y27129500D01*
X19218186Y27163608D01*
X19332314Y27229500D01*
X19425500Y27322686D01*
X19491392Y27436814D01*
X19525500Y27564108D01*
X19525500Y27695892D01*
X19491392Y27823186D01*
X19425500Y27937314D01*
X19332314Y28030500D01*
X19254206Y28075596D01*
X19218187Y28096392D01*
X19154539Y28113446D01*
X19090892Y28130500D01*
X18959108Y28130500D01*
X18831812Y28096392D01*
X18717686Y28030500D01*
X18717683Y28030498D01*
X18624502Y27937317D01*
X18624500Y27937314D01*
X18558608Y27823188D01*
X18530778Y27719324D01*
X18494412Y27659663D01*
X18431565Y27629135D01*
X18362190Y27637430D01*
X18335515Y27653044D01*
X18332318Y27655497D01*
X18332315Y27655499D01*
X18332314Y27655500D01*
X18262353Y27695892D01*
X18218187Y27721392D01*
X18154539Y27738446D01*
X18090892Y27755500D01*
X17959108Y27755500D01*
X17831812Y27721392D01*
X17717686Y27655500D01*
X17717683Y27655498D01*
X17682181Y27619995D01*
X17620858Y27586510D01*
X17551166Y27591494D01*
X17495233Y27633366D01*
X17470816Y27698830D01*
X17470500Y27707676D01*
X17470500Y28204751D01*
X17470499Y28204753D01*
X17458868Y28263230D01*
X17458867Y28263231D01*
X17414552Y28329553D01*
X17348230Y28373868D01*
X17348229Y28373869D01*
X17289752Y28385500D01*
X17289748Y28385500D01*
X16710252Y28385500D01*
X16710247Y28385500D01*
X16651770Y28373869D01*
X16651769Y28373868D01*
X16585447Y28329553D01*
X16542722Y28265609D01*
X16536630Y28260519D01*
X16533333Y28253297D01*
X16510205Y28238434D01*
X16489110Y28220804D01*
X16479735Y28218853D01*
X16474555Y28215523D01*
X16439620Y28210500D01*
X16250380Y28210500D01*
X16183341Y28230185D01*
X16147278Y28265609D01*
X16104552Y28329553D01*
X16038230Y28373868D01*
X16038229Y28373869D01*
X15979752Y28385500D01*
X15979748Y28385500D01*
X15400252Y28385500D01*
X15400247Y28385500D01*
X15341770Y28373869D01*
X15341769Y28373868D01*
X15275447Y28329553D01*
X15232722Y28265609D01*
X15226630Y28260519D01*
X15223333Y28253297D01*
X15200205Y28238434D01*
X15179110Y28220804D01*
X15169735Y28218853D01*
X15164555Y28215523D01*
X15129620Y28210500D01*
X15062676Y28210500D01*
X14995637Y28230185D01*
X14949882Y28282989D01*
X14939938Y28352147D01*
X14968963Y28415703D01*
X14974995Y28422181D01*
X14990387Y28437573D01*
X15025500Y28472686D01*
X15091392Y28586814D01*
X15125500Y28714108D01*
X15125500Y28845892D01*
X15091392Y28973186D01*
X15091389Y28973192D01*
X15089498Y28976468D01*
X15088741Y28979586D01*
X15088280Y28980700D01*
X15088453Y28980772D01*
X15083075Y29002942D01*
X15073295Y29028376D01*
X15074956Y29036403D01*
X15073024Y29044368D01*
X15081935Y29070116D01*
X15087458Y29096795D01*
X15093195Y29102649D01*
X15095876Y29110395D01*
X15117294Y29127240D01*
X15136363Y29146696D01*
X15147038Y29150631D01*
X15150796Y29153586D01*
X15169305Y29159363D01*
X15170978Y29159745D01*
X15228231Y29171133D01*
X15232031Y29173673D01*
X15247421Y29177183D01*
X15272263Y29175659D01*
X15297009Y29178320D01*
X15315012Y29173034D01*
X15317160Y29172902D01*
X15318295Y29172070D01*
X15320899Y29171306D01*
X15380247Y29159501D01*
X15380250Y29159500D01*
X15380252Y29159500D01*
X15819750Y29159500D01*
X15819751Y29159501D01*
X15834568Y29162448D01*
X15878229Y29171132D01*
X15878229Y29171133D01*
X15878231Y29171133D01*
X15944552Y29215448D01*
X15988867Y29281769D01*
X15988867Y29281770D01*
X15990179Y29283733D01*
X16043791Y29328538D01*
X16113116Y29337245D01*
X16155276Y29322232D01*
X16256814Y29263608D01*
X16384108Y29229500D01*
X16384110Y29229500D01*
X16515890Y29229500D01*
X16515892Y29229500D01*
X16643186Y29263608D01*
X16757314Y29329500D01*
X16850500Y29422686D01*
X16916392Y29536814D01*
X16950500Y29664108D01*
X16950500Y29795892D01*
X16916392Y29923186D01*
X16895658Y29959099D01*
X17861293Y29959099D01*
X17861293Y29827316D01*
X17895401Y29700020D01*
X17897781Y29695898D01*
X17961293Y29585893D01*
X18054479Y29492707D01*
X18168607Y29426815D01*
X18295901Y29392707D01*
X18295903Y29392707D01*
X18427683Y29392707D01*
X18427685Y29392707D01*
X18554979Y29426815D01*
X18669107Y29492707D01*
X18762293Y29585893D01*
X18828185Y29700021D01*
X18862293Y29827315D01*
X18862293Y29959099D01*
X18828185Y30086393D01*
X18762293Y30200521D01*
X18669107Y30293707D01*
X18612043Y30326653D01*
X18554980Y30359599D01*
X18491332Y30376653D01*
X18427685Y30393707D01*
X18295901Y30393707D01*
X18168605Y30359599D01*
X18054479Y30293707D01*
X18054476Y30293705D01*
X17961295Y30200524D01*
X17961293Y30200521D01*
X17895401Y30086395D01*
X17861293Y29959099D01*
X16895658Y29959099D01*
X16850500Y30037314D01*
X16757314Y30130500D01*
X16677659Y30176489D01*
X16643185Y30196393D01*
X16593852Y30209612D01*
X16579966Y30217629D01*
X16566520Y30220554D01*
X16538266Y30241705D01*
X16525349Y30254622D01*
X16491864Y30315945D01*
X16496848Y30385637D01*
X16538720Y30441570D01*
X16580934Y30462077D01*
X16679951Y30488608D01*
X16794079Y30554500D01*
X16887265Y30647686D01*
X16953157Y30761814D01*
X16987265Y30889108D01*
X16987265Y31020892D01*
X16953157Y31148186D01*
X16887265Y31262314D01*
X16794079Y31355500D01*
X16679951Y31421392D01*
X16555988Y31454608D01*
X16500402Y31486701D01*
X16466616Y31520487D01*
X16466614Y31520489D01*
X16397646Y31560308D01*
X16363888Y31579799D01*
X16351780Y31583043D01*
X16339673Y31586287D01*
X16339670Y31586288D01*
X16301478Y31596522D01*
X16249309Y31610500D01*
X16249308Y31610500D01*
X16039967Y31610500D01*
X15972928Y31630185D01*
X15952286Y31646819D01*
X15944553Y31654552D01*
X15878230Y31698868D01*
X15878229Y31698869D01*
X15819752Y31710500D01*
X15819748Y31710500D01*
X15380252Y31710500D01*
X15380249Y31710500D01*
X15309791Y31696485D01*
X15309537Y31697761D01*
X15252977Y31691683D01*
X15229089Y31698697D01*
X15169751Y31710500D01*
X15169748Y31710500D01*
X14730252Y31710500D01*
X14730249Y31710500D01*
X14659791Y31696485D01*
X14659537Y31697761D01*
X14602977Y31691683D01*
X14579089Y31698697D01*
X14519751Y31710500D01*
X14519748Y31710500D01*
X14080252Y31710500D01*
X14080247Y31710500D01*
X14021770Y31698869D01*
X14021769Y31698868D01*
X13955447Y31654553D01*
X13911132Y31588231D01*
X13911132Y31588230D01*
X13905578Y31560308D01*
X13873193Y31498397D01*
X13812477Y31463823D01*
X13803165Y31461996D01*
X13793622Y31460500D01*
X13780017Y31460500D01*
X13760832Y31455360D01*
X13754314Y31454338D01*
X13733458Y31457067D01*
X13703017Y31457067D01*
X13686474Y31461500D01*
X13686471Y31461500D01*
X13554687Y31461500D01*
X13427391Y31427392D01*
X13313265Y31361500D01*
X13313262Y31361498D01*
X13220081Y31268317D01*
X13220079Y31268314D01*
X13154187Y31154188D01*
X13120079Y31026892D01*
X13120079Y30895108D01*
X13121687Y30889108D01*
X13140849Y30817593D01*
X13140253Y30792599D01*
X13143812Y30767853D01*
X13139436Y30758273D01*
X13139186Y30747743D01*
X13125173Y30727040D01*
X13114787Y30704297D01*
X13105925Y30698603D01*
X13100023Y30689881D01*
X13077042Y30680040D01*
X13056009Y30666523D01*
X13040153Y30664244D01*
X13035795Y30662377D01*
X13021074Y30661500D01*
X12794833Y30661500D01*
X12727794Y30681185D01*
X12707152Y30697819D01*
X12286718Y31118253D01*
X12253233Y31179576D01*
X12250399Y31205934D01*
X12250399Y31276891D01*
X12250399Y31276893D01*
X12216291Y31404187D01*
X12150399Y31518315D01*
X12057213Y31611501D01*
X11982645Y31654553D01*
X11943086Y31677393D01*
X11867070Y31697761D01*
X11815791Y31711501D01*
X11684007Y31711501D01*
X11556711Y31677393D01*
X11442585Y31611501D01*
X11442582Y31611499D01*
X11349401Y31518318D01*
X11349399Y31518315D01*
X11283507Y31404189D01*
X11249399Y31276893D01*
X10709967Y31276893D01*
X10715668Y31303094D01*
X10719422Y31308110D01*
X10720185Y31310706D01*
X10736819Y31331348D01*
X10778172Y31372701D01*
X11073088Y31667617D01*
X11382025Y31976554D01*
X11410956Y32026665D01*
X11421586Y32045076D01*
X11442065Y32121503D01*
X11442065Y32317433D01*
X11450709Y32346874D01*
X11457233Y32376860D01*
X11460987Y32381876D01*
X11461750Y32384472D01*
X11478380Y32405110D01*
X11627721Y32554452D01*
X11689044Y32587936D01*
X11758736Y32582952D01*
X11814669Y32541080D01*
X11822789Y32528771D01*
X11862915Y32459271D01*
X11956101Y32366085D01*
X12070229Y32300193D01*
X12197523Y32266085D01*
X12197525Y32266085D01*
X12329305Y32266085D01*
X12329307Y32266085D01*
X12456601Y32300193D01*
X12570729Y32366085D01*
X12663915Y32459271D01*
X12729807Y32573399D01*
X12763915Y32700693D01*
X12763915Y32832477D01*
X12729807Y32959771D01*
X12727762Y32963313D01*
X12717731Y32980688D01*
X12701258Y33048588D01*
X12724110Y33114615D01*
X12779031Y33157805D01*
X12825381Y33166688D01*
X13734754Y33164723D01*
G37*
%TD.AperFunction*%
%TD*%
%TA.AperFunction,Conductor*%
%TO.N,GND*%
G36*
X27916834Y14670085D02*
G01*
X27972767Y14628213D01*
X27997184Y14562749D01*
X27997500Y14553903D01*
X27997500Y10453097D01*
X27977815Y10386058D01*
X27961181Y10365416D01*
X27660339Y10064575D01*
X27599016Y10031090D01*
X27596850Y10030639D01*
X27441508Y9999739D01*
X27441498Y9999736D01*
X27295827Y9939398D01*
X27295814Y9939391D01*
X27164711Y9851790D01*
X27164707Y9851787D01*
X27053213Y9740293D01*
X27053210Y9740289D01*
X26965609Y9609186D01*
X26965602Y9609173D01*
X26905264Y9463502D01*
X26905261Y9463490D01*
X26874500Y9308847D01*
X26874500Y9308842D01*
X26874500Y9151158D01*
X26874500Y9151156D01*
X26874499Y9151156D01*
X26903833Y9003692D01*
X26897606Y8934100D01*
X26854743Y8878923D01*
X26788854Y8855678D01*
X26782216Y8855500D01*
X23648765Y8855500D01*
X23581726Y8875185D01*
X23535971Y8927989D01*
X23524765Y8979500D01*
X23524765Y9084580D01*
X23524764Y9084582D01*
X23494002Y9239232D01*
X23465167Y9308847D01*
X23433662Y9384908D01*
X23433655Y9384921D01*
X23346054Y9516024D01*
X23346051Y9516028D01*
X23234557Y9627522D01*
X23234553Y9627525D01*
X23103450Y9715126D01*
X23103437Y9715133D01*
X22957766Y9775471D01*
X22957754Y9775474D01*
X22803110Y9806235D01*
X22803107Y9806235D01*
X22645423Y9806235D01*
X22645420Y9806235D01*
X22490775Y9775474D01*
X22490763Y9775471D01*
X22345092Y9715133D01*
X22345079Y9715126D01*
X22213976Y9627525D01*
X22213972Y9627522D01*
X22102478Y9516028D01*
X22102475Y9516024D01*
X22014874Y9384921D01*
X22014867Y9384908D01*
X21954529Y9239237D01*
X21954526Y9239225D01*
X21923765Y9084582D01*
X21923765Y8979500D01*
X21904080Y8912461D01*
X21851276Y8866706D01*
X21799765Y8855500D01*
X17494500Y8855500D01*
X17427461Y8875185D01*
X17381706Y8927989D01*
X17370500Y8979500D01*
X17370500Y9068845D01*
X17370499Y9068847D01*
X17367369Y9084582D01*
X17339737Y9223497D01*
X17333222Y9239225D01*
X17279397Y9369173D01*
X17279390Y9369186D01*
X17191789Y9500289D01*
X17191786Y9500293D01*
X17080292Y9611787D01*
X17080288Y9611790D01*
X16949185Y9699391D01*
X16949172Y9699398D01*
X16803501Y9759736D01*
X16803489Y9759739D01*
X16648845Y9790500D01*
X16648842Y9790500D01*
X16491158Y9790500D01*
X16491155Y9790500D01*
X16336510Y9759739D01*
X16336498Y9759736D01*
X16190827Y9699398D01*
X16190814Y9699391D01*
X16059711Y9611790D01*
X16059707Y9611787D01*
X15948213Y9500293D01*
X15948210Y9500289D01*
X15860609Y9369186D01*
X15860602Y9369173D01*
X15800264Y9223502D01*
X15800261Y9223490D01*
X15769500Y9068847D01*
X15769500Y8979500D01*
X15749815Y8912461D01*
X15697011Y8866706D01*
X15645500Y8855500D01*
X13827940Y8855500D01*
X13760901Y8875185D01*
X13740259Y8891819D01*
X13130973Y9501105D01*
X13115552Y9519895D01*
X13041789Y9630290D01*
X12930292Y9741787D01*
X12930288Y9741790D01*
X12799185Y9829391D01*
X12799172Y9829398D01*
X12653501Y9889736D01*
X12653489Y9889739D01*
X12498845Y9920500D01*
X12498842Y9920500D01*
X12341158Y9920500D01*
X12341155Y9920500D01*
X12186510Y9889739D01*
X12186498Y9889736D01*
X12040827Y9829398D01*
X12040814Y9829391D01*
X11909711Y9741790D01*
X11909708Y9741788D01*
X11889713Y9721791D01*
X11889711Y9721789D01*
X11833960Y9666038D01*
X11778209Y9610288D01*
X11690609Y9479186D01*
X11690602Y9479173D01*
X11630264Y9333502D01*
X11630261Y9333490D01*
X11599500Y9178847D01*
X11599500Y9021154D01*
X11630261Y8866511D01*
X11630264Y8866499D01*
X11690602Y8720828D01*
X11690609Y8720815D01*
X11778210Y8589712D01*
X11778213Y8589708D01*
X12823211Y7544711D01*
X12917714Y7450208D01*
X12934712Y7433210D01*
X13065814Y7345610D01*
X13065818Y7345608D01*
X13065821Y7345606D01*
X13165023Y7304516D01*
X13219423Y7260677D01*
X13241489Y7194383D01*
X13224210Y7126684D01*
X13173074Y7079073D01*
X13165021Y7075395D01*
X13115974Y7055080D01*
X13115974Y7055079D01*
X13440000Y6731054D01*
X13440001Y6731054D01*
X13764024Y7055079D01*
X13753834Y7106309D01*
X13755711Y7127293D01*
X13752713Y7148147D01*
X13758763Y7161395D01*
X13760061Y7175900D01*
X13772985Y7192539D01*
X13781738Y7211703D01*
X13793989Y7219577D01*
X13802924Y7231078D01*
X13822792Y7238088D01*
X13840516Y7249477D01*
X13865099Y7253012D01*
X13868814Y7254322D01*
X13875451Y7254500D01*
X14104548Y7254500D01*
X14171587Y7234815D01*
X14217342Y7182011D01*
X14227286Y7112853D01*
X14226165Y7106309D01*
X14215974Y7055079D01*
X14540000Y6731054D01*
X14540001Y6731054D01*
X14864024Y7055079D01*
X14853834Y7106309D01*
X14855711Y7127293D01*
X14852713Y7148147D01*
X14858763Y7161395D01*
X14860061Y7175900D01*
X14872985Y7192539D01*
X14881738Y7211703D01*
X14893989Y7219577D01*
X14902924Y7231078D01*
X14922792Y7238088D01*
X14940516Y7249477D01*
X14965099Y7253012D01*
X14968814Y7254322D01*
X14975451Y7254500D01*
X15204548Y7254500D01*
X15271587Y7234815D01*
X15317342Y7182011D01*
X15327286Y7112853D01*
X15326165Y7106309D01*
X15315974Y7055079D01*
X15640000Y6731054D01*
X15640001Y6731054D01*
X15964024Y7055079D01*
X15953834Y7106309D01*
X15960061Y7175900D01*
X16002924Y7231078D01*
X16068814Y7254322D01*
X16075451Y7254500D01*
X27953844Y7254500D01*
X27953845Y7254501D01*
X28108497Y7285263D01*
X28254179Y7345606D01*
X28385289Y7433211D01*
X29287819Y8335741D01*
X29349142Y8369226D01*
X29418833Y8364242D01*
X29474767Y8322370D01*
X29499184Y8256906D01*
X29499500Y8248060D01*
X29499500Y604500D01*
X29479815Y537461D01*
X29427011Y491706D01*
X29375500Y480500D01*
X20897703Y480500D01*
X20830664Y500185D01*
X20784909Y552989D01*
X20774965Y622147D01*
X20776086Y628691D01*
X20790499Y701154D01*
X20790500Y701156D01*
X20790500Y858845D01*
X20790499Y858847D01*
X20759738Y1013490D01*
X20759737Y1013497D01*
X20759735Y1013502D01*
X20699397Y1159173D01*
X20699390Y1159186D01*
X20611789Y1290289D01*
X20611786Y1290293D01*
X20500292Y1401787D01*
X20500288Y1401790D01*
X20369185Y1489391D01*
X20369172Y1489398D01*
X20223501Y1549736D01*
X20223489Y1549739D01*
X20068845Y1580500D01*
X20068842Y1580500D01*
X19911158Y1580500D01*
X19911155Y1580500D01*
X19756510Y1549739D01*
X19756498Y1549736D01*
X19610827Y1489398D01*
X19610814Y1489391D01*
X19479711Y1401790D01*
X19479707Y1401787D01*
X19368210Y1290290D01*
X19332343Y1236609D01*
X19278731Y1191804D01*
X19229241Y1181500D01*
X16919939Y1181500D01*
X16898696Y1187738D01*
X16876607Y1189317D01*
X16865821Y1197391D01*
X16852900Y1201185D01*
X16838402Y1217917D01*
X16820673Y1231188D01*
X16815964Y1243811D01*
X16807145Y1253989D01*
X16803993Y1275905D01*
X16796255Y1296652D01*
X16799118Y1309815D01*
X16797201Y1323147D01*
X16806399Y1343290D01*
X16811106Y1364925D01*
X16824375Y1382652D01*
X16826226Y1386703D01*
X16832242Y1393166D01*
X16910361Y1471284D01*
X16910362Y1471287D01*
X17294189Y1855114D01*
X17355510Y1888597D01*
X17357677Y1889048D01*
X17415612Y1900573D01*
X17513024Y1919949D01*
X17658706Y1980292D01*
X17789816Y2067897D01*
X17901316Y2179397D01*
X17988921Y2310507D01*
X17992777Y2319815D01*
X18002594Y2343520D01*
X18049264Y2456189D01*
X18080027Y2610844D01*
X18080027Y2768528D01*
X18080027Y2768531D01*
X18080026Y2768533D01*
X18049264Y2923183D01*
X18026490Y2978165D01*
X17988924Y3068859D01*
X17988917Y3068872D01*
X17920371Y3171457D01*
X24439499Y3171457D01*
X24477947Y2978171D01*
X24477950Y2978161D01*
X24553364Y2796093D01*
X24553371Y2796080D01*
X24662860Y2632219D01*
X24662863Y2632215D01*
X24802214Y2492864D01*
X24802218Y2492861D01*
X24966079Y2383372D01*
X24966092Y2383365D01*
X25125454Y2317356D01*
X25148165Y2307949D01*
X25148169Y2307949D01*
X25148170Y2307948D01*
X25341456Y2269500D01*
X25341459Y2269500D01*
X25538543Y2269500D01*
X25668582Y2295368D01*
X25731835Y2307949D01*
X25913914Y2383368D01*
X26077782Y2492861D01*
X26217139Y2632218D01*
X26326632Y2796086D01*
X26402051Y2978165D01*
X26420094Y3068872D01*
X26440500Y3171457D01*
X26440500Y3368544D01*
X26402052Y3561830D01*
X26402051Y3561833D01*
X26402051Y3561835D01*
X26382840Y3608215D01*
X26326635Y3743908D01*
X26326628Y3743921D01*
X26217139Y3907782D01*
X26217136Y3907786D01*
X26077785Y4047137D01*
X26077781Y4047140D01*
X25913920Y4156629D01*
X25913907Y4156636D01*
X25731839Y4232050D01*
X25731829Y4232053D01*
X25538543Y4270500D01*
X25538541Y4270500D01*
X25341459Y4270500D01*
X25341457Y4270500D01*
X25148170Y4232053D01*
X25148160Y4232050D01*
X24966092Y4156636D01*
X24966079Y4156629D01*
X24802218Y4047140D01*
X24802214Y4047137D01*
X24662863Y3907786D01*
X24662860Y3907782D01*
X24553371Y3743921D01*
X24553364Y3743908D01*
X24477950Y3561840D01*
X24477947Y3561830D01*
X24439500Y3368544D01*
X24439500Y3368541D01*
X24439500Y3171459D01*
X24439500Y3171457D01*
X24439499Y3171457D01*
X17920371Y3171457D01*
X17901316Y3199975D01*
X17901313Y3199979D01*
X17867945Y3233346D01*
X17863606Y3241292D01*
X17856357Y3246718D01*
X17847122Y3271478D01*
X17834459Y3294668D01*
X17835104Y3303700D01*
X17831941Y3312183D01*
X17837558Y3338005D01*
X17839443Y3364360D01*
X17845260Y3373413D01*
X17846793Y3380456D01*
X17867942Y3408707D01*
X17930520Y3471284D01*
X17982799Y3561835D01*
X18009577Y3608215D01*
X18050500Y3760942D01*
X18050500Y3919057D01*
X18050500Y4440235D01*
X18070185Y4507274D01*
X18071398Y4509126D01*
X18078490Y4519739D01*
X18159394Y4640821D01*
X18219737Y4786503D01*
X18250500Y4941158D01*
X18250500Y5098842D01*
X18250500Y5098845D01*
X18250499Y5098847D01*
X18234854Y5177500D01*
X18219737Y5253497D01*
X18201556Y5297391D01*
X18159397Y5399173D01*
X18159390Y5399186D01*
X18071789Y5530289D01*
X18071786Y5530293D01*
X17960292Y5641787D01*
X17960288Y5641790D01*
X17829185Y5729391D01*
X17829172Y5729398D01*
X17683501Y5789736D01*
X17683489Y5789739D01*
X17528845Y5820500D01*
X17528842Y5820500D01*
X17371158Y5820500D01*
X17371155Y5820500D01*
X17216510Y5789739D01*
X17216498Y5789736D01*
X17070827Y5729398D01*
X17070814Y5729391D01*
X16939711Y5641790D01*
X16939707Y5641787D01*
X16828213Y5530293D01*
X16828210Y5530289D01*
X16740609Y5399186D01*
X16740602Y5399173D01*
X16680264Y5253502D01*
X16680261Y5253490D01*
X16649500Y5098847D01*
X16649500Y4941154D01*
X16680261Y4786511D01*
X16680264Y4786499D01*
X16740602Y4640828D01*
X16740609Y4640815D01*
X16813950Y4531054D01*
X16821510Y4519739D01*
X16828602Y4509126D01*
X16849480Y4442449D01*
X16849500Y4440235D01*
X16849500Y4140097D01*
X16840855Y4110657D01*
X16834332Y4080670D01*
X16830577Y4075655D01*
X16829815Y4073058D01*
X16813181Y4052416D01*
X16693101Y3932336D01*
X16631778Y3898851D01*
X16605420Y3896017D01*
X16499798Y3896017D01*
X16432759Y3915702D01*
X16387004Y3968506D01*
X16377060Y4037664D01*
X16378181Y4044208D01*
X16389999Y4103627D01*
X16390000Y4103629D01*
X16390000Y4251372D01*
X16389999Y4251374D01*
X16361179Y4396260D01*
X16361178Y4396264D01*
X16317577Y4501525D01*
X15816777Y4000723D01*
X15315974Y3499923D01*
X15325751Y3450770D01*
X15325510Y3448083D01*
X15326660Y3445640D01*
X15322414Y3413484D01*
X15319524Y3381178D01*
X15317759Y3378227D01*
X15317515Y3376371D01*
X15310796Y3366575D01*
X15298777Y3346462D01*
X15295445Y3342527D01*
X15265095Y3312176D01*
X15255102Y3294870D01*
X15247919Y3286383D01*
X15227655Y3273029D01*
X15210094Y3256284D01*
X15197679Y3253273D01*
X15189580Y3247934D01*
X15174980Y3247766D01*
X15153276Y3242500D01*
X14865944Y3242500D01*
X14798905Y3262185D01*
X14753150Y3314989D01*
X14743206Y3384147D01*
X14772231Y3447703D01*
X14818490Y3481060D01*
X14864024Y3499922D01*
X14864024Y3499923D01*
X14540001Y3823946D01*
X14540000Y3823946D01*
X14215975Y3499923D01*
X14261511Y3481061D01*
X14315914Y3437219D01*
X14337978Y3370925D01*
X14320698Y3303226D01*
X14269561Y3255616D01*
X14214057Y3242500D01*
X14055197Y3242500D01*
X13988158Y3262185D01*
X13967516Y3278819D01*
X13807969Y3438366D01*
X13786785Y3477161D01*
X13122765Y4141181D01*
X13066555Y4197391D01*
X13340000Y4197391D01*
X13340000Y4157609D01*
X13355224Y4120855D01*
X13383355Y4092724D01*
X13420109Y4077500D01*
X13459891Y4077500D01*
X13496645Y4092724D01*
X13524776Y4120855D01*
X13540000Y4157609D01*
X13540000Y4177500D01*
X13793554Y4177500D01*
X13990000Y3981054D01*
X14186446Y4177500D01*
X14166555Y4197391D01*
X14440000Y4197391D01*
X14440000Y4157609D01*
X14455224Y4120855D01*
X14483355Y4092724D01*
X14520109Y4077500D01*
X14559891Y4077500D01*
X14596645Y4092724D01*
X14624776Y4120855D01*
X14640000Y4157609D01*
X14640000Y4177500D01*
X14893554Y4177500D01*
X15090000Y3981054D01*
X15286446Y4177500D01*
X15266555Y4197391D01*
X15540000Y4197391D01*
X15540000Y4157609D01*
X15555224Y4120855D01*
X15583355Y4092724D01*
X15620109Y4077500D01*
X15659891Y4077500D01*
X15696645Y4092724D01*
X15724776Y4120855D01*
X15740000Y4157609D01*
X15740000Y4197391D01*
X15724776Y4234145D01*
X15696645Y4262276D01*
X15659891Y4277500D01*
X15620109Y4277500D01*
X15583355Y4262276D01*
X15555224Y4234145D01*
X15540000Y4197391D01*
X15266555Y4197391D01*
X15090000Y4373946D01*
X14893554Y4177500D01*
X14640000Y4177500D01*
X14640000Y4197391D01*
X14624776Y4234145D01*
X14596645Y4262276D01*
X14559891Y4277500D01*
X14520109Y4277500D01*
X14483355Y4262276D01*
X14455224Y4234145D01*
X14440000Y4197391D01*
X14166555Y4197391D01*
X13990000Y4373946D01*
X13793554Y4177500D01*
X13540000Y4177500D01*
X13540000Y4197391D01*
X13524776Y4234145D01*
X13496645Y4262276D01*
X13459891Y4277500D01*
X13420109Y4277500D01*
X13383355Y4262276D01*
X13355224Y4234145D01*
X13340000Y4197391D01*
X13066555Y4197391D01*
X12762421Y4501526D01*
X12762420Y4501526D01*
X12718823Y4396272D01*
X12718820Y4396260D01*
X12690000Y4251374D01*
X12690000Y4185500D01*
X12670315Y4118461D01*
X12617511Y4072706D01*
X12566000Y4061500D01*
X12279097Y4061500D01*
X12212058Y4081185D01*
X12191416Y4097819D01*
X11561735Y4727500D01*
X13243554Y4727500D01*
X13440000Y4531054D01*
X13636446Y4727500D01*
X14343554Y4727500D01*
X14540000Y4531054D01*
X14736446Y4727500D01*
X15443554Y4727500D01*
X15640000Y4531054D01*
X15836446Y4727500D01*
X15640000Y4923946D01*
X15443554Y4727500D01*
X14736446Y4727500D01*
X14540000Y4923946D01*
X14343554Y4727500D01*
X13636446Y4727500D01*
X13440000Y4923946D01*
X13243554Y4727500D01*
X11561735Y4727500D01*
X10937861Y5351374D01*
X12690000Y5351374D01*
X12690000Y5203627D01*
X12718820Y5058741D01*
X12718822Y5058733D01*
X12762421Y4953476D01*
X13086446Y5277500D01*
X13086446Y5277501D01*
X13066556Y5297391D01*
X13340000Y5297391D01*
X13340000Y5257609D01*
X13355224Y5220855D01*
X13383355Y5192724D01*
X13420109Y5177500D01*
X13459891Y5177500D01*
X13496645Y5192724D01*
X13524776Y5220855D01*
X13540000Y5257609D01*
X13540000Y5277500D01*
X13793554Y5277500D01*
X13990000Y5081054D01*
X14186446Y5277500D01*
X14166555Y5297391D01*
X14440000Y5297391D01*
X14440000Y5257609D01*
X14455224Y5220855D01*
X14483355Y5192724D01*
X14520109Y5177500D01*
X14559891Y5177500D01*
X14596645Y5192724D01*
X14624776Y5220855D01*
X14640000Y5257609D01*
X14640000Y5277500D01*
X14893554Y5277500D01*
X15090000Y5081054D01*
X15286446Y5277500D01*
X15266555Y5297391D01*
X15540000Y5297391D01*
X15540000Y5257609D01*
X15555224Y5220855D01*
X15583355Y5192724D01*
X15620109Y5177500D01*
X15659891Y5177500D01*
X15696645Y5192724D01*
X15724776Y5220855D01*
X15740000Y5257609D01*
X15740000Y5277501D01*
X15993554Y5277501D01*
X15993554Y5277499D01*
X16317577Y4953476D01*
X16317578Y4953476D01*
X16361175Y5058725D01*
X16361179Y5058740D01*
X16389999Y5203627D01*
X16390000Y5203629D01*
X16390000Y5351372D01*
X16389999Y5351374D01*
X16361179Y5496260D01*
X16361178Y5496264D01*
X16317577Y5601525D01*
X15993554Y5277501D01*
X15740000Y5277501D01*
X15740000Y5297391D01*
X15724776Y5334145D01*
X15696645Y5362276D01*
X15659891Y5377500D01*
X15620109Y5377500D01*
X15583355Y5362276D01*
X15555224Y5334145D01*
X15540000Y5297391D01*
X15266555Y5297391D01*
X15090000Y5473946D01*
X14893554Y5277500D01*
X14640000Y5277500D01*
X14640000Y5297391D01*
X14624776Y5334145D01*
X14596645Y5362276D01*
X14559891Y5377500D01*
X14520109Y5377500D01*
X14483355Y5362276D01*
X14455224Y5334145D01*
X14440000Y5297391D01*
X14166555Y5297391D01*
X13990000Y5473946D01*
X13793554Y5277500D01*
X13540000Y5277500D01*
X13540000Y5297391D01*
X13524776Y5334145D01*
X13496645Y5362276D01*
X13459891Y5377500D01*
X13420109Y5377500D01*
X13383355Y5362276D01*
X13355224Y5334145D01*
X13340000Y5297391D01*
X13066556Y5297391D01*
X12762421Y5601526D01*
X12762420Y5601526D01*
X12718823Y5496272D01*
X12718820Y5496260D01*
X12690000Y5351374D01*
X10937861Y5351374D01*
X10461735Y5827500D01*
X13243554Y5827500D01*
X13440000Y5631054D01*
X13636446Y5827500D01*
X14343554Y5827500D01*
X14540000Y5631054D01*
X14736446Y5827500D01*
X15443554Y5827500D01*
X15640000Y5631054D01*
X15836446Y5827500D01*
X15640000Y6023946D01*
X15443554Y5827500D01*
X14736446Y5827500D01*
X14540000Y6023946D01*
X14343554Y5827500D01*
X13636446Y5827500D01*
X13440000Y6023946D01*
X13243554Y5827500D01*
X10461735Y5827500D01*
X9969819Y6319416D01*
X9955115Y6346344D01*
X9938523Y6372162D01*
X9937631Y6378363D01*
X9936334Y6380739D01*
X9933500Y6407097D01*
X9933500Y6451374D01*
X12690000Y6451374D01*
X12690000Y6303627D01*
X12718820Y6158741D01*
X12718822Y6158733D01*
X12762421Y6053476D01*
X13086446Y6377500D01*
X13086446Y6377501D01*
X13066556Y6397391D01*
X13340000Y6397391D01*
X13340000Y6357609D01*
X13355224Y6320855D01*
X13383355Y6292724D01*
X13420109Y6277500D01*
X13459891Y6277500D01*
X13496645Y6292724D01*
X13524776Y6320855D01*
X13540000Y6357609D01*
X13540000Y6377500D01*
X13793554Y6377500D01*
X13990000Y6181054D01*
X14186446Y6377500D01*
X14166555Y6397391D01*
X14440000Y6397391D01*
X14440000Y6357609D01*
X14455224Y6320855D01*
X14483355Y6292724D01*
X14520109Y6277500D01*
X14559891Y6277500D01*
X14596645Y6292724D01*
X14624776Y6320855D01*
X14640000Y6357609D01*
X14640000Y6377500D01*
X14893554Y6377500D01*
X15090000Y6181054D01*
X15286446Y6377500D01*
X15266555Y6397391D01*
X15540000Y6397391D01*
X15540000Y6357609D01*
X15555224Y6320855D01*
X15583355Y6292724D01*
X15620109Y6277500D01*
X15659891Y6277500D01*
X15696645Y6292724D01*
X15724776Y6320855D01*
X15740000Y6357609D01*
X15740000Y6377501D01*
X15993554Y6377501D01*
X15993554Y6377499D01*
X16317577Y6053476D01*
X16317578Y6053476D01*
X16361175Y6158725D01*
X16361179Y6158740D01*
X16389999Y6303627D01*
X16390000Y6303629D01*
X16390000Y6451372D01*
X16389999Y6451374D01*
X16361179Y6596260D01*
X16361178Y6596264D01*
X16317577Y6701525D01*
X15993554Y6377501D01*
X15740000Y6377501D01*
X15740000Y6397391D01*
X15724776Y6434145D01*
X15696645Y6462276D01*
X15659891Y6477500D01*
X15620109Y6477500D01*
X15583355Y6462276D01*
X15555224Y6434145D01*
X15540000Y6397391D01*
X15266555Y6397391D01*
X15090000Y6573946D01*
X14893554Y6377500D01*
X14640000Y6377500D01*
X14640000Y6397391D01*
X14624776Y6434145D01*
X14596645Y6462276D01*
X14559891Y6477500D01*
X14520109Y6477500D01*
X14483355Y6462276D01*
X14455224Y6434145D01*
X14440000Y6397391D01*
X14166555Y6397391D01*
X13990000Y6573946D01*
X13793554Y6377500D01*
X13540000Y6377500D01*
X13540000Y6397391D01*
X13524776Y6434145D01*
X13496645Y6462276D01*
X13459891Y6477500D01*
X13420109Y6477500D01*
X13383355Y6462276D01*
X13355224Y6434145D01*
X13340000Y6397391D01*
X13066556Y6397391D01*
X12762421Y6701526D01*
X12762420Y6701526D01*
X12718823Y6596272D01*
X12718820Y6596260D01*
X12690000Y6451374D01*
X9933500Y6451374D01*
X9933500Y7079241D01*
X9933501Y7079254D01*
X9933501Y7247355D01*
X9933501Y7247357D01*
X9892577Y7400085D01*
X9863639Y7450205D01*
X9813520Y7537016D01*
X9701716Y7648820D01*
X9701715Y7648821D01*
X9697385Y7653151D01*
X9697374Y7653161D01*
X9337819Y8012716D01*
X9304334Y8074039D01*
X9301500Y8100397D01*
X9301500Y8655961D01*
X9321185Y8723000D01*
X9337815Y8743638D01*
X9533506Y8939330D01*
X9533511Y8939333D01*
X9543714Y8949537D01*
X9543716Y8949537D01*
X9655520Y9061341D01*
X9723359Y9178842D01*
X9734577Y9198272D01*
X9775500Y9350999D01*
X9775500Y9509114D01*
X9775500Y10232243D01*
X9795185Y10299282D01*
X9847989Y10345037D01*
X9917147Y10354981D01*
X9923692Y10353860D01*
X10046155Y10329500D01*
X10046158Y10329500D01*
X10203844Y10329500D01*
X10203845Y10329501D01*
X10358497Y10360263D01*
X10504179Y10420606D01*
X10552805Y10453097D01*
X10635875Y10508602D01*
X10702553Y10529480D01*
X10704766Y10529500D01*
X24013331Y10529500D01*
X24013347Y10529499D01*
X24020943Y10529499D01*
X24179054Y10529499D01*
X24179057Y10529499D01*
X24331785Y10570423D01*
X24381904Y10599361D01*
X24468716Y10649480D01*
X24580520Y10761284D01*
X24580520Y10761286D01*
X24590728Y10771493D01*
X24590730Y10771496D01*
X25833398Y12014165D01*
X25894719Y12047648D01*
X25964411Y12042664D01*
X26008758Y12014163D01*
X26014707Y12008214D01*
X26014711Y12008211D01*
X26145814Y11920610D01*
X26145827Y11920603D01*
X26291498Y11860265D01*
X26291503Y11860263D01*
X26442096Y11830308D01*
X26446153Y11829501D01*
X26446156Y11829500D01*
X26446158Y11829500D01*
X26603844Y11829500D01*
X26603845Y11829501D01*
X26758497Y11860263D01*
X26904179Y11920606D01*
X27035289Y12008211D01*
X27146789Y12119711D01*
X27234394Y12250821D01*
X27294737Y12396503D01*
X27325500Y12551158D01*
X27325500Y12708842D01*
X27325500Y12708845D01*
X27325499Y12708847D01*
X27318806Y12742496D01*
X27294737Y12863497D01*
X27280674Y12897449D01*
X27234397Y13009173D01*
X27234390Y13009186D01*
X27146789Y13140289D01*
X27146786Y13140293D01*
X27035292Y13251787D01*
X27035288Y13251790D01*
X26935296Y13318603D01*
X26890491Y13372215D01*
X26881784Y13441540D01*
X26911939Y13504568D01*
X26935293Y13524806D01*
X26985289Y13558211D01*
X27096789Y13669711D01*
X27184394Y13800821D01*
X27244737Y13946503D01*
X27275500Y14101158D01*
X27275638Y14101850D01*
X27308023Y14163761D01*
X27309518Y14165284D01*
X27785819Y14641584D01*
X27847142Y14675069D01*
X27916834Y14670085D01*
G37*
%TD.AperFunction*%
%TA.AperFunction,Conductor*%
G36*
X1775703Y18374616D02*
G01*
X1782181Y18368584D01*
X2415139Y17735626D01*
X2415149Y17735615D01*
X2419479Y17731285D01*
X2419480Y17731284D01*
X2531284Y17619480D01*
X2618095Y17569361D01*
X2618097Y17569359D01*
X2656151Y17547389D01*
X2668215Y17540423D01*
X2820943Y17499499D01*
X2820946Y17499499D01*
X2986653Y17499499D01*
X2986669Y17499500D01*
X5730234Y17499500D01*
X5797273Y17479815D01*
X5799125Y17478602D01*
X5930814Y17390610D01*
X5930821Y17390606D01*
X6044373Y17343572D01*
X6098774Y17299733D01*
X6120840Y17233439D01*
X6118536Y17204821D01*
X6089500Y17058847D01*
X6089500Y16901154D01*
X6120261Y16746511D01*
X6120264Y16746499D01*
X6180602Y16600828D01*
X6180609Y16600815D01*
X6268210Y16469712D01*
X6268213Y16469708D01*
X6379707Y16358214D01*
X6379711Y16358211D01*
X6510814Y16270610D01*
X6510827Y16270603D01*
X6584346Y16240151D01*
X6656503Y16210263D01*
X6797691Y16182179D01*
X6859602Y16149795D01*
X6894176Y16089079D01*
X6897500Y16060562D01*
X6897500Y15678156D01*
X6877815Y15611117D01*
X6825011Y15565362D01*
X6755853Y15555418D01*
X6749309Y15556539D01*
X6628846Y15580500D01*
X6628842Y15580500D01*
X6471158Y15580500D01*
X6471155Y15580500D01*
X6316510Y15549739D01*
X6316498Y15549736D01*
X6170827Y15489398D01*
X6170814Y15489391D01*
X6039711Y15401790D01*
X6039707Y15401787D01*
X5928213Y15290293D01*
X5928210Y15290289D01*
X5840609Y15159186D01*
X5840602Y15159173D01*
X5780264Y15013502D01*
X5780261Y15013490D01*
X5749500Y14858847D01*
X5749500Y14701154D01*
X5780261Y14546511D01*
X5780264Y14546499D01*
X5840602Y14400828D01*
X5840609Y14400815D01*
X5928210Y14269712D01*
X5928213Y14269708D01*
X6039707Y14158214D01*
X6039711Y14158211D01*
X6170814Y14070610D01*
X6170827Y14070603D01*
X6316498Y14010265D01*
X6316503Y14010263D01*
X6471153Y13979501D01*
X6471156Y13979500D01*
X6471158Y13979500D01*
X6628844Y13979500D01*
X6628845Y13979501D01*
X6662003Y13986097D01*
X6749309Y14003462D01*
X6818900Y13997235D01*
X6874077Y13954372D01*
X6897322Y13888482D01*
X6897500Y13881845D01*
X6897500Y7388670D01*
X6897499Y7388652D01*
X6897499Y7222946D01*
X6897498Y7222946D01*
X6938423Y7070215D01*
X6938887Y7069095D01*
X6938996Y7068074D01*
X6940527Y7062363D01*
X6939637Y7062125D01*
X6946362Y6999627D01*
X6915092Y6937145D01*
X6871783Y6907072D01*
X6780824Y6869396D01*
X6780814Y6869391D01*
X6649711Y6781790D01*
X6649707Y6781787D01*
X6538213Y6670293D01*
X6538210Y6670289D01*
X6450609Y6539186D01*
X6450602Y6539173D01*
X6390264Y6393502D01*
X6390261Y6393490D01*
X6359500Y6238847D01*
X6359500Y6081154D01*
X6390261Y5926511D01*
X6390264Y5926499D01*
X6450602Y5780828D01*
X6450609Y5780815D01*
X6538210Y5649712D01*
X6538213Y5649708D01*
X6649707Y5538214D01*
X6649711Y5538211D01*
X6780814Y5450610D01*
X6780827Y5450603D01*
X6904992Y5399173D01*
X6926503Y5390263D01*
X7067202Y5362276D01*
X7081153Y5359501D01*
X7081156Y5359500D01*
X7081158Y5359500D01*
X7238844Y5359500D01*
X7238845Y5359501D01*
X7393497Y5390263D01*
X7416217Y5399675D01*
X7416978Y5399756D01*
X7417581Y5400230D01*
X7451675Y5403487D01*
X7485686Y5407144D01*
X7486371Y5406802D01*
X7487134Y5406874D01*
X7517562Y5391189D01*
X7548166Y5375870D01*
X7548783Y5375095D01*
X7549238Y5374860D01*
X7570944Y5347259D01*
X7571056Y5347118D01*
X7578546Y5334145D01*
X7582019Y5328131D01*
X7582019Y5328129D01*
X7582021Y5328127D01*
X7649477Y5211288D01*
X7649481Y5211283D01*
X7768349Y5092415D01*
X7768355Y5092410D01*
X8536235Y4324530D01*
X8538374Y4322338D01*
X8548557Y4311639D01*
X8557480Y4296184D01*
X8669284Y4184380D01*
X8669286Y4184379D01*
X8677448Y4176217D01*
X9101484Y3752181D01*
X9134969Y3690858D01*
X9129985Y3621166D01*
X9088113Y3565233D01*
X9022649Y3540816D01*
X9013803Y3540500D01*
X8616669Y3540500D01*
X8616653Y3540501D01*
X8609057Y3540501D01*
X8450943Y3540501D01*
X8299506Y3499923D01*
X8298215Y3499577D01*
X8298213Y3499576D01*
X8273298Y3485193D01*
X8273299Y3485192D01*
X8161287Y3420523D01*
X8085337Y3344573D01*
X8024013Y3311089D01*
X8021848Y3310638D01*
X7866508Y3279739D01*
X7866498Y3279736D01*
X7720827Y3219398D01*
X7720814Y3219391D01*
X7589711Y3131790D01*
X7589707Y3131787D01*
X7478213Y3020293D01*
X7478210Y3020289D01*
X7390609Y2889186D01*
X7390602Y2889173D01*
X7330264Y2743502D01*
X7330261Y2743490D01*
X7299500Y2588847D01*
X7299500Y2431154D01*
X7330261Y2276511D01*
X7330264Y2276499D01*
X7390602Y2130828D01*
X7390609Y2130815D01*
X7478210Y1999712D01*
X7478213Y1999708D01*
X7589707Y1888214D01*
X7589711Y1888211D01*
X7720814Y1800610D01*
X7720827Y1800603D01*
X7866498Y1740265D01*
X7866503Y1740263D01*
X7892944Y1735004D01*
X7932589Y1727117D01*
X7994500Y1694732D01*
X8029075Y1634016D01*
X8025335Y1564247D01*
X7984468Y1507575D01*
X7919450Y1481994D01*
X7908398Y1481500D01*
X2681229Y1481500D01*
X2614190Y1501185D01*
X2593548Y1517819D01*
X1606819Y2504549D01*
X1573334Y2565872D01*
X1570500Y2592230D01*
X1570500Y3828847D01*
X4489500Y3828847D01*
X4489500Y3671154D01*
X4520261Y3516511D01*
X4520264Y3516499D01*
X4580602Y3370828D01*
X4580609Y3370815D01*
X4668210Y3239712D01*
X4668213Y3239708D01*
X4779707Y3128214D01*
X4779711Y3128211D01*
X4910814Y3040610D01*
X4910827Y3040603D01*
X5056498Y2980265D01*
X5056503Y2980263D01*
X5211153Y2949501D01*
X5211156Y2949500D01*
X5211158Y2949500D01*
X5368844Y2949500D01*
X5368845Y2949501D01*
X5523497Y2980263D01*
X5669179Y3040606D01*
X5800289Y3128211D01*
X5911789Y3239711D01*
X5999394Y3370821D01*
X6059737Y3516503D01*
X6090500Y3671158D01*
X6090500Y3828842D01*
X6090500Y3828845D01*
X6090499Y3828847D01*
X6072555Y3919057D01*
X6059737Y3983497D01*
X6044378Y4020577D01*
X5999397Y4129173D01*
X5999390Y4129186D01*
X5911789Y4260289D01*
X5911786Y4260293D01*
X5800292Y4371787D01*
X5800288Y4371790D01*
X5669185Y4459391D01*
X5669172Y4459398D01*
X5523501Y4519736D01*
X5523489Y4519739D01*
X5368845Y4550500D01*
X5368842Y4550500D01*
X5211158Y4550500D01*
X5211155Y4550500D01*
X5056510Y4519739D01*
X5056498Y4519736D01*
X4910827Y4459398D01*
X4910814Y4459391D01*
X4779711Y4371790D01*
X4779707Y4371787D01*
X4668213Y4260293D01*
X4668210Y4260289D01*
X4580609Y4129186D01*
X4580602Y4129173D01*
X4520264Y3983502D01*
X4520261Y3983490D01*
X4489500Y3828847D01*
X1570500Y3828847D01*
X1570500Y9962153D01*
X1590185Y10029192D01*
X1642989Y10074947D01*
X1670309Y10083770D01*
X1686291Y10086950D01*
X1803497Y10110263D01*
X1949179Y10170606D01*
X2080289Y10258211D01*
X2191789Y10369711D01*
X2279394Y10500821D01*
X2339737Y10646503D01*
X2370500Y10801158D01*
X2370500Y10958842D01*
X2370500Y10958845D01*
X2370499Y10958847D01*
X2339738Y11113490D01*
X2339737Y11113497D01*
X2339735Y11113502D01*
X2279397Y11259173D01*
X2279390Y11259186D01*
X2191789Y11390289D01*
X2191786Y11390293D01*
X2080292Y11501787D01*
X2080288Y11501790D01*
X1949185Y11589391D01*
X1949172Y11589398D01*
X1803501Y11649736D01*
X1803491Y11649739D01*
X1670308Y11676231D01*
X1608397Y11708616D01*
X1573823Y11769332D01*
X1570500Y11797848D01*
X1570500Y18280903D01*
X1590185Y18347942D01*
X1642989Y18393697D01*
X1712147Y18403641D01*
X1775703Y18374616D01*
G37*
%TD.AperFunction*%
%TA.AperFunction,Conductor*%
G36*
X9962742Y2319815D02*
G01*
X9983384Y2303181D01*
X10593383Y1693181D01*
X10626868Y1631858D01*
X10621884Y1562166D01*
X10580012Y1506233D01*
X10514548Y1481816D01*
X10505702Y1481500D01*
X8291602Y1481500D01*
X8224563Y1501185D01*
X8178808Y1553989D01*
X8168864Y1623147D01*
X8197889Y1686703D01*
X8256667Y1724477D01*
X8267411Y1727117D01*
X8300370Y1733674D01*
X8333497Y1740263D01*
X8479179Y1800606D01*
X8610289Y1888211D01*
X8721789Y1999711D01*
X8809394Y2130821D01*
X8864124Y2262953D01*
X8907964Y2317356D01*
X8974258Y2339421D01*
X8978685Y2339500D01*
X9895703Y2339500D01*
X9962742Y2319815D01*
G37*
%TD.AperFunction*%
%TA.AperFunction,Conductor*%
G36*
X24606525Y14953054D02*
G01*
X24742208Y14896853D01*
X24742213Y14896851D01*
X24896863Y14866089D01*
X24896866Y14866088D01*
X24896868Y14866088D01*
X25054553Y14866088D01*
X25065939Y14868354D01*
X25072891Y14869736D01*
X25142482Y14863510D01*
X25197660Y14820648D01*
X25220906Y14754758D01*
X25204839Y14686761D01*
X25204472Y14686121D01*
X25190425Y14661791D01*
X25190424Y14661790D01*
X25190423Y14661785D01*
X25149499Y14509057D01*
X25149499Y14509055D01*
X25149499Y14340954D01*
X25149500Y14340941D01*
X25149500Y13080097D01*
X25129815Y13013058D01*
X25113181Y12992416D01*
X23887584Y11766819D01*
X23826261Y11733334D01*
X23799903Y11730500D01*
X16992848Y11730500D01*
X16925809Y11750185D01*
X16880054Y11802989D01*
X16871231Y11830308D01*
X16844738Y11963492D01*
X16844737Y11963493D01*
X16844737Y11963497D01*
X16823751Y12014163D01*
X16784397Y12109173D01*
X16784390Y12109186D01*
X16735998Y12181609D01*
X16715120Y12248286D01*
X16733604Y12315666D01*
X16785583Y12362357D01*
X16839100Y12374500D01*
X18840825Y12374500D01*
X18846830Y12374822D01*
X18894865Y12377397D01*
X18921222Y12380231D01*
X18974623Y12388884D01*
X19109432Y12439163D01*
X19170756Y12472647D01*
X19170764Y12472651D01*
X19285946Y12558876D01*
X19285955Y12558886D01*
X19286582Y12559345D01*
X19297247Y12563206D01*
X19346674Y12582653D01*
X19382956Y12586553D01*
X19434467Y12597759D01*
X19468697Y12609153D01*
X19536997Y12631884D01*
X19537001Y12631887D01*
X19537004Y12631887D01*
X19658043Y12709675D01*
X19710847Y12755430D01*
X19805067Y12864164D01*
X19864838Y12995041D01*
X19884523Y13062080D01*
X19884524Y13062084D01*
X19897292Y13150894D01*
X19926316Y13214448D01*
X19985094Y13252223D01*
X20006759Y13256533D01*
X20053456Y13261553D01*
X20104967Y13272759D01*
X20139197Y13284153D01*
X20207497Y13306884D01*
X20207501Y13306887D01*
X20207504Y13306887D01*
X20328543Y13384675D01*
X20381347Y13430430D01*
X20475567Y13539164D01*
X20487229Y13564701D01*
X20532982Y13617505D01*
X20600022Y13637191D01*
X20667061Y13617508D01*
X20703126Y13582082D01*
X20778210Y13469712D01*
X20778213Y13469708D01*
X20889707Y13358214D01*
X20889711Y13358211D01*
X21020814Y13270610D01*
X21020827Y13270603D01*
X21156399Y13214448D01*
X21166503Y13210263D01*
X21321153Y13179501D01*
X21321156Y13179500D01*
X21321158Y13179500D01*
X21478844Y13179500D01*
X21478845Y13179501D01*
X21633497Y13210263D01*
X21779179Y13270606D01*
X21893708Y13347133D01*
X21960385Y13368010D01*
X22027765Y13349526D01*
X22050280Y13331711D01*
X22073777Y13308214D01*
X22073781Y13308211D01*
X22204884Y13220610D01*
X22204897Y13220603D01*
X22304130Y13179500D01*
X22350573Y13160263D01*
X22505223Y13129501D01*
X22505226Y13129500D01*
X22505228Y13129500D01*
X22662914Y13129500D01*
X22662915Y13129501D01*
X22817567Y13160263D01*
X22963249Y13220606D01*
X23017022Y13256536D01*
X23091767Y13306479D01*
X23158444Y13327357D01*
X23225824Y13308873D01*
X23229539Y13306485D01*
X23245821Y13295606D01*
X23245824Y13295605D01*
X23245825Y13295604D01*
X23351603Y13251790D01*
X23391503Y13235263D01*
X23517176Y13210265D01*
X23546153Y13204501D01*
X23546156Y13204500D01*
X23546158Y13204500D01*
X23703844Y13204500D01*
X23703845Y13204501D01*
X23858497Y13235263D01*
X24004179Y13295606D01*
X24135289Y13383211D01*
X24246789Y13494711D01*
X24334394Y13625821D01*
X24394737Y13771503D01*
X24425500Y13926158D01*
X24425500Y14083842D01*
X24425500Y14083845D01*
X24425499Y14083847D01*
X24394738Y14238490D01*
X24394737Y14238497D01*
X24381808Y14269711D01*
X24334397Y14384173D01*
X24334390Y14384186D01*
X24246398Y14515875D01*
X24240747Y14533922D01*
X24230523Y14549831D01*
X24226071Y14580793D01*
X24225520Y14582553D01*
X24225500Y14584766D01*
X24225500Y14772352D01*
X24245185Y14839391D01*
X24297989Y14885146D01*
X24325309Y14893969D01*
X24351276Y14899135D01*
X24409324Y14910681D01*
X24511623Y14953055D01*
X24581089Y14960523D01*
X24606525Y14953054D01*
G37*
%TD.AperFunction*%
%TA.AperFunction,Conductor*%
G36*
X21549770Y34560549D02*
G01*
X21556248Y34554517D01*
X22105181Y34005584D01*
X22138666Y33944261D01*
X22141500Y33917903D01*
X22141500Y30247541D01*
X22121815Y30180502D01*
X22105181Y30159860D01*
X21923481Y29978161D01*
X21923479Y29978158D01*
X21887432Y29915721D01*
X21887431Y29915719D01*
X21844423Y29841229D01*
X21843411Y29837453D01*
X21803499Y29688500D01*
X21803499Y29688498D01*
X21803499Y29520397D01*
X21803500Y29520384D01*
X21803500Y27529618D01*
X21803499Y27529614D01*
X21803499Y27371500D01*
X21804434Y27368011D01*
X21804498Y27356454D01*
X21804463Y27356333D01*
X21804500Y27355771D01*
X21804500Y27164470D01*
X21804499Y27164452D01*
X21804499Y26998746D01*
X21804498Y26998746D01*
X21845424Y26846011D01*
X21845425Y26846010D01*
X21862933Y26815686D01*
X21862934Y26815685D01*
X21914820Y26725815D01*
X21924481Y26709083D01*
X22036285Y26597279D01*
X22337181Y26296384D01*
X22370666Y26235061D01*
X22373500Y26208703D01*
X22373500Y25165570D01*
X22373499Y25165552D01*
X22373499Y24999846D01*
X22373498Y24999846D01*
X22414424Y24847111D01*
X22414425Y24847110D01*
X22435504Y24810601D01*
X22435505Y24810600D01*
X22493477Y24710188D01*
X22493481Y24710183D01*
X22612349Y24591315D01*
X22612355Y24591310D01*
X24753181Y22450484D01*
X24786666Y22389161D01*
X24789500Y22362803D01*
X24789500Y18971397D01*
X24769815Y18904358D01*
X24753181Y18883716D01*
X23588871Y17719407D01*
X23527548Y17685922D01*
X23517386Y17684150D01*
X23515627Y17683919D01*
X23474703Y17672954D01*
X23474703Y17672953D01*
X23437435Y17662967D01*
X23362898Y17642995D01*
X23362893Y17642992D01*
X23225974Y17563943D01*
X23225966Y17563937D01*
X21902181Y16240151D01*
X21840858Y16206666D01*
X21771166Y16211650D01*
X21715233Y16253522D01*
X21690816Y16318986D01*
X21690500Y16327832D01*
X21690500Y16368845D01*
X21690499Y16368847D01*
X21670436Y16469711D01*
X21659737Y16523497D01*
X21627706Y16600828D01*
X21599397Y16669173D01*
X21599390Y16669186D01*
X21511789Y16800289D01*
X21511786Y16800293D01*
X21400292Y16911787D01*
X21400288Y16911790D01*
X21269185Y16999391D01*
X21269172Y16999398D01*
X21123501Y17059736D01*
X21123489Y17059739D01*
X20968845Y17090500D01*
X20968842Y17090500D01*
X20811158Y17090500D01*
X20723690Y17073102D01*
X20654099Y17079330D01*
X20598922Y17122194D01*
X20575678Y17188084D01*
X20575500Y17194720D01*
X20575500Y18524511D01*
X20595185Y18591550D01*
X20647989Y18637305D01*
X20717147Y18647249D01*
X20746948Y18639074D01*
X20816503Y18610263D01*
X20967312Y18580265D01*
X20971153Y18579501D01*
X20971156Y18579500D01*
X20971158Y18579500D01*
X21128844Y18579500D01*
X21128845Y18579501D01*
X21283497Y18610263D01*
X21429179Y18670606D01*
X21560289Y18758211D01*
X21671789Y18869711D01*
X21759394Y19000821D01*
X21819737Y19146503D01*
X21850500Y19301158D01*
X21850500Y19458842D01*
X21850500Y19458845D01*
X21850499Y19458847D01*
X21819738Y19613490D01*
X21819737Y19613497D01*
X21819735Y19613502D01*
X21759397Y19759173D01*
X21759390Y19759186D01*
X21671789Y19890289D01*
X21671786Y19890293D01*
X21560292Y20001787D01*
X21560288Y20001790D01*
X21429185Y20089391D01*
X21429172Y20089398D01*
X21283501Y20149736D01*
X21283489Y20149739D01*
X21128845Y20180500D01*
X21128842Y20180500D01*
X20971158Y20180500D01*
X20971155Y20180500D01*
X20816510Y20149739D01*
X20816498Y20149736D01*
X20746952Y20120929D01*
X20677482Y20113460D01*
X20615003Y20144736D01*
X20579352Y20204825D01*
X20575500Y20235490D01*
X20575500Y21599658D01*
X20595185Y21666697D01*
X20647989Y21712452D01*
X20717147Y21722396D01*
X20746950Y21714220D01*
X20756503Y21710263D01*
X20911153Y21679501D01*
X20911156Y21679500D01*
X20911158Y21679500D01*
X21068844Y21679500D01*
X21068845Y21679501D01*
X21223497Y21710263D01*
X21336166Y21756933D01*
X21369172Y21770603D01*
X21369172Y21770604D01*
X21369179Y21770606D01*
X21500289Y21858211D01*
X21611789Y21969711D01*
X21699394Y22100821D01*
X21759737Y22246503D01*
X21790500Y22401158D01*
X21790500Y22558842D01*
X21790500Y22558845D01*
X21790499Y22558847D01*
X21759738Y22713490D01*
X21759737Y22713497D01*
X21734477Y22774480D01*
X21699397Y22859173D01*
X21699390Y22859186D01*
X21611789Y22990289D01*
X21611786Y22990293D01*
X21500292Y23101787D01*
X21500288Y23101790D01*
X21369185Y23189391D01*
X21369172Y23189398D01*
X21223501Y23249736D01*
X21223489Y23249739D01*
X21068845Y23280500D01*
X21068842Y23280500D01*
X20911158Y23280500D01*
X20911155Y23280500D01*
X20756510Y23249739D01*
X20756503Y23249738D01*
X20746947Y23245779D01*
X20677477Y23238314D01*
X20614999Y23269593D01*
X20579350Y23329683D01*
X20575500Y23360343D01*
X20575500Y29330490D01*
X20575500Y29330500D01*
X20565752Y29421162D01*
X20578156Y29489917D01*
X20585931Y29503292D01*
X20634394Y29575821D01*
X20694737Y29721503D01*
X20725500Y29876158D01*
X20725500Y30033842D01*
X20725500Y30033845D01*
X20725499Y30033847D01*
X20710774Y30107874D01*
X20694737Y30188497D01*
X20694735Y30188502D01*
X20634396Y30334175D01*
X20634395Y30334177D01*
X20583300Y30410646D01*
X20562422Y30477324D01*
X20563664Y30497185D01*
X20569370Y30536865D01*
X20575500Y30579500D01*
X20575500Y33027305D01*
X20564064Y33134219D01*
X20552970Y33185486D01*
X20519178Y33287571D01*
X20502761Y33313237D01*
X20483221Y33380318D01*
X20503049Y33447315D01*
X20519535Y33467728D01*
X21230581Y34178772D01*
X21305689Y34308862D01*
X21344567Y34453959D01*
X21344567Y34466836D01*
X21364252Y34533875D01*
X21417056Y34579630D01*
X21486214Y34589574D01*
X21549770Y34560549D01*
G37*
%TD.AperFunction*%
%TA.AperFunction,Conductor*%
G36*
X2565330Y21274134D02*
G01*
X2594301Y21244382D01*
X2594347Y21244419D01*
X2594783Y21243888D01*
X2596811Y21241805D01*
X2598209Y21239713D01*
X2598213Y21239708D01*
X2709707Y21128214D01*
X2709711Y21128211D01*
X2840814Y21040610D01*
X2840827Y21040603D01*
X2936062Y21001156D01*
X2986503Y20980263D01*
X3046263Y20968376D01*
X3141849Y20949362D01*
X3203760Y20916977D01*
X3205339Y20915426D01*
X4059662Y20061103D01*
X4059672Y20061092D01*
X4064002Y20056762D01*
X4064003Y20056761D01*
X4175807Y19944957D01*
X4175809Y19944956D01*
X4175813Y19944953D01*
X4312732Y19865904D01*
X4312739Y19865900D01*
X4418901Y19837454D01*
X4418900Y19837454D01*
X4428740Y19834818D01*
X4465465Y19824977D01*
X4465466Y19824977D01*
X4534369Y19824977D01*
X4601408Y19805292D01*
X4622050Y19788658D01*
X5498526Y18912181D01*
X5532011Y18850858D01*
X5527027Y18781166D01*
X5485155Y18725233D01*
X5419691Y18700816D01*
X5410845Y18700500D01*
X3200097Y18700500D01*
X3133058Y18720185D01*
X3112416Y18736819D01*
X2206819Y19642416D01*
X2173334Y19703739D01*
X2170500Y19730097D01*
X2170500Y20500235D01*
X2190185Y20567274D01*
X2191398Y20569126D01*
X2279390Y20700815D01*
X2279390Y20700816D01*
X2279394Y20700821D01*
X2339737Y20846503D01*
X2370500Y21001158D01*
X2370500Y21158842D01*
X2370498Y21158851D01*
X2370312Y21160739D01*
X2370500Y21161731D01*
X2370500Y21164934D01*
X2371107Y21164934D01*
X2383324Y21229387D01*
X2431384Y21280102D01*
X2499233Y21296783D01*
X2565330Y21274134D01*
G37*
%TD.AperFunction*%
%TA.AperFunction,Conductor*%
G36*
X6387674Y33864631D02*
G01*
X6413109Y33862812D01*
X6421127Y33856810D01*
X6430881Y33854529D01*
X6448632Y33836219D01*
X6469042Y33820940D01*
X6473837Y33810220D01*
X6479515Y33804364D01*
X6487456Y33782021D01*
X6488494Y33782335D01*
X6490264Y33776499D01*
X6550602Y33630828D01*
X6550609Y33630815D01*
X6638210Y33499712D01*
X6638213Y33499708D01*
X6749707Y33388214D01*
X6749711Y33388211D01*
X6880814Y33300610D01*
X6880827Y33300603D01*
X7026498Y33240265D01*
X7026503Y33240263D01*
X7181153Y33209501D01*
X7181156Y33209500D01*
X7181158Y33209500D01*
X7338844Y33209500D01*
X7338845Y33209501D01*
X7493497Y33240263D01*
X7639179Y33300606D01*
X7639844Y33301050D01*
X7770286Y33388209D01*
X7770285Y33388209D01*
X7770289Y33388211D01*
X7814344Y33432267D01*
X7875666Y33465752D01*
X7945357Y33460768D01*
X7949471Y33459150D01*
X8004724Y33436263D01*
X8149908Y33407384D01*
X8159374Y33405501D01*
X8159377Y33405500D01*
X8159379Y33405500D01*
X8317064Y33405500D01*
X8328458Y33407767D01*
X8351308Y33412312D01*
X8372293Y33410435D01*
X8393147Y33413433D01*
X8406393Y33407384D01*
X8420898Y33406086D01*
X8437537Y33393161D01*
X8456703Y33384408D01*
X8464576Y33372158D01*
X8476076Y33363224D01*
X8483085Y33343356D01*
X8494477Y33325630D01*
X8498011Y33301050D01*
X8499322Y33297334D01*
X8499500Y33290695D01*
X8499500Y33255098D01*
X8479815Y33188059D01*
X8463181Y33167417D01*
X5476367Y30180604D01*
X5476361Y30180596D01*
X5434376Y30107874D01*
X5434376Y30107873D01*
X5397309Y30043671D01*
X5356385Y29890943D01*
X5356385Y29890941D01*
X5356385Y29866478D01*
X5336700Y29799439D01*
X5335487Y29797587D01*
X5247495Y29665899D01*
X5247488Y29665886D01*
X5187150Y29520215D01*
X5187147Y29520203D01*
X5156386Y29365560D01*
X5156386Y29207867D01*
X5187147Y29053224D01*
X5187150Y29053212D01*
X5247488Y28907541D01*
X5247495Y28907528D01*
X5322936Y28794623D01*
X5343814Y28727945D01*
X5325329Y28660565D01*
X5307515Y28638051D01*
X3889892Y27220428D01*
X3828569Y27186943D01*
X3758877Y27191927D01*
X3702944Y27233799D01*
X3680594Y27283918D01*
X3669738Y27338490D01*
X3669737Y27338497D01*
X3656067Y27371500D01*
X3609397Y27484173D01*
X3609390Y27484186D01*
X3521789Y27615289D01*
X3521786Y27615293D01*
X3410292Y27726787D01*
X3410288Y27726790D01*
X3279185Y27814391D01*
X3279172Y27814398D01*
X3133501Y27874736D01*
X3133489Y27874739D01*
X2978845Y27905500D01*
X2978842Y27905500D01*
X2821158Y27905500D01*
X2821155Y27905500D01*
X2666510Y27874739D01*
X2666498Y27874736D01*
X2520827Y27814398D01*
X2520814Y27814391D01*
X2389711Y27726790D01*
X2389707Y27726787D01*
X2278213Y27615293D01*
X2278210Y27615289D01*
X2190609Y27484186D01*
X2190602Y27484173D01*
X2130264Y27338502D01*
X2130261Y27338490D01*
X2099500Y27183847D01*
X2099500Y27026154D01*
X2130261Y26871511D01*
X2130264Y26871499D01*
X2190602Y26725828D01*
X2190609Y26725815D01*
X2278210Y26594712D01*
X2278213Y26594708D01*
X2389707Y26483214D01*
X2389711Y26483211D01*
X2520814Y26395610D01*
X2520827Y26395603D01*
X2666498Y26335265D01*
X2666503Y26335263D01*
X2821153Y26304501D01*
X2821156Y26304500D01*
X2821158Y26304500D01*
X2978844Y26304500D01*
X2978845Y26304501D01*
X3133497Y26335263D01*
X3200631Y26363071D01*
X3253048Y26384782D01*
X3322517Y26392251D01*
X3384996Y26360976D01*
X3420648Y26300887D01*
X3424500Y26270221D01*
X3424500Y23341670D01*
X3424499Y23341652D01*
X3424499Y23175946D01*
X3424498Y23175946D01*
X3465423Y23023214D01*
X3465424Y23023213D01*
X3481904Y22994669D01*
X3544481Y22886283D01*
X3663349Y22767415D01*
X3663355Y22767410D01*
X3830600Y22600165D01*
X3864085Y22538842D01*
X3859101Y22469150D01*
X3817229Y22413217D01*
X3751765Y22388800D01*
X3683492Y22403652D01*
X3674028Y22409382D01*
X3599185Y22459391D01*
X3599172Y22459398D01*
X3453501Y22519736D01*
X3453489Y22519739D01*
X3298845Y22550500D01*
X3298842Y22550500D01*
X3141158Y22550500D01*
X3141155Y22550500D01*
X2986510Y22519739D01*
X2986498Y22519736D01*
X2840827Y22459398D01*
X2840814Y22459391D01*
X2709711Y22371790D01*
X2709707Y22371787D01*
X2598213Y22260293D01*
X2598210Y22260289D01*
X2510609Y22129186D01*
X2510602Y22129173D01*
X2450264Y21983502D01*
X2450261Y21983490D01*
X2419500Y21828847D01*
X2419500Y21671157D01*
X2419688Y21669248D01*
X2419500Y21668257D01*
X2419500Y21665066D01*
X2418895Y21665066D01*
X2406669Y21600602D01*
X2358603Y21549892D01*
X2290752Y21533218D01*
X2224658Y21555875D01*
X2195698Y21585619D01*
X2195653Y21585581D01*
X2195213Y21586117D01*
X2193186Y21588199D01*
X2191789Y21590289D01*
X2191786Y21590293D01*
X2080292Y21701787D01*
X2080288Y21701790D01*
X1949185Y21789391D01*
X1949172Y21789398D01*
X1803501Y21849736D01*
X1803491Y21849739D01*
X1670308Y21876231D01*
X1608397Y21908616D01*
X1573823Y21969332D01*
X1570500Y21997848D01*
X1570500Y29570501D01*
X1590185Y29637540D01*
X1642989Y29683295D01*
X1694500Y29694501D01*
X2487871Y29694501D01*
X2487872Y29694501D01*
X2547483Y29700909D01*
X2682331Y29751204D01*
X2797546Y29837454D01*
X2883796Y29952669D01*
X2934091Y30087517D01*
X2940500Y30147127D01*
X2940499Y31242872D01*
X2934091Y31302483D01*
X2883796Y31437331D01*
X2874975Y31449114D01*
X2850558Y31514577D01*
X2859679Y31570872D01*
X2902051Y31673165D01*
X2940500Y31866459D01*
X2940500Y32063541D01*
X2940500Y32063544D01*
X2938877Y32071701D01*
X2939584Y32079614D01*
X2936808Y32087060D01*
X2942652Y32113919D01*
X2945101Y32141293D01*
X2950354Y32149309D01*
X2951665Y32155332D01*
X2972813Y32183580D01*
X2986423Y32197188D01*
X3047749Y32230668D01*
X3074098Y32233500D01*
X3274431Y32233500D01*
X3274447Y32233499D01*
X3282043Y32233499D01*
X3440154Y32233499D01*
X3440157Y32233499D01*
X3592885Y32274423D01*
X3643004Y32303361D01*
X3729816Y32353480D01*
X3841620Y32465284D01*
X3841621Y32465286D01*
X4015968Y32639633D01*
X4077291Y32673116D01*
X4103648Y32675950D01*
X4788331Y32675950D01*
X4788347Y32675949D01*
X4795943Y32675949D01*
X4954054Y32675949D01*
X4954057Y32675949D01*
X5106785Y32716873D01*
X5171922Y32754480D01*
X5243716Y32795930D01*
X5355520Y32907734D01*
X5355520Y32907736D01*
X5365724Y32917939D01*
X5365727Y32917944D01*
X6282098Y33834314D01*
X6290884Y33839112D01*
X6297011Y33847036D01*
X6321037Y33855576D01*
X6343417Y33867796D01*
X6353408Y33867082D01*
X6362846Y33870436D01*
X6387674Y33864631D01*
G37*
%TD.AperFunction*%
%TA.AperFunction,Conductor*%
G36*
X27555996Y38094675D02*
G01*
X27591648Y38034586D01*
X27595500Y38003920D01*
X27595500Y32797340D01*
X27575815Y32730301D01*
X27559181Y32709659D01*
X26914481Y32064960D01*
X26914475Y32064952D01*
X26880152Y32005501D01*
X26880152Y32005499D01*
X26835423Y31928028D01*
X26835423Y31928027D01*
X26794499Y31775299D01*
X26794499Y31775297D01*
X26794275Y31774461D01*
X26757910Y31714801D01*
X26695063Y31684272D01*
X26625687Y31692567D01*
X26571809Y31737052D01*
X26550535Y31803604D01*
X26550500Y31806555D01*
X26550500Y37429903D01*
X26570185Y37496942D01*
X26586819Y37517584D01*
X26824838Y37755603D01*
X27064662Y37995428D01*
X27125983Y38028911D01*
X27128150Y38029362D01*
X27186085Y38040887D01*
X27283497Y38060263D01*
X27424049Y38118482D01*
X27493517Y38125950D01*
X27555996Y38094675D01*
G37*
%TD.AperFunction*%
%TA.AperFunction,Conductor*%
G36*
X4720942Y34987815D02*
G01*
X4766697Y34935011D01*
X4776641Y34865853D01*
X4747616Y34802297D01*
X4741584Y34795819D01*
X4260034Y34314269D01*
X4198711Y34280784D01*
X4172353Y34277950D01*
X3724120Y34277950D01*
X3724104Y34277951D01*
X3716508Y34277951D01*
X3558393Y34277951D01*
X3418186Y34240383D01*
X3405661Y34237026D01*
X3268737Y34157972D01*
X3268731Y34157968D01*
X3043618Y33932854D01*
X2982295Y33899369D01*
X2912603Y33904353D01*
X2856670Y33946225D01*
X2832253Y34011689D01*
X2841376Y34067988D01*
X2901570Y34213311D01*
X2901572Y34213319D01*
X2939999Y34406505D01*
X2940000Y34406508D01*
X2940000Y34603492D01*
X2939403Y34609554D01*
X2940618Y34609674D01*
X2946269Y34672857D01*
X2989130Y34728037D01*
X3055019Y34751284D01*
X3123016Y34735219D01*
X3130552Y34730564D01*
X3146549Y34719875D01*
X3146562Y34719868D01*
X3292233Y34659530D01*
X3292238Y34659528D01*
X3438447Y34630445D01*
X3446888Y34628766D01*
X3446891Y34628765D01*
X3446893Y34628765D01*
X3604579Y34628765D01*
X3604580Y34628766D01*
X3759232Y34659528D01*
X3904914Y34719871D01*
X4036024Y34807476D01*
X4147524Y34918976D01*
X4169851Y34952392D01*
X4223462Y34997195D01*
X4272953Y35007500D01*
X4653903Y35007500D01*
X4720942Y34987815D01*
G37*
%TD.AperFunction*%
%TA.AperFunction,Conductor*%
G36*
X18649842Y45259815D02*
G01*
X18670484Y45243181D01*
X19175916Y44737749D01*
X19209401Y44676426D01*
X19212235Y44650068D01*
X19212235Y41929226D01*
X19212234Y41929222D01*
X19212234Y41771108D01*
X19223625Y41728597D01*
X19224321Y41715672D01*
X19223872Y41713773D01*
X19224500Y41709006D01*
X19224500Y41307470D01*
X19224499Y41307452D01*
X19224499Y41141746D01*
X19224498Y41141746D01*
X19265423Y40989015D01*
X19286760Y40952058D01*
X19286762Y40952056D01*
X19344479Y40852086D01*
X19344481Y40852083D01*
X19463349Y40733215D01*
X19463355Y40733210D01*
X19980798Y40215767D01*
X20014283Y40154444D01*
X20009299Y40084752D01*
X19979706Y40039326D01*
X19971515Y40031336D01*
X19964711Y40026789D01*
X19879180Y39941259D01*
X19878649Y39940740D01*
X19848440Y39924727D01*
X19818419Y39908334D01*
X19817285Y39908213D01*
X19816917Y39908017D01*
X19816104Y39908086D01*
X19792060Y39905500D01*
X16736669Y39905500D01*
X16736653Y39905501D01*
X16729057Y39905501D01*
X16570943Y39905501D01*
X16459159Y39875548D01*
X16418214Y39864577D01*
X16402448Y39855474D01*
X16402437Y39855468D01*
X16400883Y39854570D01*
X16281284Y39785520D01*
X16268850Y39773087D01*
X16256508Y39765475D01*
X16236225Y39759928D01*
X16217771Y39749852D01*
X16203203Y39750895D01*
X16189114Y39747041D01*
X16169052Y39753340D01*
X16148080Y39754841D01*
X16132618Y39764779D01*
X16122453Y39767970D01*
X16116438Y39775178D01*
X16103740Y39783339D01*
X16085292Y39801787D01*
X16085288Y39801790D01*
X15954185Y39889391D01*
X15954172Y39889398D01*
X15808501Y39949736D01*
X15808489Y39949739D01*
X15653845Y39980500D01*
X15653842Y39980500D01*
X15496158Y39980500D01*
X15496155Y39980500D01*
X15341510Y39949739D01*
X15341498Y39949736D01*
X15195828Y39889398D01*
X15195812Y39889389D01*
X15175096Y39875547D01*
X15108418Y39854670D01*
X15041038Y39873156D01*
X15037316Y39875548D01*
X14979184Y39914391D01*
X14979181Y39914393D01*
X14979179Y39914394D01*
X14979176Y39914396D01*
X14979171Y39914398D01*
X14833501Y39974736D01*
X14833489Y39974739D01*
X14678845Y40005500D01*
X14678842Y40005500D01*
X14521158Y40005500D01*
X14521155Y40005500D01*
X14366510Y39974739D01*
X14366498Y39974736D01*
X14220827Y39914398D01*
X14220814Y39914391D01*
X14089711Y39826790D01*
X14089707Y39826787D01*
X13978213Y39715293D01*
X13978210Y39715289D01*
X13890609Y39584186D01*
X13890602Y39584173D01*
X13830264Y39438502D01*
X13830261Y39438490D01*
X13799500Y39283847D01*
X13799500Y39126154D01*
X13830261Y38971511D01*
X13830264Y38971499D01*
X13890602Y38825828D01*
X13890609Y38825815D01*
X13978210Y38694712D01*
X13978213Y38694708D01*
X14089707Y38583214D01*
X14089711Y38583211D01*
X14220814Y38495610D01*
X14220827Y38495603D01*
X14366498Y38435265D01*
X14366503Y38435263D01*
X14521158Y38404500D01*
X14521847Y38404363D01*
X14583758Y38371978D01*
X14585337Y38370427D01*
X14857284Y38098480D01*
X14857286Y38098479D01*
X14857290Y38098476D01*
X14994209Y38019427D01*
X14994212Y38019425D01*
X14994216Y38019423D01*
X15146943Y37978499D01*
X15146945Y37978499D01*
X15312654Y37978499D01*
X15312670Y37978500D01*
X15837331Y37978500D01*
X15837347Y37978499D01*
X15844943Y37978499D01*
X16003054Y37978499D01*
X16003057Y37978499D01*
X16155785Y38019423D01*
X16214775Y38053481D01*
X16292716Y38098480D01*
X16404520Y38210284D01*
X16404520Y38210286D01*
X16414724Y38220489D01*
X16414727Y38220494D01*
X16862416Y38668181D01*
X16923739Y38701666D01*
X16950097Y38704500D01*
X20049684Y38704500D01*
X20097136Y38695061D01*
X20203138Y38651154D01*
X20241503Y38635263D01*
X20373691Y38608969D01*
X20396153Y38604501D01*
X20396156Y38604500D01*
X20396158Y38604500D01*
X20553842Y38604500D01*
X20576308Y38608969D01*
X20597292Y38607092D01*
X20618147Y38610090D01*
X20631393Y38604041D01*
X20645898Y38602743D01*
X20662537Y38589818D01*
X20681703Y38581065D01*
X20689576Y38568815D01*
X20701076Y38559881D01*
X20708085Y38540013D01*
X20719477Y38522287D01*
X20723011Y38497708D01*
X20724322Y38493992D01*
X20724500Y38487352D01*
X20724500Y38311613D01*
X20724499Y38311595D01*
X20724499Y38304000D01*
X20724499Y38145886D01*
X20726274Y38139260D01*
X20730500Y38107167D01*
X20730500Y37989071D01*
X20710815Y37922032D01*
X20658011Y37876277D01*
X20588853Y37866333D01*
X20564349Y37873054D01*
X20564324Y37872969D01*
X20561193Y37873919D01*
X20559063Y37874503D01*
X20558502Y37874736D01*
X20558489Y37874739D01*
X20403845Y37905500D01*
X20403842Y37905500D01*
X20246158Y37905500D01*
X20246155Y37905500D01*
X20091510Y37874739D01*
X20091498Y37874736D01*
X19945827Y37814398D01*
X19945814Y37814391D01*
X19814711Y37726790D01*
X19814707Y37726787D01*
X19703213Y37615293D01*
X19703210Y37615289D01*
X19615609Y37484186D01*
X19615602Y37484173D01*
X19555264Y37338502D01*
X19555261Y37338490D01*
X19524500Y37183847D01*
X19524500Y37026154D01*
X19555261Y36871511D01*
X19555264Y36871499D01*
X19615602Y36725828D01*
X19615609Y36725815D01*
X19703210Y36594712D01*
X19703213Y36594708D01*
X19717740Y36580181D01*
X19751225Y36518858D01*
X19746241Y36449166D01*
X19717740Y36404819D01*
X19703213Y36390293D01*
X19703210Y36390289D01*
X19615609Y36259186D01*
X19615602Y36259173D01*
X19555264Y36113502D01*
X19555261Y36113490D01*
X19524500Y35958847D01*
X19524500Y35801154D01*
X19548463Y35680685D01*
X19542236Y35611094D01*
X19499373Y35555916D01*
X19433483Y35532672D01*
X19426846Y35532494D01*
X17978088Y35532494D01*
X17962599Y35536644D01*
X17948855Y35535989D01*
X17916089Y35549106D01*
X17888052Y35565293D01*
X17833714Y35596665D01*
X17802690Y35614577D01*
X17649962Y35655501D01*
X17491848Y35655501D01*
X17484252Y35655501D01*
X17484236Y35655500D01*
X17404766Y35655500D01*
X17337727Y35675185D01*
X17335875Y35676398D01*
X17204185Y35764391D01*
X17204172Y35764398D01*
X17058501Y35824736D01*
X17058489Y35824739D01*
X16903845Y35855500D01*
X16903842Y35855500D01*
X16746158Y35855500D01*
X16746155Y35855500D01*
X16591510Y35824739D01*
X16591498Y35824736D01*
X16445827Y35764398D01*
X16445814Y35764391D01*
X16314711Y35676790D01*
X16314707Y35676787D01*
X16203213Y35565293D01*
X16203210Y35565289D01*
X16115609Y35434186D01*
X16115604Y35434177D01*
X16065745Y35313804D01*
X16021904Y35259401D01*
X15955610Y35237336D01*
X15887911Y35254615D01*
X15863503Y35273576D01*
X15860292Y35276787D01*
X15860288Y35276790D01*
X15729185Y35364391D01*
X15729172Y35364398D01*
X15583501Y35424736D01*
X15583489Y35424739D01*
X15428845Y35455500D01*
X15428842Y35455500D01*
X15271158Y35455500D01*
X15271155Y35455500D01*
X15116510Y35424739D01*
X15116498Y35424736D01*
X14970827Y35364398D01*
X14970814Y35364391D01*
X14839125Y35276398D01*
X14772447Y35255520D01*
X14770234Y35255500D01*
X13389968Y35255500D01*
X13382360Y35255501D01*
X13382357Y35255501D01*
X13249499Y35255501D01*
X13182460Y35275186D01*
X13136705Y35327990D01*
X13136703Y35328004D01*
X13125500Y35379501D01*
X13125500Y36319057D01*
X13122592Y36329912D01*
X13114725Y36359271D01*
X13110500Y36391366D01*
X13110500Y37033847D01*
X13849500Y37033847D01*
X13849500Y36876154D01*
X13880261Y36721511D01*
X13880264Y36721499D01*
X13940602Y36575828D01*
X13940609Y36575815D01*
X14028210Y36444712D01*
X14028213Y36444708D01*
X14139707Y36333214D01*
X14139711Y36333211D01*
X14270814Y36245610D01*
X14270827Y36245603D01*
X14404369Y36190289D01*
X14416503Y36185263D01*
X14571153Y36154501D01*
X14571156Y36154500D01*
X14571158Y36154500D01*
X14728844Y36154500D01*
X14728845Y36154501D01*
X14883497Y36185263D01*
X15029179Y36245606D01*
X15160289Y36333211D01*
X15271789Y36444711D01*
X15359394Y36575821D01*
X15419737Y36721503D01*
X15450500Y36876158D01*
X15450500Y37033842D01*
X15450500Y37033845D01*
X15450499Y37033847D01*
X15437004Y37101691D01*
X15419737Y37188497D01*
X15380315Y37283672D01*
X15359397Y37334173D01*
X15359390Y37334186D01*
X15271789Y37465289D01*
X15271786Y37465293D01*
X15160292Y37576787D01*
X15160288Y37576790D01*
X15029185Y37664391D01*
X15029172Y37664398D01*
X14883501Y37724736D01*
X14883489Y37724739D01*
X14728845Y37755500D01*
X14728842Y37755500D01*
X14571158Y37755500D01*
X14571155Y37755500D01*
X14416510Y37724739D01*
X14416498Y37724736D01*
X14270827Y37664398D01*
X14270814Y37664391D01*
X14139711Y37576790D01*
X14139707Y37576787D01*
X14028213Y37465293D01*
X14028210Y37465289D01*
X13940609Y37334186D01*
X13940602Y37334173D01*
X13880264Y37188502D01*
X13880261Y37188490D01*
X13849500Y37033847D01*
X13110500Y37033847D01*
X13110500Y38011665D01*
X13130185Y38078704D01*
X13165611Y38114768D01*
X13171168Y38118481D01*
X13219289Y38150634D01*
X13330789Y38262134D01*
X13418394Y38393244D01*
X13478737Y38538926D01*
X13509500Y38693581D01*
X13509500Y38851265D01*
X13509500Y38851268D01*
X13509499Y38851270D01*
X13487176Y38963494D01*
X13478737Y39005920D01*
X13428935Y39126154D01*
X13418397Y39151596D01*
X13418390Y39151609D01*
X13330789Y39282712D01*
X13330786Y39282716D01*
X13269575Y39343927D01*
X13236090Y39405250D01*
X13241074Y39474942D01*
X13269575Y39519289D01*
X13366520Y39616234D01*
X13428756Y39724031D01*
X13445577Y39753165D01*
X13486501Y39905893D01*
X13486501Y40064007D01*
X13486501Y40071602D01*
X13486500Y40071620D01*
X13486500Y44999244D01*
X13506185Y45066283D01*
X13558989Y45112038D01*
X13628147Y45121982D01*
X13657952Y45113805D01*
X13666503Y45110263D01*
X13821153Y45079501D01*
X13821156Y45079500D01*
X13821158Y45079500D01*
X13978844Y45079500D01*
X13978845Y45079501D01*
X14133497Y45110263D01*
X14279179Y45170606D01*
X14323170Y45200000D01*
X14410875Y45258602D01*
X14477553Y45279480D01*
X14479766Y45279500D01*
X18582803Y45279500D01*
X18649842Y45259815D01*
G37*
%TD.AperFunction*%
%TA.AperFunction,Conductor*%
G36*
X7492539Y41959815D02*
G01*
X7538294Y41907011D01*
X7549500Y41855500D01*
X7549500Y39034604D01*
X7540062Y38987156D01*
X7530263Y38963497D01*
X7530262Y38963494D01*
X7530260Y38963489D01*
X7499500Y38808847D01*
X7499500Y38651154D01*
X7530261Y38496511D01*
X7530264Y38496499D01*
X7590602Y38350828D01*
X7590609Y38350815D01*
X7678210Y38219712D01*
X7678213Y38219708D01*
X7789707Y38108214D01*
X7789711Y38108211D01*
X7920814Y38020610D01*
X7920827Y38020603D01*
X8022477Y37978499D01*
X8066503Y37960263D01*
X8160645Y37941537D01*
X8200691Y37933571D01*
X8228814Y37918861D01*
X8257703Y37905667D01*
X8259560Y37902778D01*
X8262602Y37901186D01*
X8278308Y37873604D01*
X8295477Y37846889D01*
X8296137Y37842295D01*
X8297176Y37840471D01*
X8300500Y37811954D01*
X8300500Y37568077D01*
X8280815Y37501038D01*
X8228011Y37455283D01*
X8158853Y37445339D01*
X8095297Y37474364D01*
X8088819Y37480396D01*
X7982466Y37586749D01*
X7982462Y37586752D01*
X7818684Y37696186D01*
X7818671Y37696193D01*
X7636693Y37771570D01*
X7636681Y37771573D01*
X7443495Y37810000D01*
X7045000Y37810000D01*
X7045000Y37110000D01*
X6545000Y37110000D01*
X6545000Y37648216D01*
X6564685Y37715255D01*
X6607000Y37755603D01*
X6648365Y37779485D01*
X6755515Y37886635D01*
X6831281Y38017865D01*
X6870500Y38164234D01*
X6870500Y38315766D01*
X6831281Y38462135D01*
X6755515Y38593365D01*
X6648365Y38700515D01*
X6582750Y38738398D01*
X6517136Y38776281D01*
X6395614Y38808842D01*
X6370766Y38815500D01*
X6219234Y38815500D01*
X6072863Y38776281D01*
X5941635Y38700515D01*
X5941632Y38700513D01*
X5834487Y38593368D01*
X5834485Y38593365D01*
X5758719Y38462137D01*
X5751518Y38435262D01*
X5719500Y38315766D01*
X5719500Y38164234D01*
X5724416Y38145888D01*
X5758719Y38017864D01*
X5791976Y37960263D01*
X5834485Y37886635D01*
X5834486Y37886634D01*
X5838549Y37879597D01*
X5836346Y37878326D01*
X5856959Y37825017D01*
X5842923Y37756572D01*
X5794112Y37706580D01*
X5780845Y37700134D01*
X5771324Y37696191D01*
X5771315Y37696186D01*
X5607537Y37586752D01*
X5607533Y37586749D01*
X5468251Y37447467D01*
X5468248Y37447463D01*
X5358814Y37283685D01*
X5358807Y37283672D01*
X5283430Y37101693D01*
X5283430Y37101691D01*
X5275138Y37060000D01*
X6078012Y37060000D01*
X6060795Y37050060D01*
X6004940Y36994205D01*
X5965444Y36925796D01*
X5945000Y36849496D01*
X5945000Y36770504D01*
X5965444Y36694204D01*
X6004940Y36625795D01*
X6021235Y36609500D01*
X4422759Y36609500D01*
X4390666Y36613725D01*
X4363753Y36620937D01*
X4328057Y36630501D01*
X4169943Y36630501D01*
X4162347Y36630501D01*
X4162331Y36630500D01*
X3863694Y36630500D01*
X3854677Y36630514D01*
X3853735Y36630766D01*
X3695621Y36630766D01*
X3695617Y36630765D01*
X3355849Y36630765D01*
X3257929Y36630765D01*
X3294556Y36694204D01*
X3315000Y36770504D01*
X3315000Y36849496D01*
X3294556Y36925796D01*
X3255060Y36994205D01*
X3199205Y37050060D01*
X3181988Y37060000D01*
X3984862Y37060000D01*
X3976569Y37101691D01*
X3976569Y37101693D01*
X3901192Y37283672D01*
X3901185Y37283685D01*
X3791751Y37447463D01*
X3791748Y37447467D01*
X3652466Y37586749D01*
X3652462Y37586752D01*
X3488684Y37696186D01*
X3488671Y37696193D01*
X3306693Y37771570D01*
X3306681Y37771573D01*
X3113495Y37810000D01*
X2865000Y37810000D01*
X2865000Y37110000D01*
X2365000Y37110000D01*
X2365000Y37810000D01*
X2116504Y37810000D01*
X1923318Y37771573D01*
X1923306Y37771570D01*
X1741952Y37696451D01*
X1672483Y37688982D01*
X1610004Y37720258D01*
X1574352Y37780347D01*
X1570500Y37811012D01*
X1570500Y40667770D01*
X1590185Y40734809D01*
X1606819Y40755451D01*
X2794549Y41943181D01*
X2855872Y41976666D01*
X2882230Y41979500D01*
X7425500Y41979500D01*
X7492539Y41959815D01*
G37*
%TD.AperFunction*%
%TA.AperFunction,Conductor*%
G36*
X27285942Y55509815D02*
G01*
X27306584Y55493181D01*
X28762181Y54037584D01*
X28795666Y53976261D01*
X28798500Y53949903D01*
X28798500Y40603415D01*
X28778815Y40536376D01*
X28726011Y40490621D01*
X28656853Y40480677D01*
X28627058Y40488849D01*
X28622889Y40490576D01*
X28610363Y40493933D01*
X28470157Y40531501D01*
X28312043Y40531501D01*
X28304447Y40531501D01*
X28304431Y40531500D01*
X25412670Y40531500D01*
X25412654Y40531501D01*
X25405058Y40531501D01*
X25246943Y40531501D01*
X25170579Y40511039D01*
X25094214Y40490577D01*
X25094209Y40490574D01*
X24957290Y40411525D01*
X24957282Y40411519D01*
X24944181Y40398417D01*
X24882858Y40364932D01*
X24813166Y40369916D01*
X24757233Y40411788D01*
X24732816Y40477252D01*
X24732500Y40486098D01*
X24732500Y40952057D01*
X24732379Y40952507D01*
X24732361Y40952575D01*
X24713941Y41021319D01*
X24691576Y41104786D01*
X24691573Y41104791D01*
X24612524Y41241710D01*
X24612521Y41241714D01*
X24612520Y41241716D01*
X24500716Y41353520D01*
X24500715Y41353521D01*
X24496385Y41357851D01*
X24496374Y41357861D01*
X23990135Y41864100D01*
X23956650Y41925423D01*
X23953816Y41951781D01*
X23953816Y46058219D01*
X23973501Y46125258D01*
X23990135Y46145900D01*
X24337416Y46493181D01*
X24398739Y46526666D01*
X24425097Y46529500D01*
X25795234Y46529500D01*
X25862273Y46509815D01*
X25864125Y46508602D01*
X25995814Y46420610D01*
X25995827Y46420603D01*
X26141498Y46360265D01*
X26141503Y46360263D01*
X26296153Y46329501D01*
X26296156Y46329500D01*
X26296158Y46329500D01*
X26453844Y46329500D01*
X26453845Y46329501D01*
X26608497Y46360263D01*
X26754179Y46420606D01*
X26885289Y46508211D01*
X26996789Y46619711D01*
X27084394Y46750821D01*
X27144737Y46896503D01*
X27175500Y47051158D01*
X27175500Y47208842D01*
X27175500Y47208845D01*
X27175499Y47208847D01*
X27144738Y47363490D01*
X27144737Y47363497D01*
X27142345Y47369273D01*
X27084397Y47509173D01*
X27084390Y47509186D01*
X26996789Y47640289D01*
X26996786Y47640293D01*
X26944760Y47692319D01*
X26911275Y47753642D01*
X26916259Y47823334D01*
X26944760Y47867681D01*
X26996786Y47919708D01*
X26996789Y47919711D01*
X27084394Y48050821D01*
X27084863Y48051952D01*
X27144735Y48196499D01*
X27144737Y48196503D01*
X27175500Y48351158D01*
X27175500Y48508842D01*
X27175500Y48508845D01*
X27175499Y48508847D01*
X27144738Y48663490D01*
X27144737Y48663497D01*
X27093670Y48786785D01*
X27084397Y48809173D01*
X27084390Y48809186D01*
X26996789Y48940289D01*
X26996786Y48940293D01*
X26885292Y49051787D01*
X26885288Y49051790D01*
X26754185Y49139391D01*
X26754172Y49139398D01*
X26608501Y49199736D01*
X26608489Y49199739D01*
X26453845Y49230500D01*
X26453842Y49230500D01*
X26296158Y49230500D01*
X26296155Y49230500D01*
X26141510Y49199739D01*
X26141498Y49199736D01*
X25995827Y49139398D01*
X25995814Y49139391D01*
X25864125Y49051398D01*
X25797447Y49030520D01*
X25795234Y49030500D01*
X24178769Y49030500D01*
X24178753Y49030501D01*
X24171157Y49030501D01*
X24013043Y49030501D01*
X23933110Y49009083D01*
X23860316Y48989578D01*
X23827313Y48970523D01*
X23827312Y48970524D01*
X23723387Y48910523D01*
X23723382Y48910519D01*
X22471797Y47658934D01*
X22471795Y47658931D01*
X22460621Y47639577D01*
X22429271Y47585276D01*
X22392739Y47522001D01*
X22351815Y47369273D01*
X22351815Y47369271D01*
X22351815Y47201170D01*
X22351816Y47201157D01*
X22351816Y44440091D01*
X22332131Y44373052D01*
X22279327Y44327297D01*
X22252008Y44318474D01*
X22118824Y44291982D01*
X22118814Y44291979D01*
X21973143Y44231641D01*
X21973130Y44231634D01*
X21842027Y44144033D01*
X21842023Y44144030D01*
X21730529Y44032536D01*
X21730526Y44032532D01*
X21642925Y43901429D01*
X21642918Y43901416D01*
X21582580Y43755745D01*
X21582577Y43755733D01*
X21551816Y43601090D01*
X21551816Y43592096D01*
X21550124Y43586337D01*
X21551267Y43580445D01*
X21540394Y43553201D01*
X21532131Y43525057D01*
X21527024Y43519696D01*
X21525371Y43515552D01*
X21505864Y43497479D01*
X21499854Y43491168D01*
X21498274Y43490041D01*
X21441027Y43451789D01*
X21431911Y43442674D01*
X21423538Y43436697D01*
X21399858Y43428473D01*
X21377858Y43416459D01*
X21367420Y43417206D01*
X21357536Y43413772D01*
X21333170Y43419655D01*
X21308166Y43421443D01*
X21299788Y43427715D01*
X21289618Y43430170D01*
X21272300Y43448293D01*
X21252233Y43463315D01*
X21248576Y43473119D01*
X21241347Y43480684D01*
X21236576Y43505293D01*
X21227816Y43528779D01*
X21227500Y43537625D01*
X21227500Y48256903D01*
X21247185Y48323942D01*
X21263819Y48344584D01*
X23262416Y50343181D01*
X23323739Y50376666D01*
X23350097Y50379500D01*
X25495234Y50379500D01*
X25562273Y50359815D01*
X25564125Y50358602D01*
X25695814Y50270610D01*
X25695827Y50270603D01*
X25841498Y50210265D01*
X25841503Y50210263D01*
X25996153Y50179501D01*
X25996156Y50179500D01*
X25996158Y50179500D01*
X26153844Y50179500D01*
X26153845Y50179501D01*
X26308497Y50210263D01*
X26454179Y50270606D01*
X26585289Y50358211D01*
X26696789Y50469711D01*
X26784394Y50600821D01*
X26844737Y50746503D01*
X26875500Y50901158D01*
X26875500Y51058842D01*
X26875500Y51058845D01*
X26875499Y51058847D01*
X26873025Y51071284D01*
X26844737Y51213497D01*
X26788728Y51348716D01*
X26784397Y51359173D01*
X26784390Y51359186D01*
X26696789Y51490289D01*
X26696786Y51490293D01*
X26585292Y51601787D01*
X26585288Y51601790D01*
X26454185Y51689391D01*
X26454172Y51689398D01*
X26308501Y51749736D01*
X26308489Y51749739D01*
X26153845Y51780500D01*
X26153842Y51780500D01*
X25996158Y51780500D01*
X25996155Y51780500D01*
X25841510Y51749739D01*
X25841498Y51749736D01*
X25695827Y51689398D01*
X25695814Y51689391D01*
X25564125Y51601398D01*
X25497447Y51580520D01*
X25495234Y51580500D01*
X23136669Y51580500D01*
X23136653Y51580501D01*
X23129057Y51580501D01*
X22970943Y51580501D01*
X22818215Y51539577D01*
X22773071Y51513513D01*
X22773070Y51513513D01*
X22681290Y51460525D01*
X22681282Y51460519D01*
X22569478Y51348714D01*
X20256284Y49035519D01*
X20144483Y48923719D01*
X20144481Y48923716D01*
X20065423Y48786786D01*
X20065423Y48786785D01*
X20024499Y48634057D01*
X20024499Y48634055D01*
X20024499Y48475943D01*
X20025439Y48468803D01*
X20026500Y48452617D01*
X20026500Y46452097D01*
X20006815Y46385058D01*
X19954011Y46339303D01*
X19884853Y46329359D01*
X19821297Y46358384D01*
X19814819Y46364416D01*
X18737590Y47441645D01*
X18737588Y47441648D01*
X18618717Y47560519D01*
X18618716Y47560520D01*
X18531904Y47610640D01*
X18531904Y47610641D01*
X18531900Y47610642D01*
X18481785Y47639577D01*
X18329057Y47680501D01*
X18170943Y47680501D01*
X18163347Y47680501D01*
X18163331Y47680500D01*
X14479766Y47680500D01*
X14412727Y47700185D01*
X14410875Y47701398D01*
X14279185Y47789391D01*
X14279172Y47789398D01*
X14133501Y47849736D01*
X14133489Y47849739D01*
X13978845Y47880500D01*
X13978842Y47880500D01*
X13909424Y47880500D01*
X13842385Y47900185D01*
X13796630Y47952989D01*
X13786686Y48022147D01*
X13794863Y48051952D01*
X13854735Y48196499D01*
X13854737Y48196503D01*
X13885500Y48351158D01*
X13885500Y48508842D01*
X13885500Y48508845D01*
X13885499Y48508847D01*
X13854738Y48663490D01*
X13854737Y48663497D01*
X13803670Y48786785D01*
X13794397Y48809173D01*
X13794390Y48809186D01*
X13706789Y48940289D01*
X13706786Y48940293D01*
X13598110Y49048969D01*
X13564625Y49110292D01*
X13561935Y49142624D01*
X13562575Y49155902D01*
X13572501Y49192943D01*
X13572501Y49351057D01*
X13572500Y49351061D01*
X13572500Y53718940D01*
X13572501Y53718953D01*
X13572501Y53887056D01*
X13571932Y53889179D01*
X13531577Y54039784D01*
X13519754Y54060263D01*
X13452524Y54176710D01*
X13452518Y54176718D01*
X12834573Y54794663D01*
X12801088Y54855986D01*
X12800637Y54858153D01*
X12776110Y54981457D01*
X12769737Y55013497D01*
X12738856Y55088050D01*
X12731388Y55157516D01*
X12762663Y55219996D01*
X12822752Y55255648D01*
X12853418Y55259500D01*
X24229903Y55259500D01*
X24296942Y55239815D01*
X24317584Y55223181D01*
X24725425Y54815340D01*
X24758910Y54754017D01*
X24759361Y54751851D01*
X24790261Y54596509D01*
X24790264Y54596499D01*
X24850602Y54450828D01*
X24850609Y54450815D01*
X24938210Y54319712D01*
X24938213Y54319708D01*
X25049707Y54208214D01*
X25049711Y54208211D01*
X25180814Y54120610D01*
X25180827Y54120603D01*
X25280060Y54079500D01*
X25326503Y54060263D01*
X25478157Y54030097D01*
X25481153Y54029501D01*
X25481156Y54029500D01*
X25481158Y54029500D01*
X25638843Y54029500D01*
X25640034Y54029737D01*
X25640671Y54029680D01*
X25644907Y54030097D01*
X25644986Y54029295D01*
X25709626Y54023515D01*
X25764807Y53980657D01*
X25788057Y53914769D01*
X25778797Y53860670D01*
X25730263Y53743497D01*
X25730262Y53743494D01*
X25730262Y53743493D01*
X25730261Y53743490D01*
X25699500Y53588847D01*
X25699500Y53431154D01*
X25730261Y53276511D01*
X25730264Y53276499D01*
X25790602Y53130828D01*
X25790609Y53130815D01*
X25878210Y52999712D01*
X25878213Y52999708D01*
X25989707Y52888214D01*
X25989711Y52888211D01*
X26120814Y52800610D01*
X26120827Y52800603D01*
X26194078Y52770262D01*
X26266503Y52740263D01*
X26421153Y52709501D01*
X26421156Y52709500D01*
X26421158Y52709500D01*
X26578844Y52709500D01*
X26578845Y52709501D01*
X26733497Y52740263D01*
X26879179Y52800606D01*
X27010289Y52888211D01*
X27121789Y52999711D01*
X27209394Y53130821D01*
X27269737Y53276503D01*
X27300500Y53431158D01*
X27300500Y53588842D01*
X27300500Y53588845D01*
X27300499Y53588847D01*
X27294532Y53618847D01*
X27269737Y53743497D01*
X27221203Y53860670D01*
X27209397Y53889173D01*
X27209390Y53889186D01*
X27121398Y54020875D01*
X27100520Y54087553D01*
X27100500Y54089766D01*
X27100500Y54940941D01*
X27100501Y54940954D01*
X27100501Y55109055D01*
X27100501Y55109057D01*
X27059577Y55261785D01*
X27059575Y55261788D01*
X27059575Y55261790D01*
X27059574Y55261791D01*
X27024862Y55321912D01*
X27024860Y55321916D01*
X27012396Y55343504D01*
X26995926Y55411402D01*
X27018779Y55477429D01*
X27073701Y55520618D01*
X27119785Y55529500D01*
X27218903Y55529500D01*
X27285942Y55509815D01*
G37*
%TD.AperFunction*%
%TA.AperFunction,Conductor*%
G36*
X8526300Y52054553D02*
G01*
X8582233Y52012681D01*
X8597527Y51985823D01*
X8631386Y51904078D01*
X8631393Y51904065D01*
X8718994Y51772962D01*
X8718997Y51772958D01*
X8830491Y51661464D01*
X8830495Y51661461D01*
X8961601Y51573858D01*
X8961603Y51573857D01*
X8961605Y51573856D01*
X9000952Y51557558D01*
X9055354Y51513720D01*
X9077421Y51447427D01*
X9077500Y51442998D01*
X9077500Y44305460D01*
X9057815Y44238421D01*
X9005011Y44192666D01*
X8935853Y44182722D01*
X8884610Y44202357D01*
X8829183Y44239392D01*
X8829172Y44239398D01*
X8683501Y44299736D01*
X8683489Y44299739D01*
X8528845Y44330500D01*
X8528842Y44330500D01*
X8371158Y44330500D01*
X8371155Y44330500D01*
X8216510Y44299739D01*
X8216498Y44299736D01*
X8070827Y44239398D01*
X8070814Y44239391D01*
X7939711Y44151790D01*
X7939707Y44151787D01*
X7828213Y44040293D01*
X7828207Y44040285D01*
X7740607Y43909182D01*
X7740606Y43909181D01*
X7730805Y43885520D01*
X7703927Y43845297D01*
X7375449Y43516818D01*
X7314128Y43483334D01*
X7287770Y43480500D01*
X6862824Y43480500D01*
X6795785Y43500185D01*
X6750030Y43552989D01*
X6740086Y43622147D01*
X6755437Y43666501D01*
X6755513Y43666634D01*
X6755515Y43666635D01*
X6831281Y43797865D01*
X6870500Y43944234D01*
X6870500Y44095766D01*
X6831281Y44242135D01*
X6755515Y44373365D01*
X6648365Y44480515D01*
X6634654Y44488431D01*
X6606998Y44504399D01*
X6558784Y44554967D01*
X6545000Y44611785D01*
X6545000Y45150000D01*
X7045000Y45150000D01*
X7045000Y44450000D01*
X7443492Y44450000D01*
X7443495Y44450001D01*
X7636681Y44488428D01*
X7636693Y44488431D01*
X7818671Y44563808D01*
X7818684Y44563815D01*
X7982462Y44673249D01*
X7982466Y44673252D01*
X8121748Y44812534D01*
X8121751Y44812538D01*
X8231185Y44976316D01*
X8231192Y44976329D01*
X8306569Y45158308D01*
X8306569Y45158310D01*
X8314862Y45200000D01*
X7511988Y45200000D01*
X7529205Y45209940D01*
X7585060Y45265795D01*
X7624556Y45334204D01*
X7645000Y45410504D01*
X7645000Y45489496D01*
X7624556Y45565796D01*
X7585060Y45634205D01*
X7529205Y45690060D01*
X7511988Y45700000D01*
X8314862Y45700000D01*
X8306569Y45741691D01*
X8306569Y45741693D01*
X8231192Y45923672D01*
X8231185Y45923685D01*
X8121751Y46087463D01*
X8121748Y46087467D01*
X7982466Y46226749D01*
X7982462Y46226752D01*
X7818684Y46336186D01*
X7818671Y46336193D01*
X7636693Y46411570D01*
X7636681Y46411573D01*
X7443495Y46450000D01*
X7045000Y46450000D01*
X7045000Y45750000D01*
X6545000Y45750000D01*
X6545000Y46450000D01*
X6146504Y46450000D01*
X5953318Y46411573D01*
X5953306Y46411570D01*
X5771328Y46336193D01*
X5771315Y46336186D01*
X5607537Y46226752D01*
X5607533Y46226749D01*
X5468251Y46087467D01*
X5468248Y46087463D01*
X5358814Y45923685D01*
X5358807Y45923672D01*
X5283430Y45741693D01*
X5283430Y45741691D01*
X5275138Y45700000D01*
X6078012Y45700000D01*
X6060795Y45690060D01*
X6004940Y45634205D01*
X5965444Y45565796D01*
X5945000Y45489496D01*
X5945000Y45410504D01*
X5965444Y45334204D01*
X6004940Y45265795D01*
X6060795Y45209940D01*
X6078012Y45200000D01*
X5275138Y45200000D01*
X5283430Y45158310D01*
X5283430Y45158308D01*
X5358807Y44976329D01*
X5358814Y44976316D01*
X5468248Y44812538D01*
X5468251Y44812534D01*
X5607533Y44673252D01*
X5607537Y44673249D01*
X5771315Y44563815D01*
X5771328Y44563808D01*
X5780838Y44559869D01*
X5835243Y44516030D01*
X5857310Y44449736D01*
X5840033Y44382037D01*
X5836350Y44376595D01*
X5758719Y44242137D01*
X5732433Y44144033D01*
X5719500Y44095766D01*
X5719500Y43944234D01*
X5730971Y43901422D01*
X5758719Y43797864D01*
X5783037Y43755745D01*
X5834485Y43666635D01*
X5834486Y43666634D01*
X5834563Y43666501D01*
X5851036Y43598601D01*
X5828184Y43532573D01*
X5773263Y43489383D01*
X5727176Y43480500D01*
X2446080Y43480500D01*
X2301092Y43451660D01*
X2301086Y43451658D01*
X2164508Y43395086D01*
X2164496Y43395079D01*
X2115269Y43362187D01*
X2041588Y43312956D01*
X2041580Y43312950D01*
X712181Y41983550D01*
X650858Y41950065D01*
X581166Y41955049D01*
X525233Y41996921D01*
X500816Y42062385D01*
X500500Y42071231D01*
X500500Y45700000D01*
X1245138Y45700000D01*
X2048012Y45700000D01*
X2030795Y45690060D01*
X1974940Y45634205D01*
X1935444Y45565796D01*
X1915000Y45489496D01*
X1915000Y45410504D01*
X1935444Y45334204D01*
X1974940Y45265795D01*
X2030795Y45209940D01*
X2048012Y45200000D01*
X1245138Y45200000D01*
X1253430Y45158310D01*
X1253430Y45158308D01*
X1328807Y44976329D01*
X1328814Y44976316D01*
X1438248Y44812538D01*
X1438251Y44812534D01*
X1577533Y44673252D01*
X1577537Y44673249D01*
X1741315Y44563815D01*
X1741328Y44563808D01*
X1923306Y44488431D01*
X1923318Y44488428D01*
X2116504Y44450001D01*
X2116508Y44450000D01*
X2365000Y44450000D01*
X2365000Y45150000D01*
X2865000Y45150000D01*
X2865000Y44450000D01*
X3113492Y44450000D01*
X3113495Y44450001D01*
X3306681Y44488428D01*
X3306693Y44488431D01*
X3488671Y44563808D01*
X3488684Y44563815D01*
X3652462Y44673249D01*
X3652466Y44673252D01*
X3791748Y44812534D01*
X3791751Y44812538D01*
X3901185Y44976316D01*
X3901192Y44976329D01*
X3976569Y45158308D01*
X3976569Y45158310D01*
X3984862Y45200000D01*
X3181988Y45200000D01*
X3199205Y45209940D01*
X3255060Y45265795D01*
X3294556Y45334204D01*
X3315000Y45410504D01*
X3315000Y45489496D01*
X3294556Y45565796D01*
X3255060Y45634205D01*
X3199205Y45690060D01*
X3181988Y45700000D01*
X3984862Y45700000D01*
X3976569Y45741691D01*
X3976569Y45741693D01*
X3901192Y45923672D01*
X3901185Y45923685D01*
X3791751Y46087463D01*
X3791748Y46087467D01*
X3652466Y46226749D01*
X3652462Y46226752D01*
X3488684Y46336186D01*
X3488671Y46336193D01*
X3306693Y46411570D01*
X3306681Y46411573D01*
X3113495Y46450000D01*
X2865000Y46450000D01*
X2865000Y45750000D01*
X2365000Y45750000D01*
X2365000Y46450000D01*
X2116504Y46450000D01*
X1923318Y46411573D01*
X1923306Y46411570D01*
X1741328Y46336193D01*
X1741315Y46336186D01*
X1577537Y46226752D01*
X1577533Y46226749D01*
X1438251Y46087467D01*
X1438248Y46087463D01*
X1328814Y45923685D01*
X1328807Y45923672D01*
X1253430Y45741693D01*
X1253430Y45741691D01*
X1245138Y45700000D01*
X500500Y45700000D01*
X500500Y50532298D01*
X520185Y50599337D01*
X572989Y50645092D01*
X642147Y50655036D01*
X648667Y50653920D01*
X705435Y50642628D01*
X721157Y50639500D01*
X721158Y50639500D01*
X878844Y50639500D01*
X878845Y50639501D01*
X1033497Y50670263D01*
X1179179Y50730606D01*
X1202971Y50746503D01*
X1310875Y50818602D01*
X1377553Y50839480D01*
X1379766Y50839500D01*
X6873331Y50839500D01*
X6873347Y50839499D01*
X6880943Y50839499D01*
X7039054Y50839499D01*
X7039057Y50839499D01*
X7191785Y50880423D01*
X7263065Y50921577D01*
X7328716Y50959480D01*
X7440520Y51071284D01*
X7440520Y51071286D01*
X7450724Y51081489D01*
X7450728Y51081494D01*
X8395287Y52026054D01*
X8456608Y52059537D01*
X8526300Y52054553D01*
G37*
%TD.AperFunction*%
%TA.AperFunction,Conductor*%
G36*
X29442539Y59459815D02*
G01*
X29488294Y59407011D01*
X29499500Y59355500D01*
X29499500Y55298097D01*
X29479815Y55231058D01*
X29427011Y55185303D01*
X29357853Y55175359D01*
X29294297Y55204384D01*
X29287819Y55210416D01*
X28006590Y56491645D01*
X28006588Y56491648D01*
X27887717Y56610519D01*
X27887716Y56610520D01*
X27799415Y56661500D01*
X27750785Y56689577D01*
X27598057Y56730501D01*
X27439943Y56730501D01*
X27432347Y56730501D01*
X27432331Y56730500D01*
X27247532Y56730500D01*
X27180493Y56750185D01*
X27134738Y56802989D01*
X27124794Y56872147D01*
X27144430Y56923391D01*
X27146736Y56926844D01*
X27149394Y56930821D01*
X27209737Y57076503D01*
X27240500Y57231158D01*
X27240500Y57388842D01*
X27240500Y57388845D01*
X27240499Y57388847D01*
X27209738Y57543490D01*
X27209737Y57543497D01*
X27209728Y57543519D01*
X27149397Y57689173D01*
X27149390Y57689186D01*
X27061789Y57820289D01*
X27061786Y57820293D01*
X26950292Y57931787D01*
X26950288Y57931790D01*
X26819185Y58019391D01*
X26819172Y58019398D01*
X26673501Y58079736D01*
X26673489Y58079739D01*
X26518845Y58110500D01*
X26518842Y58110500D01*
X26361158Y58110500D01*
X26361155Y58110500D01*
X26206510Y58079739D01*
X26206498Y58079736D01*
X26060827Y58019398D01*
X26060814Y58019391D01*
X25929711Y57931790D01*
X25929707Y57931787D01*
X25818213Y57820293D01*
X25818210Y57820289D01*
X25730609Y57689186D01*
X25730602Y57689173D01*
X25674620Y57554017D01*
X25630779Y57499613D01*
X25564485Y57477548D01*
X25496786Y57494827D01*
X25449175Y57545964D01*
X25445498Y57554017D01*
X25409397Y57641173D01*
X25409390Y57641186D01*
X25321789Y57772289D01*
X25321786Y57772293D01*
X25210292Y57883787D01*
X25210288Y57883790D01*
X25079185Y57971391D01*
X25079172Y57971398D01*
X24933501Y58031736D01*
X24933489Y58031739D01*
X24778845Y58062500D01*
X24778842Y58062500D01*
X24621158Y58062500D01*
X24621155Y58062500D01*
X24466510Y58031739D01*
X24466498Y58031736D01*
X24320827Y57971398D01*
X24320814Y57971391D01*
X24189125Y57883398D01*
X24122447Y57862520D01*
X24120234Y57862500D01*
X21502940Y57862500D01*
X21462019Y57851536D01*
X21462019Y57851535D01*
X21424751Y57841549D01*
X21350214Y57821577D01*
X21350209Y57821574D01*
X21213290Y57742525D01*
X21213282Y57742519D01*
X21170583Y57699819D01*
X21109260Y57666334D01*
X21082902Y57663500D01*
X11708369Y57663500D01*
X11708353Y57663501D01*
X11700757Y57663501D01*
X11542643Y57663501D01*
X11435287Y57634735D01*
X11389910Y57622576D01*
X11389909Y57622575D01*
X11339796Y57593641D01*
X11339795Y57593640D01*
X11319265Y57581787D01*
X11252985Y57543521D01*
X11252982Y57543519D01*
X9197481Y55488018D01*
X9197479Y55488015D01*
X9188497Y55472457D01*
X9158561Y55420606D01*
X9118423Y55351085D01*
X9077499Y55198357D01*
X9077499Y55198355D01*
X9077499Y55030254D01*
X9077500Y55030241D01*
X9077500Y54458097D01*
X9057815Y54391058D01*
X9041181Y54370416D01*
X6747584Y52076819D01*
X6686261Y52043334D01*
X6659903Y52040500D01*
X1379766Y52040500D01*
X1312727Y52060185D01*
X1310875Y52061398D01*
X1179185Y52149391D01*
X1179172Y52149398D01*
X1033501Y52209736D01*
X1033489Y52209739D01*
X878845Y52240500D01*
X878842Y52240500D01*
X721158Y52240500D01*
X721155Y52240500D01*
X648691Y52226086D01*
X579100Y52232313D01*
X523922Y52275176D01*
X500678Y52341066D01*
X500500Y52347703D01*
X500500Y53618847D01*
X3859500Y53618847D01*
X3859500Y53461154D01*
X3890261Y53306511D01*
X3890264Y53306499D01*
X3950602Y53160828D01*
X3950609Y53160815D01*
X4038210Y53029712D01*
X4038213Y53029708D01*
X4149707Y52918214D01*
X4149711Y52918211D01*
X4280814Y52830610D01*
X4280827Y52830603D01*
X4426498Y52770265D01*
X4426503Y52770263D01*
X4577312Y52740265D01*
X4581153Y52739501D01*
X4581156Y52739500D01*
X4581158Y52739500D01*
X4738844Y52739500D01*
X4738845Y52739501D01*
X4893497Y52770263D01*
X5039179Y52830606D01*
X5170289Y52918211D01*
X5281789Y53029711D01*
X5369394Y53160821D01*
X5429737Y53306503D01*
X5460500Y53461158D01*
X5460500Y53618842D01*
X5460500Y53618845D01*
X5460499Y53618847D01*
X5440589Y53718940D01*
X5429737Y53773497D01*
X5382700Y53887056D01*
X5369397Y53919173D01*
X5369390Y53919186D01*
X5281789Y54050289D01*
X5281786Y54050293D01*
X5170292Y54161787D01*
X5170288Y54161790D01*
X5039185Y54249391D01*
X5039172Y54249398D01*
X4893501Y54309736D01*
X4893489Y54309739D01*
X4738845Y54340500D01*
X4738842Y54340500D01*
X4581158Y54340500D01*
X4581155Y54340500D01*
X4426510Y54309739D01*
X4426498Y54309736D01*
X4280827Y54249398D01*
X4280814Y54249391D01*
X4149711Y54161790D01*
X4149707Y54161787D01*
X4038213Y54050293D01*
X4038210Y54050289D01*
X3950609Y53919186D01*
X3950602Y53919173D01*
X3890264Y53773502D01*
X3890261Y53773490D01*
X3859500Y53618847D01*
X500500Y53618847D01*
X500500Y54981457D01*
X1359499Y54981457D01*
X1397947Y54788171D01*
X1397950Y54788161D01*
X1473364Y54606093D01*
X1473371Y54606080D01*
X1582860Y54442219D01*
X1582863Y54442215D01*
X1722214Y54302864D01*
X1722218Y54302861D01*
X1886079Y54193372D01*
X1886092Y54193365D01*
X2068160Y54117951D01*
X2068165Y54117949D01*
X2068169Y54117949D01*
X2068170Y54117948D01*
X2261456Y54079500D01*
X2261459Y54079500D01*
X2458543Y54079500D01*
X2588582Y54105368D01*
X2651835Y54117949D01*
X2833914Y54193368D01*
X2997782Y54302861D01*
X3137139Y54442218D01*
X3246632Y54606086D01*
X3322051Y54788165D01*
X3336110Y54858842D01*
X3360500Y54981457D01*
X3360500Y55178544D01*
X3322052Y55371830D01*
X3322051Y55371831D01*
X3322051Y55371835D01*
X3301849Y55420607D01*
X3246635Y55553908D01*
X3246628Y55553921D01*
X3137139Y55717782D01*
X3137136Y55717786D01*
X2997785Y55857137D01*
X2997781Y55857140D01*
X2833920Y55966629D01*
X2833907Y55966636D01*
X2651839Y56042050D01*
X2651829Y56042053D01*
X2458543Y56080500D01*
X2458541Y56080500D01*
X2261459Y56080500D01*
X2261457Y56080500D01*
X2068170Y56042053D01*
X2068160Y56042050D01*
X1886092Y55966636D01*
X1886079Y55966629D01*
X1722218Y55857140D01*
X1722214Y55857137D01*
X1582863Y55717786D01*
X1582860Y55717782D01*
X1473371Y55553921D01*
X1473364Y55553908D01*
X1397950Y55371840D01*
X1397947Y55371830D01*
X1359500Y55178544D01*
X1359500Y55178541D01*
X1359500Y54981459D01*
X1359500Y54981457D01*
X1359499Y54981457D01*
X500500Y54981457D01*
X500500Y57038847D01*
X3689500Y57038847D01*
X3689500Y56881154D01*
X3720261Y56726511D01*
X3720264Y56726499D01*
X3780602Y56580828D01*
X3780609Y56580815D01*
X3868210Y56449712D01*
X3868213Y56449708D01*
X3979707Y56338214D01*
X3979711Y56338211D01*
X4110814Y56250610D01*
X4110827Y56250603D01*
X4256498Y56190265D01*
X4256503Y56190263D01*
X4411153Y56159501D01*
X4411156Y56159500D01*
X4411158Y56159500D01*
X4568844Y56159500D01*
X4568845Y56159501D01*
X4723497Y56190263D01*
X4869179Y56250606D01*
X5000289Y56338211D01*
X5111789Y56449711D01*
X5199394Y56580821D01*
X5259737Y56726503D01*
X5290500Y56881158D01*
X5290500Y57038842D01*
X5290500Y57038845D01*
X5290499Y57038847D01*
X5259737Y57193497D01*
X5244138Y57231156D01*
X5199397Y57339173D01*
X5199390Y57339186D01*
X5111789Y57470289D01*
X5111786Y57470293D01*
X5000292Y57581787D01*
X5000288Y57581790D01*
X4869185Y57669391D01*
X4869172Y57669398D01*
X4723501Y57729736D01*
X4723489Y57729739D01*
X4568845Y57760500D01*
X4568842Y57760500D01*
X4411158Y57760500D01*
X4411155Y57760500D01*
X4256510Y57729739D01*
X4256498Y57729736D01*
X4110827Y57669398D01*
X4110814Y57669391D01*
X3979711Y57581790D01*
X3979707Y57581787D01*
X3868213Y57470293D01*
X3868210Y57470289D01*
X3780609Y57339186D01*
X3780602Y57339173D01*
X3720264Y57193502D01*
X3720261Y57193490D01*
X3689500Y57038847D01*
X500500Y57038847D01*
X500500Y59355500D01*
X520185Y59422539D01*
X572989Y59468294D01*
X624500Y59479500D01*
X29375500Y59479500D01*
X29442539Y59459815D01*
G37*
%TD.AperFunction*%
%TD*%
M02*
