%TF.GenerationSoftware,KiCad,Pcbnew,9.0.5*%
%TF.CreationDate,2025-11-23T16:16:19+01:00*%
%TF.ProjectId,horsesense,686f7273-6573-4656-9e73-652e6b696361,1.0*%
%TF.SameCoordinates,Original*%
%TF.FileFunction,Copper,L2,Inr*%
%TF.FilePolarity,Positive*%
%FSLAX46Y46*%
G04 Gerber Fmt 4.6, Leading zero omitted, Abs format (unit mm)*
G04 Created by KiCad (PCBNEW 9.0.5) date 2025-11-23 16:16:19*
%MOMM*%
%LPD*%
G01*
G04 APERTURE LIST*
%TA.AperFunction,HeatsinkPad*%
%ADD10C,0.600000*%
%TD*%
%TA.AperFunction,ComponentPad*%
%ADD11R,1.000000X1.000000*%
%TD*%
%TA.AperFunction,ComponentPad*%
%ADD12C,1.000000*%
%TD*%
%TA.AperFunction,HeatsinkPad*%
%ADD13C,0.500000*%
%TD*%
%TA.AperFunction,HeatsinkPad*%
%ADD14O,2.100000X1.000000*%
%TD*%
%TA.AperFunction,HeatsinkPad*%
%ADD15O,1.800000X1.000000*%
%TD*%
%TA.AperFunction,ViaPad*%
%ADD16C,0.600000*%
%TD*%
G04 APERTURE END LIST*
D10*
%TO.N,GND*%
%TO.C,U9*%
X16550000Y51570000D03*
X16550000Y50170000D03*
X17250000Y52270000D03*
X17250000Y50870000D03*
X17250000Y49470000D03*
X17950000Y51570000D03*
X17950000Y50170000D03*
X18650000Y52270000D03*
X18650000Y50870000D03*
X18650000Y49470000D03*
X19350000Y51570000D03*
X19350000Y50170000D03*
%TD*%
D11*
%TO.N,+3.3V*%
%TO.C,J4*%
X1940000Y30695000D03*
D12*
%TO.N,Net-(J4-Pin_2)*%
X1940000Y31965000D03*
%TO.N,Net-(J4-Pin_3)*%
X1940000Y33235000D03*
%TO.N,GND*%
X1940000Y34505000D03*
%TD*%
D13*
%TO.N,GND*%
%TO.C,U3*%
X13440000Y4177500D03*
X14540000Y4177500D03*
X15640000Y4177500D03*
X13440000Y5277500D03*
X14540000Y5277500D03*
X15640000Y5277500D03*
X13440000Y6377500D03*
X14540000Y6377500D03*
X15640000Y6377500D03*
%TD*%
D14*
%TO.N,GND*%
%TO.C,J1*%
X6795000Y45450000D03*
D15*
X2615000Y45450000D03*
D14*
X6795000Y36810000D03*
D15*
X2615000Y36810000D03*
%TD*%
D16*
%TO.N,+3.3V*%
X20580000Y19100000D03*
X4490000Y56960000D03*
X27597000Y14000000D03*
X11530000Y11740000D03*
X20680000Y25290000D03*
X20740000Y22190000D03*
X3930000Y27290000D03*
X7260000Y34010000D03*
X9330000Y30440000D03*
X1570000Y10880000D03*
X4660000Y53540000D03*
X13930000Y38936513D03*
%TO.N,GND*%
X11362000Y30970000D03*
X6140000Y22660000D03*
X11810000Y38770000D03*
X20320000Y6930000D03*
X9960000Y1481000D03*
X18170000Y31150000D03*
X26070000Y14140000D03*
X5070000Y1481000D03*
X12390000Y58630000D03*
X19160000Y39130000D03*
X26900000Y58690000D03*
X4390000Y50550000D03*
X24208000Y28615000D03*
X1800000Y12380000D03*
X20730000Y37970000D03*
X4740000Y12270000D03*
X8270000Y32980000D03*
X18930000Y14740000D03*
X11360000Y10360000D03*
X18620000Y9000000D03*
X1570000Y27290000D03*
X1750000Y24080000D03*
X5365152Y29236194D03*
X17360000Y1181000D03*
X2980000Y21850000D03*
X3840000Y7170000D03*
X5243804Y21490288D03*
X21740000Y18880000D03*
X4430000Y58860000D03*
X11840000Y36760000D03*
X22450000Y23130000D03*
X6390000Y24970000D03*
X27490000Y36300000D03*
X4410000Y34860000D03*
X8100000Y54290000D03*
X11361999Y31828649D03*
X2440000Y1940000D03*
X26290000Y31090000D03*
X22932735Y24252735D03*
X12280000Y7700000D03*
X22470000Y21190000D03*
%TO.N,+1.8V*%
X13940000Y36760000D03*
X14920000Y35110000D03*
X22180000Y36780000D03*
%TO.N,VBUS*%
X12790000Y780000D03*
X8300000Y38730000D03*
X8450000Y43530000D03*
%TO.N,+BATT*%
X23150000Y8110000D03*
X16570000Y8990000D03*
%TO.N,Net-(U3-REGN)*%
X8100000Y2510000D03*
X19990000Y780000D03*
%TO.N,Vsys*%
X12420000Y9120000D03*
X5290000Y3750000D03*
X7160000Y6160000D03*
X29200000Y30950000D03*
%TO.N,Net-(IC1-PON)*%
X2110000Y21090000D03*
X4560815Y22090288D03*
%TO.N,SDA*%
X4420000Y32420000D03*
X17279527Y2689686D03*
X12290000Y49700000D03*
X7030000Y26370000D03*
%TO.N,SCL*%
X11113955Y33430649D03*
X13085000Y48430000D03*
X8300000Y27060000D03*
X16346615Y2694517D03*
%TO.N,Net-(U9-IO0)*%
X800000Y51440000D03*
X22230000Y57262000D03*
%TO.N,MAX_MOSI_1_8*%
X19246611Y37949490D03*
X16761405Y36792178D03*
%TO.N,MAX_SCLK_1_8*%
X15532987Y35658976D03*
X19503765Y37191946D03*
%TO.N,MAX_MISO_1_8*%
X19017074Y36513000D03*
X16090000Y36357185D03*
%TO.N,INT_BAT*%
X26553257Y10909000D03*
X26450000Y56130000D03*
%TO.N,CE_BAT*%
X17450000Y5020000D03*
X13690000Y43070000D03*
%TO.N,PSEL_BAT*%
X12530000Y2440000D03*
X12000000Y54780000D03*
%TO.N,ICM_FSYNC*%
X9530918Y33995347D03*
X12180000Y53530000D03*
%TO.N,GPS_TX*%
X13680000Y45890000D03*
X20529994Y14760000D03*
%TO.N,ICM_INT2*%
X8754971Y33786499D03*
X11970000Y51050000D03*
%TO.N,GPS_RST*%
X25440000Y48430000D03*
X23006000Y26492891D03*
%TO.N,ICM_INT*%
X9340784Y52283250D03*
X9326149Y40961899D03*
%TO.N,GPS_PP1*%
X26220000Y50970000D03*
X22130000Y14760000D03*
%TO.N,FLASH_SCLK*%
X24100000Y15550000D03*
X21060001Y44191515D03*
%TO.N,GPS_SEL*%
X10700000Y10961000D03*
X26670000Y47160000D03*
%TO.N,Net-(J4-Pin_3)*%
X26500000Y53510000D03*
%TO.N,GPS_RX*%
X21329997Y14760000D03*
X13610000Y47130000D03*
%TO.N,ICM_AD0*%
X26440000Y57310000D03*
X9710000Y40260000D03*
%TO.N,Net-(J4-Pin_2)*%
X25560000Y54830000D03*
%TO.N,GPS_FIX*%
X22988219Y14754528D03*
X25634915Y39294915D03*
%TO.N,Net-(U1-PD2_IN)*%
X12410000Y21470000D03*
%TO.N,Net-(D2-K)*%
X16141169Y34041961D03*
X10858819Y29703246D03*
X12270000Y22980000D03*
%TO.N,Net-(D1-K)*%
X15780000Y32050002D03*
%TO.N,Net-(D3-K)*%
X15747856Y34888368D03*
%TO.N,Net-(U1-PD1_IN)*%
X17670000Y29040000D03*
%TO.N,PD_GND*%
X17630000Y13940000D03*
X17110000Y26780000D03*
%TO.N,FLASH_SID0*%
X21215735Y42325735D03*
X23140000Y15540000D03*
%TO.N,FLASH_SID3*%
X25070000Y15520000D03*
X21560000Y45540000D03*
%TO.N,FLASH_CS*%
X27597000Y27070000D03*
X23954316Y43236477D03*
%TO.N,FLASH_SID1*%
X24535933Y42687182D03*
X26796997Y27070000D03*
%TO.N,FLASH_SID2*%
X25996994Y27070000D03*
X25110000Y42130000D03*
%TO.N,+3.3V_LED*%
X16380000Y13070000D03*
X16120000Y17190000D03*
X16617628Y35129999D03*
X15580000Y21370000D03*
X16390000Y28730000D03*
%TD*%
%TA.AperFunction,Conductor*%
%TO.N,GND*%
G36*
X29442539Y59459815D02*
G01*
X29488294Y59407011D01*
X29499500Y59355500D01*
X29499500Y31857703D01*
X29479815Y31790664D01*
X29427011Y31744909D01*
X29357853Y31734965D01*
X29351309Y31736086D01*
X29278845Y31750500D01*
X29278842Y31750500D01*
X29121158Y31750500D01*
X29121155Y31750500D01*
X28966510Y31719739D01*
X28966498Y31719736D01*
X28820827Y31659398D01*
X28820814Y31659391D01*
X28689711Y31571790D01*
X28689707Y31571787D01*
X28578213Y31460293D01*
X28578210Y31460289D01*
X28490609Y31329186D01*
X28490602Y31329173D01*
X28430264Y31183502D01*
X28430261Y31183490D01*
X28399500Y31028847D01*
X28399500Y30871154D01*
X28430261Y30716511D01*
X28430264Y30716499D01*
X28490602Y30570828D01*
X28490609Y30570815D01*
X28578210Y30439712D01*
X28578213Y30439708D01*
X28689707Y30328214D01*
X28689711Y30328211D01*
X28820814Y30240610D01*
X28820827Y30240603D01*
X28903163Y30206499D01*
X28966503Y30180263D01*
X29121153Y30149501D01*
X29121156Y30149500D01*
X29121158Y30149500D01*
X29278843Y30149500D01*
X29294564Y30152628D01*
X29351309Y30163915D01*
X29420899Y30157688D01*
X29476077Y30114826D01*
X29499322Y30048937D01*
X29499500Y30042298D01*
X29499500Y604500D01*
X29479815Y537461D01*
X29427011Y491706D01*
X29375500Y480500D01*
X20897703Y480500D01*
X20830664Y500185D01*
X20784909Y552989D01*
X20774965Y622147D01*
X20776086Y628691D01*
X20790499Y701154D01*
X20790500Y701156D01*
X20790500Y858845D01*
X20790499Y858847D01*
X20759738Y1013490D01*
X20759737Y1013497D01*
X20759735Y1013502D01*
X20699397Y1159173D01*
X20699390Y1159186D01*
X20611789Y1290289D01*
X20611786Y1290293D01*
X20500292Y1401787D01*
X20500288Y1401790D01*
X20369185Y1489391D01*
X20369172Y1489398D01*
X20223501Y1549736D01*
X20223489Y1549739D01*
X20068845Y1580500D01*
X20068842Y1580500D01*
X19911158Y1580500D01*
X19911155Y1580500D01*
X19756510Y1549739D01*
X19756498Y1549736D01*
X19610827Y1489398D01*
X19610814Y1489391D01*
X19479711Y1401790D01*
X19479707Y1401787D01*
X19368213Y1290293D01*
X19368210Y1290289D01*
X19280609Y1159186D01*
X19280602Y1159173D01*
X19220264Y1013502D01*
X19220261Y1013490D01*
X19189500Y858847D01*
X19189500Y701154D01*
X19203914Y628691D01*
X19197687Y559100D01*
X19154824Y503922D01*
X19088934Y480678D01*
X19082297Y480500D01*
X13697703Y480500D01*
X13630664Y500185D01*
X13584909Y552989D01*
X13574965Y622147D01*
X13576086Y628691D01*
X13590499Y701154D01*
X13590500Y701156D01*
X13590500Y858845D01*
X13590499Y858847D01*
X13559738Y1013490D01*
X13559737Y1013497D01*
X13559735Y1013502D01*
X13499397Y1159173D01*
X13499390Y1159186D01*
X13411789Y1290289D01*
X13411786Y1290293D01*
X13300292Y1401787D01*
X13300288Y1401790D01*
X13169185Y1489391D01*
X13169172Y1489398D01*
X13023501Y1549736D01*
X13023486Y1549741D01*
X13020411Y1550352D01*
X13018951Y1551116D01*
X13017665Y1551506D01*
X13017739Y1551750D01*
X12958503Y1582742D01*
X12923934Y1643461D01*
X12927680Y1713230D01*
X12968551Y1769899D01*
X12975710Y1775061D01*
X13040289Y1818211D01*
X13151789Y1929711D01*
X13239394Y2060821D01*
X13299737Y2206503D01*
X13330500Y2361158D01*
X13330500Y2518842D01*
X13330500Y2518845D01*
X13330499Y2518847D01*
X13312200Y2610842D01*
X13299737Y2673497D01*
X13270745Y2743490D01*
X13239397Y2819173D01*
X13239390Y2819186D01*
X13151789Y2950289D01*
X13151786Y2950293D01*
X13040292Y3061787D01*
X13040288Y3061790D01*
X12909185Y3149391D01*
X12909172Y3149398D01*
X12763501Y3209736D01*
X12763489Y3209739D01*
X12608845Y3240500D01*
X12608842Y3240500D01*
X12451158Y3240500D01*
X12451155Y3240500D01*
X12296510Y3209739D01*
X12296498Y3209736D01*
X12150827Y3149398D01*
X12150814Y3149391D01*
X12019711Y3061790D01*
X12019707Y3061787D01*
X11908213Y2950293D01*
X11908210Y2950289D01*
X11820609Y2819186D01*
X11820602Y2819173D01*
X11760264Y2673502D01*
X11760261Y2673490D01*
X11729500Y2518847D01*
X11729500Y2361154D01*
X11760261Y2206511D01*
X11760264Y2206499D01*
X11820602Y2060828D01*
X11820609Y2060815D01*
X11908210Y1929712D01*
X11908213Y1929708D01*
X12019707Y1818214D01*
X12019711Y1818211D01*
X12150814Y1730610D01*
X12150827Y1730603D01*
X12296498Y1670265D01*
X12296503Y1670263D01*
X12296507Y1670263D01*
X12296508Y1670262D01*
X12299578Y1669651D01*
X12301037Y1668888D01*
X12302335Y1668494D01*
X12302260Y1668248D01*
X12361489Y1637266D01*
X12396063Y1576550D01*
X12392323Y1506781D01*
X12351456Y1450109D01*
X12344278Y1444932D01*
X12279707Y1401787D01*
X12168213Y1290293D01*
X12168210Y1290289D01*
X12080609Y1159186D01*
X12080602Y1159173D01*
X12020264Y1013502D01*
X12020261Y1013490D01*
X11989500Y858847D01*
X11989500Y701154D01*
X12003914Y628691D01*
X11997687Y559100D01*
X11954824Y503922D01*
X11888934Y480678D01*
X11882297Y480500D01*
X624500Y480500D01*
X557461Y500185D01*
X511706Y552989D01*
X500500Y604500D01*
X500500Y2588847D01*
X7299500Y2588847D01*
X7299500Y2431154D01*
X7330261Y2276511D01*
X7330264Y2276499D01*
X7390602Y2130828D01*
X7390609Y2130815D01*
X7478210Y1999712D01*
X7478213Y1999708D01*
X7589707Y1888214D01*
X7589711Y1888211D01*
X7720814Y1800610D01*
X7720827Y1800603D01*
X7866498Y1740265D01*
X7866503Y1740263D01*
X8002406Y1713230D01*
X8021153Y1709501D01*
X8021156Y1709500D01*
X8021158Y1709500D01*
X8178844Y1709500D01*
X8178845Y1709501D01*
X8333497Y1740263D01*
X8479179Y1800606D01*
X8610289Y1888211D01*
X8721789Y1999711D01*
X8809394Y2130821D01*
X8869737Y2276503D01*
X8900500Y2431158D01*
X8900500Y2588842D01*
X8900500Y2588845D01*
X8900499Y2588847D01*
X8896124Y2610842D01*
X8869737Y2743497D01*
X8857366Y2773364D01*
X8809397Y2889173D01*
X8809390Y2889186D01*
X8721789Y3020289D01*
X8721786Y3020293D01*
X8610292Y3131787D01*
X8610288Y3131790D01*
X8479185Y3219391D01*
X8479172Y3219398D01*
X8333501Y3279736D01*
X8333489Y3279739D01*
X8178845Y3310500D01*
X8178842Y3310500D01*
X8021158Y3310500D01*
X8021155Y3310500D01*
X7866510Y3279739D01*
X7866498Y3279736D01*
X7720827Y3219398D01*
X7720814Y3219391D01*
X7589711Y3131790D01*
X7589707Y3131787D01*
X7478213Y3020293D01*
X7478210Y3020289D01*
X7390609Y2889186D01*
X7390602Y2889173D01*
X7330264Y2743502D01*
X7330261Y2743490D01*
X7299500Y2588847D01*
X500500Y2588847D01*
X500500Y3828847D01*
X4489500Y3828847D01*
X4489500Y3671154D01*
X4520261Y3516511D01*
X4520264Y3516499D01*
X4580602Y3370828D01*
X4580609Y3370815D01*
X4668210Y3239712D01*
X4668213Y3239708D01*
X4779707Y3128214D01*
X4779711Y3128211D01*
X4910814Y3040610D01*
X4910827Y3040603D01*
X5056498Y2980265D01*
X5056503Y2980263D01*
X5211153Y2949501D01*
X5211156Y2949500D01*
X5211158Y2949500D01*
X5368844Y2949500D01*
X5368845Y2949501D01*
X5523497Y2980263D01*
X5669179Y3040606D01*
X5800289Y3128211D01*
X5911789Y3239711D01*
X5999394Y3370821D01*
X6052869Y3499923D01*
X13115975Y3499923D01*
X13221236Y3456322D01*
X13221240Y3456321D01*
X13366126Y3427501D01*
X13366129Y3427500D01*
X13513871Y3427500D01*
X13513873Y3427501D01*
X13658760Y3456321D01*
X13658775Y3456325D01*
X13764024Y3499922D01*
X13764024Y3499923D01*
X14215975Y3499923D01*
X14321236Y3456322D01*
X14321240Y3456321D01*
X14466126Y3427501D01*
X14466129Y3427500D01*
X14613871Y3427500D01*
X14613873Y3427501D01*
X14758760Y3456321D01*
X14758775Y3456325D01*
X14864024Y3499922D01*
X14864024Y3499923D01*
X15315975Y3499923D01*
X15421236Y3456322D01*
X15421240Y3456321D01*
X15566126Y3427501D01*
X15566129Y3427500D01*
X15648157Y3427500D01*
X15715196Y3407815D01*
X15760951Y3355011D01*
X15770895Y3285853D01*
X15741870Y3222297D01*
X15735838Y3215819D01*
X15724828Y3204810D01*
X15724825Y3204806D01*
X15637224Y3073703D01*
X15637217Y3073690D01*
X15576879Y2928019D01*
X15576876Y2928007D01*
X15546115Y2773364D01*
X15546115Y2615671D01*
X15576876Y2461028D01*
X15576879Y2461016D01*
X15637217Y2315345D01*
X15637224Y2315332D01*
X15724825Y2184229D01*
X15724828Y2184225D01*
X15836322Y2072731D01*
X15836326Y2072728D01*
X15967429Y1985127D01*
X15967442Y1985120D01*
X16113113Y1924782D01*
X16113118Y1924780D01*
X16267768Y1894018D01*
X16267771Y1894017D01*
X16267773Y1894017D01*
X16425459Y1894017D01*
X16425460Y1894018D01*
X16580112Y1924780D01*
X16725794Y1985123D01*
X16740562Y1994991D01*
X16807236Y2015871D01*
X16874617Y1997389D01*
X16878333Y1995002D01*
X16900348Y1980292D01*
X16900350Y1980291D01*
X16900354Y1980289D01*
X17034362Y1924782D01*
X17046030Y1919949D01*
X17176393Y1894018D01*
X17200680Y1889187D01*
X17200683Y1889186D01*
X17200685Y1889186D01*
X17358371Y1889186D01*
X17358372Y1889187D01*
X17513024Y1919949D01*
X17658706Y1980292D01*
X17789816Y2067897D01*
X17901316Y2179397D01*
X17988921Y2310507D01*
X18049264Y2456189D01*
X18080027Y2610844D01*
X18080027Y2768528D01*
X18080027Y2768531D01*
X18080026Y2768533D01*
X18049265Y2923176D01*
X18049264Y2923183D01*
X18038363Y2949501D01*
X17988924Y3068859D01*
X17988917Y3068872D01*
X17901316Y3199975D01*
X17901313Y3199979D01*
X17789819Y3311473D01*
X17789815Y3311476D01*
X17658712Y3399077D01*
X17658699Y3399084D01*
X17513028Y3459422D01*
X17513016Y3459425D01*
X17358372Y3490186D01*
X17358369Y3490186D01*
X17200685Y3490186D01*
X17200682Y3490186D01*
X17046037Y3459425D01*
X17046025Y3459422D01*
X16900349Y3399082D01*
X16885574Y3389209D01*
X16818896Y3368333D01*
X16751517Y3386819D01*
X16747797Y3389210D01*
X16725794Y3403912D01*
X16725792Y3403913D01*
X16580116Y3464253D01*
X16580104Y3464256D01*
X16425460Y3495017D01*
X16425457Y3495017D01*
X16267773Y3495017D01*
X16267770Y3495017D01*
X16113125Y3464256D01*
X16113107Y3464251D01*
X16109450Y3462736D01*
X16107383Y3462514D01*
X16107291Y3462486D01*
X16107285Y3462504D01*
X16039980Y3455273D01*
X15977504Y3486554D01*
X15974327Y3489620D01*
X15640001Y3823946D01*
X15640000Y3823946D01*
X15315975Y3499923D01*
X14864024Y3499923D01*
X14540001Y3823946D01*
X14540000Y3823946D01*
X14215975Y3499923D01*
X13764024Y3499923D01*
X13440001Y3823946D01*
X13440000Y3823946D01*
X13115975Y3499923D01*
X6052869Y3499923D01*
X6059737Y3516503D01*
X6090500Y3671158D01*
X6090500Y3828842D01*
X6090500Y3828845D01*
X6090499Y3828847D01*
X6064663Y3958733D01*
X6059737Y3983497D01*
X6009978Y4103627D01*
X5999397Y4129173D01*
X5999390Y4129186D01*
X5959711Y4188570D01*
X5917746Y4251374D01*
X12690000Y4251374D01*
X12690000Y4103627D01*
X12718820Y3958741D01*
X12718822Y3958733D01*
X12762421Y3853476D01*
X13086446Y4177500D01*
X13086446Y4177501D01*
X13066556Y4197391D01*
X13340000Y4197391D01*
X13340000Y4157609D01*
X13355224Y4120855D01*
X13383355Y4092724D01*
X13420109Y4077500D01*
X13459891Y4077500D01*
X13496645Y4092724D01*
X13524776Y4120855D01*
X13540000Y4157609D01*
X13540000Y4177500D01*
X13793554Y4177500D01*
X13990000Y3981054D01*
X14186446Y4177500D01*
X14166555Y4197391D01*
X14440000Y4197391D01*
X14440000Y4157609D01*
X14455224Y4120855D01*
X14483355Y4092724D01*
X14520109Y4077500D01*
X14559891Y4077500D01*
X14596645Y4092724D01*
X14624776Y4120855D01*
X14640000Y4157609D01*
X14640000Y4177500D01*
X14893554Y4177500D01*
X15090000Y3981054D01*
X15286446Y4177500D01*
X15266555Y4197391D01*
X15540000Y4197391D01*
X15540000Y4157609D01*
X15555224Y4120855D01*
X15583355Y4092724D01*
X15620109Y4077500D01*
X15659891Y4077500D01*
X15696645Y4092724D01*
X15724776Y4120855D01*
X15740000Y4157609D01*
X15740000Y4177501D01*
X15993554Y4177501D01*
X15993554Y4177499D01*
X16317577Y3853476D01*
X16317578Y3853476D01*
X16361175Y3958725D01*
X16361179Y3958740D01*
X16389999Y4103627D01*
X16390000Y4103629D01*
X16390000Y4251372D01*
X16389999Y4251374D01*
X16361179Y4396260D01*
X16361178Y4396264D01*
X16317577Y4501525D01*
X15993554Y4177501D01*
X15740000Y4177501D01*
X15740000Y4197391D01*
X15724776Y4234145D01*
X15696645Y4262276D01*
X15659891Y4277500D01*
X15620109Y4277500D01*
X15583355Y4262276D01*
X15555224Y4234145D01*
X15540000Y4197391D01*
X15266555Y4197391D01*
X15090000Y4373946D01*
X14893554Y4177500D01*
X14640000Y4177500D01*
X14640000Y4197391D01*
X14624776Y4234145D01*
X14596645Y4262276D01*
X14559891Y4277500D01*
X14520109Y4277500D01*
X14483355Y4262276D01*
X14455224Y4234145D01*
X14440000Y4197391D01*
X14166555Y4197391D01*
X13990000Y4373946D01*
X13793554Y4177500D01*
X13540000Y4177500D01*
X13540000Y4197391D01*
X13524776Y4234145D01*
X13496645Y4262276D01*
X13459891Y4277500D01*
X13420109Y4277500D01*
X13383355Y4262276D01*
X13355224Y4234145D01*
X13340000Y4197391D01*
X13066556Y4197391D01*
X12762421Y4501526D01*
X12762420Y4501526D01*
X12718823Y4396272D01*
X12718820Y4396260D01*
X12690000Y4251374D01*
X5917746Y4251374D01*
X5911789Y4260289D01*
X5911786Y4260293D01*
X5800292Y4371787D01*
X5800288Y4371790D01*
X5669185Y4459391D01*
X5669172Y4459398D01*
X5523501Y4519736D01*
X5523489Y4519739D01*
X5368845Y4550500D01*
X5368842Y4550500D01*
X5211158Y4550500D01*
X5211155Y4550500D01*
X5056510Y4519739D01*
X5056498Y4519736D01*
X4910827Y4459398D01*
X4910814Y4459391D01*
X4779711Y4371790D01*
X4779707Y4371787D01*
X4668213Y4260293D01*
X4668210Y4260289D01*
X4580609Y4129186D01*
X4580602Y4129173D01*
X4520264Y3983502D01*
X4520261Y3983490D01*
X4489500Y3828847D01*
X500500Y3828847D01*
X500500Y4727500D01*
X13243554Y4727500D01*
X13440000Y4531054D01*
X13636446Y4727500D01*
X14343554Y4727500D01*
X14540000Y4531054D01*
X14736446Y4727500D01*
X15443554Y4727500D01*
X15640000Y4531054D01*
X15836446Y4727500D01*
X15640000Y4923946D01*
X15443554Y4727500D01*
X14736446Y4727500D01*
X14540000Y4923946D01*
X14343554Y4727500D01*
X13636446Y4727500D01*
X13440000Y4923946D01*
X13243554Y4727500D01*
X500500Y4727500D01*
X500500Y5351374D01*
X12690000Y5351374D01*
X12690000Y5203627D01*
X12718820Y5058741D01*
X12718822Y5058733D01*
X12762421Y4953476D01*
X13086446Y5277500D01*
X13086446Y5277501D01*
X13066556Y5297391D01*
X13340000Y5297391D01*
X13340000Y5257609D01*
X13355224Y5220855D01*
X13383355Y5192724D01*
X13420109Y5177500D01*
X13459891Y5177500D01*
X13496645Y5192724D01*
X13524776Y5220855D01*
X13540000Y5257609D01*
X13540000Y5277500D01*
X13793554Y5277500D01*
X13990000Y5081054D01*
X14186446Y5277500D01*
X14166555Y5297391D01*
X14440000Y5297391D01*
X14440000Y5257609D01*
X14455224Y5220855D01*
X14483355Y5192724D01*
X14520109Y5177500D01*
X14559891Y5177500D01*
X14596645Y5192724D01*
X14624776Y5220855D01*
X14640000Y5257609D01*
X14640000Y5277500D01*
X14893554Y5277500D01*
X15090000Y5081054D01*
X15286446Y5277500D01*
X15266555Y5297391D01*
X15540000Y5297391D01*
X15540000Y5257609D01*
X15555224Y5220855D01*
X15583355Y5192724D01*
X15620109Y5177500D01*
X15659891Y5177500D01*
X15696645Y5192724D01*
X15724776Y5220855D01*
X15740000Y5257609D01*
X15740000Y5277501D01*
X15993554Y5277501D01*
X15993554Y5277499D01*
X16317577Y4953476D01*
X16317578Y4953476D01*
X16361175Y5058725D01*
X16361179Y5058740D01*
X16369157Y5098847D01*
X16649500Y5098847D01*
X16649500Y4941154D01*
X16680261Y4786511D01*
X16680264Y4786499D01*
X16740602Y4640828D01*
X16740609Y4640815D01*
X16828210Y4509712D01*
X16828213Y4509708D01*
X16939707Y4398214D01*
X16939711Y4398211D01*
X17070814Y4310610D01*
X17070827Y4310603D01*
X17216498Y4250265D01*
X17216503Y4250263D01*
X17371153Y4219501D01*
X17371156Y4219500D01*
X17371158Y4219500D01*
X17528844Y4219500D01*
X17528845Y4219501D01*
X17683497Y4250263D01*
X17829179Y4310606D01*
X17960289Y4398211D01*
X18071789Y4509711D01*
X18159394Y4640821D01*
X18219737Y4786503D01*
X18250500Y4941158D01*
X18250500Y5098842D01*
X18250500Y5098845D01*
X18250499Y5098847D01*
X18234854Y5177500D01*
X18219737Y5253497D01*
X18186332Y5334145D01*
X18159397Y5399173D01*
X18159390Y5399186D01*
X18071789Y5530289D01*
X18071786Y5530293D01*
X17960292Y5641787D01*
X17960288Y5641790D01*
X17829185Y5729391D01*
X17829172Y5729398D01*
X17683501Y5789736D01*
X17683489Y5789739D01*
X17528845Y5820500D01*
X17528842Y5820500D01*
X17371158Y5820500D01*
X17371155Y5820500D01*
X17216510Y5789739D01*
X17216498Y5789736D01*
X17070827Y5729398D01*
X17070814Y5729391D01*
X16939711Y5641790D01*
X16939707Y5641787D01*
X16828213Y5530293D01*
X16828210Y5530289D01*
X16740609Y5399186D01*
X16740602Y5399173D01*
X16680264Y5253502D01*
X16680261Y5253490D01*
X16649500Y5098847D01*
X16369157Y5098847D01*
X16375180Y5129125D01*
X16375180Y5129126D01*
X16390000Y5203629D01*
X16390000Y5351372D01*
X16389999Y5351374D01*
X16361179Y5496260D01*
X16361178Y5496264D01*
X16317577Y5601525D01*
X15993554Y5277501D01*
X15740000Y5277501D01*
X15740000Y5297391D01*
X15724776Y5334145D01*
X15696645Y5362276D01*
X15659891Y5377500D01*
X15620109Y5377500D01*
X15583355Y5362276D01*
X15555224Y5334145D01*
X15540000Y5297391D01*
X15266555Y5297391D01*
X15090000Y5473946D01*
X14893554Y5277500D01*
X14640000Y5277500D01*
X14640000Y5297391D01*
X14624776Y5334145D01*
X14596645Y5362276D01*
X14559891Y5377500D01*
X14520109Y5377500D01*
X14483355Y5362276D01*
X14455224Y5334145D01*
X14440000Y5297391D01*
X14166555Y5297391D01*
X13990000Y5473946D01*
X13793554Y5277500D01*
X13540000Y5277500D01*
X13540000Y5297391D01*
X13524776Y5334145D01*
X13496645Y5362276D01*
X13459891Y5377500D01*
X13420109Y5377500D01*
X13383355Y5362276D01*
X13355224Y5334145D01*
X13340000Y5297391D01*
X13066556Y5297391D01*
X12762421Y5601526D01*
X12762420Y5601526D01*
X12718823Y5496272D01*
X12718820Y5496260D01*
X12690000Y5351374D01*
X500500Y5351374D01*
X500500Y6238847D01*
X6359500Y6238847D01*
X6359500Y6081154D01*
X6390261Y5926511D01*
X6390264Y5926499D01*
X6450602Y5780828D01*
X6450609Y5780815D01*
X6538210Y5649712D01*
X6538213Y5649708D01*
X6649707Y5538214D01*
X6649711Y5538211D01*
X6780814Y5450610D01*
X6780827Y5450603D01*
X6904992Y5399173D01*
X6926503Y5390263D01*
X7067202Y5362276D01*
X7081153Y5359501D01*
X7081156Y5359500D01*
X7081158Y5359500D01*
X7238844Y5359500D01*
X7238845Y5359501D01*
X7393497Y5390263D01*
X7539179Y5450606D01*
X7544769Y5454342D01*
X7554083Y5460564D01*
X7554083Y5460565D01*
X7670289Y5538211D01*
X7781789Y5649711D01*
X7869394Y5780821D01*
X7873088Y5789739D01*
X7888729Y5827500D01*
X13243554Y5827500D01*
X13440000Y5631054D01*
X13636446Y5827500D01*
X14343554Y5827500D01*
X14540000Y5631054D01*
X14736446Y5827500D01*
X15443554Y5827500D01*
X15640000Y5631054D01*
X15836446Y5827500D01*
X15640000Y6023946D01*
X15443554Y5827500D01*
X14736446Y5827500D01*
X14540000Y6023946D01*
X14343554Y5827500D01*
X13636446Y5827500D01*
X13440000Y6023946D01*
X13243554Y5827500D01*
X7888729Y5827500D01*
X7929656Y5926307D01*
X7929656Y5926309D01*
X7929737Y5926503D01*
X7960500Y6081158D01*
X7960500Y6238842D01*
X7960500Y6238845D01*
X7960499Y6238847D01*
X7944186Y6320855D01*
X7929737Y6393497D01*
X7905764Y6451374D01*
X12690000Y6451374D01*
X12690000Y6303627D01*
X12718820Y6158741D01*
X12718822Y6158733D01*
X12762421Y6053476D01*
X13086446Y6377500D01*
X13086446Y6377501D01*
X13066556Y6397391D01*
X13340000Y6397391D01*
X13340000Y6357609D01*
X13355224Y6320855D01*
X13383355Y6292724D01*
X13420109Y6277500D01*
X13459891Y6277500D01*
X13496645Y6292724D01*
X13524776Y6320855D01*
X13540000Y6357609D01*
X13540000Y6377500D01*
X13793554Y6377500D01*
X13990000Y6181054D01*
X14186446Y6377500D01*
X14166555Y6397391D01*
X14440000Y6397391D01*
X14440000Y6357609D01*
X14455224Y6320855D01*
X14483355Y6292724D01*
X14520109Y6277500D01*
X14559891Y6277500D01*
X14596645Y6292724D01*
X14624776Y6320855D01*
X14640000Y6357609D01*
X14640000Y6377500D01*
X14893554Y6377500D01*
X15090000Y6181054D01*
X15286446Y6377500D01*
X15266555Y6397391D01*
X15540000Y6397391D01*
X15540000Y6357609D01*
X15555224Y6320855D01*
X15583355Y6292724D01*
X15620109Y6277500D01*
X15659891Y6277500D01*
X15696645Y6292724D01*
X15724776Y6320855D01*
X15740000Y6357609D01*
X15740000Y6377501D01*
X15993554Y6377501D01*
X15993554Y6377499D01*
X16317577Y6053476D01*
X16317578Y6053476D01*
X16361175Y6158725D01*
X16361179Y6158740D01*
X16389999Y6303627D01*
X16390000Y6303629D01*
X16390000Y6451372D01*
X16389999Y6451374D01*
X16361179Y6596260D01*
X16361178Y6596264D01*
X16317577Y6701525D01*
X15993554Y6377501D01*
X15740000Y6377501D01*
X15740000Y6397391D01*
X15724776Y6434145D01*
X15696645Y6462276D01*
X15659891Y6477500D01*
X15620109Y6477500D01*
X15583355Y6462276D01*
X15555224Y6434145D01*
X15540000Y6397391D01*
X15266555Y6397391D01*
X15090000Y6573946D01*
X14893554Y6377500D01*
X14640000Y6377500D01*
X14640000Y6397391D01*
X14624776Y6434145D01*
X14596645Y6462276D01*
X14559891Y6477500D01*
X14520109Y6477500D01*
X14483355Y6462276D01*
X14455224Y6434145D01*
X14440000Y6397391D01*
X14166555Y6397391D01*
X13990000Y6573946D01*
X13793554Y6377500D01*
X13540000Y6377500D01*
X13540000Y6397391D01*
X13524776Y6434145D01*
X13496645Y6462276D01*
X13459891Y6477500D01*
X13420109Y6477500D01*
X13383355Y6462276D01*
X13355224Y6434145D01*
X13340000Y6397391D01*
X13066556Y6397391D01*
X12762421Y6701526D01*
X12762420Y6701526D01*
X12718823Y6596272D01*
X12718820Y6596260D01*
X12690000Y6451374D01*
X7905764Y6451374D01*
X7894942Y6477500D01*
X7869397Y6539173D01*
X7869390Y6539186D01*
X7781789Y6670289D01*
X7781786Y6670293D01*
X7670292Y6781787D01*
X7670288Y6781790D01*
X7539185Y6869391D01*
X7539172Y6869398D01*
X7466007Y6899703D01*
X7393501Y6929736D01*
X7393489Y6929739D01*
X7238845Y6960500D01*
X7238842Y6960500D01*
X7081158Y6960500D01*
X7081155Y6960500D01*
X6926510Y6929739D01*
X6926498Y6929736D01*
X6780827Y6869398D01*
X6780814Y6869391D01*
X6649711Y6781790D01*
X6649707Y6781787D01*
X6538213Y6670293D01*
X6538210Y6670289D01*
X6450609Y6539186D01*
X6450602Y6539173D01*
X6390264Y6393502D01*
X6390261Y6393490D01*
X6359500Y6238847D01*
X500500Y6238847D01*
X500500Y7055080D01*
X13115974Y7055080D01*
X13115974Y7055079D01*
X13440000Y6731054D01*
X13440001Y6731054D01*
X13764024Y7055079D01*
X13764022Y7055080D01*
X14215974Y7055080D01*
X14215974Y7055079D01*
X14540000Y6731054D01*
X14540001Y6731054D01*
X14864024Y7055079D01*
X14864022Y7055080D01*
X15315974Y7055080D01*
X15315974Y7055079D01*
X15640000Y6731054D01*
X15640001Y6731054D01*
X15964024Y7055079D01*
X15858767Y7098678D01*
X15858759Y7098680D01*
X15713872Y7127500D01*
X15566128Y7127500D01*
X15421240Y7098680D01*
X15421228Y7098677D01*
X15315974Y7055080D01*
X14864022Y7055080D01*
X14758767Y7098678D01*
X14758759Y7098680D01*
X14613872Y7127500D01*
X14466128Y7127500D01*
X14321240Y7098680D01*
X14321228Y7098677D01*
X14215974Y7055080D01*
X13764022Y7055080D01*
X13658767Y7098678D01*
X13658759Y7098680D01*
X13513872Y7127500D01*
X13366128Y7127500D01*
X13221240Y7098680D01*
X13221228Y7098677D01*
X13115974Y7055080D01*
X500500Y7055080D01*
X500500Y8188847D01*
X22349500Y8188847D01*
X22349500Y8031154D01*
X22380261Y7876511D01*
X22380264Y7876499D01*
X22440602Y7730828D01*
X22440609Y7730815D01*
X22528210Y7599712D01*
X22528213Y7599708D01*
X22639707Y7488214D01*
X22639711Y7488211D01*
X22770814Y7400610D01*
X22770827Y7400603D01*
X22916498Y7340265D01*
X22916503Y7340263D01*
X23071153Y7309501D01*
X23071156Y7309500D01*
X23071158Y7309500D01*
X23228844Y7309500D01*
X23228845Y7309501D01*
X23383497Y7340263D01*
X23529179Y7400606D01*
X23660289Y7488211D01*
X23771789Y7599711D01*
X23859394Y7730821D01*
X23919737Y7876503D01*
X23950500Y8031158D01*
X23950500Y8188842D01*
X23950500Y8188845D01*
X23950499Y8188847D01*
X23944250Y8220263D01*
X23919737Y8343497D01*
X23916935Y8350262D01*
X23859397Y8489173D01*
X23859390Y8489186D01*
X23771789Y8620289D01*
X23771786Y8620293D01*
X23660292Y8731787D01*
X23660288Y8731790D01*
X23529185Y8819391D01*
X23529172Y8819398D01*
X23383501Y8879736D01*
X23383489Y8879739D01*
X23228845Y8910500D01*
X23228842Y8910500D01*
X23071158Y8910500D01*
X23071155Y8910500D01*
X22916510Y8879739D01*
X22916498Y8879736D01*
X22770827Y8819398D01*
X22770814Y8819391D01*
X22639711Y8731790D01*
X22639707Y8731787D01*
X22528213Y8620293D01*
X22528210Y8620289D01*
X22440609Y8489186D01*
X22440602Y8489173D01*
X22380264Y8343502D01*
X22380261Y8343490D01*
X22349500Y8188847D01*
X500500Y8188847D01*
X500500Y9198847D01*
X11619500Y9198847D01*
X11619500Y9041154D01*
X11650261Y8886511D01*
X11650264Y8886499D01*
X11710602Y8740828D01*
X11710609Y8740815D01*
X11798210Y8609712D01*
X11798213Y8609708D01*
X11909707Y8498214D01*
X11909711Y8498211D01*
X12040814Y8410610D01*
X12040827Y8410603D01*
X12143165Y8368214D01*
X12186503Y8350263D01*
X12341153Y8319501D01*
X12341156Y8319500D01*
X12341158Y8319500D01*
X12498844Y8319500D01*
X12498845Y8319501D01*
X12653497Y8350263D01*
X12799179Y8410606D01*
X12930289Y8498211D01*
X13041789Y8609711D01*
X13129394Y8740821D01*
X13189737Y8886503D01*
X13220500Y9041158D01*
X13220500Y9068847D01*
X15769500Y9068847D01*
X15769500Y8911154D01*
X15800261Y8756511D01*
X15800264Y8756499D01*
X15860602Y8610828D01*
X15860609Y8610815D01*
X15948210Y8479712D01*
X15948213Y8479708D01*
X16059707Y8368214D01*
X16059711Y8368211D01*
X16190814Y8280610D01*
X16190827Y8280603D01*
X16336498Y8220265D01*
X16336503Y8220263D01*
X16491153Y8189501D01*
X16491156Y8189500D01*
X16491158Y8189500D01*
X16648844Y8189500D01*
X16648845Y8189501D01*
X16803497Y8220263D01*
X16949179Y8280606D01*
X16949186Y8280612D01*
X16949190Y8280613D01*
X16975262Y8298034D01*
X16975266Y8298036D01*
X17053431Y8350265D01*
X17080289Y8368211D01*
X17191789Y8479711D01*
X17279394Y8610821D01*
X17339737Y8756503D01*
X17370500Y8911158D01*
X17370500Y9068842D01*
X17370500Y9068845D01*
X17370499Y9068847D01*
X17344641Y9198842D01*
X17339737Y9223497D01*
X17285888Y9353502D01*
X17279397Y9369173D01*
X17279390Y9369186D01*
X17191789Y9500289D01*
X17191786Y9500293D01*
X17080292Y9611787D01*
X17080288Y9611790D01*
X16949185Y9699391D01*
X16949172Y9699398D01*
X16803501Y9759736D01*
X16803489Y9759739D01*
X16648845Y9790500D01*
X16648842Y9790500D01*
X16491158Y9790500D01*
X16491155Y9790500D01*
X16336510Y9759739D01*
X16336498Y9759736D01*
X16190827Y9699398D01*
X16190814Y9699391D01*
X16059711Y9611790D01*
X16059707Y9611787D01*
X15948213Y9500293D01*
X15948210Y9500289D01*
X15860609Y9369186D01*
X15860602Y9369173D01*
X15800264Y9223502D01*
X15800261Y9223490D01*
X15769500Y9068847D01*
X13220500Y9068847D01*
X13220500Y9198842D01*
X13220500Y9198845D01*
X13220499Y9198847D01*
X13189738Y9353490D01*
X13189737Y9353497D01*
X13183241Y9369179D01*
X13129397Y9499173D01*
X13129390Y9499186D01*
X13041789Y9630289D01*
X13041786Y9630293D01*
X12930292Y9741787D01*
X12930288Y9741790D01*
X12799185Y9829391D01*
X12799172Y9829398D01*
X12653501Y9889736D01*
X12653489Y9889739D01*
X12498845Y9920500D01*
X12498842Y9920500D01*
X12341158Y9920500D01*
X12341155Y9920500D01*
X12186510Y9889739D01*
X12186498Y9889736D01*
X12040827Y9829398D01*
X12040814Y9829391D01*
X11909711Y9741790D01*
X11909707Y9741787D01*
X11798213Y9630293D01*
X11798210Y9630289D01*
X11710609Y9499186D01*
X11710602Y9499173D01*
X11650264Y9353502D01*
X11650261Y9353490D01*
X11619500Y9198847D01*
X500500Y9198847D01*
X500500Y10958847D01*
X769500Y10958847D01*
X769500Y10801154D01*
X800261Y10646511D01*
X800264Y10646499D01*
X860602Y10500828D01*
X860609Y10500815D01*
X948210Y10369712D01*
X948213Y10369708D01*
X1059707Y10258214D01*
X1059711Y10258211D01*
X1190814Y10170610D01*
X1190827Y10170603D01*
X1336498Y10110265D01*
X1336503Y10110263D01*
X1491153Y10079501D01*
X1491156Y10079500D01*
X1491158Y10079500D01*
X1648844Y10079500D01*
X1648845Y10079501D01*
X1803497Y10110263D01*
X1949179Y10170606D01*
X2080289Y10258211D01*
X2191789Y10369711D01*
X2279394Y10500821D01*
X2339737Y10646503D01*
X2370500Y10801158D01*
X2370500Y10958842D01*
X2370500Y10958845D01*
X2370499Y10958847D01*
X2357989Y11021743D01*
X2354388Y11039847D01*
X9899500Y11039847D01*
X9899500Y10882154D01*
X9930261Y10727511D01*
X9930264Y10727499D01*
X9990602Y10581828D01*
X9990609Y10581815D01*
X10078210Y10450712D01*
X10078213Y10450708D01*
X10189707Y10339214D01*
X10189711Y10339211D01*
X10320814Y10251610D01*
X10320827Y10251603D01*
X10446351Y10199610D01*
X10466503Y10191263D01*
X10621153Y10160501D01*
X10621156Y10160500D01*
X10621158Y10160500D01*
X10778844Y10160500D01*
X10778845Y10160501D01*
X10933497Y10191263D01*
X11079179Y10251606D01*
X11210289Y10339211D01*
X11321789Y10450711D01*
X11409394Y10581821D01*
X11469737Y10727503D01*
X11490156Y10830156D01*
X11492053Y10839691D01*
X11524438Y10901602D01*
X11585153Y10936176D01*
X11602847Y10938239D01*
X11602782Y10938903D01*
X11608836Y10939500D01*
X11608842Y10939500D01*
X11763497Y10970263D01*
X11805949Y10987847D01*
X25752757Y10987847D01*
X25752757Y10830154D01*
X25783518Y10675511D01*
X25783521Y10675499D01*
X25843859Y10529828D01*
X25843866Y10529815D01*
X25931467Y10398712D01*
X25931470Y10398708D01*
X26042964Y10287214D01*
X26042968Y10287211D01*
X26174071Y10199610D01*
X26174084Y10199603D01*
X26319755Y10139265D01*
X26319760Y10139263D01*
X26465542Y10110265D01*
X26474410Y10108501D01*
X26474413Y10108500D01*
X26474415Y10108500D01*
X26632101Y10108500D01*
X26632102Y10108501D01*
X26786754Y10139263D01*
X26932436Y10199606D01*
X27063546Y10287211D01*
X27175046Y10398711D01*
X27262651Y10529821D01*
X27322994Y10675503D01*
X27353757Y10830158D01*
X27353757Y10987842D01*
X27353757Y10987845D01*
X27353756Y10987847D01*
X27328762Y11113497D01*
X27322994Y11142497D01*
X27301453Y11194502D01*
X27262654Y11288173D01*
X27262647Y11288186D01*
X27175046Y11419289D01*
X27175043Y11419293D01*
X27063549Y11530787D01*
X27063545Y11530790D01*
X26932442Y11618391D01*
X26932429Y11618398D01*
X26786758Y11678736D01*
X26786746Y11678739D01*
X26632102Y11709500D01*
X26632099Y11709500D01*
X26474415Y11709500D01*
X26474412Y11709500D01*
X26319767Y11678739D01*
X26319755Y11678736D01*
X26174084Y11618398D01*
X26174071Y11618391D01*
X26042968Y11530790D01*
X26042964Y11530787D01*
X25931470Y11419293D01*
X25931467Y11419289D01*
X25843866Y11288186D01*
X25843859Y11288173D01*
X25783521Y11142502D01*
X25783518Y11142490D01*
X25752757Y10987847D01*
X11805949Y10987847D01*
X11909179Y11030606D01*
X11923009Y11039847D01*
X12008599Y11097036D01*
X12020373Y11104905D01*
X12040289Y11118211D01*
X12151789Y11229711D01*
X12239394Y11360821D01*
X12299737Y11506503D01*
X12330500Y11661158D01*
X12330500Y11818842D01*
X12330500Y11818845D01*
X12330499Y11818847D01*
X12299738Y11973490D01*
X12299737Y11973497D01*
X12299735Y11973502D01*
X12239397Y12119173D01*
X12239390Y12119186D01*
X12151789Y12250289D01*
X12151786Y12250293D01*
X12040292Y12361787D01*
X12040288Y12361790D01*
X11909185Y12449391D01*
X11909172Y12449398D01*
X11763501Y12509736D01*
X11763489Y12509739D01*
X11608845Y12540500D01*
X11608842Y12540500D01*
X11451158Y12540500D01*
X11451155Y12540500D01*
X11296510Y12509739D01*
X11296498Y12509736D01*
X11150827Y12449398D01*
X11150814Y12449391D01*
X11019711Y12361790D01*
X11019707Y12361787D01*
X10908213Y12250293D01*
X10908210Y12250289D01*
X10820609Y12119186D01*
X10820602Y12119173D01*
X10760264Y11973502D01*
X10760261Y11973490D01*
X10737947Y11861309D01*
X10705562Y11799398D01*
X10644847Y11764824D01*
X10627152Y11762762D01*
X10627218Y11762097D01*
X10621153Y11761500D01*
X10466510Y11730739D01*
X10466498Y11730736D01*
X10320827Y11670398D01*
X10320814Y11670391D01*
X10189711Y11582790D01*
X10189707Y11582787D01*
X10078213Y11471293D01*
X10078210Y11471289D01*
X9990609Y11340186D01*
X9990602Y11340173D01*
X9930264Y11194502D01*
X9930261Y11194490D01*
X9899500Y11039847D01*
X2354388Y11039847D01*
X2339738Y11113492D01*
X2339737Y11113493D01*
X2339737Y11113497D01*
X2306184Y11194502D01*
X2279397Y11259173D01*
X2279390Y11259186D01*
X2191789Y11390289D01*
X2191786Y11390293D01*
X2080292Y11501787D01*
X2080288Y11501790D01*
X1949185Y11589391D01*
X1949172Y11589398D01*
X1803501Y11649736D01*
X1803489Y11649739D01*
X1648845Y11680500D01*
X1648842Y11680500D01*
X1491158Y11680500D01*
X1491155Y11680500D01*
X1336510Y11649739D01*
X1336498Y11649736D01*
X1190827Y11589398D01*
X1190814Y11589391D01*
X1059711Y11501790D01*
X1059707Y11501787D01*
X948213Y11390293D01*
X948210Y11390289D01*
X860609Y11259186D01*
X860602Y11259173D01*
X800264Y11113502D01*
X800261Y11113490D01*
X769500Y10958847D01*
X500500Y10958847D01*
X500500Y13148847D01*
X15579500Y13148847D01*
X15579500Y12991154D01*
X15610261Y12836511D01*
X15610264Y12836499D01*
X15670602Y12690828D01*
X15670609Y12690815D01*
X15758210Y12559712D01*
X15758213Y12559708D01*
X15869707Y12448214D01*
X15869711Y12448211D01*
X16000814Y12360610D01*
X16000827Y12360603D01*
X16146498Y12300265D01*
X16146503Y12300263D01*
X16301153Y12269501D01*
X16301156Y12269500D01*
X16301158Y12269500D01*
X16458844Y12269500D01*
X16458845Y12269501D01*
X16613497Y12300263D01*
X16759179Y12360606D01*
X16890289Y12448211D01*
X17001789Y12559711D01*
X17089394Y12690821D01*
X17149737Y12836503D01*
X17180500Y12991158D01*
X17180500Y13074156D01*
X17200185Y13141195D01*
X17252989Y13186950D01*
X17322147Y13196894D01*
X17351944Y13188720D01*
X17396503Y13170263D01*
X17542637Y13141195D01*
X17551153Y13139501D01*
X17551156Y13139500D01*
X17551158Y13139500D01*
X17708844Y13139500D01*
X17708845Y13139501D01*
X17863497Y13170263D01*
X18009179Y13230606D01*
X18140289Y13318211D01*
X18251789Y13429711D01*
X18339394Y13560821D01*
X18399737Y13706503D01*
X18430500Y13861158D01*
X18430500Y14018842D01*
X18430500Y14018845D01*
X18430499Y14018847D01*
X18418565Y14078842D01*
X18399737Y14173497D01*
X18399735Y14173502D01*
X18339397Y14319173D01*
X18339390Y14319186D01*
X18251789Y14450289D01*
X18251786Y14450293D01*
X18140292Y14561787D01*
X18140288Y14561790D01*
X18009185Y14649391D01*
X18009172Y14649398D01*
X17863501Y14709736D01*
X17863489Y14709739D01*
X17795229Y14723317D01*
X17795228Y14723317D01*
X17708844Y14740500D01*
X17708842Y14740500D01*
X17551158Y14740500D01*
X17551155Y14740500D01*
X17396510Y14709739D01*
X17396498Y14709736D01*
X17250827Y14649398D01*
X17250814Y14649391D01*
X17119711Y14561790D01*
X17119707Y14561787D01*
X17008213Y14450293D01*
X17008210Y14450289D01*
X16920609Y14319186D01*
X16920602Y14319173D01*
X16860264Y14173502D01*
X16860261Y14173490D01*
X16829500Y14018847D01*
X16829500Y13935845D01*
X16809815Y13868806D01*
X16757011Y13823051D01*
X16687853Y13813107D01*
X16658048Y13821284D01*
X16613501Y13839736D01*
X16613489Y13839739D01*
X16458845Y13870500D01*
X16458842Y13870500D01*
X16301158Y13870500D01*
X16301155Y13870500D01*
X16146510Y13839739D01*
X16146498Y13839736D01*
X16000827Y13779398D01*
X16000814Y13779391D01*
X15869711Y13691790D01*
X15869707Y13691787D01*
X15758213Y13580293D01*
X15758210Y13580289D01*
X15670609Y13449186D01*
X15670602Y13449173D01*
X15610264Y13303502D01*
X15610261Y13303490D01*
X15579500Y13148847D01*
X500500Y13148847D01*
X500500Y14838847D01*
X19729494Y14838847D01*
X19729494Y14681154D01*
X19760255Y14526511D01*
X19760258Y14526499D01*
X19820596Y14380828D01*
X19820603Y14380815D01*
X19908204Y14249712D01*
X19908207Y14249708D01*
X20019701Y14138214D01*
X20019705Y14138211D01*
X20150808Y14050610D01*
X20150821Y14050603D01*
X20296492Y13990265D01*
X20296497Y13990263D01*
X20451147Y13959501D01*
X20451150Y13959500D01*
X20451152Y13959500D01*
X20608838Y13959500D01*
X20608839Y13959501D01*
X20763491Y13990263D01*
X20882544Y14039577D01*
X20952011Y14047045D01*
X20977444Y14039578D01*
X21096500Y13990263D01*
X21251150Y13959501D01*
X21251153Y13959500D01*
X21251155Y13959500D01*
X21408841Y13959500D01*
X21408842Y13959501D01*
X21563494Y13990263D01*
X21682547Y14039577D01*
X21752014Y14047045D01*
X21777447Y14039578D01*
X21896503Y13990263D01*
X22051153Y13959501D01*
X22051156Y13959500D01*
X22051158Y13959500D01*
X22208844Y13959500D01*
X22208845Y13959501D01*
X22363497Y13990263D01*
X22505490Y14049079D01*
X22574959Y14056547D01*
X22603116Y14046754D01*
X22603411Y14047465D01*
X22754717Y13984793D01*
X22754722Y13984791D01*
X22881863Y13959501D01*
X22909372Y13954029D01*
X22909375Y13954028D01*
X22909377Y13954028D01*
X23067063Y13954028D01*
X23067064Y13954029D01*
X23221716Y13984791D01*
X23367398Y14045134D01*
X23417853Y14078847D01*
X26796500Y14078847D01*
X26796500Y13921154D01*
X26827261Y13766511D01*
X26827264Y13766499D01*
X26887602Y13620828D01*
X26887609Y13620815D01*
X26975210Y13489712D01*
X26975213Y13489708D01*
X27086707Y13378214D01*
X27086711Y13378211D01*
X27217814Y13290610D01*
X27217827Y13290603D01*
X27362665Y13230610D01*
X27363503Y13230263D01*
X27518153Y13199501D01*
X27518156Y13199500D01*
X27518158Y13199500D01*
X27675844Y13199500D01*
X27675845Y13199501D01*
X27830497Y13230263D01*
X27976179Y13290606D01*
X28107289Y13378211D01*
X28218789Y13489711D01*
X28306394Y13620821D01*
X28366737Y13766503D01*
X28397500Y13921158D01*
X28397500Y14078842D01*
X28397500Y14078845D01*
X28397499Y14078847D01*
X28386779Y14132739D01*
X28366737Y14233497D01*
X28307983Y14375343D01*
X28306397Y14379173D01*
X28306390Y14379186D01*
X28218789Y14510289D01*
X28218786Y14510293D01*
X28107292Y14621787D01*
X28107288Y14621790D01*
X27976185Y14709391D01*
X27976172Y14709398D01*
X27830501Y14769736D01*
X27830489Y14769739D01*
X27675845Y14800500D01*
X27675842Y14800500D01*
X27518158Y14800500D01*
X27518155Y14800500D01*
X27363510Y14769739D01*
X27363498Y14769736D01*
X27217827Y14709398D01*
X27217814Y14709391D01*
X27086711Y14621790D01*
X27086707Y14621787D01*
X26975213Y14510293D01*
X26975210Y14510289D01*
X26887609Y14379186D01*
X26887602Y14379173D01*
X26827264Y14233502D01*
X26827261Y14233490D01*
X26796500Y14078847D01*
X23417853Y14078847D01*
X23498508Y14132739D01*
X23503983Y14138214D01*
X23538385Y14172615D01*
X23610005Y14244236D01*
X23610008Y14244239D01*
X23697613Y14375349D01*
X23699200Y14379179D01*
X23728654Y14450289D01*
X23757956Y14521031D01*
X23787498Y14669550D01*
X23819882Y14731460D01*
X23880598Y14766034D01*
X23933305Y14766975D01*
X23965627Y14760546D01*
X24021156Y14749500D01*
X24021158Y14749500D01*
X24178844Y14749500D01*
X24178845Y14749501D01*
X24333497Y14780263D01*
X24479179Y14840606D01*
X24493658Y14850282D01*
X24560335Y14871160D01*
X24627715Y14852676D01*
X24631441Y14850282D01*
X24690814Y14810610D01*
X24690827Y14810603D01*
X24796156Y14766975D01*
X24836503Y14750263D01*
X24971969Y14723317D01*
X24991153Y14719501D01*
X24991156Y14719500D01*
X24991158Y14719500D01*
X25148844Y14719500D01*
X25148845Y14719501D01*
X25303497Y14750263D01*
X25449179Y14810606D01*
X25580289Y14898211D01*
X25691789Y15009711D01*
X25779394Y15140821D01*
X25839737Y15286503D01*
X25870500Y15441158D01*
X25870500Y15598842D01*
X25870500Y15598845D01*
X25870499Y15598847D01*
X25866522Y15618842D01*
X25839737Y15753497D01*
X25831451Y15773502D01*
X25779397Y15899173D01*
X25779390Y15899186D01*
X25691789Y16030289D01*
X25691786Y16030293D01*
X25580292Y16141787D01*
X25580288Y16141790D01*
X25449185Y16229391D01*
X25449172Y16229398D01*
X25303501Y16289736D01*
X25303489Y16289739D01*
X25148845Y16320500D01*
X25148842Y16320500D01*
X24991158Y16320500D01*
X24991155Y16320500D01*
X24836510Y16289739D01*
X24836498Y16289736D01*
X24690828Y16229398D01*
X24690808Y16229387D01*
X24676336Y16219717D01*
X24609658Y16198841D01*
X24542279Y16217328D01*
X24538559Y16219718D01*
X24518591Y16233060D01*
X24479179Y16259394D01*
X24479176Y16259396D01*
X24479175Y16259396D01*
X24333501Y16319736D01*
X24333489Y16319739D01*
X24178845Y16350500D01*
X24178842Y16350500D01*
X24021158Y16350500D01*
X24021155Y16350500D01*
X23866510Y16319739D01*
X23866498Y16319736D01*
X23720828Y16259398D01*
X23720814Y16259390D01*
X23681404Y16233058D01*
X23614726Y16212182D01*
X23547347Y16230668D01*
X23543624Y16233060D01*
X23519179Y16249394D01*
X23519172Y16249398D01*
X23373501Y16309736D01*
X23373489Y16309739D01*
X23218845Y16340500D01*
X23218842Y16340500D01*
X23061158Y16340500D01*
X23061155Y16340500D01*
X22906510Y16309739D01*
X22906498Y16309736D01*
X22760827Y16249398D01*
X22760814Y16249391D01*
X22629711Y16161790D01*
X22629707Y16161787D01*
X22518213Y16050293D01*
X22518210Y16050289D01*
X22430609Y15919186D01*
X22430602Y15919173D01*
X22370264Y15773502D01*
X22370261Y15773492D01*
X22347532Y15659227D01*
X22315147Y15597316D01*
X22254431Y15562742D01*
X22213767Y15560016D01*
X22208850Y15560500D01*
X22208842Y15560500D01*
X22051158Y15560500D01*
X22051155Y15560500D01*
X21896510Y15529739D01*
X21896498Y15529736D01*
X21777450Y15480425D01*
X21707980Y15472956D01*
X21682546Y15480425D01*
X21563498Y15529736D01*
X21563486Y15529739D01*
X21408842Y15560500D01*
X21408839Y15560500D01*
X21251155Y15560500D01*
X21251152Y15560500D01*
X21096507Y15529739D01*
X21096495Y15529736D01*
X20977447Y15480425D01*
X20907977Y15472956D01*
X20882543Y15480425D01*
X20763495Y15529736D01*
X20763483Y15529739D01*
X20608839Y15560500D01*
X20608836Y15560500D01*
X20451152Y15560500D01*
X20451149Y15560500D01*
X20296504Y15529739D01*
X20296492Y15529736D01*
X20150821Y15469398D01*
X20150808Y15469391D01*
X20019705Y15381790D01*
X20019701Y15381787D01*
X19908207Y15270293D01*
X19908204Y15270289D01*
X19820603Y15139186D01*
X19820596Y15139173D01*
X19760258Y14993502D01*
X19760255Y14993490D01*
X19729494Y14838847D01*
X500500Y14838847D01*
X500500Y17268847D01*
X15319500Y17268847D01*
X15319500Y17111154D01*
X15350261Y16956511D01*
X15350264Y16956499D01*
X15410602Y16810828D01*
X15410609Y16810815D01*
X15498210Y16679712D01*
X15498213Y16679708D01*
X15609707Y16568214D01*
X15609711Y16568211D01*
X15740814Y16480610D01*
X15740827Y16480603D01*
X15886498Y16420265D01*
X15886503Y16420263D01*
X16041153Y16389501D01*
X16041156Y16389500D01*
X16041158Y16389500D01*
X16198844Y16389500D01*
X16198845Y16389501D01*
X16353497Y16420263D01*
X16499179Y16480606D01*
X16630289Y16568211D01*
X16741789Y16679711D01*
X16829394Y16810821D01*
X16889737Y16956503D01*
X16920500Y17111158D01*
X16920500Y17268842D01*
X16920500Y17268845D01*
X16920499Y17268847D01*
X16889738Y17423490D01*
X16889737Y17423497D01*
X16889735Y17423502D01*
X16829397Y17569173D01*
X16829390Y17569186D01*
X16741789Y17700289D01*
X16741786Y17700293D01*
X16630292Y17811787D01*
X16630288Y17811790D01*
X16499185Y17899391D01*
X16499172Y17899398D01*
X16353501Y17959736D01*
X16353489Y17959739D01*
X16198845Y17990500D01*
X16198842Y17990500D01*
X16041158Y17990500D01*
X16041155Y17990500D01*
X15886510Y17959739D01*
X15886498Y17959736D01*
X15740827Y17899398D01*
X15740814Y17899391D01*
X15609711Y17811790D01*
X15609707Y17811787D01*
X15498213Y17700293D01*
X15498210Y17700289D01*
X15410609Y17569186D01*
X15410602Y17569173D01*
X15350264Y17423502D01*
X15350261Y17423490D01*
X15319500Y17268847D01*
X500500Y17268847D01*
X500500Y19178847D01*
X19779500Y19178847D01*
X19779500Y19021154D01*
X19810261Y18866511D01*
X19810264Y18866499D01*
X19870602Y18720828D01*
X19870609Y18720815D01*
X19958210Y18589712D01*
X19958213Y18589708D01*
X20069707Y18478214D01*
X20069711Y18478211D01*
X20200814Y18390610D01*
X20200827Y18390603D01*
X20346498Y18330265D01*
X20346503Y18330263D01*
X20501153Y18299501D01*
X20501156Y18299500D01*
X20501158Y18299500D01*
X20658844Y18299500D01*
X20658845Y18299501D01*
X20813497Y18330263D01*
X20959179Y18390606D01*
X21090289Y18478211D01*
X21201789Y18589711D01*
X21289394Y18720821D01*
X21349737Y18866503D01*
X21380500Y19021158D01*
X21380500Y19178842D01*
X21380500Y19178845D01*
X21380499Y19178847D01*
X21349738Y19333490D01*
X21349737Y19333497D01*
X21349735Y19333502D01*
X21289397Y19479173D01*
X21289390Y19479186D01*
X21201789Y19610289D01*
X21201786Y19610293D01*
X21090292Y19721787D01*
X21090288Y19721790D01*
X20959185Y19809391D01*
X20959172Y19809398D01*
X20813501Y19869736D01*
X20813489Y19869739D01*
X20658845Y19900500D01*
X20658842Y19900500D01*
X20501158Y19900500D01*
X20501155Y19900500D01*
X20346510Y19869739D01*
X20346498Y19869736D01*
X20200827Y19809398D01*
X20200814Y19809391D01*
X20069711Y19721790D01*
X20069707Y19721787D01*
X19958213Y19610293D01*
X19958210Y19610289D01*
X19870609Y19479186D01*
X19870602Y19479173D01*
X19810264Y19333502D01*
X19810261Y19333490D01*
X19779500Y19178847D01*
X500500Y19178847D01*
X500500Y21168847D01*
X1309500Y21168847D01*
X1309500Y21011154D01*
X1340261Y20856511D01*
X1340264Y20856499D01*
X1400602Y20710828D01*
X1400609Y20710815D01*
X1488210Y20579712D01*
X1488213Y20579708D01*
X1599707Y20468214D01*
X1599711Y20468211D01*
X1730814Y20380610D01*
X1730827Y20380603D01*
X1876498Y20320265D01*
X1876503Y20320263D01*
X2031153Y20289501D01*
X2031156Y20289500D01*
X2031158Y20289500D01*
X2188844Y20289500D01*
X2188845Y20289501D01*
X2343497Y20320263D01*
X2489179Y20380606D01*
X2620289Y20468211D01*
X2731789Y20579711D01*
X2819394Y20710821D01*
X2879737Y20856503D01*
X2910500Y21011158D01*
X2910500Y21168842D01*
X2910500Y21168845D01*
X2910499Y21168847D01*
X2886170Y21291156D01*
X2879737Y21323497D01*
X2852398Y21389500D01*
X2819397Y21469173D01*
X2819390Y21469186D01*
X2731789Y21600289D01*
X2731786Y21600293D01*
X2620292Y21711787D01*
X2620288Y21711790D01*
X2489185Y21799391D01*
X2489172Y21799398D01*
X2343501Y21859736D01*
X2343489Y21859739D01*
X2188845Y21890500D01*
X2188842Y21890500D01*
X2031158Y21890500D01*
X2031155Y21890500D01*
X1876510Y21859739D01*
X1876498Y21859736D01*
X1730827Y21799398D01*
X1730814Y21799391D01*
X1599711Y21711790D01*
X1599707Y21711787D01*
X1488213Y21600293D01*
X1488210Y21600289D01*
X1400609Y21469186D01*
X1400602Y21469173D01*
X1340264Y21323502D01*
X1340261Y21323490D01*
X1309500Y21168847D01*
X500500Y21168847D01*
X500500Y22169135D01*
X3760315Y22169135D01*
X3760315Y22011442D01*
X3791076Y21856799D01*
X3791079Y21856787D01*
X3851417Y21711116D01*
X3851424Y21711103D01*
X3939025Y21580000D01*
X3939028Y21579996D01*
X4050522Y21468502D01*
X4050526Y21468499D01*
X4181629Y21380898D01*
X4181642Y21380891D01*
X4327313Y21320553D01*
X4327318Y21320551D01*
X4475086Y21291158D01*
X4481968Y21289789D01*
X4481971Y21289788D01*
X4481973Y21289788D01*
X4639659Y21289788D01*
X4639660Y21289789D01*
X4794312Y21320551D01*
X4939994Y21380894D01*
X5071104Y21468499D01*
X5182604Y21579999D01*
X5270209Y21711109D01*
X5330552Y21856791D01*
X5361315Y22011446D01*
X5361315Y22169130D01*
X5361315Y22169133D01*
X5361314Y22169135D01*
X5341130Y22270606D01*
X5330552Y22323785D01*
X5316959Y22356601D01*
X5270212Y22469461D01*
X5270205Y22469474D01*
X5182604Y22600577D01*
X5182601Y22600581D01*
X5071107Y22712075D01*
X5071103Y22712078D01*
X4940000Y22799679D01*
X4939987Y22799686D01*
X4794316Y22860024D01*
X4794304Y22860027D01*
X4639660Y22890788D01*
X4639657Y22890788D01*
X4481973Y22890788D01*
X4481970Y22890788D01*
X4327325Y22860027D01*
X4327313Y22860024D01*
X4181642Y22799686D01*
X4181629Y22799679D01*
X4050526Y22712078D01*
X4050522Y22712075D01*
X3939028Y22600581D01*
X3939025Y22600577D01*
X3851424Y22469474D01*
X3851417Y22469461D01*
X3791079Y22323790D01*
X3791076Y22323778D01*
X3760315Y22169135D01*
X500500Y22169135D01*
X500500Y23058847D01*
X11469500Y23058847D01*
X11469500Y22901154D01*
X11500261Y22746511D01*
X11500264Y22746499D01*
X11560602Y22600828D01*
X11560609Y22600815D01*
X11648210Y22469712D01*
X11648213Y22469708D01*
X11759707Y22358214D01*
X11759711Y22358211D01*
X11877712Y22279365D01*
X11922517Y22225753D01*
X11931224Y22156428D01*
X11901070Y22093401D01*
X11896503Y22088582D01*
X11788210Y21980289D01*
X11700609Y21849186D01*
X11700602Y21849173D01*
X11640264Y21703502D01*
X11640261Y21703490D01*
X11609500Y21548847D01*
X11609500Y21391154D01*
X11640261Y21236511D01*
X11640264Y21236499D01*
X11700602Y21090828D01*
X11700609Y21090815D01*
X11788210Y20959712D01*
X11788213Y20959708D01*
X11899707Y20848214D01*
X11899711Y20848211D01*
X12030814Y20760610D01*
X12030827Y20760603D01*
X12151028Y20710815D01*
X12176503Y20700263D01*
X12331153Y20669501D01*
X12331156Y20669500D01*
X12331158Y20669500D01*
X12488844Y20669500D01*
X12488845Y20669501D01*
X12643497Y20700263D01*
X12789179Y20760606D01*
X12920289Y20848211D01*
X13031789Y20959711D01*
X13119394Y21090821D01*
X13179737Y21236503D01*
X13210500Y21391158D01*
X13210500Y21448847D01*
X14779500Y21448847D01*
X14779500Y21291154D01*
X14810261Y21136511D01*
X14810264Y21136499D01*
X14870602Y20990828D01*
X14870609Y20990815D01*
X14958210Y20859712D01*
X14958213Y20859708D01*
X15069707Y20748214D01*
X15069711Y20748211D01*
X15200814Y20660610D01*
X15200827Y20660603D01*
X15346498Y20600265D01*
X15346503Y20600263D01*
X15501153Y20569501D01*
X15501156Y20569500D01*
X15501158Y20569500D01*
X15658844Y20569500D01*
X15658845Y20569501D01*
X15813497Y20600263D01*
X15959179Y20660606D01*
X16090289Y20748211D01*
X16201789Y20859711D01*
X16289394Y20990821D01*
X16349737Y21136503D01*
X16380500Y21291158D01*
X16380500Y21448842D01*
X16380500Y21448845D01*
X16380499Y21448847D01*
X16374181Y21480610D01*
X16349737Y21603497D01*
X16318170Y21679708D01*
X16289397Y21749173D01*
X16289390Y21749186D01*
X16201789Y21880289D01*
X16201786Y21880293D01*
X16090292Y21991787D01*
X16090288Y21991790D01*
X15959185Y22079391D01*
X15959172Y22079398D01*
X15813501Y22139736D01*
X15813489Y22139739D01*
X15745229Y22153317D01*
X15745228Y22153317D01*
X15658844Y22170500D01*
X15658842Y22170500D01*
X15501158Y22170500D01*
X15501155Y22170500D01*
X15346510Y22139739D01*
X15346498Y22139736D01*
X15200827Y22079398D01*
X15200814Y22079391D01*
X15069711Y21991790D01*
X15069707Y21991787D01*
X14958213Y21880293D01*
X14958210Y21880289D01*
X14870609Y21749186D01*
X14870602Y21749173D01*
X14810264Y21603502D01*
X14810261Y21603490D01*
X14779500Y21448847D01*
X13210500Y21448847D01*
X13210500Y21548842D01*
X13210500Y21548845D01*
X13210499Y21548847D01*
X13179738Y21703490D01*
X13179737Y21703497D01*
X13140017Y21799391D01*
X13119397Y21849173D01*
X13119390Y21849186D01*
X13031789Y21980289D01*
X13031786Y21980293D01*
X12920292Y22091787D01*
X12920288Y22091790D01*
X12802287Y22170636D01*
X12757482Y22224248D01*
X12751881Y22268847D01*
X19939500Y22268847D01*
X19939500Y22111154D01*
X19970261Y21956511D01*
X19970264Y21956499D01*
X20030602Y21810828D01*
X20030609Y21810815D01*
X20118210Y21679712D01*
X20118213Y21679708D01*
X20229707Y21568214D01*
X20229711Y21568211D01*
X20360814Y21480610D01*
X20360827Y21480603D01*
X20506498Y21420265D01*
X20506503Y21420263D01*
X20652823Y21391158D01*
X20661153Y21389501D01*
X20661156Y21389500D01*
X20661158Y21389500D01*
X20818844Y21389500D01*
X20818845Y21389501D01*
X20973497Y21420263D01*
X21091592Y21469179D01*
X21119172Y21480603D01*
X21119172Y21480604D01*
X21119179Y21480606D01*
X21250289Y21568211D01*
X21361789Y21679711D01*
X21449394Y21810821D01*
X21509737Y21956503D01*
X21540500Y22111158D01*
X21540500Y22268842D01*
X21540500Y22268845D01*
X21540499Y22268847D01*
X21529570Y22323790D01*
X21509737Y22423497D01*
X21490594Y22469713D01*
X21449397Y22569173D01*
X21449390Y22569186D01*
X21361789Y22700289D01*
X21361786Y22700293D01*
X21250292Y22811787D01*
X21250288Y22811790D01*
X21119185Y22899391D01*
X21119172Y22899398D01*
X20973501Y22959736D01*
X20973489Y22959739D01*
X20818845Y22990500D01*
X20818842Y22990500D01*
X20661158Y22990500D01*
X20661155Y22990500D01*
X20506510Y22959739D01*
X20506498Y22959736D01*
X20360827Y22899398D01*
X20360814Y22899391D01*
X20229711Y22811790D01*
X20229707Y22811787D01*
X20118213Y22700293D01*
X20118210Y22700289D01*
X20030609Y22569186D01*
X20030602Y22569173D01*
X19970264Y22423502D01*
X19970261Y22423490D01*
X19939500Y22268847D01*
X12751881Y22268847D01*
X12748775Y22293573D01*
X12778929Y22356601D01*
X12783478Y22361401D01*
X12891789Y22469711D01*
X12979394Y22600821D01*
X13039737Y22746503D01*
X13070500Y22901158D01*
X13070500Y23058842D01*
X13070500Y23058845D01*
X13070499Y23058847D01*
X13039738Y23213490D01*
X13039737Y23213497D01*
X13039735Y23213502D01*
X12979397Y23359173D01*
X12979390Y23359186D01*
X12891789Y23490289D01*
X12891786Y23490293D01*
X12780292Y23601787D01*
X12780288Y23601790D01*
X12649185Y23689391D01*
X12649172Y23689398D01*
X12503501Y23749736D01*
X12503489Y23749739D01*
X12348845Y23780500D01*
X12348842Y23780500D01*
X12191158Y23780500D01*
X12191155Y23780500D01*
X12036510Y23749739D01*
X12036498Y23749736D01*
X11890827Y23689398D01*
X11890814Y23689391D01*
X11759711Y23601790D01*
X11759707Y23601787D01*
X11648213Y23490293D01*
X11648210Y23490289D01*
X11560609Y23359186D01*
X11560602Y23359173D01*
X11500264Y23213502D01*
X11500261Y23213490D01*
X11469500Y23058847D01*
X500500Y23058847D01*
X500500Y25368847D01*
X19879500Y25368847D01*
X19879500Y25211154D01*
X19910261Y25056511D01*
X19910264Y25056499D01*
X19970602Y24910828D01*
X19970609Y24910815D01*
X20058210Y24779712D01*
X20058213Y24779708D01*
X20169707Y24668214D01*
X20169711Y24668211D01*
X20300814Y24580610D01*
X20300827Y24580603D01*
X20446498Y24520265D01*
X20446503Y24520263D01*
X20601153Y24489501D01*
X20601156Y24489500D01*
X20601158Y24489500D01*
X20758844Y24489500D01*
X20758845Y24489501D01*
X20913497Y24520263D01*
X21059179Y24580606D01*
X21190289Y24668211D01*
X21301789Y24779711D01*
X21389394Y24910821D01*
X21449737Y25056503D01*
X21480500Y25211158D01*
X21480500Y25368842D01*
X21480500Y25368845D01*
X21480499Y25368847D01*
X21449738Y25523490D01*
X21449737Y25523497D01*
X21417939Y25600265D01*
X21389397Y25669173D01*
X21389390Y25669186D01*
X21301789Y25800289D01*
X21301786Y25800293D01*
X21190292Y25911787D01*
X21190288Y25911790D01*
X21059185Y25999391D01*
X21059172Y25999398D01*
X20913501Y26059736D01*
X20913489Y26059739D01*
X20758845Y26090500D01*
X20758842Y26090500D01*
X20601158Y26090500D01*
X20601155Y26090500D01*
X20446510Y26059739D01*
X20446498Y26059736D01*
X20300827Y25999398D01*
X20300814Y25999391D01*
X20169711Y25911790D01*
X20169707Y25911787D01*
X20058213Y25800293D01*
X20058210Y25800289D01*
X19970609Y25669186D01*
X19970602Y25669173D01*
X19910264Y25523502D01*
X19910261Y25523490D01*
X19879500Y25368847D01*
X500500Y25368847D01*
X500500Y26448847D01*
X6229500Y26448847D01*
X6229500Y26291154D01*
X6260261Y26136511D01*
X6260264Y26136499D01*
X6320602Y25990828D01*
X6320609Y25990815D01*
X6408210Y25859712D01*
X6408213Y25859708D01*
X6519707Y25748214D01*
X6519711Y25748211D01*
X6650814Y25660610D01*
X6650827Y25660603D01*
X6796498Y25600265D01*
X6796503Y25600263D01*
X6951153Y25569501D01*
X6951156Y25569500D01*
X6951158Y25569500D01*
X7108844Y25569500D01*
X7108845Y25569501D01*
X7263497Y25600263D01*
X7409179Y25660606D01*
X7540289Y25748211D01*
X7651789Y25859711D01*
X7739394Y25990821D01*
X7799737Y26136503D01*
X7818823Y26232454D01*
X7851207Y26294365D01*
X7911923Y26328939D01*
X7981693Y26325200D01*
X7987892Y26322824D01*
X8042363Y26300262D01*
X8066503Y26290263D01*
X8221153Y26259501D01*
X8221156Y26259500D01*
X8221158Y26259500D01*
X8378844Y26259500D01*
X8378845Y26259501D01*
X8533497Y26290263D01*
X8646166Y26336933D01*
X8679172Y26350603D01*
X8679172Y26350604D01*
X8679179Y26350606D01*
X8810289Y26438211D01*
X8921789Y26549711D01*
X9009394Y26680821D01*
X9069737Y26826503D01*
X9076171Y26858847D01*
X16309500Y26858847D01*
X16309500Y26701154D01*
X16340261Y26546511D01*
X16340264Y26546499D01*
X16400602Y26400828D01*
X16400609Y26400815D01*
X16488210Y26269712D01*
X16488213Y26269708D01*
X16599707Y26158214D01*
X16599711Y26158211D01*
X16730814Y26070610D01*
X16730827Y26070603D01*
X16876498Y26010265D01*
X16876503Y26010263D01*
X17031153Y25979501D01*
X17031156Y25979500D01*
X17031158Y25979500D01*
X17188844Y25979500D01*
X17188845Y25979501D01*
X17343497Y26010263D01*
X17489179Y26070606D01*
X17620289Y26158211D01*
X17731789Y26269711D01*
X17819394Y26400821D01*
X17823593Y26410957D01*
X17856126Y26489501D01*
X17879737Y26546503D01*
X17882800Y26561902D01*
X17884757Y26571738D01*
X22205500Y26571738D01*
X22205500Y26414045D01*
X22236261Y26259402D01*
X22236264Y26259390D01*
X22296602Y26113719D01*
X22296609Y26113706D01*
X22384210Y25982603D01*
X22384213Y25982599D01*
X22495707Y25871105D01*
X22495711Y25871102D01*
X22626814Y25783501D01*
X22626827Y25783494D01*
X22772498Y25723156D01*
X22772503Y25723154D01*
X22927153Y25692392D01*
X22927156Y25692391D01*
X22927158Y25692391D01*
X23084844Y25692391D01*
X23084845Y25692392D01*
X23239497Y25723154D01*
X23385179Y25783497D01*
X23516289Y25871102D01*
X23627789Y25982602D01*
X23715394Y26113712D01*
X23775737Y26259394D01*
X23806500Y26414049D01*
X23806500Y26571733D01*
X23806500Y26571736D01*
X23806499Y26571738D01*
X23787309Y26668211D01*
X23775737Y26726388D01*
X23766294Y26749186D01*
X23715397Y26872064D01*
X23715390Y26872077D01*
X23627789Y27003180D01*
X23627786Y27003184D01*
X23516292Y27114678D01*
X23516288Y27114681D01*
X23465155Y27148847D01*
X25196494Y27148847D01*
X25196494Y26991154D01*
X25227255Y26836511D01*
X25227258Y26836499D01*
X25287596Y26690828D01*
X25287603Y26690815D01*
X25375204Y26559712D01*
X25375207Y26559708D01*
X25486701Y26448214D01*
X25486705Y26448211D01*
X25617808Y26360610D01*
X25617821Y26360603D01*
X25763492Y26300265D01*
X25763497Y26300263D01*
X25917086Y26269712D01*
X25918147Y26269501D01*
X25918150Y26269500D01*
X25918152Y26269500D01*
X26075838Y26269500D01*
X26075839Y26269501D01*
X26230491Y26300263D01*
X26349544Y26349577D01*
X26419011Y26357045D01*
X26444444Y26349578D01*
X26563500Y26300263D01*
X26717089Y26269712D01*
X26718150Y26269501D01*
X26718153Y26269500D01*
X26718155Y26269500D01*
X26875841Y26269500D01*
X26875842Y26269501D01*
X27030494Y26300263D01*
X27149547Y26349577D01*
X27219014Y26357045D01*
X27244447Y26349578D01*
X27363503Y26300263D01*
X27517092Y26269712D01*
X27518153Y26269501D01*
X27518156Y26269500D01*
X27518158Y26269500D01*
X27675844Y26269500D01*
X27675845Y26269501D01*
X27830497Y26300263D01*
X27949550Y26349576D01*
X27976172Y26360603D01*
X27976172Y26360604D01*
X27976179Y26360606D01*
X28107289Y26448211D01*
X28218789Y26559711D01*
X28306394Y26690821D01*
X28366737Y26836503D01*
X28397500Y26991158D01*
X28397500Y27148842D01*
X28397500Y27148845D01*
X28397499Y27148847D01*
X28385104Y27211158D01*
X28366737Y27303497D01*
X28366735Y27303502D01*
X28306397Y27449173D01*
X28306390Y27449186D01*
X28218789Y27580289D01*
X28218786Y27580293D01*
X28107292Y27691787D01*
X28107288Y27691790D01*
X27976185Y27779391D01*
X27976172Y27779398D01*
X27830501Y27839736D01*
X27830489Y27839739D01*
X27675845Y27870500D01*
X27675842Y27870500D01*
X27518158Y27870500D01*
X27518155Y27870500D01*
X27363510Y27839739D01*
X27363498Y27839736D01*
X27244450Y27790425D01*
X27174980Y27782956D01*
X27149546Y27790425D01*
X27030498Y27839736D01*
X27030486Y27839739D01*
X26875842Y27870500D01*
X26875839Y27870500D01*
X26718155Y27870500D01*
X26718152Y27870500D01*
X26563507Y27839739D01*
X26563495Y27839736D01*
X26444447Y27790425D01*
X26374977Y27782956D01*
X26349543Y27790425D01*
X26230495Y27839736D01*
X26230483Y27839739D01*
X26075839Y27870500D01*
X26075836Y27870500D01*
X25918152Y27870500D01*
X25918149Y27870500D01*
X25763504Y27839739D01*
X25763492Y27839736D01*
X25617821Y27779398D01*
X25617808Y27779391D01*
X25486705Y27691790D01*
X25486701Y27691787D01*
X25375207Y27580293D01*
X25375204Y27580289D01*
X25287603Y27449186D01*
X25287596Y27449173D01*
X25227258Y27303502D01*
X25227255Y27303490D01*
X25196494Y27148847D01*
X23465155Y27148847D01*
X23385185Y27202282D01*
X23385172Y27202289D01*
X23239501Y27262627D01*
X23239489Y27262630D01*
X23084845Y27293391D01*
X23084842Y27293391D01*
X22927158Y27293391D01*
X22927155Y27293391D01*
X22772510Y27262630D01*
X22772498Y27262627D01*
X22626827Y27202289D01*
X22626814Y27202282D01*
X22495711Y27114681D01*
X22495707Y27114678D01*
X22384213Y27003184D01*
X22384210Y27003180D01*
X22296609Y26872077D01*
X22296602Y26872064D01*
X22236264Y26726393D01*
X22236261Y26726381D01*
X22205500Y26571738D01*
X17884757Y26571738D01*
X17890780Y26602017D01*
X17890780Y26602018D01*
X17906456Y26680828D01*
X17910500Y26701158D01*
X17910500Y26858842D01*
X17910500Y26858845D01*
X17910499Y26858847D01*
X17886170Y26981156D01*
X17879737Y27013497D01*
X17861925Y27056499D01*
X17819397Y27159173D01*
X17819390Y27159186D01*
X17731789Y27290289D01*
X17731786Y27290293D01*
X17620292Y27401787D01*
X17620288Y27401790D01*
X17489185Y27489391D01*
X17489172Y27489398D01*
X17343501Y27549736D01*
X17343489Y27549739D01*
X17188845Y27580500D01*
X17188842Y27580500D01*
X17031158Y27580500D01*
X17031155Y27580500D01*
X16876510Y27549739D01*
X16876498Y27549736D01*
X16730827Y27489398D01*
X16730814Y27489391D01*
X16599711Y27401790D01*
X16599707Y27401787D01*
X16488213Y27290293D01*
X16488210Y27290289D01*
X16400609Y27159186D01*
X16400602Y27159173D01*
X16340264Y27013502D01*
X16340261Y27013490D01*
X16309500Y26858847D01*
X9076171Y26858847D01*
X9078801Y26872070D01*
X9082194Y26889126D01*
X9082194Y26889127D01*
X9100499Y26981154D01*
X9100500Y26981156D01*
X9100500Y27138845D01*
X9100499Y27138847D01*
X9087880Y27202285D01*
X9069737Y27293497D01*
X9065593Y27303502D01*
X9009397Y27439173D01*
X9009390Y27439186D01*
X8921789Y27570289D01*
X8921786Y27570293D01*
X8810292Y27681787D01*
X8810288Y27681790D01*
X8679185Y27769391D01*
X8679172Y27769398D01*
X8533501Y27829736D01*
X8533489Y27829739D01*
X8378845Y27860500D01*
X8378842Y27860500D01*
X8221158Y27860500D01*
X8221155Y27860500D01*
X8066510Y27829739D01*
X8066498Y27829736D01*
X7920827Y27769398D01*
X7920814Y27769391D01*
X7789711Y27681790D01*
X7789707Y27681787D01*
X7678213Y27570293D01*
X7678210Y27570289D01*
X7590609Y27439186D01*
X7590602Y27439173D01*
X7530264Y27293502D01*
X7530261Y27293492D01*
X7511176Y27197545D01*
X7478791Y27135634D01*
X7418075Y27101060D01*
X7348305Y27104801D01*
X7342116Y27107172D01*
X7263497Y27139737D01*
X7263489Y27139739D01*
X7108845Y27170500D01*
X7108842Y27170500D01*
X6951158Y27170500D01*
X6951155Y27170500D01*
X6796510Y27139739D01*
X6796498Y27139736D01*
X6650827Y27079398D01*
X6650814Y27079391D01*
X6519711Y26991790D01*
X6519707Y26991787D01*
X6408213Y26880293D01*
X6408210Y26880289D01*
X6320609Y26749186D01*
X6320602Y26749173D01*
X6260264Y26603502D01*
X6260261Y26603490D01*
X6229500Y26448847D01*
X500500Y26448847D01*
X500500Y27368847D01*
X3129500Y27368847D01*
X3129500Y27211154D01*
X3160261Y27056511D01*
X3160264Y27056499D01*
X3220602Y26910828D01*
X3220609Y26910815D01*
X3308210Y26779712D01*
X3308213Y26779708D01*
X3419707Y26668214D01*
X3419711Y26668211D01*
X3550814Y26580610D01*
X3550827Y26580603D01*
X3633163Y26546499D01*
X3696503Y26520263D01*
X3851153Y26489501D01*
X3851156Y26489500D01*
X3851158Y26489500D01*
X4008844Y26489500D01*
X4008845Y26489501D01*
X4163497Y26520263D01*
X4282354Y26569495D01*
X4282355Y26569495D01*
X4295113Y26574780D01*
X4309179Y26580606D01*
X4440289Y26668211D01*
X4551789Y26779711D01*
X4639394Y26910821D01*
X4699737Y27056503D01*
X4730500Y27211158D01*
X4730500Y27368842D01*
X4730500Y27368845D01*
X4730499Y27368847D01*
X4716509Y27439179D01*
X4699737Y27523497D01*
X4676126Y27580500D01*
X4639397Y27669173D01*
X4639390Y27669186D01*
X4551789Y27800289D01*
X4551786Y27800293D01*
X4440292Y27911787D01*
X4440288Y27911790D01*
X4309185Y27999391D01*
X4309172Y27999398D01*
X4163501Y28059736D01*
X4163489Y28059739D01*
X4008845Y28090500D01*
X4008842Y28090500D01*
X3851158Y28090500D01*
X3851155Y28090500D01*
X3696510Y28059739D01*
X3696498Y28059736D01*
X3550827Y27999398D01*
X3550814Y27999391D01*
X3419711Y27911790D01*
X3419707Y27911787D01*
X3308213Y27800293D01*
X3308210Y27800289D01*
X3220609Y27669186D01*
X3220602Y27669173D01*
X3160264Y27523502D01*
X3160261Y27523490D01*
X3129500Y27368847D01*
X500500Y27368847D01*
X500500Y28808847D01*
X15589500Y28808847D01*
X15589500Y28651154D01*
X15620261Y28496511D01*
X15620264Y28496499D01*
X15680602Y28350828D01*
X15680609Y28350815D01*
X15768210Y28219712D01*
X15768213Y28219708D01*
X15879707Y28108214D01*
X15879711Y28108211D01*
X16010814Y28020610D01*
X16010827Y28020603D01*
X16156498Y27960265D01*
X16156503Y27960263D01*
X16311153Y27929501D01*
X16311156Y27929500D01*
X16311158Y27929500D01*
X16468844Y27929500D01*
X16468845Y27929501D01*
X16623497Y27960263D01*
X16769179Y28020606D01*
X16900289Y28108211D01*
X17011789Y28219711D01*
X17080251Y28322172D01*
X17133861Y28366976D01*
X17203186Y28375683D01*
X17252242Y28356383D01*
X17290816Y28330609D01*
X17290827Y28330603D01*
X17436498Y28270265D01*
X17436503Y28270263D01*
X17591153Y28239501D01*
X17591156Y28239500D01*
X17591158Y28239500D01*
X17748844Y28239500D01*
X17748845Y28239501D01*
X17903497Y28270263D01*
X18049179Y28330606D01*
X18180289Y28418211D01*
X18291789Y28529711D01*
X18379394Y28660821D01*
X18439737Y28806503D01*
X18470500Y28961158D01*
X18470500Y29118842D01*
X18470500Y29118845D01*
X18470499Y29118847D01*
X18455758Y29192954D01*
X18439737Y29273497D01*
X18418793Y29324061D01*
X18379397Y29419173D01*
X18379390Y29419186D01*
X18291789Y29550289D01*
X18291786Y29550293D01*
X18180292Y29661787D01*
X18180288Y29661790D01*
X18049185Y29749391D01*
X18049172Y29749398D01*
X17903501Y29809736D01*
X17903489Y29809739D01*
X17748845Y29840500D01*
X17748842Y29840500D01*
X17591158Y29840500D01*
X17591155Y29840500D01*
X17436510Y29809739D01*
X17436498Y29809736D01*
X17290827Y29749398D01*
X17290814Y29749391D01*
X17159711Y29661790D01*
X17159707Y29661787D01*
X17048213Y29550293D01*
X17048210Y29550289D01*
X16979749Y29447829D01*
X16926137Y29403024D01*
X16856812Y29394317D01*
X16807756Y29413618D01*
X16769184Y29439391D01*
X16769172Y29439398D01*
X16623501Y29499736D01*
X16623489Y29499739D01*
X16468845Y29530500D01*
X16468842Y29530500D01*
X16311158Y29530500D01*
X16311155Y29530500D01*
X16156510Y29499739D01*
X16156498Y29499736D01*
X16010827Y29439398D01*
X16010814Y29439391D01*
X15879711Y29351790D01*
X15879707Y29351787D01*
X15768213Y29240293D01*
X15768210Y29240289D01*
X15680609Y29109186D01*
X15680602Y29109173D01*
X15620264Y28963502D01*
X15620261Y28963490D01*
X15589500Y28808847D01*
X500500Y28808847D01*
X500500Y33136457D01*
X939499Y33136457D01*
X977947Y32943171D01*
X977950Y32943161D01*
X1037589Y32799179D01*
X1053368Y32761086D01*
X1079982Y32721255D01*
X1114971Y32668890D01*
X1135848Y32602213D01*
X1117363Y32534833D01*
X1114971Y32531110D01*
X1053366Y32438911D01*
X977950Y32256840D01*
X977947Y32256830D01*
X939500Y32063544D01*
X939500Y32063541D01*
X939500Y31866459D01*
X939500Y31866457D01*
X939499Y31866457D01*
X977947Y31673172D01*
X977949Y31673164D01*
X1000177Y31619501D01*
X1019940Y31571787D01*
X1020318Y31570876D01*
X1027787Y31501407D01*
X1005026Y31449116D01*
X996203Y31437330D01*
X996202Y31437329D01*
X945908Y31302483D01*
X939501Y31242884D01*
X939501Y31242877D01*
X939500Y31242865D01*
X939500Y30147130D01*
X939501Y30147124D01*
X945908Y30087517D01*
X996202Y29952672D01*
X996206Y29952665D01*
X1082452Y29837456D01*
X1082455Y29837453D01*
X1197664Y29751207D01*
X1197671Y29751203D01*
X1332517Y29700909D01*
X1332516Y29700909D01*
X1339444Y29700165D01*
X1392127Y29694500D01*
X2487872Y29694501D01*
X2547483Y29700909D01*
X2682331Y29751204D01*
X2797546Y29837454D01*
X2883796Y29952669D01*
X2934091Y30087517D01*
X2940500Y30147127D01*
X2940499Y30518847D01*
X8529500Y30518847D01*
X8529500Y30361154D01*
X8560261Y30206511D01*
X8560264Y30206499D01*
X8620602Y30060828D01*
X8620609Y30060815D01*
X8708210Y29929712D01*
X8708213Y29929708D01*
X8819707Y29818214D01*
X8819711Y29818211D01*
X8950814Y29730610D01*
X8950827Y29730603D01*
X9037989Y29694500D01*
X9096503Y29670263D01*
X9251153Y29639501D01*
X9251156Y29639500D01*
X9251158Y29639500D01*
X9408844Y29639500D01*
X9408845Y29639501D01*
X9563497Y29670263D01*
X9709179Y29730606D01*
X9840289Y29818211D01*
X9840292Y29818214D01*
X9846638Y29824559D01*
X9907961Y29858044D01*
X9977653Y29853060D01*
X10033586Y29811188D01*
X10058003Y29745724D01*
X10058319Y29736878D01*
X10058319Y29624400D01*
X10089080Y29469757D01*
X10089083Y29469745D01*
X10149421Y29324074D01*
X10149428Y29324061D01*
X10237029Y29192958D01*
X10237032Y29192954D01*
X10348526Y29081460D01*
X10348530Y29081457D01*
X10479633Y28993856D01*
X10479646Y28993849D01*
X10625317Y28933511D01*
X10625322Y28933509D01*
X10779972Y28902747D01*
X10779975Y28902746D01*
X10779977Y28902746D01*
X10937663Y28902746D01*
X10937664Y28902747D01*
X11092316Y28933509D01*
X11237998Y28993852D01*
X11369108Y29081457D01*
X11480608Y29192957D01*
X11568213Y29324067D01*
X11628556Y29469749D01*
X11659319Y29624404D01*
X11659319Y29782088D01*
X11659319Y29782091D01*
X11659318Y29782093D01*
X11648306Y29837454D01*
X11628556Y29936743D01*
X11582084Y30048937D01*
X11568216Y30082419D01*
X11568209Y30082432D01*
X11480608Y30213535D01*
X11480605Y30213539D01*
X11369111Y30325033D01*
X11369107Y30325036D01*
X11238004Y30412637D01*
X11237991Y30412644D01*
X11092320Y30472982D01*
X11092308Y30472985D01*
X10937664Y30503746D01*
X10937661Y30503746D01*
X10779977Y30503746D01*
X10779974Y30503746D01*
X10625329Y30472985D01*
X10625317Y30472982D01*
X10479646Y30412644D01*
X10479633Y30412637D01*
X10348530Y30325036D01*
X10348526Y30325033D01*
X10342181Y30318687D01*
X10280858Y30285202D01*
X10211166Y30290186D01*
X10155233Y30332058D01*
X10130816Y30397522D01*
X10130500Y30406368D01*
X10130500Y30518845D01*
X10130499Y30518847D01*
X10099738Y30673490D01*
X10099737Y30673497D01*
X10081925Y30716499D01*
X10039397Y30819173D01*
X10039390Y30819186D01*
X9951789Y30950289D01*
X9951786Y30950293D01*
X9840292Y31061787D01*
X9840288Y31061790D01*
X9709185Y31149391D01*
X9709172Y31149398D01*
X9563501Y31209736D01*
X9563489Y31209739D01*
X9408845Y31240500D01*
X9408842Y31240500D01*
X9251158Y31240500D01*
X9251155Y31240500D01*
X9096510Y31209739D01*
X9096498Y31209736D01*
X8950827Y31149398D01*
X8950814Y31149391D01*
X8819711Y31061790D01*
X8819707Y31061787D01*
X8708213Y30950293D01*
X8708210Y30950289D01*
X8620609Y30819186D01*
X8620602Y30819173D01*
X8560264Y30673502D01*
X8560261Y30673490D01*
X8529500Y30518847D01*
X2940499Y30518847D01*
X2940499Y30716499D01*
X2940499Y31242871D01*
X2940498Y31242877D01*
X2940497Y31242884D01*
X2934091Y31302483D01*
X2924136Y31329173D01*
X2883797Y31437329D01*
X2883795Y31437332D01*
X2874976Y31449113D01*
X2850558Y31514577D01*
X2859679Y31570872D01*
X2902051Y31673165D01*
X2925423Y31790664D01*
X2940500Y31866457D01*
X2940500Y32063544D01*
X2902052Y32256830D01*
X2902051Y32256831D01*
X2902051Y32256835D01*
X2902049Y32256840D01*
X2826635Y32438908D01*
X2826633Y32438912D01*
X2826632Y32438914D01*
X2786586Y32498847D01*
X3619500Y32498847D01*
X3619500Y32341154D01*
X3650261Y32186511D01*
X3650264Y32186499D01*
X3710602Y32040828D01*
X3710609Y32040815D01*
X3798210Y31909712D01*
X3798213Y31909708D01*
X3909707Y31798214D01*
X3909711Y31798211D01*
X4040814Y31710610D01*
X4040827Y31710603D01*
X4164466Y31659391D01*
X4186503Y31650263D01*
X4341153Y31619501D01*
X4341156Y31619500D01*
X4341158Y31619500D01*
X4498844Y31619500D01*
X4498845Y31619501D01*
X4653497Y31650263D01*
X4799179Y31710606D01*
X4930289Y31798211D01*
X5041789Y31909711D01*
X5129394Y32040821D01*
X5165854Y32128844D01*
X5165856Y32128849D01*
X14979500Y32128849D01*
X14979500Y31971156D01*
X15010261Y31816513D01*
X15010264Y31816501D01*
X15070602Y31670830D01*
X15070609Y31670817D01*
X15158210Y31539714D01*
X15158213Y31539710D01*
X15269707Y31428216D01*
X15269711Y31428213D01*
X15400814Y31340612D01*
X15400827Y31340605D01*
X15546498Y31280267D01*
X15546503Y31280265D01*
X15701153Y31249503D01*
X15701156Y31249502D01*
X15701158Y31249502D01*
X15858844Y31249502D01*
X15858845Y31249503D01*
X16013497Y31280265D01*
X16159179Y31340608D01*
X16290289Y31428213D01*
X16401789Y31539713D01*
X16489394Y31670823D01*
X16549737Y31816505D01*
X16580500Y31971160D01*
X16580500Y32128844D01*
X16580500Y32128847D01*
X16580499Y32128849D01*
X16569849Y32182388D01*
X16549737Y32283499D01*
X16525854Y32341158D01*
X16489397Y32429175D01*
X16489390Y32429188D01*
X16401789Y32560291D01*
X16401786Y32560295D01*
X16290292Y32671789D01*
X16290288Y32671792D01*
X16159185Y32759393D01*
X16159172Y32759400D01*
X16013501Y32819738D01*
X16013489Y32819741D01*
X15858845Y32850502D01*
X15858842Y32850502D01*
X15701158Y32850502D01*
X15701155Y32850502D01*
X15546510Y32819741D01*
X15546498Y32819738D01*
X15400827Y32759400D01*
X15400814Y32759393D01*
X15269711Y32671792D01*
X15269707Y32671789D01*
X15158213Y32560295D01*
X15158210Y32560291D01*
X15070609Y32429188D01*
X15070602Y32429175D01*
X15010264Y32283504D01*
X15010261Y32283492D01*
X14979500Y32128849D01*
X5165856Y32128849D01*
X5188033Y32182388D01*
X5189735Y32186499D01*
X5189737Y32186503D01*
X5220500Y32341158D01*
X5220500Y32498842D01*
X5220500Y32498845D01*
X5220499Y32498847D01*
X5208276Y32560295D01*
X5189737Y32653497D01*
X5182160Y32671789D01*
X5129397Y32799173D01*
X5129390Y32799186D01*
X5041789Y32930289D01*
X5041786Y32930293D01*
X4930292Y33041787D01*
X4930288Y33041790D01*
X4799185Y33129391D01*
X4799172Y33129398D01*
X4653501Y33189736D01*
X4653489Y33189739D01*
X4498845Y33220500D01*
X4498842Y33220500D01*
X4341158Y33220500D01*
X4341155Y33220500D01*
X4186510Y33189739D01*
X4186498Y33189736D01*
X4040827Y33129398D01*
X4040814Y33129391D01*
X3909711Y33041790D01*
X3909707Y33041787D01*
X3798213Y32930293D01*
X3798210Y32930289D01*
X3710609Y32799186D01*
X3710602Y32799173D01*
X3650264Y32653502D01*
X3650261Y32653490D01*
X3619500Y32498847D01*
X2786586Y32498847D01*
X2765029Y32531109D01*
X2744151Y32597786D01*
X2762635Y32665166D01*
X2765029Y32668891D01*
X2777872Y32688113D01*
X2826632Y32761086D01*
X2902051Y32943165D01*
X2923593Y33051464D01*
X2940500Y33136457D01*
X2940500Y33333544D01*
X2902052Y33526830D01*
X2902051Y33526831D01*
X2902051Y33526835D01*
X2900049Y33531669D01*
X2826635Y33708908D01*
X2826628Y33708921D01*
X2764728Y33801560D01*
X2743850Y33868237D01*
X2762334Y33935617D01*
X2764729Y33939343D01*
X2826189Y34031324D01*
X2826191Y34031327D01*
X2850016Y34088847D01*
X6459500Y34088847D01*
X6459500Y33931154D01*
X6490261Y33776511D01*
X6490264Y33776499D01*
X6550602Y33630828D01*
X6550609Y33630815D01*
X6638210Y33499712D01*
X6638213Y33499708D01*
X6749707Y33388214D01*
X6749711Y33388211D01*
X6880814Y33300610D01*
X6880827Y33300603D01*
X7023608Y33241462D01*
X7026503Y33240263D01*
X7125858Y33220500D01*
X7181153Y33209501D01*
X7181156Y33209500D01*
X7181158Y33209500D01*
X7338844Y33209500D01*
X7338845Y33209501D01*
X7493497Y33240263D01*
X7639179Y33300606D01*
X7770289Y33388211D01*
X7839320Y33457243D01*
X7900641Y33490726D01*
X7970333Y33485742D01*
X8026267Y33443871D01*
X8041559Y33417018D01*
X8045574Y33407325D01*
X8045580Y33407314D01*
X8133181Y33276211D01*
X8133184Y33276207D01*
X8244678Y33164713D01*
X8244682Y33164710D01*
X8375785Y33077109D01*
X8375798Y33077102D01*
X8521469Y33016764D01*
X8521474Y33016762D01*
X8676124Y32986000D01*
X8676127Y32985999D01*
X8676129Y32985999D01*
X8833815Y32985999D01*
X8833816Y32986000D01*
X8988468Y33016762D01*
X9134150Y33077105D01*
X9265260Y33164710D01*
X9274523Y33173974D01*
X9335838Y33207459D01*
X9386394Y33207912D01*
X9438515Y33197545D01*
X9452075Y33194847D01*
X9452076Y33194847D01*
X9609762Y33194847D01*
X9609763Y33194848D01*
X9764415Y33225610D01*
X9910097Y33285953D01*
X10041207Y33373558D01*
X10055863Y33388214D01*
X10101774Y33434124D01*
X10163097Y33467609D01*
X10232789Y33462625D01*
X10288722Y33420753D01*
X10312201Y33357803D01*
X10312858Y33357867D01*
X10313102Y33355388D01*
X10313139Y33355289D01*
X10313154Y33354857D01*
X10313455Y33351803D01*
X10344216Y33197160D01*
X10344219Y33197148D01*
X10404557Y33051477D01*
X10404564Y33051464D01*
X10492165Y32920361D01*
X10492168Y32920357D01*
X10603662Y32808863D01*
X10603666Y32808860D01*
X10734769Y32721259D01*
X10734782Y32721252D01*
X10854198Y32671789D01*
X10880458Y32660912D01*
X11035108Y32630150D01*
X11035111Y32630149D01*
X11035113Y32630149D01*
X11192799Y32630149D01*
X11192800Y32630150D01*
X11347452Y32660912D01*
X11493134Y32721255D01*
X11624244Y32808860D01*
X11735744Y32920360D01*
X11823349Y33051470D01*
X11883692Y33197152D01*
X11914455Y33351807D01*
X11914455Y33509491D01*
X11914455Y33509494D01*
X11914454Y33509496D01*
X11890322Y33630815D01*
X11883692Y33664146D01*
X11843222Y33761850D01*
X11823352Y33809822D01*
X11823345Y33809835D01*
X11735744Y33940938D01*
X11735741Y33940942D01*
X11624247Y34052436D01*
X11624243Y34052439D01*
X11493140Y34140040D01*
X11493127Y34140047D01*
X11347456Y34200385D01*
X11347444Y34200388D01*
X11192800Y34231149D01*
X11192797Y34231149D01*
X11035113Y34231149D01*
X11035110Y34231149D01*
X10880465Y34200388D01*
X10880453Y34200385D01*
X10734782Y34140047D01*
X10734769Y34140040D01*
X10603666Y34052439D01*
X10603662Y34052436D01*
X10543099Y33991872D01*
X10481776Y33958387D01*
X10412084Y33963371D01*
X10356151Y34005243D01*
X10332671Y34068194D01*
X10332015Y34068129D01*
X10331770Y34070609D01*
X10331734Y34070707D01*
X10331718Y34071140D01*
X10331418Y34074184D01*
X10331418Y34074189D01*
X10300655Y34228844D01*
X10297898Y34235500D01*
X10240315Y34374520D01*
X10240308Y34374533D01*
X10152707Y34505636D01*
X10152704Y34505640D01*
X10041210Y34617134D01*
X10041206Y34617137D01*
X9910103Y34704738D01*
X9910090Y34704745D01*
X9764419Y34765083D01*
X9764407Y34765086D01*
X9609763Y34795847D01*
X9609760Y34795847D01*
X9452076Y34795847D01*
X9452073Y34795847D01*
X9297428Y34765086D01*
X9297416Y34765083D01*
X9151745Y34704745D01*
X9151732Y34704738D01*
X9020632Y34617139D01*
X9020629Y34617137D01*
X9011357Y34607865D01*
X8950031Y34574385D01*
X8899492Y34573935D01*
X8897229Y34574385D01*
X8890449Y34575734D01*
X8833813Y34586999D01*
X8676129Y34586999D01*
X8676126Y34586999D01*
X8521481Y34556238D01*
X8521469Y34556235D01*
X8375798Y34495897D01*
X8375785Y34495890D01*
X8244682Y34408289D01*
X8175651Y34339258D01*
X8114327Y34305774D01*
X8044636Y34310759D01*
X7988702Y34352630D01*
X7973410Y34379486D01*
X7969398Y34389171D01*
X7969390Y34389186D01*
X7881789Y34520289D01*
X7881786Y34520293D01*
X7770292Y34631787D01*
X7770288Y34631790D01*
X7639185Y34719391D01*
X7639172Y34719398D01*
X7493501Y34779736D01*
X7493489Y34779739D01*
X7338845Y34810500D01*
X7338842Y34810500D01*
X7181158Y34810500D01*
X7181155Y34810500D01*
X7026510Y34779739D01*
X7026498Y34779736D01*
X6880827Y34719398D01*
X6880814Y34719391D01*
X6749711Y34631790D01*
X6749707Y34631787D01*
X6638213Y34520293D01*
X6638210Y34520289D01*
X6550609Y34389186D01*
X6550602Y34389173D01*
X6490264Y34243502D01*
X6490261Y34243490D01*
X6459500Y34088847D01*
X2850016Y34088847D01*
X2872193Y34142386D01*
X2872193Y34142387D01*
X2901570Y34213311D01*
X2901572Y34213319D01*
X2939999Y34406505D01*
X2940000Y34406508D01*
X2940000Y34603492D01*
X2939999Y34603496D01*
X2901572Y34796682D01*
X2901569Y34796694D01*
X2826192Y34978672D01*
X2802572Y35014021D01*
X2265000Y34476449D01*
X2265000Y34547787D01*
X2242851Y34630445D01*
X2200064Y34704554D01*
X2139554Y34765064D01*
X2065445Y34807851D01*
X1982787Y34830000D01*
X1897213Y34830000D01*
X1814555Y34807851D01*
X1740446Y34765064D01*
X1679936Y34704554D01*
X1637149Y34630445D01*
X1615000Y34547787D01*
X1615000Y34476448D01*
X1077426Y35014022D01*
X1077426Y35014021D01*
X1053813Y34978682D01*
X1053809Y34978675D01*
X978429Y34796690D01*
X978427Y34796682D01*
X940000Y34603496D01*
X940000Y34406505D01*
X978427Y34213319D01*
X978430Y34213307D01*
X1053807Y34031329D01*
X1053814Y34031316D01*
X1115270Y33939341D01*
X1136148Y33872663D01*
X1117663Y33805283D01*
X1115271Y33801560D01*
X1053370Y33708918D01*
X1053364Y33708907D01*
X977950Y33526840D01*
X977947Y33526830D01*
X939500Y33333544D01*
X939500Y33333541D01*
X939500Y33136459D01*
X939500Y33136457D01*
X939499Y33136457D01*
X500500Y33136457D01*
X500500Y35367574D01*
X1430978Y35367574D01*
X1940000Y34858554D01*
X1940001Y34858554D01*
X2270293Y35188847D01*
X14119500Y35188847D01*
X14119500Y35031154D01*
X14150261Y34876511D01*
X14150264Y34876499D01*
X14210602Y34730828D01*
X14210609Y34730815D01*
X14298210Y34599712D01*
X14298213Y34599708D01*
X14409707Y34488214D01*
X14409711Y34488211D01*
X14540814Y34400610D01*
X14540827Y34400603D01*
X14656646Y34352630D01*
X14686503Y34340263D01*
X14834829Y34310759D01*
X14841153Y34309501D01*
X14841156Y34309500D01*
X14841158Y34309500D01*
X14998843Y34309500D01*
X15018556Y34313422D01*
X15097154Y34329056D01*
X15097953Y34328985D01*
X15098673Y34329349D01*
X15132700Y34325876D01*
X15166744Y34322829D01*
X15167646Y34322308D01*
X15168181Y34322253D01*
X15171117Y34320303D01*
X15198631Y34304407D01*
X15204089Y34300057D01*
X15237567Y34266579D01*
X15290303Y34231342D01*
X15294372Y34228099D01*
X15311579Y34203599D01*
X15330781Y34180622D01*
X15331667Y34174996D01*
X15334528Y34170922D01*
X15335311Y34151861D01*
X15339244Y34126895D01*
X15340669Y34126895D01*
X15340669Y33963115D01*
X15371430Y33808472D01*
X15371433Y33808460D01*
X15431771Y33662789D01*
X15431778Y33662776D01*
X15519379Y33531673D01*
X15519382Y33531669D01*
X15630876Y33420175D01*
X15630880Y33420172D01*
X15761983Y33332571D01*
X15761996Y33332564D01*
X15874517Y33285957D01*
X15907672Y33272224D01*
X16062322Y33241462D01*
X16062325Y33241461D01*
X16062327Y33241461D01*
X16220013Y33241461D01*
X16220014Y33241462D01*
X16374666Y33272224D01*
X16520348Y33332567D01*
X16651458Y33420172D01*
X16762958Y33531672D01*
X16850563Y33662782D01*
X16910906Y33808464D01*
X16941669Y33963119D01*
X16941669Y34120803D01*
X16941669Y34120806D01*
X16910624Y34276875D01*
X16916851Y34346467D01*
X16959714Y34401644D01*
X16984785Y34415626D01*
X16996807Y34420605D01*
X17127917Y34508210D01*
X17239417Y34619710D01*
X17327022Y34750820D01*
X17387365Y34896502D01*
X17418128Y35051157D01*
X17418128Y35208841D01*
X17418128Y35208844D01*
X17418127Y35208846D01*
X17387366Y35363489D01*
X17387365Y35363496D01*
X17375895Y35391187D01*
X17327025Y35509172D01*
X17327018Y35509185D01*
X17239417Y35640288D01*
X17239414Y35640292D01*
X17127920Y35751786D01*
X17127916Y35751789D01*
X17019854Y35823994D01*
X16975049Y35877606D01*
X16966342Y35946931D01*
X16996497Y36009959D01*
X17041288Y36041655D01*
X17140584Y36082784D01*
X17271694Y36170389D01*
X17383194Y36281889D01*
X17470799Y36412999D01*
X17531142Y36558681D01*
X17537739Y36591847D01*
X18216574Y36591847D01*
X18216574Y36434154D01*
X18247335Y36279511D01*
X18247338Y36279499D01*
X18307676Y36133828D01*
X18307683Y36133815D01*
X18395284Y36002712D01*
X18395287Y36002708D01*
X18506781Y35891214D01*
X18506785Y35891211D01*
X18637888Y35803610D01*
X18637901Y35803603D01*
X18783572Y35743265D01*
X18783577Y35743263D01*
X18938227Y35712501D01*
X18938230Y35712500D01*
X18938232Y35712500D01*
X19095918Y35712500D01*
X19095919Y35712501D01*
X19250571Y35743263D01*
X19396253Y35803606D01*
X19527363Y35891211D01*
X19638863Y36002711D01*
X19726468Y36133821D01*
X19786811Y36279503D01*
X19804488Y36368370D01*
X19809265Y36392384D01*
X19841650Y36454295D01*
X19877933Y36479007D01*
X19877573Y36479682D01*
X19882932Y36482548D01*
X19882944Y36482552D01*
X20014054Y36570157D01*
X20125554Y36681657D01*
X20213159Y36812767D01*
X20232246Y36858847D01*
X21379500Y36858847D01*
X21379500Y36701154D01*
X21410261Y36546511D01*
X21410264Y36546499D01*
X21470602Y36400828D01*
X21470609Y36400815D01*
X21558210Y36269712D01*
X21558213Y36269708D01*
X21669707Y36158214D01*
X21669711Y36158211D01*
X21800814Y36070610D01*
X21800827Y36070603D01*
X21879165Y36038155D01*
X21946503Y36010263D01*
X22101153Y35979501D01*
X22101156Y35979500D01*
X22101158Y35979500D01*
X22258844Y35979500D01*
X22258845Y35979501D01*
X22413497Y36010263D01*
X22559179Y36070606D01*
X22690289Y36158211D01*
X22801789Y36269711D01*
X22889394Y36400821D01*
X22949737Y36546503D01*
X22980500Y36701158D01*
X22980500Y36858842D01*
X22980500Y36858845D01*
X22980499Y36858847D01*
X22960687Y36958449D01*
X22949737Y37013497D01*
X22913206Y37101691D01*
X22889397Y37159173D01*
X22889390Y37159186D01*
X22801789Y37290289D01*
X22801786Y37290293D01*
X22690292Y37401787D01*
X22690288Y37401790D01*
X22559185Y37489391D01*
X22559172Y37489398D01*
X22413501Y37549736D01*
X22413489Y37549739D01*
X22258845Y37580500D01*
X22258842Y37580500D01*
X22101158Y37580500D01*
X22101155Y37580500D01*
X21946510Y37549739D01*
X21946498Y37549736D01*
X21800827Y37489398D01*
X21800814Y37489391D01*
X21669711Y37401790D01*
X21669707Y37401787D01*
X21558213Y37290293D01*
X21558210Y37290289D01*
X21470609Y37159186D01*
X21470602Y37159173D01*
X21410264Y37013502D01*
X21410261Y37013490D01*
X21379500Y36858847D01*
X20232246Y36858847D01*
X20246050Y36892173D01*
X20254423Y36912387D01*
X20259977Y36925796D01*
X20273502Y36958449D01*
X20304265Y37113104D01*
X20304265Y37270788D01*
X20304265Y37270791D01*
X20304264Y37270793D01*
X20288605Y37349516D01*
X20273502Y37425443D01*
X20264381Y37447463D01*
X20213162Y37571119D01*
X20213155Y37571132D01*
X20125554Y37702235D01*
X20125551Y37702239D01*
X20079051Y37748738D01*
X20045565Y37810061D01*
X20045116Y37860620D01*
X20047111Y37870648D01*
X20047111Y38028332D01*
X20047111Y38028335D01*
X20047110Y38028337D01*
X20031221Y38108214D01*
X20016348Y38182987D01*
X20001136Y38219712D01*
X19956008Y38328663D01*
X19956001Y38328676D01*
X19868400Y38459779D01*
X19868397Y38459783D01*
X19756903Y38571277D01*
X19756899Y38571280D01*
X19625796Y38658881D01*
X19625783Y38658888D01*
X19480112Y38719226D01*
X19480100Y38719229D01*
X19325456Y38749990D01*
X19325453Y38749990D01*
X19167769Y38749990D01*
X19167766Y38749990D01*
X19013121Y38719229D01*
X19013109Y38719226D01*
X18867438Y38658888D01*
X18867425Y38658881D01*
X18736322Y38571280D01*
X18736318Y38571277D01*
X18624824Y38459783D01*
X18624821Y38459779D01*
X18537220Y38328676D01*
X18537213Y38328663D01*
X18476875Y38182992D01*
X18476872Y38182980D01*
X18446111Y38028337D01*
X18446111Y37870644D01*
X18476872Y37716001D01*
X18476875Y37715989D01*
X18537213Y37570318D01*
X18537220Y37570305D01*
X18624821Y37439202D01*
X18624824Y37439198D01*
X18653183Y37410839D01*
X18686668Y37349516D01*
X18681684Y37279824D01*
X18639812Y37223891D01*
X18634394Y37220056D01*
X18506781Y37134787D01*
X18395287Y37023293D01*
X18395284Y37023289D01*
X18307683Y36892186D01*
X18307676Y36892173D01*
X18247338Y36746502D01*
X18247335Y36746490D01*
X18216574Y36591847D01*
X17537739Y36591847D01*
X17555504Y36681156D01*
X17561905Y36713334D01*
X17561905Y36871023D01*
X17561904Y36871025D01*
X17557695Y36892186D01*
X17531142Y37025675D01*
X17531140Y37025680D01*
X17470802Y37171351D01*
X17470795Y37171364D01*
X17383194Y37302467D01*
X17383191Y37302471D01*
X17271697Y37413965D01*
X17271693Y37413968D01*
X17140590Y37501569D01*
X17140577Y37501576D01*
X16994906Y37561914D01*
X16994894Y37561917D01*
X16840250Y37592678D01*
X16840247Y37592678D01*
X16682563Y37592678D01*
X16682560Y37592678D01*
X16527915Y37561917D01*
X16527903Y37561914D01*
X16382232Y37501576D01*
X16382219Y37501569D01*
X16251116Y37413968D01*
X16251112Y37413965D01*
X16139618Y37302471D01*
X16139615Y37302467D01*
X16076272Y37207668D01*
X16022659Y37162863D01*
X15997362Y37154942D01*
X15856508Y37126924D01*
X15856498Y37126921D01*
X15710827Y37066583D01*
X15710814Y37066576D01*
X15579711Y36978975D01*
X15579707Y36978972D01*
X15468213Y36867478D01*
X15468210Y36867474D01*
X15380609Y36736371D01*
X15380602Y36736358D01*
X15320264Y36590687D01*
X15320261Y36590677D01*
X15299947Y36488553D01*
X15267562Y36426642D01*
X15225784Y36398184D01*
X15153808Y36368370D01*
X15153801Y36368367D01*
X15022698Y36280766D01*
X15022694Y36280763D01*
X14911200Y36169269D01*
X14911197Y36169265D01*
X14823596Y36038162D01*
X14823593Y36038156D01*
X14789755Y35956464D01*
X14745913Y35902061D01*
X14699391Y35882302D01*
X14686510Y35879740D01*
X14686500Y35879737D01*
X14540827Y35819398D01*
X14540814Y35819391D01*
X14409711Y35731790D01*
X14409707Y35731787D01*
X14298213Y35620293D01*
X14298210Y35620289D01*
X14210609Y35489186D01*
X14210602Y35489173D01*
X14150264Y35343502D01*
X14150261Y35343490D01*
X14119500Y35188847D01*
X2270293Y35188847D01*
X2364061Y35282615D01*
X2449019Y35367574D01*
X2413675Y35391191D01*
X2413673Y35391192D01*
X2231693Y35466570D01*
X2231681Y35466573D01*
X2038495Y35505000D01*
X1841504Y35505000D01*
X1648318Y35466573D01*
X1648310Y35466571D01*
X1466325Y35391191D01*
X1466318Y35391187D01*
X1430979Y35367574D01*
X1430978Y35367574D01*
X500500Y35367574D01*
X500500Y37060000D01*
X1245138Y37060000D01*
X2048012Y37060000D01*
X2030795Y37050060D01*
X1974940Y36994205D01*
X1935444Y36925796D01*
X1915000Y36849496D01*
X1915000Y36770504D01*
X1935444Y36694204D01*
X1974940Y36625795D01*
X2030795Y36569940D01*
X2048012Y36560000D01*
X1245138Y36560000D01*
X1253430Y36518310D01*
X1253430Y36518308D01*
X1328807Y36336329D01*
X1328814Y36336316D01*
X1438248Y36172538D01*
X1438251Y36172534D01*
X1577533Y36033252D01*
X1577537Y36033249D01*
X1741315Y35923815D01*
X1741328Y35923808D01*
X1923306Y35848431D01*
X1923318Y35848428D01*
X2116504Y35810001D01*
X2116508Y35810000D01*
X2365000Y35810000D01*
X2365000Y36510000D01*
X2865000Y36510000D01*
X2865000Y35810000D01*
X3113492Y35810000D01*
X3113495Y35810001D01*
X3306681Y35848428D01*
X3306693Y35848431D01*
X3488671Y35923808D01*
X3488684Y35923815D01*
X3652462Y36033249D01*
X3652466Y36033252D01*
X3791748Y36172534D01*
X3791751Y36172538D01*
X3901185Y36336316D01*
X3901192Y36336329D01*
X3976569Y36518308D01*
X3976569Y36518310D01*
X3984862Y36560000D01*
X3181988Y36560000D01*
X3199205Y36569940D01*
X3255060Y36625795D01*
X3294556Y36694204D01*
X3315000Y36770504D01*
X3315000Y36849496D01*
X3294556Y36925796D01*
X3255060Y36994205D01*
X3199205Y37050060D01*
X3181988Y37060000D01*
X3984862Y37060000D01*
X5275138Y37060000D01*
X6078012Y37060000D01*
X6060795Y37050060D01*
X6004940Y36994205D01*
X5965444Y36925796D01*
X5945000Y36849496D01*
X5945000Y36770504D01*
X5965444Y36694204D01*
X6004940Y36625795D01*
X6060795Y36569940D01*
X6078012Y36560000D01*
X5275138Y36560000D01*
X5283430Y36518310D01*
X5283430Y36518308D01*
X5358807Y36336329D01*
X5358814Y36336316D01*
X5468248Y36172538D01*
X5468251Y36172534D01*
X5607533Y36033252D01*
X5607537Y36033249D01*
X5771315Y35923815D01*
X5771328Y35923808D01*
X5953306Y35848431D01*
X5953318Y35848428D01*
X6146504Y35810001D01*
X6146508Y35810000D01*
X6545000Y35810000D01*
X6545000Y36510000D01*
X7045000Y36510000D01*
X7045000Y35810000D01*
X7443492Y35810000D01*
X7443495Y35810001D01*
X7636681Y35848428D01*
X7636693Y35848431D01*
X7818671Y35923808D01*
X7818684Y35923815D01*
X7982462Y36033249D01*
X7982466Y36033252D01*
X8121748Y36172534D01*
X8121751Y36172538D01*
X8231185Y36336316D01*
X8231192Y36336329D01*
X8306569Y36518308D01*
X8306569Y36518310D01*
X8314862Y36560000D01*
X7511988Y36560000D01*
X7529205Y36569940D01*
X7585060Y36625795D01*
X7624556Y36694204D01*
X7645000Y36770504D01*
X7645000Y36838847D01*
X13139500Y36838847D01*
X13139500Y36681154D01*
X13170261Y36526511D01*
X13170264Y36526499D01*
X13230602Y36380828D01*
X13230609Y36380815D01*
X13318210Y36249712D01*
X13318213Y36249708D01*
X13429707Y36138214D01*
X13429711Y36138211D01*
X13560814Y36050610D01*
X13560827Y36050603D01*
X13703087Y35991678D01*
X13706503Y35990263D01*
X13861153Y35959501D01*
X13861156Y35959500D01*
X13861158Y35959500D01*
X14018844Y35959500D01*
X14018845Y35959501D01*
X14173497Y35990263D01*
X14289136Y36038162D01*
X14319172Y36050603D01*
X14319172Y36050604D01*
X14319179Y36050606D01*
X14450289Y36138211D01*
X14561789Y36249711D01*
X14649394Y36380821D01*
X14709737Y36526503D01*
X14740500Y36681158D01*
X14740500Y36838842D01*
X14740500Y36838845D01*
X14740499Y36838847D01*
X14729892Y36892173D01*
X14709737Y36993497D01*
X14697395Y37023293D01*
X14649397Y37139173D01*
X14649390Y37139186D01*
X14561789Y37270289D01*
X14561786Y37270293D01*
X14450292Y37381787D01*
X14450288Y37381790D01*
X14319185Y37469391D01*
X14319172Y37469398D01*
X14173501Y37529736D01*
X14173489Y37529739D01*
X14018845Y37560500D01*
X14018842Y37560500D01*
X13861158Y37560500D01*
X13861155Y37560500D01*
X13706510Y37529739D01*
X13706498Y37529736D01*
X13560827Y37469398D01*
X13560814Y37469391D01*
X13429711Y37381790D01*
X13429707Y37381787D01*
X13318213Y37270293D01*
X13318210Y37270289D01*
X13230609Y37139186D01*
X13230602Y37139173D01*
X13170264Y36993502D01*
X13170261Y36993490D01*
X13139500Y36838847D01*
X7645000Y36838847D01*
X7645000Y36849496D01*
X7624556Y36925796D01*
X7585060Y36994205D01*
X7529205Y37050060D01*
X7511988Y37060000D01*
X8314862Y37060000D01*
X8306569Y37101691D01*
X8306569Y37101693D01*
X8231192Y37283672D01*
X8231185Y37283685D01*
X8121751Y37447463D01*
X8121748Y37447467D01*
X7982466Y37586749D01*
X7982462Y37586752D01*
X7818684Y37696186D01*
X7818671Y37696193D01*
X7636693Y37771570D01*
X7636681Y37771573D01*
X7443495Y37810000D01*
X7045000Y37810000D01*
X7045000Y37110000D01*
X6545000Y37110000D01*
X6545000Y37648216D01*
X6564685Y37715255D01*
X6607000Y37755603D01*
X6648365Y37779485D01*
X6755515Y37886635D01*
X6756372Y37888121D01*
X6776721Y37923363D01*
X6831279Y38017862D01*
X6831281Y38017865D01*
X6870500Y38164234D01*
X6870500Y38315766D01*
X6831281Y38462135D01*
X6755515Y38593365D01*
X6648365Y38700515D01*
X6562672Y38749990D01*
X6517136Y38776281D01*
X6395614Y38808842D01*
X6395595Y38808847D01*
X7499500Y38808847D01*
X7499500Y38651154D01*
X7530261Y38496511D01*
X7530264Y38496499D01*
X7590602Y38350828D01*
X7590609Y38350815D01*
X7678210Y38219712D01*
X7678213Y38219708D01*
X7789707Y38108214D01*
X7789711Y38108211D01*
X7920814Y38020610D01*
X7920827Y38020603D01*
X8066498Y37960265D01*
X8066503Y37960263D01*
X8221153Y37929501D01*
X8221156Y37929500D01*
X8221158Y37929500D01*
X8378844Y37929500D01*
X8378845Y37929501D01*
X8533497Y37960263D01*
X8646166Y38006933D01*
X8679172Y38020603D01*
X8679172Y38020604D01*
X8679179Y38020606D01*
X8810289Y38108211D01*
X8921789Y38219711D01*
X9009394Y38350821D01*
X9069737Y38496503D01*
X9100500Y38651158D01*
X9100500Y38808842D01*
X9100500Y38808845D01*
X9100499Y38808847D01*
X9090787Y38857671D01*
X9069737Y38963497D01*
X9048255Y39015360D01*
X13129500Y39015360D01*
X13129500Y38857667D01*
X13160261Y38703024D01*
X13160264Y38703012D01*
X13220602Y38557341D01*
X13220609Y38557328D01*
X13308210Y38426225D01*
X13308213Y38426221D01*
X13419707Y38314727D01*
X13419711Y38314724D01*
X13550814Y38227123D01*
X13550827Y38227116D01*
X13696498Y38166778D01*
X13696503Y38166776D01*
X13851153Y38136014D01*
X13851156Y38136013D01*
X13851158Y38136013D01*
X14008844Y38136013D01*
X14008845Y38136014D01*
X14163497Y38166776D01*
X14309179Y38227119D01*
X14440289Y38314724D01*
X14551789Y38426224D01*
X14639394Y38557334D01*
X14699737Y38703016D01*
X14730500Y38857671D01*
X14730500Y39015355D01*
X14730500Y39015358D01*
X14730499Y39015360D01*
X14711837Y39109179D01*
X14699737Y39170010D01*
X14670625Y39240293D01*
X14639397Y39315686D01*
X14639389Y39315700D01*
X14600593Y39373762D01*
X24834415Y39373762D01*
X24834415Y39216069D01*
X24865176Y39061426D01*
X24865179Y39061414D01*
X24925517Y38915743D01*
X24925524Y38915730D01*
X25013125Y38784627D01*
X25013128Y38784623D01*
X25124622Y38673129D01*
X25124626Y38673126D01*
X25255729Y38585525D01*
X25255742Y38585518D01*
X25323800Y38557328D01*
X25401418Y38525178D01*
X25545536Y38496511D01*
X25556068Y38494416D01*
X25556071Y38494415D01*
X25556073Y38494415D01*
X25713759Y38494415D01*
X25713760Y38494416D01*
X25868412Y38525178D01*
X26014094Y38585521D01*
X26145204Y38673126D01*
X26256704Y38784626D01*
X26344309Y38915736D01*
X26404652Y39061418D01*
X26435415Y39216073D01*
X26435415Y39373757D01*
X26435415Y39373760D01*
X26435414Y39373762D01*
X26420885Y39446802D01*
X26404652Y39528412D01*
X26392271Y39558303D01*
X26344312Y39674088D01*
X26344305Y39674101D01*
X26256704Y39805204D01*
X26256701Y39805208D01*
X26145207Y39916702D01*
X26145203Y39916705D01*
X26014100Y40004306D01*
X26014087Y40004313D01*
X25868416Y40064651D01*
X25868404Y40064654D01*
X25713760Y40095415D01*
X25713757Y40095415D01*
X25556073Y40095415D01*
X25556070Y40095415D01*
X25401425Y40064654D01*
X25401413Y40064651D01*
X25255742Y40004313D01*
X25255729Y40004306D01*
X25124626Y39916705D01*
X25124622Y39916702D01*
X25013128Y39805208D01*
X25013125Y39805204D01*
X24925524Y39674101D01*
X24925517Y39674088D01*
X24865179Y39528417D01*
X24865176Y39528405D01*
X24834415Y39373762D01*
X14600593Y39373762D01*
X14551789Y39446802D01*
X14551786Y39446806D01*
X14440292Y39558300D01*
X14440288Y39558303D01*
X14309185Y39645904D01*
X14309172Y39645911D01*
X14163501Y39706249D01*
X14163489Y39706252D01*
X14008845Y39737013D01*
X14008842Y39737013D01*
X13851158Y39737013D01*
X13851155Y39737013D01*
X13696510Y39706252D01*
X13696498Y39706249D01*
X13550827Y39645911D01*
X13550814Y39645904D01*
X13419711Y39558303D01*
X13419707Y39558300D01*
X13308213Y39446806D01*
X13308210Y39446802D01*
X13220609Y39315699D01*
X13220602Y39315686D01*
X13160264Y39170015D01*
X13160261Y39170003D01*
X13129500Y39015360D01*
X9048255Y39015360D01*
X9029174Y39061426D01*
X9009397Y39109173D01*
X9009390Y39109186D01*
X8921789Y39240289D01*
X8921786Y39240293D01*
X8810292Y39351787D01*
X8810288Y39351790D01*
X8679185Y39439391D01*
X8679172Y39439398D01*
X8533501Y39499736D01*
X8533489Y39499739D01*
X8378845Y39530500D01*
X8378842Y39530500D01*
X8221158Y39530500D01*
X8221155Y39530500D01*
X8066510Y39499739D01*
X8066498Y39499736D01*
X7920827Y39439398D01*
X7920814Y39439391D01*
X7789711Y39351790D01*
X7789707Y39351787D01*
X7678213Y39240293D01*
X7678210Y39240289D01*
X7590609Y39109186D01*
X7590602Y39109173D01*
X7530264Y38963502D01*
X7530261Y38963490D01*
X7499500Y38808847D01*
X6395595Y38808847D01*
X6370766Y38815500D01*
X6219234Y38815500D01*
X6072863Y38776281D01*
X5941635Y38700515D01*
X5941632Y38700513D01*
X5834487Y38593368D01*
X5834485Y38593365D01*
X5758719Y38462137D01*
X5749096Y38426221D01*
X5719500Y38315766D01*
X5719500Y38164234D01*
X5727062Y38136013D01*
X5758719Y38017864D01*
X5791976Y37960263D01*
X5834485Y37886635D01*
X5834486Y37886634D01*
X5838549Y37879597D01*
X5836346Y37878326D01*
X5856959Y37825017D01*
X5842923Y37756572D01*
X5794112Y37706580D01*
X5780845Y37700134D01*
X5771324Y37696191D01*
X5771315Y37696186D01*
X5607537Y37586752D01*
X5607533Y37586749D01*
X5468251Y37447467D01*
X5468248Y37447463D01*
X5358814Y37283685D01*
X5358807Y37283672D01*
X5283430Y37101693D01*
X5283430Y37101691D01*
X5275138Y37060000D01*
X3984862Y37060000D01*
X3976569Y37101691D01*
X3976569Y37101693D01*
X3901192Y37283672D01*
X3901185Y37283685D01*
X3791751Y37447463D01*
X3791748Y37447467D01*
X3652466Y37586749D01*
X3652462Y37586752D01*
X3488684Y37696186D01*
X3488671Y37696193D01*
X3306693Y37771570D01*
X3306681Y37771573D01*
X3113495Y37810000D01*
X2865000Y37810000D01*
X2865000Y37110000D01*
X2365000Y37110000D01*
X2365000Y37810000D01*
X2116504Y37810000D01*
X1923318Y37771573D01*
X1923306Y37771570D01*
X1741328Y37696193D01*
X1741315Y37696186D01*
X1577537Y37586752D01*
X1577533Y37586749D01*
X1438251Y37447467D01*
X1438248Y37447463D01*
X1328814Y37283685D01*
X1328807Y37283672D01*
X1253430Y37101693D01*
X1253430Y37101691D01*
X1245138Y37060000D01*
X500500Y37060000D01*
X500500Y41040746D01*
X8525649Y41040746D01*
X8525649Y40883053D01*
X8556410Y40728410D01*
X8556413Y40728398D01*
X8616751Y40582727D01*
X8616758Y40582714D01*
X8704359Y40451611D01*
X8704362Y40451607D01*
X8815856Y40340113D01*
X8815861Y40340109D01*
X8854389Y40314366D01*
X8899195Y40260755D01*
X8909500Y40211263D01*
X8909500Y40181154D01*
X8940261Y40026511D01*
X8940264Y40026499D01*
X9000602Y39880828D01*
X9000609Y39880815D01*
X9088210Y39749712D01*
X9088213Y39749708D01*
X9199707Y39638214D01*
X9199711Y39638211D01*
X9330814Y39550610D01*
X9330827Y39550603D01*
X9453633Y39499736D01*
X9476503Y39490263D01*
X9631153Y39459501D01*
X9631156Y39459500D01*
X9631158Y39459500D01*
X9788844Y39459500D01*
X9788845Y39459501D01*
X9943497Y39490263D01*
X10089179Y39550606D01*
X10220289Y39638211D01*
X10331789Y39749711D01*
X10419394Y39880821D01*
X10479737Y40026503D01*
X10510500Y40181158D01*
X10510500Y40338842D01*
X10510500Y40338845D01*
X10510499Y40338847D01*
X10488069Y40451610D01*
X10479737Y40493497D01*
X10479735Y40493502D01*
X10419397Y40639173D01*
X10419390Y40639186D01*
X10331789Y40770289D01*
X10331786Y40770293D01*
X10220292Y40881787D01*
X10220285Y40881792D01*
X10181757Y40907537D01*
X10136952Y40961150D01*
X10126649Y41010638D01*
X10126649Y41040744D01*
X10126648Y41040746D01*
X10095887Y41195389D01*
X10095886Y41195396D01*
X10040339Y41329500D01*
X10035546Y41341072D01*
X10035539Y41341085D01*
X9947938Y41472188D01*
X9947935Y41472192D01*
X9836441Y41583686D01*
X9836437Y41583689D01*
X9705334Y41671290D01*
X9705321Y41671297D01*
X9559650Y41731635D01*
X9559638Y41731638D01*
X9404994Y41762399D01*
X9404991Y41762399D01*
X9247307Y41762399D01*
X9247304Y41762399D01*
X9092659Y41731638D01*
X9092647Y41731635D01*
X8946976Y41671297D01*
X8946963Y41671290D01*
X8815860Y41583689D01*
X8815856Y41583686D01*
X8704362Y41472192D01*
X8704359Y41472188D01*
X8616758Y41341085D01*
X8616751Y41341072D01*
X8556413Y41195401D01*
X8556410Y41195389D01*
X8525649Y41040746D01*
X500500Y41040746D01*
X500500Y45700000D01*
X1245138Y45700000D01*
X2048012Y45700000D01*
X2030795Y45690060D01*
X1974940Y45634205D01*
X1935444Y45565796D01*
X1915000Y45489496D01*
X1915000Y45410504D01*
X1935444Y45334204D01*
X1974940Y45265795D01*
X2030795Y45209940D01*
X2048012Y45200000D01*
X1245138Y45200000D01*
X1253430Y45158310D01*
X1253430Y45158308D01*
X1328807Y44976329D01*
X1328814Y44976316D01*
X1438248Y44812538D01*
X1438251Y44812534D01*
X1577533Y44673252D01*
X1577537Y44673249D01*
X1741315Y44563815D01*
X1741328Y44563808D01*
X1923306Y44488431D01*
X1923318Y44488428D01*
X2116504Y44450001D01*
X2116508Y44450000D01*
X2365000Y44450000D01*
X2365000Y45150000D01*
X2865000Y45150000D01*
X2865000Y44450000D01*
X3113492Y44450000D01*
X3113495Y44450001D01*
X3306681Y44488428D01*
X3306693Y44488431D01*
X3488671Y44563808D01*
X3488684Y44563815D01*
X3652462Y44673249D01*
X3652466Y44673252D01*
X3791748Y44812534D01*
X3791751Y44812538D01*
X3901185Y44976316D01*
X3901192Y44976329D01*
X3976569Y45158308D01*
X3976569Y45158310D01*
X3984862Y45200000D01*
X3181988Y45200000D01*
X3199205Y45209940D01*
X3255060Y45265795D01*
X3294556Y45334204D01*
X3315000Y45410504D01*
X3315000Y45489496D01*
X3294556Y45565796D01*
X3255060Y45634205D01*
X3199205Y45690060D01*
X3181988Y45700000D01*
X3984862Y45700000D01*
X5275138Y45700000D01*
X6078012Y45700000D01*
X6060795Y45690060D01*
X6004940Y45634205D01*
X5965444Y45565796D01*
X5945000Y45489496D01*
X5945000Y45410504D01*
X5965444Y45334204D01*
X6004940Y45265795D01*
X6060795Y45209940D01*
X6078012Y45200000D01*
X5275138Y45200000D01*
X5283430Y45158310D01*
X5283430Y45158308D01*
X5358807Y44976329D01*
X5358814Y44976316D01*
X5468248Y44812538D01*
X5468251Y44812534D01*
X5607533Y44673252D01*
X5607537Y44673249D01*
X5771315Y44563815D01*
X5771328Y44563808D01*
X5780838Y44559869D01*
X5835243Y44516030D01*
X5857310Y44449736D01*
X5840033Y44382037D01*
X5836350Y44376595D01*
X5758719Y44242137D01*
X5724030Y44112673D01*
X5719500Y44095766D01*
X5719500Y43944234D01*
X5739109Y43871050D01*
X5758719Y43797864D01*
X5788219Y43746770D01*
X5834485Y43666635D01*
X5941635Y43559485D01*
X6072865Y43483719D01*
X6219234Y43444500D01*
X6219236Y43444500D01*
X6370764Y43444500D01*
X6370766Y43444500D01*
X6517135Y43483719D01*
X6648365Y43559485D01*
X6697727Y43608847D01*
X7649500Y43608847D01*
X7649500Y43451154D01*
X7680261Y43296511D01*
X7680264Y43296499D01*
X7740602Y43150828D01*
X7740609Y43150815D01*
X7828210Y43019712D01*
X7828213Y43019708D01*
X7939707Y42908214D01*
X7939711Y42908211D01*
X8070814Y42820610D01*
X8070827Y42820603D01*
X8216498Y42760265D01*
X8216503Y42760263D01*
X8371153Y42729501D01*
X8371156Y42729500D01*
X8371158Y42729500D01*
X8528844Y42729500D01*
X8528845Y42729501D01*
X8683497Y42760263D01*
X8829179Y42820606D01*
X8960289Y42908211D01*
X9071789Y43019711D01*
X9158075Y43148847D01*
X12889500Y43148847D01*
X12889500Y42991154D01*
X12920261Y42836511D01*
X12920264Y42836499D01*
X12980602Y42690828D01*
X12980609Y42690815D01*
X13068210Y42559712D01*
X13068213Y42559708D01*
X13179707Y42448214D01*
X13179711Y42448211D01*
X13310814Y42360610D01*
X13310827Y42360603D01*
X13437800Y42308010D01*
X13456503Y42300263D01*
X13611153Y42269501D01*
X13611156Y42269500D01*
X13611158Y42269500D01*
X13768844Y42269500D01*
X13768845Y42269501D01*
X13923497Y42300263D01*
X14069179Y42360606D01*
X14134994Y42404582D01*
X20415235Y42404582D01*
X20415235Y42246889D01*
X20445996Y42092246D01*
X20445999Y42092234D01*
X20506337Y41946563D01*
X20506344Y41946550D01*
X20593945Y41815447D01*
X20593948Y41815443D01*
X20705442Y41703949D01*
X20705446Y41703946D01*
X20836549Y41616345D01*
X20836562Y41616338D01*
X20982233Y41556000D01*
X20982238Y41555998D01*
X21136888Y41525236D01*
X21136891Y41525235D01*
X21136893Y41525235D01*
X21294579Y41525235D01*
X21294580Y41525236D01*
X21449232Y41555998D01*
X21594914Y41616341D01*
X21726024Y41703946D01*
X21837524Y41815446D01*
X21925129Y41946556D01*
X21985472Y42092238D01*
X22016235Y42246893D01*
X22016235Y42404577D01*
X22016235Y42404580D01*
X22016234Y42404582D01*
X21985472Y42559232D01*
X21962502Y42614688D01*
X21925132Y42704908D01*
X21925125Y42704921D01*
X21837524Y42836024D01*
X21837521Y42836028D01*
X21726027Y42947522D01*
X21726023Y42947525D01*
X21594920Y43035126D01*
X21594907Y43035133D01*
X21449236Y43095471D01*
X21449224Y43095474D01*
X21294580Y43126235D01*
X21294577Y43126235D01*
X21136893Y43126235D01*
X21136890Y43126235D01*
X20982245Y43095474D01*
X20982233Y43095471D01*
X20836562Y43035133D01*
X20836549Y43035126D01*
X20705446Y42947525D01*
X20705442Y42947522D01*
X20593948Y42836028D01*
X20593945Y42836024D01*
X20506344Y42704921D01*
X20506337Y42704908D01*
X20445999Y42559237D01*
X20445996Y42559225D01*
X20415235Y42404582D01*
X14134994Y42404582D01*
X14200289Y42448211D01*
X14218818Y42466740D01*
X14250429Y42498350D01*
X14311786Y42559708D01*
X14311789Y42559711D01*
X14399394Y42690821D01*
X14405232Y42704914D01*
X14424647Y42751787D01*
X14459737Y42836503D01*
X14490500Y42991158D01*
X14490500Y43148842D01*
X14490500Y43148845D01*
X14490499Y43148847D01*
X14461128Y43296503D01*
X14459737Y43303497D01*
X14459735Y43303502D01*
X14454838Y43315324D01*
X23153816Y43315324D01*
X23153816Y43157631D01*
X23184577Y43002988D01*
X23184580Y43002976D01*
X23244918Y42857305D01*
X23244925Y42857292D01*
X23332526Y42726189D01*
X23332529Y42726185D01*
X23444023Y42614691D01*
X23444027Y42614688D01*
X23575130Y42527087D01*
X23575142Y42527080D01*
X23672482Y42486762D01*
X23720819Y42466740D01*
X23720821Y42466740D01*
X23721612Y42466412D01*
X23776016Y42422572D01*
X23788721Y42399303D01*
X23826535Y42308010D01*
X23826542Y42307997D01*
X23914143Y42176894D01*
X23914146Y42176890D01*
X24025640Y42065396D01*
X24025644Y42065393D01*
X24156747Y41977792D01*
X24156760Y41977785D01*
X24290173Y41922524D01*
X24344577Y41878683D01*
X24357282Y41855415D01*
X24400602Y41750828D01*
X24400609Y41750815D01*
X24488210Y41619712D01*
X24488213Y41619708D01*
X24599707Y41508214D01*
X24599711Y41508211D01*
X24730814Y41420610D01*
X24730827Y41420603D01*
X24876498Y41360265D01*
X24876503Y41360263D01*
X25031153Y41329501D01*
X25031156Y41329500D01*
X25031158Y41329500D01*
X25188844Y41329500D01*
X25188845Y41329501D01*
X25343497Y41360263D01*
X25489179Y41420606D01*
X25620289Y41508211D01*
X25731789Y41619711D01*
X25819394Y41750821D01*
X25879737Y41896503D01*
X25910500Y42051158D01*
X25910500Y42208842D01*
X25910500Y42208845D01*
X25910499Y42208847D01*
X25902932Y42246889D01*
X25879737Y42363497D01*
X25844648Y42448211D01*
X25819397Y42509173D01*
X25819390Y42509186D01*
X25731789Y42640289D01*
X25731786Y42640293D01*
X25620292Y42751787D01*
X25620288Y42751790D01*
X25489185Y42839391D01*
X25489172Y42839398D01*
X25355760Y42894658D01*
X25301356Y42938499D01*
X25288651Y42961767D01*
X25245330Y43066355D01*
X25245323Y43066368D01*
X25157722Y43197471D01*
X25157719Y43197475D01*
X25046225Y43308969D01*
X25046221Y43308972D01*
X24915118Y43396573D01*
X24915105Y43396580D01*
X24768636Y43457248D01*
X24714232Y43501088D01*
X24701527Y43524357D01*
X24663713Y43615651D01*
X24663706Y43615663D01*
X24576105Y43746766D01*
X24576102Y43746770D01*
X24464608Y43858264D01*
X24464604Y43858267D01*
X24333501Y43945868D01*
X24333488Y43945875D01*
X24187817Y44006213D01*
X24187805Y44006216D01*
X24033161Y44036977D01*
X24033158Y44036977D01*
X23875474Y44036977D01*
X23875471Y44036977D01*
X23720826Y44006216D01*
X23720814Y44006213D01*
X23575143Y43945875D01*
X23575130Y43945868D01*
X23444027Y43858267D01*
X23444023Y43858264D01*
X23332529Y43746770D01*
X23332526Y43746766D01*
X23244925Y43615663D01*
X23244918Y43615650D01*
X23184580Y43469979D01*
X23184577Y43469967D01*
X23153816Y43315324D01*
X14454838Y43315324D01*
X14399397Y43449173D01*
X14399390Y43449186D01*
X14311789Y43580289D01*
X14311786Y43580293D01*
X14200292Y43691787D01*
X14200288Y43691790D01*
X14069185Y43779391D01*
X14069172Y43779398D01*
X13923501Y43839736D01*
X13923489Y43839739D01*
X13768845Y43870500D01*
X13768842Y43870500D01*
X13611158Y43870500D01*
X13611155Y43870500D01*
X13456510Y43839739D01*
X13456498Y43839736D01*
X13310827Y43779398D01*
X13310814Y43779391D01*
X13179711Y43691790D01*
X13179707Y43691787D01*
X13068213Y43580293D01*
X13068210Y43580289D01*
X12980609Y43449186D01*
X12980602Y43449173D01*
X12920264Y43303502D01*
X12920261Y43303490D01*
X12889500Y43148847D01*
X9158075Y43148847D01*
X9159394Y43150821D01*
X9159395Y43150824D01*
X9159397Y43150827D01*
X9180753Y43202386D01*
X9219735Y43296499D01*
X9219737Y43296503D01*
X9250500Y43451158D01*
X9250500Y43608842D01*
X9250500Y43608845D01*
X9250499Y43608847D01*
X9249143Y43615663D01*
X9219737Y43763497D01*
X9205502Y43797864D01*
X9159397Y43909173D01*
X9159390Y43909186D01*
X9071789Y44040289D01*
X9071786Y44040293D01*
X8960292Y44151787D01*
X8960288Y44151790D01*
X8928026Y44173347D01*
X8829185Y44239391D01*
X8829172Y44239398D01*
X8754417Y44270362D01*
X20259501Y44270362D01*
X20259501Y44112669D01*
X20290262Y43958026D01*
X20290265Y43958014D01*
X20350603Y43812343D01*
X20350610Y43812330D01*
X20438211Y43681227D01*
X20438214Y43681223D01*
X20549708Y43569729D01*
X20549712Y43569726D01*
X20680815Y43482125D01*
X20680828Y43482118D01*
X20792234Y43435973D01*
X20826504Y43421778D01*
X20981154Y43391016D01*
X20981157Y43391015D01*
X20981159Y43391015D01*
X21138845Y43391015D01*
X21138846Y43391016D01*
X21293498Y43421778D01*
X21439180Y43482121D01*
X21570290Y43569726D01*
X21681790Y43681226D01*
X21769395Y43812336D01*
X21829738Y43958018D01*
X21860501Y44112673D01*
X21860501Y44270357D01*
X21860501Y44270360D01*
X21860500Y44270362D01*
X21854657Y44299737D01*
X21829738Y44425012D01*
X21806747Y44480517D01*
X21769398Y44570688D01*
X21769392Y44570699D01*
X21754121Y44593554D01*
X21733244Y44660231D01*
X21751729Y44727611D01*
X21803708Y44774301D01*
X21809731Y44776988D01*
X21939179Y44830606D01*
X22070289Y44918211D01*
X22181789Y45029711D01*
X22269394Y45160821D01*
X22329737Y45306503D01*
X22360500Y45461158D01*
X22360500Y45618842D01*
X22360500Y45618845D01*
X22360499Y45618847D01*
X22357444Y45634205D01*
X22329737Y45773497D01*
X22314138Y45811156D01*
X22269397Y45919173D01*
X22269390Y45919186D01*
X22181789Y46050289D01*
X22181786Y46050293D01*
X22070292Y46161787D01*
X22070288Y46161790D01*
X21939185Y46249391D01*
X21939172Y46249398D01*
X21793501Y46309736D01*
X21793489Y46309739D01*
X21638845Y46340500D01*
X21638842Y46340500D01*
X21481158Y46340500D01*
X21481155Y46340500D01*
X21326510Y46309739D01*
X21326498Y46309736D01*
X21180827Y46249398D01*
X21180814Y46249391D01*
X21049711Y46161790D01*
X21049707Y46161787D01*
X20938213Y46050293D01*
X20938210Y46050289D01*
X20850609Y45919186D01*
X20850602Y45919173D01*
X20790264Y45773502D01*
X20790261Y45773490D01*
X20759500Y45618847D01*
X20759500Y45461154D01*
X20790261Y45306511D01*
X20790264Y45306499D01*
X20850602Y45160828D01*
X20850611Y45160812D01*
X20865879Y45137961D01*
X20886756Y45071284D01*
X20868271Y45003904D01*
X20816291Y44957214D01*
X20810229Y44954511D01*
X20680824Y44900911D01*
X20680815Y44900906D01*
X20549712Y44813305D01*
X20549708Y44813302D01*
X20438214Y44701808D01*
X20438211Y44701804D01*
X20350610Y44570701D01*
X20350603Y44570688D01*
X20290265Y44425017D01*
X20290262Y44425005D01*
X20259501Y44270362D01*
X8754417Y44270362D01*
X8683501Y44299736D01*
X8683489Y44299739D01*
X8528845Y44330500D01*
X8528842Y44330500D01*
X8371158Y44330500D01*
X8371155Y44330500D01*
X8216510Y44299739D01*
X8216498Y44299736D01*
X8070827Y44239398D01*
X8070814Y44239391D01*
X7939711Y44151790D01*
X7939707Y44151787D01*
X7828213Y44040293D01*
X7828210Y44040289D01*
X7740609Y43909186D01*
X7740602Y43909173D01*
X7680264Y43763502D01*
X7680261Y43763490D01*
X7649500Y43608847D01*
X6697727Y43608847D01*
X6755515Y43666635D01*
X6831281Y43797865D01*
X6870500Y43944234D01*
X6870500Y44095766D01*
X6831281Y44242135D01*
X6755515Y44373365D01*
X6648365Y44480515D01*
X6634654Y44488431D01*
X6606998Y44504399D01*
X6558784Y44554967D01*
X6545000Y44611785D01*
X6545000Y45150000D01*
X7045000Y45150000D01*
X7045000Y44450000D01*
X7443492Y44450000D01*
X7443495Y44450001D01*
X7636681Y44488428D01*
X7636693Y44488431D01*
X7818671Y44563808D01*
X7818684Y44563815D01*
X7982462Y44673249D01*
X7982466Y44673252D01*
X8121748Y44812534D01*
X8121751Y44812538D01*
X8231185Y44976316D01*
X8231192Y44976329D01*
X8306569Y45158308D01*
X8306569Y45158310D01*
X8314862Y45200000D01*
X7511988Y45200000D01*
X7529205Y45209940D01*
X7585060Y45265795D01*
X7624556Y45334204D01*
X7645000Y45410504D01*
X7645000Y45489496D01*
X7624556Y45565796D01*
X7585060Y45634205D01*
X7529205Y45690060D01*
X7511988Y45700000D01*
X8314862Y45700000D01*
X8306569Y45741691D01*
X8306569Y45741693D01*
X8231192Y45923672D01*
X8231185Y45923685D01*
X8121751Y46087463D01*
X8121748Y46087467D01*
X7982466Y46226749D01*
X7982462Y46226752D01*
X7818684Y46336186D01*
X7818671Y46336193D01*
X7636693Y46411570D01*
X7636681Y46411573D01*
X7443495Y46450000D01*
X7045000Y46450000D01*
X7045000Y45750000D01*
X6545000Y45750000D01*
X6545000Y46450000D01*
X6146504Y46450000D01*
X5953318Y46411573D01*
X5953306Y46411570D01*
X5771328Y46336193D01*
X5771315Y46336186D01*
X5607537Y46226752D01*
X5607533Y46226749D01*
X5468251Y46087467D01*
X5468248Y46087463D01*
X5358814Y45923685D01*
X5358807Y45923672D01*
X5283430Y45741693D01*
X5283430Y45741691D01*
X5275138Y45700000D01*
X3984862Y45700000D01*
X3976569Y45741691D01*
X3976569Y45741693D01*
X3901192Y45923672D01*
X3901185Y45923685D01*
X3791751Y46087463D01*
X3791748Y46087467D01*
X3652466Y46226749D01*
X3652462Y46226752D01*
X3488684Y46336186D01*
X3488671Y46336193D01*
X3306693Y46411570D01*
X3306681Y46411573D01*
X3113495Y46450000D01*
X2865000Y46450000D01*
X2865000Y45750000D01*
X2365000Y45750000D01*
X2365000Y46450000D01*
X2116504Y46450000D01*
X1923318Y46411573D01*
X1923306Y46411570D01*
X1741328Y46336193D01*
X1741315Y46336186D01*
X1577537Y46226752D01*
X1577533Y46226749D01*
X1438251Y46087467D01*
X1438248Y46087463D01*
X1328814Y45923685D01*
X1328807Y45923672D01*
X1253430Y45741693D01*
X1253430Y45741691D01*
X1245138Y45700000D01*
X500500Y45700000D01*
X500500Y50532298D01*
X520185Y50599337D01*
X572989Y50645092D01*
X642147Y50655036D01*
X648667Y50653920D01*
X705435Y50642628D01*
X721157Y50639500D01*
X721158Y50639500D01*
X878844Y50639500D01*
X878845Y50639501D01*
X1033497Y50670263D01*
X1179179Y50730606D01*
X1310289Y50818211D01*
X1421789Y50929711D01*
X1509394Y51060821D01*
X1537569Y51128842D01*
X1537571Y51128847D01*
X11169500Y51128847D01*
X11169500Y50971154D01*
X11200261Y50816511D01*
X11200264Y50816499D01*
X11260602Y50670828D01*
X11260609Y50670815D01*
X11348210Y50539712D01*
X11348213Y50539708D01*
X11459707Y50428214D01*
X11459711Y50428211D01*
X11590821Y50340606D01*
X11591338Y50340329D01*
X11591558Y50340113D01*
X11595886Y50337221D01*
X11595337Y50336401D01*
X11641186Y50291371D01*
X11656652Y50223234D01*
X11635995Y50162077D01*
X11580612Y50079191D01*
X11580602Y50079173D01*
X11520264Y49933502D01*
X11520261Y49933490D01*
X11489500Y49778847D01*
X11489500Y49621154D01*
X11520261Y49466511D01*
X11520264Y49466499D01*
X11580602Y49320828D01*
X11580609Y49320815D01*
X11668210Y49189712D01*
X11668213Y49189708D01*
X11779707Y49078214D01*
X11779711Y49078211D01*
X11910814Y48990610D01*
X11910827Y48990603D01*
X12032288Y48940293D01*
X12056503Y48930263D01*
X12211153Y48899501D01*
X12211156Y48899500D01*
X12227439Y48899500D01*
X12294478Y48879815D01*
X12340233Y48827011D01*
X12350177Y48757853D01*
X12342000Y48728048D01*
X12315264Y48663502D01*
X12315261Y48663490D01*
X12284500Y48508847D01*
X12284500Y48351154D01*
X12315261Y48196511D01*
X12315264Y48196499D01*
X12375602Y48050828D01*
X12375609Y48050815D01*
X12463210Y47919712D01*
X12463213Y47919708D01*
X12574707Y47808214D01*
X12574711Y47808211D01*
X12705814Y47720610D01*
X12705827Y47720603D01*
X12832269Y47668230D01*
X12886673Y47624390D01*
X12908738Y47558096D01*
X12899378Y47506217D01*
X12840264Y47363502D01*
X12840261Y47363490D01*
X12809500Y47208847D01*
X12809500Y47051154D01*
X12840261Y46896511D01*
X12840264Y46896499D01*
X12900602Y46750828D01*
X12900609Y46750815D01*
X12988209Y46619713D01*
X12988210Y46619712D01*
X12988211Y46619711D01*
X13046103Y46561819D01*
X13079587Y46500498D01*
X13074603Y46430806D01*
X13061523Y46405249D01*
X12970612Y46269191D01*
X12970602Y46269173D01*
X12910264Y46123502D01*
X12910261Y46123490D01*
X12879500Y45968847D01*
X12879500Y45811154D01*
X12910261Y45656511D01*
X12910264Y45656499D01*
X12970602Y45510828D01*
X12970609Y45510815D01*
X13058210Y45379712D01*
X13058213Y45379708D01*
X13169707Y45268214D01*
X13169711Y45268211D01*
X13300814Y45180610D01*
X13300827Y45180603D01*
X13446498Y45120265D01*
X13446503Y45120263D01*
X13601153Y45089501D01*
X13601156Y45089500D01*
X13601158Y45089500D01*
X13758844Y45089500D01*
X13758845Y45089501D01*
X13913497Y45120263D01*
X14059179Y45180606D01*
X14190289Y45268211D01*
X14301789Y45379711D01*
X14389394Y45510821D01*
X14449737Y45656503D01*
X14480500Y45811158D01*
X14480500Y45968842D01*
X14480500Y45968845D01*
X14480499Y45968847D01*
X14464298Y46050293D01*
X14449737Y46123497D01*
X14406968Y46226752D01*
X14389397Y46269173D01*
X14389390Y46269186D01*
X14301789Y46400289D01*
X14301786Y46400293D01*
X14243897Y46458182D01*
X14210412Y46519505D01*
X14215396Y46589197D01*
X14228476Y46614755D01*
X14231784Y46619707D01*
X14231789Y46619711D01*
X14319394Y46750821D01*
X14379737Y46896503D01*
X14410500Y47051158D01*
X14410500Y47208842D01*
X14410500Y47208845D01*
X14410499Y47208847D01*
X14379738Y47363490D01*
X14379737Y47363497D01*
X14320621Y47506217D01*
X14319397Y47509173D01*
X14319390Y47509186D01*
X14231789Y47640289D01*
X14231786Y47640293D01*
X14120292Y47751787D01*
X14120288Y47751790D01*
X13989185Y47839391D01*
X13989172Y47839398D01*
X13862730Y47891771D01*
X13808326Y47935612D01*
X13786261Y48001906D01*
X13795620Y48053782D01*
X13854737Y48196503D01*
X13885500Y48351158D01*
X13885500Y48508842D01*
X13885500Y48508845D01*
X13885499Y48508847D01*
X24639500Y48508847D01*
X24639500Y48351154D01*
X24670261Y48196511D01*
X24670264Y48196499D01*
X24730602Y48050828D01*
X24730609Y48050815D01*
X24818210Y47919712D01*
X24818213Y47919708D01*
X24929707Y47808214D01*
X24929711Y47808211D01*
X25060814Y47720610D01*
X25060827Y47720603D01*
X25132277Y47691008D01*
X25206503Y47660263D01*
X25354024Y47630919D01*
X25361153Y47629501D01*
X25361156Y47629500D01*
X25361158Y47629500D01*
X25518844Y47629500D01*
X25518845Y47629501D01*
X25673497Y47660263D01*
X25805196Y47714815D01*
X25874664Y47722283D01*
X25937143Y47691008D01*
X25972795Y47630919D01*
X25970301Y47561094D01*
X25962013Y47541814D01*
X25960606Y47539183D01*
X25900264Y47393502D01*
X25900261Y47393490D01*
X25869500Y47238847D01*
X25869500Y47081154D01*
X25900261Y46926511D01*
X25900264Y46926499D01*
X25960602Y46780828D01*
X25960609Y46780815D01*
X26048210Y46649712D01*
X26048213Y46649708D01*
X26159707Y46538214D01*
X26159711Y46538211D01*
X26290814Y46450610D01*
X26290827Y46450603D01*
X26400323Y46405249D01*
X26436503Y46390263D01*
X26591153Y46359501D01*
X26591156Y46359500D01*
X26591158Y46359500D01*
X26748844Y46359500D01*
X26748845Y46359501D01*
X26903497Y46390263D01*
X27049179Y46450606D01*
X27180289Y46538211D01*
X27291789Y46649711D01*
X27379394Y46780821D01*
X27439737Y46926503D01*
X27470500Y47081158D01*
X27470500Y47238842D01*
X27470500Y47238845D01*
X27470499Y47238847D01*
X27439737Y47393497D01*
X27439735Y47393502D01*
X27379397Y47539173D01*
X27379390Y47539186D01*
X27291789Y47670289D01*
X27291786Y47670293D01*
X27180292Y47781787D01*
X27180288Y47781790D01*
X27049185Y47869391D01*
X27049172Y47869398D01*
X26903501Y47929736D01*
X26903489Y47929739D01*
X26748845Y47960500D01*
X26748842Y47960500D01*
X26591158Y47960500D01*
X26591155Y47960500D01*
X26436510Y47929739D01*
X26436498Y47929736D01*
X26304804Y47875187D01*
X26235334Y47867718D01*
X26172855Y47898994D01*
X26137204Y47959083D01*
X26139698Y48028908D01*
X26147995Y48048203D01*
X26149395Y48050823D01*
X26209735Y48196499D01*
X26209737Y48196503D01*
X26240500Y48351158D01*
X26240500Y48508842D01*
X26240500Y48508845D01*
X26240499Y48508847D01*
X26209738Y48663490D01*
X26209737Y48663497D01*
X26209735Y48663502D01*
X26149397Y48809173D01*
X26149390Y48809186D01*
X26061789Y48940289D01*
X26061786Y48940293D01*
X25950292Y49051787D01*
X25950288Y49051790D01*
X25819185Y49139391D01*
X25819172Y49139398D01*
X25673501Y49199736D01*
X25673489Y49199739D01*
X25518845Y49230500D01*
X25518842Y49230500D01*
X25361158Y49230500D01*
X25361155Y49230500D01*
X25206510Y49199739D01*
X25206498Y49199736D01*
X25060827Y49139398D01*
X25060814Y49139391D01*
X24929711Y49051790D01*
X24929707Y49051787D01*
X24818213Y48940293D01*
X24818210Y48940289D01*
X24730609Y48809186D01*
X24730602Y48809173D01*
X24670264Y48663502D01*
X24670261Y48663490D01*
X24639500Y48508847D01*
X13885499Y48508847D01*
X13854738Y48663490D01*
X13854737Y48663497D01*
X13854735Y48663502D01*
X13794397Y48809173D01*
X13794390Y48809186D01*
X13706789Y48940289D01*
X13706786Y48940293D01*
X13595292Y49051787D01*
X13595288Y49051790D01*
X13464185Y49139391D01*
X13464172Y49139398D01*
X13318501Y49199736D01*
X13318489Y49199739D01*
X13163845Y49230500D01*
X13163842Y49230500D01*
X13147561Y49230500D01*
X13080522Y49250185D01*
X13034767Y49302989D01*
X13024823Y49372147D01*
X13033000Y49401952D01*
X13059735Y49466499D01*
X13059737Y49466503D01*
X13090500Y49621158D01*
X13090500Y49778842D01*
X13090500Y49778845D01*
X13090499Y49778847D01*
X13059738Y49933490D01*
X13059737Y49933497D01*
X13059735Y49933502D01*
X12999397Y50079173D01*
X12999390Y50079186D01*
X12911789Y50210289D01*
X12911786Y50210293D01*
X12800292Y50321787D01*
X12800288Y50321790D01*
X12669181Y50409394D01*
X12668654Y50409675D01*
X12668429Y50409896D01*
X12664114Y50412779D01*
X12664660Y50413598D01*
X12618809Y50458637D01*
X12603348Y50526775D01*
X12624002Y50587923D01*
X12679394Y50670821D01*
X12739737Y50816503D01*
X12770500Y50971158D01*
X12770500Y51048847D01*
X25419500Y51048847D01*
X25419500Y50891154D01*
X25450261Y50736511D01*
X25450264Y50736499D01*
X25510602Y50590828D01*
X25510609Y50590815D01*
X25598210Y50459712D01*
X25598213Y50459708D01*
X25709707Y50348214D01*
X25709711Y50348211D01*
X25840814Y50260610D01*
X25840827Y50260603D01*
X25962288Y50210293D01*
X25986503Y50200263D01*
X26141153Y50169501D01*
X26141156Y50169500D01*
X26141158Y50169500D01*
X26298844Y50169500D01*
X26298845Y50169501D01*
X26453497Y50200263D01*
X26599179Y50260606D01*
X26730289Y50348211D01*
X26841789Y50459711D01*
X26929394Y50590821D01*
X26989737Y50736503D01*
X27020500Y50891158D01*
X27020500Y51048842D01*
X27020500Y51048845D01*
X27020499Y51048847D01*
X27004586Y51128847D01*
X26989737Y51203497D01*
X26956598Y51283502D01*
X26929397Y51349173D01*
X26929390Y51349186D01*
X26841789Y51480289D01*
X26841786Y51480293D01*
X26730292Y51591787D01*
X26730288Y51591790D01*
X26599185Y51679391D01*
X26599172Y51679398D01*
X26453501Y51739736D01*
X26453489Y51739739D01*
X26298845Y51770500D01*
X26298842Y51770500D01*
X26141158Y51770500D01*
X26141155Y51770500D01*
X25986510Y51739739D01*
X25986498Y51739736D01*
X25840827Y51679398D01*
X25840814Y51679391D01*
X25709711Y51591790D01*
X25709707Y51591787D01*
X25598213Y51480293D01*
X25598210Y51480289D01*
X25510609Y51349186D01*
X25510602Y51349173D01*
X25450264Y51203502D01*
X25450261Y51203490D01*
X25419500Y51048847D01*
X12770500Y51048847D01*
X12770500Y51128842D01*
X12770500Y51128845D01*
X12770499Y51128847D01*
X12755051Y51206508D01*
X12739737Y51283497D01*
X12739735Y51283502D01*
X12679397Y51429173D01*
X12679390Y51429186D01*
X12591789Y51560289D01*
X12591786Y51560293D01*
X12480292Y51671787D01*
X12480288Y51671790D01*
X12349185Y51759391D01*
X12349172Y51759398D01*
X12203501Y51819736D01*
X12203489Y51819739D01*
X12048845Y51850500D01*
X12048842Y51850500D01*
X11891158Y51850500D01*
X11891155Y51850500D01*
X11736510Y51819739D01*
X11736498Y51819736D01*
X11590827Y51759398D01*
X11590814Y51759391D01*
X11459711Y51671790D01*
X11459707Y51671787D01*
X11348213Y51560293D01*
X11348210Y51560289D01*
X11260609Y51429186D01*
X11260602Y51429173D01*
X11200264Y51283502D01*
X11200261Y51283490D01*
X11169500Y51128847D01*
X1537571Y51128847D01*
X1559745Y51182379D01*
X1559747Y51182386D01*
X1569737Y51206503D01*
X1600500Y51361158D01*
X1600500Y51518842D01*
X1600500Y51518845D01*
X1600499Y51518847D01*
X1592255Y51560293D01*
X1569737Y51673497D01*
X1534156Y51759398D01*
X1509397Y51819173D01*
X1509390Y51819186D01*
X1421789Y51950289D01*
X1421786Y51950293D01*
X1310292Y52061787D01*
X1310288Y52061790D01*
X1179185Y52149391D01*
X1179172Y52149398D01*
X1033501Y52209736D01*
X1033489Y52209739D01*
X878845Y52240500D01*
X878842Y52240500D01*
X721158Y52240500D01*
X721155Y52240500D01*
X648691Y52226086D01*
X579100Y52232313D01*
X523922Y52275176D01*
X500678Y52341066D01*
X500500Y52347703D01*
X500500Y52362097D01*
X8540284Y52362097D01*
X8540284Y52204404D01*
X8571045Y52049761D01*
X8571048Y52049749D01*
X8631386Y51904078D01*
X8631393Y51904065D01*
X8718994Y51772962D01*
X8718997Y51772958D01*
X8830491Y51661464D01*
X8830495Y51661461D01*
X8961598Y51573860D01*
X8961611Y51573853D01*
X9107282Y51513515D01*
X9107287Y51513513D01*
X9261937Y51482751D01*
X9261940Y51482750D01*
X9261942Y51482750D01*
X9419628Y51482750D01*
X9419629Y51482751D01*
X9574281Y51513513D01*
X9719963Y51573856D01*
X9851073Y51661461D01*
X9962573Y51772961D01*
X10050178Y51904071D01*
X10110521Y52049753D01*
X10141284Y52204408D01*
X10141284Y52362092D01*
X10141284Y52362095D01*
X10141283Y52362097D01*
X10110522Y52516740D01*
X10110521Y52516747D01*
X10110519Y52516752D01*
X10050181Y52662423D01*
X10050174Y52662436D01*
X9962573Y52793539D01*
X9962570Y52793543D01*
X9851076Y52905037D01*
X9851072Y52905040D01*
X9719969Y52992641D01*
X9719956Y52992648D01*
X9574285Y53052986D01*
X9574273Y53052989D01*
X9419629Y53083750D01*
X9419626Y53083750D01*
X9261942Y53083750D01*
X9261939Y53083750D01*
X9107294Y53052989D01*
X9107282Y53052986D01*
X8961611Y52992648D01*
X8961598Y52992641D01*
X8830495Y52905040D01*
X8830491Y52905037D01*
X8718997Y52793543D01*
X8718994Y52793539D01*
X8631393Y52662436D01*
X8631386Y52662423D01*
X8571048Y52516752D01*
X8571045Y52516740D01*
X8540284Y52362097D01*
X500500Y52362097D01*
X500500Y53618847D01*
X3859500Y53618847D01*
X3859500Y53461154D01*
X3890261Y53306511D01*
X3890264Y53306499D01*
X3950602Y53160828D01*
X3950609Y53160815D01*
X4038210Y53029712D01*
X4038213Y53029708D01*
X4149707Y52918214D01*
X4149711Y52918211D01*
X4280814Y52830610D01*
X4280827Y52830603D01*
X4370309Y52793539D01*
X4426503Y52770263D01*
X4577312Y52740265D01*
X4581153Y52739501D01*
X4581156Y52739500D01*
X4581158Y52739500D01*
X4738844Y52739500D01*
X4738845Y52739501D01*
X4893497Y52770263D01*
X5006166Y52816933D01*
X5039172Y52830603D01*
X5039172Y52830604D01*
X5039179Y52830606D01*
X5170289Y52918211D01*
X5281789Y53029711D01*
X5369394Y53160821D01*
X5429737Y53306503D01*
X5460500Y53461158D01*
X5460500Y53618842D01*
X5460500Y53618845D01*
X5460499Y53618847D01*
X5429737Y53773497D01*
X5381823Y53889173D01*
X5369397Y53919173D01*
X5369390Y53919186D01*
X5281789Y54050289D01*
X5281786Y54050293D01*
X5170292Y54161787D01*
X5170288Y54161790D01*
X5039185Y54249391D01*
X5039172Y54249398D01*
X4893501Y54309736D01*
X4893489Y54309739D01*
X4738845Y54340500D01*
X4738842Y54340500D01*
X4581158Y54340500D01*
X4581155Y54340500D01*
X4426510Y54309739D01*
X4426498Y54309736D01*
X4280827Y54249398D01*
X4280814Y54249391D01*
X4149711Y54161790D01*
X4149707Y54161787D01*
X4038213Y54050293D01*
X4038210Y54050289D01*
X3950609Y53919186D01*
X3950602Y53919173D01*
X3890264Y53773502D01*
X3890261Y53773490D01*
X3859500Y53618847D01*
X500500Y53618847D01*
X500500Y54858847D01*
X11199500Y54858847D01*
X11199500Y54701154D01*
X11230261Y54546511D01*
X11230264Y54546499D01*
X11290602Y54400828D01*
X11290609Y54400815D01*
X11378210Y54269712D01*
X11378213Y54269708D01*
X11489707Y54158214D01*
X11494419Y54154347D01*
X11493405Y54153112D01*
X11533236Y54105465D01*
X11541953Y54036141D01*
X11522650Y53987070D01*
X11470608Y53909184D01*
X11470602Y53909173D01*
X11410264Y53763502D01*
X11410261Y53763490D01*
X11379500Y53608847D01*
X11379500Y53451154D01*
X11410261Y53296511D01*
X11410264Y53296499D01*
X11470602Y53150828D01*
X11470609Y53150815D01*
X11558210Y53019712D01*
X11558213Y53019708D01*
X11669707Y52908214D01*
X11669711Y52908211D01*
X11800814Y52820610D01*
X11800827Y52820603D01*
X11922363Y52770262D01*
X11946503Y52760263D01*
X12101153Y52729501D01*
X12101156Y52729500D01*
X12101158Y52729500D01*
X12258844Y52729500D01*
X12258845Y52729501D01*
X12413497Y52760263D01*
X12559179Y52820606D01*
X12690289Y52908211D01*
X12801789Y53019711D01*
X12889394Y53150821D01*
X12949737Y53296503D01*
X12980500Y53451158D01*
X12980500Y53608842D01*
X12980500Y53608845D01*
X12980499Y53608847D01*
X12978510Y53618847D01*
X12949737Y53763497D01*
X12897681Y53889173D01*
X12889397Y53909173D01*
X12889390Y53909186D01*
X12801789Y54040289D01*
X12801786Y54040293D01*
X12690292Y54151787D01*
X12685581Y54155653D01*
X12686593Y54156887D01*
X12646760Y54204543D01*
X12638047Y54273867D01*
X12657350Y54322932D01*
X12709394Y54400821D01*
X12769737Y54546503D01*
X12800500Y54701158D01*
X12800500Y54858842D01*
X12800500Y54858845D01*
X12794155Y54890742D01*
X12794155Y54890743D01*
X12790554Y54908847D01*
X24759500Y54908847D01*
X24759500Y54751154D01*
X24790261Y54596511D01*
X24790264Y54596499D01*
X24850602Y54450828D01*
X24850609Y54450815D01*
X24938210Y54319712D01*
X24938213Y54319708D01*
X25049707Y54208214D01*
X25049711Y54208211D01*
X25180814Y54120610D01*
X25180827Y54120603D01*
X25326498Y54060265D01*
X25326503Y54060263D01*
X25447772Y54036141D01*
X25481153Y54029501D01*
X25481156Y54029500D01*
X25481158Y54029500D01*
X25638843Y54029500D01*
X25640034Y54029737D01*
X25640671Y54029680D01*
X25644907Y54030097D01*
X25644986Y54029295D01*
X25709626Y54023515D01*
X25764807Y53980657D01*
X25788057Y53914769D01*
X25778797Y53860670D01*
X25730263Y53743497D01*
X25730262Y53743494D01*
X25730262Y53743493D01*
X25730261Y53743490D01*
X25699500Y53588847D01*
X25699500Y53431154D01*
X25730261Y53276511D01*
X25730264Y53276499D01*
X25790602Y53130828D01*
X25790609Y53130815D01*
X25878210Y52999712D01*
X25878213Y52999708D01*
X25989707Y52888214D01*
X25989711Y52888211D01*
X26120814Y52800610D01*
X26120827Y52800603D01*
X26266498Y52740265D01*
X26266503Y52740263D01*
X26421153Y52709501D01*
X26421156Y52709500D01*
X26421158Y52709500D01*
X26578844Y52709500D01*
X26578845Y52709501D01*
X26733497Y52740263D01*
X26879179Y52800606D01*
X27010289Y52888211D01*
X27121789Y52999711D01*
X27209394Y53130821D01*
X27269737Y53276503D01*
X27300500Y53431158D01*
X27300500Y53588842D01*
X27300500Y53588845D01*
X27300499Y53588847D01*
X27269738Y53743490D01*
X27269737Y53743497D01*
X27221203Y53860670D01*
X27209397Y53889173D01*
X27209390Y53889186D01*
X27121789Y54020289D01*
X27121786Y54020293D01*
X27010292Y54131787D01*
X27010288Y54131790D01*
X26879185Y54219391D01*
X26879172Y54219398D01*
X26733501Y54279736D01*
X26733489Y54279739D01*
X26578845Y54310500D01*
X26578842Y54310500D01*
X26421158Y54310500D01*
X26421150Y54310500D01*
X26419946Y54310260D01*
X26419303Y54310318D01*
X26415093Y54309903D01*
X26415014Y54310702D01*
X26350354Y54316493D01*
X26295181Y54359360D01*
X26271941Y54425252D01*
X26281202Y54479330D01*
X26329737Y54596503D01*
X26360500Y54751158D01*
X26360500Y54908842D01*
X26360500Y54908845D01*
X26360499Y54908847D01*
X26339684Y55013490D01*
X26329737Y55063497D01*
X26290572Y55158049D01*
X26283104Y55227517D01*
X26314379Y55289996D01*
X26374468Y55325648D01*
X26405134Y55329500D01*
X26528844Y55329500D01*
X26528845Y55329501D01*
X26683497Y55360263D01*
X26829179Y55420606D01*
X26960289Y55508211D01*
X27071789Y55619711D01*
X27159394Y55750821D01*
X27219737Y55896503D01*
X27250500Y56051158D01*
X27250500Y56208842D01*
X27250500Y56208845D01*
X27250499Y56208847D01*
X27242193Y56250603D01*
X27219737Y56363497D01*
X27184028Y56449708D01*
X27159397Y56509173D01*
X27159390Y56509186D01*
X27071789Y56640289D01*
X27067924Y56644999D01*
X27069478Y56646275D01*
X27040412Y56699505D01*
X27045396Y56769197D01*
X27058476Y56794755D01*
X27061784Y56799707D01*
X27061789Y56799711D01*
X27149394Y56930821D01*
X27209737Y57076503D01*
X27240500Y57231158D01*
X27240500Y57388842D01*
X27240500Y57388845D01*
X27240499Y57388847D01*
X27209738Y57543490D01*
X27209737Y57543497D01*
X27169276Y57641179D01*
X27149397Y57689173D01*
X27149390Y57689186D01*
X27061789Y57820289D01*
X27061786Y57820293D01*
X26950292Y57931787D01*
X26950288Y57931790D01*
X26819185Y58019391D01*
X26819172Y58019398D01*
X26673501Y58079736D01*
X26673489Y58079739D01*
X26518845Y58110500D01*
X26518842Y58110500D01*
X26361158Y58110500D01*
X26361155Y58110500D01*
X26206510Y58079739D01*
X26206498Y58079736D01*
X26060827Y58019398D01*
X26060814Y58019391D01*
X25929711Y57931790D01*
X25929707Y57931787D01*
X25818213Y57820293D01*
X25818210Y57820289D01*
X25730609Y57689186D01*
X25730602Y57689173D01*
X25670264Y57543502D01*
X25670261Y57543490D01*
X25639500Y57388847D01*
X25639500Y57231154D01*
X25670261Y57076511D01*
X25670264Y57076499D01*
X25730602Y56930828D01*
X25730609Y56930815D01*
X25818210Y56799712D01*
X25822076Y56795001D01*
X25820521Y56793726D01*
X25849587Y56740496D01*
X25844603Y56670804D01*
X25831523Y56645247D01*
X25740609Y56509186D01*
X25740602Y56509173D01*
X25680264Y56363502D01*
X25680261Y56363490D01*
X25649500Y56208847D01*
X25649500Y56051154D01*
X25680261Y55896511D01*
X25680263Y55896503D01*
X25719427Y55801953D01*
X25726896Y55732483D01*
X25695621Y55670004D01*
X25635532Y55634352D01*
X25604866Y55630500D01*
X25481155Y55630500D01*
X25326510Y55599739D01*
X25326498Y55599736D01*
X25180827Y55539398D01*
X25180814Y55539391D01*
X25049711Y55451790D01*
X25049707Y55451787D01*
X24938213Y55340293D01*
X24938210Y55340289D01*
X24850609Y55209186D01*
X24850602Y55209173D01*
X24790264Y55063502D01*
X24790261Y55063490D01*
X24759500Y54908847D01*
X12790554Y54908847D01*
X12769738Y55013490D01*
X12769737Y55013497D01*
X12769735Y55013502D01*
X12709397Y55159173D01*
X12709390Y55159186D01*
X12621789Y55290289D01*
X12621786Y55290293D01*
X12510292Y55401787D01*
X12510288Y55401790D01*
X12379185Y55489391D01*
X12379172Y55489398D01*
X12233501Y55549736D01*
X12233489Y55549739D01*
X12078845Y55580500D01*
X12078842Y55580500D01*
X11921158Y55580500D01*
X11921155Y55580500D01*
X11766510Y55549739D01*
X11766498Y55549736D01*
X11620827Y55489398D01*
X11620814Y55489391D01*
X11489711Y55401790D01*
X11489707Y55401787D01*
X11378213Y55290293D01*
X11378210Y55290289D01*
X11290609Y55159186D01*
X11290602Y55159173D01*
X11230264Y55013502D01*
X11230261Y55013490D01*
X11199500Y54858847D01*
X500500Y54858847D01*
X500500Y57038847D01*
X3689500Y57038847D01*
X3689500Y56881154D01*
X3720261Y56726511D01*
X3720264Y56726499D01*
X3780602Y56580828D01*
X3780609Y56580815D01*
X3868210Y56449712D01*
X3868213Y56449708D01*
X3979707Y56338214D01*
X3979711Y56338211D01*
X4110814Y56250610D01*
X4110827Y56250603D01*
X4256498Y56190265D01*
X4256503Y56190263D01*
X4411153Y56159501D01*
X4411156Y56159500D01*
X4411158Y56159500D01*
X4568844Y56159500D01*
X4568845Y56159501D01*
X4723497Y56190263D01*
X4869179Y56250606D01*
X5000289Y56338211D01*
X5111789Y56449711D01*
X5199394Y56580821D01*
X5259737Y56726503D01*
X5290500Y56881158D01*
X5290500Y57038842D01*
X5290500Y57038845D01*
X5290499Y57038847D01*
X5259737Y57193497D01*
X5199394Y57339179D01*
X5199390Y57339186D01*
X5198280Y57340847D01*
X21429500Y57340847D01*
X21429500Y57183154D01*
X21460261Y57028511D01*
X21460264Y57028499D01*
X21520602Y56882828D01*
X21520609Y56882815D01*
X21608210Y56751712D01*
X21608213Y56751708D01*
X21719707Y56640214D01*
X21719711Y56640211D01*
X21850814Y56552610D01*
X21850827Y56552603D01*
X21955678Y56509173D01*
X21996503Y56492263D01*
X22151153Y56461501D01*
X22151156Y56461500D01*
X22151158Y56461500D01*
X22308844Y56461500D01*
X22308845Y56461501D01*
X22463497Y56492263D01*
X22609179Y56552606D01*
X22740289Y56640211D01*
X22851789Y56751711D01*
X22939394Y56882821D01*
X22999737Y57028503D01*
X23030500Y57183158D01*
X23030500Y57340842D01*
X23030500Y57340845D01*
X23030499Y57340847D01*
X23020952Y57388842D01*
X22999737Y57495497D01*
X22963994Y57581790D01*
X22939397Y57641173D01*
X22939390Y57641186D01*
X22851789Y57772289D01*
X22851786Y57772293D01*
X22740292Y57883787D01*
X22740288Y57883790D01*
X22609185Y57971391D01*
X22609172Y57971398D01*
X22463501Y58031736D01*
X22463489Y58031739D01*
X22308845Y58062500D01*
X22308842Y58062500D01*
X22151158Y58062500D01*
X22151155Y58062500D01*
X21996510Y58031739D01*
X21996498Y58031736D01*
X21850827Y57971398D01*
X21850814Y57971391D01*
X21719711Y57883790D01*
X21719707Y57883787D01*
X21608213Y57772293D01*
X21608210Y57772289D01*
X21520609Y57641186D01*
X21520602Y57641173D01*
X21460264Y57495502D01*
X21460261Y57495490D01*
X21429500Y57340847D01*
X5198280Y57340847D01*
X5111789Y57470289D01*
X5111786Y57470293D01*
X5000292Y57581787D01*
X5000288Y57581790D01*
X4869185Y57669391D01*
X4869172Y57669398D01*
X4723501Y57729736D01*
X4723489Y57729739D01*
X4568845Y57760500D01*
X4568842Y57760500D01*
X4411158Y57760500D01*
X4411155Y57760500D01*
X4256510Y57729739D01*
X4256498Y57729736D01*
X4110827Y57669398D01*
X4110814Y57669391D01*
X3979711Y57581790D01*
X3979707Y57581787D01*
X3868213Y57470293D01*
X3868210Y57470289D01*
X3780609Y57339186D01*
X3780602Y57339173D01*
X3720264Y57193502D01*
X3720261Y57193490D01*
X3689500Y57038847D01*
X500500Y57038847D01*
X500500Y59355500D01*
X520185Y59422539D01*
X572989Y59468294D01*
X624500Y59479500D01*
X29375500Y59479500D01*
X29442539Y59459815D01*
G37*
%TD.AperFunction*%
%TD*%
M02*
