%TF.GenerationSoftware,KiCad,Pcbnew,9.0.5*%
%TF.CreationDate,2025-11-23T16:16:19+01:00*%
%TF.ProjectId,horsesense,686f7273-6573-4656-9e73-652e6b696361,1.0*%
%TF.SameCoordinates,Original*%
%TF.FileFunction,Legend,Top*%
%TF.FilePolarity,Positive*%
%FSLAX46Y46*%
G04 Gerber Fmt 4.6, Leading zero omitted, Abs format (unit mm)*
G04 Created by KiCad (PCBNEW 9.0.5) date 2025-11-23 16:16:19*
%MOMM*%
%LPD*%
G01*
G04 APERTURE LIST*
G04 Aperture macros list*
%AMRoundRect*
0 Rectangle with rounded corners*
0 $1 Rounding radius*
0 $2 $3 $4 $5 $6 $7 $8 $9 X,Y pos of 4 corners*
0 Add a 4 corners polygon primitive as box body*
4,1,4,$2,$3,$4,$5,$6,$7,$8,$9,$2,$3,0*
0 Add four circle primitives for the rounded corners*
1,1,$1+$1,$2,$3*
1,1,$1+$1,$4,$5*
1,1,$1+$1,$6,$7*
1,1,$1+$1,$8,$9*
0 Add four rect primitives between the rounded corners*
20,1,$1+$1,$2,$3,$4,$5,0*
20,1,$1+$1,$4,$5,$6,$7,0*
20,1,$1+$1,$6,$7,$8,$9,0*
20,1,$1+$1,$8,$9,$2,$3,0*%
%AMFreePoly0*
4,1,23,0.500000,-0.750000,0.000000,-0.750000,0.000000,-0.745722,-0.065263,-0.745722,-0.191342,-0.711940,-0.304381,-0.646677,-0.396677,-0.554381,-0.461940,-0.441342,-0.495722,-0.315263,-0.495722,-0.250000,-0.500000,-0.250000,-0.500000,0.250000,-0.495722,0.250000,-0.495722,0.315263,-0.461940,0.441342,-0.396677,0.554381,-0.304381,0.646677,-0.191342,0.711940,-0.065263,0.745722,0.000000,0.745722,
0.000000,0.750000,0.500000,0.750000,0.500000,-0.750000,0.500000,-0.750000,$1*%
%AMFreePoly1*
4,1,23,0.000000,0.745722,0.065263,0.745722,0.191342,0.711940,0.304381,0.646677,0.396677,0.554381,0.461940,0.441342,0.495722,0.315263,0.495722,0.250000,0.500000,0.250000,0.500000,-0.250000,0.495722,-0.250000,0.495722,-0.315263,0.461940,-0.441342,0.396677,-0.554381,0.304381,-0.646677,0.191342,-0.711940,0.065263,-0.745722,0.000000,-0.745722,0.000000,-0.750000,-0.500000,-0.750000,
-0.500000,0.750000,0.000000,0.750000,0.000000,0.745722,0.000000,0.745722,$1*%
G04 Aperture macros list end*
%ADD10C,0.150000*%
%ADD11C,0.254000*%
%ADD12C,0.120000*%
%ADD13C,0.100000*%
%ADD14C,0.152400*%
%ADD15C,0.127000*%
%ADD16C,0.200000*%
%ADD17C,0.010000*%
%ADD18RoundRect,0.218750X-0.381250X0.218750X-0.381250X-0.218750X0.381250X-0.218750X0.381250X0.218750X0*%
%ADD19RoundRect,0.175000X0.725000X0.175000X-0.725000X0.175000X-0.725000X-0.175000X0.725000X-0.175000X0*%
%ADD20RoundRect,0.200000X0.700000X0.200000X-0.700000X0.200000X-0.700000X-0.200000X0.700000X-0.200000X0*%
%ADD21RoundRect,0.250000X0.450000X-0.262500X0.450000X0.262500X-0.450000X0.262500X-0.450000X-0.262500X0*%
%ADD22RoundRect,0.250000X0.475000X-0.250000X0.475000X0.250000X-0.475000X0.250000X-0.475000X-0.250000X0*%
%ADD23R,0.250000X0.250000*%
%ADD24RoundRect,0.250000X-0.250000X-1.500000X0.250000X-1.500000X0.250000X1.500000X-0.250000X1.500000X0*%
%ADD25RoundRect,0.250001X-0.499999X-1.449999X0.499999X-1.449999X0.499999X1.449999X-0.499999X1.449999X0*%
%ADD26R,1.500000X0.900000*%
%ADD27R,0.900000X1.500000*%
%ADD28C,0.600000*%
%ADD29R,3.900000X3.900000*%
%ADD30C,0.254000*%
%ADD31RoundRect,0.250000X0.250000X0.475000X-0.250000X0.475000X-0.250000X-0.475000X0.250000X-0.475000X0*%
%ADD32R,1.000000X1.000000*%
%ADD33C,1.000000*%
%ADD34FreePoly0,0.000000*%
%ADD35FreePoly1,0.000000*%
%ADD36RoundRect,0.250000X-0.262500X-0.450000X0.262500X-0.450000X0.262500X0.450000X-0.262500X0.450000X0*%
%ADD37RoundRect,0.250000X-0.250000X-0.475000X0.250000X-0.475000X0.250000X0.475000X-0.250000X0.475000X0*%
%ADD38RoundRect,0.250000X0.262500X0.450000X-0.262500X0.450000X-0.262500X-0.450000X0.262500X-0.450000X0*%
%ADD39RoundRect,0.062500X0.062500X-0.350000X0.062500X0.350000X-0.062500X0.350000X-0.062500X-0.350000X0*%
%ADD40RoundRect,0.062500X0.350000X-0.062500X0.350000X0.062500X-0.350000X0.062500X-0.350000X-0.062500X0*%
%ADD41R,2.700000X2.700000*%
%ADD42RoundRect,0.162500X-0.162500X0.650000X-0.162500X-0.650000X0.162500X-0.650000X0.162500X0.650000X0*%
%ADD43RoundRect,0.218750X0.218750X0.381250X-0.218750X0.381250X-0.218750X-0.381250X0.218750X-0.381250X0*%
%ADD44RoundRect,0.250000X-0.475000X0.250000X-0.475000X-0.250000X0.475000X-0.250000X0.475000X0.250000X0*%
%ADD45RoundRect,0.150000X0.150000X-0.512500X0.150000X0.512500X-0.150000X0.512500X-0.150000X-0.512500X0*%
%ADD46RoundRect,0.250000X-0.275000X0.450000X-0.275000X-0.450000X0.275000X-0.450000X0.275000X0.450000X0*%
%ADD47FreePoly0,180.000000*%
%ADD48FreePoly1,180.000000*%
%ADD49RoundRect,0.100000X-0.400000X-0.400000X0.400000X-0.400000X0.400000X0.400000X-0.400000X0.400000X0*%
%ADD50RoundRect,0.105000X-0.420000X-0.995000X0.420000X-0.995000X0.420000X0.995000X-0.420000X0.995000X0*%
%ADD51C,0.650000*%
%ADD52RoundRect,0.150000X-0.425000X0.150000X-0.425000X-0.150000X0.425000X-0.150000X0.425000X0.150000X0*%
%ADD53RoundRect,0.075000X-0.500000X0.075000X-0.500000X-0.075000X0.500000X-0.075000X0.500000X0.075000X0*%
%ADD54O,2.100000X1.000000*%
%ADD55O,1.800000X1.000000*%
%ADD56FreePoly0,270.000000*%
%ADD57FreePoly1,270.000000*%
%ADD58R,0.200000X0.600000*%
%ADD59R,0.250000X0.150000*%
%ADD60R,0.600000X0.200000*%
G04 APERTURE END LIST*
D10*
X1153333Y16095181D02*
X677143Y16095181D01*
X677143Y16095181D02*
X677143Y17095181D01*
X1439048Y16999943D02*
X1486667Y17047562D01*
X1486667Y17047562D02*
X1581905Y17095181D01*
X1581905Y17095181D02*
X1820000Y17095181D01*
X1820000Y17095181D02*
X1915238Y17047562D01*
X1915238Y17047562D02*
X1962857Y16999943D01*
X1962857Y16999943D02*
X2010476Y16904705D01*
X2010476Y16904705D02*
X2010476Y16809467D01*
X2010476Y16809467D02*
X1962857Y16666610D01*
X1962857Y16666610D02*
X1391429Y16095181D01*
X1391429Y16095181D02*
X2010476Y16095181D01*
X8601905Y14585181D02*
X8601905Y13775658D01*
X8601905Y13775658D02*
X8649524Y13680420D01*
X8649524Y13680420D02*
X8697143Y13632800D01*
X8697143Y13632800D02*
X8792381Y13585181D01*
X8792381Y13585181D02*
X8982857Y13585181D01*
X8982857Y13585181D02*
X9078095Y13632800D01*
X9078095Y13632800D02*
X9125714Y13680420D01*
X9125714Y13680420D02*
X9173333Y13775658D01*
X9173333Y13775658D02*
X9173333Y14585181D01*
X10173333Y13585181D02*
X9601905Y13585181D01*
X9887619Y13585181D02*
X9887619Y14585181D01*
X9887619Y14585181D02*
X9792381Y14442324D01*
X9792381Y14442324D02*
X9697143Y14347086D01*
X9697143Y14347086D02*
X9601905Y14299467D01*
X10792381Y14585181D02*
X10887619Y14585181D01*
X10887619Y14585181D02*
X10982857Y14537562D01*
X10982857Y14537562D02*
X11030476Y14489943D01*
X11030476Y14489943D02*
X11078095Y14394705D01*
X11078095Y14394705D02*
X11125714Y14204229D01*
X11125714Y14204229D02*
X11125714Y13966134D01*
X11125714Y13966134D02*
X11078095Y13775658D01*
X11078095Y13775658D02*
X11030476Y13680420D01*
X11030476Y13680420D02*
X10982857Y13632800D01*
X10982857Y13632800D02*
X10887619Y13585181D01*
X10887619Y13585181D02*
X10792381Y13585181D01*
X10792381Y13585181D02*
X10697143Y13632800D01*
X10697143Y13632800D02*
X10649524Y13680420D01*
X10649524Y13680420D02*
X10601905Y13775658D01*
X10601905Y13775658D02*
X10554286Y13966134D01*
X10554286Y13966134D02*
X10554286Y14204229D01*
X10554286Y14204229D02*
X10601905Y14394705D01*
X10601905Y14394705D02*
X10649524Y14489943D01*
X10649524Y14489943D02*
X10697143Y14537562D01*
X10697143Y14537562D02*
X10792381Y14585181D01*
X21014819Y8713334D02*
X20538628Y8380001D01*
X21014819Y8141906D02*
X20014819Y8141906D01*
X20014819Y8141906D02*
X20014819Y8522858D01*
X20014819Y8522858D02*
X20062438Y8618096D01*
X20062438Y8618096D02*
X20110057Y8665715D01*
X20110057Y8665715D02*
X20205295Y8713334D01*
X20205295Y8713334D02*
X20348152Y8713334D01*
X20348152Y8713334D02*
X20443390Y8665715D01*
X20443390Y8665715D02*
X20491009Y8618096D01*
X20491009Y8618096D02*
X20538628Y8522858D01*
X20538628Y8522858D02*
X20538628Y8141906D01*
X20348152Y9570477D02*
X21014819Y9570477D01*
X19967200Y9332382D02*
X20681485Y9094287D01*
X20681485Y9094287D02*
X20681485Y9713334D01*
X9779580Y57387143D02*
X9827200Y57339524D01*
X9827200Y57339524D02*
X9874819Y57196667D01*
X9874819Y57196667D02*
X9874819Y57101429D01*
X9874819Y57101429D02*
X9827200Y56958572D01*
X9827200Y56958572D02*
X9731961Y56863334D01*
X9731961Y56863334D02*
X9636723Y56815715D01*
X9636723Y56815715D02*
X9446247Y56768096D01*
X9446247Y56768096D02*
X9303390Y56768096D01*
X9303390Y56768096D02*
X9112914Y56815715D01*
X9112914Y56815715D02*
X9017676Y56863334D01*
X9017676Y56863334D02*
X8922438Y56958572D01*
X8922438Y56958572D02*
X8874819Y57101429D01*
X8874819Y57101429D02*
X8874819Y57196667D01*
X8874819Y57196667D02*
X8922438Y57339524D01*
X8922438Y57339524D02*
X8970057Y57387143D01*
X8970057Y57768096D02*
X8922438Y57815715D01*
X8922438Y57815715D02*
X8874819Y57910953D01*
X8874819Y57910953D02*
X8874819Y58149048D01*
X8874819Y58149048D02*
X8922438Y58244286D01*
X8922438Y58244286D02*
X8970057Y58291905D01*
X8970057Y58291905D02*
X9065295Y58339524D01*
X9065295Y58339524D02*
X9160533Y58339524D01*
X9160533Y58339524D02*
X9303390Y58291905D01*
X9303390Y58291905D02*
X9874819Y57720477D01*
X9874819Y57720477D02*
X9874819Y58339524D01*
X9208152Y59196667D02*
X9874819Y59196667D01*
X8827200Y58958572D02*
X9541485Y58720477D01*
X9541485Y58720477D02*
X9541485Y59339524D01*
D11*
X2654318Y24390238D02*
X1384318Y24390238D01*
X2533365Y25720715D02*
X2593842Y25660239D01*
X2593842Y25660239D02*
X2654318Y25478810D01*
X2654318Y25478810D02*
X2654318Y25357858D01*
X2654318Y25357858D02*
X2593842Y25176429D01*
X2593842Y25176429D02*
X2472889Y25055477D01*
X2472889Y25055477D02*
X2351937Y24995000D01*
X2351937Y24995000D02*
X2110032Y24934524D01*
X2110032Y24934524D02*
X1928603Y24934524D01*
X1928603Y24934524D02*
X1686699Y24995000D01*
X1686699Y24995000D02*
X1565746Y25055477D01*
X1565746Y25055477D02*
X1444794Y25176429D01*
X1444794Y25176429D02*
X1384318Y25357858D01*
X1384318Y25357858D02*
X1384318Y25478810D01*
X1384318Y25478810D02*
X1444794Y25660239D01*
X1444794Y25660239D02*
X1505270Y25720715D01*
X2654318Y26930239D02*
X2654318Y26204524D01*
X2654318Y26567381D02*
X1384318Y26567381D01*
X1384318Y26567381D02*
X1565746Y26446429D01*
X1565746Y26446429D02*
X1686699Y26325477D01*
X1686699Y26325477D02*
X1747175Y26204524D01*
D10*
X25489580Y37107143D02*
X25537200Y37059524D01*
X25537200Y37059524D02*
X25584819Y36916667D01*
X25584819Y36916667D02*
X25584819Y36821429D01*
X25584819Y36821429D02*
X25537200Y36678572D01*
X25537200Y36678572D02*
X25441961Y36583334D01*
X25441961Y36583334D02*
X25346723Y36535715D01*
X25346723Y36535715D02*
X25156247Y36488096D01*
X25156247Y36488096D02*
X25013390Y36488096D01*
X25013390Y36488096D02*
X24822914Y36535715D01*
X24822914Y36535715D02*
X24727676Y36583334D01*
X24727676Y36583334D02*
X24632438Y36678572D01*
X24632438Y36678572D02*
X24584819Y36821429D01*
X24584819Y36821429D02*
X24584819Y36916667D01*
X24584819Y36916667D02*
X24632438Y37059524D01*
X24632438Y37059524D02*
X24680057Y37107143D01*
X25584819Y38059524D02*
X25584819Y37488096D01*
X25584819Y37773810D02*
X24584819Y37773810D01*
X24584819Y37773810D02*
X24727676Y37678572D01*
X24727676Y37678572D02*
X24822914Y37583334D01*
X24822914Y37583334D02*
X24870533Y37488096D01*
X24584819Y38392858D02*
X24584819Y39059524D01*
X24584819Y39059524D02*
X25584819Y38630953D01*
X5764819Y50757143D02*
X5288628Y50423810D01*
X5764819Y50185715D02*
X4764819Y50185715D01*
X4764819Y50185715D02*
X4764819Y50566667D01*
X4764819Y50566667D02*
X4812438Y50661905D01*
X4812438Y50661905D02*
X4860057Y50709524D01*
X4860057Y50709524D02*
X4955295Y50757143D01*
X4955295Y50757143D02*
X5098152Y50757143D01*
X5098152Y50757143D02*
X5193390Y50709524D01*
X5193390Y50709524D02*
X5241009Y50661905D01*
X5241009Y50661905D02*
X5288628Y50566667D01*
X5288628Y50566667D02*
X5288628Y50185715D01*
X4860057Y51138096D02*
X4812438Y51185715D01*
X4812438Y51185715D02*
X4764819Y51280953D01*
X4764819Y51280953D02*
X4764819Y51519048D01*
X4764819Y51519048D02*
X4812438Y51614286D01*
X4812438Y51614286D02*
X4860057Y51661905D01*
X4860057Y51661905D02*
X4955295Y51709524D01*
X4955295Y51709524D02*
X5050533Y51709524D01*
X5050533Y51709524D02*
X5193390Y51661905D01*
X5193390Y51661905D02*
X5764819Y51090477D01*
X5764819Y51090477D02*
X5764819Y51709524D01*
X5764819Y52185715D02*
X5764819Y52376191D01*
X5764819Y52376191D02*
X5717200Y52471429D01*
X5717200Y52471429D02*
X5669580Y52519048D01*
X5669580Y52519048D02*
X5526723Y52614286D01*
X5526723Y52614286D02*
X5336247Y52661905D01*
X5336247Y52661905D02*
X4955295Y52661905D01*
X4955295Y52661905D02*
X4860057Y52614286D01*
X4860057Y52614286D02*
X4812438Y52566667D01*
X4812438Y52566667D02*
X4764819Y52471429D01*
X4764819Y52471429D02*
X4764819Y52280953D01*
X4764819Y52280953D02*
X4812438Y52185715D01*
X4812438Y52185715D02*
X4860057Y52138096D01*
X4860057Y52138096D02*
X4955295Y52090477D01*
X4955295Y52090477D02*
X5193390Y52090477D01*
X5193390Y52090477D02*
X5288628Y52138096D01*
X5288628Y52138096D02*
X5336247Y52185715D01*
X5336247Y52185715D02*
X5383866Y52280953D01*
X5383866Y52280953D02*
X5383866Y52471429D01*
X5383866Y52471429D02*
X5336247Y52566667D01*
X5336247Y52566667D02*
X5288628Y52614286D01*
X5288628Y52614286D02*
X5193390Y52661905D01*
X24976666Y11475181D02*
X24976666Y10760896D01*
X24976666Y10760896D02*
X24929047Y10618039D01*
X24929047Y10618039D02*
X24833809Y10522800D01*
X24833809Y10522800D02*
X24690952Y10475181D01*
X24690952Y10475181D02*
X24595714Y10475181D01*
X25405238Y11379943D02*
X25452857Y11427562D01*
X25452857Y11427562D02*
X25548095Y11475181D01*
X25548095Y11475181D02*
X25786190Y11475181D01*
X25786190Y11475181D02*
X25881428Y11427562D01*
X25881428Y11427562D02*
X25929047Y11379943D01*
X25929047Y11379943D02*
X25976666Y11284705D01*
X25976666Y11284705D02*
X25976666Y11189467D01*
X25976666Y11189467D02*
X25929047Y11046610D01*
X25929047Y11046610D02*
X25357619Y10475181D01*
X25357619Y10475181D02*
X25976666Y10475181D01*
X27138095Y39805181D02*
X27138095Y38995658D01*
X27138095Y38995658D02*
X27185714Y38900420D01*
X27185714Y38900420D02*
X27233333Y38852800D01*
X27233333Y38852800D02*
X27328571Y38805181D01*
X27328571Y38805181D02*
X27519047Y38805181D01*
X27519047Y38805181D02*
X27614285Y38852800D01*
X27614285Y38852800D02*
X27661904Y38900420D01*
X27661904Y38900420D02*
X27709523Y38995658D01*
X27709523Y38995658D02*
X27709523Y39805181D01*
X28233333Y38805181D02*
X28423809Y38805181D01*
X28423809Y38805181D02*
X28519047Y38852800D01*
X28519047Y38852800D02*
X28566666Y38900420D01*
X28566666Y38900420D02*
X28661904Y39043277D01*
X28661904Y39043277D02*
X28709523Y39233753D01*
X28709523Y39233753D02*
X28709523Y39614705D01*
X28709523Y39614705D02*
X28661904Y39709943D01*
X28661904Y39709943D02*
X28614285Y39757562D01*
X28614285Y39757562D02*
X28519047Y39805181D01*
X28519047Y39805181D02*
X28328571Y39805181D01*
X28328571Y39805181D02*
X28233333Y39757562D01*
X28233333Y39757562D02*
X28185714Y39709943D01*
X28185714Y39709943D02*
X28138095Y39614705D01*
X28138095Y39614705D02*
X28138095Y39376610D01*
X28138095Y39376610D02*
X28185714Y39281372D01*
X28185714Y39281372D02*
X28233333Y39233753D01*
X28233333Y39233753D02*
X28328571Y39186134D01*
X28328571Y39186134D02*
X28519047Y39186134D01*
X28519047Y39186134D02*
X28614285Y39233753D01*
X28614285Y39233753D02*
X28661904Y39281372D01*
X28661904Y39281372D02*
X28709523Y39376610D01*
X19908095Y33851081D02*
X19908095Y33041558D01*
X19908095Y33041558D02*
X19955714Y32946320D01*
X19955714Y32946320D02*
X20003333Y32898700D01*
X20003333Y32898700D02*
X20098571Y32851081D01*
X20098571Y32851081D02*
X20289047Y32851081D01*
X20289047Y32851081D02*
X20384285Y32898700D01*
X20384285Y32898700D02*
X20431904Y32946320D01*
X20431904Y32946320D02*
X20479523Y33041558D01*
X20479523Y33041558D02*
X20479523Y33851081D01*
X21479523Y32851081D02*
X20908095Y32851081D01*
X21193809Y32851081D02*
X21193809Y33851081D01*
X21193809Y33851081D02*
X21098571Y33708224D01*
X21098571Y33708224D02*
X21003333Y33612986D01*
X21003333Y33612986D02*
X20908095Y33565367D01*
X5427142Y27540420D02*
X5379523Y27492800D01*
X5379523Y27492800D02*
X5236666Y27445181D01*
X5236666Y27445181D02*
X5141428Y27445181D01*
X5141428Y27445181D02*
X4998571Y27492800D01*
X4998571Y27492800D02*
X4903333Y27588039D01*
X4903333Y27588039D02*
X4855714Y27683277D01*
X4855714Y27683277D02*
X4808095Y27873753D01*
X4808095Y27873753D02*
X4808095Y28016610D01*
X4808095Y28016610D02*
X4855714Y28207086D01*
X4855714Y28207086D02*
X4903333Y28302324D01*
X4903333Y28302324D02*
X4998571Y28397562D01*
X4998571Y28397562D02*
X5141428Y28445181D01*
X5141428Y28445181D02*
X5236666Y28445181D01*
X5236666Y28445181D02*
X5379523Y28397562D01*
X5379523Y28397562D02*
X5427142Y28349943D01*
X5760476Y28445181D02*
X6379523Y28445181D01*
X6379523Y28445181D02*
X6046190Y28064229D01*
X6046190Y28064229D02*
X6189047Y28064229D01*
X6189047Y28064229D02*
X6284285Y28016610D01*
X6284285Y28016610D02*
X6331904Y27968991D01*
X6331904Y27968991D02*
X6379523Y27873753D01*
X6379523Y27873753D02*
X6379523Y27635658D01*
X6379523Y27635658D02*
X6331904Y27540420D01*
X6331904Y27540420D02*
X6284285Y27492800D01*
X6284285Y27492800D02*
X6189047Y27445181D01*
X6189047Y27445181D02*
X5903333Y27445181D01*
X5903333Y27445181D02*
X5808095Y27492800D01*
X5808095Y27492800D02*
X5760476Y27540420D01*
X7331904Y27445181D02*
X6760476Y27445181D01*
X7046190Y27445181D02*
X7046190Y28445181D01*
X7046190Y28445181D02*
X6950952Y28302324D01*
X6950952Y28302324D02*
X6855714Y28207086D01*
X6855714Y28207086D02*
X6760476Y28159467D01*
X3606666Y35695181D02*
X3606666Y34980896D01*
X3606666Y34980896D02*
X3559047Y34838039D01*
X3559047Y34838039D02*
X3463809Y34742800D01*
X3463809Y34742800D02*
X3320952Y34695181D01*
X3320952Y34695181D02*
X3225714Y34695181D01*
X4511428Y35361848D02*
X4511428Y34695181D01*
X4273333Y35742800D02*
X4035238Y35028515D01*
X4035238Y35028515D02*
X4654285Y35028515D01*
X17904819Y2103334D02*
X17428628Y1770001D01*
X17904819Y1531906D02*
X16904819Y1531906D01*
X16904819Y1531906D02*
X16904819Y1912858D01*
X16904819Y1912858D02*
X16952438Y2008096D01*
X16952438Y2008096D02*
X17000057Y2055715D01*
X17000057Y2055715D02*
X17095295Y2103334D01*
X17095295Y2103334D02*
X17238152Y2103334D01*
X17238152Y2103334D02*
X17333390Y2055715D01*
X17333390Y2055715D02*
X17381009Y2008096D01*
X17381009Y2008096D02*
X17428628Y1912858D01*
X17428628Y1912858D02*
X17428628Y1531906D01*
X16904819Y2436668D02*
X16904819Y3055715D01*
X16904819Y3055715D02*
X17285771Y2722382D01*
X17285771Y2722382D02*
X17285771Y2865239D01*
X17285771Y2865239D02*
X17333390Y2960477D01*
X17333390Y2960477D02*
X17381009Y3008096D01*
X17381009Y3008096D02*
X17476247Y3055715D01*
X17476247Y3055715D02*
X17714342Y3055715D01*
X17714342Y3055715D02*
X17809580Y3008096D01*
X17809580Y3008096D02*
X17857200Y2960477D01*
X17857200Y2960477D02*
X17904819Y2865239D01*
X17904819Y2865239D02*
X17904819Y2579525D01*
X17904819Y2579525D02*
X17857200Y2484287D01*
X17857200Y2484287D02*
X17809580Y2436668D01*
X21366666Y30485181D02*
X21366666Y29770896D01*
X21366666Y29770896D02*
X21319047Y29628039D01*
X21319047Y29628039D02*
X21223809Y29532800D01*
X21223809Y29532800D02*
X21080952Y29485181D01*
X21080952Y29485181D02*
X20985714Y29485181D01*
X21842857Y29485181D02*
X21842857Y30485181D01*
X21842857Y30485181D02*
X22223809Y30485181D01*
X22223809Y30485181D02*
X22319047Y30437562D01*
X22319047Y30437562D02*
X22366666Y30389943D01*
X22366666Y30389943D02*
X22414285Y30294705D01*
X22414285Y30294705D02*
X22414285Y30151848D01*
X22414285Y30151848D02*
X22366666Y30056610D01*
X22366666Y30056610D02*
X22319047Y30008991D01*
X22319047Y30008991D02*
X22223809Y29961372D01*
X22223809Y29961372D02*
X21842857Y29961372D01*
X23366666Y29485181D02*
X22795238Y29485181D01*
X23080952Y29485181D02*
X23080952Y30485181D01*
X23080952Y30485181D02*
X22985714Y30342324D01*
X22985714Y30342324D02*
X22890476Y30247086D01*
X22890476Y30247086D02*
X22795238Y30199467D01*
X8313333Y46425181D02*
X7980000Y46901372D01*
X7741905Y46425181D02*
X7741905Y47425181D01*
X7741905Y47425181D02*
X8122857Y47425181D01*
X8122857Y47425181D02*
X8218095Y47377562D01*
X8218095Y47377562D02*
X8265714Y47329943D01*
X8265714Y47329943D02*
X8313333Y47234705D01*
X8313333Y47234705D02*
X8313333Y47091848D01*
X8313333Y47091848D02*
X8265714Y46996610D01*
X8265714Y46996610D02*
X8218095Y46948991D01*
X8218095Y46948991D02*
X8122857Y46901372D01*
X8122857Y46901372D02*
X7741905Y46901372D01*
X9170476Y47425181D02*
X8980000Y47425181D01*
X8980000Y47425181D02*
X8884762Y47377562D01*
X8884762Y47377562D02*
X8837143Y47329943D01*
X8837143Y47329943D02*
X8741905Y47187086D01*
X8741905Y47187086D02*
X8694286Y46996610D01*
X8694286Y46996610D02*
X8694286Y46615658D01*
X8694286Y46615658D02*
X8741905Y46520420D01*
X8741905Y46520420D02*
X8789524Y46472800D01*
X8789524Y46472800D02*
X8884762Y46425181D01*
X8884762Y46425181D02*
X9075238Y46425181D01*
X9075238Y46425181D02*
X9170476Y46472800D01*
X9170476Y46472800D02*
X9218095Y46520420D01*
X9218095Y46520420D02*
X9265714Y46615658D01*
X9265714Y46615658D02*
X9265714Y46853753D01*
X9265714Y46853753D02*
X9218095Y46948991D01*
X9218095Y46948991D02*
X9170476Y46996610D01*
X9170476Y46996610D02*
X9075238Y47044229D01*
X9075238Y47044229D02*
X8884762Y47044229D01*
X8884762Y47044229D02*
X8789524Y46996610D01*
X8789524Y46996610D02*
X8741905Y46948991D01*
X8741905Y46948991D02*
X8694286Y46853753D01*
X10833333Y37830420D02*
X10785714Y37782800D01*
X10785714Y37782800D02*
X10642857Y37735181D01*
X10642857Y37735181D02*
X10547619Y37735181D01*
X10547619Y37735181D02*
X10404762Y37782800D01*
X10404762Y37782800D02*
X10309524Y37878039D01*
X10309524Y37878039D02*
X10261905Y37973277D01*
X10261905Y37973277D02*
X10214286Y38163753D01*
X10214286Y38163753D02*
X10214286Y38306610D01*
X10214286Y38306610D02*
X10261905Y38497086D01*
X10261905Y38497086D02*
X10309524Y38592324D01*
X10309524Y38592324D02*
X10404762Y38687562D01*
X10404762Y38687562D02*
X10547619Y38735181D01*
X10547619Y38735181D02*
X10642857Y38735181D01*
X10642857Y38735181D02*
X10785714Y38687562D01*
X10785714Y38687562D02*
X10833333Y38639943D01*
X11166667Y38735181D02*
X11785714Y38735181D01*
X11785714Y38735181D02*
X11452381Y38354229D01*
X11452381Y38354229D02*
X11595238Y38354229D01*
X11595238Y38354229D02*
X11690476Y38306610D01*
X11690476Y38306610D02*
X11738095Y38258991D01*
X11738095Y38258991D02*
X11785714Y38163753D01*
X11785714Y38163753D02*
X11785714Y37925658D01*
X11785714Y37925658D02*
X11738095Y37830420D01*
X11738095Y37830420D02*
X11690476Y37782800D01*
X11690476Y37782800D02*
X11595238Y37735181D01*
X11595238Y37735181D02*
X11309524Y37735181D01*
X11309524Y37735181D02*
X11214286Y37782800D01*
X11214286Y37782800D02*
X11166667Y37830420D01*
X19827142Y16530420D02*
X19779523Y16482800D01*
X19779523Y16482800D02*
X19636666Y16435181D01*
X19636666Y16435181D02*
X19541428Y16435181D01*
X19541428Y16435181D02*
X19398571Y16482800D01*
X19398571Y16482800D02*
X19303333Y16578039D01*
X19303333Y16578039D02*
X19255714Y16673277D01*
X19255714Y16673277D02*
X19208095Y16863753D01*
X19208095Y16863753D02*
X19208095Y17006610D01*
X19208095Y17006610D02*
X19255714Y17197086D01*
X19255714Y17197086D02*
X19303333Y17292324D01*
X19303333Y17292324D02*
X19398571Y17387562D01*
X19398571Y17387562D02*
X19541428Y17435181D01*
X19541428Y17435181D02*
X19636666Y17435181D01*
X19636666Y17435181D02*
X19779523Y17387562D01*
X19779523Y17387562D02*
X19827142Y17339943D01*
X20779523Y16435181D02*
X20208095Y16435181D01*
X20493809Y16435181D02*
X20493809Y17435181D01*
X20493809Y17435181D02*
X20398571Y17292324D01*
X20398571Y17292324D02*
X20303333Y17197086D01*
X20303333Y17197086D02*
X20208095Y17149467D01*
X21255714Y16435181D02*
X21446190Y16435181D01*
X21446190Y16435181D02*
X21541428Y16482800D01*
X21541428Y16482800D02*
X21589047Y16530420D01*
X21589047Y16530420D02*
X21684285Y16673277D01*
X21684285Y16673277D02*
X21731904Y16863753D01*
X21731904Y16863753D02*
X21731904Y17244705D01*
X21731904Y17244705D02*
X21684285Y17339943D01*
X21684285Y17339943D02*
X21636666Y17387562D01*
X21636666Y17387562D02*
X21541428Y17435181D01*
X21541428Y17435181D02*
X21350952Y17435181D01*
X21350952Y17435181D02*
X21255714Y17387562D01*
X21255714Y17387562D02*
X21208095Y17339943D01*
X21208095Y17339943D02*
X21160476Y17244705D01*
X21160476Y17244705D02*
X21160476Y17006610D01*
X21160476Y17006610D02*
X21208095Y16911372D01*
X21208095Y16911372D02*
X21255714Y16863753D01*
X21255714Y16863753D02*
X21350952Y16816134D01*
X21350952Y16816134D02*
X21541428Y16816134D01*
X21541428Y16816134D02*
X21636666Y16863753D01*
X21636666Y16863753D02*
X21684285Y16911372D01*
X21684285Y16911372D02*
X21731904Y17006610D01*
X6583333Y46445181D02*
X6250000Y46921372D01*
X6011905Y46445181D02*
X6011905Y47445181D01*
X6011905Y47445181D02*
X6392857Y47445181D01*
X6392857Y47445181D02*
X6488095Y47397562D01*
X6488095Y47397562D02*
X6535714Y47349943D01*
X6535714Y47349943D02*
X6583333Y47254705D01*
X6583333Y47254705D02*
X6583333Y47111848D01*
X6583333Y47111848D02*
X6535714Y47016610D01*
X6535714Y47016610D02*
X6488095Y46968991D01*
X6488095Y46968991D02*
X6392857Y46921372D01*
X6392857Y46921372D02*
X6011905Y46921372D01*
X7535714Y46445181D02*
X6964286Y46445181D01*
X7250000Y46445181D02*
X7250000Y47445181D01*
X7250000Y47445181D02*
X7154762Y47302324D01*
X7154762Y47302324D02*
X7059524Y47207086D01*
X7059524Y47207086D02*
X6964286Y47159467D01*
X19629580Y8487143D02*
X19677200Y8439524D01*
X19677200Y8439524D02*
X19724819Y8296667D01*
X19724819Y8296667D02*
X19724819Y8201429D01*
X19724819Y8201429D02*
X19677200Y8058572D01*
X19677200Y8058572D02*
X19581961Y7963334D01*
X19581961Y7963334D02*
X19486723Y7915715D01*
X19486723Y7915715D02*
X19296247Y7868096D01*
X19296247Y7868096D02*
X19153390Y7868096D01*
X19153390Y7868096D02*
X18962914Y7915715D01*
X18962914Y7915715D02*
X18867676Y7963334D01*
X18867676Y7963334D02*
X18772438Y8058572D01*
X18772438Y8058572D02*
X18724819Y8201429D01*
X18724819Y8201429D02*
X18724819Y8296667D01*
X18724819Y8296667D02*
X18772438Y8439524D01*
X18772438Y8439524D02*
X18820057Y8487143D01*
X19724819Y9439524D02*
X19724819Y8868096D01*
X19724819Y9153810D02*
X18724819Y9153810D01*
X18724819Y9153810D02*
X18867676Y9058572D01*
X18867676Y9058572D02*
X18962914Y8963334D01*
X18962914Y8963334D02*
X19010533Y8868096D01*
X18724819Y10058572D02*
X18724819Y10153810D01*
X18724819Y10153810D02*
X18772438Y10249048D01*
X18772438Y10249048D02*
X18820057Y10296667D01*
X18820057Y10296667D02*
X18915295Y10344286D01*
X18915295Y10344286D02*
X19105771Y10391905D01*
X19105771Y10391905D02*
X19343866Y10391905D01*
X19343866Y10391905D02*
X19534342Y10344286D01*
X19534342Y10344286D02*
X19629580Y10296667D01*
X19629580Y10296667D02*
X19677200Y10249048D01*
X19677200Y10249048D02*
X19724819Y10153810D01*
X19724819Y10153810D02*
X19724819Y10058572D01*
X19724819Y10058572D02*
X19677200Y9963334D01*
X19677200Y9963334D02*
X19629580Y9915715D01*
X19629580Y9915715D02*
X19534342Y9868096D01*
X19534342Y9868096D02*
X19343866Y9820477D01*
X19343866Y9820477D02*
X19105771Y9820477D01*
X19105771Y9820477D02*
X18915295Y9868096D01*
X18915295Y9868096D02*
X18820057Y9915715D01*
X18820057Y9915715D02*
X18772438Y9963334D01*
X18772438Y9963334D02*
X18724819Y10058572D01*
X10158095Y4925181D02*
X10158095Y4115658D01*
X10158095Y4115658D02*
X10205714Y4020420D01*
X10205714Y4020420D02*
X10253333Y3972800D01*
X10253333Y3972800D02*
X10348571Y3925181D01*
X10348571Y3925181D02*
X10539047Y3925181D01*
X10539047Y3925181D02*
X10634285Y3972800D01*
X10634285Y3972800D02*
X10681904Y4020420D01*
X10681904Y4020420D02*
X10729523Y4115658D01*
X10729523Y4115658D02*
X10729523Y4925181D01*
X11110476Y4925181D02*
X11729523Y4925181D01*
X11729523Y4925181D02*
X11396190Y4544229D01*
X11396190Y4544229D02*
X11539047Y4544229D01*
X11539047Y4544229D02*
X11634285Y4496610D01*
X11634285Y4496610D02*
X11681904Y4448991D01*
X11681904Y4448991D02*
X11729523Y4353753D01*
X11729523Y4353753D02*
X11729523Y4115658D01*
X11729523Y4115658D02*
X11681904Y4020420D01*
X11681904Y4020420D02*
X11634285Y3972800D01*
X11634285Y3972800D02*
X11539047Y3925181D01*
X11539047Y3925181D02*
X11253333Y3925181D01*
X11253333Y3925181D02*
X11158095Y3972800D01*
X11158095Y3972800D02*
X11110476Y4020420D01*
X8333333Y47635181D02*
X8000000Y48111372D01*
X7761905Y47635181D02*
X7761905Y48635181D01*
X7761905Y48635181D02*
X8142857Y48635181D01*
X8142857Y48635181D02*
X8238095Y48587562D01*
X8238095Y48587562D02*
X8285714Y48539943D01*
X8285714Y48539943D02*
X8333333Y48444705D01*
X8333333Y48444705D02*
X8333333Y48301848D01*
X8333333Y48301848D02*
X8285714Y48206610D01*
X8285714Y48206610D02*
X8238095Y48158991D01*
X8238095Y48158991D02*
X8142857Y48111372D01*
X8142857Y48111372D02*
X7761905Y48111372D01*
X9238095Y48635181D02*
X8761905Y48635181D01*
X8761905Y48635181D02*
X8714286Y48158991D01*
X8714286Y48158991D02*
X8761905Y48206610D01*
X8761905Y48206610D02*
X8857143Y48254229D01*
X8857143Y48254229D02*
X9095238Y48254229D01*
X9095238Y48254229D02*
X9190476Y48206610D01*
X9190476Y48206610D02*
X9238095Y48158991D01*
X9238095Y48158991D02*
X9285714Y48063753D01*
X9285714Y48063753D02*
X9285714Y47825658D01*
X9285714Y47825658D02*
X9238095Y47730420D01*
X9238095Y47730420D02*
X9190476Y47682800D01*
X9190476Y47682800D02*
X9095238Y47635181D01*
X9095238Y47635181D02*
X8857143Y47635181D01*
X8857143Y47635181D02*
X8761905Y47682800D01*
X8761905Y47682800D02*
X8714286Y47730420D01*
X6039580Y3137143D02*
X6087200Y3089524D01*
X6087200Y3089524D02*
X6134819Y2946667D01*
X6134819Y2946667D02*
X6134819Y2851429D01*
X6134819Y2851429D02*
X6087200Y2708572D01*
X6087200Y2708572D02*
X5991961Y2613334D01*
X5991961Y2613334D02*
X5896723Y2565715D01*
X5896723Y2565715D02*
X5706247Y2518096D01*
X5706247Y2518096D02*
X5563390Y2518096D01*
X5563390Y2518096D02*
X5372914Y2565715D01*
X5372914Y2565715D02*
X5277676Y2613334D01*
X5277676Y2613334D02*
X5182438Y2708572D01*
X5182438Y2708572D02*
X5134819Y2851429D01*
X5134819Y2851429D02*
X5134819Y2946667D01*
X5134819Y2946667D02*
X5182438Y3089524D01*
X5182438Y3089524D02*
X5230057Y3137143D01*
X6134819Y4089524D02*
X6134819Y3518096D01*
X6134819Y3803810D02*
X5134819Y3803810D01*
X5134819Y3803810D02*
X5277676Y3708572D01*
X5277676Y3708572D02*
X5372914Y3613334D01*
X5372914Y3613334D02*
X5420533Y3518096D01*
X5134819Y4422858D02*
X5134819Y5041905D01*
X5134819Y5041905D02*
X5515771Y4708572D01*
X5515771Y4708572D02*
X5515771Y4851429D01*
X5515771Y4851429D02*
X5563390Y4946667D01*
X5563390Y4946667D02*
X5611009Y4994286D01*
X5611009Y4994286D02*
X5706247Y5041905D01*
X5706247Y5041905D02*
X5944342Y5041905D01*
X5944342Y5041905D02*
X6039580Y4994286D01*
X6039580Y4994286D02*
X6087200Y4946667D01*
X6087200Y4946667D02*
X6134819Y4851429D01*
X6134819Y4851429D02*
X6134819Y4565715D01*
X6134819Y4565715D02*
X6087200Y4470477D01*
X6087200Y4470477D02*
X6039580Y4422858D01*
X6327142Y10140420D02*
X6279523Y10092800D01*
X6279523Y10092800D02*
X6136666Y10045181D01*
X6136666Y10045181D02*
X6041428Y10045181D01*
X6041428Y10045181D02*
X5898571Y10092800D01*
X5898571Y10092800D02*
X5803333Y10188039D01*
X5803333Y10188039D02*
X5755714Y10283277D01*
X5755714Y10283277D02*
X5708095Y10473753D01*
X5708095Y10473753D02*
X5708095Y10616610D01*
X5708095Y10616610D02*
X5755714Y10807086D01*
X5755714Y10807086D02*
X5803333Y10902324D01*
X5803333Y10902324D02*
X5898571Y10997562D01*
X5898571Y10997562D02*
X6041428Y11045181D01*
X6041428Y11045181D02*
X6136666Y11045181D01*
X6136666Y11045181D02*
X6279523Y10997562D01*
X6279523Y10997562D02*
X6327142Y10949943D01*
X7279523Y10045181D02*
X6708095Y10045181D01*
X6993809Y10045181D02*
X6993809Y11045181D01*
X6993809Y11045181D02*
X6898571Y10902324D01*
X6898571Y10902324D02*
X6803333Y10807086D01*
X6803333Y10807086D02*
X6708095Y10759467D01*
X8184285Y11045181D02*
X7708095Y11045181D01*
X7708095Y11045181D02*
X7660476Y10568991D01*
X7660476Y10568991D02*
X7708095Y10616610D01*
X7708095Y10616610D02*
X7803333Y10664229D01*
X7803333Y10664229D02*
X8041428Y10664229D01*
X8041428Y10664229D02*
X8136666Y10616610D01*
X8136666Y10616610D02*
X8184285Y10568991D01*
X8184285Y10568991D02*
X8231904Y10473753D01*
X8231904Y10473753D02*
X8231904Y10235658D01*
X8231904Y10235658D02*
X8184285Y10140420D01*
X8184285Y10140420D02*
X8136666Y10092800D01*
X8136666Y10092800D02*
X8041428Y10045181D01*
X8041428Y10045181D02*
X7803333Y10045181D01*
X7803333Y10045181D02*
X7708095Y10092800D01*
X7708095Y10092800D02*
X7660476Y10140420D01*
X3717142Y16470420D02*
X3669523Y16422800D01*
X3669523Y16422800D02*
X3526666Y16375181D01*
X3526666Y16375181D02*
X3431428Y16375181D01*
X3431428Y16375181D02*
X3288571Y16422800D01*
X3288571Y16422800D02*
X3193333Y16518039D01*
X3193333Y16518039D02*
X3145714Y16613277D01*
X3145714Y16613277D02*
X3098095Y16803753D01*
X3098095Y16803753D02*
X3098095Y16946610D01*
X3098095Y16946610D02*
X3145714Y17137086D01*
X3145714Y17137086D02*
X3193333Y17232324D01*
X3193333Y17232324D02*
X3288571Y17327562D01*
X3288571Y17327562D02*
X3431428Y17375181D01*
X3431428Y17375181D02*
X3526666Y17375181D01*
X3526666Y17375181D02*
X3669523Y17327562D01*
X3669523Y17327562D02*
X3717142Y17279943D01*
X4098095Y17279943D02*
X4145714Y17327562D01*
X4145714Y17327562D02*
X4240952Y17375181D01*
X4240952Y17375181D02*
X4479047Y17375181D01*
X4479047Y17375181D02*
X4574285Y17327562D01*
X4574285Y17327562D02*
X4621904Y17279943D01*
X4621904Y17279943D02*
X4669523Y17184705D01*
X4669523Y17184705D02*
X4669523Y17089467D01*
X4669523Y17089467D02*
X4621904Y16946610D01*
X4621904Y16946610D02*
X4050476Y16375181D01*
X4050476Y16375181D02*
X4669523Y16375181D01*
X5621904Y16375181D02*
X5050476Y16375181D01*
X5336190Y16375181D02*
X5336190Y17375181D01*
X5336190Y17375181D02*
X5240952Y17232324D01*
X5240952Y17232324D02*
X5145714Y17137086D01*
X5145714Y17137086D02*
X5050476Y17089467D01*
X13069580Y1363334D02*
X13117200Y1315715D01*
X13117200Y1315715D02*
X13164819Y1172858D01*
X13164819Y1172858D02*
X13164819Y1077620D01*
X13164819Y1077620D02*
X13117200Y934763D01*
X13117200Y934763D02*
X13021961Y839525D01*
X13021961Y839525D02*
X12926723Y791906D01*
X12926723Y791906D02*
X12736247Y744287D01*
X12736247Y744287D02*
X12593390Y744287D01*
X12593390Y744287D02*
X12402914Y791906D01*
X12402914Y791906D02*
X12307676Y839525D01*
X12307676Y839525D02*
X12212438Y934763D01*
X12212438Y934763D02*
X12164819Y1077620D01*
X12164819Y1077620D02*
X12164819Y1172858D01*
X12164819Y1172858D02*
X12212438Y1315715D01*
X12212438Y1315715D02*
X12260057Y1363334D01*
X12593390Y1934763D02*
X12545771Y1839525D01*
X12545771Y1839525D02*
X12498152Y1791906D01*
X12498152Y1791906D02*
X12402914Y1744287D01*
X12402914Y1744287D02*
X12355295Y1744287D01*
X12355295Y1744287D02*
X12260057Y1791906D01*
X12260057Y1791906D02*
X12212438Y1839525D01*
X12212438Y1839525D02*
X12164819Y1934763D01*
X12164819Y1934763D02*
X12164819Y2125239D01*
X12164819Y2125239D02*
X12212438Y2220477D01*
X12212438Y2220477D02*
X12260057Y2268096D01*
X12260057Y2268096D02*
X12355295Y2315715D01*
X12355295Y2315715D02*
X12402914Y2315715D01*
X12402914Y2315715D02*
X12498152Y2268096D01*
X12498152Y2268096D02*
X12545771Y2220477D01*
X12545771Y2220477D02*
X12593390Y2125239D01*
X12593390Y2125239D02*
X12593390Y1934763D01*
X12593390Y1934763D02*
X12641009Y1839525D01*
X12641009Y1839525D02*
X12688628Y1791906D01*
X12688628Y1791906D02*
X12783866Y1744287D01*
X12783866Y1744287D02*
X12974342Y1744287D01*
X12974342Y1744287D02*
X13069580Y1791906D01*
X13069580Y1791906D02*
X13117200Y1839525D01*
X13117200Y1839525D02*
X13164819Y1934763D01*
X13164819Y1934763D02*
X13164819Y2125239D01*
X13164819Y2125239D02*
X13117200Y2220477D01*
X13117200Y2220477D02*
X13069580Y2268096D01*
X13069580Y2268096D02*
X12974342Y2315715D01*
X12974342Y2315715D02*
X12783866Y2315715D01*
X12783866Y2315715D02*
X12688628Y2268096D01*
X12688628Y2268096D02*
X12641009Y2220477D01*
X12641009Y2220477D02*
X12593390Y2125239D01*
X8599580Y33673334D02*
X8647200Y33625715D01*
X8647200Y33625715D02*
X8694819Y33482858D01*
X8694819Y33482858D02*
X8694819Y33387620D01*
X8694819Y33387620D02*
X8647200Y33244763D01*
X8647200Y33244763D02*
X8551961Y33149525D01*
X8551961Y33149525D02*
X8456723Y33101906D01*
X8456723Y33101906D02*
X8266247Y33054287D01*
X8266247Y33054287D02*
X8123390Y33054287D01*
X8123390Y33054287D02*
X7932914Y33101906D01*
X7932914Y33101906D02*
X7837676Y33149525D01*
X7837676Y33149525D02*
X7742438Y33244763D01*
X7742438Y33244763D02*
X7694819Y33387620D01*
X7694819Y33387620D02*
X7694819Y33482858D01*
X7694819Y33482858D02*
X7742438Y33625715D01*
X7742438Y33625715D02*
X7790057Y33673334D01*
X8694819Y34625715D02*
X8694819Y34054287D01*
X8694819Y34340001D02*
X7694819Y34340001D01*
X7694819Y34340001D02*
X7837676Y34244763D01*
X7837676Y34244763D02*
X7932914Y34149525D01*
X7932914Y34149525D02*
X7980533Y34054287D01*
X11103333Y30690420D02*
X11055714Y30642800D01*
X11055714Y30642800D02*
X10912857Y30595181D01*
X10912857Y30595181D02*
X10817619Y30595181D01*
X10817619Y30595181D02*
X10674762Y30642800D01*
X10674762Y30642800D02*
X10579524Y30738039D01*
X10579524Y30738039D02*
X10531905Y30833277D01*
X10531905Y30833277D02*
X10484286Y31023753D01*
X10484286Y31023753D02*
X10484286Y31166610D01*
X10484286Y31166610D02*
X10531905Y31357086D01*
X10531905Y31357086D02*
X10579524Y31452324D01*
X10579524Y31452324D02*
X10674762Y31547562D01*
X10674762Y31547562D02*
X10817619Y31595181D01*
X10817619Y31595181D02*
X10912857Y31595181D01*
X10912857Y31595181D02*
X11055714Y31547562D01*
X11055714Y31547562D02*
X11103333Y31499943D01*
X12008095Y31595181D02*
X11531905Y31595181D01*
X11531905Y31595181D02*
X11484286Y31118991D01*
X11484286Y31118991D02*
X11531905Y31166610D01*
X11531905Y31166610D02*
X11627143Y31214229D01*
X11627143Y31214229D02*
X11865238Y31214229D01*
X11865238Y31214229D02*
X11960476Y31166610D01*
X11960476Y31166610D02*
X12008095Y31118991D01*
X12008095Y31118991D02*
X12055714Y31023753D01*
X12055714Y31023753D02*
X12055714Y30785658D01*
X12055714Y30785658D02*
X12008095Y30690420D01*
X12008095Y30690420D02*
X11960476Y30642800D01*
X11960476Y30642800D02*
X11865238Y30595181D01*
X11865238Y30595181D02*
X11627143Y30595181D01*
X11627143Y30595181D02*
X11531905Y30642800D01*
X11531905Y30642800D02*
X11484286Y30690420D01*
X19897142Y11410420D02*
X19849523Y11362800D01*
X19849523Y11362800D02*
X19706666Y11315181D01*
X19706666Y11315181D02*
X19611428Y11315181D01*
X19611428Y11315181D02*
X19468571Y11362800D01*
X19468571Y11362800D02*
X19373333Y11458039D01*
X19373333Y11458039D02*
X19325714Y11553277D01*
X19325714Y11553277D02*
X19278095Y11743753D01*
X19278095Y11743753D02*
X19278095Y11886610D01*
X19278095Y11886610D02*
X19325714Y12077086D01*
X19325714Y12077086D02*
X19373333Y12172324D01*
X19373333Y12172324D02*
X19468571Y12267562D01*
X19468571Y12267562D02*
X19611428Y12315181D01*
X19611428Y12315181D02*
X19706666Y12315181D01*
X19706666Y12315181D02*
X19849523Y12267562D01*
X19849523Y12267562D02*
X19897142Y12219943D01*
X20230476Y12315181D02*
X20849523Y12315181D01*
X20849523Y12315181D02*
X20516190Y11934229D01*
X20516190Y11934229D02*
X20659047Y11934229D01*
X20659047Y11934229D02*
X20754285Y11886610D01*
X20754285Y11886610D02*
X20801904Y11838991D01*
X20801904Y11838991D02*
X20849523Y11743753D01*
X20849523Y11743753D02*
X20849523Y11505658D01*
X20849523Y11505658D02*
X20801904Y11410420D01*
X20801904Y11410420D02*
X20754285Y11362800D01*
X20754285Y11362800D02*
X20659047Y11315181D01*
X20659047Y11315181D02*
X20373333Y11315181D01*
X20373333Y11315181D02*
X20278095Y11362800D01*
X20278095Y11362800D02*
X20230476Y11410420D01*
X21182857Y12315181D02*
X21801904Y12315181D01*
X21801904Y12315181D02*
X21468571Y11934229D01*
X21468571Y11934229D02*
X21611428Y11934229D01*
X21611428Y11934229D02*
X21706666Y11886610D01*
X21706666Y11886610D02*
X21754285Y11838991D01*
X21754285Y11838991D02*
X21801904Y11743753D01*
X21801904Y11743753D02*
X21801904Y11505658D01*
X21801904Y11505658D02*
X21754285Y11410420D01*
X21754285Y11410420D02*
X21706666Y11362800D01*
X21706666Y11362800D02*
X21611428Y11315181D01*
X21611428Y11315181D02*
X21325714Y11315181D01*
X21325714Y11315181D02*
X21230476Y11362800D01*
X21230476Y11362800D02*
X21182857Y11410420D01*
X1549580Y5227143D02*
X1597200Y5179524D01*
X1597200Y5179524D02*
X1644819Y5036667D01*
X1644819Y5036667D02*
X1644819Y4941429D01*
X1644819Y4941429D02*
X1597200Y4798572D01*
X1597200Y4798572D02*
X1501961Y4703334D01*
X1501961Y4703334D02*
X1406723Y4655715D01*
X1406723Y4655715D02*
X1216247Y4608096D01*
X1216247Y4608096D02*
X1073390Y4608096D01*
X1073390Y4608096D02*
X882914Y4655715D01*
X882914Y4655715D02*
X787676Y4703334D01*
X787676Y4703334D02*
X692438Y4798572D01*
X692438Y4798572D02*
X644819Y4941429D01*
X644819Y4941429D02*
X644819Y5036667D01*
X644819Y5036667D02*
X692438Y5179524D01*
X692438Y5179524D02*
X740057Y5227143D01*
X1644819Y6179524D02*
X1644819Y5608096D01*
X1644819Y5893810D02*
X644819Y5893810D01*
X644819Y5893810D02*
X787676Y5798572D01*
X787676Y5798572D02*
X882914Y5703334D01*
X882914Y5703334D02*
X930533Y5608096D01*
X978152Y7036667D02*
X1644819Y7036667D01*
X597200Y6798572D02*
X1311485Y6560477D01*
X1311485Y6560477D02*
X1311485Y7179524D01*
X26977142Y30270420D02*
X26929523Y30222800D01*
X26929523Y30222800D02*
X26786666Y30175181D01*
X26786666Y30175181D02*
X26691428Y30175181D01*
X26691428Y30175181D02*
X26548571Y30222800D01*
X26548571Y30222800D02*
X26453333Y30318039D01*
X26453333Y30318039D02*
X26405714Y30413277D01*
X26405714Y30413277D02*
X26358095Y30603753D01*
X26358095Y30603753D02*
X26358095Y30746610D01*
X26358095Y30746610D02*
X26405714Y30937086D01*
X26405714Y30937086D02*
X26453333Y31032324D01*
X26453333Y31032324D02*
X26548571Y31127562D01*
X26548571Y31127562D02*
X26691428Y31175181D01*
X26691428Y31175181D02*
X26786666Y31175181D01*
X26786666Y31175181D02*
X26929523Y31127562D01*
X26929523Y31127562D02*
X26977142Y31079943D01*
X27929523Y30175181D02*
X27358095Y30175181D01*
X27643809Y30175181D02*
X27643809Y31175181D01*
X27643809Y31175181D02*
X27548571Y31032324D01*
X27548571Y31032324D02*
X27453333Y30937086D01*
X27453333Y30937086D02*
X27358095Y30889467D01*
X28786666Y31175181D02*
X28596190Y31175181D01*
X28596190Y31175181D02*
X28500952Y31127562D01*
X28500952Y31127562D02*
X28453333Y31079943D01*
X28453333Y31079943D02*
X28358095Y30937086D01*
X28358095Y30937086D02*
X28310476Y30746610D01*
X28310476Y30746610D02*
X28310476Y30365658D01*
X28310476Y30365658D02*
X28358095Y30270420D01*
X28358095Y30270420D02*
X28405714Y30222800D01*
X28405714Y30222800D02*
X28500952Y30175181D01*
X28500952Y30175181D02*
X28691428Y30175181D01*
X28691428Y30175181D02*
X28786666Y30222800D01*
X28786666Y30222800D02*
X28834285Y30270420D01*
X28834285Y30270420D02*
X28881904Y30365658D01*
X28881904Y30365658D02*
X28881904Y30603753D01*
X28881904Y30603753D02*
X28834285Y30698991D01*
X28834285Y30698991D02*
X28786666Y30746610D01*
X28786666Y30746610D02*
X28691428Y30794229D01*
X28691428Y30794229D02*
X28500952Y30794229D01*
X28500952Y30794229D02*
X28405714Y30746610D01*
X28405714Y30746610D02*
X28358095Y30698991D01*
X28358095Y30698991D02*
X28310476Y30603753D01*
X20362167Y25720420D02*
X20314548Y25672800D01*
X20314548Y25672800D02*
X20171691Y25625181D01*
X20171691Y25625181D02*
X20076453Y25625181D01*
X20076453Y25625181D02*
X19933596Y25672800D01*
X19933596Y25672800D02*
X19838358Y25768039D01*
X19838358Y25768039D02*
X19790739Y25863277D01*
X19790739Y25863277D02*
X19743120Y26053753D01*
X19743120Y26053753D02*
X19743120Y26196610D01*
X19743120Y26196610D02*
X19790739Y26387086D01*
X19790739Y26387086D02*
X19838358Y26482324D01*
X19838358Y26482324D02*
X19933596Y26577562D01*
X19933596Y26577562D02*
X20076453Y26625181D01*
X20076453Y26625181D02*
X20171691Y26625181D01*
X20171691Y26625181D02*
X20314548Y26577562D01*
X20314548Y26577562D02*
X20362167Y26529943D01*
X21314548Y25625181D02*
X20743120Y25625181D01*
X21028834Y25625181D02*
X21028834Y26625181D01*
X21028834Y26625181D02*
X20933596Y26482324D01*
X20933596Y26482324D02*
X20838358Y26387086D01*
X20838358Y26387086D02*
X20743120Y26339467D01*
X21885977Y26196610D02*
X21790739Y26244229D01*
X21790739Y26244229D02*
X21743120Y26291848D01*
X21743120Y26291848D02*
X21695501Y26387086D01*
X21695501Y26387086D02*
X21695501Y26434705D01*
X21695501Y26434705D02*
X21743120Y26529943D01*
X21743120Y26529943D02*
X21790739Y26577562D01*
X21790739Y26577562D02*
X21885977Y26625181D01*
X21885977Y26625181D02*
X22076453Y26625181D01*
X22076453Y26625181D02*
X22171691Y26577562D01*
X22171691Y26577562D02*
X22219310Y26529943D01*
X22219310Y26529943D02*
X22266929Y26434705D01*
X22266929Y26434705D02*
X22266929Y26387086D01*
X22266929Y26387086D02*
X22219310Y26291848D01*
X22219310Y26291848D02*
X22171691Y26244229D01*
X22171691Y26244229D02*
X22076453Y26196610D01*
X22076453Y26196610D02*
X21885977Y26196610D01*
X21885977Y26196610D02*
X21790739Y26148991D01*
X21790739Y26148991D02*
X21743120Y26101372D01*
X21743120Y26101372D02*
X21695501Y26006134D01*
X21695501Y26006134D02*
X21695501Y25815658D01*
X21695501Y25815658D02*
X21743120Y25720420D01*
X21743120Y25720420D02*
X21790739Y25672800D01*
X21790739Y25672800D02*
X21885977Y25625181D01*
X21885977Y25625181D02*
X22076453Y25625181D01*
X22076453Y25625181D02*
X22171691Y25672800D01*
X22171691Y25672800D02*
X22219310Y25720420D01*
X22219310Y25720420D02*
X22266929Y25815658D01*
X22266929Y25815658D02*
X22266929Y26006134D01*
X22266929Y26006134D02*
X22219310Y26101372D01*
X22219310Y26101372D02*
X22171691Y26148991D01*
X22171691Y26148991D02*
X22076453Y26196610D01*
X26237142Y12640420D02*
X26189523Y12592800D01*
X26189523Y12592800D02*
X26046666Y12545181D01*
X26046666Y12545181D02*
X25951428Y12545181D01*
X25951428Y12545181D02*
X25808571Y12592800D01*
X25808571Y12592800D02*
X25713333Y12688039D01*
X25713333Y12688039D02*
X25665714Y12783277D01*
X25665714Y12783277D02*
X25618095Y12973753D01*
X25618095Y12973753D02*
X25618095Y13116610D01*
X25618095Y13116610D02*
X25665714Y13307086D01*
X25665714Y13307086D02*
X25713333Y13402324D01*
X25713333Y13402324D02*
X25808571Y13497562D01*
X25808571Y13497562D02*
X25951428Y13545181D01*
X25951428Y13545181D02*
X26046666Y13545181D01*
X26046666Y13545181D02*
X26189523Y13497562D01*
X26189523Y13497562D02*
X26237142Y13449943D01*
X26570476Y13545181D02*
X27189523Y13545181D01*
X27189523Y13545181D02*
X26856190Y13164229D01*
X26856190Y13164229D02*
X26999047Y13164229D01*
X26999047Y13164229D02*
X27094285Y13116610D01*
X27094285Y13116610D02*
X27141904Y13068991D01*
X27141904Y13068991D02*
X27189523Y12973753D01*
X27189523Y12973753D02*
X27189523Y12735658D01*
X27189523Y12735658D02*
X27141904Y12640420D01*
X27141904Y12640420D02*
X27094285Y12592800D01*
X27094285Y12592800D02*
X26999047Y12545181D01*
X26999047Y12545181D02*
X26713333Y12545181D01*
X26713333Y12545181D02*
X26618095Y12592800D01*
X26618095Y12592800D02*
X26570476Y12640420D01*
X28046666Y13211848D02*
X28046666Y12545181D01*
X27808571Y13592800D02*
X27570476Y12878515D01*
X27570476Y12878515D02*
X28189523Y12878515D01*
X5718094Y28831724D02*
X5718094Y29471724D01*
X5718094Y29471724D02*
X5931428Y29014581D01*
X5931428Y29014581D02*
X6144761Y29471724D01*
X6144761Y29471724D02*
X6144761Y28831724D01*
X6358095Y29471724D02*
X6723809Y29471724D01*
X6540952Y28831724D02*
X6540952Y29471724D01*
X7272381Y28831724D02*
X6906666Y28831724D01*
X7089523Y28831724D02*
X7089523Y29471724D01*
X7089523Y29471724D02*
X7028571Y29380296D01*
X7028571Y29380296D02*
X6967619Y29319343D01*
X6967619Y29319343D02*
X6906666Y29288867D01*
X28184819Y26358096D02*
X28994342Y26358096D01*
X28994342Y26358096D02*
X29089580Y26405715D01*
X29089580Y26405715D02*
X29137200Y26453334D01*
X29137200Y26453334D02*
X29184819Y26548572D01*
X29184819Y26548572D02*
X29184819Y26739048D01*
X29184819Y26739048D02*
X29137200Y26834286D01*
X29137200Y26834286D02*
X29089580Y26881905D01*
X29089580Y26881905D02*
X28994342Y26929524D01*
X28994342Y26929524D02*
X28184819Y26929524D01*
X28613390Y27548572D02*
X28565771Y27453334D01*
X28565771Y27453334D02*
X28518152Y27405715D01*
X28518152Y27405715D02*
X28422914Y27358096D01*
X28422914Y27358096D02*
X28375295Y27358096D01*
X28375295Y27358096D02*
X28280057Y27405715D01*
X28280057Y27405715D02*
X28232438Y27453334D01*
X28232438Y27453334D02*
X28184819Y27548572D01*
X28184819Y27548572D02*
X28184819Y27739048D01*
X28184819Y27739048D02*
X28232438Y27834286D01*
X28232438Y27834286D02*
X28280057Y27881905D01*
X28280057Y27881905D02*
X28375295Y27929524D01*
X28375295Y27929524D02*
X28422914Y27929524D01*
X28422914Y27929524D02*
X28518152Y27881905D01*
X28518152Y27881905D02*
X28565771Y27834286D01*
X28565771Y27834286D02*
X28613390Y27739048D01*
X28613390Y27739048D02*
X28613390Y27548572D01*
X28613390Y27548572D02*
X28661009Y27453334D01*
X28661009Y27453334D02*
X28708628Y27405715D01*
X28708628Y27405715D02*
X28803866Y27358096D01*
X28803866Y27358096D02*
X28994342Y27358096D01*
X28994342Y27358096D02*
X29089580Y27405715D01*
X29089580Y27405715D02*
X29137200Y27453334D01*
X29137200Y27453334D02*
X29184819Y27548572D01*
X29184819Y27548572D02*
X29184819Y27739048D01*
X29184819Y27739048D02*
X29137200Y27834286D01*
X29137200Y27834286D02*
X29089580Y27881905D01*
X29089580Y27881905D02*
X28994342Y27929524D01*
X28994342Y27929524D02*
X28803866Y27929524D01*
X28803866Y27929524D02*
X28708628Y27881905D01*
X28708628Y27881905D02*
X28661009Y27834286D01*
X28661009Y27834286D02*
X28613390Y27739048D01*
X6613333Y5745181D02*
X6137143Y5745181D01*
X6137143Y5745181D02*
X6137143Y6745181D01*
X7470476Y5745181D02*
X6899048Y5745181D01*
X7184762Y5745181D02*
X7184762Y6745181D01*
X7184762Y6745181D02*
X7089524Y6602324D01*
X7089524Y6602324D02*
X6994286Y6507086D01*
X6994286Y6507086D02*
X6899048Y6459467D01*
X9799580Y53757143D02*
X9847200Y53709524D01*
X9847200Y53709524D02*
X9894819Y53566667D01*
X9894819Y53566667D02*
X9894819Y53471429D01*
X9894819Y53471429D02*
X9847200Y53328572D01*
X9847200Y53328572D02*
X9751961Y53233334D01*
X9751961Y53233334D02*
X9656723Y53185715D01*
X9656723Y53185715D02*
X9466247Y53138096D01*
X9466247Y53138096D02*
X9323390Y53138096D01*
X9323390Y53138096D02*
X9132914Y53185715D01*
X9132914Y53185715D02*
X9037676Y53233334D01*
X9037676Y53233334D02*
X8942438Y53328572D01*
X8942438Y53328572D02*
X8894819Y53471429D01*
X8894819Y53471429D02*
X8894819Y53566667D01*
X8894819Y53566667D02*
X8942438Y53709524D01*
X8942438Y53709524D02*
X8990057Y53757143D01*
X8894819Y54090477D02*
X8894819Y54709524D01*
X8894819Y54709524D02*
X9275771Y54376191D01*
X9275771Y54376191D02*
X9275771Y54519048D01*
X9275771Y54519048D02*
X9323390Y54614286D01*
X9323390Y54614286D02*
X9371009Y54661905D01*
X9371009Y54661905D02*
X9466247Y54709524D01*
X9466247Y54709524D02*
X9704342Y54709524D01*
X9704342Y54709524D02*
X9799580Y54661905D01*
X9799580Y54661905D02*
X9847200Y54614286D01*
X9847200Y54614286D02*
X9894819Y54519048D01*
X9894819Y54519048D02*
X9894819Y54233334D01*
X9894819Y54233334D02*
X9847200Y54138096D01*
X9847200Y54138096D02*
X9799580Y54090477D01*
X8894819Y55042858D02*
X8894819Y55709524D01*
X8894819Y55709524D02*
X9894819Y55280953D01*
X5814819Y7648096D02*
X6624342Y7648096D01*
X6624342Y7648096D02*
X6719580Y7695715D01*
X6719580Y7695715D02*
X6767200Y7743334D01*
X6767200Y7743334D02*
X6814819Y7838572D01*
X6814819Y7838572D02*
X6814819Y8029048D01*
X6814819Y8029048D02*
X6767200Y8124286D01*
X6767200Y8124286D02*
X6719580Y8171905D01*
X6719580Y8171905D02*
X6624342Y8219524D01*
X6624342Y8219524D02*
X5814819Y8219524D01*
X6148152Y9124286D02*
X6814819Y9124286D01*
X5767200Y8886191D02*
X6481485Y8648096D01*
X6481485Y8648096D02*
X6481485Y9267143D01*
X4587200Y56806668D02*
X4634819Y56949525D01*
X4634819Y56949525D02*
X4634819Y57187620D01*
X4634819Y57187620D02*
X4587200Y57282858D01*
X4587200Y57282858D02*
X4539580Y57330477D01*
X4539580Y57330477D02*
X4444342Y57378096D01*
X4444342Y57378096D02*
X4349104Y57378096D01*
X4349104Y57378096D02*
X4253866Y57330477D01*
X4253866Y57330477D02*
X4206247Y57282858D01*
X4206247Y57282858D02*
X4158628Y57187620D01*
X4158628Y57187620D02*
X4111009Y56997144D01*
X4111009Y56997144D02*
X4063390Y56901906D01*
X4063390Y56901906D02*
X4015771Y56854287D01*
X4015771Y56854287D02*
X3920533Y56806668D01*
X3920533Y56806668D02*
X3825295Y56806668D01*
X3825295Y56806668D02*
X3730057Y56854287D01*
X3730057Y56854287D02*
X3682438Y56901906D01*
X3682438Y56901906D02*
X3634819Y56997144D01*
X3634819Y56997144D02*
X3634819Y57235239D01*
X3634819Y57235239D02*
X3682438Y57378096D01*
X3634819Y57711430D02*
X4634819Y57949525D01*
X4634819Y57949525D02*
X3920533Y58140001D01*
X3920533Y58140001D02*
X4634819Y58330477D01*
X4634819Y58330477D02*
X3634819Y58568572D01*
X4634819Y59473334D02*
X4634819Y58901906D01*
X4634819Y59187620D02*
X3634819Y59187620D01*
X3634819Y59187620D02*
X3777676Y59092382D01*
X3777676Y59092382D02*
X3872914Y58997144D01*
X3872914Y58997144D02*
X3920533Y58901906D01*
X8457142Y8730420D02*
X8409523Y8682800D01*
X8409523Y8682800D02*
X8266666Y8635181D01*
X8266666Y8635181D02*
X8171428Y8635181D01*
X8171428Y8635181D02*
X8028571Y8682800D01*
X8028571Y8682800D02*
X7933333Y8778039D01*
X7933333Y8778039D02*
X7885714Y8873277D01*
X7885714Y8873277D02*
X7838095Y9063753D01*
X7838095Y9063753D02*
X7838095Y9206610D01*
X7838095Y9206610D02*
X7885714Y9397086D01*
X7885714Y9397086D02*
X7933333Y9492324D01*
X7933333Y9492324D02*
X8028571Y9587562D01*
X8028571Y9587562D02*
X8171428Y9635181D01*
X8171428Y9635181D02*
X8266666Y9635181D01*
X8266666Y9635181D02*
X8409523Y9587562D01*
X8409523Y9587562D02*
X8457142Y9539943D01*
X9409523Y8635181D02*
X8838095Y8635181D01*
X9123809Y8635181D02*
X9123809Y9635181D01*
X9123809Y9635181D02*
X9028571Y9492324D01*
X9028571Y9492324D02*
X8933333Y9397086D01*
X8933333Y9397086D02*
X8838095Y9349467D01*
X9790476Y9539943D02*
X9838095Y9587562D01*
X9838095Y9587562D02*
X9933333Y9635181D01*
X9933333Y9635181D02*
X10171428Y9635181D01*
X10171428Y9635181D02*
X10266666Y9587562D01*
X10266666Y9587562D02*
X10314285Y9539943D01*
X10314285Y9539943D02*
X10361904Y9444705D01*
X10361904Y9444705D02*
X10361904Y9349467D01*
X10361904Y9349467D02*
X10314285Y9206610D01*
X10314285Y9206610D02*
X9742857Y8635181D01*
X9742857Y8635181D02*
X10361904Y8635181D01*
X12626666Y14145181D02*
X12626666Y13430896D01*
X12626666Y13430896D02*
X12579047Y13288039D01*
X12579047Y13288039D02*
X12483809Y13192800D01*
X12483809Y13192800D02*
X12340952Y13145181D01*
X12340952Y13145181D02*
X12245714Y13145181D01*
X13102857Y13145181D02*
X13102857Y14145181D01*
X13102857Y14145181D02*
X13483809Y14145181D01*
X13483809Y14145181D02*
X13579047Y14097562D01*
X13579047Y14097562D02*
X13626666Y14049943D01*
X13626666Y14049943D02*
X13674285Y13954705D01*
X13674285Y13954705D02*
X13674285Y13811848D01*
X13674285Y13811848D02*
X13626666Y13716610D01*
X13626666Y13716610D02*
X13579047Y13668991D01*
X13579047Y13668991D02*
X13483809Y13621372D01*
X13483809Y13621372D02*
X13102857Y13621372D01*
X14055238Y14049943D02*
X14102857Y14097562D01*
X14102857Y14097562D02*
X14198095Y14145181D01*
X14198095Y14145181D02*
X14436190Y14145181D01*
X14436190Y14145181D02*
X14531428Y14097562D01*
X14531428Y14097562D02*
X14579047Y14049943D01*
X14579047Y14049943D02*
X14626666Y13954705D01*
X14626666Y13954705D02*
X14626666Y13859467D01*
X14626666Y13859467D02*
X14579047Y13716610D01*
X14579047Y13716610D02*
X14007619Y13145181D01*
X14007619Y13145181D02*
X14626666Y13145181D01*
X10317142Y36330420D02*
X10269523Y36282800D01*
X10269523Y36282800D02*
X10126666Y36235181D01*
X10126666Y36235181D02*
X10031428Y36235181D01*
X10031428Y36235181D02*
X9888571Y36282800D01*
X9888571Y36282800D02*
X9793333Y36378039D01*
X9793333Y36378039D02*
X9745714Y36473277D01*
X9745714Y36473277D02*
X9698095Y36663753D01*
X9698095Y36663753D02*
X9698095Y36806610D01*
X9698095Y36806610D02*
X9745714Y36997086D01*
X9745714Y36997086D02*
X9793333Y37092324D01*
X9793333Y37092324D02*
X9888571Y37187562D01*
X9888571Y37187562D02*
X10031428Y37235181D01*
X10031428Y37235181D02*
X10126666Y37235181D01*
X10126666Y37235181D02*
X10269523Y37187562D01*
X10269523Y37187562D02*
X10317142Y37139943D01*
X10650476Y37235181D02*
X11269523Y37235181D01*
X11269523Y37235181D02*
X10936190Y36854229D01*
X10936190Y36854229D02*
X11079047Y36854229D01*
X11079047Y36854229D02*
X11174285Y36806610D01*
X11174285Y36806610D02*
X11221904Y36758991D01*
X11221904Y36758991D02*
X11269523Y36663753D01*
X11269523Y36663753D02*
X11269523Y36425658D01*
X11269523Y36425658D02*
X11221904Y36330420D01*
X11221904Y36330420D02*
X11174285Y36282800D01*
X11174285Y36282800D02*
X11079047Y36235181D01*
X11079047Y36235181D02*
X10793333Y36235181D01*
X10793333Y36235181D02*
X10698095Y36282800D01*
X10698095Y36282800D02*
X10650476Y36330420D01*
X11650476Y37139943D02*
X11698095Y37187562D01*
X11698095Y37187562D02*
X11793333Y37235181D01*
X11793333Y37235181D02*
X12031428Y37235181D01*
X12031428Y37235181D02*
X12126666Y37187562D01*
X12126666Y37187562D02*
X12174285Y37139943D01*
X12174285Y37139943D02*
X12221904Y37044705D01*
X12221904Y37044705D02*
X12221904Y36949467D01*
X12221904Y36949467D02*
X12174285Y36806610D01*
X12174285Y36806610D02*
X11602857Y36235181D01*
X11602857Y36235181D02*
X12221904Y36235181D01*
X19875890Y17940420D02*
X19828271Y17892800D01*
X19828271Y17892800D02*
X19685414Y17845181D01*
X19685414Y17845181D02*
X19590176Y17845181D01*
X19590176Y17845181D02*
X19447319Y17892800D01*
X19447319Y17892800D02*
X19352081Y17988039D01*
X19352081Y17988039D02*
X19304462Y18083277D01*
X19304462Y18083277D02*
X19256843Y18273753D01*
X19256843Y18273753D02*
X19256843Y18416610D01*
X19256843Y18416610D02*
X19304462Y18607086D01*
X19304462Y18607086D02*
X19352081Y18702324D01*
X19352081Y18702324D02*
X19447319Y18797562D01*
X19447319Y18797562D02*
X19590176Y18845181D01*
X19590176Y18845181D02*
X19685414Y18845181D01*
X19685414Y18845181D02*
X19828271Y18797562D01*
X19828271Y18797562D02*
X19875890Y18749943D01*
X20209224Y18845181D02*
X20828271Y18845181D01*
X20828271Y18845181D02*
X20494938Y18464229D01*
X20494938Y18464229D02*
X20637795Y18464229D01*
X20637795Y18464229D02*
X20733033Y18416610D01*
X20733033Y18416610D02*
X20780652Y18368991D01*
X20780652Y18368991D02*
X20828271Y18273753D01*
X20828271Y18273753D02*
X20828271Y18035658D01*
X20828271Y18035658D02*
X20780652Y17940420D01*
X20780652Y17940420D02*
X20733033Y17892800D01*
X20733033Y17892800D02*
X20637795Y17845181D01*
X20637795Y17845181D02*
X20352081Y17845181D01*
X20352081Y17845181D02*
X20256843Y17892800D01*
X20256843Y17892800D02*
X20209224Y17940420D01*
X21733033Y18845181D02*
X21256843Y18845181D01*
X21256843Y18845181D02*
X21209224Y18368991D01*
X21209224Y18368991D02*
X21256843Y18416610D01*
X21256843Y18416610D02*
X21352081Y18464229D01*
X21352081Y18464229D02*
X21590176Y18464229D01*
X21590176Y18464229D02*
X21685414Y18416610D01*
X21685414Y18416610D02*
X21733033Y18368991D01*
X21733033Y18368991D02*
X21780652Y18273753D01*
X21780652Y18273753D02*
X21780652Y18035658D01*
X21780652Y18035658D02*
X21733033Y17940420D01*
X21733033Y17940420D02*
X21685414Y17892800D01*
X21685414Y17892800D02*
X21590176Y17845181D01*
X21590176Y17845181D02*
X21352081Y17845181D01*
X21352081Y17845181D02*
X21256843Y17892800D01*
X21256843Y17892800D02*
X21209224Y17940420D01*
X3127142Y770420D02*
X3079523Y722800D01*
X3079523Y722800D02*
X2936666Y675181D01*
X2936666Y675181D02*
X2841428Y675181D01*
X2841428Y675181D02*
X2698571Y722800D01*
X2698571Y722800D02*
X2603333Y818039D01*
X2603333Y818039D02*
X2555714Y913277D01*
X2555714Y913277D02*
X2508095Y1103753D01*
X2508095Y1103753D02*
X2508095Y1246610D01*
X2508095Y1246610D02*
X2555714Y1437086D01*
X2555714Y1437086D02*
X2603333Y1532324D01*
X2603333Y1532324D02*
X2698571Y1627562D01*
X2698571Y1627562D02*
X2841428Y1675181D01*
X2841428Y1675181D02*
X2936666Y1675181D01*
X2936666Y1675181D02*
X3079523Y1627562D01*
X3079523Y1627562D02*
X3127142Y1579943D01*
X4079523Y675181D02*
X3508095Y675181D01*
X3793809Y675181D02*
X3793809Y1675181D01*
X3793809Y1675181D02*
X3698571Y1532324D01*
X3698571Y1532324D02*
X3603333Y1437086D01*
X3603333Y1437086D02*
X3508095Y1389467D01*
X5031904Y675181D02*
X4460476Y675181D01*
X4746190Y675181D02*
X4746190Y1675181D01*
X4746190Y1675181D02*
X4650952Y1532324D01*
X4650952Y1532324D02*
X4555714Y1437086D01*
X4555714Y1437086D02*
X4460476Y1389467D01*
X6233333Y34930420D02*
X6185714Y34882800D01*
X6185714Y34882800D02*
X6042857Y34835181D01*
X6042857Y34835181D02*
X5947619Y34835181D01*
X5947619Y34835181D02*
X5804762Y34882800D01*
X5804762Y34882800D02*
X5709524Y34978039D01*
X5709524Y34978039D02*
X5661905Y35073277D01*
X5661905Y35073277D02*
X5614286Y35263753D01*
X5614286Y35263753D02*
X5614286Y35406610D01*
X5614286Y35406610D02*
X5661905Y35597086D01*
X5661905Y35597086D02*
X5709524Y35692324D01*
X5709524Y35692324D02*
X5804762Y35787562D01*
X5804762Y35787562D02*
X5947619Y35835181D01*
X5947619Y35835181D02*
X6042857Y35835181D01*
X6042857Y35835181D02*
X6185714Y35787562D01*
X6185714Y35787562D02*
X6233333Y35739943D01*
X6614286Y35739943D02*
X6661905Y35787562D01*
X6661905Y35787562D02*
X6757143Y35835181D01*
X6757143Y35835181D02*
X6995238Y35835181D01*
X6995238Y35835181D02*
X7090476Y35787562D01*
X7090476Y35787562D02*
X7138095Y35739943D01*
X7138095Y35739943D02*
X7185714Y35644705D01*
X7185714Y35644705D02*
X7185714Y35549467D01*
X7185714Y35549467D02*
X7138095Y35406610D01*
X7138095Y35406610D02*
X6566667Y34835181D01*
X6566667Y34835181D02*
X7185714Y34835181D01*
X5946666Y12995181D02*
X5946666Y12280896D01*
X5946666Y12280896D02*
X5899047Y12138039D01*
X5899047Y12138039D02*
X5803809Y12042800D01*
X5803809Y12042800D02*
X5660952Y11995181D01*
X5660952Y11995181D02*
X5565714Y11995181D01*
X6327619Y12995181D02*
X6946666Y12995181D01*
X6946666Y12995181D02*
X6613333Y12614229D01*
X6613333Y12614229D02*
X6756190Y12614229D01*
X6756190Y12614229D02*
X6851428Y12566610D01*
X6851428Y12566610D02*
X6899047Y12518991D01*
X6899047Y12518991D02*
X6946666Y12423753D01*
X6946666Y12423753D02*
X6946666Y12185658D01*
X6946666Y12185658D02*
X6899047Y12090420D01*
X6899047Y12090420D02*
X6851428Y12042800D01*
X6851428Y12042800D02*
X6756190Y11995181D01*
X6756190Y11995181D02*
X6470476Y11995181D01*
X6470476Y11995181D02*
X6375238Y12042800D01*
X6375238Y12042800D02*
X6327619Y12090420D01*
X6639580Y15247143D02*
X6687200Y15199524D01*
X6687200Y15199524D02*
X6734819Y15056667D01*
X6734819Y15056667D02*
X6734819Y14961429D01*
X6734819Y14961429D02*
X6687200Y14818572D01*
X6687200Y14818572D02*
X6591961Y14723334D01*
X6591961Y14723334D02*
X6496723Y14675715D01*
X6496723Y14675715D02*
X6306247Y14628096D01*
X6306247Y14628096D02*
X6163390Y14628096D01*
X6163390Y14628096D02*
X5972914Y14675715D01*
X5972914Y14675715D02*
X5877676Y14723334D01*
X5877676Y14723334D02*
X5782438Y14818572D01*
X5782438Y14818572D02*
X5734819Y14961429D01*
X5734819Y14961429D02*
X5734819Y15056667D01*
X5734819Y15056667D02*
X5782438Y15199524D01*
X5782438Y15199524D02*
X5830057Y15247143D01*
X5830057Y15628096D02*
X5782438Y15675715D01*
X5782438Y15675715D02*
X5734819Y15770953D01*
X5734819Y15770953D02*
X5734819Y16009048D01*
X5734819Y16009048D02*
X5782438Y16104286D01*
X5782438Y16104286D02*
X5830057Y16151905D01*
X5830057Y16151905D02*
X5925295Y16199524D01*
X5925295Y16199524D02*
X6020533Y16199524D01*
X6020533Y16199524D02*
X6163390Y16151905D01*
X6163390Y16151905D02*
X6734819Y15580477D01*
X6734819Y15580477D02*
X6734819Y16199524D01*
X5830057Y16580477D02*
X5782438Y16628096D01*
X5782438Y16628096D02*
X5734819Y16723334D01*
X5734819Y16723334D02*
X5734819Y16961429D01*
X5734819Y16961429D02*
X5782438Y17056667D01*
X5782438Y17056667D02*
X5830057Y17104286D01*
X5830057Y17104286D02*
X5925295Y17151905D01*
X5925295Y17151905D02*
X6020533Y17151905D01*
X6020533Y17151905D02*
X6163390Y17104286D01*
X6163390Y17104286D02*
X6734819Y16532858D01*
X6734819Y16532858D02*
X6734819Y17151905D01*
X22583333Y34830420D02*
X22535714Y34782800D01*
X22535714Y34782800D02*
X22392857Y34735181D01*
X22392857Y34735181D02*
X22297619Y34735181D01*
X22297619Y34735181D02*
X22154762Y34782800D01*
X22154762Y34782800D02*
X22059524Y34878039D01*
X22059524Y34878039D02*
X22011905Y34973277D01*
X22011905Y34973277D02*
X21964286Y35163753D01*
X21964286Y35163753D02*
X21964286Y35306610D01*
X21964286Y35306610D02*
X22011905Y35497086D01*
X22011905Y35497086D02*
X22059524Y35592324D01*
X22059524Y35592324D02*
X22154762Y35687562D01*
X22154762Y35687562D02*
X22297619Y35735181D01*
X22297619Y35735181D02*
X22392857Y35735181D01*
X22392857Y35735181D02*
X22535714Y35687562D01*
X22535714Y35687562D02*
X22583333Y35639943D01*
X23440476Y35401848D02*
X23440476Y34735181D01*
X23202381Y35782800D02*
X22964286Y35068515D01*
X22964286Y35068515D02*
X23583333Y35068515D01*
X9335180Y37113334D02*
X8620895Y37113334D01*
X8620895Y37113334D02*
X8478038Y37160953D01*
X8478038Y37160953D02*
X8382800Y37256191D01*
X8382800Y37256191D02*
X8335180Y37399048D01*
X8335180Y37399048D02*
X8335180Y37494286D01*
X8335180Y36113334D02*
X8335180Y36684762D01*
X8335180Y36399048D02*
X9335180Y36399048D01*
X9335180Y36399048D02*
X9192323Y36494286D01*
X9192323Y36494286D02*
X9097085Y36589524D01*
X9097085Y36589524D02*
X9049466Y36684762D01*
X5316666Y26805181D02*
X5316666Y26090896D01*
X5316666Y26090896D02*
X5269047Y25948039D01*
X5269047Y25948039D02*
X5173809Y25852800D01*
X5173809Y25852800D02*
X5030952Y25805181D01*
X5030952Y25805181D02*
X4935714Y25805181D01*
X5792857Y25805181D02*
X5792857Y26805181D01*
X5792857Y26805181D02*
X6173809Y26805181D01*
X6173809Y26805181D02*
X6269047Y26757562D01*
X6269047Y26757562D02*
X6316666Y26709943D01*
X6316666Y26709943D02*
X6364285Y26614705D01*
X6364285Y26614705D02*
X6364285Y26471848D01*
X6364285Y26471848D02*
X6316666Y26376610D01*
X6316666Y26376610D02*
X6269047Y26328991D01*
X6269047Y26328991D02*
X6173809Y26281372D01*
X6173809Y26281372D02*
X5792857Y26281372D01*
X6697619Y26805181D02*
X7316666Y26805181D01*
X7316666Y26805181D02*
X6983333Y26424229D01*
X6983333Y26424229D02*
X7126190Y26424229D01*
X7126190Y26424229D02*
X7221428Y26376610D01*
X7221428Y26376610D02*
X7269047Y26328991D01*
X7269047Y26328991D02*
X7316666Y26233753D01*
X7316666Y26233753D02*
X7316666Y25995658D01*
X7316666Y25995658D02*
X7269047Y25900420D01*
X7269047Y25900420D02*
X7221428Y25852800D01*
X7221428Y25852800D02*
X7126190Y25805181D01*
X7126190Y25805181D02*
X6840476Y25805181D01*
X6840476Y25805181D02*
X6745238Y25852800D01*
X6745238Y25852800D02*
X6697619Y25900420D01*
X19088095Y39615181D02*
X19088095Y38805658D01*
X19088095Y38805658D02*
X19135714Y38710420D01*
X19135714Y38710420D02*
X19183333Y38662800D01*
X19183333Y38662800D02*
X19278571Y38615181D01*
X19278571Y38615181D02*
X19469047Y38615181D01*
X19469047Y38615181D02*
X19564285Y38662800D01*
X19564285Y38662800D02*
X19611904Y38710420D01*
X19611904Y38710420D02*
X19659523Y38805658D01*
X19659523Y38805658D02*
X19659523Y39615181D01*
X20088095Y39519943D02*
X20135714Y39567562D01*
X20135714Y39567562D02*
X20230952Y39615181D01*
X20230952Y39615181D02*
X20469047Y39615181D01*
X20469047Y39615181D02*
X20564285Y39567562D01*
X20564285Y39567562D02*
X20611904Y39519943D01*
X20611904Y39519943D02*
X20659523Y39424705D01*
X20659523Y39424705D02*
X20659523Y39329467D01*
X20659523Y39329467D02*
X20611904Y39186610D01*
X20611904Y39186610D02*
X20040476Y38615181D01*
X20040476Y38615181D02*
X20659523Y38615181D01*
X9789580Y1512082D02*
X9837200Y1464463D01*
X9837200Y1464463D02*
X9884819Y1321606D01*
X9884819Y1321606D02*
X9884819Y1226368D01*
X9884819Y1226368D02*
X9837200Y1083511D01*
X9837200Y1083511D02*
X9741961Y988273D01*
X9741961Y988273D02*
X9646723Y940654D01*
X9646723Y940654D02*
X9456247Y893035D01*
X9456247Y893035D02*
X9313390Y893035D01*
X9313390Y893035D02*
X9122914Y940654D01*
X9122914Y940654D02*
X9027676Y988273D01*
X9027676Y988273D02*
X8932438Y1083511D01*
X8932438Y1083511D02*
X8884819Y1226368D01*
X8884819Y1226368D02*
X8884819Y1321606D01*
X8884819Y1321606D02*
X8932438Y1464463D01*
X8932438Y1464463D02*
X8980057Y1512082D01*
X9884819Y1988273D02*
X9884819Y2178749D01*
X9884819Y2178749D02*
X9837200Y2273987D01*
X9837200Y2273987D02*
X9789580Y2321606D01*
X9789580Y2321606D02*
X9646723Y2416844D01*
X9646723Y2416844D02*
X9456247Y2464463D01*
X9456247Y2464463D02*
X9075295Y2464463D01*
X9075295Y2464463D02*
X8980057Y2416844D01*
X8980057Y2416844D02*
X8932438Y2369225D01*
X8932438Y2369225D02*
X8884819Y2273987D01*
X8884819Y2273987D02*
X8884819Y2083511D01*
X8884819Y2083511D02*
X8932438Y1988273D01*
X8932438Y1988273D02*
X8980057Y1940654D01*
X8980057Y1940654D02*
X9075295Y1893035D01*
X9075295Y1893035D02*
X9313390Y1893035D01*
X9313390Y1893035D02*
X9408628Y1940654D01*
X9408628Y1940654D02*
X9456247Y1988273D01*
X9456247Y1988273D02*
X9503866Y2083511D01*
X9503866Y2083511D02*
X9503866Y2273987D01*
X9503866Y2273987D02*
X9456247Y2369225D01*
X9456247Y2369225D02*
X9408628Y2416844D01*
X9408628Y2416844D02*
X9313390Y2464463D01*
X24644819Y34228096D02*
X25454342Y34228096D01*
X25454342Y34228096D02*
X25549580Y34275715D01*
X25549580Y34275715D02*
X25597200Y34323334D01*
X25597200Y34323334D02*
X25644819Y34418572D01*
X25644819Y34418572D02*
X25644819Y34609048D01*
X25644819Y34609048D02*
X25597200Y34704286D01*
X25597200Y34704286D02*
X25549580Y34751905D01*
X25549580Y34751905D02*
X25454342Y34799524D01*
X25454342Y34799524D02*
X24644819Y34799524D01*
X24644819Y35751905D02*
X24644819Y35275715D01*
X24644819Y35275715D02*
X25121009Y35228096D01*
X25121009Y35228096D02*
X25073390Y35275715D01*
X25073390Y35275715D02*
X25025771Y35370953D01*
X25025771Y35370953D02*
X25025771Y35609048D01*
X25025771Y35609048D02*
X25073390Y35704286D01*
X25073390Y35704286D02*
X25121009Y35751905D01*
X25121009Y35751905D02*
X25216247Y35799524D01*
X25216247Y35799524D02*
X25454342Y35799524D01*
X25454342Y35799524D02*
X25549580Y35751905D01*
X25549580Y35751905D02*
X25597200Y35704286D01*
X25597200Y35704286D02*
X25644819Y35609048D01*
X25644819Y35609048D02*
X25644819Y35370953D01*
X25644819Y35370953D02*
X25597200Y35275715D01*
X25597200Y35275715D02*
X25549580Y35228096D01*
X6523333Y47565181D02*
X6190000Y48041372D01*
X5951905Y47565181D02*
X5951905Y48565181D01*
X5951905Y48565181D02*
X6332857Y48565181D01*
X6332857Y48565181D02*
X6428095Y48517562D01*
X6428095Y48517562D02*
X6475714Y48469943D01*
X6475714Y48469943D02*
X6523333Y48374705D01*
X6523333Y48374705D02*
X6523333Y48231848D01*
X6523333Y48231848D02*
X6475714Y48136610D01*
X6475714Y48136610D02*
X6428095Y48088991D01*
X6428095Y48088991D02*
X6332857Y48041372D01*
X6332857Y48041372D02*
X5951905Y48041372D01*
X6904286Y48469943D02*
X6951905Y48517562D01*
X6951905Y48517562D02*
X7047143Y48565181D01*
X7047143Y48565181D02*
X7285238Y48565181D01*
X7285238Y48565181D02*
X7380476Y48517562D01*
X7380476Y48517562D02*
X7428095Y48469943D01*
X7428095Y48469943D02*
X7475714Y48374705D01*
X7475714Y48374705D02*
X7475714Y48279467D01*
X7475714Y48279467D02*
X7428095Y48136610D01*
X7428095Y48136610D02*
X6856667Y47565181D01*
X6856667Y47565181D02*
X7475714Y47565181D01*
X11243333Y32890420D02*
X11195714Y32842800D01*
X11195714Y32842800D02*
X11052857Y32795181D01*
X11052857Y32795181D02*
X10957619Y32795181D01*
X10957619Y32795181D02*
X10814762Y32842800D01*
X10814762Y32842800D02*
X10719524Y32938039D01*
X10719524Y32938039D02*
X10671905Y33033277D01*
X10671905Y33033277D02*
X10624286Y33223753D01*
X10624286Y33223753D02*
X10624286Y33366610D01*
X10624286Y33366610D02*
X10671905Y33557086D01*
X10671905Y33557086D02*
X10719524Y33652324D01*
X10719524Y33652324D02*
X10814762Y33747562D01*
X10814762Y33747562D02*
X10957619Y33795181D01*
X10957619Y33795181D02*
X11052857Y33795181D01*
X11052857Y33795181D02*
X11195714Y33747562D01*
X11195714Y33747562D02*
X11243333Y33699943D01*
X12100476Y33795181D02*
X11910000Y33795181D01*
X11910000Y33795181D02*
X11814762Y33747562D01*
X11814762Y33747562D02*
X11767143Y33699943D01*
X11767143Y33699943D02*
X11671905Y33557086D01*
X11671905Y33557086D02*
X11624286Y33366610D01*
X11624286Y33366610D02*
X11624286Y32985658D01*
X11624286Y32985658D02*
X11671905Y32890420D01*
X11671905Y32890420D02*
X11719524Y32842800D01*
X11719524Y32842800D02*
X11814762Y32795181D01*
X11814762Y32795181D02*
X12005238Y32795181D01*
X12005238Y32795181D02*
X12100476Y32842800D01*
X12100476Y32842800D02*
X12148095Y32890420D01*
X12148095Y32890420D02*
X12195714Y32985658D01*
X12195714Y32985658D02*
X12195714Y33223753D01*
X12195714Y33223753D02*
X12148095Y33318991D01*
X12148095Y33318991D02*
X12100476Y33366610D01*
X12100476Y33366610D02*
X12005238Y33414229D01*
X12005238Y33414229D02*
X11814762Y33414229D01*
X11814762Y33414229D02*
X11719524Y33366610D01*
X11719524Y33366610D02*
X11671905Y33318991D01*
X11671905Y33318991D02*
X11624286Y33223753D01*
X4497200Y50046668D02*
X4544819Y50189525D01*
X4544819Y50189525D02*
X4544819Y50427620D01*
X4544819Y50427620D02*
X4497200Y50522858D01*
X4497200Y50522858D02*
X4449580Y50570477D01*
X4449580Y50570477D02*
X4354342Y50618096D01*
X4354342Y50618096D02*
X4259104Y50618096D01*
X4259104Y50618096D02*
X4163866Y50570477D01*
X4163866Y50570477D02*
X4116247Y50522858D01*
X4116247Y50522858D02*
X4068628Y50427620D01*
X4068628Y50427620D02*
X4021009Y50237144D01*
X4021009Y50237144D02*
X3973390Y50141906D01*
X3973390Y50141906D02*
X3925771Y50094287D01*
X3925771Y50094287D02*
X3830533Y50046668D01*
X3830533Y50046668D02*
X3735295Y50046668D01*
X3735295Y50046668D02*
X3640057Y50094287D01*
X3640057Y50094287D02*
X3592438Y50141906D01*
X3592438Y50141906D02*
X3544819Y50237144D01*
X3544819Y50237144D02*
X3544819Y50475239D01*
X3544819Y50475239D02*
X3592438Y50618096D01*
X3544819Y50951430D02*
X4544819Y51189525D01*
X4544819Y51189525D02*
X3830533Y51380001D01*
X3830533Y51380001D02*
X4544819Y51570477D01*
X4544819Y51570477D02*
X3544819Y51808572D01*
X3640057Y52141906D02*
X3592438Y52189525D01*
X3592438Y52189525D02*
X3544819Y52284763D01*
X3544819Y52284763D02*
X3544819Y52522858D01*
X3544819Y52522858D02*
X3592438Y52618096D01*
X3592438Y52618096D02*
X3640057Y52665715D01*
X3640057Y52665715D02*
X3735295Y52713334D01*
X3735295Y52713334D02*
X3830533Y52713334D01*
X3830533Y52713334D02*
X3973390Y52665715D01*
X3973390Y52665715D02*
X4544819Y52094287D01*
X4544819Y52094287D02*
X4544819Y52713334D01*
X4809580Y53957143D02*
X4857200Y53909524D01*
X4857200Y53909524D02*
X4904819Y53766667D01*
X4904819Y53766667D02*
X4904819Y53671429D01*
X4904819Y53671429D02*
X4857200Y53528572D01*
X4857200Y53528572D02*
X4761961Y53433334D01*
X4761961Y53433334D02*
X4666723Y53385715D01*
X4666723Y53385715D02*
X4476247Y53338096D01*
X4476247Y53338096D02*
X4333390Y53338096D01*
X4333390Y53338096D02*
X4142914Y53385715D01*
X4142914Y53385715D02*
X4047676Y53433334D01*
X4047676Y53433334D02*
X3952438Y53528572D01*
X3952438Y53528572D02*
X3904819Y53671429D01*
X3904819Y53671429D02*
X3904819Y53766667D01*
X3904819Y53766667D02*
X3952438Y53909524D01*
X3952438Y53909524D02*
X4000057Y53957143D01*
X4000057Y54338096D02*
X3952438Y54385715D01*
X3952438Y54385715D02*
X3904819Y54480953D01*
X3904819Y54480953D02*
X3904819Y54719048D01*
X3904819Y54719048D02*
X3952438Y54814286D01*
X3952438Y54814286D02*
X4000057Y54861905D01*
X4000057Y54861905D02*
X4095295Y54909524D01*
X4095295Y54909524D02*
X4190533Y54909524D01*
X4190533Y54909524D02*
X4333390Y54861905D01*
X4333390Y54861905D02*
X4904819Y54290477D01*
X4904819Y54290477D02*
X4904819Y54909524D01*
X3904819Y55814286D02*
X3904819Y55338096D01*
X3904819Y55338096D02*
X4381009Y55290477D01*
X4381009Y55290477D02*
X4333390Y55338096D01*
X4333390Y55338096D02*
X4285771Y55433334D01*
X4285771Y55433334D02*
X4285771Y55671429D01*
X4285771Y55671429D02*
X4333390Y55766667D01*
X4333390Y55766667D02*
X4381009Y55814286D01*
X4381009Y55814286D02*
X4476247Y55861905D01*
X4476247Y55861905D02*
X4714342Y55861905D01*
X4714342Y55861905D02*
X4809580Y55814286D01*
X4809580Y55814286D02*
X4857200Y55766667D01*
X4857200Y55766667D02*
X4904819Y55671429D01*
X4904819Y55671429D02*
X4904819Y55433334D01*
X4904819Y55433334D02*
X4857200Y55338096D01*
X4857200Y55338096D02*
X4809580Y55290477D01*
D12*
%TO.C,L2*%
X1540000Y19289622D02*
X1540000Y18490378D01*
X2660000Y19289622D02*
X2660000Y18490378D01*
%TO.C,U10*%
X7970000Y24990000D02*
X7970000Y25140000D01*
X7970000Y14820000D02*
X7970000Y14970000D01*
X17890000Y25140000D02*
X7970000Y25140000D01*
X17890000Y24990000D02*
X17890000Y25140000D01*
X17890000Y14820000D02*
X7970000Y14820000D01*
X17890000Y14820000D02*
X17890000Y14970000D01*
X18600000Y14640000D02*
X18120000Y14640000D01*
X18360000Y14970000D01*
X18600000Y14640000D01*
G36*
X18600000Y14640000D02*
G01*
X18120000Y14640000D01*
X18360000Y14970000D01*
X18600000Y14640000D01*
G37*
%TO.C,R4*%
X18105000Y5775436D02*
X18105000Y6229564D01*
X19575000Y5775436D02*
X19575000Y6229564D01*
%TO.C,C24*%
X7325000Y57638748D02*
X7325000Y58161252D01*
X8795000Y57638748D02*
X8795000Y58161252D01*
D13*
%TO.C,IC1*%
X2170000Y21420000D02*
X2170000Y21420000D01*
X2170000Y21320000D02*
X2170000Y21320000D01*
X2170000Y21420000D02*
G75*
G02*
X2170000Y21320000I0J-50000D01*
G01*
X2170000Y21320000D02*
G75*
G02*
X2170000Y21420000I0J50000D01*
G01*
D12*
%TO.C,C17*%
X22665000Y37498748D02*
X22665000Y38021252D01*
X24135000Y37498748D02*
X24135000Y38021252D01*
%TO.C,R29*%
X5305000Y54192936D02*
X5305000Y54647064D01*
X6775000Y54192936D02*
X6775000Y54647064D01*
%TO.C,J2*%
X21250000Y8440000D02*
X22270000Y8440000D01*
X21250000Y4190000D02*
X21250000Y8440000D01*
X22270000Y8440000D02*
X22270000Y6840000D01*
X22270000Y6840000D02*
X23550000Y6840000D01*
X22970000Y620000D02*
X27650000Y620000D01*
X23550000Y6840000D02*
X23550000Y9730000D01*
X28350000Y8440000D02*
X28350000Y6840000D01*
X28350000Y6840000D02*
X27070000Y6840000D01*
X29370000Y8440000D02*
X28350000Y8440000D01*
X29370000Y4190000D02*
X29370000Y8440000D01*
%TO.C,U9*%
X10250000Y66230000D02*
X10250000Y60030000D01*
X10250000Y66230000D02*
X28650000Y66230000D01*
X10250000Y41380000D02*
X10250000Y40380000D01*
X10250000Y40380000D02*
X11750000Y40380000D01*
X28650000Y66230000D02*
X28650000Y60030000D01*
X28650000Y40380000D02*
X27150000Y40380000D01*
X28650000Y40380000D02*
X28650000Y41380000D01*
X10250000Y59355000D02*
X9750000Y59355000D01*
X10250000Y59855000D01*
X10250000Y59355000D01*
G36*
X10250000Y59355000D02*
G01*
X9750000Y59355000D01*
X10250000Y59855000D01*
X10250000Y59355000D01*
G37*
D14*
%TO.C,U1*%
X17044300Y33305900D02*
X19355700Y33305900D01*
X19355700Y35414100D02*
X17044300Y35414100D01*
D12*
%TO.C,C31*%
X3221252Y29155000D02*
X2698748Y29155000D01*
X3221252Y27685000D02*
X2698748Y27685000D01*
%TO.C,J4*%
X780000Y31505000D02*
X780000Y35250000D01*
X1273292Y31505000D02*
X780000Y31505000D01*
X1622077Y35250000D02*
X780000Y35250000D01*
X3100000Y35250000D02*
X2257923Y35250000D01*
X3100000Y31505000D02*
X2606708Y31505000D01*
X3100000Y31505000D02*
X3100000Y35250000D01*
X3100000Y30695000D02*
X3100000Y29885000D01*
X3100000Y29885000D02*
X1940000Y29885000D01*
%TO.C,R3*%
X18145000Y2072936D02*
X18145000Y2527064D01*
X19615000Y2072936D02*
X19615000Y2527064D01*
%TO.C,JP1*%
X20800000Y27810000D02*
X20800000Y28410000D01*
X21500000Y29110000D02*
X22900000Y29110000D01*
X22900000Y27110000D02*
X21500000Y27110000D01*
X23600000Y28410000D02*
X23600000Y27810000D01*
X20800000Y28410000D02*
G75*
G02*
X21500000Y29110000I699999J1D01*
G01*
X21500000Y27110000D02*
G75*
G02*
X20800000Y27810000I-1J699999D01*
G01*
X22900000Y29110000D02*
G75*
G02*
X23600000Y28410000I0J-700000D01*
G01*
X23600000Y27810000D02*
G75*
G02*
X22900000Y27110000I-700000J0D01*
G01*
%TO.C,R6*%
X7212936Y50465000D02*
X7667064Y50465000D01*
X7212936Y48995000D02*
X7667064Y48995000D01*
%TO.C,C3*%
X14141252Y39515000D02*
X13618748Y39515000D01*
X14141252Y38045000D02*
X13618748Y38045000D01*
%TO.C,C19*%
X20518748Y20895000D02*
X21041252Y20895000D01*
X20518748Y19425000D02*
X21041252Y19425000D01*
%TO.C,R1*%
X2167064Y48345000D02*
X1712936Y48345000D01*
X2167064Y46875000D02*
X1712936Y46875000D01*
%TO.C,C10*%
X16388748Y9735000D02*
X16911252Y9735000D01*
X16388748Y8265000D02*
X16911252Y8265000D01*
%TO.C,U3*%
X12430000Y7387500D02*
X12905000Y7387500D01*
X12430000Y6912500D02*
X12430000Y7387500D01*
X12430000Y3642500D02*
X12430000Y3467500D01*
X12905000Y3167500D02*
X12670000Y3167500D01*
X16650000Y7387500D02*
X16175000Y7387500D01*
X16650000Y6912500D02*
X16650000Y7387500D01*
X16650000Y3642500D02*
X16650000Y3167500D01*
X16650000Y3167500D02*
X16175000Y3167500D01*
X12430000Y3167500D02*
X12100000Y2927500D01*
X12100000Y3407500D01*
X12430000Y3167500D01*
G36*
X12430000Y3167500D02*
G01*
X12100000Y2927500D01*
X12100000Y3407500D01*
X12430000Y3167500D01*
G37*
%TO.C,R5*%
X7192936Y52435000D02*
X7647064Y52435000D01*
X7192936Y50965000D02*
X7647064Y50965000D01*
%TO.C,C13*%
X7838748Y4525000D02*
X8361252Y4525000D01*
X7838748Y3055000D02*
X8361252Y3055000D01*
%TO.C,C15*%
X3528748Y11245000D02*
X4051252Y11245000D01*
X3528748Y9775000D02*
X4051252Y9775000D01*
%TO.C,C21*%
X4948748Y21595000D02*
X5471252Y21595000D01*
X4948748Y20125000D02*
X5471252Y20125000D01*
%TO.C,C8*%
X14838748Y2205000D02*
X15361252Y2205000D01*
X14838748Y735000D02*
X15361252Y735000D01*
%TO.C,C1*%
X7525000Y30918748D02*
X7525000Y31441252D01*
X8995000Y30918748D02*
X8995000Y31441252D01*
%TO.C,C5*%
X14251252Y31775000D02*
X13728748Y31775000D01*
X14251252Y30305000D02*
X13728748Y30305000D01*
%TO.C,TP1*%
X10950000Y28480000D02*
G75*
G02*
X9550000Y28480000I-700000J0D01*
G01*
X9550000Y28480000D02*
G75*
G02*
X10950000Y28480000I700000J0D01*
G01*
%TO.C,C33*%
X17068748Y12505000D02*
X17591252Y12505000D01*
X17068748Y11035000D02*
X17591252Y11035000D01*
%TO.C,C14*%
X3141252Y4105000D02*
X2618748Y4105000D01*
X3141252Y2635000D02*
X2618748Y2635000D01*
%TO.C,C16*%
X27868752Y33075000D02*
X27346248Y33075000D01*
X27868752Y31605000D02*
X27346248Y31605000D01*
%TO.C,C18*%
X20548748Y24955000D02*
X21071252Y24955000D01*
X20548748Y23485000D02*
X21071252Y23485000D01*
%TO.C,C34*%
X27281252Y16165000D02*
X26758748Y16165000D01*
X27281252Y14695000D02*
X26758748Y14695000D01*
D15*
%TO.C,MT1*%
X3862500Y32260000D02*
X4417500Y32260000D01*
X3862500Y32205000D02*
X3862500Y32260000D01*
X3862500Y29760000D02*
X3862500Y29815000D01*
X4417500Y29760000D02*
X3862500Y29760000D01*
X6307500Y32260000D02*
X6862500Y32260000D01*
X6862500Y32260000D02*
X6862500Y32205000D01*
X6862500Y29760000D02*
X6307500Y29760000D01*
X6862500Y29760000D02*
X6862500Y29815000D01*
D16*
X3462500Y31760000D02*
G75*
G02*
X3262500Y31760000I-100000J0D01*
G01*
X3262500Y31760000D02*
G75*
G02*
X3462500Y31760000I100000J0D01*
G01*
D12*
%TO.C,U8*%
X23325000Y24062500D02*
X23595000Y24062500D01*
X23325000Y18542500D02*
X23325000Y24062500D01*
X23595000Y18542500D02*
X23325000Y18542500D01*
X28575000Y24062500D02*
X28845000Y24062500D01*
X28845000Y24062500D02*
X28845000Y18542500D01*
X28845000Y18542500D02*
X28575000Y18542500D01*
X29055000Y24552500D02*
X28585000Y24892500D01*
X29055000Y25232500D01*
X29055000Y24552500D01*
G36*
X29055000Y24552500D02*
G01*
X28585000Y24892500D01*
X29055000Y25232500D01*
X29055000Y24552500D01*
G37*
%TO.C,L1*%
X9829622Y6840000D02*
X9030378Y6840000D01*
X9829622Y5720000D02*
X9030378Y5720000D01*
%TO.C,C37*%
X7365000Y54651252D02*
X7365000Y54128748D01*
X8835000Y54651252D02*
X8835000Y54128748D01*
%TO.C,U4*%
X2290000Y7142500D02*
X2290000Y7942500D01*
X2290000Y7142500D02*
X2290000Y6342500D01*
X5410000Y7142500D02*
X5410000Y7942500D01*
X5410000Y7142500D02*
X5410000Y6342500D01*
X2340000Y5842500D02*
X2010000Y5602500D01*
X2010000Y6082500D01*
X2340000Y5842500D01*
G36*
X2340000Y5842500D02*
G01*
X2010000Y5602500D01*
X2010000Y6082500D01*
X2340000Y5842500D01*
G37*
%TO.C,SW1*%
X3265000Y59520000D02*
X3265000Y58720000D01*
X3305000Y58720000D02*
X3265000Y58720000D01*
X3305000Y58720000D02*
X3305000Y55220000D01*
%TO.C,C12*%
X12591252Y9845000D02*
X12068748Y9845000D01*
X12591252Y8375000D02*
X12068748Y8375000D01*
%TO.C,JP2*%
X12210000Y11430000D02*
X12210000Y12030000D01*
X12910000Y12730000D02*
X14310000Y12730000D01*
X14310000Y10730000D02*
X12910000Y10730000D01*
X15010000Y12030000D02*
X15010000Y11430000D01*
X12210000Y12030000D02*
G75*
G02*
X12910000Y12730000I700000J0D01*
G01*
X12910000Y10730000D02*
G75*
G02*
X12210000Y11430000I0J700000D01*
G01*
X14310000Y12730000D02*
G75*
G02*
X15010000Y12030000I1J-699999D01*
G01*
X15010000Y11430000D02*
G75*
G02*
X14310000Y10730000I-699999J-1D01*
G01*
%TO.C,C32*%
X14151252Y37475000D02*
X13628748Y37475000D01*
X14151252Y36005000D02*
X13628748Y36005000D01*
%TO.C,C35*%
X20528748Y22925000D02*
X21051252Y22925000D01*
X20528748Y21455000D02*
X21051252Y21455000D01*
%TO.C,C11*%
X7371252Y2175000D02*
X6848748Y2175000D01*
X7371252Y705000D02*
X6848748Y705000D01*
%TO.C,C2*%
X5631252Y34395000D02*
X5108748Y34395000D01*
X5631252Y32925000D02*
X5108748Y32925000D01*
%TO.C,J3*%
X1750000Y15710000D02*
X2550000Y15710000D01*
X1750000Y15510000D02*
X1750000Y15710000D01*
X1950000Y12710000D02*
X1750000Y12910000D01*
X2550000Y12710000D02*
X1950000Y12710000D01*
X2550000Y12710000D02*
X2550000Y12210000D01*
X3950000Y15710000D02*
X4750000Y15710000D01*
X3950000Y12710000D02*
X3950000Y12210000D01*
X4750000Y15710000D02*
X4750000Y15510000D01*
X4750000Y12910000D02*
X4750000Y12710000D01*
X4750000Y12710000D02*
X3950000Y12710000D01*
%TO.C,TP2*%
X29050000Y11020000D02*
G75*
G02*
X27650000Y11020000I-700000J0D01*
G01*
X27650000Y11020000D02*
G75*
G02*
X29050000Y11020000I700000J0D01*
G01*
%TO.C,C22*%
X4738748Y19015000D02*
X5261252Y19015000D01*
X4738748Y17545000D02*
X5261252Y17545000D01*
%TO.C,C4*%
X20005000Y35828748D02*
X20005000Y36351252D01*
X21475000Y35828748D02*
X21475000Y36351252D01*
%TO.C,J1*%
X3790000Y45800000D02*
X5490000Y45800000D01*
X3790000Y36460000D02*
X5490000Y36460000D01*
%TO.C,JP3*%
X3730000Y23260000D02*
X3730000Y24660000D01*
X4430000Y25360000D02*
X5030000Y25360000D01*
X5030000Y22560000D02*
X4430000Y22560000D01*
X5730000Y24660000D02*
X5730000Y23260000D01*
X3730000Y24660000D02*
G75*
G02*
X4430000Y25360000I699999J1D01*
G01*
X4430000Y22560000D02*
G75*
G02*
X3730000Y23260000I0J700000D01*
G01*
X5030000Y25360000D02*
G75*
G02*
X5730000Y24660000I1J-699999D01*
G01*
X5730000Y23260000D02*
G75*
G02*
X5030000Y22560000I-700000J0D01*
G01*
%TO.C,U2*%
X16510000Y39280000D02*
X16510000Y38800000D01*
X18830000Y39270000D02*
X18830000Y38790000D01*
X18830000Y38060000D02*
X18830000Y37580000D01*
X16500000Y37190000D02*
X16220000Y37470000D01*
X16500000Y37470000D01*
X16500000Y37190000D01*
G36*
X16500000Y37190000D02*
G01*
X16220000Y37470000D01*
X16500000Y37470000D01*
X16500000Y37190000D01*
G37*
%TO.C,C9*%
X10345000Y2201252D02*
X10345000Y1678748D01*
X11815000Y2201252D02*
X11815000Y1678748D01*
%TO.C,U5*%
X25967500Y36270000D02*
X25967500Y37070000D01*
X25967500Y36270000D02*
X25967500Y35470000D01*
X29087500Y36270000D02*
X29087500Y37070000D01*
X29087500Y36270000D02*
X29087500Y35470000D01*
X26017500Y34970000D02*
X25687500Y34730000D01*
X25687500Y35210000D01*
X26017500Y34970000D01*
G36*
X26017500Y34970000D02*
G01*
X25687500Y34730000D01*
X25687500Y35210000D01*
X26017500Y34970000D01*
G37*
%TO.C,R2*%
X3965000Y48022936D02*
X3965000Y48477064D01*
X5435000Y48022936D02*
X5435000Y48477064D01*
%TO.C,C6*%
X14241252Y34055000D02*
X13718748Y34055000D01*
X14241252Y32585000D02*
X13718748Y32585000D01*
%TO.C,SW2*%
X3255000Y53950000D02*
X3255000Y53150000D01*
X3295000Y53150000D02*
X3255000Y53150000D01*
X3295000Y53150000D02*
X3295000Y49650000D01*
%TO.C,C25*%
X5205000Y57658748D02*
X5205000Y58181252D01*
X6675000Y57658748D02*
X6675000Y58181252D01*
%TD*%
%LPC*%
%TO.C,JP1*%
G36*
X22050000Y28860000D02*
G01*
X22350000Y28860000D01*
X22350000Y27360000D01*
X22050000Y27360000D01*
X22050000Y28860000D01*
G37*
D17*
%TO.C,MT1*%
X4487500Y31585000D02*
X3912500Y31585000D01*
X3912500Y31935000D01*
X4487500Y31935000D01*
X4487500Y31585000D01*
G36*
X4487500Y31585000D02*
G01*
X3912500Y31585000D01*
X3912500Y31935000D01*
X4487500Y31935000D01*
X4487500Y31585000D01*
G37*
X4487500Y31085000D02*
X3912500Y31085000D01*
X3912500Y31435000D01*
X4487500Y31435000D01*
X4487500Y31085000D01*
G36*
X4487500Y31085000D02*
G01*
X3912500Y31085000D01*
X3912500Y31435000D01*
X4487500Y31435000D01*
X4487500Y31085000D01*
G37*
X4487500Y30585000D02*
X3912500Y30585000D01*
X3912500Y30935000D01*
X4487500Y30935000D01*
X4487500Y30585000D01*
G36*
X4487500Y30585000D02*
G01*
X3912500Y30585000D01*
X3912500Y30935000D01*
X4487500Y30935000D01*
X4487500Y30585000D01*
G37*
X4487500Y30085000D02*
X3912500Y30085000D01*
X3912500Y30435000D01*
X4487500Y30435000D01*
X4487500Y30085000D01*
G36*
X4487500Y30085000D02*
G01*
X3912500Y30085000D01*
X3912500Y30435000D01*
X4487500Y30435000D01*
X4487500Y30085000D01*
G37*
X5037500Y31635000D02*
X4687500Y31635000D01*
X4687500Y32210000D01*
X5037500Y32210000D01*
X5037500Y31635000D01*
G36*
X5037500Y31635000D02*
G01*
X4687500Y31635000D01*
X4687500Y32210000D01*
X5037500Y32210000D01*
X5037500Y31635000D01*
G37*
X5037500Y29810000D02*
X4687500Y29810000D01*
X4687500Y30385000D01*
X5037500Y30385000D01*
X5037500Y29810000D01*
G36*
X5037500Y29810000D02*
G01*
X4687500Y29810000D01*
X4687500Y30385000D01*
X5037500Y30385000D01*
X5037500Y29810000D01*
G37*
X5537500Y31635000D02*
X5187500Y31635000D01*
X5187500Y32210000D01*
X5537500Y32210000D01*
X5537500Y31635000D01*
G36*
X5537500Y31635000D02*
G01*
X5187500Y31635000D01*
X5187500Y32210000D01*
X5537500Y32210000D01*
X5537500Y31635000D01*
G37*
X5537500Y29810000D02*
X5187500Y29810000D01*
X5187500Y30385000D01*
X5537500Y30385000D01*
X5537500Y29810000D01*
G36*
X5537500Y29810000D02*
G01*
X5187500Y29810000D01*
X5187500Y30385000D01*
X5537500Y30385000D01*
X5537500Y29810000D01*
G37*
X6037500Y31635000D02*
X5687500Y31635000D01*
X5687500Y32210000D01*
X6037500Y32210000D01*
X6037500Y31635000D01*
G36*
X6037500Y31635000D02*
G01*
X5687500Y31635000D01*
X5687500Y32210000D01*
X6037500Y32210000D01*
X6037500Y31635000D01*
G37*
X6037500Y29810000D02*
X5687500Y29810000D01*
X5687500Y30385000D01*
X6037500Y30385000D01*
X6037500Y29810000D01*
G36*
X6037500Y29810000D02*
G01*
X5687500Y29810000D01*
X5687500Y30385000D01*
X6037500Y30385000D01*
X6037500Y29810000D01*
G37*
X6812500Y31585000D02*
X6237500Y31585000D01*
X6237500Y31935000D01*
X6812500Y31935000D01*
X6812500Y31585000D01*
G36*
X6812500Y31585000D02*
G01*
X6237500Y31585000D01*
X6237500Y31935000D01*
X6812500Y31935000D01*
X6812500Y31585000D01*
G37*
X6812500Y31085000D02*
X6237500Y31085000D01*
X6237500Y31435000D01*
X6812500Y31435000D01*
X6812500Y31085000D01*
G36*
X6812500Y31085000D02*
G01*
X6237500Y31085000D01*
X6237500Y31435000D01*
X6812500Y31435000D01*
X6812500Y31085000D01*
G37*
X6812500Y30585000D02*
X6237500Y30585000D01*
X6237500Y30935000D01*
X6812500Y30935000D01*
X6812500Y30585000D01*
G36*
X6812500Y30585000D02*
G01*
X6237500Y30585000D01*
X6237500Y30935000D01*
X6812500Y30935000D01*
X6812500Y30585000D01*
G37*
X6812500Y30085000D02*
X6237500Y30085000D01*
X6237500Y30435000D01*
X6812500Y30435000D01*
X6812500Y30085000D01*
G36*
X6812500Y30085000D02*
G01*
X6237500Y30085000D01*
X6237500Y30435000D01*
X6812500Y30435000D01*
X6812500Y30085000D01*
G37*
%TO.C,JP2*%
G36*
X13760000Y10980000D02*
G01*
X13460000Y10980000D01*
X13460000Y12480000D01*
X13760000Y12480000D01*
X13760000Y10980000D01*
G37*
%TO.C,JP3*%
G36*
X5480000Y24110000D02*
G01*
X3980000Y24110000D01*
X3980000Y23810000D01*
X5480000Y23810000D01*
X5480000Y24110000D01*
G37*
%TD*%
D18*
%TO.C,L2*%
X2100000Y19952500D03*
X2100000Y17827500D03*
%TD*%
D19*
%TO.C,U10*%
X17680000Y15580000D03*
D20*
X17680000Y16680000D03*
X17680000Y17780000D03*
X17680000Y18880000D03*
X17680000Y19980000D03*
X17680000Y21080000D03*
X17680000Y22180000D03*
X17680000Y23280000D03*
D19*
X17680000Y24380000D03*
X8180000Y24380000D03*
D20*
X8180000Y23280000D03*
X8180000Y22180000D03*
X8180000Y21080000D03*
X8180000Y19980000D03*
X8180000Y18880000D03*
X8180000Y17780000D03*
X8180000Y16680000D03*
D19*
X8180000Y15580000D03*
%TD*%
D21*
%TO.C,R4*%
X18840000Y5090000D03*
X18840000Y6915000D03*
%TD*%
D22*
%TO.C,C24*%
X8060000Y56950000D03*
X8060000Y58850000D03*
%TD*%
D23*
%TO.C,IC1*%
X2170000Y22020000D03*
X2170000Y22420000D03*
X2170000Y22820000D03*
X1770000Y22820000D03*
X1770000Y22420000D03*
X1770000Y22020000D03*
%TD*%
D22*
%TO.C,C17*%
X23400000Y36810000D03*
X23400000Y38710000D03*
%TD*%
D21*
%TO.C,R29*%
X6040000Y53507500D03*
X6040000Y55332500D03*
%TD*%
D24*
%TO.C,J2*%
X24310000Y7980000D03*
X26310000Y7980000D03*
D25*
X21960000Y2230000D03*
X28660000Y2230000D03*
%TD*%
D26*
%TO.C,U9*%
X10700000Y58590000D03*
X10700000Y57320000D03*
X10700000Y56050000D03*
X10700000Y54780000D03*
X10700000Y53510000D03*
X10700000Y52240000D03*
X10700000Y50970000D03*
X10700000Y49700000D03*
X10700000Y48430000D03*
X10700000Y47160000D03*
X10700000Y45890000D03*
X10700000Y44620000D03*
X10700000Y43350000D03*
X10700000Y42080000D03*
D27*
X12465000Y40830000D03*
X13735000Y40830000D03*
X15005000Y40830000D03*
X16275000Y40830000D03*
X17545000Y40830000D03*
X18815000Y40830000D03*
X20085000Y40830000D03*
X21355000Y40830000D03*
X22625000Y40830000D03*
X23895000Y40830000D03*
X25165000Y40830000D03*
X26435000Y40830000D03*
D26*
X28200000Y42080000D03*
X28200000Y43350000D03*
X28200000Y44620000D03*
X28200000Y45890000D03*
X28200000Y47160000D03*
X28200000Y48430000D03*
X28200000Y49700000D03*
X28200000Y50970000D03*
X28200000Y52240000D03*
X28200000Y53510000D03*
X28200000Y54780000D03*
X28200000Y56050000D03*
X28200000Y57320000D03*
X28200000Y58590000D03*
D28*
X16550000Y51570000D03*
X16550000Y50170000D03*
X17250000Y52270000D03*
X17250000Y50870000D03*
X17250000Y49470000D03*
X17950000Y51570000D03*
D29*
X17950000Y50870000D03*
D28*
X17950000Y50170000D03*
X18650000Y52270000D03*
X18650000Y50870000D03*
X18650000Y49470000D03*
X19350000Y51570000D03*
X19350000Y50170000D03*
%TD*%
D30*
%TO.C,U1*%
X17400000Y34960000D03*
X17800000Y34960000D03*
X18200000Y34960000D03*
X18600000Y34960000D03*
X19000000Y34960000D03*
X17400000Y34560000D03*
X17800000Y34560000D03*
X18200000Y34560000D03*
X18600000Y34560000D03*
X19000000Y34560000D03*
X17400000Y34160000D03*
X17800000Y34160000D03*
X18200000Y34160000D03*
X18600000Y34160000D03*
X19000000Y34160000D03*
X17400000Y33760000D03*
X17800000Y33760000D03*
X18200000Y33760000D03*
X18600000Y33760000D03*
X19000000Y33760000D03*
%TD*%
D31*
%TO.C,C31*%
X3910000Y28420000D03*
X2010000Y28420000D03*
%TD*%
D32*
%TO.C,J4*%
X1940000Y30695000D03*
D33*
X1940000Y31965000D03*
X1940000Y33235000D03*
X1940000Y34505000D03*
%TD*%
D21*
%TO.C,R3*%
X18880000Y1387500D03*
X18880000Y3212500D03*
%TD*%
D34*
%TO.C,JP1*%
X21550000Y28110000D03*
D35*
X22850000Y28110000D03*
%TD*%
D36*
%TO.C,R6*%
X6527500Y49730000D03*
X8352500Y49730000D03*
%TD*%
D31*
%TO.C,C3*%
X14830000Y38780000D03*
X12930000Y38780000D03*
%TD*%
D37*
%TO.C,C19*%
X19830000Y20160000D03*
X21730000Y20160000D03*
%TD*%
D38*
%TO.C,R1*%
X2852500Y47610000D03*
X1027500Y47610000D03*
%TD*%
D37*
%TO.C,C10*%
X15700000Y9000000D03*
X17600000Y9000000D03*
%TD*%
D39*
%TO.C,U3*%
X13290000Y3315000D03*
X13790000Y3315000D03*
X14290000Y3315000D03*
X14790000Y3315000D03*
X15290000Y3315000D03*
X15790000Y3315000D03*
D40*
X16502500Y4027500D03*
X16502500Y4527500D03*
X16502500Y5027500D03*
X16502500Y5527500D03*
X16502500Y6027500D03*
X16502500Y6527500D03*
D39*
X15790000Y7240000D03*
X15290000Y7240000D03*
X14790000Y7240000D03*
X14290000Y7240000D03*
X13790000Y7240000D03*
X13290000Y7240000D03*
D40*
X12577500Y6527500D03*
X12577500Y6027500D03*
X12577500Y5527500D03*
X12577500Y5027500D03*
X12577500Y4527500D03*
X12577500Y4027500D03*
D41*
X14540000Y5277500D03*
%TD*%
D36*
%TO.C,R5*%
X6507500Y51700000D03*
X8332500Y51700000D03*
%TD*%
D37*
%TO.C,C13*%
X7150000Y3790000D03*
X9050000Y3790000D03*
%TD*%
%TO.C,C15*%
X2840000Y10510000D03*
X4740000Y10510000D03*
%TD*%
%TO.C,C21*%
X4260000Y20860000D03*
X6160000Y20860000D03*
%TD*%
%TO.C,C8*%
X14150000Y1470000D03*
X16050000Y1470000D03*
%TD*%
D22*
%TO.C,C1*%
X8260000Y30230000D03*
X8260000Y32130000D03*
%TD*%
D31*
%TO.C,C5*%
X14940000Y31040000D03*
X13040000Y31040000D03*
%TD*%
D33*
%TO.C,TP1*%
X10250000Y28480000D03*
%TD*%
D37*
%TO.C,C33*%
X16380000Y11770000D03*
X18280000Y11770000D03*
%TD*%
D31*
%TO.C,C14*%
X3830000Y3370000D03*
X1930000Y3370000D03*
%TD*%
%TO.C,C16*%
X28557500Y32340000D03*
X26657500Y32340000D03*
%TD*%
D37*
%TO.C,C18*%
X19860000Y24220000D03*
X21760000Y24220000D03*
%TD*%
D31*
%TO.C,C34*%
X27970000Y15430000D03*
X26070000Y15430000D03*
%TD*%
D42*
%TO.C,U8*%
X27990000Y24890000D03*
X26720000Y24890000D03*
X25450000Y24890000D03*
X24180000Y24890000D03*
X24180000Y17715000D03*
X25450000Y17715000D03*
X26720000Y17715000D03*
X27990000Y17715000D03*
%TD*%
D43*
%TO.C,L1*%
X10492500Y6280000D03*
X8367500Y6280000D03*
%TD*%
D44*
%TO.C,C37*%
X8100000Y55340000D03*
X8100000Y53440000D03*
%TD*%
D45*
%TO.C,U4*%
X2900000Y6005000D03*
X3850000Y6005000D03*
X4800000Y6005000D03*
X4800000Y8280000D03*
X2900000Y8280000D03*
%TD*%
D46*
%TO.C,SW1*%
X2475000Y58770000D03*
X2475000Y55170000D03*
X1035000Y58770000D03*
X1035000Y55170000D03*
%TD*%
D31*
%TO.C,C12*%
X13280000Y9110000D03*
X11380000Y9110000D03*
%TD*%
D47*
%TO.C,JP2*%
X14260000Y11730000D03*
D48*
X12960000Y11730000D03*
%TD*%
D31*
%TO.C,C32*%
X14840000Y36740000D03*
X12940000Y36740000D03*
%TD*%
D37*
%TO.C,C35*%
X19840000Y22190000D03*
X21740000Y22190000D03*
%TD*%
D31*
%TO.C,C11*%
X8060000Y1440000D03*
X6160000Y1440000D03*
%TD*%
%TO.C,C2*%
X6320000Y33660000D03*
X4420000Y33660000D03*
%TD*%
D49*
%TO.C,J3*%
X3250000Y15710000D03*
D50*
X4725000Y14210000D03*
D49*
X3250000Y12710000D03*
D50*
X1775000Y14210000D03*
%TD*%
D33*
%TO.C,TP2*%
X28350000Y11020000D03*
%TD*%
D37*
%TO.C,C22*%
X4050000Y18280000D03*
X5950000Y18280000D03*
%TD*%
D22*
%TO.C,C4*%
X20740000Y35140000D03*
X20740000Y37040000D03*
%TD*%
D51*
%TO.C,J1*%
X6295000Y44020000D03*
X6295000Y38240000D03*
D52*
X7370000Y44330000D03*
X7370000Y43530000D03*
D53*
X7370000Y42380000D03*
X7370000Y41380000D03*
X7370000Y40880000D03*
X7370000Y39880000D03*
D52*
X7370000Y38730000D03*
X7370000Y37930000D03*
X7370000Y37930000D03*
X7370000Y38730000D03*
D53*
X7370000Y39380000D03*
X7370000Y40380000D03*
X7370000Y41880000D03*
X7370000Y42880000D03*
D52*
X7370000Y43530000D03*
X7370000Y44330000D03*
D54*
X6795000Y45450000D03*
D55*
X2615000Y45450000D03*
D54*
X6795000Y36810000D03*
D55*
X2615000Y36810000D03*
%TD*%
D56*
%TO.C,JP3*%
X4730000Y24610000D03*
D57*
X4730000Y23310000D03*
%TD*%
D58*
%TO.C,U2*%
X16870000Y37780000D03*
D59*
X16695000Y38005000D03*
D58*
X17270000Y37780000D03*
X17670000Y37780000D03*
X18070000Y37780000D03*
X18470000Y37780000D03*
D60*
X18470000Y38430000D03*
D58*
X18470000Y39080000D03*
X18070000Y39080000D03*
X17670000Y39080000D03*
X17270000Y39080000D03*
X16870000Y39080000D03*
D60*
X16870000Y38430000D03*
%TD*%
D44*
%TO.C,C9*%
X11080000Y2890000D03*
X11080000Y990000D03*
%TD*%
D45*
%TO.C,U5*%
X26577500Y35132500D03*
X27527500Y35132500D03*
X28477500Y35132500D03*
X28477500Y37407500D03*
X26577500Y37407500D03*
%TD*%
D21*
%TO.C,R2*%
X4700000Y47337500D03*
X4700000Y49162500D03*
%TD*%
D31*
%TO.C,C6*%
X14930000Y33320000D03*
X13030000Y33320000D03*
%TD*%
D46*
%TO.C,SW2*%
X2465000Y53200000D03*
X2465000Y49600000D03*
X1025000Y53200000D03*
X1025000Y49600000D03*
%TD*%
D22*
%TO.C,C25*%
X5940000Y56970000D03*
X5940000Y58870000D03*
%TD*%
%LPD*%
M02*
