M48
; DRILL file {KiCad 9.0.5} date 2025-11-01T11:22:36+0100
; FORMAT={-:-/ absolute / inch / decimal}
; #@! TF.CreationDate,2025-11-01T11:22:36+01:00
; #@! TF.GenerationSoftware,Kicad,Pcbnew,9.0.5
; #@! TF.FileFunction,Plated,1,4,PTH
FMAT,2
INCH
; #@! TA.AperFunction,Plated,PTH,ComponentDrill
T1C0.0079
; #@! TA.AperFunction,Plated,PTH,ViaDrill
T2C0.0118
; #@! TA.AperFunction,Plated,PTH,ComponentDrill
T3C0.0236
; #@! TA.AperFunction,Plated,PTH,ComponentDrill
T4C0.0256
%
G90
G05
T1
X0.5291Y0.2511
X0.5291Y0.2078
X0.5291Y0.1645
X0.5724Y0.2511
X0.5724Y0.2078
X0.5724Y0.1645
X0.6157Y0.2511
X0.6157Y0.2078
X0.6157Y0.1645
X0.6516Y2.0303
X0.6516Y1.9752
X0.6791Y2.0579
X0.6791Y2.0028
X0.6791Y1.9476
X0.7067Y2.0303
X0.7067Y1.9752
X0.7343Y2.0579
X0.7343Y2.0028
X0.7343Y1.9476
X0.7618Y2.0303
X0.7618Y1.9752
T2
X0.0315Y2.0252
X0.0425Y0.0343
X0.0618Y1.0744
X0.0803Y0.9819
X0.0878Y0.3307
X0.0917Y0.1961
X0.1484Y0.0827
X0.1547Y1.0744
X0.1728Y1.9902
X0.1736Y1.3724
X0.174Y1.2764
X0.1744Y2.3173
X0.1768Y2.2425
X0.1835Y2.1079
X0.1996Y0.0583
X0.2033Y0.3384
X0.211Y0.6016
X0.2112Y1.151
X0.2307Y0.1508
X0.2819Y0.2425
X0.2858Y1.339
X0.3189Y2.1374
X0.3189Y0.0988
X0.3256Y1.2984
X0.3268Y1.5248
X0.3307Y0.7681
X0.3327Y1.7138
X0.3447Y1.3302
X0.3543Y0.7421
X0.3672Y1.6127
X0.3673Y1.1984
X0.3677Y2.0584
X0.3752Y1.3384
X0.3823Y1.585
X0.3921Y0.0583
X0.3953Y0.7031
X0.4189Y1.0083
X0.4209Y0.9213
X0.4268Y0.6291
X0.4376Y1.3162
X0.4472Y0.4079
X0.4527Y1.3438
X0.4539Y0.4622
X0.465Y1.5264
X0.4661Y1.4472
X0.4713Y2.0098
X0.4724Y2.1567
X0.4756Y1.2359
X0.4795Y2.1075
X0.4835Y0.3031
X0.4839Y1.9567
X0.4878Y2.3083
X0.489Y0.3591
X0.4933Y0.0961
X0.5035Y0.0307
X0.513Y0.6165
X0.5152Y1.9067
X0.5291Y1.2205
X0.5312Y0.9043
X0.5327Y1.8567
X0.539Y1.6957
X0.5398Y1.7583
X0.5484Y1.5329
X0.5488Y1.4472
X0.5535Y0.8488
X0.5746Y1.8094
X0.5803Y0.9634
X0.6114Y1.6795
X0.6115Y1.4039
X0.6291Y0.5303
X0.6311Y1.3031
X0.6335Y1.4314
X0.6436Y0.1061
X0.6465Y0.8866
X0.648Y0.5945
X0.65Y1.1815
X0.6508Y1.2465
X0.6524Y0.3539
X0.6599Y1.4485
X0.6736Y1.0543
X0.6803Y0.1059
X0.6835Y0.0465
X0.687Y0.1976
X0.6941Y0.5488
X0.6976Y1.8508
X0.7091Y1.1004
X0.713Y1.278
X0.7213Y1.2476
X0.7331Y0.3543
X0.7487Y1.4375
X0.7543Y1.5406
X0.7577Y1.4941
X0.7679Y1.4642
X0.7735Y1.158
X0.787Y0.0307
X0.8Y0.2728
X0.8161Y1.4949
X0.8165Y1.5315
X0.8437Y1.2047
X0.8559Y1.4244
X0.8559Y0.6134
X0.8752Y2.2544
X0.8988Y0.4984
X0.9114Y0.3193
X0.9157Y0.7035
X0.9169Y0.7472
X0.9171Y0.6439
X0.9242Y1.2516
X0.9417Y0.474
X0.9441Y1.6736
X0.9496Y1.1189
X0.9496Y1.0059
X0.9522Y1.3058
X0.9524Y1.3763
X0.9547Y2.1209
X0.9637Y0.6013
X0.9694Y1.0304
X0.9748Y0.4969
X0.9786Y1.9065
X0.9811Y1.1492
X0.9921Y1.0028
X0.993Y1.0681
X1.0012Y2.0567
X1.002Y0.5949
X1.0063Y2.1587
X1.0248Y2.0039
X1.0303Y1.8504
X1.0409Y2.2563
X1.0433Y2.1067
X1.05Y1.9598
X1.0528Y0.5059
X1.0591Y2.3106
X1.0935Y0.9274
X1.0972Y1.5657
X1.1031Y0.7724
X1.1094Y1.602
X1.1181Y0.7949
X1.1181Y0.4965
X1.1496Y1.0516
T4
X0.0764Y1.3585
X0.0764Y1.3085
X0.0764Y1.2585
X0.0764Y1.2085
T3
G00X0.1187Y1.7894
M15
G01X0.0872Y1.7894
M16
G05
G00X0.1187Y1.4492
M15
G01X0.0872Y1.4492
M16
G05
G00X0.2892Y1.7894
M15
G01X0.2459Y1.7894
M16
G05
G00X0.2892Y1.4492
M15
G01X0.2459Y1.4492
M16
G05
M30
