%TF.GenerationSoftware,KiCad,Pcbnew,9.0.7*%
%TF.CreationDate,2026-02-22T12:09:29+01:00*%
%TF.ProjectId,horsesense,686f7273-6573-4656-9e73-652e6b696361,1.0*%
%TF.SameCoordinates,Original*%
%TF.FileFunction,Copper,L3,Inr*%
%TF.FilePolarity,Positive*%
%FSLAX46Y46*%
G04 Gerber Fmt 4.6, Leading zero omitted, Abs format (unit mm)*
G04 Created by KiCad (PCBNEW 9.0.7) date 2026-02-22 12:09:29*
%MOMM*%
%LPD*%
G01*
G04 APERTURE LIST*
%TA.AperFunction,ComponentPad*%
%ADD10C,1.000000*%
%TD*%
%TA.AperFunction,ComponentPad*%
%ADD11R,1.000000X1.000000*%
%TD*%
%TA.AperFunction,HeatsinkPad*%
%ADD12C,0.600000*%
%TD*%
%TA.AperFunction,ComponentPad*%
%ADD13C,0.254000*%
%TD*%
%TA.AperFunction,HeatsinkPad*%
%ADD14C,0.500000*%
%TD*%
%TA.AperFunction,HeatsinkPad*%
%ADD15O,2.100000X1.000000*%
%TD*%
%TA.AperFunction,HeatsinkPad*%
%ADD16O,1.800000X1.000000*%
%TD*%
%TA.AperFunction,ViaPad*%
%ADD17C,0.600000*%
%TD*%
%TA.AperFunction,Conductor*%
%ADD18C,0.200000*%
%TD*%
%TA.AperFunction,Conductor*%
%ADD19C,0.600000*%
%TD*%
%TA.AperFunction,Conductor*%
%ADD20C,0.140000*%
%TD*%
G04 APERTURE END LIST*
D10*
%TO.N,GND*%
%TO.C,J4*%
X1550000Y33415000D03*
%TO.N,Net-(J4-Pin_3)*%
X1550000Y32145000D03*
%TO.N,Net-(J4-Pin_2)*%
X1550000Y30875000D03*
D11*
%TO.N,+3.3V*%
X1550000Y29605000D03*
%TD*%
D12*
%TO.N,GND*%
%TO.C,U9*%
X16550000Y51570000D03*
X16550000Y50170000D03*
X17250000Y52270000D03*
X17250000Y50870000D03*
X17250000Y49470000D03*
X17950000Y51570000D03*
X17950000Y50170000D03*
X18650000Y52270000D03*
X18650000Y50870000D03*
X18650000Y49470000D03*
X19350000Y51570000D03*
X19350000Y50170000D03*
%TD*%
D13*
%TO.N,MAX_INT_1_8*%
%TO.C,U1*%
X18175000Y31580000D03*
%TO.N,GPIO1*%
X18575000Y31580000D03*
%TD*%
D14*
%TO.N,GND*%
%TO.C,U3*%
X13440000Y4177500D03*
X14540000Y4177500D03*
X15640000Y4177500D03*
X13440000Y5277500D03*
X14540000Y5277500D03*
X15640000Y5277500D03*
X13440000Y6377500D03*
X14540000Y6377500D03*
X15640000Y6377500D03*
%TD*%
D15*
%TO.N,GND*%
%TO.C,J1*%
X6805000Y45500000D03*
D16*
X2625000Y45500000D03*
D15*
X6805000Y36860000D03*
D16*
X2625000Y36860000D03*
%TD*%
D17*
%TO.N,+1.8V*%
X16025442Y34630000D03*
%TO.N,GND*%
X2925000Y25730000D03*
%TO.N,+3.3V*%
X2925000Y27630000D03*
X21040000Y17355000D03*
X4490000Y56960000D03*
X12263415Y32766585D03*
X21070000Y21430000D03*
X21050000Y19380000D03*
X26850000Y11605000D03*
X7260000Y34010000D03*
X19275000Y38205000D03*
X15575000Y39180000D03*
X1940000Y10510000D03*
X4660000Y53540000D03*
X27950000Y14955000D03*
%TO.N,GND*%
X24175000Y1555000D03*
X13700000Y39180000D03*
X16375000Y1582000D03*
X6150000Y2605000D03*
X12390000Y58630000D03*
X18361793Y29893207D03*
X26900000Y58690000D03*
X4390000Y50550000D03*
X1800000Y12380000D03*
X4740000Y12270000D03*
X19475000Y36530000D03*
X8312409Y33363938D03*
X21875000Y25680000D03*
X9863235Y1668235D03*
X10225000Y9105000D03*
X8136500Y22655000D03*
X18620000Y9000000D03*
X21225000Y6880000D03*
X1750000Y24080000D03*
X19300000Y12580000D03*
X27950000Y12805000D03*
X12700000Y28855000D03*
X6670000Y19610000D03*
X7000000Y26282500D03*
X4949931Y28984147D03*
X18575000Y23330000D03*
X2730000Y21630000D03*
X3840000Y7170000D03*
X20925000Y27680000D03*
X24175000Y52280000D03*
X14625000Y28780000D03*
X23100000Y17480000D03*
X4430000Y58860000D03*
X22991276Y12052999D03*
X23200000Y21480000D03*
X27490000Y36300000D03*
X5190922Y35008000D03*
X8100000Y54290000D03*
X26300000Y5280000D03*
X2440000Y1940000D03*
X26795000Y31155000D03*
X23200000Y23255000D03*
X20975000Y12030000D03*
X12280000Y7700000D03*
X23100000Y19380000D03*
%TO.N,+1.8V*%
X19025000Y27630000D03*
X24925000Y37105000D03*
%TO.N,VBUS*%
X12350000Y781000D03*
X8251000Y38780000D03*
X8525000Y43580000D03*
%TO.N,+BATT*%
X24325000Y5280000D03*
X16450000Y7255000D03*
%TO.N,Net-(U3-REGN)*%
X8100000Y2510000D03*
X19600000Y780000D03*
%TO.N,Vsys*%
X14500000Y8080000D03*
X4910000Y3370000D03*
X7160000Y6160000D03*
X29199000Y28655000D03*
%TO.N,Net-(IC1-PON)*%
X6310000Y18100000D03*
X2275000Y20530000D03*
%TO.N,SDA*%
X18925000Y1955000D03*
X12290000Y49700000D03*
X5950000Y14780000D03*
X10079986Y34573544D03*
%TO.N,SCL*%
X6976000Y13680000D03*
X10538565Y33305892D03*
X13085000Y48430000D03*
X17425000Y2605000D03*
%TO.N,MAX_INT*%
X20475000Y39405000D03*
X14600000Y39205000D03*
%TO.N,Net-(U9-IO0)*%
X800000Y51440000D03*
X21200000Y57262000D03*
%TO.N,MAX_CS_1_8*%
X16825000Y35055000D03*
X20203067Y34931994D03*
%TO.N,MAX_SCLK_1_8*%
X19013235Y34331994D03*
X16902354Y34258749D03*
%TO.N,INT_BAT*%
X27675000Y9230000D03*
X26450000Y56130000D03*
%TO.N,CE_BAT*%
X17450000Y5020000D03*
X12709000Y38772423D03*
%TO.N,PSEL_BAT*%
X14375000Y2180000D03*
X12000000Y54780000D03*
%TO.N,MAX_INT_1_8*%
X20740089Y35524958D03*
%TO.N,ICM_FSYNC*%
X5956886Y29286713D03*
X12180000Y53530000D03*
%TO.N,GPS_TX*%
X16625000Y45880000D03*
X20950000Y13955000D03*
%TO.N,ICM_INT2*%
X8238221Y34206000D03*
X11970000Y51050000D03*
%TO.N,GPS_RST*%
X25010000Y28530000D03*
X26375000Y48430000D03*
%TO.N,ICM_INT*%
X9340784Y52283250D03*
X4875000Y36656000D03*
%TO.N,GPS_PP1*%
X26075000Y50980000D03*
X22735936Y13992407D03*
%TO.N,FLASH_SCLK*%
X25450000Y15930000D03*
X21951316Y42830000D03*
%TO.N,GPS_SEL*%
X10125000Y11130000D03*
X26375000Y47130000D03*
%TO.N,Net-(J4-Pin_3)*%
X26500000Y53510000D03*
%TO.N,GPS_RX*%
X16600000Y47080000D03*
X21875000Y13980000D03*
%TO.N,ICM_AD0*%
X22675000Y57280000D03*
X9057335Y36950665D03*
%TO.N,Net-(J4-Pin_2)*%
X25560000Y54830000D03*
%TO.N,GPS_FIX*%
X26425000Y38905000D03*
X26174265Y14155735D03*
%TO.N,Net-(U1-PD2_IN)*%
X18025000Y27255000D03*
X19925000Y29955000D03*
%TO.N,Net-(D2-RK)*%
X13620579Y30961000D03*
%TO.N,Net-(D1-K)*%
X13475000Y23530000D03*
%TO.N,Net-(IC1-VCC)*%
X6890000Y16980000D03*
X4117506Y18664528D03*
%TO.N,Net-(U1-PD1_IN)*%
X16200000Y21480000D03*
%TO.N,PD_GND*%
X18500000Y25155000D03*
%TO.N,FLASH_SID0*%
X21215735Y42325735D03*
X24175827Y15680418D03*
%TO.N,FLASH_SID3*%
X26550735Y16229265D03*
X22352316Y43522243D03*
%TO.N,FLASH_CS*%
X27998000Y26480000D03*
X25342100Y42980000D03*
%TO.N,FLASH_SID1*%
X24775000Y38781000D03*
X27375000Y26993500D03*
%TO.N,FLASH_SID2*%
X26103000Y26580000D03*
X25581574Y38739044D03*
%TO.N,+3.3V_LED*%
X13175000Y24680000D03*
X13625000Y29730000D03*
X14231885Y32655999D03*
X16075000Y11730000D03*
X16344496Y32762087D03*
X14350000Y14130000D03*
X16375000Y16330000D03*
X13400000Y22580000D03*
X16486765Y30955000D03*
%TO.N,Net-(D2-GK)*%
X11200003Y24630000D03*
X15600000Y17180000D03*
X10978456Y27558456D03*
X16450000Y29730000D03*
%TO.N,Net-(D2-BK)*%
X11749899Y31211001D03*
%TO.N,Net-(D3-RK)*%
X7138883Y27070353D03*
X13525000Y16280000D03*
X10350000Y21691027D03*
%TO.N,Net-(D3-BK)*%
X15025000Y13480000D03*
%TO.N,GPIO1*%
X14375000Y34655000D03*
X10950000Y28530000D03*
X10600003Y23530000D03*
%TD*%
D18*
%TO.N,GPIO1*%
X10600003Y23752732D02*
X10575000Y23777735D01*
X10575000Y23777735D02*
X10575000Y26955000D01*
X10600003Y23530000D02*
X10600003Y23752732D01*
X10377456Y28007456D02*
X10822369Y28452369D01*
X10377456Y27152544D02*
X10377456Y28007456D01*
X10822369Y28452369D02*
X10872369Y28452369D01*
X10872369Y28452369D02*
X10950000Y28530000D01*
X10575000Y26955000D02*
X10377456Y27152544D01*
%TO.N,Net-(D2-GK)*%
X10978456Y24851547D02*
X11200003Y24630000D01*
X10978456Y27558456D02*
X10978456Y24851547D01*
D19*
%TO.N,VBUS*%
X1161000Y39166000D02*
X7865000Y39166000D01*
X7865000Y39166000D02*
X8251000Y38780000D01*
X801000Y1829000D02*
X801000Y38806000D01*
X8525000Y43580000D02*
X8525000Y39054000D01*
X8525000Y39054000D02*
X8251000Y38780000D01*
X801000Y38806000D02*
X1161000Y39166000D01*
X1849000Y781000D02*
X801000Y1829000D01*
X12350000Y781000D02*
X1849000Y781000D01*
D20*
%TO.N,Net-(IC1-PON)*%
X2275000Y20530000D02*
X2200000Y20530000D01*
%TD*%
%TA.AperFunction,Conductor*%
%TO.N,Vsys*%
G36*
X10140623Y8554999D02*
G01*
X10148212Y8554500D01*
X10152525Y8554500D01*
X10301804Y8554500D01*
X10309380Y8554998D01*
X15056479Y8554960D01*
X15123515Y8535275D01*
X15169270Y8482471D01*
X15180472Y8430158D01*
X15177272Y7935626D01*
X15157154Y7868715D01*
X15113854Y7828233D01*
X15087787Y7813639D01*
X15087780Y7813634D01*
X15034651Y7768268D01*
X15002783Y7735718D01*
X14955935Y7647718D01*
X14935766Y7580825D01*
X14924895Y7508921D01*
X14920838Y6949425D01*
X14900667Y6882530D01*
X14847533Y6837159D01*
X14778304Y6827717D01*
X14740737Y6840872D01*
X14740700Y6840780D01*
X14739059Y6841460D01*
X14734840Y6842937D01*
X14733186Y6843892D01*
X14688886Y6855762D01*
X14605892Y6878000D01*
X14474108Y6878000D01*
X14346812Y6843892D01*
X14232686Y6778000D01*
X14232683Y6777998D01*
X14139502Y6684817D01*
X14139500Y6684814D01*
X14115903Y6643942D01*
X14097387Y6611872D01*
X14046820Y6563657D01*
X13978212Y6550435D01*
X13913348Y6576403D01*
X13882613Y6611872D01*
X13864098Y6643941D01*
X13840500Y6684814D01*
X13747314Y6778000D01*
X13661202Y6827717D01*
X13633187Y6843892D01*
X13569539Y6860946D01*
X13505892Y6878000D01*
X13374108Y6878000D01*
X13246812Y6843892D01*
X13132686Y6778000D01*
X13132683Y6777998D01*
X13039502Y6684817D01*
X13039500Y6684814D01*
X12973608Y6570688D01*
X12939500Y6443392D01*
X12939500Y6311609D01*
X12973608Y6184313D01*
X12997387Y6143128D01*
X13039500Y6070186D01*
X13132686Y5977000D01*
X13205628Y5934887D01*
X13253843Y5884320D01*
X13267065Y5815712D01*
X13241097Y5750848D01*
X13205628Y5720113D01*
X13132686Y5678000D01*
X13132683Y5677998D01*
X13039502Y5584817D01*
X13039500Y5584814D01*
X12973608Y5470688D01*
X12953026Y5393872D01*
X12939500Y5343392D01*
X12939500Y5211608D01*
X12951685Y5166133D01*
X12973608Y5084313D01*
X12988317Y5058837D01*
X13039500Y4970186D01*
X13132686Y4877000D01*
X13205628Y4834887D01*
X13253843Y4784320D01*
X13267065Y4715712D01*
X13241097Y4650848D01*
X13205628Y4620113D01*
X13132686Y4578000D01*
X13132683Y4577998D01*
X13039502Y4484817D01*
X13039500Y4484814D01*
X12973608Y4370688D01*
X12939500Y4243392D01*
X12939500Y4111609D01*
X12973608Y3984313D01*
X12997387Y3943128D01*
X13039500Y3870186D01*
X13132686Y3777000D01*
X13246814Y3711108D01*
X13374108Y3677000D01*
X13374110Y3677000D01*
X13505890Y3677000D01*
X13505892Y3677000D01*
X13633186Y3711108D01*
X13747314Y3777000D01*
X13840500Y3870186D01*
X13882613Y3943129D01*
X13933180Y3991344D01*
X14001787Y4004567D01*
X14066652Y3978599D01*
X14097386Y3943129D01*
X14139500Y3870186D01*
X14232686Y3777000D01*
X14346814Y3711108D01*
X14474108Y3677000D01*
X14474110Y3677000D01*
X14605889Y3677000D01*
X14605892Y3677000D01*
X14733186Y3711108D01*
X14733191Y3711111D01*
X14740409Y3713045D01*
X14810259Y3711382D01*
X14868122Y3672220D01*
X14895626Y3607992D01*
X14896500Y3592371D01*
X14890263Y2732049D01*
X14870093Y2665154D01*
X14816958Y2619783D01*
X14747730Y2610341D01*
X14704266Y2625561D01*
X14587488Y2692983D01*
X14587489Y2692983D01*
X14576006Y2696060D01*
X14447475Y2730500D01*
X14302525Y2730500D01*
X14173993Y2696060D01*
X14162511Y2692983D01*
X14036988Y2620512D01*
X14036982Y2620507D01*
X13934493Y2518018D01*
X13934488Y2518012D01*
X13862017Y2392489D01*
X13862016Y2392485D01*
X13824500Y2252475D01*
X13824500Y2107525D01*
X13851636Y2006253D01*
X13862017Y1967512D01*
X13934488Y1841989D01*
X13934490Y1841987D01*
X13934491Y1841985D01*
X14036985Y1739491D01*
X14036986Y1739490D01*
X14036988Y1739489D01*
X14162511Y1667018D01*
X14162512Y1667018D01*
X14162515Y1667016D01*
X14302525Y1629500D01*
X14302528Y1629500D01*
X14447472Y1629500D01*
X14447475Y1629500D01*
X14587485Y1667016D01*
X14587487Y1667018D01*
X14587489Y1667018D01*
X14587490Y1667019D01*
X14590043Y1668493D01*
X14696214Y1729792D01*
X14702479Y1731312D01*
X14707378Y1735505D01*
X14736015Y1739448D01*
X14764113Y1746265D01*
X14770207Y1744156D01*
X14776595Y1745035D01*
X14802820Y1732869D01*
X14830140Y1723413D01*
X14834125Y1718346D01*
X14839976Y1715631D01*
X14855461Y1691216D01*
X14873331Y1668493D01*
X14874806Y1660715D01*
X14877398Y1656628D01*
X14882212Y1621664D01*
X14882208Y1620995D01*
X14882207Y1620837D01*
X14875030Y630858D01*
X14874834Y603874D01*
X14873130Y603887D01*
X14858236Y542498D01*
X14807668Y494283D01*
X14750850Y480500D01*
X13001000Y480500D01*
X12933961Y500185D01*
X12888206Y552989D01*
X12878262Y622147D01*
X12881221Y636580D01*
X12900500Y708525D01*
X12900500Y853475D01*
X12862984Y993485D01*
X12790509Y1119015D01*
X12688015Y1221509D01*
X12688013Y1221510D01*
X12688011Y1221512D01*
X12562488Y1293983D01*
X12562489Y1293983D01*
X12551006Y1297060D01*
X12422475Y1331500D01*
X12422472Y1331500D01*
X10504526Y1331500D01*
X10437487Y1351185D01*
X10391732Y1403989D01*
X10381788Y1473147D01*
X10384748Y1487584D01*
X10413735Y1595760D01*
X10413735Y1740710D01*
X10376219Y1880720D01*
X10355755Y1916164D01*
X10303746Y2006247D01*
X10303741Y2006253D01*
X10201252Y2108742D01*
X10201246Y2108747D01*
X10075723Y2181218D01*
X10075724Y2181218D01*
X10064241Y2184295D01*
X9935710Y2218735D01*
X9790760Y2218735D01*
X9662228Y2184295D01*
X9650746Y2181218D01*
X9525223Y2108747D01*
X9525217Y2108742D01*
X9422728Y2006253D01*
X9422723Y2006247D01*
X9350252Y1880724D01*
X9350251Y1880720D01*
X9312735Y1740710D01*
X9312735Y1595760D01*
X9341718Y1487592D01*
X9340056Y1417744D01*
X9300894Y1359881D01*
X9236665Y1332377D01*
X9221944Y1331500D01*
X2909386Y1331500D01*
X2842347Y1351185D01*
X2796592Y1403989D01*
X2786648Y1473147D01*
X2815673Y1536703D01*
X2821705Y1543181D01*
X2880509Y1601985D01*
X2952984Y1727515D01*
X2990500Y1867525D01*
X2990500Y2012475D01*
X2952984Y2152485D01*
X2946053Y2164489D01*
X2880511Y2278012D01*
X2880506Y2278018D01*
X2778017Y2380507D01*
X2778011Y2380512D01*
X2652488Y2452983D01*
X2652489Y2452983D01*
X2641006Y2456060D01*
X2512475Y2490500D01*
X2367525Y2490500D01*
X2238993Y2456060D01*
X2227511Y2452983D01*
X2101988Y2380512D01*
X2101982Y2380507D01*
X1999493Y2278018D01*
X1999488Y2278012D01*
X1927017Y2152489D01*
X1927016Y2152485D01*
X1889500Y2012475D01*
X1889500Y1867525D01*
X1897285Y1838468D01*
X1895623Y1768620D01*
X1856461Y1710757D01*
X1792232Y1683253D01*
X1723330Y1694839D01*
X1689830Y1718695D01*
X1387819Y2020706D01*
X1354334Y2082029D01*
X1351500Y2108387D01*
X1351500Y2677475D01*
X5599500Y2677475D01*
X5599500Y2532525D01*
X5628614Y2423872D01*
X5637017Y2392512D01*
X5709488Y2266989D01*
X5709490Y2266987D01*
X5709491Y2266985D01*
X5811985Y2164491D01*
X5811986Y2164490D01*
X5811988Y2164489D01*
X5937511Y2092018D01*
X5937512Y2092018D01*
X5937515Y2092016D01*
X6077525Y2054500D01*
X6077528Y2054500D01*
X6222472Y2054500D01*
X6222475Y2054500D01*
X6362485Y2092016D01*
X6488015Y2164491D01*
X6590509Y2266985D01*
X6662984Y2392515D01*
X6700500Y2532525D01*
X6700500Y2582475D01*
X7549500Y2582475D01*
X7549500Y2437525D01*
X7578284Y2330104D01*
X7587017Y2297512D01*
X7659488Y2171989D01*
X7659490Y2171987D01*
X7659491Y2171985D01*
X7761985Y2069491D01*
X7761986Y2069490D01*
X7761988Y2069489D01*
X7887511Y1997018D01*
X7887512Y1997018D01*
X7887515Y1997016D01*
X8027525Y1959500D01*
X8027528Y1959500D01*
X8172472Y1959500D01*
X8172475Y1959500D01*
X8312485Y1997016D01*
X8438015Y2069491D01*
X8540509Y2171985D01*
X8612984Y2297515D01*
X8650500Y2437525D01*
X8650500Y2582475D01*
X8612984Y2722485D01*
X8607462Y2732049D01*
X8540511Y2848012D01*
X8540506Y2848018D01*
X8438017Y2950507D01*
X8438011Y2950512D01*
X8312488Y3022983D01*
X8312489Y3022983D01*
X8301006Y3026060D01*
X8172475Y3060500D01*
X8027525Y3060500D01*
X7898993Y3026060D01*
X7887511Y3022983D01*
X7761988Y2950512D01*
X7761982Y2950507D01*
X7659493Y2848018D01*
X7659488Y2848012D01*
X7587017Y2722489D01*
X7587016Y2722485D01*
X7549500Y2582475D01*
X6700500Y2582475D01*
X6700500Y2677475D01*
X6662984Y2817485D01*
X6645357Y2848015D01*
X6590511Y2943012D01*
X6590506Y2943018D01*
X6488017Y3045507D01*
X6488011Y3045512D01*
X6362488Y3117983D01*
X6362489Y3117983D01*
X6351006Y3121060D01*
X6222475Y3155500D01*
X6077525Y3155500D01*
X5948993Y3121060D01*
X5937511Y3117983D01*
X5811988Y3045512D01*
X5811982Y3045507D01*
X5709493Y2943018D01*
X5709488Y2943012D01*
X5637017Y2817489D01*
X5637016Y2817485D01*
X5599500Y2677475D01*
X1351500Y2677475D01*
X1351500Y6781000D01*
X1371185Y6848039D01*
X1423989Y6893794D01*
X1475500Y6905000D01*
X3285744Y6905000D01*
X3352783Y6885315D01*
X3393131Y6843000D01*
X3399488Y6831989D01*
X3399490Y6831986D01*
X3399491Y6831985D01*
X3501985Y6729491D01*
X3501986Y6729490D01*
X3501988Y6729489D01*
X3627511Y6657018D01*
X3627512Y6657018D01*
X3627515Y6657016D01*
X3767525Y6619500D01*
X3767528Y6619500D01*
X3912472Y6619500D01*
X3912475Y6619500D01*
X4052485Y6657016D01*
X4178015Y6729491D01*
X4280509Y6831985D01*
X4285809Y6841164D01*
X4286869Y6843000D01*
X4337436Y6891216D01*
X4394256Y6905000D01*
X9950000Y6905000D01*
X9950673Y6949425D01*
X9963143Y7772475D01*
X11729500Y7772475D01*
X11729500Y7627525D01*
X11761523Y7508015D01*
X11767017Y7487512D01*
X11839488Y7361989D01*
X11839490Y7361987D01*
X11839491Y7361985D01*
X11941985Y7259491D01*
X11941986Y7259490D01*
X11941988Y7259489D01*
X12067511Y7187018D01*
X12067512Y7187018D01*
X12067515Y7187016D01*
X12207525Y7149500D01*
X12207528Y7149500D01*
X12352472Y7149500D01*
X12352475Y7149500D01*
X12492485Y7187016D01*
X12618015Y7259491D01*
X12720509Y7361985D01*
X12792984Y7487515D01*
X12830500Y7627525D01*
X12830500Y7772475D01*
X12792984Y7912485D01*
X12779623Y7935626D01*
X12720511Y8038012D01*
X12720506Y8038018D01*
X12618017Y8140507D01*
X12618011Y8140512D01*
X12492488Y8212983D01*
X12492489Y8212983D01*
X12481006Y8216060D01*
X12352475Y8250500D01*
X12207525Y8250500D01*
X12078993Y8216060D01*
X12067511Y8212983D01*
X11941988Y8140512D01*
X11941982Y8140507D01*
X11839493Y8038018D01*
X11839488Y8038012D01*
X11767017Y7912489D01*
X11767016Y7912485D01*
X11729500Y7772475D01*
X9963143Y7772475D01*
X9973149Y8432881D01*
X9993847Y8499612D01*
X10047338Y8544562D01*
X10097130Y8555000D01*
X10140623Y8554999D01*
G37*
%TD.AperFunction*%
%TD*%
%TA.AperFunction,Conductor*%
%TO.N,+3.3V_LED*%
G36*
X16721292Y33102619D02*
G01*
X16761647Y33094595D01*
X16769342Y33091409D01*
X16774495Y33091318D01*
X16806330Y33076095D01*
X16830201Y33060152D01*
X16864406Y33025964D01*
X16880358Y33002108D01*
X16898886Y32957431D01*
X16906932Y32917081D01*
X16909326Y32892899D01*
X16910714Y30314511D01*
X16891066Y30247461D01*
X16838286Y30201677D01*
X16769133Y30191697D01*
X16724714Y30207057D01*
X16662488Y30242983D01*
X16662489Y30242983D01*
X16645777Y30247461D01*
X16522475Y30280500D01*
X16377525Y30280500D01*
X16254223Y30247461D01*
X16237511Y30242983D01*
X16111988Y30170512D01*
X16111982Y30170507D01*
X16009493Y30068018D01*
X16009488Y30068012D01*
X15937017Y29942489D01*
X15937016Y29942485D01*
X15899500Y29802475D01*
X15899500Y29657525D01*
X15937016Y29517515D01*
X15937017Y29517512D01*
X16009488Y29391989D01*
X16009490Y29391987D01*
X16009491Y29391985D01*
X16111985Y29289491D01*
X16111986Y29289490D01*
X16111988Y29289489D01*
X16237511Y29217018D01*
X16237512Y29217018D01*
X16237515Y29217016D01*
X16377525Y29179500D01*
X16377528Y29179500D01*
X16522472Y29179500D01*
X16522475Y29179500D01*
X16662485Y29217016D01*
X16725343Y29253308D01*
X16793241Y29269781D01*
X16859268Y29246930D01*
X16902460Y29192009D01*
X16911343Y29145988D01*
X16915296Y21804911D01*
X16895648Y21737861D01*
X16842868Y21692077D01*
X16773715Y21682097D01*
X16710144Y21711087D01*
X16683909Y21742844D01*
X16640509Y21818015D01*
X16538015Y21920509D01*
X16538013Y21920510D01*
X16538011Y21920512D01*
X16412488Y21992983D01*
X16412489Y21992983D01*
X16401006Y21996060D01*
X16272475Y22030500D01*
X16127525Y22030500D01*
X15998993Y21996060D01*
X15987511Y21992983D01*
X15861988Y21920512D01*
X15861982Y21920507D01*
X15759493Y21818018D01*
X15759488Y21818012D01*
X15687017Y21692489D01*
X15682583Y21675945D01*
X15649500Y21552475D01*
X15649500Y21407525D01*
X15683885Y21279201D01*
X15687017Y21267512D01*
X15759488Y21141989D01*
X15759490Y21141987D01*
X15759491Y21141985D01*
X15861985Y21039491D01*
X15861986Y21039490D01*
X15861988Y21039489D01*
X15987511Y20967018D01*
X15987512Y20967018D01*
X15987515Y20967016D01*
X16127525Y20929500D01*
X16127528Y20929500D01*
X16272472Y20929500D01*
X16272475Y20929500D01*
X16412485Y20967016D01*
X16538015Y21039491D01*
X16640509Y21141985D01*
X16684259Y21217763D01*
X16734826Y21265978D01*
X16803433Y21279201D01*
X16868298Y21253232D01*
X16908826Y21196318D01*
X16915646Y21155829D01*
X16921038Y11142327D01*
X16918667Y11118127D01*
X16910654Y11077742D01*
X16892150Y11033018D01*
X16876204Y11009136D01*
X16841993Y10974907D01*
X16818122Y10958949D01*
X16773407Y10940419D01*
X16733026Y10932384D01*
X16708827Y10930000D01*
X12829230Y10930000D01*
X12804998Y10932391D01*
X12779559Y10937460D01*
X12764565Y10940448D01*
X12719806Y10959024D01*
X12695915Y10975022D01*
X12661692Y11009337D01*
X12645759Y11033269D01*
X12627303Y11078079D01*
X12619353Y11118543D01*
X12617029Y11142761D01*
X12623518Y13552475D01*
X14474500Y13552475D01*
X14474500Y13407525D01*
X14512016Y13267515D01*
X14512017Y13267512D01*
X14584488Y13141989D01*
X14584490Y13141987D01*
X14584491Y13141985D01*
X14686985Y13039491D01*
X14686986Y13039490D01*
X14686988Y13039489D01*
X14812511Y12967018D01*
X14812512Y12967018D01*
X14812515Y12967016D01*
X14952525Y12929500D01*
X14952528Y12929500D01*
X15097472Y12929500D01*
X15097475Y12929500D01*
X15237485Y12967016D01*
X15363015Y13039491D01*
X15465509Y13141985D01*
X15537984Y13267515D01*
X15575500Y13407525D01*
X15575500Y13552475D01*
X15537984Y13692485D01*
X15465509Y13818015D01*
X15363015Y13920509D01*
X15363013Y13920510D01*
X15363011Y13920512D01*
X15237488Y13992983D01*
X15237489Y13992983D01*
X15226006Y13996060D01*
X15097475Y14030500D01*
X14952525Y14030500D01*
X14823993Y13996060D01*
X14812511Y13992983D01*
X14686988Y13920512D01*
X14686982Y13920507D01*
X14584493Y13818018D01*
X14584488Y13818012D01*
X14512017Y13692489D01*
X14512016Y13692485D01*
X14474500Y13552475D01*
X12623518Y13552475D01*
X12631057Y16352475D01*
X12974500Y16352475D01*
X12974500Y16207525D01*
X13012016Y16067515D01*
X13012017Y16067512D01*
X13084488Y15941989D01*
X13084490Y15941987D01*
X13084491Y15941985D01*
X13186985Y15839491D01*
X13186986Y15839490D01*
X13186988Y15839489D01*
X13312511Y15767018D01*
X13312512Y15767018D01*
X13312515Y15767016D01*
X13452525Y15729500D01*
X13452528Y15729500D01*
X13597472Y15729500D01*
X13597475Y15729500D01*
X13737485Y15767016D01*
X13863015Y15839491D01*
X13965509Y15941985D01*
X14037984Y16067515D01*
X14075500Y16207525D01*
X14075500Y16352475D01*
X14037984Y16492485D01*
X13965509Y16618015D01*
X13863015Y16720509D01*
X13863013Y16720510D01*
X13863011Y16720512D01*
X13737488Y16792983D01*
X13737489Y16792983D01*
X13726006Y16796060D01*
X13597475Y16830500D01*
X13452525Y16830500D01*
X13323993Y16796060D01*
X13312511Y16792983D01*
X13186988Y16720512D01*
X13186982Y16720507D01*
X13084493Y16618018D01*
X13084488Y16618012D01*
X13012017Y16492489D01*
X13012016Y16492485D01*
X12974500Y16352475D01*
X12631057Y16352475D01*
X12633480Y17252475D01*
X15049500Y17252475D01*
X15049500Y17107525D01*
X15087016Y16967515D01*
X15087017Y16967512D01*
X15159488Y16841989D01*
X15159490Y16841987D01*
X15159491Y16841985D01*
X15261985Y16739491D01*
X15261986Y16739490D01*
X15261988Y16739489D01*
X15387511Y16667018D01*
X15387512Y16667018D01*
X15387515Y16667016D01*
X15527525Y16629500D01*
X15527528Y16629500D01*
X15672472Y16629500D01*
X15672475Y16629500D01*
X15812485Y16667016D01*
X15938015Y16739491D01*
X16040509Y16841985D01*
X16112984Y16967515D01*
X16150500Y17107525D01*
X16150500Y17252475D01*
X16112984Y17392485D01*
X16040509Y17518015D01*
X15938015Y17620509D01*
X15938013Y17620510D01*
X15938011Y17620512D01*
X15812488Y17692983D01*
X15812489Y17692983D01*
X15801006Y17696060D01*
X15672475Y17730500D01*
X15527525Y17730500D01*
X15398993Y17696060D01*
X15387511Y17692983D01*
X15261988Y17620512D01*
X15261982Y17620507D01*
X15159493Y17518018D01*
X15159488Y17518012D01*
X15087017Y17392489D01*
X15087016Y17392485D01*
X15049500Y17252475D01*
X12633480Y17252475D01*
X12650578Y23602475D01*
X12924500Y23602475D01*
X12924500Y23457525D01*
X12962016Y23317515D01*
X12962017Y23317512D01*
X13034488Y23191989D01*
X13034490Y23191987D01*
X13034491Y23191985D01*
X13136985Y23089491D01*
X13136986Y23089490D01*
X13136988Y23089489D01*
X13262511Y23017018D01*
X13262512Y23017018D01*
X13262515Y23017016D01*
X13402525Y22979500D01*
X13402528Y22979500D01*
X13547472Y22979500D01*
X13547475Y22979500D01*
X13687485Y23017016D01*
X13813015Y23089491D01*
X13915509Y23191985D01*
X13987984Y23317515D01*
X14025500Y23457525D01*
X14025500Y23602475D01*
X13987984Y23742485D01*
X13915509Y23868015D01*
X13813015Y23970509D01*
X13813013Y23970510D01*
X13813011Y23970512D01*
X13687488Y24042983D01*
X13687489Y24042983D01*
X13676006Y24046060D01*
X13547475Y24080500D01*
X13402525Y24080500D01*
X13273993Y24046060D01*
X13262511Y24042983D01*
X13136988Y23970512D01*
X13136982Y23970507D01*
X13034493Y23868018D01*
X13034488Y23868012D01*
X12962017Y23742489D01*
X12962016Y23742485D01*
X12924500Y23602475D01*
X12650578Y23602475D01*
X12662908Y28181665D01*
X12682773Y28248651D01*
X12735700Y28294264D01*
X12770729Y28304271D01*
X12772467Y28304500D01*
X12772475Y28304500D01*
X12912485Y28342016D01*
X13038015Y28414491D01*
X13140509Y28516985D01*
X13212984Y28642515D01*
X13250500Y28782525D01*
X13250500Y28852475D01*
X14074500Y28852475D01*
X14074500Y28707525D01*
X14112016Y28567515D01*
X14112017Y28567512D01*
X14184488Y28441989D01*
X14184490Y28441987D01*
X14184491Y28441985D01*
X14286985Y28339491D01*
X14286986Y28339490D01*
X14286988Y28339489D01*
X14412511Y28267018D01*
X14412512Y28267018D01*
X14412515Y28267016D01*
X14552525Y28229500D01*
X14552528Y28229500D01*
X14697472Y28229500D01*
X14697475Y28229500D01*
X14837485Y28267016D01*
X14963015Y28339491D01*
X15065509Y28441985D01*
X15137984Y28567515D01*
X15175500Y28707525D01*
X15175500Y28852475D01*
X15137984Y28992485D01*
X15094680Y29067489D01*
X15065511Y29118012D01*
X15065506Y29118018D01*
X14963017Y29220507D01*
X14963011Y29220512D01*
X14837488Y29292983D01*
X14837489Y29292983D01*
X14826006Y29296060D01*
X14697475Y29330500D01*
X14552525Y29330500D01*
X14423993Y29296060D01*
X14412511Y29292983D01*
X14286988Y29220512D01*
X14286982Y29220507D01*
X14184493Y29118018D01*
X14184488Y29118012D01*
X14112017Y28992489D01*
X14112016Y28992485D01*
X14074500Y28852475D01*
X13250500Y28852475D01*
X13250500Y28927475D01*
X13212984Y29067485D01*
X13183810Y29118015D01*
X13140511Y29193012D01*
X13140506Y29193018D01*
X13038017Y29295507D01*
X13038011Y29295512D01*
X12912488Y29367983D01*
X12912489Y29367983D01*
X12898613Y29371701D01*
X12772475Y29405500D01*
X12772473Y29405500D01*
X12764624Y29407603D01*
X12765090Y29409346D01*
X12710439Y29433531D01*
X12671976Y29491861D01*
X12666534Y29528527D01*
X12670586Y31033475D01*
X13070079Y31033475D01*
X13070079Y30888525D01*
X13107595Y30748515D01*
X13107596Y30748512D01*
X13180067Y30622989D01*
X13180069Y30622987D01*
X13180070Y30622985D01*
X13282564Y30520491D01*
X13282565Y30520490D01*
X13282567Y30520489D01*
X13408090Y30448018D01*
X13408091Y30448018D01*
X13408094Y30448016D01*
X13548104Y30410500D01*
X13548107Y30410500D01*
X13693051Y30410500D01*
X13693054Y30410500D01*
X13833064Y30448016D01*
X13958594Y30520491D01*
X14061088Y30622985D01*
X14133563Y30748515D01*
X14171079Y30888525D01*
X14171079Y31033475D01*
X14133563Y31173485D01*
X14061088Y31299015D01*
X13958594Y31401509D01*
X13958592Y31401510D01*
X13958590Y31401512D01*
X13833067Y31473983D01*
X13833068Y31473983D01*
X13821585Y31477060D01*
X13693054Y31511500D01*
X13548104Y31511500D01*
X13419572Y31477060D01*
X13408090Y31473983D01*
X13282567Y31401512D01*
X13282561Y31401507D01*
X13180072Y31299018D01*
X13180067Y31299012D01*
X13107596Y31173489D01*
X13107595Y31173485D01*
X13070079Y31033475D01*
X12670586Y31033475D01*
X12674125Y32347983D01*
X12693989Y32414963D01*
X12699752Y32423135D01*
X12703917Y32428564D01*
X12703924Y32428570D01*
X12776399Y32554100D01*
X12813915Y32694110D01*
X12813915Y32839060D01*
X12784481Y32948908D01*
X12786144Y33018756D01*
X12825306Y33076619D01*
X12889535Y33104123D01*
X12904256Y33105000D01*
X16697110Y33105000D01*
X16721292Y33102619D01*
G37*
%TD.AperFunction*%
%TD*%
%TA.AperFunction,Conductor*%
%TO.N,+1.8V*%
G36*
X25124210Y37371820D02*
G01*
X25191130Y37351740D01*
X25236572Y37298667D01*
X25247476Y37247822D01*
X25247476Y35129000D01*
X25227791Y35061961D01*
X25174987Y35016206D01*
X25123476Y35005000D01*
X21290327Y35005000D01*
X21223288Y35024685D01*
X21177533Y35077489D01*
X21167589Y35146647D01*
X21182938Y35190998D01*
X21253073Y35312473D01*
X21290589Y35452483D01*
X21290589Y35597433D01*
X21253073Y35737443D01*
X21180598Y35862973D01*
X21078104Y35965467D01*
X21078102Y35965468D01*
X21078100Y35965470D01*
X20952577Y36037941D01*
X20952578Y36037941D01*
X20941095Y36041018D01*
X20812564Y36075458D01*
X20667614Y36075458D01*
X20539082Y36041018D01*
X20527600Y36037941D01*
X20402077Y35965470D01*
X20402071Y35965465D01*
X20299582Y35862976D01*
X20299577Y35862970D01*
X20227106Y35737447D01*
X20227105Y35737443D01*
X20189589Y35597433D01*
X20189589Y35597431D01*
X20189589Y35593451D01*
X20188638Y35590216D01*
X20188528Y35589373D01*
X20188396Y35589391D01*
X20169904Y35526412D01*
X20117100Y35480657D01*
X20097686Y35473677D01*
X20054890Y35462210D01*
X19990577Y35444977D01*
X19865055Y35372506D01*
X19865049Y35372501D01*
X19762560Y35270012D01*
X19762555Y35270006D01*
X19690084Y35144483D01*
X19690083Y35144479D01*
X19652567Y35004469D01*
X19652567Y34859519D01*
X19690083Y34719509D01*
X19762558Y34593979D01*
X19865052Y34491485D01*
X19955576Y34439221D01*
X19985886Y34421721D01*
X20034102Y34371154D01*
X20047885Y34313955D01*
X20036618Y30629121D01*
X20016729Y30562142D01*
X19963785Y30516549D01*
X19912619Y30505500D01*
X19852525Y30505500D01*
X19723993Y30471060D01*
X19712511Y30467983D01*
X19586988Y30395512D01*
X19586982Y30395507D01*
X19484493Y30293018D01*
X19484488Y30293012D01*
X19412017Y30167489D01*
X19412016Y30167485D01*
X19374500Y30027475D01*
X19374500Y29882525D01*
X19412016Y29742515D01*
X19412017Y29742512D01*
X19484488Y29616989D01*
X19484490Y29616987D01*
X19484491Y29616985D01*
X19586985Y29514491D01*
X19586986Y29514490D01*
X19586988Y29514489D01*
X19712511Y29442018D01*
X19712512Y29442018D01*
X19712515Y29442016D01*
X19852525Y29404500D01*
X19852528Y29404500D01*
X19908494Y29404500D01*
X19975533Y29384815D01*
X20021288Y29332011D01*
X20032493Y29280121D01*
X20025377Y26953242D01*
X20005488Y26886263D01*
X19952544Y26840670D01*
X19901451Y26829621D01*
X18629483Y26828871D01*
X18562432Y26848516D01*
X18516646Y26901293D01*
X18506662Y26970446D01*
X18522025Y27014874D01*
X18537982Y27042512D01*
X18537981Y27042512D01*
X18537984Y27042515D01*
X18575500Y27182525D01*
X18575500Y27327475D01*
X18537984Y27467485D01*
X18465509Y27593015D01*
X18363015Y27695509D01*
X18363013Y27695510D01*
X18363011Y27695512D01*
X18237488Y27767983D01*
X18237489Y27767983D01*
X18226006Y27771060D01*
X18097475Y27805500D01*
X17952525Y27805500D01*
X17823993Y27771060D01*
X17812511Y27767983D01*
X17686988Y27695512D01*
X17686982Y27695507D01*
X17584493Y27593018D01*
X17584488Y27593012D01*
X17512017Y27467489D01*
X17512016Y27467485D01*
X17474500Y27327475D01*
X17474500Y27182525D01*
X17512016Y27042515D01*
X17512017Y27042513D01*
X17528388Y27014157D01*
X17544860Y26946257D01*
X17522007Y26880230D01*
X17467085Y26837040D01*
X17421073Y26828158D01*
X17292097Y26828082D01*
X17225046Y26847727D01*
X17179260Y26900504D01*
X17168024Y26952015D01*
X17166843Y29146126D01*
X17162212Y29194411D01*
X17153329Y29240432D01*
X17148448Y29261074D01*
X17103294Y29349952D01*
X17060102Y29404873D01*
X17028868Y29438022D01*
X17028863Y29438025D01*
X17021929Y29443545D01*
X17024002Y29446151D01*
X16987182Y29485256D01*
X16974391Y29553945D01*
X16977976Y29573466D01*
X17000500Y29657525D01*
X17000500Y29802475D01*
X16976728Y29891193D01*
X16977094Y29906599D01*
X16972519Y29921315D01*
X16977909Y29940814D01*
X16978391Y29961039D01*
X16981400Y29965682D01*
X17811293Y29965682D01*
X17811293Y29820732D01*
X17848809Y29680722D01*
X17848810Y29680719D01*
X17921281Y29555196D01*
X17921283Y29555194D01*
X17921284Y29555192D01*
X18023778Y29452698D01*
X18023779Y29452697D01*
X18023781Y29452696D01*
X18149304Y29380225D01*
X18149305Y29380225D01*
X18149308Y29380223D01*
X18289318Y29342707D01*
X18289321Y29342707D01*
X18434265Y29342707D01*
X18434268Y29342707D01*
X18574278Y29380223D01*
X18699808Y29452698D01*
X18802302Y29555192D01*
X18874777Y29680722D01*
X18912293Y29820732D01*
X18912293Y29965682D01*
X18874777Y30105692D01*
X18839098Y30167489D01*
X18802304Y30231219D01*
X18802299Y30231225D01*
X18699810Y30333714D01*
X18699804Y30333719D01*
X18574281Y30406190D01*
X18574282Y30406190D01*
X18562799Y30409267D01*
X18434268Y30443707D01*
X18289318Y30443707D01*
X18160786Y30409267D01*
X18149304Y30406190D01*
X18023781Y30333719D01*
X18023775Y30333714D01*
X17921286Y30231225D01*
X17921281Y30231219D01*
X17848810Y30105696D01*
X17848809Y30105692D01*
X17811293Y29965682D01*
X16981400Y29965682D01*
X16987300Y29974784D01*
X16991137Y29988659D01*
X17012689Y30013947D01*
X17013823Y30015696D01*
X17014454Y30016262D01*
X17058487Y30054457D01*
X17090096Y30087251D01*
X17136256Y30175612D01*
X17155904Y30242662D01*
X17166214Y30314649D01*
X17165506Y31629699D01*
X17797500Y31629699D01*
X17797500Y31530301D01*
X17823226Y31434291D01*
X17872925Y31348210D01*
X17943210Y31277925D01*
X18029291Y31228226D01*
X18125301Y31202500D01*
X18125304Y31202500D01*
X18224696Y31202500D01*
X18224699Y31202500D01*
X18320709Y31228226D01*
X18320718Y31228232D01*
X18327545Y31231058D01*
X18397015Y31238528D01*
X18422455Y31231058D01*
X18429283Y31228231D01*
X18429291Y31228226D01*
X18525301Y31202500D01*
X18525304Y31202500D01*
X18624696Y31202500D01*
X18624699Y31202500D01*
X18720709Y31228226D01*
X18806790Y31277925D01*
X18877075Y31348210D01*
X18926774Y31434291D01*
X18952500Y31530301D01*
X18952500Y31629699D01*
X18926774Y31725709D01*
X18877075Y31811790D01*
X18806790Y31882075D01*
X18720709Y31931774D01*
X18624699Y31957500D01*
X18525301Y31957500D01*
X18457812Y31939417D01*
X18429286Y31931773D01*
X18422448Y31928940D01*
X18352978Y31921474D01*
X18327552Y31928940D01*
X18320713Y31931773D01*
X18312839Y31933883D01*
X18224699Y31957500D01*
X18125301Y31957500D01*
X18029291Y31931774D01*
X18029289Y31931774D01*
X18029289Y31931773D01*
X17943210Y31882075D01*
X17943207Y31882073D01*
X17872927Y31811793D01*
X17872925Y31811790D01*
X17823226Y31725709D01*
X17797500Y31629699D01*
X17165506Y31629699D01*
X17164826Y32893037D01*
X17163583Y32918070D01*
X17161189Y32942252D01*
X17157499Y32967045D01*
X17149453Y33007395D01*
X17134896Y33055307D01*
X17116368Y33099984D01*
X17113898Y33104600D01*
X17092746Y33144135D01*
X17076799Y33167983D01*
X17045028Y33206674D01*
X17045018Y33206685D01*
X17010821Y33240864D01*
X16972110Y33272619D01*
X16972108Y33272620D01*
X16972106Y33272622D01*
X16948235Y33288565D01*
X16916553Y33306597D01*
X16884685Y33321836D01*
X16876430Y33325604D01*
X16875755Y33325828D01*
X16861476Y33329914D01*
X16859379Y33330664D01*
X16811489Y33345185D01*
X16811465Y33345192D01*
X16771137Y33353210D01*
X16771096Y33353217D01*
X16746332Y33356889D01*
X16746327Y33356890D01*
X16722152Y33359270D01*
X16713309Y33359705D01*
X16697110Y33360500D01*
X12904256Y33360500D01*
X12904248Y33360500D01*
X12889486Y33360061D01*
X12821891Y33377744D01*
X12774587Y33429165D01*
X12761801Y33483710D01*
X12758873Y34727475D01*
X13824500Y34727475D01*
X13824500Y34582525D01*
X13854320Y34471238D01*
X13862017Y34442512D01*
X13934488Y34316989D01*
X13934490Y34316987D01*
X13934491Y34316985D01*
X14036985Y34214491D01*
X14036986Y34214490D01*
X14036988Y34214489D01*
X14162511Y34142018D01*
X14162512Y34142018D01*
X14162515Y34142016D01*
X14302525Y34104500D01*
X14302528Y34104500D01*
X14447472Y34104500D01*
X14447475Y34104500D01*
X14587485Y34142016D01*
X14713015Y34214491D01*
X14815509Y34316985D01*
X14887984Y34442515D01*
X14925500Y34582525D01*
X14925500Y34727475D01*
X14887984Y34867485D01*
X14821565Y34982525D01*
X14815511Y34993012D01*
X14815506Y34993018D01*
X14713017Y35095507D01*
X14713011Y35095512D01*
X14657650Y35127475D01*
X16274500Y35127475D01*
X16274500Y34982525D01*
X16312016Y34842515D01*
X16312017Y34842512D01*
X16384488Y34716989D01*
X16384493Y34716983D01*
X16410254Y34691222D01*
X16443739Y34629899D01*
X16438755Y34560207D01*
X16429961Y34541542D01*
X16389371Y34471237D01*
X16389370Y34471235D01*
X16389370Y34471234D01*
X16351854Y34331224D01*
X16351854Y34186274D01*
X16369744Y34119509D01*
X16389371Y34046261D01*
X16461842Y33920738D01*
X16461844Y33920736D01*
X16461845Y33920734D01*
X16564339Y33818240D01*
X16564340Y33818239D01*
X16564342Y33818238D01*
X16689865Y33745767D01*
X16689866Y33745767D01*
X16689869Y33745765D01*
X16829879Y33708249D01*
X16829882Y33708249D01*
X16974826Y33708249D01*
X16974829Y33708249D01*
X17114839Y33745765D01*
X17240369Y33818240D01*
X17342863Y33920734D01*
X17415338Y34046264D01*
X17452854Y34186274D01*
X17452854Y34331224D01*
X17433228Y34404469D01*
X18462735Y34404469D01*
X18462735Y34259519D01*
X18494220Y34142018D01*
X18500252Y34119506D01*
X18572723Y33993983D01*
X18572725Y33993981D01*
X18572726Y33993979D01*
X18675220Y33891485D01*
X18675221Y33891484D01*
X18675223Y33891483D01*
X18800746Y33819012D01*
X18800747Y33819012D01*
X18800750Y33819010D01*
X18940760Y33781494D01*
X18940763Y33781494D01*
X19085707Y33781494D01*
X19085710Y33781494D01*
X19225720Y33819010D01*
X19351250Y33891485D01*
X19453744Y33993979D01*
X19526219Y34119509D01*
X19563735Y34259519D01*
X19563735Y34404469D01*
X19526219Y34544479D01*
X19453744Y34670009D01*
X19351250Y34772503D01*
X19351248Y34772504D01*
X19351246Y34772506D01*
X19225723Y34844977D01*
X19225724Y34844977D01*
X19214241Y34848054D01*
X19085710Y34882494D01*
X18940760Y34882494D01*
X18812228Y34848054D01*
X18800746Y34844977D01*
X18675223Y34772506D01*
X18675217Y34772501D01*
X18572728Y34670012D01*
X18572723Y34670006D01*
X18500252Y34544483D01*
X18500251Y34544479D01*
X18462735Y34404469D01*
X17433228Y34404469D01*
X17415338Y34471234D01*
X17403644Y34491488D01*
X17342865Y34596761D01*
X17342860Y34596767D01*
X17317098Y34622529D01*
X17283613Y34683852D01*
X17288597Y34753544D01*
X17297386Y34772199D01*
X17337984Y34842515D01*
X17375500Y34982525D01*
X17375500Y35127475D01*
X17337984Y35267485D01*
X17336528Y35270006D01*
X17265511Y35393012D01*
X17265506Y35393018D01*
X17163017Y35495507D01*
X17163011Y35495512D01*
X17037488Y35567983D01*
X17037489Y35567983D01*
X17026006Y35571060D01*
X16897475Y35605500D01*
X16752525Y35605500D01*
X16623993Y35571060D01*
X16612511Y35567983D01*
X16486988Y35495512D01*
X16486982Y35495507D01*
X16384493Y35393018D01*
X16384488Y35393012D01*
X16312017Y35267489D01*
X16312016Y35267485D01*
X16274500Y35127475D01*
X14657650Y35127475D01*
X14587488Y35167983D01*
X14587489Y35167983D01*
X14576006Y35171060D01*
X14447475Y35205500D01*
X14302525Y35205500D01*
X14173993Y35171060D01*
X14162511Y35167983D01*
X14036988Y35095512D01*
X14036982Y35095507D01*
X13934493Y34993018D01*
X13934488Y34993012D01*
X13862017Y34867489D01*
X13862016Y34867485D01*
X13824500Y34727475D01*
X12758873Y34727475D01*
X12754459Y36602475D01*
X18924500Y36602475D01*
X18924500Y36457525D01*
X18962016Y36317515D01*
X18962017Y36317512D01*
X19034488Y36191989D01*
X19034490Y36191987D01*
X19034491Y36191985D01*
X19136985Y36089491D01*
X19136986Y36089490D01*
X19136988Y36089489D01*
X19262511Y36017018D01*
X19262512Y36017018D01*
X19262515Y36017016D01*
X19402525Y35979500D01*
X19402528Y35979500D01*
X19547472Y35979500D01*
X19547475Y35979500D01*
X19687485Y36017016D01*
X19813015Y36089491D01*
X19915509Y36191985D01*
X19987984Y36317515D01*
X20025500Y36457525D01*
X20025500Y36602475D01*
X19987984Y36742485D01*
X19915509Y36868015D01*
X19813015Y36970509D01*
X19813013Y36970510D01*
X19813011Y36970512D01*
X19687488Y37042983D01*
X19687489Y37042983D01*
X19676006Y37046060D01*
X19547475Y37080500D01*
X19402525Y37080500D01*
X19273993Y37046060D01*
X19262511Y37042983D01*
X19136988Y36970512D01*
X19136982Y36970507D01*
X19034493Y36868018D01*
X19034488Y36868012D01*
X18962017Y36742489D01*
X18962016Y36742485D01*
X18924500Y36602475D01*
X12754459Y36602475D01*
X12752770Y37319784D01*
X12772297Y37386868D01*
X12824993Y37432747D01*
X12877499Y37444072D01*
X25124210Y37371820D01*
G37*
%TD.AperFunction*%
%TD*%
%TA.AperFunction,Conductor*%
%TO.N,+BATT*%
G36*
X29442363Y7634398D02*
G01*
X29488207Y7581671D01*
X29499500Y7529969D01*
X29499500Y604500D01*
X29479815Y537461D01*
X29427011Y491706D01*
X29375500Y480500D01*
X20251268Y480500D01*
X20184229Y500185D01*
X20138474Y552989D01*
X20128530Y622147D01*
X20131490Y636581D01*
X20150500Y707525D01*
X20150500Y852475D01*
X20112984Y992485D01*
X20040509Y1118015D01*
X19938015Y1220509D01*
X19938013Y1220510D01*
X19938011Y1220512D01*
X19812488Y1292983D01*
X19812489Y1292983D01*
X19801006Y1296060D01*
X19672475Y1330500D01*
X19527525Y1330500D01*
X19398993Y1296060D01*
X19387511Y1292983D01*
X19261988Y1220512D01*
X19261982Y1220507D01*
X19159493Y1118018D01*
X19159488Y1118012D01*
X19087017Y992489D01*
X19087016Y992485D01*
X19049500Y852475D01*
X19049500Y707525D01*
X19068506Y636591D01*
X19066844Y566744D01*
X19027682Y508882D01*
X18963454Y481377D01*
X18948732Y480500D01*
X15254348Y480500D01*
X15187309Y500185D01*
X15141554Y552989D01*
X15130351Y605399D01*
X15137957Y1654475D01*
X15824500Y1654475D01*
X15824500Y1509525D01*
X15852642Y1404500D01*
X15862017Y1369512D01*
X15934488Y1243989D01*
X15934490Y1243987D01*
X15934491Y1243985D01*
X16036985Y1141491D01*
X16036986Y1141490D01*
X16036988Y1141489D01*
X16162511Y1069018D01*
X16162512Y1069018D01*
X16162515Y1069016D01*
X16302525Y1031500D01*
X16302528Y1031500D01*
X16447472Y1031500D01*
X16447475Y1031500D01*
X16587485Y1069016D01*
X16713015Y1141491D01*
X16815509Y1243985D01*
X16887984Y1369515D01*
X16925500Y1509525D01*
X16925500Y1654475D01*
X16887984Y1794485D01*
X16831099Y1893012D01*
X16815511Y1920012D01*
X16815506Y1920018D01*
X16713017Y2022507D01*
X16713011Y2022512D01*
X16704415Y2027475D01*
X18374500Y2027475D01*
X18374500Y1882525D01*
X18412016Y1742515D01*
X18412017Y1742512D01*
X18484488Y1616989D01*
X18484490Y1616987D01*
X18484491Y1616985D01*
X18586985Y1514491D01*
X18586986Y1514490D01*
X18586988Y1514489D01*
X18712511Y1442018D01*
X18712512Y1442018D01*
X18712515Y1442016D01*
X18852525Y1404500D01*
X18852528Y1404500D01*
X18997472Y1404500D01*
X18997475Y1404500D01*
X19137485Y1442016D01*
X19263015Y1514491D01*
X19365509Y1616985D01*
X19371565Y1627475D01*
X23624500Y1627475D01*
X23624500Y1482525D01*
X23654782Y1369512D01*
X23662017Y1342512D01*
X23734488Y1216989D01*
X23734490Y1216987D01*
X23734491Y1216985D01*
X23836985Y1114491D01*
X23836986Y1114490D01*
X23836988Y1114489D01*
X23962511Y1042018D01*
X23962512Y1042018D01*
X23962515Y1042016D01*
X24102525Y1004500D01*
X24102528Y1004500D01*
X24247472Y1004500D01*
X24247475Y1004500D01*
X24387485Y1042016D01*
X24513015Y1114491D01*
X24615509Y1216985D01*
X24687984Y1342515D01*
X24725500Y1482525D01*
X24725500Y1627475D01*
X24687984Y1767485D01*
X24672395Y1794485D01*
X24615511Y1893012D01*
X24615506Y1893018D01*
X24513017Y1995507D01*
X24513011Y1995512D01*
X24387488Y2067983D01*
X24387489Y2067983D01*
X24376006Y2071060D01*
X24247475Y2105500D01*
X24102525Y2105500D01*
X23973993Y2071060D01*
X23962511Y2067983D01*
X23836988Y1995512D01*
X23836982Y1995507D01*
X23734493Y1893018D01*
X23734488Y1893012D01*
X23662017Y1767489D01*
X23662016Y1767485D01*
X23624500Y1627475D01*
X19371565Y1627475D01*
X19437984Y1742515D01*
X19475500Y1882525D01*
X19475500Y2027475D01*
X19437984Y2167485D01*
X19380537Y2266985D01*
X19365511Y2293012D01*
X19365506Y2293018D01*
X19263017Y2395507D01*
X19263011Y2395512D01*
X19137488Y2467983D01*
X19137489Y2467983D01*
X19126006Y2471060D01*
X18997475Y2505500D01*
X18852525Y2505500D01*
X18723993Y2471060D01*
X18712511Y2467983D01*
X18586988Y2395512D01*
X18586982Y2395507D01*
X18484493Y2293018D01*
X18484488Y2293012D01*
X18412017Y2167489D01*
X18411214Y2164492D01*
X18374500Y2027475D01*
X16704415Y2027475D01*
X16587488Y2094983D01*
X16587489Y2094983D01*
X16548239Y2105500D01*
X16447475Y2132500D01*
X16302525Y2132500D01*
X16201761Y2105500D01*
X16162511Y2094983D01*
X16036988Y2022512D01*
X16036982Y2022507D01*
X15934493Y1920018D01*
X15934488Y1920012D01*
X15862017Y1794489D01*
X15862016Y1794485D01*
X15824500Y1654475D01*
X15137957Y1654475D01*
X15145374Y2677475D01*
X16874500Y2677475D01*
X16874500Y2532525D01*
X16911213Y2395512D01*
X16912017Y2392512D01*
X16984488Y2266989D01*
X16984490Y2266987D01*
X16984491Y2266985D01*
X17086985Y2164491D01*
X17086986Y2164490D01*
X17086988Y2164489D01*
X17212511Y2092018D01*
X17212512Y2092018D01*
X17212515Y2092016D01*
X17352525Y2054500D01*
X17352528Y2054500D01*
X17497472Y2054500D01*
X17497475Y2054500D01*
X17637485Y2092016D01*
X17763015Y2164491D01*
X17865509Y2266985D01*
X17937984Y2392515D01*
X17975500Y2532525D01*
X17975500Y2677475D01*
X17937984Y2817485D01*
X17865509Y2943015D01*
X17763015Y3045509D01*
X17763013Y3045510D01*
X17763011Y3045512D01*
X17637488Y3117983D01*
X17637489Y3117983D01*
X17626006Y3121060D01*
X17497475Y3155500D01*
X17352525Y3155500D01*
X17223993Y3121060D01*
X17212511Y3117983D01*
X17086988Y3045512D01*
X17086982Y3045507D01*
X16984493Y2943018D01*
X16984488Y2943012D01*
X16912017Y2817489D01*
X16912016Y2817485D01*
X16874500Y2677475D01*
X15145374Y2677475D01*
X15152549Y3667134D01*
X15172718Y3734025D01*
X15225853Y3779396D01*
X15295081Y3788838D01*
X15338540Y3773620D01*
X15446814Y3711108D01*
X15574108Y3677000D01*
X15574110Y3677000D01*
X15705890Y3677000D01*
X15705892Y3677000D01*
X15833186Y3711108D01*
X15947314Y3777000D01*
X16040500Y3870186D01*
X16106392Y3984314D01*
X16140500Y4111608D01*
X16140500Y4243392D01*
X16106392Y4370686D01*
X16040500Y4484814D01*
X15947314Y4578000D01*
X15874371Y4620114D01*
X15826156Y4670680D01*
X15812933Y4739287D01*
X15838901Y4804152D01*
X15874372Y4834887D01*
X15882343Y4839489D01*
X15947314Y4877000D01*
X16040500Y4970186D01*
X16106392Y5084314D01*
X16108579Y5092475D01*
X16899500Y5092475D01*
X16899500Y4947525D01*
X16929682Y4834887D01*
X16937017Y4807512D01*
X17009488Y4681989D01*
X17009490Y4681987D01*
X17009491Y4681985D01*
X17111985Y4579491D01*
X17111986Y4579490D01*
X17111988Y4579489D01*
X17237511Y4507018D01*
X17237512Y4507018D01*
X17237515Y4507016D01*
X17377525Y4469500D01*
X17377528Y4469500D01*
X17522472Y4469500D01*
X17522475Y4469500D01*
X17662485Y4507016D01*
X17788015Y4579491D01*
X17890509Y4681985D01*
X17962984Y4807515D01*
X18000500Y4947525D01*
X18000500Y5092475D01*
X17962984Y5232485D01*
X17893708Y5352475D01*
X25749500Y5352475D01*
X25749500Y5207525D01*
X25782515Y5084314D01*
X25787017Y5067512D01*
X25859488Y4941989D01*
X25859490Y4941987D01*
X25859491Y4941985D01*
X25961985Y4839491D01*
X25961986Y4839490D01*
X25961988Y4839489D01*
X26087511Y4767018D01*
X26087512Y4767018D01*
X26087515Y4767016D01*
X26227525Y4729500D01*
X26227528Y4729500D01*
X26372472Y4729500D01*
X26372475Y4729500D01*
X26512485Y4767016D01*
X26638015Y4839491D01*
X26740509Y4941985D01*
X26812984Y5067515D01*
X26850500Y5207525D01*
X26850500Y5352475D01*
X26812984Y5492485D01*
X26789602Y5532983D01*
X26740511Y5618012D01*
X26740506Y5618018D01*
X26638017Y5720507D01*
X26638011Y5720512D01*
X26512488Y5792983D01*
X26512489Y5792983D01*
X26501006Y5796060D01*
X26372475Y5830500D01*
X26227525Y5830500D01*
X26098993Y5796060D01*
X26087511Y5792983D01*
X25961988Y5720512D01*
X25961982Y5720507D01*
X25859493Y5618018D01*
X25859488Y5618012D01*
X25787017Y5492489D01*
X25787016Y5492485D01*
X25749500Y5352475D01*
X17893708Y5352475D01*
X17890509Y5358015D01*
X17788015Y5460509D01*
X17788013Y5460510D01*
X17788011Y5460512D01*
X17662488Y5532983D01*
X17662489Y5532983D01*
X17651006Y5536060D01*
X17522475Y5570500D01*
X17377525Y5570500D01*
X17248993Y5536060D01*
X17237511Y5532983D01*
X17111988Y5460512D01*
X17111982Y5460507D01*
X17009493Y5358018D01*
X17009488Y5358012D01*
X16937017Y5232489D01*
X16937016Y5232485D01*
X16899500Y5092475D01*
X16108579Y5092475D01*
X16140500Y5211608D01*
X16140500Y5343392D01*
X16106392Y5470686D01*
X16040500Y5584814D01*
X15947314Y5678000D01*
X15874371Y5720114D01*
X15826156Y5770680D01*
X15812933Y5839287D01*
X15838901Y5904152D01*
X15874372Y5934887D01*
X15947314Y5977000D01*
X16040500Y6070186D01*
X16106392Y6184314D01*
X16140500Y6311608D01*
X16140500Y6443392D01*
X16106392Y6570686D01*
X16040500Y6684814D01*
X15947314Y6778000D01*
X15890250Y6810946D01*
X15833187Y6843892D01*
X15769539Y6860946D01*
X15705892Y6878000D01*
X15574108Y6878000D01*
X15446814Y6843892D01*
X15446813Y6843892D01*
X15446811Y6843891D01*
X15446810Y6843891D01*
X15362007Y6794929D01*
X15294107Y6778456D01*
X15228080Y6801308D01*
X15184889Y6856230D01*
X15176010Y6903210D01*
X15180389Y7507069D01*
X15200558Y7573960D01*
X15253693Y7619331D01*
X15304174Y7630166D01*
X20991513Y7639787D01*
X21058585Y7620216D01*
X21104429Y7567489D01*
X21114490Y7498348D01*
X21085572Y7434743D01*
X21026858Y7396869D01*
X21023819Y7396013D01*
X21012513Y7392984D01*
X21012511Y7392983D01*
X20886988Y7320512D01*
X20886982Y7320507D01*
X20784493Y7218018D01*
X20784488Y7218012D01*
X20712017Y7092489D01*
X20712016Y7092485D01*
X20674500Y6952475D01*
X20674500Y6807525D01*
X20707380Y6684817D01*
X20712017Y6667512D01*
X20784488Y6541989D01*
X20784490Y6541987D01*
X20784491Y6541985D01*
X20886985Y6439491D01*
X20886986Y6439490D01*
X20886988Y6439489D01*
X21012511Y6367018D01*
X21012512Y6367018D01*
X21012515Y6367016D01*
X21152525Y6329500D01*
X21152528Y6329500D01*
X21297472Y6329500D01*
X21297475Y6329500D01*
X21437485Y6367016D01*
X21563015Y6439491D01*
X21665509Y6541985D01*
X21737984Y6667515D01*
X21775500Y6807525D01*
X21775500Y6952475D01*
X21737984Y7092485D01*
X21665509Y7218015D01*
X21563015Y7320509D01*
X21563013Y7320510D01*
X21563011Y7320512D01*
X21437487Y7392983D01*
X21437486Y7392984D01*
X21437485Y7392984D01*
X21423255Y7396797D01*
X21363596Y7433161D01*
X21333067Y7496008D01*
X21341362Y7565383D01*
X21385847Y7619261D01*
X21452399Y7640536D01*
X21455128Y7640571D01*
X29375291Y7653969D01*
X29442363Y7634398D01*
G37*
%TD.AperFunction*%
%TD*%
%TA.AperFunction,Conductor*%
%TO.N,+3.3V*%
G36*
X3716234Y59459815D02*
G01*
X3761989Y59407011D01*
X3771933Y59337853D01*
X3752297Y59286609D01*
X3720609Y59239186D01*
X3720602Y59239173D01*
X3660264Y59093502D01*
X3660261Y59093490D01*
X3629500Y58938847D01*
X3629500Y58781154D01*
X3660261Y58626511D01*
X3660264Y58626499D01*
X3720602Y58480828D01*
X3720609Y58480815D01*
X3808210Y58349712D01*
X3808213Y58349708D01*
X3919707Y58238214D01*
X3919711Y58238211D01*
X4050814Y58150610D01*
X4050827Y58150603D01*
X4196498Y58090265D01*
X4196503Y58090263D01*
X4336076Y58062500D01*
X4351153Y58059501D01*
X4351156Y58059500D01*
X4351158Y58059500D01*
X4508844Y58059500D01*
X4508845Y58059501D01*
X4663497Y58090263D01*
X4809179Y58150606D01*
X4940289Y58238211D01*
X5051789Y58349711D01*
X5139394Y58480821D01*
X5199737Y58626503D01*
X5230500Y58781158D01*
X5230500Y58938842D01*
X5230500Y58938845D01*
X5230499Y58938847D01*
X5216509Y59009179D01*
X5199737Y59093497D01*
X5155501Y59200293D01*
X5139397Y59239173D01*
X5139390Y59239186D01*
X5107703Y59286609D01*
X5086825Y59353287D01*
X5105310Y59420667D01*
X5157289Y59467357D01*
X5210805Y59479500D01*
X11811731Y59479500D01*
X11878770Y59459815D01*
X11924525Y59407011D01*
X11934469Y59337853D01*
X11905444Y59274297D01*
X11884373Y59255708D01*
X11884419Y59255653D01*
X11882880Y59254391D01*
X11880621Y59252397D01*
X11879708Y59251788D01*
X11768213Y59140293D01*
X11768210Y59140289D01*
X11680609Y59009186D01*
X11680602Y59009173D01*
X11620264Y58863502D01*
X11620261Y58863490D01*
X11589500Y58708847D01*
X11589500Y58551154D01*
X11620261Y58396511D01*
X11620264Y58396499D01*
X11680602Y58250828D01*
X11680609Y58250815D01*
X11768210Y58119712D01*
X11768213Y58119708D01*
X11879707Y58008214D01*
X11879711Y58008211D01*
X12010814Y57920610D01*
X12010827Y57920603D01*
X12156498Y57860265D01*
X12156503Y57860263D01*
X12311153Y57829501D01*
X12311156Y57829500D01*
X12311158Y57829500D01*
X12468844Y57829500D01*
X12468845Y57829501D01*
X12623497Y57860263D01*
X12769179Y57920606D01*
X12900289Y58008211D01*
X13011789Y58119711D01*
X13099394Y58250821D01*
X13159737Y58396503D01*
X13190500Y58551158D01*
X13190500Y58708842D01*
X13190500Y58708845D01*
X13190499Y58708847D01*
X13178565Y58768842D01*
X13159737Y58863497D01*
X13159735Y58863502D01*
X13099397Y59009173D01*
X13099390Y59009186D01*
X13011789Y59140289D01*
X13011786Y59140293D01*
X12900291Y59251788D01*
X12899379Y59252397D01*
X12899008Y59252840D01*
X12895581Y59255653D01*
X12896114Y59256304D01*
X12854573Y59306010D01*
X12845866Y59375334D01*
X12876020Y59438362D01*
X12935463Y59475082D01*
X12968269Y59479500D01*
X26258059Y59479500D01*
X26325098Y59459815D01*
X26370853Y59407011D01*
X26380797Y59337853D01*
X26351772Y59274297D01*
X26345740Y59267819D01*
X26278213Y59200293D01*
X26278210Y59200289D01*
X26190609Y59069186D01*
X26190602Y59069173D01*
X26130264Y58923502D01*
X26130261Y58923490D01*
X26099500Y58768847D01*
X26099500Y58611154D01*
X26130261Y58456511D01*
X26130264Y58456499D01*
X26190602Y58310828D01*
X26190609Y58310815D01*
X26278210Y58179712D01*
X26278213Y58179708D01*
X26389707Y58068214D01*
X26389711Y58068211D01*
X26520814Y57980610D01*
X26520827Y57980603D01*
X26665665Y57920610D01*
X26666503Y57920263D01*
X26821153Y57889501D01*
X26821156Y57889500D01*
X26821158Y57889500D01*
X26978844Y57889500D01*
X26978845Y57889501D01*
X27133497Y57920263D01*
X27279179Y57980606D01*
X27410289Y58068211D01*
X27521789Y58179711D01*
X27609394Y58310821D01*
X27669737Y58456503D01*
X27700500Y58611158D01*
X27700500Y58768842D01*
X27700500Y58768845D01*
X27700499Y58768847D01*
X27669738Y58923490D01*
X27669737Y58923497D01*
X27634244Y59009186D01*
X27609397Y59069173D01*
X27609390Y59069186D01*
X27521789Y59200289D01*
X27521786Y59200293D01*
X27454260Y59267819D01*
X27420775Y59329142D01*
X27425759Y59398834D01*
X27467631Y59454767D01*
X27533095Y59479184D01*
X27541941Y59479500D01*
X29375500Y59479500D01*
X29442539Y59459815D01*
X29488294Y59407011D01*
X29499500Y59355500D01*
X29499500Y29562505D01*
X29479815Y29495466D01*
X29427011Y29449711D01*
X29357853Y29439767D01*
X29351310Y29440887D01*
X29277842Y29455500D01*
X29120158Y29455500D01*
X29120155Y29455500D01*
X28965510Y29424739D01*
X28965498Y29424736D01*
X28819827Y29364398D01*
X28819814Y29364391D01*
X28688711Y29276790D01*
X28688707Y29276787D01*
X28577213Y29165293D01*
X28577210Y29165289D01*
X28489609Y29034186D01*
X28489602Y29034173D01*
X28429264Y28888502D01*
X28429261Y28888490D01*
X28398500Y28733847D01*
X28398500Y28576154D01*
X28429261Y28421511D01*
X28429264Y28421499D01*
X28489602Y28275828D01*
X28489609Y28275815D01*
X28577210Y28144712D01*
X28577213Y28144708D01*
X28688707Y28033214D01*
X28688711Y28033211D01*
X28819814Y27945610D01*
X28819827Y27945603D01*
X28910101Y27908211D01*
X28965503Y27885263D01*
X29120153Y27854501D01*
X29120156Y27854500D01*
X29120158Y27854500D01*
X29277844Y27854500D01*
X29277845Y27854501D01*
X29296658Y27858243D01*
X29351309Y27869113D01*
X29420900Y27862886D01*
X29476077Y27820023D01*
X29499322Y27754133D01*
X29499500Y27747496D01*
X29499500Y8283470D01*
X29479815Y8216431D01*
X29427011Y8170676D01*
X29375710Y8159470D01*
X29374437Y8159468D01*
X29374436Y8159468D01*
X21454273Y8146070D01*
X21448645Y8146029D01*
X21448580Y8146029D01*
X21448557Y8146028D01*
X21445846Y8145994D01*
X21440372Y8145894D01*
X21440366Y8145894D01*
X21440365Y8145893D01*
X21436756Y8145286D01*
X21298483Y8122034D01*
X21260603Y8109925D01*
X21242461Y8109494D01*
X21225148Y8104059D01*
X21193202Y8108323D01*
X21190753Y8108264D01*
X21190126Y8108433D01*
X21189079Y8108720D01*
X21133109Y8125051D01*
X21133108Y8125051D01*
X21125366Y8126151D01*
X21125314Y8126165D01*
X21124536Y8126276D01*
X21124436Y8126283D01*
X21025589Y8140324D01*
X20990658Y8145286D01*
X20990657Y8145286D01*
X20990656Y8145286D01*
X19186107Y8142234D01*
X19119034Y8161805D01*
X19073190Y8214532D01*
X19063129Y8283673D01*
X19092047Y8347278D01*
X19117007Y8369337D01*
X19130289Y8378211D01*
X19241789Y8489711D01*
X19329394Y8620821D01*
X19389737Y8766503D01*
X19420500Y8921158D01*
X19420500Y9078842D01*
X19420500Y9078845D01*
X19420499Y9078847D01*
X19389738Y9233490D01*
X19389737Y9233497D01*
X19358526Y9308847D01*
X26874500Y9308847D01*
X26874500Y9151154D01*
X26905261Y8996511D01*
X26905264Y8996499D01*
X26965602Y8850828D01*
X26965609Y8850815D01*
X27053210Y8719712D01*
X27053213Y8719708D01*
X27164707Y8608214D01*
X27164711Y8608211D01*
X27295814Y8520610D01*
X27295827Y8520603D01*
X27441498Y8460265D01*
X27441503Y8460263D01*
X27540662Y8440539D01*
X27596153Y8429501D01*
X27596156Y8429500D01*
X27596158Y8429500D01*
X27753844Y8429500D01*
X27753845Y8429501D01*
X27908497Y8460263D01*
X28054179Y8520606D01*
X28185289Y8608211D01*
X28296789Y8719711D01*
X28384394Y8850821D01*
X28390809Y8866307D01*
X28413528Y8921158D01*
X28444737Y8996503D01*
X28475500Y9151158D01*
X28475500Y9308842D01*
X28475500Y9308845D01*
X28475499Y9308847D01*
X28461509Y9379179D01*
X28444737Y9463497D01*
X28436170Y9484179D01*
X28384397Y9609173D01*
X28384390Y9609186D01*
X28296789Y9740289D01*
X28296786Y9740293D01*
X28185292Y9851787D01*
X28185288Y9851790D01*
X28054185Y9939391D01*
X28054172Y9939398D01*
X27908501Y9999736D01*
X27908489Y9999739D01*
X27753845Y10030500D01*
X27753842Y10030500D01*
X27596158Y10030500D01*
X27596155Y10030500D01*
X27441510Y9999739D01*
X27441498Y9999736D01*
X27295827Y9939398D01*
X27295814Y9939391D01*
X27164711Y9851790D01*
X27164707Y9851787D01*
X27053213Y9740293D01*
X27053210Y9740289D01*
X26965609Y9609186D01*
X26965602Y9609173D01*
X26905264Y9463502D01*
X26905261Y9463490D01*
X26874500Y9308847D01*
X19358526Y9308847D01*
X19346243Y9338502D01*
X19329397Y9379173D01*
X19329390Y9379186D01*
X19241789Y9510289D01*
X19241786Y9510293D01*
X19130292Y9621787D01*
X19130288Y9621790D01*
X18999185Y9709391D01*
X18999172Y9709398D01*
X18853501Y9769736D01*
X18853489Y9769739D01*
X18698845Y9800500D01*
X18698842Y9800500D01*
X18541158Y9800500D01*
X18541155Y9800500D01*
X18386510Y9769739D01*
X18386498Y9769736D01*
X18240827Y9709398D01*
X18240814Y9709391D01*
X18109711Y9621790D01*
X18109707Y9621787D01*
X17998213Y9510293D01*
X17998210Y9510289D01*
X17910609Y9379186D01*
X17910602Y9379173D01*
X17850264Y9233502D01*
X17850261Y9233490D01*
X17819500Y9078847D01*
X17819500Y8921154D01*
X17850261Y8766511D01*
X17850264Y8766499D01*
X17910602Y8620828D01*
X17910609Y8620815D01*
X17998210Y8489712D01*
X17998213Y8489708D01*
X18109707Y8378214D01*
X18109710Y8378212D01*
X18109711Y8378211D01*
X18125852Y8367426D01*
X18170656Y8313813D01*
X18179363Y8244488D01*
X18149208Y8181461D01*
X18089765Y8144742D01*
X18057170Y8140325D01*
X17874763Y8140016D01*
X15809096Y8136522D01*
X15742023Y8156093D01*
X15696179Y8208820D01*
X15684889Y8261325D01*
X15685033Y8283470D01*
X15685961Y8426887D01*
X15685960Y8426888D01*
X15685961Y8426893D01*
X15679515Y8489712D01*
X15674766Y8536003D01*
X15663564Y8588316D01*
X15663561Y8588326D01*
X15629091Y8692460D01*
X15629088Y8692465D01*
X15625503Y8698043D01*
X15551301Y8813503D01*
X15551296Y8813509D01*
X15505552Y8866301D01*
X15505548Y8866304D01*
X15505546Y8866307D01*
X15396817Y8960523D01*
X15396816Y8960524D01*
X15396814Y8960525D01*
X15265938Y9020297D01*
X15243437Y9026904D01*
X15204544Y9038325D01*
X15202668Y9038974D01*
X15198901Y9039983D01*
X15103955Y9053635D01*
X15056483Y9060460D01*
X15056481Y9060461D01*
X15056480Y9060461D01*
X11149499Y9060492D01*
X11082460Y9080177D01*
X11036705Y9132981D01*
X11026941Y9177866D01*
X11026097Y9177782D01*
X11025500Y9183837D01*
X11025500Y9183842D01*
X10994737Y9338497D01*
X10942959Y9463502D01*
X10934397Y9484173D01*
X10934390Y9484186D01*
X10846789Y9615289D01*
X10846786Y9615293D01*
X10735292Y9726787D01*
X10735288Y9726790D01*
X10604185Y9814391D01*
X10604172Y9814398D01*
X10458501Y9874736D01*
X10458489Y9874739D01*
X10303845Y9905500D01*
X10303842Y9905500D01*
X10146158Y9905500D01*
X10146155Y9905500D01*
X9991510Y9874739D01*
X9991498Y9874736D01*
X9845827Y9814398D01*
X9845814Y9814391D01*
X9714711Y9726790D01*
X9714707Y9726787D01*
X9603213Y9615293D01*
X9603210Y9615289D01*
X9515609Y9484186D01*
X9515602Y9484173D01*
X9455264Y9338502D01*
X9455261Y9338490D01*
X9424500Y9183847D01*
X9424500Y9026154D01*
X9455261Y8871511D01*
X9455264Y8871499D01*
X9509532Y8740484D01*
X9512242Y8715270D01*
X9518951Y8690812D01*
X9516310Y8677442D01*
X9517001Y8671015D01*
X9513304Y8655973D01*
X9511614Y8650579D01*
X9511038Y8649365D01*
X9490758Y8583982D01*
X9490620Y8583541D01*
X9490612Y8583531D01*
X9490389Y8582835D01*
X9490335Y8582617D01*
X9467706Y8440542D01*
X9457701Y7780132D01*
X9456577Y7705926D01*
X9456577Y7705925D01*
X9453951Y7532621D01*
X9433253Y7465888D01*
X9379762Y7420938D01*
X9329965Y7410500D01*
X4689690Y7410500D01*
X4622651Y7430185D01*
X4576896Y7482989D01*
X4575129Y7487048D01*
X4555474Y7534500D01*
X4549394Y7549179D01*
X4549392Y7549181D01*
X4549392Y7549183D01*
X4461789Y7680289D01*
X4461786Y7680293D01*
X4350292Y7791787D01*
X4350288Y7791790D01*
X4219185Y7879391D01*
X4219172Y7879398D01*
X4073501Y7939736D01*
X4073489Y7939739D01*
X3918845Y7970500D01*
X3918842Y7970500D01*
X3761158Y7970500D01*
X3761155Y7970500D01*
X3606510Y7939739D01*
X3606498Y7939736D01*
X3460827Y7879398D01*
X3460814Y7879391D01*
X3329711Y7791790D01*
X3329707Y7791787D01*
X3218213Y7680293D01*
X3218210Y7680289D01*
X3130607Y7549183D01*
X3130606Y7549180D01*
X3104871Y7487048D01*
X3061031Y7432644D01*
X2994737Y7410579D01*
X2990310Y7410500D01*
X1725500Y7410500D01*
X1658461Y7430185D01*
X1612706Y7482989D01*
X1601500Y7534500D01*
X1601500Y11208847D01*
X9324500Y11208847D01*
X9324500Y11051154D01*
X9355261Y10896511D01*
X9355264Y10896499D01*
X9415602Y10750828D01*
X9415609Y10750815D01*
X9503210Y10619712D01*
X9503213Y10619708D01*
X9614707Y10508214D01*
X9614711Y10508211D01*
X9745814Y10420610D01*
X9745827Y10420603D01*
X9891498Y10360265D01*
X9891503Y10360263D01*
X10046153Y10329501D01*
X10046156Y10329500D01*
X10046158Y10329500D01*
X10203844Y10329500D01*
X10203845Y10329501D01*
X10358497Y10360263D01*
X10504179Y10420606D01*
X10635289Y10508211D01*
X10746789Y10619711D01*
X10834394Y10750821D01*
X10835351Y10753130D01*
X10871646Y10840757D01*
X10894737Y10896503D01*
X10925500Y11051158D01*
X10925500Y11208842D01*
X10925500Y11208845D01*
X10925499Y11208847D01*
X10903269Y11320603D01*
X10894737Y11363497D01*
X10866690Y11431210D01*
X10834397Y11509173D01*
X10834390Y11509186D01*
X10746789Y11640289D01*
X10746786Y11640293D01*
X10635292Y11751787D01*
X10635288Y11751790D01*
X10504185Y11839391D01*
X10504172Y11839398D01*
X10358501Y11899736D01*
X10358489Y11899739D01*
X10203845Y11930500D01*
X10203842Y11930500D01*
X10046158Y11930500D01*
X10046155Y11930500D01*
X9891510Y11899739D01*
X9891498Y11899736D01*
X9745827Y11839398D01*
X9745814Y11839391D01*
X9614711Y11751790D01*
X9614707Y11751787D01*
X9503213Y11640293D01*
X9503210Y11640289D01*
X9415609Y11509186D01*
X9415602Y11509173D01*
X9355264Y11363502D01*
X9355261Y11363490D01*
X9324500Y11208847D01*
X1601500Y11208847D01*
X1601500Y11455500D01*
X1621185Y11522539D01*
X1673989Y11568294D01*
X1725500Y11579500D01*
X1878844Y11579500D01*
X1878845Y11579501D01*
X2033497Y11610263D01*
X2179179Y11670606D01*
X2310289Y11758211D01*
X2421789Y11869711D01*
X2509394Y12000821D01*
X2569737Y12146503D01*
X2600500Y12301158D01*
X2600500Y12348847D01*
X3939500Y12348847D01*
X3939500Y12191154D01*
X3970261Y12036511D01*
X3970264Y12036499D01*
X4030602Y11890828D01*
X4030609Y11890815D01*
X4118210Y11759712D01*
X4118213Y11759708D01*
X4229707Y11648214D01*
X4229711Y11648211D01*
X4360814Y11560610D01*
X4360827Y11560603D01*
X4484992Y11509173D01*
X4506503Y11500263D01*
X4661153Y11469501D01*
X4661156Y11469500D01*
X4661158Y11469500D01*
X4818844Y11469500D01*
X4818845Y11469501D01*
X4973497Y11500263D01*
X5119179Y11560606D01*
X5250289Y11648211D01*
X5361789Y11759711D01*
X5449394Y11890821D01*
X5509737Y12036503D01*
X5540500Y12191158D01*
X5540500Y12348842D01*
X5540500Y12348845D01*
X5540499Y12348847D01*
X5525186Y12425828D01*
X5509737Y12503497D01*
X5509735Y12503502D01*
X5449397Y12649173D01*
X5449390Y12649186D01*
X5361789Y12780289D01*
X5361786Y12780293D01*
X5250292Y12891787D01*
X5250288Y12891790D01*
X5119185Y12979391D01*
X5119172Y12979398D01*
X4973501Y13039736D01*
X4973489Y13039739D01*
X4818845Y13070500D01*
X4818842Y13070500D01*
X4661158Y13070500D01*
X4661155Y13070500D01*
X4506510Y13039739D01*
X4506498Y13039736D01*
X4360827Y12979398D01*
X4360814Y12979391D01*
X4229711Y12891790D01*
X4229707Y12891787D01*
X4118213Y12780293D01*
X4118210Y12780289D01*
X4030609Y12649186D01*
X4030602Y12649173D01*
X3970264Y12503502D01*
X3970261Y12503490D01*
X3939500Y12348847D01*
X2600500Y12348847D01*
X2600500Y12458842D01*
X2600500Y12458845D01*
X2600499Y12458847D01*
X2596568Y12478607D01*
X2569737Y12613497D01*
X2550955Y12658842D01*
X2509397Y12759173D01*
X2509390Y12759186D01*
X2421789Y12890289D01*
X2421786Y12890293D01*
X2310292Y13001787D01*
X2310288Y13001790D01*
X2179185Y13089391D01*
X2179172Y13089398D01*
X2033501Y13149736D01*
X2033489Y13149739D01*
X1878845Y13180500D01*
X1878842Y13180500D01*
X1725500Y13180500D01*
X1658461Y13200185D01*
X1612706Y13252989D01*
X1601500Y13304500D01*
X1601500Y14858847D01*
X5149500Y14858847D01*
X5149500Y14701154D01*
X5180261Y14546511D01*
X5180264Y14546499D01*
X5240602Y14400828D01*
X5240609Y14400815D01*
X5328210Y14269712D01*
X5328213Y14269708D01*
X5439707Y14158214D01*
X5439711Y14158211D01*
X5570814Y14070610D01*
X5570827Y14070603D01*
X5716498Y14010265D01*
X5716503Y14010263D01*
X5854774Y13982759D01*
X5871153Y13979501D01*
X5871156Y13979500D01*
X5871158Y13979500D01*
X6028843Y13979500D01*
X6045226Y13982759D01*
X6114818Y13976532D01*
X6169996Y13933670D01*
X6193241Y13867781D01*
X6191036Y13836951D01*
X6175500Y13758847D01*
X6175500Y13601154D01*
X6206261Y13446511D01*
X6206264Y13446499D01*
X6266602Y13300828D01*
X6266609Y13300815D01*
X6354210Y13169712D01*
X6354213Y13169708D01*
X6465707Y13058214D01*
X6465711Y13058211D01*
X6596814Y12970610D01*
X6596827Y12970603D01*
X6742498Y12910265D01*
X6742503Y12910263D01*
X6897153Y12879501D01*
X6897156Y12879500D01*
X6897158Y12879500D01*
X7054844Y12879500D01*
X7054845Y12879501D01*
X7209497Y12910263D01*
X7327592Y12959179D01*
X7355172Y12970603D01*
X7355172Y12970604D01*
X7355179Y12970606D01*
X7486289Y13058211D01*
X7597789Y13169711D01*
X7685394Y13300821D01*
X7691389Y13315293D01*
X7705655Y13349736D01*
X7745737Y13446503D01*
X7776500Y13601158D01*
X7776500Y13758842D01*
X7776500Y13758845D01*
X7776499Y13758847D01*
X7760963Y13836951D01*
X7745737Y13913497D01*
X7745735Y13913502D01*
X7685397Y14059173D01*
X7685390Y14059186D01*
X7597789Y14190289D01*
X7597786Y14190293D01*
X7486292Y14301787D01*
X7486288Y14301790D01*
X7355185Y14389391D01*
X7355172Y14389398D01*
X7209501Y14449736D01*
X7209489Y14449739D01*
X7054845Y14480500D01*
X7054842Y14480500D01*
X6897158Y14480500D01*
X6897153Y14480500D01*
X6880767Y14477241D01*
X6811175Y14483471D01*
X6756000Y14526336D01*
X6732757Y14592227D01*
X6734962Y14623047D01*
X6750500Y14701158D01*
X6750500Y14858842D01*
X6750500Y14858845D01*
X6750499Y14858847D01*
X6740189Y14910680D01*
X6719737Y15013497D01*
X6701042Y15058632D01*
X6659397Y15159173D01*
X6659390Y15159186D01*
X6571789Y15290289D01*
X6571786Y15290293D01*
X6460292Y15401787D01*
X6460288Y15401790D01*
X6329185Y15489391D01*
X6329172Y15489398D01*
X6183501Y15549736D01*
X6183489Y15549739D01*
X6028845Y15580500D01*
X6028842Y15580500D01*
X5871158Y15580500D01*
X5871155Y15580500D01*
X5716510Y15549739D01*
X5716498Y15549736D01*
X5570827Y15489398D01*
X5570814Y15489391D01*
X5439711Y15401790D01*
X5439707Y15401787D01*
X5328213Y15290293D01*
X5328210Y15290289D01*
X5240609Y15159186D01*
X5240602Y15159173D01*
X5180264Y15013502D01*
X5180261Y15013490D01*
X5149500Y14858847D01*
X1601500Y14858847D01*
X1601500Y18743375D01*
X3317006Y18743375D01*
X3317006Y18585682D01*
X3347767Y18431039D01*
X3347770Y18431027D01*
X3408108Y18285356D01*
X3408115Y18285343D01*
X3495716Y18154240D01*
X3495719Y18154236D01*
X3607213Y18042742D01*
X3607217Y18042739D01*
X3738320Y17955138D01*
X3738333Y17955131D01*
X3884004Y17894793D01*
X3884009Y17894791D01*
X4026242Y17866499D01*
X4038659Y17864029D01*
X4038662Y17864028D01*
X4038664Y17864028D01*
X4196350Y17864028D01*
X4196351Y17864029D01*
X4351003Y17894791D01*
X4496685Y17955134D01*
X4627795Y18042739D01*
X4739295Y18154239D01*
X4755737Y18178847D01*
X5509500Y18178847D01*
X5509500Y18021154D01*
X5540261Y17866511D01*
X5540264Y17866499D01*
X5600602Y17720828D01*
X5600609Y17720815D01*
X5688210Y17589712D01*
X5688213Y17589708D01*
X5799707Y17478214D01*
X5799711Y17478211D01*
X5930814Y17390610D01*
X5930821Y17390606D01*
X6044373Y17343572D01*
X6098774Y17299733D01*
X6120840Y17233439D01*
X6118536Y17204821D01*
X6089500Y17058847D01*
X6089500Y16901154D01*
X6120261Y16746511D01*
X6120264Y16746499D01*
X6180602Y16600828D01*
X6180609Y16600815D01*
X6268210Y16469712D01*
X6268213Y16469708D01*
X6379707Y16358214D01*
X6379711Y16358211D01*
X6510814Y16270610D01*
X6510827Y16270603D01*
X6656498Y16210265D01*
X6656503Y16210263D01*
X6811153Y16179501D01*
X6811156Y16179500D01*
X6811158Y16179500D01*
X6968844Y16179500D01*
X6968845Y16179501D01*
X7123497Y16210263D01*
X7269179Y16270606D01*
X7400289Y16358211D01*
X7511789Y16469711D01*
X7599394Y16600821D01*
X7602555Y16608451D01*
X7631984Y16679501D01*
X7659737Y16746503D01*
X7690500Y16901158D01*
X7690500Y17058842D01*
X7690500Y17058845D01*
X7690499Y17058847D01*
X7665221Y17185925D01*
X7659737Y17213497D01*
X7618384Y17313333D01*
X7599397Y17359173D01*
X7599390Y17359186D01*
X7511789Y17490289D01*
X7511786Y17490293D01*
X7400292Y17601787D01*
X7400288Y17601790D01*
X7269185Y17689391D01*
X7269176Y17689396D01*
X7155627Y17736429D01*
X7101224Y17780270D01*
X7079159Y17846564D01*
X7081463Y17875182D01*
X7085364Y17894790D01*
X7104361Y17990293D01*
X7110500Y18021156D01*
X7110500Y18178845D01*
X7110499Y18178847D01*
X7096398Y18249737D01*
X7079737Y18333497D01*
X7039339Y18431027D01*
X7019397Y18479173D01*
X7019390Y18479186D01*
X6931789Y18610289D01*
X6931786Y18610293D01*
X6892111Y18649968D01*
X6858626Y18711291D01*
X6863610Y18780983D01*
X6905482Y18836916D01*
X6932340Y18852210D01*
X7049172Y18900603D01*
X7049172Y18900604D01*
X7049179Y18900606D01*
X7180289Y18988211D01*
X7291789Y19099711D01*
X7379394Y19230821D01*
X7439737Y19376503D01*
X7470500Y19531158D01*
X7470500Y19688842D01*
X7470500Y19688845D01*
X7470499Y19688847D01*
X7439737Y19843497D01*
X7420354Y19890293D01*
X7379397Y19989173D01*
X7379390Y19989186D01*
X7291789Y20120289D01*
X7291786Y20120293D01*
X7180292Y20231787D01*
X7180288Y20231790D01*
X7049185Y20319391D01*
X7049172Y20319398D01*
X6903501Y20379736D01*
X6903489Y20379739D01*
X6748845Y20410500D01*
X6748842Y20410500D01*
X6591158Y20410500D01*
X6591155Y20410500D01*
X6436510Y20379739D01*
X6436498Y20379736D01*
X6290827Y20319398D01*
X6290814Y20319391D01*
X6159711Y20231790D01*
X6159707Y20231787D01*
X6048213Y20120293D01*
X6048210Y20120289D01*
X5960609Y19989186D01*
X5960602Y19989173D01*
X5900264Y19843502D01*
X5900261Y19843490D01*
X5869500Y19688847D01*
X5869500Y19531154D01*
X5900261Y19376511D01*
X5900264Y19376499D01*
X5960602Y19230828D01*
X5960609Y19230815D01*
X6048210Y19099712D01*
X6048213Y19099708D01*
X6087888Y19060033D01*
X6121373Y18998710D01*
X6116389Y18929018D01*
X6074517Y18873085D01*
X6047660Y18857791D01*
X5930824Y18809396D01*
X5930814Y18809391D01*
X5799711Y18721790D01*
X5799707Y18721787D01*
X5688213Y18610293D01*
X5688210Y18610289D01*
X5600609Y18479186D01*
X5600602Y18479173D01*
X5540264Y18333502D01*
X5540261Y18333490D01*
X5509500Y18178847D01*
X4755737Y18178847D01*
X4772100Y18203337D01*
X4805837Y18253825D01*
X4826896Y18285343D01*
X4826896Y18285344D01*
X4826900Y18285349D01*
X4887243Y18431031D01*
X4918006Y18585686D01*
X4918006Y18743370D01*
X4918006Y18743373D01*
X4918005Y18743375D01*
X4910524Y18780983D01*
X4887243Y18898025D01*
X4886172Y18900610D01*
X4826903Y19043701D01*
X4826896Y19043714D01*
X4739295Y19174817D01*
X4739292Y19174821D01*
X4627798Y19286315D01*
X4627794Y19286318D01*
X4496691Y19373919D01*
X4496678Y19373926D01*
X4351007Y19434264D01*
X4350995Y19434267D01*
X4196351Y19465028D01*
X4196348Y19465028D01*
X4038664Y19465028D01*
X4038661Y19465028D01*
X3884016Y19434267D01*
X3884004Y19434264D01*
X3738333Y19373926D01*
X3738320Y19373919D01*
X3607217Y19286318D01*
X3607213Y19286315D01*
X3495719Y19174821D01*
X3495716Y19174817D01*
X3408115Y19043714D01*
X3408108Y19043701D01*
X3347770Y18898030D01*
X3347767Y18898018D01*
X3317006Y18743375D01*
X1601500Y18743375D01*
X1601500Y19785278D01*
X1621185Y19852317D01*
X1673989Y19898072D01*
X1743147Y19908016D01*
X1794387Y19888382D01*
X1895821Y19820606D01*
X1895823Y19820605D01*
X1895827Y19820603D01*
X2041498Y19760265D01*
X2041503Y19760263D01*
X2196153Y19729501D01*
X2196156Y19729500D01*
X2196158Y19729500D01*
X2353844Y19729500D01*
X2353845Y19729501D01*
X2508497Y19760263D01*
X2654179Y19820606D01*
X2785289Y19908211D01*
X2896789Y20019711D01*
X2984394Y20150821D01*
X3044737Y20296503D01*
X3075500Y20451158D01*
X3075500Y20608842D01*
X3075500Y20608845D01*
X3075499Y20608847D01*
X3044739Y20763489D01*
X3042970Y20769320D01*
X3045038Y20769948D01*
X3038610Y20829718D01*
X3069883Y20892199D01*
X3104585Y20916292D01*
X3103813Y20917738D01*
X3109175Y20920605D01*
X3109179Y20920606D01*
X3240289Y21008211D01*
X3351789Y21119711D01*
X3439394Y21250821D01*
X3499737Y21396503D01*
X3530500Y21551158D01*
X3530500Y21708842D01*
X3530500Y21708845D01*
X3530499Y21708847D01*
X3518360Y21769874D01*
X9549500Y21769874D01*
X9549500Y21612181D01*
X9580261Y21457538D01*
X9580264Y21457526D01*
X9640602Y21311855D01*
X9640609Y21311842D01*
X9728210Y21180739D01*
X9728213Y21180735D01*
X9839707Y21069241D01*
X9839711Y21069238D01*
X9970814Y20981637D01*
X9970827Y20981630D01*
X10116498Y20921292D01*
X10116503Y20921290D01*
X10262752Y20892199D01*
X10271153Y20890528D01*
X10271156Y20890527D01*
X10271158Y20890527D01*
X10428844Y20890527D01*
X10428845Y20890528D01*
X10583497Y20921290D01*
X10729179Y20981633D01*
X10860289Y21069238D01*
X10971789Y21180738D01*
X11059394Y21311848D01*
X11119737Y21457530D01*
X11150500Y21612185D01*
X11150500Y21769869D01*
X11150500Y21769872D01*
X11150499Y21769874D01*
X11143477Y21805177D01*
X11119737Y21924524D01*
X11111003Y21945610D01*
X11059397Y22070200D01*
X11059390Y22070213D01*
X10971789Y22201316D01*
X10971786Y22201320D01*
X10860292Y22312814D01*
X10860288Y22312817D01*
X10729185Y22400418D01*
X10729172Y22400425D01*
X10583501Y22460763D01*
X10583489Y22460766D01*
X10428845Y22491527D01*
X10428842Y22491527D01*
X10271158Y22491527D01*
X10271155Y22491527D01*
X10116510Y22460766D01*
X10116498Y22460763D01*
X9970827Y22400425D01*
X9970814Y22400418D01*
X9839711Y22312817D01*
X9839707Y22312814D01*
X9728213Y22201320D01*
X9728210Y22201316D01*
X9640609Y22070213D01*
X9640602Y22070200D01*
X9580264Y21924529D01*
X9580261Y21924517D01*
X9549500Y21769874D01*
X3518360Y21769874D01*
X3499737Y21863497D01*
X3490721Y21885263D01*
X3439397Y22009173D01*
X3439390Y22009186D01*
X3351789Y22140289D01*
X3351786Y22140293D01*
X3240292Y22251787D01*
X3240288Y22251790D01*
X3109185Y22339391D01*
X3109172Y22339398D01*
X2963501Y22399736D01*
X2963489Y22399739D01*
X2808845Y22430500D01*
X2808842Y22430500D01*
X2651158Y22430500D01*
X2651155Y22430500D01*
X2496510Y22399739D01*
X2496498Y22399736D01*
X2350827Y22339398D01*
X2350814Y22339391D01*
X2219711Y22251790D01*
X2219707Y22251787D01*
X2108213Y22140293D01*
X2108210Y22140289D01*
X2020609Y22009186D01*
X2020602Y22009173D01*
X1960264Y21863502D01*
X1960261Y21863490D01*
X1929500Y21708847D01*
X1929500Y21551154D01*
X1960260Y21396512D01*
X1962030Y21390680D01*
X1959965Y21390054D01*
X1966384Y21330257D01*
X1935098Y21267783D01*
X1900430Y21243707D01*
X1901199Y21242269D01*
X1895826Y21239397D01*
X1895822Y21239395D01*
X1895821Y21239394D01*
X1818074Y21187446D01*
X1794390Y21171620D01*
X1727713Y21150743D01*
X1660333Y21169228D01*
X1613643Y21221207D01*
X1601500Y21274723D01*
X1601500Y22733847D01*
X7336000Y22733847D01*
X7336000Y22576154D01*
X7366761Y22421511D01*
X7366764Y22421499D01*
X7427102Y22275828D01*
X7427109Y22275815D01*
X7514710Y22144712D01*
X7514713Y22144708D01*
X7626207Y22033214D01*
X7626211Y22033211D01*
X7757314Y21945610D01*
X7757327Y21945603D01*
X7902998Y21885265D01*
X7903003Y21885263D01*
X8057653Y21854501D01*
X8057656Y21854500D01*
X8057658Y21854500D01*
X8215344Y21854500D01*
X8215345Y21854501D01*
X8369997Y21885263D01*
X8377607Y21888416D01*
X8382694Y21890522D01*
X8515672Y21945603D01*
X8515672Y21945604D01*
X8515679Y21945606D01*
X8646789Y22033211D01*
X8758289Y22144711D01*
X8845894Y22275821D01*
X8906237Y22421503D01*
X8937000Y22576158D01*
X8937000Y22733842D01*
X8937000Y22733845D01*
X8936999Y22733847D01*
X8931745Y22760262D01*
X8906237Y22888497D01*
X8880419Y22950828D01*
X8845897Y23034173D01*
X8845890Y23034186D01*
X8758289Y23165289D01*
X8758286Y23165293D01*
X8646792Y23276787D01*
X8646788Y23276790D01*
X8515685Y23364391D01*
X8515672Y23364398D01*
X8370001Y23424736D01*
X8369989Y23424739D01*
X8215345Y23455500D01*
X8215342Y23455500D01*
X8057658Y23455500D01*
X8057655Y23455500D01*
X7903010Y23424739D01*
X7902998Y23424736D01*
X7757327Y23364398D01*
X7757314Y23364391D01*
X7626211Y23276790D01*
X7626207Y23276787D01*
X7514713Y23165293D01*
X7514710Y23165289D01*
X7427109Y23034186D01*
X7427102Y23034173D01*
X7366764Y22888502D01*
X7366761Y22888490D01*
X7336000Y22733847D01*
X1601500Y22733847D01*
X1601500Y23155500D01*
X1621185Y23222539D01*
X1673989Y23268294D01*
X1725500Y23279500D01*
X1828844Y23279500D01*
X1828845Y23279501D01*
X1983497Y23310263D01*
X2114182Y23364394D01*
X2129172Y23370603D01*
X2129172Y23370604D01*
X2129179Y23370606D01*
X2260289Y23458211D01*
X2371789Y23569711D01*
X2459394Y23700821D01*
X2462854Y23709173D01*
X2517163Y23840289D01*
X2519737Y23846503D01*
X2550500Y24001158D01*
X2550500Y24158842D01*
X2550500Y24158845D01*
X2550499Y24158847D01*
X2542321Y24199961D01*
X2519737Y24313497D01*
X2515297Y24324216D01*
X2459397Y24459173D01*
X2459390Y24459186D01*
X2371789Y24590289D01*
X2371786Y24590293D01*
X2260292Y24701787D01*
X2260288Y24701790D01*
X2129185Y24789391D01*
X2129172Y24789398D01*
X1983501Y24849736D01*
X1983489Y24849739D01*
X1828845Y24880500D01*
X1828842Y24880500D01*
X1725500Y24880500D01*
X1658461Y24900185D01*
X1612706Y24952989D01*
X1601500Y25004500D01*
X1601500Y25808847D01*
X2124500Y25808847D01*
X2124500Y25651154D01*
X2155261Y25496511D01*
X2155264Y25496499D01*
X2215602Y25350828D01*
X2215609Y25350815D01*
X2303210Y25219712D01*
X2303213Y25219708D01*
X2414707Y25108214D01*
X2414711Y25108211D01*
X2545814Y25020610D01*
X2545827Y25020603D01*
X2690542Y24960661D01*
X2691503Y24960263D01*
X2836279Y24931465D01*
X2846153Y24929501D01*
X2846156Y24929500D01*
X2846158Y24929500D01*
X3003844Y24929500D01*
X3003845Y24929501D01*
X3158497Y24960263D01*
X3276592Y25009179D01*
X3304172Y25020603D01*
X3304172Y25020604D01*
X3304179Y25020606D01*
X3435289Y25108211D01*
X3546789Y25219711D01*
X3634394Y25350821D01*
X3694737Y25496503D01*
X3725500Y25651158D01*
X3725500Y25808842D01*
X3725500Y25808845D01*
X3725499Y25808847D01*
X3715679Y25858214D01*
X3694737Y25963497D01*
X3692163Y25969712D01*
X3634397Y26109173D01*
X3634390Y26109186D01*
X3546789Y26240289D01*
X3546786Y26240293D01*
X3435292Y26351787D01*
X3435288Y26351790D01*
X3420985Y26361347D01*
X6199500Y26361347D01*
X6199500Y26203654D01*
X6230261Y26049011D01*
X6230264Y26048999D01*
X6290602Y25903328D01*
X6290609Y25903315D01*
X6378210Y25772212D01*
X6378213Y25772208D01*
X6489707Y25660714D01*
X6489711Y25660711D01*
X6620814Y25573110D01*
X6620827Y25573103D01*
X6714814Y25534173D01*
X6766503Y25512763D01*
X6921153Y25482001D01*
X6921156Y25482000D01*
X6921158Y25482000D01*
X7078844Y25482000D01*
X7078845Y25482001D01*
X7233497Y25512763D01*
X7379179Y25573106D01*
X7510289Y25660711D01*
X7621789Y25772211D01*
X7709394Y25903321D01*
X7769737Y26049003D01*
X7800500Y26203658D01*
X7800500Y26361342D01*
X7800500Y26361345D01*
X7775959Y26484717D01*
X7770923Y26510035D01*
X7777150Y26579626D01*
X7789436Y26603113D01*
X7848277Y26691174D01*
X7857526Y26713502D01*
X7897225Y26809347D01*
X7908620Y26836856D01*
X7939383Y26991511D01*
X7939383Y27073490D01*
X9776954Y27073490D01*
X9817879Y26920758D01*
X9817880Y26920757D01*
X9818980Y26918852D01*
X9836719Y26888127D01*
X9891762Y26792789D01*
X9896937Y26783827D01*
X9938181Y26742583D01*
X9971666Y26681260D01*
X9974500Y26654902D01*
X9974500Y24072346D01*
X9954815Y24005307D01*
X9953602Y24003455D01*
X9890607Y23909177D01*
X9830267Y23763502D01*
X9830264Y23763490D01*
X9799503Y23608847D01*
X9799503Y23451154D01*
X9830264Y23296511D01*
X9830267Y23296499D01*
X9890605Y23150828D01*
X9890612Y23150815D01*
X9978213Y23019712D01*
X9978216Y23019708D01*
X10089710Y22908214D01*
X10089714Y22908211D01*
X10220817Y22820610D01*
X10220830Y22820603D01*
X10366501Y22760265D01*
X10366506Y22760263D01*
X10521156Y22729501D01*
X10521159Y22729500D01*
X10521161Y22729500D01*
X10678847Y22729500D01*
X10678848Y22729501D01*
X10833500Y22760263D01*
X10979182Y22820606D01*
X11110292Y22908211D01*
X11221792Y23019711D01*
X11309397Y23150821D01*
X11315392Y23165293D01*
X11350957Y23251156D01*
X11369740Y23296503D01*
X11400503Y23451158D01*
X11400503Y23608842D01*
X11400503Y23608845D01*
X11376664Y23728689D01*
X11382891Y23798281D01*
X11425754Y23853458D01*
X11450817Y23867437D01*
X11579182Y23920606D01*
X11710292Y24008211D01*
X11821792Y24119711D01*
X11909397Y24250821D01*
X11909399Y24250828D01*
X11912267Y24256191D01*
X11914129Y24255196D01*
X11951954Y24302144D01*
X12018246Y24324216D01*
X12085947Y24306943D01*
X12133563Y24255811D01*
X12146685Y24199961D01*
X12146296Y24055500D01*
X12145080Y23603836D01*
X12144897Y23535925D01*
X12139377Y21485928D01*
X12127982Y17253836D01*
X12127799Y17185925D01*
X12125559Y16353836D01*
X12125376Y16285925D01*
X12118020Y13553836D01*
X12117837Y13485925D01*
X12112653Y11560603D01*
X12111531Y11144120D01*
X12113841Y11094471D01*
X12116166Y11070244D01*
X12116167Y11070240D01*
X12123335Y11021091D01*
X12131286Y10980626D01*
X12131287Y10980621D01*
X12159897Y10885563D01*
X12178349Y10840763D01*
X12178350Y10840760D01*
X12224980Y10753136D01*
X12224983Y10753130D01*
X12240913Y10729202D01*
X12303769Y10652376D01*
X12303770Y10652375D01*
X12337993Y10618060D01*
X12414655Y10554995D01*
X12430446Y10544421D01*
X12438538Y10539002D01*
X12438540Y10539001D01*
X12438546Y10538997D01*
X12526037Y10492137D01*
X12526046Y10492134D01*
X12526048Y10492132D01*
X12548416Y10482849D01*
X12570796Y10473561D01*
X12665777Y10444695D01*
X12706210Y10436638D01*
X12755361Y10429334D01*
X12779593Y10426943D01*
X12824717Y10424723D01*
X12829229Y10424500D01*
X12829230Y10424500D01*
X16708814Y10424500D01*
X16708827Y10424500D01*
X16758387Y10426935D01*
X16758403Y10426937D01*
X16758408Y10426937D01*
X16768353Y10427917D01*
X16782586Y10429319D01*
X16814267Y10434020D01*
X16831657Y10436600D01*
X16831660Y10436601D01*
X16831676Y10436603D01*
X16872057Y10444638D01*
X16966929Y10473429D01*
X17011644Y10491959D01*
X17099059Y10538705D01*
X17122930Y10554663D01*
X17199529Y10617559D01*
X17233740Y10651788D01*
X17296605Y10728435D01*
X17312551Y10752317D01*
X17359250Y10839761D01*
X17377754Y10884485D01*
X17406488Y10979361D01*
X17414501Y11019746D01*
X17421758Y11068837D01*
X17424129Y11093037D01*
X17426538Y11142599D01*
X17426362Y11469501D01*
X17425722Y12658847D01*
X18499500Y12658847D01*
X18499500Y12501154D01*
X18530261Y12346511D01*
X18530264Y12346499D01*
X18590602Y12200828D01*
X18590609Y12200815D01*
X18678210Y12069712D01*
X18678213Y12069708D01*
X18789707Y11958214D01*
X18789711Y11958211D01*
X18920814Y11870610D01*
X18920827Y11870603D01*
X19066498Y11810265D01*
X19066503Y11810263D01*
X19221153Y11779501D01*
X19221156Y11779500D01*
X19221158Y11779500D01*
X19378844Y11779500D01*
X19378845Y11779501D01*
X19533497Y11810263D01*
X19679179Y11870606D01*
X19810289Y11958211D01*
X19921789Y12069711D01*
X19947398Y12108037D01*
X20001010Y12152842D01*
X20070335Y12161549D01*
X20133363Y12131395D01*
X20170082Y12071952D01*
X20174500Y12039146D01*
X20174500Y11951154D01*
X20205261Y11796511D01*
X20205264Y11796499D01*
X20265602Y11650828D01*
X20265609Y11650815D01*
X20353210Y11519712D01*
X20353213Y11519708D01*
X20464707Y11408214D01*
X20464711Y11408211D01*
X20595814Y11320610D01*
X20595827Y11320603D01*
X20685980Y11283261D01*
X20741503Y11260263D01*
X20896153Y11229501D01*
X20896156Y11229500D01*
X20896158Y11229500D01*
X21053844Y11229500D01*
X21053845Y11229501D01*
X21208497Y11260263D01*
X21354179Y11320606D01*
X21485289Y11408211D01*
X21596789Y11519711D01*
X21684394Y11650821D01*
X21744737Y11796503D01*
X21775500Y11951158D01*
X21775500Y12108842D01*
X21775500Y12108845D01*
X21775499Y12108847D01*
X21774526Y12113742D01*
X21770925Y12131846D01*
X22190776Y12131846D01*
X22190776Y11974153D01*
X22221537Y11819510D01*
X22221540Y11819498D01*
X22281878Y11673827D01*
X22281885Y11673814D01*
X22369486Y11542711D01*
X22369489Y11542707D01*
X22480983Y11431213D01*
X22480987Y11431210D01*
X22612090Y11343609D01*
X22612103Y11343602D01*
X22757774Y11283264D01*
X22757779Y11283262D01*
X22912429Y11252500D01*
X22912432Y11252499D01*
X22912434Y11252499D01*
X23070120Y11252499D01*
X23070121Y11252500D01*
X23224773Y11283262D01*
X23370455Y11343605D01*
X23501565Y11431210D01*
X23613065Y11542710D01*
X23700670Y11673820D01*
X23761013Y11819502D01*
X23791776Y11974157D01*
X23791776Y12131841D01*
X23791776Y12131844D01*
X23791775Y12131846D01*
X23788860Y12146499D01*
X23761013Y12286496D01*
X23736159Y12346499D01*
X23700673Y12432172D01*
X23700666Y12432185D01*
X23613065Y12563288D01*
X23613062Y12563292D01*
X23501568Y12674786D01*
X23501564Y12674789D01*
X23370461Y12762390D01*
X23370457Y12762392D01*
X23370445Y12762397D01*
X23339117Y12775374D01*
X23339116Y12775375D01*
X23224777Y12822735D01*
X23224765Y12822738D01*
X23070121Y12853499D01*
X23070118Y12853499D01*
X22912434Y12853499D01*
X22912431Y12853499D01*
X22757786Y12822738D01*
X22757774Y12822735D01*
X22612103Y12762397D01*
X22612090Y12762390D01*
X22480987Y12674789D01*
X22480983Y12674786D01*
X22369489Y12563292D01*
X22369486Y12563288D01*
X22281885Y12432185D01*
X22281878Y12432172D01*
X22221540Y12286501D01*
X22221537Y12286489D01*
X22190776Y12131846D01*
X21770925Y12131846D01*
X21744738Y12263490D01*
X21744737Y12263497D01*
X21744735Y12263502D01*
X21684397Y12409173D01*
X21684390Y12409186D01*
X21596789Y12540289D01*
X21596786Y12540293D01*
X21485292Y12651787D01*
X21485288Y12651790D01*
X21354185Y12739391D01*
X21354172Y12739398D01*
X21208501Y12799736D01*
X21208489Y12799739D01*
X21053845Y12830500D01*
X21053842Y12830500D01*
X20896158Y12830500D01*
X20896155Y12830500D01*
X20741510Y12799739D01*
X20741498Y12799736D01*
X20595827Y12739398D01*
X20595814Y12739391D01*
X20464711Y12651790D01*
X20464707Y12651787D01*
X20353213Y12540293D01*
X20353208Y12540287D01*
X20327601Y12501963D01*
X20273989Y12457159D01*
X20204664Y12448452D01*
X20141636Y12478607D01*
X20104918Y12538051D01*
X20100500Y12570855D01*
X20100500Y12658845D01*
X20100499Y12658847D01*
X20099302Y12664867D01*
X20069737Y12813497D01*
X20042398Y12879500D01*
X20040597Y12883847D01*
X27149500Y12883847D01*
X27149500Y12726154D01*
X27180261Y12571511D01*
X27180264Y12571499D01*
X27240602Y12425828D01*
X27240609Y12425815D01*
X27328210Y12294712D01*
X27328213Y12294708D01*
X27439707Y12183214D01*
X27439711Y12183211D01*
X27570814Y12095610D01*
X27570827Y12095603D01*
X27713490Y12036511D01*
X27716503Y12035263D01*
X27871153Y12004501D01*
X27871156Y12004500D01*
X27871158Y12004500D01*
X28028844Y12004500D01*
X28028845Y12004501D01*
X28183497Y12035263D01*
X28329179Y12095606D01*
X28460289Y12183211D01*
X28571789Y12294711D01*
X28659394Y12425821D01*
X28719737Y12571503D01*
X28750500Y12726158D01*
X28750500Y12883842D01*
X28750500Y12883845D01*
X28750499Y12883847D01*
X28745245Y12910262D01*
X28719737Y13038497D01*
X28698655Y13089394D01*
X28659397Y13184173D01*
X28659390Y13184186D01*
X28571789Y13315289D01*
X28571786Y13315293D01*
X28460292Y13426787D01*
X28460288Y13426790D01*
X28329185Y13514391D01*
X28329172Y13514398D01*
X28183501Y13574736D01*
X28183489Y13574739D01*
X28028845Y13605500D01*
X28028842Y13605500D01*
X27871158Y13605500D01*
X27871155Y13605500D01*
X27716510Y13574739D01*
X27716498Y13574736D01*
X27570827Y13514398D01*
X27570814Y13514391D01*
X27439711Y13426790D01*
X27439707Y13426787D01*
X27328213Y13315293D01*
X27328210Y13315289D01*
X27240609Y13184186D01*
X27240602Y13184173D01*
X27180264Y13038502D01*
X27180261Y13038490D01*
X27149500Y12883847D01*
X20040597Y12883847D01*
X20009397Y12959173D01*
X20009390Y12959186D01*
X19921789Y13090289D01*
X19921786Y13090293D01*
X19810292Y13201787D01*
X19810288Y13201790D01*
X19679185Y13289391D01*
X19679172Y13289398D01*
X19533501Y13349736D01*
X19533489Y13349739D01*
X19378845Y13380500D01*
X19378842Y13380500D01*
X19221158Y13380500D01*
X19221155Y13380500D01*
X19066510Y13349739D01*
X19066498Y13349736D01*
X18920827Y13289398D01*
X18920814Y13289391D01*
X18789711Y13201790D01*
X18789707Y13201787D01*
X18678213Y13090293D01*
X18678210Y13090289D01*
X18590609Y12959186D01*
X18590602Y12959173D01*
X18530264Y12813502D01*
X18530261Y12813490D01*
X18499500Y12658847D01*
X17425722Y12658847D01*
X17425719Y12664867D01*
X17424982Y14033847D01*
X20149500Y14033847D01*
X20149500Y13876154D01*
X20180261Y13721511D01*
X20180264Y13721499D01*
X20240602Y13575828D01*
X20240609Y13575815D01*
X20328210Y13444712D01*
X20328213Y13444708D01*
X20439707Y13333214D01*
X20439711Y13333211D01*
X20570814Y13245610D01*
X20570827Y13245603D01*
X20700460Y13191908D01*
X20716503Y13185263D01*
X20860103Y13156699D01*
X20871153Y13154501D01*
X20871156Y13154500D01*
X20871158Y13154500D01*
X21028844Y13154500D01*
X21028845Y13154501D01*
X21183497Y13185263D01*
X21329179Y13245606D01*
X21362315Y13267748D01*
X21428991Y13288626D01*
X21489648Y13271987D01*
X21490446Y13273479D01*
X21495827Y13270603D01*
X21611552Y13222669D01*
X21641503Y13210263D01*
X21791131Y13180500D01*
X21796153Y13179501D01*
X21796156Y13179500D01*
X21796158Y13179500D01*
X21953844Y13179500D01*
X21953845Y13179501D01*
X22108497Y13210263D01*
X22254179Y13270606D01*
X22254184Y13270610D01*
X22259546Y13273475D01*
X22260815Y13271101D01*
X22316338Y13288548D01*
X22366128Y13279132D01*
X22502439Y13222670D01*
X22657089Y13191908D01*
X22657092Y13191907D01*
X22657094Y13191907D01*
X22814780Y13191907D01*
X22814781Y13191908D01*
X22969433Y13222670D01*
X23115115Y13283013D01*
X23246225Y13370618D01*
X23357725Y13482118D01*
X23445330Y13613228D01*
X23505673Y13758910D01*
X23536436Y13913565D01*
X23536436Y14071249D01*
X23536436Y14071252D01*
X23512757Y14190289D01*
X23505673Y14225904D01*
X23502079Y14234580D01*
X23502078Y14234582D01*
X25373765Y14234582D01*
X25373765Y14076889D01*
X25404526Y13922246D01*
X25404529Y13922234D01*
X25464867Y13776563D01*
X25464874Y13776550D01*
X25552475Y13645447D01*
X25552478Y13645443D01*
X25663972Y13533949D01*
X25663976Y13533946D01*
X25795079Y13446345D01*
X25795092Y13446338D01*
X25940763Y13386000D01*
X25940768Y13385998D01*
X26095418Y13355236D01*
X26095421Y13355235D01*
X26095423Y13355235D01*
X26253109Y13355235D01*
X26253110Y13355236D01*
X26407762Y13385998D01*
X26553444Y13446341D01*
X26684554Y13533946D01*
X26796054Y13645446D01*
X26883659Y13776556D01*
X26944002Y13922238D01*
X26974765Y14076893D01*
X26974765Y14234577D01*
X26974765Y14234580D01*
X26974764Y14234582D01*
X26961396Y14301787D01*
X26944002Y14389232D01*
X26918940Y14449737D01*
X26883662Y14534908D01*
X26883655Y14534921D01*
X26796054Y14666024D01*
X26796051Y14666028D01*
X26684557Y14777522D01*
X26684553Y14777525D01*
X26553450Y14865126D01*
X26553437Y14865133D01*
X26407766Y14925471D01*
X26407754Y14925474D01*
X26253110Y14956235D01*
X26253107Y14956235D01*
X26095423Y14956235D01*
X26095420Y14956235D01*
X25940775Y14925474D01*
X25940763Y14925471D01*
X25795092Y14865133D01*
X25795079Y14865126D01*
X25663976Y14777525D01*
X25663972Y14777522D01*
X25552478Y14666028D01*
X25552475Y14666024D01*
X25464874Y14534921D01*
X25464867Y14534908D01*
X25404529Y14389237D01*
X25404526Y14389225D01*
X25373765Y14234582D01*
X23502078Y14234582D01*
X23445333Y14371580D01*
X23445326Y14371593D01*
X23357725Y14502696D01*
X23357722Y14502700D01*
X23246228Y14614194D01*
X23246224Y14614197D01*
X23115121Y14701798D01*
X23115108Y14701805D01*
X22969437Y14762143D01*
X22969425Y14762146D01*
X22814781Y14792907D01*
X22814778Y14792907D01*
X22657094Y14792907D01*
X22657091Y14792907D01*
X22502446Y14762146D01*
X22502434Y14762143D01*
X22356759Y14701803D01*
X22351388Y14698931D01*
X22350141Y14701264D01*
X22294342Y14683856D01*
X22244806Y14693277D01*
X22108501Y14749736D01*
X22108489Y14749739D01*
X21953845Y14780500D01*
X21953842Y14780500D01*
X21796158Y14780500D01*
X21796155Y14780500D01*
X21641510Y14749739D01*
X21641498Y14749736D01*
X21495828Y14689398D01*
X21495819Y14689393D01*
X21462681Y14667251D01*
X21396003Y14646375D01*
X21335352Y14663015D01*
X21334554Y14661521D01*
X21329172Y14664398D01*
X21183501Y14724736D01*
X21183489Y14724739D01*
X21028845Y14755500D01*
X21028842Y14755500D01*
X20871158Y14755500D01*
X20871155Y14755500D01*
X20716510Y14724739D01*
X20716498Y14724736D01*
X20570827Y14664398D01*
X20570814Y14664391D01*
X20439711Y14576790D01*
X20439707Y14576787D01*
X20328213Y14465293D01*
X20328210Y14465289D01*
X20240609Y14334186D01*
X20240602Y14334173D01*
X20180264Y14188502D01*
X20180261Y14188490D01*
X20149500Y14033847D01*
X17424982Y14033847D01*
X17424979Y14039867D01*
X17424052Y15759265D01*
X23375327Y15759265D01*
X23375327Y15601572D01*
X23406088Y15446929D01*
X23406091Y15446917D01*
X23466429Y15301246D01*
X23466436Y15301233D01*
X23554037Y15170130D01*
X23554040Y15170126D01*
X23665534Y15058632D01*
X23665538Y15058629D01*
X23796641Y14971028D01*
X23796654Y14971021D01*
X23942325Y14910683D01*
X23942330Y14910681D01*
X24096980Y14879919D01*
X24096983Y14879918D01*
X24096985Y14879918D01*
X24254671Y14879918D01*
X24254672Y14879919D01*
X24409324Y14910681D01*
X24555006Y14971024D01*
X24686116Y15058629D01*
X24797616Y15170129D01*
X24836370Y15228130D01*
X24889980Y15272932D01*
X24959305Y15281641D01*
X25008362Y15262339D01*
X25070814Y15220610D01*
X25070827Y15220603D01*
X25192684Y15170129D01*
X25216503Y15160263D01*
X25371153Y15129501D01*
X25371156Y15129500D01*
X25371158Y15129500D01*
X25528844Y15129500D01*
X25528845Y15129501D01*
X25683497Y15160263D01*
X25829179Y15220606D01*
X25960289Y15308211D01*
X26071789Y15419711D01*
X26089295Y15445913D01*
X26142904Y15490716D01*
X26212229Y15499426D01*
X26239849Y15491583D01*
X26317233Y15459530D01*
X26317238Y15459528D01*
X26471888Y15428766D01*
X26471891Y15428765D01*
X26471893Y15428765D01*
X26629579Y15428765D01*
X26629580Y15428766D01*
X26784232Y15459528D01*
X26929914Y15519871D01*
X27061024Y15607476D01*
X27172524Y15718976D01*
X27260129Y15850086D01*
X27320472Y15995768D01*
X27351235Y16150423D01*
X27351235Y16308107D01*
X27351235Y16308110D01*
X27351234Y16308112D01*
X27342139Y16353836D01*
X27320472Y16462762D01*
X27283596Y16551790D01*
X27260132Y16608438D01*
X27260125Y16608451D01*
X27172524Y16739554D01*
X27172521Y16739558D01*
X27061027Y16851052D01*
X27061023Y16851055D01*
X26929920Y16938656D01*
X26929907Y16938663D01*
X26784236Y16999001D01*
X26784224Y16999004D01*
X26629580Y17029765D01*
X26629577Y17029765D01*
X26471893Y17029765D01*
X26471890Y17029765D01*
X26317245Y16999004D01*
X26317233Y16999001D01*
X26171562Y16938663D01*
X26171549Y16938656D01*
X26040446Y16851055D01*
X26040442Y16851052D01*
X25928948Y16739558D01*
X25928943Y16739552D01*
X25911437Y16713352D01*
X25857824Y16668547D01*
X25788499Y16659841D01*
X25760884Y16667683D01*
X25683501Y16699736D01*
X25683489Y16699739D01*
X25528845Y16730500D01*
X25528842Y16730500D01*
X25371158Y16730500D01*
X25371155Y16730500D01*
X25216510Y16699739D01*
X25216498Y16699736D01*
X25070827Y16639398D01*
X25070814Y16639391D01*
X24939711Y16551790D01*
X24939707Y16551787D01*
X24828213Y16440293D01*
X24828210Y16440289D01*
X24789457Y16382291D01*
X24735844Y16337486D01*
X24666519Y16328779D01*
X24617465Y16348079D01*
X24555010Y16389810D01*
X24554999Y16389816D01*
X24409328Y16450154D01*
X24409316Y16450157D01*
X24254672Y16480918D01*
X24254669Y16480918D01*
X24096985Y16480918D01*
X24096982Y16480918D01*
X23942337Y16450157D01*
X23942325Y16450154D01*
X23796654Y16389816D01*
X23796641Y16389809D01*
X23665538Y16302208D01*
X23665534Y16302205D01*
X23554040Y16190711D01*
X23554037Y16190707D01*
X23466436Y16059604D01*
X23466429Y16059591D01*
X23406091Y15913920D01*
X23406088Y15913908D01*
X23375327Y15759265D01*
X17424052Y15759265D01*
X17424049Y15765285D01*
X17423083Y17558847D01*
X22299500Y17558847D01*
X22299500Y17401154D01*
X22330261Y17246511D01*
X22330264Y17246499D01*
X22390602Y17100828D01*
X22390609Y17100815D01*
X22478210Y16969712D01*
X22478213Y16969708D01*
X22589707Y16858214D01*
X22589711Y16858211D01*
X22720814Y16770610D01*
X22720827Y16770603D01*
X22817646Y16730500D01*
X22866503Y16710263D01*
X23021153Y16679501D01*
X23021156Y16679500D01*
X23021158Y16679500D01*
X23178844Y16679500D01*
X23178845Y16679501D01*
X23333497Y16710263D01*
X23479179Y16770606D01*
X23610289Y16858211D01*
X23721789Y16969711D01*
X23809394Y17100821D01*
X23869737Y17246503D01*
X23900500Y17401158D01*
X23900500Y17558842D01*
X23900500Y17558845D01*
X23900499Y17558847D01*
X23894360Y17589711D01*
X23869737Y17713497D01*
X23866703Y17720821D01*
X23809397Y17859173D01*
X23809390Y17859186D01*
X23721789Y17990289D01*
X23721786Y17990293D01*
X23610292Y18101787D01*
X23610288Y18101790D01*
X23479185Y18189391D01*
X23479172Y18189398D01*
X23333501Y18249736D01*
X23333489Y18249739D01*
X23178845Y18280500D01*
X23178842Y18280500D01*
X23021158Y18280500D01*
X23021155Y18280500D01*
X22866510Y18249739D01*
X22866498Y18249736D01*
X22720827Y18189398D01*
X22720814Y18189391D01*
X22589711Y18101790D01*
X22589707Y18101787D01*
X22478213Y17990293D01*
X22478210Y17990289D01*
X22390609Y17859186D01*
X22390602Y17859173D01*
X22330264Y17713502D01*
X22330261Y17713490D01*
X22299500Y17558847D01*
X17423083Y17558847D01*
X17423080Y17564867D01*
X17422060Y19458847D01*
X22299500Y19458847D01*
X22299500Y19301154D01*
X22330261Y19146511D01*
X22330264Y19146499D01*
X22390602Y19000828D01*
X22390609Y19000815D01*
X22478210Y18869712D01*
X22478213Y18869708D01*
X22589707Y18758214D01*
X22589711Y18758211D01*
X22720814Y18670610D01*
X22720827Y18670603D01*
X22866440Y18610289D01*
X22866503Y18610263D01*
X23021153Y18579501D01*
X23021156Y18579500D01*
X23021158Y18579500D01*
X23178844Y18579500D01*
X23178845Y18579501D01*
X23333497Y18610263D01*
X23479179Y18670606D01*
X23610289Y18758211D01*
X23721789Y18869711D01*
X23809394Y19000821D01*
X23869737Y19146503D01*
X23900500Y19301158D01*
X23900500Y19458842D01*
X23900500Y19458845D01*
X23900499Y19458847D01*
X23899302Y19464867D01*
X23869737Y19613497D01*
X23869735Y19613502D01*
X23809397Y19759173D01*
X23809390Y19759186D01*
X23721789Y19890289D01*
X23721786Y19890293D01*
X23610292Y20001787D01*
X23610288Y20001790D01*
X23479185Y20089391D01*
X23479172Y20089398D01*
X23333501Y20149736D01*
X23333489Y20149739D01*
X23178845Y20180500D01*
X23178842Y20180500D01*
X23021158Y20180500D01*
X23021155Y20180500D01*
X22866510Y20149739D01*
X22866498Y20149736D01*
X22720827Y20089398D01*
X22720814Y20089391D01*
X22589711Y20001790D01*
X22589707Y20001787D01*
X22478213Y19890293D01*
X22478210Y19890289D01*
X22390609Y19759186D01*
X22390602Y19759173D01*
X22330264Y19613502D01*
X22330261Y19613490D01*
X22299500Y19458847D01*
X17422060Y19458847D01*
X17422057Y19464867D01*
X17421146Y21156090D01*
X17421146Y21156101D01*
X17414124Y21239793D01*
X17407304Y21280282D01*
X17399242Y21311848D01*
X17386523Y21361652D01*
X17354404Y21423954D01*
X17341180Y21492561D01*
X17351796Y21532222D01*
X17380749Y21595709D01*
X17400397Y21662759D01*
X17420796Y21805183D01*
X17418949Y25233847D01*
X17699500Y25233847D01*
X17699500Y25076154D01*
X17730261Y24921511D01*
X17730264Y24921499D01*
X17790602Y24775828D01*
X17790609Y24775815D01*
X17878210Y24644712D01*
X17878213Y24644708D01*
X17989707Y24533214D01*
X17989711Y24533211D01*
X18120814Y24445610D01*
X18120827Y24445603D01*
X18239367Y24396503D01*
X18266503Y24385263D01*
X18335302Y24371578D01*
X18410307Y24356658D01*
X18472218Y24324273D01*
X18506792Y24263558D01*
X18503053Y24193788D01*
X18462186Y24137116D01*
X18410308Y24113424D01*
X18341508Y24099739D01*
X18341498Y24099736D01*
X18195827Y24039398D01*
X18195814Y24039391D01*
X18064711Y23951790D01*
X18064707Y23951787D01*
X17953213Y23840293D01*
X17953210Y23840289D01*
X17865609Y23709186D01*
X17865602Y23709173D01*
X17805264Y23563502D01*
X17805261Y23563490D01*
X17774500Y23408847D01*
X17774500Y23251154D01*
X17805261Y23096511D01*
X17805264Y23096499D01*
X17865602Y22950828D01*
X17865609Y22950815D01*
X17953210Y22819712D01*
X17953213Y22819708D01*
X18064707Y22708214D01*
X18064711Y22708211D01*
X18195814Y22620610D01*
X18195827Y22620603D01*
X18303138Y22576154D01*
X18341503Y22560263D01*
X18496153Y22529501D01*
X18496156Y22529500D01*
X18496158Y22529500D01*
X18653844Y22529500D01*
X18653845Y22529501D01*
X18808497Y22560263D01*
X18954179Y22620606D01*
X19085289Y22708211D01*
X19196789Y22819711D01*
X19284394Y22950821D01*
X19344737Y23096503D01*
X19375500Y23251158D01*
X19375500Y23333847D01*
X22399500Y23333847D01*
X22399500Y23176154D01*
X22430261Y23021511D01*
X22430264Y23021499D01*
X22490602Y22875828D01*
X22490609Y22875815D01*
X22578210Y22744712D01*
X22578213Y22744708D01*
X22689707Y22633214D01*
X22689711Y22633211D01*
X22820814Y22545610D01*
X22820827Y22545603D01*
X22972130Y22482932D01*
X22971349Y22481048D01*
X23021985Y22447860D01*
X23050440Y22384047D01*
X23039878Y22314981D01*
X22993652Y22262588D01*
X22971889Y22252650D01*
X22972130Y22252068D01*
X22820827Y22189398D01*
X22820814Y22189391D01*
X22689711Y22101790D01*
X22689707Y22101787D01*
X22578213Y21990293D01*
X22578210Y21990289D01*
X22490609Y21859186D01*
X22490602Y21859173D01*
X22430264Y21713502D01*
X22430261Y21713490D01*
X22399500Y21558847D01*
X22399500Y21401154D01*
X22430261Y21246511D01*
X22430264Y21246499D01*
X22490602Y21100828D01*
X22490609Y21100815D01*
X22578210Y20969712D01*
X22578213Y20969708D01*
X22689707Y20858214D01*
X22689711Y20858211D01*
X22820814Y20770610D01*
X22820827Y20770603D01*
X22966498Y20710265D01*
X22966503Y20710263D01*
X23121153Y20679501D01*
X23121156Y20679500D01*
X23121158Y20679500D01*
X23278844Y20679500D01*
X23278845Y20679501D01*
X23433497Y20710263D01*
X23562016Y20763497D01*
X23579172Y20770603D01*
X23579172Y20770604D01*
X23579179Y20770606D01*
X23710289Y20858211D01*
X23821789Y20969711D01*
X23909394Y21100821D01*
X23969737Y21246503D01*
X24000500Y21401158D01*
X24000500Y21558842D01*
X24000500Y21558845D01*
X24000499Y21558847D01*
X23979829Y21662759D01*
X23969737Y21713497D01*
X23946385Y21769874D01*
X23909397Y21859173D01*
X23909390Y21859186D01*
X23821789Y21990289D01*
X23821786Y21990293D01*
X23710292Y22101787D01*
X23710288Y22101790D01*
X23579185Y22189391D01*
X23579172Y22189398D01*
X23427870Y22252068D01*
X23428651Y22253956D01*
X23378021Y22287131D01*
X23349561Y22350941D01*
X23360116Y22420009D01*
X23406337Y22472405D01*
X23428111Y22482350D01*
X23427870Y22482932D01*
X23579172Y22545603D01*
X23579172Y22545604D01*
X23579179Y22545606D01*
X23710289Y22633211D01*
X23821789Y22744711D01*
X23909394Y22875821D01*
X23969737Y23021503D01*
X24000500Y23176158D01*
X24000500Y23333842D01*
X24000500Y23333845D01*
X24000499Y23333847D01*
X23977165Y23451154D01*
X23969737Y23488497D01*
X23938674Y23563490D01*
X23909397Y23634173D01*
X23909390Y23634186D01*
X23821789Y23765289D01*
X23821786Y23765293D01*
X23710292Y23876787D01*
X23710288Y23876790D01*
X23579185Y23964391D01*
X23579172Y23964398D01*
X23433501Y24024736D01*
X23433489Y24024739D01*
X23278845Y24055500D01*
X23278842Y24055500D01*
X23121158Y24055500D01*
X23121155Y24055500D01*
X22966510Y24024739D01*
X22966498Y24024736D01*
X22820827Y23964398D01*
X22820814Y23964391D01*
X22689711Y23876790D01*
X22689707Y23876787D01*
X22578213Y23765293D01*
X22578210Y23765289D01*
X22490609Y23634186D01*
X22490602Y23634173D01*
X22430264Y23488502D01*
X22430261Y23488490D01*
X22399500Y23333847D01*
X19375500Y23333847D01*
X19375500Y23408842D01*
X19375500Y23408845D01*
X19375499Y23408847D01*
X19372338Y23424739D01*
X19344737Y23563497D01*
X19325955Y23608842D01*
X19284397Y23709173D01*
X19284390Y23709186D01*
X19196789Y23840289D01*
X19196786Y23840293D01*
X19085292Y23951787D01*
X19085288Y23951790D01*
X18954185Y24039391D01*
X18954172Y24039398D01*
X18808501Y24099736D01*
X18808491Y24099739D01*
X18664691Y24128343D01*
X18602780Y24160728D01*
X18568206Y24221444D01*
X18571947Y24291214D01*
X18612813Y24347885D01*
X18664688Y24371577D01*
X18733497Y24385263D01*
X18879179Y24445606D01*
X19010289Y24533211D01*
X19121789Y24644711D01*
X19209394Y24775821D01*
X19269737Y24921503D01*
X19300500Y25076158D01*
X19300500Y25233842D01*
X19300500Y25233845D01*
X19300499Y25233847D01*
X19287177Y25300821D01*
X19269737Y25388497D01*
X19245712Y25446499D01*
X19209397Y25534173D01*
X19209390Y25534186D01*
X19121789Y25665289D01*
X19121786Y25665293D01*
X19028232Y25758847D01*
X21074500Y25758847D01*
X21074500Y25601154D01*
X21105261Y25446511D01*
X21105264Y25446499D01*
X21165602Y25300828D01*
X21165609Y25300815D01*
X21253210Y25169712D01*
X21253213Y25169708D01*
X21364707Y25058214D01*
X21364711Y25058211D01*
X21495814Y24970610D01*
X21495827Y24970603D01*
X21641498Y24910265D01*
X21641503Y24910263D01*
X21791131Y24880500D01*
X21796153Y24879501D01*
X21796156Y24879500D01*
X21796158Y24879500D01*
X21953844Y24879500D01*
X21953845Y24879501D01*
X22108497Y24910263D01*
X22229213Y24960265D01*
X22254172Y24970603D01*
X22254172Y24970604D01*
X22254179Y24970606D01*
X22385289Y25058211D01*
X22496789Y25169711D01*
X22584394Y25300821D01*
X22644737Y25446503D01*
X22675500Y25601158D01*
X22675500Y25758842D01*
X22675500Y25758845D01*
X22675499Y25758847D01*
X22672841Y25772211D01*
X22644737Y25913497D01*
X22640081Y25924737D01*
X22584397Y26059173D01*
X22584390Y26059186D01*
X22496789Y26190289D01*
X22496786Y26190293D01*
X22385292Y26301787D01*
X22385288Y26301790D01*
X22254185Y26389391D01*
X22254172Y26389398D01*
X22108501Y26449736D01*
X22108489Y26449739D01*
X21953845Y26480500D01*
X21953842Y26480500D01*
X21796158Y26480500D01*
X21796155Y26480500D01*
X21641510Y26449739D01*
X21641498Y26449736D01*
X21495827Y26389398D01*
X21495814Y26389391D01*
X21364711Y26301790D01*
X21364707Y26301787D01*
X21253213Y26190293D01*
X21253210Y26190289D01*
X21165609Y26059186D01*
X21165602Y26059173D01*
X21105264Y25913502D01*
X21105261Y25913490D01*
X21074500Y25758847D01*
X19028232Y25758847D01*
X19010292Y25776787D01*
X19010288Y25776790D01*
X18879185Y25864391D01*
X18879172Y25864398D01*
X18733501Y25924736D01*
X18733489Y25924739D01*
X18578845Y25955500D01*
X18578842Y25955500D01*
X18421158Y25955500D01*
X18421155Y25955500D01*
X18266510Y25924739D01*
X18266498Y25924736D01*
X18120827Y25864398D01*
X18120814Y25864391D01*
X17989711Y25776790D01*
X17989707Y25776787D01*
X17878213Y25665293D01*
X17878210Y25665289D01*
X17790609Y25534186D01*
X17790602Y25534173D01*
X17730264Y25388502D01*
X17730261Y25388490D01*
X17699500Y25233847D01*
X17418949Y25233847D01*
X17418423Y26210397D01*
X17438071Y26277445D01*
X17490851Y26323229D01*
X17518914Y26332214D01*
X17562896Y26340703D01*
X17654954Y26367748D01*
X17779559Y26439686D01*
X17783357Y26442673D01*
X17848218Y26468645D01*
X17884203Y26466825D01*
X17926285Y26458454D01*
X17946157Y26454500D01*
X17946158Y26454500D01*
X18103843Y26454500D01*
X18124352Y26458580D01*
X18165731Y26466811D01*
X18235322Y26460584D01*
X18271069Y26438956D01*
X18289386Y26423103D01*
X18289387Y26423103D01*
X18289389Y26423101D01*
X18420302Y26363408D01*
X18420304Y26363408D01*
X18420305Y26363407D01*
X18487356Y26343762D01*
X18568010Y26332215D01*
X18629781Y26323371D01*
X18629783Y26323372D01*
X18629784Y26323371D01*
X18632027Y26323373D01*
X19901749Y26324121D01*
X20008297Y26335542D01*
X20059390Y26346591D01*
X20161127Y26380210D01*
X20282404Y26457626D01*
X20333712Y26501811D01*
X20334955Y26502843D01*
X20335348Y26503219D01*
X20335353Y26503223D01*
X20429906Y26611673D01*
X20451624Y26658847D01*
X25302500Y26658847D01*
X25302500Y26501154D01*
X25333261Y26346511D01*
X25333264Y26346499D01*
X25393602Y26200828D01*
X25393609Y26200815D01*
X25481210Y26069712D01*
X25481213Y26069708D01*
X25592707Y25958214D01*
X25592711Y25958211D01*
X25723814Y25870610D01*
X25723827Y25870603D01*
X25869498Y25810265D01*
X25869503Y25810263D01*
X26024153Y25779501D01*
X26024156Y25779500D01*
X26024158Y25779500D01*
X26181844Y25779500D01*
X26181845Y25779501D01*
X26336497Y25810263D01*
X26467182Y25864394D01*
X26482172Y25870603D01*
X26482172Y25870604D01*
X26482179Y25870606D01*
X26613289Y25958211D01*
X26724789Y26069711D01*
X26812394Y26200821D01*
X26821531Y26222883D01*
X26825617Y26227952D01*
X26826970Y26234321D01*
X26847267Y26254820D01*
X26865371Y26277285D01*
X26871549Y26279342D01*
X26876131Y26283968D01*
X26904288Y26290239D01*
X26931665Y26299351D01*
X26939554Y26298093D01*
X26944330Y26299156D01*
X26958738Y26295033D01*
X26978854Y26291824D01*
X26990885Y26287404D01*
X26995821Y26284106D01*
X27141503Y26223763D01*
X27190805Y26213957D01*
X27199881Y26210622D01*
X27220490Y26195352D01*
X27243221Y26183462D01*
X27250032Y26173463D01*
X27256020Y26169026D01*
X27259730Y26159225D01*
X27271681Y26141681D01*
X27288604Y26100825D01*
X27288609Y26100815D01*
X27376210Y25969712D01*
X27376213Y25969708D01*
X27487707Y25858214D01*
X27487711Y25858211D01*
X27618814Y25770610D01*
X27618827Y25770603D01*
X27764498Y25710265D01*
X27764503Y25710263D01*
X27919153Y25679501D01*
X27919156Y25679500D01*
X27919158Y25679500D01*
X28076844Y25679500D01*
X28076845Y25679501D01*
X28231497Y25710263D01*
X28377179Y25770606D01*
X28508289Y25858211D01*
X28619789Y25969711D01*
X28707394Y26100821D01*
X28710854Y26109173D01*
X28724319Y26141681D01*
X28767737Y26246503D01*
X28798500Y26401158D01*
X28798500Y26558842D01*
X28798500Y26558845D01*
X28798499Y26558847D01*
X28779392Y26654902D01*
X28767737Y26713497D01*
X28752725Y26749739D01*
X28707397Y26859173D01*
X28707390Y26859186D01*
X28619789Y26990289D01*
X28619786Y26990293D01*
X28508292Y27101787D01*
X28508288Y27101790D01*
X28377185Y27189391D01*
X28377172Y27189398D01*
X28231501Y27249736D01*
X28231492Y27249739D01*
X28191685Y27257657D01*
X28129774Y27290043D01*
X28101317Y27331821D01*
X28084394Y27372679D01*
X28035069Y27446499D01*
X27996789Y27503790D01*
X27885292Y27615287D01*
X27885288Y27615290D01*
X27754185Y27702891D01*
X27754172Y27702898D01*
X27608501Y27763236D01*
X27608489Y27763239D01*
X27453845Y27794000D01*
X27453842Y27794000D01*
X27296158Y27794000D01*
X27296155Y27794000D01*
X27141510Y27763239D01*
X27141498Y27763236D01*
X26995827Y27702898D01*
X26995814Y27702891D01*
X26864711Y27615290D01*
X26864707Y27615287D01*
X26753213Y27503793D01*
X26753210Y27503789D01*
X26665609Y27372686D01*
X26665606Y27372680D01*
X26656468Y27350618D01*
X26612626Y27296215D01*
X26546332Y27274151D01*
X26488049Y27287647D01*
X26487808Y27287063D01*
X26484307Y27288513D01*
X26483465Y27288708D01*
X26482184Y27289393D01*
X26336501Y27349736D01*
X26336489Y27349739D01*
X26181845Y27380500D01*
X26181842Y27380500D01*
X26024158Y27380500D01*
X26024155Y27380500D01*
X25869510Y27349739D01*
X25869498Y27349736D01*
X25723827Y27289398D01*
X25723814Y27289391D01*
X25592711Y27201790D01*
X25592707Y27201787D01*
X25481213Y27090293D01*
X25481210Y27090289D01*
X25393609Y26959186D01*
X25393602Y26959173D01*
X25333264Y26813502D01*
X25333261Y26813490D01*
X25302500Y26658847D01*
X20451624Y26658847D01*
X20490075Y26742368D01*
X20509964Y26809347D01*
X20512691Y26827911D01*
X20515751Y26837522D01*
X20529879Y26858450D01*
X20540437Y26881386D01*
X20549096Y26886915D01*
X20554845Y26895430D01*
X20578044Y26905397D01*
X20599327Y26918985D01*
X20609601Y26918955D01*
X20619042Y26923010D01*
X20643949Y26918852D01*
X20669197Y26918776D01*
X20681353Y26914467D01*
X20691503Y26910263D01*
X20808881Y26886915D01*
X20846153Y26879501D01*
X20846156Y26879500D01*
X20846158Y26879500D01*
X21003844Y26879500D01*
X21003845Y26879501D01*
X21158497Y26910263D01*
X21276592Y26959179D01*
X21304172Y26970603D01*
X21304172Y26970604D01*
X21304179Y26970606D01*
X21435289Y27058211D01*
X21546789Y27169711D01*
X21634394Y27300821D01*
X21694737Y27446503D01*
X21725500Y27601158D01*
X21725500Y27758842D01*
X21725500Y27758845D01*
X21725499Y27758847D01*
X21718913Y27791958D01*
X21694737Y27913497D01*
X21688566Y27928396D01*
X21634397Y28059173D01*
X21634390Y28059186D01*
X21546789Y28190289D01*
X21546786Y28190293D01*
X21435291Y28301788D01*
X21435288Y28301790D01*
X21304185Y28389391D01*
X21304172Y28389398D01*
X21158501Y28449736D01*
X21158489Y28449739D01*
X21003845Y28480500D01*
X21003842Y28480500D01*
X20846158Y28480500D01*
X20846155Y28480500D01*
X20685528Y28448549D01*
X20685051Y28450947D01*
X20668667Y28450803D01*
X20641802Y28447024D01*
X20634249Y28450501D01*
X20625932Y28450428D01*
X20602976Y28464898D01*
X20578335Y28476242D01*
X20573860Y28483252D01*
X20566825Y28487686D01*
X20555338Y28512267D01*
X20540740Y28535135D01*
X20539055Y28547111D01*
X20537245Y28550985D01*
X20535824Y28570085D01*
X20535846Y28577323D01*
X20535942Y28608847D01*
X24209500Y28608847D01*
X24209500Y28451154D01*
X24240261Y28296511D01*
X24240264Y28296499D01*
X24300602Y28150828D01*
X24300609Y28150815D01*
X24388210Y28019712D01*
X24388213Y28019708D01*
X24499707Y27908214D01*
X24499711Y27908211D01*
X24630814Y27820610D01*
X24630827Y27820603D01*
X24729454Y27779751D01*
X24776503Y27760263D01*
X24931153Y27729501D01*
X24931156Y27729500D01*
X24931158Y27729500D01*
X25088844Y27729500D01*
X25088845Y27729501D01*
X25243497Y27760263D01*
X25389179Y27820606D01*
X25520289Y27908211D01*
X25631789Y28019711D01*
X25719394Y28150821D01*
X25779737Y28296503D01*
X25810500Y28451158D01*
X25810500Y28608842D01*
X25810500Y28608845D01*
X25810499Y28608847D01*
X25801555Y28653810D01*
X25779737Y28763497D01*
X25750910Y28833093D01*
X25719397Y28909173D01*
X25719390Y28909186D01*
X25631789Y29040289D01*
X25631786Y29040293D01*
X25520292Y29151787D01*
X25520288Y29151790D01*
X25389185Y29239391D01*
X25389172Y29239398D01*
X25243501Y29299736D01*
X25243489Y29299739D01*
X25088845Y29330500D01*
X25088842Y29330500D01*
X24931158Y29330500D01*
X24931155Y29330500D01*
X24776510Y29299739D01*
X24776498Y29299736D01*
X24630827Y29239398D01*
X24630814Y29239391D01*
X24499711Y29151790D01*
X24499707Y29151787D01*
X24388213Y29040293D01*
X24388210Y29040289D01*
X24300609Y28909186D01*
X24300602Y28909173D01*
X24240264Y28763502D01*
X24240261Y28763490D01*
X24209500Y28608847D01*
X20535942Y28608847D01*
X20537991Y29278575D01*
X20528778Y29366152D01*
X20541340Y29434882D01*
X20548986Y29448001D01*
X20616813Y29549510D01*
X20634389Y29575813D01*
X20634390Y29575816D01*
X20634394Y29575821D01*
X20694737Y29721503D01*
X20725500Y29876158D01*
X20725500Y30033842D01*
X20725500Y30033845D01*
X20725499Y30033847D01*
X20721003Y30056450D01*
X20694737Y30188497D01*
X20636198Y30329824D01*
X20634397Y30334173D01*
X20634390Y30334186D01*
X20549933Y30460584D01*
X20529055Y30527261D01*
X20530351Y30547491D01*
X20542116Y30627575D01*
X20542571Y30776459D01*
X20543970Y31233847D01*
X25994500Y31233847D01*
X25994500Y31076154D01*
X26025261Y30921511D01*
X26025264Y30921499D01*
X26085602Y30775828D01*
X26085609Y30775815D01*
X26173210Y30644712D01*
X26173213Y30644708D01*
X26284707Y30533214D01*
X26284711Y30533211D01*
X26415814Y30445610D01*
X26415827Y30445603D01*
X26561498Y30385265D01*
X26561503Y30385263D01*
X26695657Y30358578D01*
X26716153Y30354501D01*
X26716156Y30354500D01*
X26716158Y30354500D01*
X26873844Y30354500D01*
X26873845Y30354501D01*
X27028497Y30385263D01*
X27163694Y30441263D01*
X27174172Y30445603D01*
X27174172Y30445604D01*
X27174179Y30445606D01*
X27305289Y30533211D01*
X27416789Y30644711D01*
X27504394Y30775821D01*
X27504658Y30776457D01*
X27564735Y30921499D01*
X27564737Y30921503D01*
X27595500Y31076158D01*
X27595500Y31233842D01*
X27595500Y31233845D01*
X27595499Y31233847D01*
X27594213Y31240313D01*
X27564737Y31388497D01*
X27541539Y31444503D01*
X27504397Y31534173D01*
X27504390Y31534186D01*
X27416789Y31665289D01*
X27416786Y31665293D01*
X27305292Y31776787D01*
X27305288Y31776790D01*
X27174185Y31864391D01*
X27174172Y31864398D01*
X27028501Y31924736D01*
X27028489Y31924739D01*
X26873845Y31955500D01*
X26873842Y31955500D01*
X26716158Y31955500D01*
X26716155Y31955500D01*
X26561510Y31924739D01*
X26561498Y31924736D01*
X26415827Y31864398D01*
X26415814Y31864391D01*
X26284711Y31776790D01*
X26284707Y31776787D01*
X26173213Y31665293D01*
X26173210Y31665289D01*
X26085609Y31534186D01*
X26085602Y31534173D01*
X26025264Y31388502D01*
X26025261Y31388490D01*
X25994500Y31233847D01*
X20543970Y31233847D01*
X20543990Y31240313D01*
X20550546Y33384739D01*
X20552846Y34137057D01*
X20572735Y34204034D01*
X20607952Y34239777D01*
X20713356Y34310205D01*
X20824856Y34421705D01*
X20886477Y34513928D01*
X20940086Y34558730D01*
X21009411Y34567439D01*
X21041090Y34557829D01*
X21080868Y34539662D01*
X21147907Y34519977D01*
X21147911Y34519976D01*
X21290327Y34499500D01*
X21290330Y34499500D01*
X25123466Y34499500D01*
X25123476Y34499500D01*
X25230932Y34511053D01*
X25282443Y34522259D01*
X25316673Y34533653D01*
X25384973Y34556384D01*
X25384977Y34556387D01*
X25384980Y34556387D01*
X25506019Y34634175D01*
X25558823Y34679930D01*
X25653043Y34788664D01*
X25712814Y34919541D01*
X25732499Y34986580D01*
X25732500Y34986584D01*
X25752976Y35129000D01*
X25752976Y36378847D01*
X26689500Y36378847D01*
X26689500Y36221154D01*
X26720261Y36066511D01*
X26720264Y36066499D01*
X26780602Y35920828D01*
X26780609Y35920815D01*
X26868210Y35789712D01*
X26868213Y35789708D01*
X26979707Y35678214D01*
X26979711Y35678211D01*
X27110814Y35590610D01*
X27110827Y35590603D01*
X27256498Y35530265D01*
X27256503Y35530263D01*
X27411153Y35499501D01*
X27411156Y35499500D01*
X27411158Y35499500D01*
X27568844Y35499500D01*
X27568845Y35499501D01*
X27723497Y35530263D01*
X27869179Y35590606D01*
X28000289Y35678211D01*
X28111789Y35789711D01*
X28199394Y35920821D01*
X28259737Y36066503D01*
X28290500Y36221158D01*
X28290500Y36378842D01*
X28290500Y36378845D01*
X28290499Y36378847D01*
X28278427Y36439535D01*
X28259737Y36533497D01*
X28231659Y36601285D01*
X28199397Y36679173D01*
X28199390Y36679186D01*
X28111789Y36810289D01*
X28111786Y36810293D01*
X28000292Y36921787D01*
X28000288Y36921790D01*
X27869185Y37009391D01*
X27869172Y37009398D01*
X27723501Y37069736D01*
X27723489Y37069739D01*
X27568845Y37100500D01*
X27568842Y37100500D01*
X27411158Y37100500D01*
X27411155Y37100500D01*
X27256510Y37069739D01*
X27256498Y37069736D01*
X27110827Y37009398D01*
X27110814Y37009391D01*
X26979711Y36921790D01*
X26979707Y36921787D01*
X26868213Y36810293D01*
X26868210Y36810289D01*
X26780609Y36679186D01*
X26780602Y36679173D01*
X26720264Y36533502D01*
X26720261Y36533490D01*
X26689500Y36378847D01*
X25752976Y36378847D01*
X25752976Y37247822D01*
X25741738Y37353819D01*
X25739315Y37365117D01*
X25730837Y37404652D01*
X25730836Y37404656D01*
X25730835Y37404659D01*
X25730834Y37404664D01*
X25697623Y37505940D01*
X25620552Y37627437D01*
X25620547Y37627442D01*
X25620546Y37627445D01*
X25575121Y37680499D01*
X25575114Y37680505D01*
X25575110Y37680510D01*
X25528577Y37721314D01*
X25491153Y37780312D01*
X25491565Y37850181D01*
X25529686Y37908735D01*
X25593412Y37937384D01*
X25610334Y37938544D01*
X25660418Y37938544D01*
X25660419Y37938545D01*
X25815071Y37969307D01*
X25960753Y38029650D01*
X26091863Y38117255D01*
X26091867Y38117260D01*
X26092781Y38117870D01*
X26159459Y38138748D01*
X26185865Y38136385D01*
X26191500Y38135264D01*
X26191503Y38135263D01*
X26260846Y38121470D01*
X26346155Y38104500D01*
X26346158Y38104500D01*
X26503844Y38104500D01*
X26503845Y38104501D01*
X26658497Y38135263D01*
X26804179Y38195606D01*
X26935289Y38283211D01*
X27046789Y38394711D01*
X27134394Y38525821D01*
X27194737Y38671503D01*
X27225500Y38826158D01*
X27225500Y38983842D01*
X27225500Y38983845D01*
X27225499Y38983847D01*
X27197192Y39126154D01*
X27194737Y39138497D01*
X27135002Y39282712D01*
X27134397Y39284173D01*
X27134390Y39284186D01*
X27046789Y39415289D01*
X27046786Y39415293D01*
X26935292Y39526787D01*
X26935288Y39526790D01*
X26804185Y39614391D01*
X26804172Y39614398D01*
X26658501Y39674736D01*
X26658489Y39674739D01*
X26503845Y39705500D01*
X26503842Y39705500D01*
X26346158Y39705500D01*
X26346155Y39705500D01*
X26191510Y39674739D01*
X26191498Y39674736D01*
X26045827Y39614398D01*
X26045814Y39614391D01*
X25913791Y39526175D01*
X25847113Y39505297D01*
X25820708Y39507660D01*
X25660418Y39539544D01*
X25660416Y39539544D01*
X25502732Y39539544D01*
X25502729Y39539544D01*
X25348085Y39508784D01*
X25348084Y39508783D01*
X25348081Y39508782D01*
X25348077Y39508781D01*
X25272624Y39477528D01*
X25203156Y39470060D01*
X25159609Y39487645D01*
X25159546Y39487525D01*
X25158435Y39488119D01*
X25156285Y39488987D01*
X25154179Y39490394D01*
X25154174Y39490397D01*
X25008501Y39550736D01*
X25008489Y39550739D01*
X24853845Y39581500D01*
X24853842Y39581500D01*
X24696158Y39581500D01*
X24696155Y39581500D01*
X24541510Y39550739D01*
X24541498Y39550736D01*
X24395827Y39490398D01*
X24395814Y39490391D01*
X24264711Y39402790D01*
X24264707Y39402787D01*
X24153213Y39291293D01*
X24153210Y39291289D01*
X24065609Y39160186D01*
X24065602Y39160173D01*
X24005264Y39014502D01*
X24005261Y39014490D01*
X23974500Y38859847D01*
X23974500Y38702154D01*
X24005261Y38547511D01*
X24005264Y38547499D01*
X24065602Y38401828D01*
X24065609Y38401815D01*
X24153210Y38270712D01*
X24153213Y38270708D01*
X24264707Y38159214D01*
X24264711Y38159211D01*
X24339150Y38109472D01*
X24383955Y38055860D01*
X24392662Y37986535D01*
X24362508Y37923507D01*
X24303065Y37886788D01*
X24269527Y37882372D01*
X13314287Y37947004D01*
X13247365Y37967084D01*
X13201923Y38020157D01*
X13192387Y38089373D01*
X13221787Y38152756D01*
X13227323Y38158669D01*
X13330789Y38262134D01*
X13388045Y38347824D01*
X13441655Y38392627D01*
X13510980Y38401335D01*
X13515338Y38400549D01*
X13621155Y38379500D01*
X13621158Y38379500D01*
X13778844Y38379500D01*
X13778845Y38379501D01*
X13933497Y38410263D01*
X14079179Y38470606D01*
X14101370Y38485434D01*
X14168044Y38506312D01*
X14217712Y38496893D01*
X14366498Y38435265D01*
X14366503Y38435263D01*
X14492176Y38410265D01*
X14521153Y38404501D01*
X14521156Y38404500D01*
X14521158Y38404500D01*
X14678844Y38404500D01*
X14678845Y38404501D01*
X14833497Y38435263D01*
X14979179Y38495606D01*
X15110289Y38583211D01*
X15221789Y38694711D01*
X15309394Y38825821D01*
X15369737Y38971503D01*
X15400500Y39126158D01*
X15400500Y39283842D01*
X15400500Y39283845D01*
X15400499Y39283847D01*
X15399018Y39291293D01*
X15369737Y39438497D01*
X15351795Y39481814D01*
X15350953Y39483847D01*
X19674500Y39483847D01*
X19674500Y39326154D01*
X19705261Y39171511D01*
X19705264Y39171499D01*
X19765602Y39025828D01*
X19765609Y39025815D01*
X19853210Y38894712D01*
X19853213Y38894708D01*
X19964707Y38783214D01*
X19964711Y38783211D01*
X20095814Y38695610D01*
X20095827Y38695603D01*
X20241498Y38635265D01*
X20241503Y38635263D01*
X20396153Y38604501D01*
X20396156Y38604500D01*
X20396158Y38604500D01*
X20553844Y38604500D01*
X20553845Y38604501D01*
X20708497Y38635263D01*
X20854179Y38695606D01*
X20985289Y38783211D01*
X21096789Y38894711D01*
X21184394Y39025821D01*
X21244737Y39171503D01*
X21275500Y39326158D01*
X21275500Y39483842D01*
X21275500Y39483845D01*
X21275499Y39483847D01*
X21262194Y39550736D01*
X21244737Y39638497D01*
X21244735Y39638502D01*
X21184397Y39784173D01*
X21184390Y39784186D01*
X21096789Y39915289D01*
X21096786Y39915293D01*
X20985292Y40026787D01*
X20985288Y40026790D01*
X20854185Y40114391D01*
X20854172Y40114398D01*
X20708501Y40174736D01*
X20708489Y40174739D01*
X20553845Y40205500D01*
X20553842Y40205500D01*
X20396158Y40205500D01*
X20396155Y40205500D01*
X20241510Y40174739D01*
X20241498Y40174736D01*
X20095827Y40114398D01*
X20095814Y40114391D01*
X19964711Y40026790D01*
X19964707Y40026787D01*
X19853213Y39915293D01*
X19853210Y39915289D01*
X19765609Y39784186D01*
X19765602Y39784173D01*
X19705264Y39638502D01*
X19705261Y39638490D01*
X19674500Y39483847D01*
X15350953Y39483847D01*
X15309397Y39584173D01*
X15309390Y39584186D01*
X15221789Y39715289D01*
X15221786Y39715293D01*
X15110292Y39826787D01*
X15110288Y39826790D01*
X14979185Y39914391D01*
X14979172Y39914398D01*
X14833501Y39974736D01*
X14833489Y39974739D01*
X14678845Y40005500D01*
X14678842Y40005500D01*
X14521158Y40005500D01*
X14521155Y40005500D01*
X14366510Y39974739D01*
X14366498Y39974736D01*
X14220828Y39914398D01*
X14220814Y39914390D01*
X14198626Y39899565D01*
X14131947Y39878689D01*
X14082286Y39888108D01*
X13933501Y39949736D01*
X13933489Y39949739D01*
X13778845Y39980500D01*
X13778842Y39980500D01*
X13621158Y39980500D01*
X13621155Y39980500D01*
X13466510Y39949739D01*
X13466498Y39949736D01*
X13320827Y39889398D01*
X13320814Y39889391D01*
X13189711Y39801790D01*
X13189707Y39801787D01*
X13078213Y39690293D01*
X13078210Y39690289D01*
X13020955Y39604601D01*
X12967342Y39559796D01*
X12898017Y39551089D01*
X12893662Y39551875D01*
X12787846Y39572923D01*
X12787842Y39572923D01*
X12630158Y39572923D01*
X12630155Y39572923D01*
X12475510Y39542162D01*
X12475498Y39542159D01*
X12329827Y39481821D01*
X12329814Y39481814D01*
X12198711Y39394213D01*
X12198707Y39394210D01*
X12087213Y39282716D01*
X12087210Y39282712D01*
X11999609Y39151609D01*
X11999602Y39151596D01*
X11939264Y39005925D01*
X11939261Y39005913D01*
X11908500Y38851270D01*
X11908500Y38693577D01*
X11939261Y38538934D01*
X11939264Y38538922D01*
X11999602Y38393251D01*
X11999609Y38393238D01*
X12087210Y38262135D01*
X12087213Y38262131D01*
X12198707Y38150637D01*
X12198711Y38150634D01*
X12329814Y38063033D01*
X12329827Y38063026D01*
X12449286Y38013545D01*
X12503690Y37969704D01*
X12525755Y37903410D01*
X12508476Y37835711D01*
X12483258Y37805463D01*
X12440368Y37768122D01*
X12346401Y37659162D01*
X12346401Y37659161D01*
X12286939Y37528145D01*
X12268078Y37463347D01*
X12267557Y37461679D01*
X12267412Y37461060D01*
X12247271Y37318601D01*
X12247271Y37318594D01*
X12248960Y36601285D01*
X12249114Y36535925D01*
X12252586Y35060925D01*
X12253374Y34726285D01*
X12253528Y34660925D01*
X12254461Y34264674D01*
X12256302Y33482516D01*
X12256302Y33482515D01*
X12269642Y33368337D01*
X12282426Y33313801D01*
X12282428Y33313794D01*
X12303837Y33254072D01*
X12307929Y33184322D01*
X12305224Y33174479D01*
X12304649Y33172681D01*
X12304648Y33172677D01*
X12304648Y33172676D01*
X12280787Y33030788D01*
X12279124Y32960940D01*
X12279124Y32960936D01*
X12291952Y32853649D01*
X12296206Y32818076D01*
X12296207Y32818067D01*
X12298412Y32809839D01*
X12297680Y32779166D01*
X12299141Y32748517D01*
X12296811Y32742699D01*
X12296747Y32739989D01*
X12286024Y32715751D01*
X12280888Y32706855D01*
X12276266Y32699463D01*
X12269477Y32689410D01*
X12269476Y32689409D01*
X12209351Y32558689D01*
X12190082Y32493713D01*
X12189600Y32492185D01*
X12189486Y32491704D01*
X12168627Y32349344D01*
X12167927Y32089548D01*
X12148061Y32022562D01*
X12095134Y31976949D01*
X12025949Y31967192D01*
X11996476Y31975320D01*
X11983396Y31980738D01*
X11983392Y31980739D01*
X11983388Y31980740D01*
X11828744Y32011501D01*
X11828741Y32011501D01*
X11671057Y32011501D01*
X11671054Y32011501D01*
X11516409Y31980740D01*
X11516397Y31980737D01*
X11370726Y31920399D01*
X11370713Y31920392D01*
X11239610Y31832791D01*
X11239606Y31832788D01*
X11128112Y31721294D01*
X11128109Y31721290D01*
X11040508Y31590187D01*
X11040501Y31590174D01*
X10980163Y31444503D01*
X10980160Y31444491D01*
X10949399Y31289848D01*
X10949399Y31132155D01*
X10980160Y30977512D01*
X10980163Y30977500D01*
X11040501Y30831829D01*
X11040508Y30831816D01*
X11128109Y30700713D01*
X11128112Y30700709D01*
X11239606Y30589215D01*
X11239610Y30589212D01*
X11370713Y30501611D01*
X11370726Y30501604D01*
X11508063Y30444718D01*
X11516402Y30441264D01*
X11618708Y30420914D01*
X11671052Y30410502D01*
X11671055Y30410501D01*
X11671057Y30410501D01*
X11828743Y30410501D01*
X11828744Y30410502D01*
X11983396Y30441264D01*
X11991735Y30444719D01*
X12061204Y30452188D01*
X12123683Y30420914D01*
X12159337Y30360826D01*
X12163189Y30329824D01*
X12161911Y29855000D01*
X12161591Y29735925D01*
X12161036Y29529888D01*
X12162763Y29506039D01*
X12162785Y29501860D01*
X12154221Y29472137D01*
X12147673Y29441901D01*
X12144155Y29437198D01*
X12143442Y29434721D01*
X12140144Y29431835D01*
X12126470Y29413549D01*
X12078208Y29365286D01*
X11990609Y29234186D01*
X11990602Y29234173D01*
X11930264Y29088502D01*
X11930261Y29088490D01*
X11898311Y28927868D01*
X11895940Y28928340D01*
X11873737Y28873425D01*
X11816683Y28833093D01*
X11746882Y28830009D01*
X11686494Y28865152D01*
X11661968Y28902964D01*
X11661000Y28905301D01*
X11659394Y28909179D01*
X11659392Y28909182D01*
X11659390Y28909186D01*
X11571789Y29040289D01*
X11571786Y29040293D01*
X11460292Y29151787D01*
X11460288Y29151790D01*
X11329185Y29239391D01*
X11329172Y29239398D01*
X11183501Y29299736D01*
X11183489Y29299739D01*
X11028845Y29330500D01*
X11028842Y29330500D01*
X10871158Y29330500D01*
X10871155Y29330500D01*
X10716510Y29299739D01*
X10716498Y29299736D01*
X10570827Y29239398D01*
X10570814Y29239391D01*
X10439711Y29151790D01*
X10439707Y29151787D01*
X10328213Y29040293D01*
X10328210Y29040289D01*
X10240609Y28909186D01*
X10240602Y28909173D01*
X10180264Y28763502D01*
X10180261Y28763492D01*
X10161777Y28670567D01*
X10153011Y28653810D01*
X10148992Y28635333D01*
X10130247Y28610292D01*
X10129392Y28608656D01*
X10127842Y28607078D01*
X10008742Y28487978D01*
X10008741Y28487978D01*
X10008740Y28487977D01*
X9896938Y28376175D01*
X9896936Y28376173D01*
X9896936Y28376172D01*
X9853991Y28301789D01*
X9853990Y28301789D01*
X9817880Y28239244D01*
X9817879Y28239243D01*
X9817462Y28237685D01*
X9776955Y28086513D01*
X9776955Y27928399D01*
X9776955Y27928397D01*
X9776956Y27918403D01*
X9776956Y27239214D01*
X9776955Y27239196D01*
X9776955Y27073490D01*
X9776954Y27073490D01*
X7939383Y27073490D01*
X7939383Y27149195D01*
X7939383Y27149198D01*
X7939382Y27149200D01*
X7922991Y27231601D01*
X7908620Y27303850D01*
X7899878Y27324955D01*
X7848280Y27449526D01*
X7848273Y27449539D01*
X7760672Y27580642D01*
X7760669Y27580646D01*
X7649175Y27692140D01*
X7649171Y27692143D01*
X7518068Y27779744D01*
X7518055Y27779751D01*
X7372384Y27840089D01*
X7372372Y27840092D01*
X7217728Y27870853D01*
X7217725Y27870853D01*
X7060041Y27870853D01*
X7060038Y27870853D01*
X6905393Y27840092D01*
X6905381Y27840089D01*
X6759710Y27779751D01*
X6759697Y27779744D01*
X6628594Y27692143D01*
X6628590Y27692140D01*
X6517096Y27580646D01*
X6517093Y27580642D01*
X6429492Y27449539D01*
X6429485Y27449526D01*
X6369147Y27303855D01*
X6369144Y27303843D01*
X6338383Y27149200D01*
X6338383Y26991507D01*
X6367959Y26842820D01*
X6361732Y26773229D01*
X6349444Y26749739D01*
X6290612Y26661691D01*
X6290602Y26661673D01*
X6230264Y26516002D01*
X6230261Y26515990D01*
X6199500Y26361347D01*
X3420985Y26361347D01*
X3304185Y26439391D01*
X3304172Y26439398D01*
X3158501Y26499736D01*
X3158489Y26499739D01*
X3003845Y26530500D01*
X3003842Y26530500D01*
X2846158Y26530500D01*
X2846155Y26530500D01*
X2691510Y26499739D01*
X2691498Y26499736D01*
X2545827Y26439398D01*
X2545814Y26439391D01*
X2414711Y26351790D01*
X2414707Y26351787D01*
X2303213Y26240293D01*
X2303210Y26240289D01*
X2215609Y26109186D01*
X2215602Y26109173D01*
X2155264Y25963502D01*
X2155261Y25963490D01*
X2124500Y25808847D01*
X1601500Y25808847D01*
X1601500Y28481000D01*
X1621185Y28548039D01*
X1673989Y28593794D01*
X1725500Y28605000D01*
X2097828Y28605000D01*
X2097844Y28605001D01*
X2157372Y28611402D01*
X2157379Y28611404D01*
X2292086Y28661646D01*
X2292093Y28661650D01*
X2407187Y28747810D01*
X2407190Y28747813D01*
X2493350Y28862907D01*
X2493354Y28862914D01*
X2543596Y28997621D01*
X2543598Y28997628D01*
X2549999Y29057156D01*
X2550000Y29057173D01*
X2550000Y29062994D01*
X4149431Y29062994D01*
X4149431Y28905301D01*
X4180192Y28750658D01*
X4180195Y28750646D01*
X4240533Y28604975D01*
X4240540Y28604962D01*
X4328141Y28473859D01*
X4328144Y28473855D01*
X4439638Y28362361D01*
X4439642Y28362358D01*
X4570745Y28274757D01*
X4570758Y28274750D01*
X4716429Y28214412D01*
X4716434Y28214410D01*
X4822269Y28193358D01*
X4871084Y28183648D01*
X4871087Y28183647D01*
X4871089Y28183647D01*
X5028775Y28183647D01*
X5028776Y28183648D01*
X5183428Y28214410D01*
X5329110Y28274753D01*
X5460220Y28362358D01*
X5571720Y28473858D01*
X5571723Y28473864D01*
X5575580Y28478562D01*
X5576914Y28477468D01*
X5624202Y28517012D01*
X5693525Y28525740D01*
X5721176Y28517893D01*
X5723389Y28516976D01*
X5723393Y28516976D01*
X5723394Y28516975D01*
X5723397Y28516974D01*
X5878039Y28486214D01*
X5878042Y28486213D01*
X5878044Y28486213D01*
X6035730Y28486213D01*
X6035731Y28486214D01*
X6190383Y28516976D01*
X6303052Y28563646D01*
X6336058Y28577316D01*
X6336058Y28577317D01*
X6336065Y28577319D01*
X6467175Y28664924D01*
X6578675Y28776424D01*
X6666280Y28907534D01*
X6726623Y29053216D01*
X6757386Y29207871D01*
X6757386Y29365555D01*
X6757386Y29365558D01*
X6757385Y29365560D01*
X6739731Y29454313D01*
X6726623Y29520210D01*
X6703592Y29575813D01*
X6666283Y29665886D01*
X6666276Y29665899D01*
X6578675Y29797002D01*
X6578672Y29797006D01*
X6467178Y29908500D01*
X6467174Y29908503D01*
X6336071Y29996104D01*
X6336058Y29996111D01*
X6190387Y30056449D01*
X6190375Y30056452D01*
X6035731Y30087213D01*
X6035728Y30087213D01*
X5878044Y30087213D01*
X5878041Y30087213D01*
X5723396Y30056452D01*
X5723384Y30056449D01*
X5577713Y29996111D01*
X5577700Y29996104D01*
X5446597Y29908503D01*
X5446593Y29908500D01*
X5335103Y29797009D01*
X5331239Y29792300D01*
X5329914Y29793387D01*
X5282553Y29753824D01*
X5213226Y29745132D01*
X5185639Y29752969D01*
X5183433Y29753883D01*
X5183425Y29753886D01*
X5028776Y29784647D01*
X5028773Y29784647D01*
X4871089Y29784647D01*
X4871086Y29784647D01*
X4716441Y29753886D01*
X4716429Y29753883D01*
X4570758Y29693545D01*
X4570745Y29693538D01*
X4439642Y29605937D01*
X4439638Y29605934D01*
X4328144Y29494440D01*
X4328141Y29494436D01*
X4240540Y29363333D01*
X4240533Y29363320D01*
X4180195Y29217649D01*
X4180192Y29217637D01*
X4149431Y29062994D01*
X2550000Y29062994D01*
X2550000Y29355000D01*
X1759618Y29355000D01*
X1810064Y29405446D01*
X1852851Y29479555D01*
X1875000Y29562213D01*
X1875000Y29647787D01*
X1852851Y29730445D01*
X1810064Y29804554D01*
X1759618Y29855000D01*
X2550000Y29855000D01*
X2550000Y30152828D01*
X2549999Y30152845D01*
X2543598Y30212373D01*
X2543597Y30212377D01*
X2493350Y30347093D01*
X2484753Y30358578D01*
X2460336Y30424042D01*
X2469458Y30480337D01*
X2512051Y30583165D01*
X2550373Y30775821D01*
X2550500Y30776457D01*
X2550500Y30973544D01*
X2512052Y31166830D01*
X2512051Y31166831D01*
X2512051Y31166835D01*
X2461098Y31289848D01*
X2436635Y31348908D01*
X2436633Y31348912D01*
X2436632Y31348914D01*
X2375029Y31441109D01*
X2354151Y31507786D01*
X2372635Y31575166D01*
X2375029Y31578891D01*
X2387872Y31598113D01*
X2436632Y31671086D01*
X2512051Y31853165D01*
X2534733Y31967192D01*
X2550500Y32046457D01*
X2550500Y32243544D01*
X2512052Y32436830D01*
X2512051Y32436831D01*
X2512051Y32436835D01*
X2489321Y32491710D01*
X2436635Y32618908D01*
X2436633Y32618912D01*
X2436632Y32618914D01*
X2393072Y32684106D01*
X2375029Y32711109D01*
X2354151Y32777786D01*
X2372635Y32845166D01*
X2375029Y32848891D01*
X2427028Y32926713D01*
X2436632Y32941086D01*
X2444855Y32960937D01*
X2491020Y33072391D01*
X2512051Y33123165D01*
X2528583Y33206277D01*
X2550500Y33316457D01*
X2550500Y33513544D01*
X2512052Y33706830D01*
X2512051Y33706831D01*
X2512051Y33706835D01*
X2497022Y33743118D01*
X2436635Y33888908D01*
X2436628Y33888921D01*
X2327139Y34052782D01*
X2327136Y34052786D01*
X2187785Y34192137D01*
X2187781Y34192140D01*
X2023920Y34301629D01*
X2023907Y34301636D01*
X1841839Y34377050D01*
X1841829Y34377053D01*
X1701308Y34405005D01*
X1639397Y34437390D01*
X1604823Y34498106D01*
X1601500Y34526622D01*
X1601500Y35849750D01*
X1621185Y35916789D01*
X1673989Y35962544D01*
X1743147Y35972488D01*
X1772949Y35964313D01*
X1933165Y35897949D01*
X1933169Y35897949D01*
X1933170Y35897948D01*
X2126456Y35859500D01*
X2126459Y35859500D01*
X3123543Y35859500D01*
X3258096Y35886265D01*
X3316835Y35897949D01*
X3457655Y35956279D01*
X3498907Y35973365D01*
X3498907Y35973366D01*
X3498914Y35973368D01*
X3662782Y36082861D01*
X3802139Y36222218D01*
X3911590Y36386023D01*
X3965202Y36430828D01*
X4034527Y36439535D01*
X4097554Y36409381D01*
X4129253Y36364585D01*
X4165604Y36276824D01*
X4165609Y36276815D01*
X4253210Y36145712D01*
X4253213Y36145708D01*
X4364707Y36034214D01*
X4364711Y36034211D01*
X4495814Y35946610D01*
X4495827Y35946603D01*
X4627049Y35892250D01*
X4641503Y35886263D01*
X4659347Y35882714D01*
X4673832Y35879832D01*
X4735743Y35847448D01*
X4770317Y35786732D01*
X4766578Y35716962D01*
X4725712Y35660290D01*
X4718532Y35655113D01*
X4680633Y35629790D01*
X4680629Y35629787D01*
X4569135Y35518293D01*
X4569132Y35518289D01*
X4481531Y35387186D01*
X4481524Y35387173D01*
X4421186Y35241502D01*
X4421183Y35241490D01*
X4390422Y35086847D01*
X4390422Y34929154D01*
X4421183Y34774511D01*
X4421186Y34774499D01*
X4481524Y34628828D01*
X4481531Y34628815D01*
X4569132Y34497712D01*
X4569135Y34497708D01*
X4680629Y34386214D01*
X4680633Y34386211D01*
X4811736Y34298610D01*
X4811749Y34298603D01*
X4953765Y34239779D01*
X4957425Y34238263D01*
X5096918Y34210516D01*
X5112075Y34207501D01*
X5112078Y34207500D01*
X5112080Y34207500D01*
X5269766Y34207500D01*
X5269767Y34207501D01*
X5424419Y34238263D01*
X5536884Y34284847D01*
X7437721Y34284847D01*
X7437721Y34127154D01*
X7468482Y33972511D01*
X7468485Y33972499D01*
X7528823Y33826828D01*
X7528830Y33826815D01*
X7559203Y33781359D01*
X7580081Y33714681D01*
X7570663Y33665018D01*
X7542673Y33597441D01*
X7542670Y33597433D01*
X7511909Y33442785D01*
X7511909Y33285092D01*
X7542670Y33130449D01*
X7542673Y33130437D01*
X7603011Y32984766D01*
X7603018Y32984753D01*
X7690619Y32853650D01*
X7690622Y32853646D01*
X7802116Y32742152D01*
X7802120Y32742149D01*
X7933223Y32654548D01*
X7933236Y32654541D01*
X8073374Y32596495D01*
X8078912Y32594201D01*
X8233562Y32563439D01*
X8233565Y32563438D01*
X8233567Y32563438D01*
X8391253Y32563438D01*
X8391254Y32563439D01*
X8545906Y32594201D01*
X8691588Y32654544D01*
X8822698Y32742149D01*
X8934198Y32853649D01*
X9021803Y32984759D01*
X9082146Y33130441D01*
X9112909Y33285096D01*
X9112909Y33442780D01*
X9112909Y33442783D01*
X9112908Y33442785D01*
X9105004Y33482520D01*
X9082146Y33597435D01*
X9082144Y33597441D01*
X9021806Y33743111D01*
X9021802Y33743118D01*
X8991425Y33788580D01*
X8970547Y33855258D01*
X8979966Y33904925D01*
X8989392Y33927681D01*
X9007958Y33972503D01*
X9038721Y34127158D01*
X9038721Y34284842D01*
X9038721Y34284845D01*
X9038720Y34284847D01*
X9033676Y34310205D01*
X9007958Y34439497D01*
X8985093Y34494698D01*
X8947618Y34585173D01*
X8947613Y34585182D01*
X8944671Y34589585D01*
X8944670Y34589587D01*
X8902705Y34652391D01*
X9279486Y34652391D01*
X9279486Y34494698D01*
X9310247Y34340055D01*
X9310250Y34340043D01*
X9370588Y34194372D01*
X9370595Y34194359D01*
X9458196Y34063256D01*
X9458199Y34063252D01*
X9569693Y33951758D01*
X9569697Y33951755D01*
X9700800Y33864154D01*
X9700813Y33864147D01*
X9759124Y33839994D01*
X9813528Y33796153D01*
X9835593Y33729859D01*
X9826233Y33677981D01*
X9768829Y33539394D01*
X9768826Y33539382D01*
X9738065Y33384739D01*
X9738065Y33227046D01*
X9768826Y33072403D01*
X9768829Y33072391D01*
X9829167Y32926720D01*
X9829174Y32926707D01*
X9916775Y32795604D01*
X9916778Y32795600D01*
X10028272Y32684106D01*
X10028276Y32684103D01*
X10159379Y32596502D01*
X10159392Y32596495D01*
X10305063Y32536157D01*
X10305068Y32536155D01*
X10459718Y32505393D01*
X10459721Y32505392D01*
X10459723Y32505392D01*
X10617409Y32505392D01*
X10617410Y32505393D01*
X10772062Y32536155D01*
X10912199Y32594201D01*
X10917737Y32596495D01*
X10917737Y32596496D01*
X10917744Y32596498D01*
X11048854Y32684103D01*
X11160354Y32795603D01*
X11247959Y32926713D01*
X11253913Y32941086D01*
X11308300Y33072391D01*
X11308302Y33072395D01*
X11339065Y33227050D01*
X11339065Y33384734D01*
X11339065Y33384737D01*
X11339064Y33384739D01*
X11319614Y33482520D01*
X11308302Y33539389D01*
X11284257Y33597440D01*
X11247962Y33685065D01*
X11247955Y33685078D01*
X11160354Y33816181D01*
X11160351Y33816185D01*
X11048857Y33927679D01*
X11048853Y33927682D01*
X10917750Y34015283D01*
X10917740Y34015288D01*
X10859425Y34039443D01*
X10805022Y34083284D01*
X10782957Y34149579D01*
X10792316Y34201455D01*
X10849723Y34340047D01*
X10880486Y34494702D01*
X10880486Y34652386D01*
X10880486Y34652389D01*
X10880485Y34652391D01*
X10856195Y34774503D01*
X10849723Y34807041D01*
X10841129Y34827790D01*
X10789383Y34952717D01*
X10789376Y34952730D01*
X10701775Y35083833D01*
X10701772Y35083837D01*
X10590278Y35195331D01*
X10590274Y35195334D01*
X10459171Y35282935D01*
X10459158Y35282942D01*
X10313487Y35343280D01*
X10313475Y35343283D01*
X10158831Y35374044D01*
X10158828Y35374044D01*
X10001144Y35374044D01*
X10001141Y35374044D01*
X9846496Y35343283D01*
X9846484Y35343280D01*
X9700813Y35282942D01*
X9700800Y35282935D01*
X9569697Y35195334D01*
X9569693Y35195331D01*
X9458199Y35083837D01*
X9458196Y35083833D01*
X9370595Y34952730D01*
X9370588Y34952717D01*
X9310250Y34807046D01*
X9310247Y34807034D01*
X9279486Y34652391D01*
X8902705Y34652391D01*
X8860010Y34716289D01*
X8860007Y34716293D01*
X8748513Y34827787D01*
X8748509Y34827790D01*
X8617406Y34915391D01*
X8617393Y34915398D01*
X8471722Y34975736D01*
X8471710Y34975739D01*
X8317066Y35006500D01*
X8317063Y35006500D01*
X8159379Y35006500D01*
X8159376Y35006500D01*
X8004731Y34975739D01*
X8004719Y34975736D01*
X7859048Y34915398D01*
X7859035Y34915391D01*
X7727932Y34827790D01*
X7727928Y34827787D01*
X7616434Y34716293D01*
X7616431Y34716289D01*
X7528830Y34585186D01*
X7528823Y34585173D01*
X7468485Y34439502D01*
X7468482Y34439490D01*
X7437721Y34284847D01*
X5536884Y34284847D01*
X5570101Y34298606D01*
X5701211Y34386211D01*
X5812711Y34497711D01*
X5900316Y34628821D01*
X5902533Y34634172D01*
X5936548Y34716293D01*
X5960659Y34774503D01*
X5991422Y34929158D01*
X5991422Y35086842D01*
X5991422Y35086845D01*
X5991421Y35086847D01*
X5983036Y35129002D01*
X5960659Y35241497D01*
X5943492Y35282942D01*
X5900319Y35387173D01*
X5900312Y35387186D01*
X5812711Y35518289D01*
X5812708Y35518293D01*
X5701214Y35629787D01*
X5701210Y35629790D01*
X5570107Y35717391D01*
X5570094Y35717398D01*
X5424423Y35777736D01*
X5424414Y35777739D01*
X5392087Y35784169D01*
X5378795Y35791122D01*
X5363966Y35793362D01*
X5348466Y35806988D01*
X5330176Y35816555D01*
X5322752Y35829592D01*
X5311490Y35839492D01*
X5305817Y35859334D01*
X5295603Y35877271D01*
X5296406Y35892250D01*
X5292283Y35906670D01*
X5298238Y35926432D01*
X5299344Y35947041D01*
X5308447Y35960304D01*
X5312445Y35973567D01*
X5329123Y35990426D01*
X5335747Y36000075D01*
X5341303Y36004821D01*
X5385289Y36034211D01*
X5441343Y36090266D01*
X5445045Y36093427D01*
X5472659Y36105801D01*
X5499219Y36120304D01*
X5504226Y36119946D01*
X5508806Y36121998D01*
X5538721Y36117479D01*
X5568911Y36115320D01*
X5573795Y36112181D01*
X5577892Y36111562D01*
X5586410Y36104074D01*
X5613259Y36086819D01*
X5617214Y36082864D01*
X5617218Y36082861D01*
X5781079Y35973372D01*
X5781092Y35973365D01*
X5942110Y35906670D01*
X5963165Y35897949D01*
X5963169Y35897949D01*
X5963170Y35897948D01*
X6156456Y35859500D01*
X6156459Y35859500D01*
X7453543Y35859500D01*
X7588096Y35886265D01*
X7646835Y35897949D01*
X7787655Y35956279D01*
X7828907Y35973365D01*
X7828907Y35973366D01*
X7828914Y35973368D01*
X7992782Y36082861D01*
X8132139Y36222218D01*
X8241632Y36386086D01*
X8243310Y36390138D01*
X8287148Y36444541D01*
X8353442Y36466608D01*
X8421142Y36449331D01*
X8445553Y36430368D01*
X8547042Y36328879D01*
X8547046Y36328876D01*
X8678149Y36241275D01*
X8678162Y36241268D01*
X8823833Y36180930D01*
X8823838Y36180928D01*
X8978488Y36150166D01*
X8978491Y36150165D01*
X8978493Y36150165D01*
X9136179Y36150165D01*
X9136180Y36150166D01*
X9290832Y36180928D01*
X9436514Y36241271D01*
X9567624Y36328876D01*
X9679124Y36440376D01*
X9766729Y36571486D01*
X9827072Y36717168D01*
X9857835Y36871823D01*
X9857835Y37029507D01*
X9857835Y37029510D01*
X9857834Y37029512D01*
X9849832Y37069739D01*
X9827072Y37184162D01*
X9827070Y37184167D01*
X9766732Y37329838D01*
X9766725Y37329851D01*
X9679124Y37460954D01*
X9679121Y37460958D01*
X9567627Y37572452D01*
X9567623Y37572455D01*
X9436520Y37660056D01*
X9436507Y37660063D01*
X9290836Y37720401D01*
X9290824Y37720404D01*
X9136180Y37751165D01*
X9136177Y37751165D01*
X8978493Y37751165D01*
X8978490Y37751165D01*
X8823845Y37720404D01*
X8823833Y37720401D01*
X8678162Y37660063D01*
X8678149Y37660056D01*
X8547046Y37572455D01*
X8547042Y37572452D01*
X8435548Y37460958D01*
X8399248Y37406631D01*
X8345635Y37361827D01*
X8276310Y37353120D01*
X8213283Y37383275D01*
X8193044Y37406632D01*
X8132139Y37497782D01*
X8132136Y37497786D01*
X7992785Y37637137D01*
X7992781Y37637140D01*
X7828920Y37746629D01*
X7828907Y37746636D01*
X7646839Y37822050D01*
X7646829Y37822053D01*
X7453543Y37860500D01*
X7453541Y37860500D01*
X6936333Y37860500D01*
X6869294Y37880185D01*
X6823539Y37932989D01*
X6813595Y38002147D01*
X6828947Y38046501D01*
X6841278Y38067860D01*
X6841277Y38067860D01*
X6841281Y38067865D01*
X6880500Y38214234D01*
X6880500Y38241500D01*
X6900185Y38308539D01*
X6952989Y38354294D01*
X7004500Y38365500D01*
X7482060Y38365500D01*
X7511500Y38356856D01*
X7541487Y38350332D01*
X7546502Y38346578D01*
X7549099Y38345815D01*
X7569741Y38329181D01*
X7629211Y38269711D01*
X7703312Y38195610D01*
X7740712Y38158210D01*
X7871814Y38070610D01*
X7871821Y38070606D01*
X7954733Y38036263D01*
X8017502Y38010263D01*
X8136790Y37986535D01*
X8172152Y37979501D01*
X8172155Y37979500D01*
X8172157Y37979500D01*
X8329844Y37979500D01*
X8329845Y37979501D01*
X8484497Y38010263D01*
X8630179Y38070606D01*
X8761289Y38158211D01*
X9146789Y38543711D01*
X9234394Y38674821D01*
X9294738Y38820503D01*
X9325500Y38975158D01*
X9325500Y39132843D01*
X9325500Y42404582D01*
X20415235Y42404582D01*
X20415235Y42246889D01*
X20445996Y42092246D01*
X20445999Y42092234D01*
X20506337Y41946563D01*
X20506344Y41946550D01*
X20593945Y41815447D01*
X20593948Y41815443D01*
X20705442Y41703949D01*
X20705446Y41703946D01*
X20836549Y41616345D01*
X20836562Y41616338D01*
X20982233Y41556000D01*
X20982238Y41555998D01*
X21136888Y41525236D01*
X21136891Y41525235D01*
X21136893Y41525235D01*
X21294579Y41525235D01*
X21294580Y41525236D01*
X21449232Y41555998D01*
X21594914Y41616341D01*
X21726024Y41703946D01*
X21837524Y41815446D01*
X21925129Y41946556D01*
X21928037Y41953577D01*
X21971872Y42007978D01*
X22024386Y42027295D01*
X22024184Y42028311D01*
X22110650Y42045512D01*
X22184813Y42060263D01*
X22330495Y42120606D01*
X22461605Y42208211D01*
X22573105Y42319711D01*
X22660710Y42450821D01*
X22721053Y42596503D01*
X22751816Y42751158D01*
X22751816Y42760149D01*
X22771501Y42827188D01*
X22806922Y42863249D01*
X22862605Y42900454D01*
X22974105Y43011954D01*
X23005438Y43058847D01*
X24541600Y43058847D01*
X24541600Y42901154D01*
X24572361Y42746511D01*
X24572364Y42746499D01*
X24632702Y42600828D01*
X24632709Y42600815D01*
X24720310Y42469712D01*
X24720313Y42469708D01*
X24831807Y42358214D01*
X24831811Y42358211D01*
X24962914Y42270610D01*
X24962927Y42270603D01*
X25020179Y42246889D01*
X25108603Y42210263D01*
X25263253Y42179501D01*
X25263256Y42179500D01*
X25263258Y42179500D01*
X25420944Y42179500D01*
X25420945Y42179501D01*
X25575597Y42210263D01*
X25721279Y42270606D01*
X25852389Y42358211D01*
X25963889Y42469711D01*
X26051494Y42600821D01*
X26111837Y42746503D01*
X26142600Y42901158D01*
X26142600Y43058842D01*
X26142600Y43058845D01*
X26142599Y43058847D01*
X26135313Y43095474D01*
X26111837Y43213497D01*
X26080665Y43288754D01*
X26051497Y43359173D01*
X26051490Y43359186D01*
X25963889Y43490289D01*
X25963886Y43490293D01*
X25852392Y43601787D01*
X25852388Y43601790D01*
X25721285Y43689391D01*
X25721272Y43689398D01*
X25575601Y43749736D01*
X25575589Y43749739D01*
X25420945Y43780500D01*
X25420942Y43780500D01*
X25263258Y43780500D01*
X25263255Y43780500D01*
X25108610Y43749739D01*
X25108598Y43749736D01*
X24962927Y43689398D01*
X24962914Y43689391D01*
X24831811Y43601790D01*
X24831807Y43601787D01*
X24720313Y43490293D01*
X24720310Y43490289D01*
X24632709Y43359186D01*
X24632702Y43359173D01*
X24572364Y43213502D01*
X24572361Y43213490D01*
X24541600Y43058847D01*
X23005438Y43058847D01*
X23061710Y43143064D01*
X23122053Y43288746D01*
X23152816Y43443401D01*
X23152816Y43601085D01*
X23152816Y43601088D01*
X23152815Y43601090D01*
X23141326Y43658847D01*
X23122053Y43755740D01*
X23111797Y43780500D01*
X23061713Y43901416D01*
X23061706Y43901429D01*
X22974105Y44032532D01*
X22974102Y44032536D01*
X22862608Y44144030D01*
X22862604Y44144033D01*
X22731501Y44231634D01*
X22731488Y44231641D01*
X22585817Y44291979D01*
X22585805Y44291982D01*
X22431161Y44322743D01*
X22431158Y44322743D01*
X22273474Y44322743D01*
X22273471Y44322743D01*
X22118826Y44291982D01*
X22118814Y44291979D01*
X21973143Y44231641D01*
X21973130Y44231634D01*
X21842027Y44144033D01*
X21842023Y44144030D01*
X21730529Y44032536D01*
X21730526Y44032532D01*
X21642925Y43901429D01*
X21642918Y43901416D01*
X21582580Y43755745D01*
X21582577Y43755733D01*
X21551816Y43601090D01*
X21551816Y43592096D01*
X21532131Y43525057D01*
X21496707Y43488994D01*
X21441027Y43451790D01*
X21441023Y43451787D01*
X21329529Y43340293D01*
X21329526Y43340289D01*
X21241923Y43209183D01*
X21241921Y43209178D01*
X21239011Y43202153D01*
X21195168Y43147751D01*
X21142665Y43128436D01*
X21142867Y43127424D01*
X20982245Y43095474D01*
X20982233Y43095471D01*
X20836562Y43035133D01*
X20836549Y43035126D01*
X20705446Y42947525D01*
X20705442Y42947522D01*
X20593948Y42836028D01*
X20593945Y42836024D01*
X20506344Y42704921D01*
X20506337Y42704908D01*
X20445999Y42559237D01*
X20445996Y42559225D01*
X20415235Y42404582D01*
X9325500Y42404582D01*
X9325500Y43658842D01*
X9325500Y43658845D01*
X9325499Y43658847D01*
X9319422Y43689398D01*
X9294737Y43813497D01*
X9280502Y43847864D01*
X9234397Y43959173D01*
X9234390Y43959186D01*
X9146789Y44090289D01*
X9146786Y44090293D01*
X9035292Y44201787D01*
X9035288Y44201790D01*
X8904185Y44289391D01*
X8904172Y44289398D01*
X8758501Y44349736D01*
X8758489Y44349739D01*
X8603845Y44380500D01*
X8603842Y44380500D01*
X8446158Y44380500D01*
X8446155Y44380500D01*
X8291510Y44349739D01*
X8291498Y44349736D01*
X8145827Y44289398D01*
X8145814Y44289391D01*
X8014711Y44201790D01*
X8014707Y44201787D01*
X7903213Y44090293D01*
X7903210Y44090289D01*
X7815609Y43959186D01*
X7815602Y43959173D01*
X7755264Y43813502D01*
X7755261Y43813490D01*
X7724500Y43658847D01*
X7724500Y40090500D01*
X7704815Y40023461D01*
X7652011Y39977706D01*
X7600500Y39966500D01*
X1082155Y39966500D01*
X927510Y39935739D01*
X927498Y39935736D01*
X781827Y39875398D01*
X781809Y39875388D01*
X693390Y39816308D01*
X626713Y39795430D01*
X559333Y39813915D01*
X512643Y39865894D01*
X500500Y39919410D01*
X500500Y45401457D01*
X1224499Y45401457D01*
X1262947Y45208171D01*
X1262950Y45208161D01*
X1338364Y45026093D01*
X1338371Y45026080D01*
X1447860Y44862219D01*
X1447863Y44862215D01*
X1587214Y44722864D01*
X1587218Y44722861D01*
X1751079Y44613372D01*
X1751092Y44613365D01*
X1933160Y44537951D01*
X1933165Y44537949D01*
X1933169Y44537949D01*
X1933170Y44537948D01*
X2126456Y44499500D01*
X2126459Y44499500D01*
X3123543Y44499500D01*
X3279462Y44530515D01*
X3316835Y44537949D01*
X3498914Y44613368D01*
X3662782Y44722861D01*
X3802139Y44862218D01*
X3911632Y45026086D01*
X3987051Y45208165D01*
X3999632Y45271418D01*
X4025500Y45401457D01*
X5254499Y45401457D01*
X5292947Y45208171D01*
X5292950Y45208161D01*
X5368364Y45026093D01*
X5368371Y45026080D01*
X5477860Y44862219D01*
X5477863Y44862215D01*
X5617214Y44722864D01*
X5617218Y44722861D01*
X5781079Y44613372D01*
X5781083Y44613370D01*
X5781086Y44613368D01*
X5790523Y44609459D01*
X5844927Y44565622D01*
X5866995Y44499328D01*
X5849719Y44431628D01*
X5846565Y44426968D01*
X5768719Y44292137D01*
X5729500Y44145766D01*
X5729500Y43994234D01*
X5749109Y43921050D01*
X5768719Y43847864D01*
X5806602Y43782250D01*
X5844485Y43716635D01*
X5951635Y43609485D01*
X6082865Y43533719D01*
X6229234Y43494500D01*
X6229236Y43494500D01*
X6380764Y43494500D01*
X6380766Y43494500D01*
X6527135Y43533719D01*
X6658365Y43609485D01*
X6765515Y43716635D01*
X6841281Y43847865D01*
X6880500Y43994234D01*
X6880500Y44145766D01*
X6841281Y44292135D01*
X6841278Y44292141D01*
X6828947Y44313499D01*
X6812473Y44381398D01*
X6835325Y44447426D01*
X6890245Y44490617D01*
X6936333Y44499500D01*
X7453543Y44499500D01*
X7609462Y44530515D01*
X7646835Y44537949D01*
X7828914Y44613368D01*
X7992782Y44722861D01*
X8132139Y44862218D01*
X8241632Y45026086D01*
X8317051Y45208165D01*
X8329632Y45271418D01*
X8355500Y45401457D01*
X8355500Y45598544D01*
X8317052Y45791830D01*
X8317051Y45791831D01*
X8317051Y45791835D01*
X8247873Y45958847D01*
X8241635Y45973908D01*
X8241628Y45973921D01*
X8132139Y46137782D01*
X8132136Y46137786D01*
X7992785Y46277137D01*
X7992781Y46277140D01*
X7828920Y46386629D01*
X7828907Y46386636D01*
X7646839Y46462050D01*
X7646829Y46462053D01*
X7453543Y46500500D01*
X7453541Y46500500D01*
X6156459Y46500500D01*
X6156457Y46500500D01*
X5963170Y46462053D01*
X5963160Y46462050D01*
X5781092Y46386636D01*
X5781079Y46386629D01*
X5617218Y46277140D01*
X5617214Y46277137D01*
X5477863Y46137786D01*
X5477860Y46137782D01*
X5368371Y45973921D01*
X5368364Y45973908D01*
X5292950Y45791840D01*
X5292947Y45791830D01*
X5254500Y45598544D01*
X5254500Y45598541D01*
X5254500Y45401459D01*
X5254500Y45401457D01*
X5254499Y45401457D01*
X4025500Y45401457D01*
X4025500Y45598544D01*
X3987052Y45791830D01*
X3987051Y45791831D01*
X3987051Y45791835D01*
X3917873Y45958847D01*
X3911635Y45973908D01*
X3911628Y45973921D01*
X3802139Y46137782D01*
X3802136Y46137786D01*
X3662785Y46277137D01*
X3662781Y46277140D01*
X3498920Y46386629D01*
X3498907Y46386636D01*
X3316839Y46462050D01*
X3316829Y46462053D01*
X3123543Y46500500D01*
X3123541Y46500500D01*
X2126459Y46500500D01*
X2126457Y46500500D01*
X1933170Y46462053D01*
X1933160Y46462050D01*
X1751092Y46386636D01*
X1751079Y46386629D01*
X1587218Y46277140D01*
X1587214Y46277137D01*
X1447863Y46137786D01*
X1447860Y46137782D01*
X1338371Y45973921D01*
X1338364Y45973908D01*
X1262950Y45791840D01*
X1262947Y45791830D01*
X1224500Y45598544D01*
X1224500Y45598541D01*
X1224500Y45401459D01*
X1224500Y45401457D01*
X1224499Y45401457D01*
X500500Y45401457D01*
X500500Y47158847D01*
X15799500Y47158847D01*
X15799500Y47001154D01*
X15830261Y46846511D01*
X15830264Y46846499D01*
X15890602Y46700828D01*
X15890609Y46700815D01*
X15978210Y46569712D01*
X15978212Y46569709D01*
X15993345Y46554577D01*
X16026832Y46493255D01*
X16021849Y46423563D01*
X16005893Y46395824D01*
X16006595Y46395354D01*
X15915609Y46259186D01*
X15915602Y46259173D01*
X15855264Y46113502D01*
X15855261Y46113490D01*
X15824500Y45958847D01*
X15824500Y45801154D01*
X15855261Y45646511D01*
X15855264Y45646499D01*
X15915602Y45500828D01*
X15915609Y45500815D01*
X16003210Y45369712D01*
X16003213Y45369708D01*
X16114707Y45258214D01*
X16114711Y45258211D01*
X16245814Y45170610D01*
X16245827Y45170603D01*
X16391498Y45110265D01*
X16391503Y45110263D01*
X16546153Y45079501D01*
X16546156Y45079500D01*
X16546158Y45079500D01*
X16703844Y45079500D01*
X16703845Y45079501D01*
X16858497Y45110263D01*
X17004179Y45170606D01*
X17135289Y45258211D01*
X17246789Y45369711D01*
X17334394Y45500821D01*
X17394737Y45646503D01*
X17425500Y45801158D01*
X17425500Y45958842D01*
X17425500Y45958845D01*
X17425499Y45958847D01*
X17394738Y46113490D01*
X17394737Y46113497D01*
X17384676Y46137786D01*
X17334397Y46259173D01*
X17334390Y46259186D01*
X17246789Y46390289D01*
X17246787Y46390292D01*
X17231654Y46405424D01*
X17198167Y46466746D01*
X17203150Y46536438D01*
X17219111Y46564174D01*
X17218405Y46564646D01*
X17309390Y46700815D01*
X17309390Y46700816D01*
X17309394Y46700821D01*
X17369737Y46846503D01*
X17400500Y47001158D01*
X17400500Y47158842D01*
X17400500Y47158845D01*
X17400499Y47158847D01*
X17369738Y47313490D01*
X17369737Y47313497D01*
X17369735Y47313502D01*
X17309397Y47459173D01*
X17309390Y47459186D01*
X17221789Y47590289D01*
X17221786Y47590293D01*
X17110292Y47701787D01*
X17110288Y47701790D01*
X16979185Y47789391D01*
X16979172Y47789398D01*
X16833501Y47849736D01*
X16833489Y47849739D01*
X16678845Y47880500D01*
X16678842Y47880500D01*
X16521158Y47880500D01*
X16521155Y47880500D01*
X16366510Y47849739D01*
X16366498Y47849736D01*
X16220827Y47789398D01*
X16220814Y47789391D01*
X16089711Y47701790D01*
X16089707Y47701787D01*
X15978213Y47590293D01*
X15978210Y47590289D01*
X15890609Y47459186D01*
X15890602Y47459173D01*
X15830264Y47313502D01*
X15830261Y47313490D01*
X15799500Y47158847D01*
X500500Y47158847D01*
X500500Y50532298D01*
X520185Y50599337D01*
X554241Y50628847D01*
X3589500Y50628847D01*
X3589500Y50471154D01*
X3620261Y50316511D01*
X3620264Y50316499D01*
X3680602Y50170828D01*
X3680609Y50170815D01*
X3768210Y50039712D01*
X3768213Y50039708D01*
X3879707Y49928214D01*
X3879711Y49928211D01*
X4010814Y49840610D01*
X4010827Y49840603D01*
X4131028Y49790815D01*
X4156503Y49780263D01*
X4311153Y49749501D01*
X4311156Y49749500D01*
X4311158Y49749500D01*
X4468844Y49749500D01*
X4468845Y49749501D01*
X4623497Y49780263D01*
X4769179Y49840606D01*
X4900289Y49928211D01*
X5011789Y50039711D01*
X5099394Y50170821D01*
X5159737Y50316503D01*
X5190500Y50471158D01*
X5190500Y50628842D01*
X5190500Y50628845D01*
X5190499Y50628847D01*
X5170258Y50730603D01*
X5159737Y50783497D01*
X5141856Y50826666D01*
X5099397Y50929173D01*
X5099390Y50929186D01*
X5011790Y51060288D01*
X5011784Y51060295D01*
X4943232Y51128847D01*
X11169500Y51128847D01*
X11169500Y50971154D01*
X11200261Y50816511D01*
X11200264Y50816499D01*
X11260602Y50670828D01*
X11260609Y50670815D01*
X11348210Y50539712D01*
X11348213Y50539708D01*
X11459707Y50428214D01*
X11459711Y50428211D01*
X11590821Y50340606D01*
X11591338Y50340329D01*
X11591558Y50340113D01*
X11595886Y50337221D01*
X11595337Y50336401D01*
X11641186Y50291371D01*
X11656652Y50223234D01*
X11635995Y50162077D01*
X11580612Y50079191D01*
X11580602Y50079173D01*
X11520264Y49933502D01*
X11520261Y49933490D01*
X11489500Y49778847D01*
X11489500Y49621154D01*
X11520261Y49466511D01*
X11520264Y49466499D01*
X11580602Y49320828D01*
X11580609Y49320815D01*
X11668210Y49189712D01*
X11668213Y49189708D01*
X11779707Y49078214D01*
X11779711Y49078211D01*
X11910814Y48990610D01*
X11910827Y48990603D01*
X12032288Y48940293D01*
X12056503Y48930263D01*
X12211153Y48899501D01*
X12211156Y48899500D01*
X12227439Y48899500D01*
X12294478Y48879815D01*
X12340233Y48827011D01*
X12350177Y48757853D01*
X12342000Y48728048D01*
X12315264Y48663502D01*
X12315261Y48663490D01*
X12284500Y48508847D01*
X12284500Y48351154D01*
X12315261Y48196511D01*
X12315264Y48196499D01*
X12375602Y48050828D01*
X12375609Y48050815D01*
X12463210Y47919712D01*
X12463213Y47919708D01*
X12574707Y47808214D01*
X12574711Y47808211D01*
X12705814Y47720610D01*
X12705827Y47720603D01*
X12751254Y47701787D01*
X12851503Y47660263D01*
X13006153Y47629501D01*
X13006156Y47629500D01*
X13006158Y47629500D01*
X13163844Y47629500D01*
X13163845Y47629501D01*
X13318497Y47660263D01*
X13464179Y47720606D01*
X13595289Y47808211D01*
X13706789Y47919711D01*
X13794394Y48050821D01*
X13854737Y48196503D01*
X13885500Y48351158D01*
X13885500Y48508842D01*
X13885500Y48508845D01*
X13885499Y48508847D01*
X25574500Y48508847D01*
X25574500Y48351154D01*
X25605261Y48196511D01*
X25605264Y48196499D01*
X25665602Y48050828D01*
X25665609Y48050815D01*
X25753210Y47919712D01*
X25753213Y47919708D01*
X25805240Y47867681D01*
X25838725Y47806358D01*
X25833741Y47736666D01*
X25805240Y47692319D01*
X25753213Y47640293D01*
X25753210Y47640289D01*
X25665609Y47509186D01*
X25665602Y47509173D01*
X25605264Y47363502D01*
X25605261Y47363490D01*
X25574500Y47208847D01*
X25574500Y47051154D01*
X25605261Y46896511D01*
X25605264Y46896499D01*
X25665602Y46750828D01*
X25665609Y46750815D01*
X25753210Y46619712D01*
X25753213Y46619708D01*
X25864707Y46508214D01*
X25864711Y46508211D01*
X25995814Y46420610D01*
X25995827Y46420603D01*
X26077849Y46386629D01*
X26141503Y46360263D01*
X26296153Y46329501D01*
X26296156Y46329500D01*
X26296158Y46329500D01*
X26453844Y46329500D01*
X26453845Y46329501D01*
X26608497Y46360263D01*
X26754179Y46420606D01*
X26885289Y46508211D01*
X26996789Y46619711D01*
X27084394Y46750821D01*
X27144737Y46896503D01*
X27175500Y47051158D01*
X27175500Y47208842D01*
X27175500Y47208845D01*
X27175499Y47208847D01*
X27154684Y47313490D01*
X27144737Y47363497D01*
X27105102Y47459186D01*
X27084397Y47509173D01*
X27084390Y47509186D01*
X26996789Y47640289D01*
X26996786Y47640293D01*
X26944760Y47692319D01*
X26911275Y47753642D01*
X26916259Y47823334D01*
X26944760Y47867681D01*
X26996786Y47919708D01*
X26996789Y47919711D01*
X27084394Y48050821D01*
X27144737Y48196503D01*
X27175500Y48351158D01*
X27175500Y48508842D01*
X27175500Y48508845D01*
X27175499Y48508847D01*
X27144738Y48663490D01*
X27144737Y48663497D01*
X27144735Y48663502D01*
X27084397Y48809173D01*
X27084390Y48809186D01*
X26996789Y48940289D01*
X26996786Y48940293D01*
X26885292Y49051787D01*
X26885288Y49051790D01*
X26754185Y49139391D01*
X26754172Y49139398D01*
X26608501Y49199736D01*
X26608489Y49199739D01*
X26453845Y49230500D01*
X26453842Y49230500D01*
X26296158Y49230500D01*
X26296155Y49230500D01*
X26141510Y49199739D01*
X26141498Y49199736D01*
X25995827Y49139398D01*
X25995814Y49139391D01*
X25864711Y49051790D01*
X25864707Y49051787D01*
X25753213Y48940293D01*
X25753210Y48940289D01*
X25665609Y48809186D01*
X25665602Y48809173D01*
X25605264Y48663502D01*
X25605261Y48663490D01*
X25574500Y48508847D01*
X13885499Y48508847D01*
X13854738Y48663490D01*
X13854737Y48663497D01*
X13854735Y48663502D01*
X13794397Y48809173D01*
X13794390Y48809186D01*
X13706789Y48940289D01*
X13706786Y48940293D01*
X13595292Y49051787D01*
X13595288Y49051790D01*
X13464185Y49139391D01*
X13464172Y49139398D01*
X13318501Y49199736D01*
X13318489Y49199739D01*
X13163845Y49230500D01*
X13163842Y49230500D01*
X13147561Y49230500D01*
X13080522Y49250185D01*
X13034767Y49302989D01*
X13024823Y49372147D01*
X13033000Y49401952D01*
X13059735Y49466499D01*
X13059737Y49466503D01*
X13090500Y49621158D01*
X13090500Y49778842D01*
X13090500Y49778845D01*
X13090499Y49778847D01*
X13060788Y49928211D01*
X13059737Y49933497D01*
X13058489Y49936511D01*
X12999397Y50079173D01*
X12999390Y50079186D01*
X12911789Y50210289D01*
X12911786Y50210293D01*
X12800292Y50321787D01*
X12800288Y50321790D01*
X12669181Y50409394D01*
X12668654Y50409675D01*
X12668429Y50409896D01*
X12664114Y50412779D01*
X12664660Y50413598D01*
X12618809Y50458637D01*
X12603348Y50526775D01*
X12624002Y50587923D01*
X12679394Y50670821D01*
X12739737Y50816503D01*
X12770500Y50971158D01*
X12770500Y51128842D01*
X12770500Y51128845D01*
X12770499Y51128847D01*
X12758173Y51190815D01*
X12739737Y51283497D01*
X12739735Y51283502D01*
X12679397Y51429173D01*
X12679390Y51429186D01*
X12591789Y51560289D01*
X12591786Y51560293D01*
X12503232Y51648847D01*
X15749500Y51648847D01*
X15749500Y51491154D01*
X15780261Y51336511D01*
X15780264Y51336499D01*
X15840602Y51190828D01*
X15840609Y51190815D01*
X15928210Y51059712D01*
X15928213Y51059708D01*
X16030240Y50957681D01*
X16063725Y50896358D01*
X16058741Y50826666D01*
X16030240Y50782319D01*
X15928213Y50680293D01*
X15928210Y50680289D01*
X15840609Y50549186D01*
X15840602Y50549173D01*
X15780264Y50403502D01*
X15780261Y50403490D01*
X15749500Y50248847D01*
X15749500Y50091154D01*
X15780261Y49936511D01*
X15780264Y49936499D01*
X15840602Y49790828D01*
X15840609Y49790815D01*
X15928210Y49659712D01*
X15928213Y49659708D01*
X16039707Y49548214D01*
X16039711Y49548211D01*
X16170814Y49460610D01*
X16170827Y49460603D01*
X16280082Y49415349D01*
X16316503Y49400263D01*
X16371831Y49389258D01*
X16433740Y49356874D01*
X16468315Y49296159D01*
X16469256Y49291834D01*
X16480261Y49236508D01*
X16480264Y49236499D01*
X16540602Y49090828D01*
X16540609Y49090815D01*
X16628210Y48959712D01*
X16628213Y48959708D01*
X16739707Y48848214D01*
X16739711Y48848211D01*
X16870814Y48760610D01*
X16870827Y48760603D01*
X17016498Y48700265D01*
X17016503Y48700263D01*
X17171153Y48669501D01*
X17171156Y48669500D01*
X17171158Y48669500D01*
X17328844Y48669500D01*
X17328845Y48669501D01*
X17483497Y48700263D01*
X17629179Y48760606D01*
X17760289Y48848211D01*
X17791893Y48879815D01*
X17862319Y48950240D01*
X17923642Y48983725D01*
X17993334Y48978741D01*
X18037681Y48950240D01*
X18139707Y48848214D01*
X18139711Y48848211D01*
X18270814Y48760610D01*
X18270827Y48760603D01*
X18416498Y48700265D01*
X18416503Y48700263D01*
X18571153Y48669501D01*
X18571156Y48669500D01*
X18571158Y48669500D01*
X18728844Y48669500D01*
X18728845Y48669501D01*
X18883497Y48700263D01*
X19029179Y48760606D01*
X19160289Y48848211D01*
X19271789Y48959711D01*
X19359394Y49090821D01*
X19419737Y49236503D01*
X19430743Y49291834D01*
X19463125Y49353742D01*
X19523841Y49388317D01*
X19528118Y49389248D01*
X19583497Y49400263D01*
X19729179Y49460606D01*
X19860289Y49548211D01*
X19971789Y49659711D01*
X20059394Y49790821D01*
X20119737Y49936503D01*
X20150500Y50091158D01*
X20150500Y50248842D01*
X20150500Y50248845D01*
X20150499Y50248847D01*
X20135990Y50321789D01*
X20119737Y50403497D01*
X20117178Y50409675D01*
X20059397Y50549173D01*
X20059390Y50549186D01*
X19971789Y50680289D01*
X19971786Y50680293D01*
X19869760Y50782319D01*
X19836275Y50843642D01*
X19841259Y50913334D01*
X19869760Y50957681D01*
X19970925Y51058847D01*
X25274500Y51058847D01*
X25274500Y50901154D01*
X25305261Y50746511D01*
X25305264Y50746499D01*
X25365602Y50600828D01*
X25365609Y50600815D01*
X25453210Y50469712D01*
X25453213Y50469708D01*
X25564707Y50358214D01*
X25564711Y50358211D01*
X25695814Y50270610D01*
X25695827Y50270603D01*
X25841440Y50210289D01*
X25841503Y50210263D01*
X25996153Y50179501D01*
X25996156Y50179500D01*
X25996158Y50179500D01*
X26153844Y50179500D01*
X26153845Y50179501D01*
X26308497Y50210263D01*
X26454179Y50270606D01*
X26585289Y50358211D01*
X26696789Y50469711D01*
X26784394Y50600821D01*
X26844737Y50746503D01*
X26875500Y50901158D01*
X26875500Y51058842D01*
X26875500Y51058845D01*
X26875499Y51058847D01*
X26860585Y51133825D01*
X26844737Y51213497D01*
X26825726Y51259394D01*
X26784397Y51359173D01*
X26784390Y51359186D01*
X26696789Y51490289D01*
X26696786Y51490293D01*
X26585292Y51601787D01*
X26585288Y51601790D01*
X26454185Y51689391D01*
X26454172Y51689398D01*
X26308501Y51749736D01*
X26308489Y51749739D01*
X26153845Y51780500D01*
X26153842Y51780500D01*
X25996158Y51780500D01*
X25996155Y51780500D01*
X25841510Y51749739D01*
X25841498Y51749736D01*
X25695827Y51689398D01*
X25695814Y51689391D01*
X25564711Y51601790D01*
X25564707Y51601787D01*
X25453213Y51490293D01*
X25453210Y51490289D01*
X25365609Y51359186D01*
X25365602Y51359173D01*
X25305264Y51213502D01*
X25305261Y51213490D01*
X25274500Y51058847D01*
X19970925Y51058847D01*
X19971786Y51059708D01*
X19971789Y51059711D01*
X20017983Y51128845D01*
X20021311Y51133825D01*
X20059390Y51190815D01*
X20059390Y51190816D01*
X20059394Y51190821D01*
X20119737Y51336503D01*
X20150500Y51491158D01*
X20150500Y51648842D01*
X20150500Y51648845D01*
X20150499Y51648847D01*
X20145936Y51671787D01*
X20119737Y51803497D01*
X20113241Y51819179D01*
X20059397Y51949173D01*
X20059390Y51949186D01*
X19971789Y52080289D01*
X19971786Y52080293D01*
X19860292Y52191787D01*
X19860288Y52191790D01*
X19755463Y52261832D01*
X19729184Y52279391D01*
X19729172Y52279398D01*
X19583501Y52339736D01*
X19583492Y52339739D01*
X19528166Y52350744D01*
X19512676Y52358847D01*
X23374500Y52358847D01*
X23374500Y52201154D01*
X23405261Y52046511D01*
X23405264Y52046499D01*
X23465602Y51900828D01*
X23465609Y51900815D01*
X23553210Y51769712D01*
X23553213Y51769708D01*
X23664707Y51658214D01*
X23664711Y51658211D01*
X23795814Y51570610D01*
X23795827Y51570603D01*
X23920779Y51518847D01*
X23941503Y51510263D01*
X24079814Y51482751D01*
X24096153Y51479501D01*
X24096156Y51479500D01*
X24096158Y51479500D01*
X24253844Y51479500D01*
X24253845Y51479501D01*
X24408497Y51510263D01*
X24554179Y51570606D01*
X24685289Y51658211D01*
X24796789Y51769711D01*
X24884394Y51900821D01*
X24944737Y52046503D01*
X24975500Y52201158D01*
X24975500Y52358842D01*
X24975500Y52358845D01*
X24975499Y52358847D01*
X24970047Y52386257D01*
X24944737Y52513497D01*
X24888539Y52649173D01*
X24884397Y52659173D01*
X24884390Y52659186D01*
X24796789Y52790289D01*
X24796786Y52790293D01*
X24685292Y52901787D01*
X24685288Y52901790D01*
X24554185Y52989391D01*
X24554172Y52989398D01*
X24408501Y53049736D01*
X24408489Y53049739D01*
X24253845Y53080500D01*
X24253842Y53080500D01*
X24096158Y53080500D01*
X24096155Y53080500D01*
X23941510Y53049739D01*
X23941498Y53049736D01*
X23795827Y52989398D01*
X23795814Y52989391D01*
X23664711Y52901790D01*
X23664707Y52901787D01*
X23553213Y52790293D01*
X23553210Y52790289D01*
X23465609Y52659186D01*
X23465602Y52659173D01*
X23405264Y52513502D01*
X23405261Y52513490D01*
X23374500Y52358847D01*
X19512676Y52358847D01*
X19466256Y52383130D01*
X19431682Y52443846D01*
X19430750Y52448126D01*
X19419737Y52503497D01*
X19404651Y52539918D01*
X19359397Y52649173D01*
X19359390Y52649186D01*
X19271789Y52780289D01*
X19271786Y52780293D01*
X19160292Y52891787D01*
X19160288Y52891790D01*
X19029185Y52979391D01*
X19029172Y52979398D01*
X18883501Y53039736D01*
X18883489Y53039739D01*
X18728845Y53070500D01*
X18728842Y53070500D01*
X18571158Y53070500D01*
X18571155Y53070500D01*
X18416510Y53039739D01*
X18416498Y53039736D01*
X18270827Y52979398D01*
X18270814Y52979391D01*
X18139711Y52891790D01*
X18139707Y52891787D01*
X18037681Y52789760D01*
X17976358Y52756275D01*
X17906666Y52761259D01*
X17862319Y52789760D01*
X17760292Y52891787D01*
X17760288Y52891790D01*
X17629185Y52979391D01*
X17629172Y52979398D01*
X17483501Y53039736D01*
X17483489Y53039739D01*
X17328845Y53070500D01*
X17328842Y53070500D01*
X17171158Y53070500D01*
X17171155Y53070500D01*
X17016510Y53039739D01*
X17016498Y53039736D01*
X16870827Y52979398D01*
X16870814Y52979391D01*
X16739711Y52891790D01*
X16739707Y52891787D01*
X16628213Y52780293D01*
X16628210Y52780289D01*
X16540609Y52649186D01*
X16540602Y52649173D01*
X16480264Y52503502D01*
X16480262Y52503495D01*
X16469256Y52448167D01*
X16436870Y52386257D01*
X16376153Y52351684D01*
X16371833Y52350744D01*
X16316505Y52339738D01*
X16316498Y52339736D01*
X16170827Y52279398D01*
X16170814Y52279391D01*
X16039711Y52191790D01*
X16039707Y52191787D01*
X15928213Y52080293D01*
X15928210Y52080289D01*
X15840609Y51949186D01*
X15840602Y51949173D01*
X15780264Y51803502D01*
X15780261Y51803490D01*
X15749500Y51648847D01*
X12503232Y51648847D01*
X12480292Y51671787D01*
X12480288Y51671790D01*
X12349185Y51759391D01*
X12349172Y51759398D01*
X12203501Y51819736D01*
X12203489Y51819739D01*
X12048845Y51850500D01*
X12048842Y51850500D01*
X11891158Y51850500D01*
X11891155Y51850500D01*
X11736510Y51819739D01*
X11736498Y51819736D01*
X11590827Y51759398D01*
X11590814Y51759391D01*
X11459711Y51671790D01*
X11459707Y51671787D01*
X11348213Y51560293D01*
X11348210Y51560289D01*
X11260609Y51429186D01*
X11260602Y51429173D01*
X11200264Y51283502D01*
X11200261Y51283490D01*
X11169500Y51128847D01*
X4943232Y51128847D01*
X4900292Y51171787D01*
X4900288Y51171790D01*
X4769185Y51259391D01*
X4769172Y51259398D01*
X4623501Y51319736D01*
X4623489Y51319739D01*
X4468845Y51350500D01*
X4468842Y51350500D01*
X4311158Y51350500D01*
X4311155Y51350500D01*
X4156510Y51319739D01*
X4156498Y51319736D01*
X4010827Y51259398D01*
X4010814Y51259391D01*
X3879711Y51171790D01*
X3879707Y51171787D01*
X3768213Y51060293D01*
X3768210Y51060289D01*
X3680609Y50929186D01*
X3680602Y50929173D01*
X3620264Y50783502D01*
X3620261Y50783490D01*
X3589500Y50628847D01*
X554241Y50628847D01*
X572989Y50645092D01*
X642147Y50655036D01*
X648667Y50653920D01*
X705435Y50642628D01*
X721157Y50639500D01*
X721158Y50639500D01*
X878844Y50639500D01*
X878845Y50639501D01*
X1033497Y50670263D01*
X1179179Y50730606D01*
X1183628Y50733580D01*
X1190301Y50738037D01*
X1190301Y50738038D01*
X1310289Y50818211D01*
X1421789Y50929711D01*
X1509394Y51060821D01*
X1569737Y51206503D01*
X1600500Y51361158D01*
X1600500Y51518842D01*
X1600500Y51518845D01*
X1600499Y51518847D01*
X1590203Y51570610D01*
X1569737Y51673497D01*
X1534156Y51759398D01*
X1509397Y51819173D01*
X1509390Y51819186D01*
X1421789Y51950289D01*
X1421786Y51950293D01*
X1310292Y52061787D01*
X1310288Y52061790D01*
X1179185Y52149391D01*
X1179172Y52149398D01*
X1033501Y52209736D01*
X1033489Y52209739D01*
X878845Y52240500D01*
X878842Y52240500D01*
X721158Y52240500D01*
X721155Y52240500D01*
X648691Y52226086D01*
X627707Y52227964D01*
X606853Y52224965D01*
X593605Y52231016D01*
X579100Y52232313D01*
X562461Y52245238D01*
X543297Y52253990D01*
X535423Y52266242D01*
X523922Y52275176D01*
X516912Y52295045D01*
X505523Y52312768D01*
X501988Y52337352D01*
X500678Y52341066D01*
X500500Y52347703D01*
X500500Y52362097D01*
X8540284Y52362097D01*
X8540284Y52204404D01*
X8571045Y52049761D01*
X8571048Y52049749D01*
X8631386Y51904078D01*
X8631393Y51904065D01*
X8718994Y51772962D01*
X8718997Y51772958D01*
X8830491Y51661464D01*
X8830495Y51661461D01*
X8961598Y51573860D01*
X8961611Y51573853D01*
X9107282Y51513515D01*
X9107287Y51513513D01*
X9261937Y51482751D01*
X9261940Y51482750D01*
X9261942Y51482750D01*
X9419628Y51482750D01*
X9419629Y51482751D01*
X9574281Y51513513D01*
X9712117Y51570606D01*
X9719956Y51573853D01*
X9719956Y51573854D01*
X9719963Y51573856D01*
X9851073Y51661461D01*
X9962573Y51772961D01*
X10050178Y51904071D01*
X10110521Y52049753D01*
X10141284Y52204408D01*
X10141284Y52362092D01*
X10141284Y52362095D01*
X10141283Y52362097D01*
X10125022Y52443846D01*
X10110521Y52516747D01*
X10055669Y52649173D01*
X10050181Y52662423D01*
X10050174Y52662436D01*
X9962573Y52793539D01*
X9962570Y52793543D01*
X9851076Y52905037D01*
X9851072Y52905040D01*
X9719969Y52992641D01*
X9719956Y52992648D01*
X9574285Y53052986D01*
X9574273Y53052989D01*
X9419629Y53083750D01*
X9419626Y53083750D01*
X9261942Y53083750D01*
X9261939Y53083750D01*
X9107294Y53052989D01*
X9107282Y53052986D01*
X8961611Y52992648D01*
X8961598Y52992641D01*
X8830495Y52905040D01*
X8830491Y52905037D01*
X8718997Y52793543D01*
X8718994Y52793539D01*
X8631393Y52662436D01*
X8631386Y52662423D01*
X8571048Y52516752D01*
X8571045Y52516740D01*
X8540284Y52362097D01*
X500500Y52362097D01*
X500500Y54368847D01*
X7299500Y54368847D01*
X7299500Y54211154D01*
X7330261Y54056511D01*
X7330264Y54056499D01*
X7390602Y53910828D01*
X7390609Y53910815D01*
X7478210Y53779712D01*
X7478213Y53779708D01*
X7589707Y53668214D01*
X7589711Y53668211D01*
X7720814Y53580610D01*
X7720827Y53580603D01*
X7866498Y53520265D01*
X7866503Y53520263D01*
X8021153Y53489501D01*
X8021156Y53489500D01*
X8021158Y53489500D01*
X8178844Y53489500D01*
X8178845Y53489501D01*
X8333497Y53520263D01*
X8479179Y53580606D01*
X8610289Y53668211D01*
X8721789Y53779711D01*
X8809394Y53910821D01*
X8869737Y54056503D01*
X8900500Y54211158D01*
X8900500Y54368842D01*
X8900500Y54368845D01*
X8900499Y54368847D01*
X8894139Y54400821D01*
X8869737Y54523497D01*
X8860208Y54546503D01*
X8809397Y54669173D01*
X8809390Y54669186D01*
X8724626Y54796043D01*
X8724625Y54796045D01*
X8724624Y54796046D01*
X8721788Y54800291D01*
X8663232Y54858847D01*
X11199500Y54858847D01*
X11199500Y54701154D01*
X11230261Y54546511D01*
X11230264Y54546499D01*
X11290602Y54400828D01*
X11290609Y54400815D01*
X11378210Y54269712D01*
X11378213Y54269708D01*
X11489707Y54158214D01*
X11494419Y54154347D01*
X11493405Y54153112D01*
X11533236Y54105465D01*
X11541953Y54036141D01*
X11522650Y53987070D01*
X11470608Y53909184D01*
X11470602Y53909173D01*
X11410264Y53763502D01*
X11410261Y53763490D01*
X11379500Y53608847D01*
X11379500Y53451154D01*
X11410261Y53296511D01*
X11410264Y53296499D01*
X11470602Y53150828D01*
X11470609Y53150815D01*
X11558210Y53019712D01*
X11558213Y53019708D01*
X11669707Y52908214D01*
X11669711Y52908211D01*
X11800814Y52820610D01*
X11800827Y52820603D01*
X11944098Y52761259D01*
X11946503Y52760263D01*
X12101153Y52729501D01*
X12101156Y52729500D01*
X12101158Y52729500D01*
X12258844Y52729500D01*
X12258845Y52729501D01*
X12413497Y52760263D01*
X12559179Y52820606D01*
X12690289Y52908211D01*
X12801789Y53019711D01*
X12889394Y53150821D01*
X12949737Y53296503D01*
X12980500Y53451158D01*
X12980500Y53608842D01*
X12980500Y53608845D01*
X12980499Y53608847D01*
X12968690Y53668214D01*
X12949737Y53763497D01*
X12897681Y53889173D01*
X12889397Y53909173D01*
X12889390Y53909186D01*
X12801789Y54040289D01*
X12801786Y54040293D01*
X12690292Y54151787D01*
X12685581Y54155653D01*
X12686593Y54156887D01*
X12646760Y54204543D01*
X12638047Y54273867D01*
X12657350Y54322932D01*
X12709394Y54400821D01*
X12769737Y54546503D01*
X12800500Y54701158D01*
X12800500Y54858842D01*
X12800500Y54858845D01*
X12794155Y54890742D01*
X12794155Y54890743D01*
X12790554Y54908847D01*
X24759500Y54908847D01*
X24759500Y54751154D01*
X24790261Y54596511D01*
X24790264Y54596499D01*
X24850602Y54450828D01*
X24850609Y54450815D01*
X24938210Y54319712D01*
X24938213Y54319708D01*
X25049707Y54208214D01*
X25049711Y54208211D01*
X25180814Y54120610D01*
X25180827Y54120603D01*
X25326498Y54060265D01*
X25326503Y54060263D01*
X25447772Y54036141D01*
X25481153Y54029501D01*
X25481156Y54029500D01*
X25481158Y54029500D01*
X25638843Y54029500D01*
X25640034Y54029737D01*
X25640671Y54029680D01*
X25644907Y54030097D01*
X25644986Y54029295D01*
X25709626Y54023515D01*
X25764807Y53980657D01*
X25788057Y53914769D01*
X25778797Y53860670D01*
X25730263Y53743497D01*
X25730262Y53743494D01*
X25730262Y53743493D01*
X25730261Y53743490D01*
X25699500Y53588847D01*
X25699500Y53431154D01*
X25730261Y53276511D01*
X25730264Y53276499D01*
X25790602Y53130828D01*
X25790609Y53130815D01*
X25878210Y52999712D01*
X25878213Y52999708D01*
X25989707Y52888214D01*
X25989711Y52888211D01*
X26120814Y52800610D01*
X26120827Y52800603D01*
X26227846Y52756275D01*
X26266503Y52740263D01*
X26421153Y52709501D01*
X26421156Y52709500D01*
X26421158Y52709500D01*
X26578844Y52709500D01*
X26578845Y52709501D01*
X26733497Y52740263D01*
X26879179Y52800606D01*
X27010289Y52888211D01*
X27121789Y52999711D01*
X27209394Y53130821D01*
X27269737Y53276503D01*
X27300500Y53431158D01*
X27300500Y53588842D01*
X27300500Y53588845D01*
X27300499Y53588847D01*
X27269738Y53743490D01*
X27269737Y53743497D01*
X27254737Y53779711D01*
X27209397Y53889173D01*
X27209390Y53889186D01*
X27121789Y54020289D01*
X27121786Y54020293D01*
X27010292Y54131787D01*
X27010288Y54131790D01*
X26879185Y54219391D01*
X26879172Y54219398D01*
X26733501Y54279736D01*
X26733489Y54279739D01*
X26578845Y54310500D01*
X26578842Y54310500D01*
X26421158Y54310500D01*
X26421150Y54310500D01*
X26419946Y54310260D01*
X26419303Y54310318D01*
X26415093Y54309903D01*
X26415014Y54310702D01*
X26350354Y54316493D01*
X26295181Y54359360D01*
X26271941Y54425252D01*
X26281202Y54479330D01*
X26329737Y54596503D01*
X26360500Y54751158D01*
X26360500Y54908842D01*
X26360500Y54908845D01*
X26360499Y54908847D01*
X26359914Y54911790D01*
X26329737Y55063497D01*
X26290572Y55158049D01*
X26283104Y55227517D01*
X26314379Y55289996D01*
X26374468Y55325648D01*
X26405134Y55329500D01*
X26528844Y55329500D01*
X26528845Y55329501D01*
X26683497Y55360263D01*
X26829179Y55420606D01*
X26960289Y55508211D01*
X27071789Y55619711D01*
X27159394Y55750821D01*
X27219737Y55896503D01*
X27250500Y56051158D01*
X27250500Y56208842D01*
X27250500Y56208845D01*
X27250499Y56208847D01*
X27219738Y56363490D01*
X27219737Y56363497D01*
X27219735Y56363502D01*
X27159397Y56509173D01*
X27159390Y56509186D01*
X27071789Y56640289D01*
X27071786Y56640293D01*
X26960292Y56751787D01*
X26960288Y56751790D01*
X26829185Y56839391D01*
X26829172Y56839398D01*
X26683501Y56899736D01*
X26683489Y56899739D01*
X26528845Y56930500D01*
X26528842Y56930500D01*
X26371158Y56930500D01*
X26371155Y56930500D01*
X26216510Y56899739D01*
X26216498Y56899736D01*
X26070827Y56839398D01*
X26070814Y56839391D01*
X25939711Y56751790D01*
X25939707Y56751787D01*
X25828213Y56640293D01*
X25828210Y56640289D01*
X25740609Y56509186D01*
X25740602Y56509173D01*
X25680264Y56363502D01*
X25680261Y56363490D01*
X25649500Y56208847D01*
X25649500Y56051154D01*
X25680261Y55896511D01*
X25680263Y55896503D01*
X25719427Y55801953D01*
X25726896Y55732483D01*
X25695621Y55670004D01*
X25635532Y55634352D01*
X25604866Y55630500D01*
X25481155Y55630500D01*
X25326510Y55599739D01*
X25326498Y55599736D01*
X25180827Y55539398D01*
X25180814Y55539391D01*
X25049711Y55451790D01*
X25049707Y55451787D01*
X24938213Y55340293D01*
X24938210Y55340289D01*
X24850609Y55209186D01*
X24850602Y55209173D01*
X24790264Y55063502D01*
X24790261Y55063490D01*
X24759500Y54908847D01*
X12790554Y54908847D01*
X12769738Y55013490D01*
X12769737Y55013497D01*
X12769735Y55013502D01*
X12709397Y55159173D01*
X12709390Y55159186D01*
X12621789Y55290289D01*
X12621786Y55290293D01*
X12510292Y55401787D01*
X12510288Y55401790D01*
X12379185Y55489391D01*
X12379172Y55489398D01*
X12233501Y55549736D01*
X12233489Y55549739D01*
X12078845Y55580500D01*
X12078842Y55580500D01*
X11921158Y55580500D01*
X11921155Y55580500D01*
X11766510Y55549739D01*
X11766498Y55549736D01*
X11620827Y55489398D01*
X11620814Y55489391D01*
X11489711Y55401790D01*
X11489707Y55401787D01*
X11378213Y55290293D01*
X11378210Y55290289D01*
X11290609Y55159186D01*
X11290602Y55159173D01*
X11230264Y55013502D01*
X11230261Y55013490D01*
X11199500Y54858847D01*
X8663232Y54858847D01*
X8610292Y54911787D01*
X8610288Y54911790D01*
X8479185Y54999391D01*
X8479172Y54999398D01*
X8333501Y55059736D01*
X8333489Y55059739D01*
X8178845Y55090500D01*
X8178842Y55090500D01*
X8021158Y55090500D01*
X8021155Y55090500D01*
X7866510Y55059739D01*
X7866498Y55059736D01*
X7720827Y54999398D01*
X7720814Y54999391D01*
X7589711Y54911790D01*
X7589707Y54911787D01*
X7478213Y54800293D01*
X7478210Y54800289D01*
X7390609Y54669186D01*
X7390602Y54669173D01*
X7330264Y54523502D01*
X7330261Y54523490D01*
X7299500Y54368847D01*
X500500Y54368847D01*
X500500Y57340847D01*
X20399500Y57340847D01*
X20399500Y57183154D01*
X20430261Y57028511D01*
X20430264Y57028499D01*
X20490602Y56882828D01*
X20490609Y56882815D01*
X20578210Y56751712D01*
X20578213Y56751708D01*
X20689707Y56640214D01*
X20689711Y56640211D01*
X20820814Y56552610D01*
X20820827Y56552603D01*
X20925678Y56509173D01*
X20966503Y56492263D01*
X21121153Y56461501D01*
X21121156Y56461500D01*
X21121158Y56461500D01*
X21278844Y56461500D01*
X21278845Y56461501D01*
X21433497Y56492263D01*
X21579179Y56552606D01*
X21710289Y56640211D01*
X21821789Y56751711D01*
X21840410Y56779581D01*
X21894020Y56824386D01*
X21963345Y56833095D01*
X22026373Y56802942D01*
X22046615Y56779582D01*
X22053210Y56769712D01*
X22053213Y56769708D01*
X22164707Y56658214D01*
X22164711Y56658211D01*
X22295814Y56570610D01*
X22295827Y56570603D01*
X22441498Y56510265D01*
X22441503Y56510263D01*
X22532000Y56492262D01*
X22596153Y56479501D01*
X22596156Y56479500D01*
X22596158Y56479500D01*
X22753844Y56479500D01*
X22753845Y56479501D01*
X22908497Y56510263D01*
X23054179Y56570606D01*
X23185289Y56658211D01*
X23296789Y56769711D01*
X23384394Y56900821D01*
X23444737Y57046503D01*
X23475500Y57201158D01*
X23475500Y57358842D01*
X23475500Y57358845D01*
X23475499Y57358847D01*
X23444737Y57513497D01*
X23416228Y57582325D01*
X23384397Y57659173D01*
X23384390Y57659186D01*
X23296789Y57790289D01*
X23296786Y57790293D01*
X23185292Y57901787D01*
X23185288Y57901790D01*
X23054185Y57989391D01*
X23054172Y57989398D01*
X22908501Y58049736D01*
X22908489Y58049739D01*
X22753845Y58080500D01*
X22753842Y58080500D01*
X22596158Y58080500D01*
X22596155Y58080500D01*
X22441510Y58049739D01*
X22441498Y58049736D01*
X22295827Y57989398D01*
X22295814Y57989391D01*
X22164711Y57901790D01*
X22164707Y57901787D01*
X22053213Y57790293D01*
X22053208Y57790287D01*
X22034587Y57762418D01*
X21980975Y57717614D01*
X21911650Y57708907D01*
X21848622Y57739062D01*
X21828383Y57762420D01*
X21821787Y57772292D01*
X21710292Y57883787D01*
X21710288Y57883790D01*
X21579185Y57971391D01*
X21579172Y57971398D01*
X21433501Y58031736D01*
X21433489Y58031739D01*
X21278845Y58062500D01*
X21278842Y58062500D01*
X21121158Y58062500D01*
X21121155Y58062500D01*
X20966510Y58031739D01*
X20966498Y58031736D01*
X20820827Y57971398D01*
X20820814Y57971391D01*
X20689711Y57883790D01*
X20689707Y57883787D01*
X20578213Y57772293D01*
X20578210Y57772289D01*
X20490609Y57641186D01*
X20490602Y57641173D01*
X20430264Y57495502D01*
X20430261Y57495490D01*
X20399500Y57340847D01*
X500500Y57340847D01*
X500500Y59355500D01*
X520185Y59422539D01*
X572989Y59468294D01*
X624500Y59479500D01*
X3649195Y59479500D01*
X3716234Y59459815D01*
G37*
%TD.AperFunction*%
%TD*%
M02*
