%TF.GenerationSoftware,KiCad,Pcbnew,9.0.5*%
%TF.CreationDate,2025-11-01T11:22:36+01:00*%
%TF.ProjectId,horsesense,686f7273-6573-4656-9e73-652e6b696361,1.0*%
%TF.SameCoordinates,Original*%
%TF.FileFunction,Copper,L4,Bot*%
%TF.FilePolarity,Positive*%
%FSLAX46Y46*%
G04 Gerber Fmt 4.6, Leading zero omitted, Abs format (unit mm)*
G04 Created by KiCad (PCBNEW 9.0.5) date 2025-11-01 11:22:36*
%MOMM*%
%LPD*%
G01*
G04 APERTURE LIST*
%TA.AperFunction,HeatsinkPad*%
%ADD10C,0.600000*%
%TD*%
%TA.AperFunction,ComponentPad*%
%ADD11R,1.000000X1.000000*%
%TD*%
%TA.AperFunction,ComponentPad*%
%ADD12C,1.000000*%
%TD*%
%TA.AperFunction,HeatsinkPad*%
%ADD13C,0.500000*%
%TD*%
%TA.AperFunction,HeatsinkPad*%
%ADD14R,2.700000X2.700000*%
%TD*%
%TA.AperFunction,HeatsinkPad*%
%ADD15O,2.100000X1.000000*%
%TD*%
%TA.AperFunction,HeatsinkPad*%
%ADD16O,1.800000X1.000000*%
%TD*%
%TA.AperFunction,SMDPad,CuDef*%
%ADD17R,0.540000X0.550000*%
%TD*%
%TA.AperFunction,SMDPad,CuDef*%
%ADD18C,1.000000*%
%TD*%
%TA.AperFunction,SMDPad,CuDef*%
%ADD19R,0.350000X0.550000*%
%TD*%
%TA.AperFunction,SMDPad,CuDef*%
%ADD20R,1.250000X1.450000*%
%TD*%
%TA.AperFunction,ViaPad*%
%ADD21C,0.600000*%
%TD*%
%TA.AperFunction,Conductor*%
%ADD22C,0.500000*%
%TD*%
%TA.AperFunction,Conductor*%
%ADD23C,0.200000*%
%TD*%
%TA.AperFunction,Conductor*%
%ADD24C,0.600000*%
%TD*%
%TA.AperFunction,Conductor*%
%ADD25C,0.140000*%
%TD*%
G04 APERTURE END LIST*
D10*
%TO.P,U9,41,GND*%
%TO.N,GND*%
X16550000Y51570000D03*
X16550000Y50170000D03*
X17250000Y52270000D03*
X17250000Y50870000D03*
X17250000Y49470000D03*
X17950000Y51570000D03*
X17950000Y50170000D03*
X18650000Y52270000D03*
X18650000Y50870000D03*
X18650000Y49470000D03*
X19350000Y51570000D03*
X19350000Y50170000D03*
%TD*%
D11*
%TO.P,J4,1,Pin_1*%
%TO.N,+3.3V*%
X1940000Y30695000D03*
D12*
%TO.P,J4,2,Pin_2*%
%TO.N,Net-(J4-Pin_2)*%
X1940000Y31965000D03*
%TO.P,J4,3,Pin_3*%
%TO.N,Net-(J4-Pin_3)*%
X1940000Y33235000D03*
%TO.P,J4,4,Pin_4*%
%TO.N,GND*%
X1940000Y34505000D03*
%TD*%
D13*
%TO.P,U3,25,GND*%
%TO.N,GND*%
X13440000Y4177500D03*
X14540000Y4177500D03*
X15640000Y4177500D03*
X13440000Y5277500D03*
X14540000Y5277500D03*
D14*
X14540000Y5277500D03*
D13*
X15640000Y5277500D03*
X13440000Y6377500D03*
X14540000Y6377500D03*
X15640000Y6377500D03*
%TD*%
D15*
%TO.P,J1,S1,SHIELD*%
%TO.N,GND*%
X6795000Y45450000D03*
D16*
X2615000Y45450000D03*
D15*
X6795000Y36810000D03*
D16*
X2615000Y36810000D03*
%TD*%
D17*
%TO.P,D6,1*%
%TO.N,Net-(U1-PD1_IN)*%
X13000000Y27910000D03*
%TO.P,D6,2*%
X14310000Y27910000D03*
%TO.P,D6,3*%
X15690000Y27910000D03*
%TO.P,D6,4*%
X17000000Y27910000D03*
%TO.P,D6,5*%
%TO.N,PD_GND*%
X17000000Y25530000D03*
%TO.P,D6,6*%
%TO.N,Net-(U1-PD1_IN)*%
X15690000Y25530000D03*
%TO.P,D6,7*%
X14310000Y25530000D03*
%TO.P,D6,8*%
X13000000Y25530000D03*
%TD*%
D18*
%TO.P,TP4,1,1*%
%TO.N,unconnected-(TP4-Pad1)*%
X2360000Y55080000D03*
%TD*%
D19*
%TO.P,D2,1,K*%
%TO.N,Net-(D2-K)*%
X15750000Y23425000D03*
D20*
X14700000Y22980000D03*
D19*
%TO.P,D2,2,A*%
%TO.N,+3.3V_LED*%
X15750000Y22535000D03*
%TD*%
%TO.P,D1,1,K*%
%TO.N,Net-(D1-K)*%
X15750000Y30895000D03*
D20*
X14700000Y30450000D03*
D19*
%TO.P,D1,2,A*%
%TO.N,+3.3V_LED*%
X15750000Y30005000D03*
%TD*%
D17*
%TO.P,D4,1*%
%TO.N,Net-(U1-PD2_IN)*%
X13000000Y20470000D03*
%TO.P,D4,2*%
X14310000Y20470000D03*
%TO.P,D4,3*%
X15690000Y20470000D03*
%TO.P,D4,4*%
X17000000Y20470000D03*
%TO.P,D4,5*%
%TO.N,PD_GND*%
X17000000Y18090000D03*
%TO.P,D4,6*%
%TO.N,Net-(U1-PD2_IN)*%
X15690000Y18090000D03*
%TO.P,D4,7*%
X14310000Y18090000D03*
%TO.P,D4,8*%
X13000000Y18090000D03*
%TD*%
D18*
%TO.P,TP3,1,1*%
%TO.N,unconnected-(TP3-Pad1)*%
X25440000Y3270000D03*
%TD*%
D19*
%TO.P,D3,1,K*%
%TO.N,Net-(D3-K)*%
X15750000Y16025000D03*
D20*
X14700000Y15580000D03*
D19*
%TO.P,D3,2,A*%
%TO.N,+3.3V_LED*%
X15750000Y15135000D03*
%TD*%
D21*
%TO.N,+3.3V*%
X4490000Y56960000D03*
X11530000Y11740000D03*
X13440000Y31000000D03*
X21430000Y30600000D03*
X3930000Y27290000D03*
X7260000Y34010000D03*
X25200000Y25470000D03*
X9330000Y30440000D03*
X26740000Y12850000D03*
X4660000Y53540000D03*
X1080000Y870000D03*
X13930000Y38936513D03*
%TO.N,GND*%
X2230000Y8400000D03*
X24185602Y33167021D03*
X11810000Y38770000D03*
X20320000Y6930000D03*
X9960000Y1481000D03*
X18111147Y32460553D03*
X2330000Y4980000D03*
X24921000Y29190000D03*
X10690000Y23400000D03*
X5070000Y1481000D03*
X12390000Y58630000D03*
X19160000Y39130000D03*
X28399000Y20190000D03*
X26900000Y58690000D03*
X4390000Y50550000D03*
X20730000Y37970000D03*
X2040000Y24940000D03*
X8270000Y32980000D03*
X11360000Y10360000D03*
X14740000Y24470000D03*
X18620000Y9000000D03*
X1570000Y27290000D03*
X21740000Y15580000D03*
X5165000Y8595000D03*
X27774265Y23555735D03*
X5365152Y29236194D03*
X17360000Y1181000D03*
X12079315Y31391131D03*
X11498045Y34132415D03*
X27870000Y39770000D03*
X10640000Y25610000D03*
X28020000Y19620000D03*
X3770000Y2100000D03*
X4430000Y58860000D03*
X24119000Y28420000D03*
X11840000Y36760000D03*
X8400000Y19510000D03*
X28399000Y12610000D03*
X5360000Y15280000D03*
X4410000Y34860000D03*
X19646949Y29413051D03*
X8100000Y54290000D03*
X25222000Y27130000D03*
X12280000Y7700000D03*
%TO.N,+1.8V*%
X13940000Y36760000D03*
X18321279Y31688641D03*
X23474000Y31790000D03*
%TO.N,VBUS*%
X12790000Y780000D03*
X8300000Y38730000D03*
X8450000Y43530000D03*
%TO.N,+BATT*%
X23150000Y8110000D03*
X16570000Y8990000D03*
%TO.N,Net-(U3-REGN)*%
X8100000Y2510000D03*
X19990000Y780000D03*
%TO.N,Vsys*%
X12420000Y9120000D03*
X7160000Y6160000D03*
X29199000Y26710000D03*
X5860000Y3830000D03*
%TO.N,SDA*%
X4420000Y32420000D03*
X17279527Y2689686D03*
X12290000Y49700000D03*
X9000000Y18850000D03*
%TO.N,SCL*%
X10040000Y17860000D03*
X11113955Y33430649D03*
X13085000Y48430000D03*
X16346615Y2694517D03*
%TO.N,Net-(U9-IO0)*%
X800000Y51440000D03*
X22230000Y57262000D03*
%TO.N,MAX_MOSI_1_8*%
X19246611Y37949490D03*
X16761405Y36792178D03*
%TO.N,MAX_SCLK_1_8*%
X15532987Y35658976D03*
X19503765Y37191946D03*
%TO.N,MAX_MISO_1_8*%
X19017074Y36513000D03*
X16090000Y36357185D03*
%TO.N,INT_BAT*%
X23295029Y16354971D03*
X24250000Y53870000D03*
%TO.N,CE_BAT*%
X17450000Y5020000D03*
X13690000Y43070000D03*
%TO.N,PSEL_BAT*%
X12530000Y2440000D03*
X12000000Y54780000D03*
%TO.N,GPS_JAM*%
X17720000Y47010000D03*
X22830000Y12660000D03*
%TO.N,ICM_FSYNC*%
X9530918Y33995347D03*
X12180000Y53530000D03*
%TO.N,GPS_REQ*%
X26670000Y49780000D03*
X25450000Y15110000D03*
%TO.N,GPS_TX*%
X14594265Y45960000D03*
X23260000Y17870000D03*
%TO.N,ICM_INT2*%
X8754971Y33786499D03*
X11970000Y51050000D03*
%TO.N,GPS_RST*%
X24119000Y25550000D03*
X24857363Y48424038D03*
%TO.N,ICM_INT*%
X9340784Y52283250D03*
X9326149Y40961899D03*
%TO.N,GPS_PP1*%
X26030000Y50900000D03*
X24477815Y15272185D03*
%TO.N,FLASH_SCLK*%
X20740000Y38900000D03*
X15530000Y42660000D03*
%TO.N,GPS_SEL*%
X26170000Y47000000D03*
X24622000Y26172085D03*
%TO.N,Net-(J4-Pin_3)*%
X26500000Y53510000D03*
%TO.N,GPS_RX*%
X13530000Y47160000D03*
X23290000Y18980000D03*
%TO.N,ICM_AD0*%
X26440000Y57310000D03*
X9710000Y40260000D03*
%TO.N,GPS_REF*%
X25430000Y52240000D03*
X23918083Y12040000D03*
%TO.N,Net-(J4-Pin_2)*%
X25560000Y54830000D03*
%TO.N,GPS_FIX*%
X28179000Y40690000D03*
X24760000Y12620000D03*
%TO.N,Net-(U1-PD2_IN)*%
X14060000Y21560000D03*
%TO.N,Net-(D2-K)*%
X13491469Y22967996D03*
%TO.N,Net-(D1-K)*%
X16530000Y31660000D03*
%TO.N,Net-(D3-K)*%
X16030000Y33100000D03*
X10841000Y15980000D03*
X13030000Y15660000D03*
%TO.N,Net-(U1-PD1_IN)*%
X18010000Y27950000D03*
%TO.N,PD_GND*%
X17630000Y13940000D03*
X17110000Y26780000D03*
%TO.N,FLASH_SID3*%
X13710000Y44660000D03*
X21740000Y36180000D03*
%TO.N,FLASH_SID1*%
X23980000Y42510000D03*
X24190000Y34958527D03*
%TO.N,+3.3V_LED*%
X15980000Y13470000D03*
X16460000Y15100000D03*
X16420000Y22520000D03*
X16509000Y30010000D03*
%TD*%
D22*
%TO.N,VBUS*%
X7490917Y35611000D02*
X1561000Y35611000D01*
X12741000Y731000D02*
X2319000Y731000D01*
X12790000Y780000D02*
X12741000Y731000D01*
X8300000Y38730000D02*
X8300000Y36420083D01*
X2319000Y731000D02*
X820000Y2230000D01*
X8450000Y43530000D02*
X8300000Y43380000D01*
X1561000Y35611000D02*
X820000Y34870000D01*
X8300000Y36420083D02*
X7490917Y35611000D01*
X820000Y2230000D02*
X820000Y34870000D01*
X8300000Y43380000D02*
X8300000Y38730000D01*
D23*
%TO.N,Net-(U3-REGN)*%
X8100000Y2510000D02*
X8530000Y2940000D01*
X13310000Y1400000D02*
X14129000Y581000D01*
X11174900Y1968000D02*
X11742900Y1400000D01*
X19791000Y581000D02*
X19990000Y780000D01*
X14129000Y581000D02*
X19791000Y581000D01*
X8530000Y2940000D02*
X10195800Y2940000D01*
X11742900Y1400000D02*
X13310000Y1400000D01*
X11167800Y1968000D02*
X11174900Y1968000D01*
X10195800Y2940000D02*
X11167800Y1968000D01*
D24*
%TO.N,Vsys*%
X29199000Y26710000D02*
X29199000Y10650000D01*
X28658000Y10109000D02*
X13409000Y10109000D01*
X29199000Y10650000D02*
X28658000Y10109000D01*
X13409000Y10109000D02*
X12400000Y9100000D01*
D23*
%TO.N,SDA*%
X9000000Y18850000D02*
X9000000Y18470000D01*
X11870000Y1840000D02*
X16429841Y1840000D01*
X12518000Y39910900D02*
X12519000Y39911900D01*
X10131918Y33746404D02*
X10131918Y34181918D01*
X9000000Y18470000D02*
X8980000Y18450000D01*
X12084000Y42248343D02*
X12084000Y49451043D01*
X11333900Y2369000D02*
X11341000Y2369000D01*
X8980000Y18450000D02*
X8980000Y4730000D01*
X12519000Y41813343D02*
X12084000Y42248343D01*
X8280000Y22080000D02*
X8280000Y31910000D01*
X12519000Y39911900D02*
X12519000Y41813343D01*
X9000000Y21360000D02*
X8280000Y22080000D01*
X12084000Y49451043D02*
X12290000Y49657043D01*
X9038000Y4672000D02*
X9038000Y4664900D01*
X12518000Y36568000D02*
X12518000Y39910900D01*
X16429841Y1840000D02*
X17279527Y2689686D01*
X8140000Y31770000D02*
X8280000Y31910000D01*
X8760000Y32390000D02*
X8775514Y32390000D01*
X11341000Y2369000D02*
X11870000Y1840000D01*
X9000000Y18850000D02*
X9000000Y21360000D01*
X8775514Y32390000D02*
X10131918Y33746404D01*
X12290000Y49657043D02*
X12290000Y49700000D01*
X9038000Y4664900D02*
X11333900Y2369000D01*
X8980000Y4730000D02*
X9038000Y4672000D01*
X10131918Y34181918D02*
X12518000Y36568000D01*
X4420000Y32420000D02*
X5070000Y31770000D01*
X8280000Y31910000D02*
X8760000Y32390000D01*
X5070000Y31770000D02*
X8140000Y31770000D01*
%TO.N,SCL*%
X10010000Y19265043D02*
X10010000Y18172843D01*
X12989000Y34769000D02*
X12989000Y35619000D01*
X10010000Y18172843D02*
X10120000Y18062843D01*
X9840000Y17660000D02*
X10040000Y17860000D01*
X11812900Y3060000D02*
X9840000Y5032900D01*
X13320000Y35950000D02*
X13320000Y39578700D01*
X13321000Y42145543D02*
X12886000Y42580543D01*
X10002000Y19265043D02*
X10010000Y19265043D01*
X9802000Y19465043D02*
X10002000Y19265043D01*
X9802000Y21692200D02*
X9802000Y19465043D01*
X12770000Y3060000D02*
X11812900Y3060000D01*
X10933918Y33414204D02*
X9960000Y32440286D01*
X10120000Y18062843D02*
X10120000Y17940000D01*
X12886000Y48040000D02*
X13276000Y48430000D01*
X12989000Y35619000D02*
X13320000Y35950000D01*
X13589000Y2241000D02*
X12770000Y3060000D01*
X9960000Y32440286D02*
X9960000Y30190000D01*
X10933918Y33430649D02*
X10933918Y33414204D01*
X11113955Y33430649D02*
X10933918Y33430649D01*
X10120000Y17940000D02*
X10040000Y17860000D01*
X9082000Y22412200D02*
X9802000Y21692200D01*
X13320000Y39578700D02*
X13321000Y39579700D01*
X12886000Y42580543D02*
X12886000Y48040000D01*
X15893098Y2241000D02*
X13589000Y2241000D01*
X9082000Y29312000D02*
X9082000Y22412200D01*
X13276000Y48430000D02*
X13085000Y48430000D01*
X13321000Y39579700D02*
X13321000Y42145543D01*
X9840000Y5032900D02*
X9840000Y17660000D01*
X11650649Y33430649D02*
X12989000Y34769000D01*
X11113955Y33430649D02*
X11650649Y33430649D01*
X16346615Y2694517D02*
X15893098Y2241000D01*
X9960000Y30190000D02*
X9082000Y29312000D01*
%TO.N,Net-(U9-IO0)*%
X22230000Y57262000D02*
X21582000Y57262000D01*
X21582000Y57262000D02*
X21383000Y57063000D01*
X6960000Y51440000D02*
X800000Y51440000D01*
X21383000Y57063000D02*
X11621700Y57063000D01*
X9678000Y54158000D02*
X6960000Y51440000D01*
X11621700Y57063000D02*
X9678000Y55119300D01*
X9678000Y55119300D02*
X9678000Y54158000D01*
D25*
%TO.N,MAX_MOSI_1_8*%
X15296471Y35087976D02*
X14961987Y35422460D01*
X16761405Y36792178D02*
X16761405Y36079878D01*
X15991000Y38121000D02*
X19075101Y38121000D01*
X14961987Y35422460D02*
X14961987Y37091987D01*
X16761405Y36079878D02*
X15769503Y35087976D01*
X14961987Y37091987D02*
X15991000Y38121000D01*
X15769503Y35087976D02*
X15296471Y35087976D01*
X19075101Y38121000D02*
X19246611Y37949490D01*
%TO.N,MAX_SCLK_1_8*%
X15520000Y37050000D02*
X15520000Y35671963D01*
X16250000Y37780000D02*
X15520000Y37050000D01*
X19491819Y37180000D02*
X19210000Y37180000D01*
X15520000Y35671963D02*
X15532987Y35658976D01*
X19503765Y37191946D02*
X19491819Y37180000D01*
X18610000Y37780000D02*
X16250000Y37780000D01*
X19210000Y37180000D02*
X18610000Y37780000D01*
%TO.N,MAX_MISO_1_8*%
X19017074Y36513000D02*
X19017074Y36872926D01*
X16090000Y37137754D02*
X16090000Y36357185D01*
X16392246Y37440000D02*
X16090000Y37137754D01*
X18450000Y37440000D02*
X16392246Y37440000D01*
X19017074Y36872926D02*
X18450000Y37440000D01*
D23*
%TO.N,INT_BAT*%
X25277000Y31624156D02*
X25993000Y32340156D01*
X23898085Y16675185D02*
X24821000Y17598100D01*
X23576458Y16354971D02*
X23896672Y16675185D01*
X24821000Y23939000D02*
X23519000Y25241000D01*
X23519000Y28749000D02*
X25277000Y30507000D01*
X25993000Y32340156D02*
X25993000Y45509900D01*
X23295029Y16354971D02*
X23576458Y16354971D01*
X24250000Y47252900D02*
X24250000Y53870000D01*
X24821000Y17598100D02*
X24821000Y23939000D01*
X25993000Y45509900D02*
X24250000Y47252900D01*
X23518000Y25798943D02*
X23519000Y25799943D01*
X23519000Y25300057D02*
X23518000Y25301057D01*
X23519000Y25241000D02*
X23519000Y25300057D01*
X23518000Y25301057D02*
X23518000Y25798943D01*
X23519000Y25799943D02*
X23519000Y28749000D01*
X25277000Y30507000D02*
X25277000Y31624156D01*
X23896672Y16675185D02*
X23898085Y16675185D01*
%TO.N,CE_BAT*%
X13390000Y34600000D02*
X13390000Y35270000D01*
X11570000Y32780000D02*
X13390000Y34600000D01*
X16905517Y3295517D02*
X16097672Y3295517D01*
X10241000Y17211057D02*
X10641000Y17611057D01*
X10361000Y32274186D02*
X10866814Y32780000D01*
X10641000Y18108943D02*
X10411000Y18338943D01*
X15462000Y2642000D02*
X13755100Y2642000D01*
X11979000Y3461000D02*
X10241000Y5199000D01*
X10203000Y19639143D02*
X10203000Y21858300D01*
X15745615Y2943460D02*
X15745615Y2925615D01*
X14570000Y36450000D02*
X14570000Y39510000D01*
X13721000Y42312643D02*
X13721000Y42881000D01*
X13390000Y35270000D02*
X14570000Y36450000D01*
X9483000Y29145900D02*
X10361000Y30023900D01*
X14570000Y39510000D02*
X13722000Y40358000D01*
X17450000Y5020000D02*
X17450000Y3840000D01*
X10411000Y19431143D02*
X10203000Y19639143D01*
X17450000Y3840000D02*
X16905517Y3295517D01*
X12936100Y3461000D02*
X11979000Y3461000D01*
X10411000Y18338943D02*
X10411000Y19431143D01*
X15745615Y2925615D02*
X15462000Y2642000D01*
X13755100Y2642000D02*
X12936100Y3461000D01*
X10241000Y5199000D02*
X10241000Y17211057D01*
X10641000Y17611057D02*
X10641000Y18108943D01*
X10866814Y32780000D02*
X11570000Y32780000D01*
X13690000Y42912000D02*
X13690000Y43070000D01*
X10203000Y21858300D02*
X9483000Y22578300D01*
X13722000Y42311643D02*
X13721000Y42312643D01*
X9483000Y22578300D02*
X9483000Y29145900D01*
X13721000Y42881000D02*
X13690000Y42912000D01*
X10361000Y30023900D02*
X10361000Y32274186D01*
X13722000Y40358000D02*
X13722000Y42311643D01*
X16097672Y3295517D02*
X15745615Y2943460D01*
%TO.N,PSEL_BAT*%
X12485000Y48785000D02*
X12972000Y49272000D01*
X9401000Y21526100D02*
X8681000Y22246100D01*
X12530000Y2440000D02*
X11837100Y2440000D01*
X10532918Y33580304D02*
X10532918Y34015818D01*
X12972000Y49272000D02*
X12972000Y53808000D01*
X8681000Y31728386D02*
X10532918Y33580304D01*
X12919000Y39744800D02*
X12920000Y39745800D01*
X9401000Y19298943D02*
X9401000Y21526100D01*
X11837100Y2440000D02*
X11507100Y2770000D01*
X9439000Y18108943D02*
X9440000Y18109943D01*
X9601000Y19098943D02*
X9401000Y19298943D01*
X12972000Y53808000D02*
X12000000Y54780000D01*
X12920000Y39745800D02*
X12920000Y41979443D01*
X8681000Y22246100D02*
X8681000Y31728386D01*
X9440000Y18440057D02*
X9601000Y18601057D01*
X9439000Y4831000D02*
X9439000Y18108943D01*
X12920000Y41979443D02*
X12485000Y42414443D01*
X9601000Y18601057D02*
X9601000Y19098943D01*
X11500000Y2770000D02*
X9439000Y4831000D01*
X12919000Y36401900D02*
X12919000Y39744800D01*
X10532918Y34015818D02*
X12919000Y36401900D01*
X11507100Y2770000D02*
X11500000Y2770000D01*
X9440000Y18109943D02*
X9440000Y18440057D01*
X12485000Y42414443D02*
X12485000Y48785000D01*
%TO.N,GPS_JAM*%
X23118000Y28915100D02*
X24876000Y30673100D01*
X23654387Y17000000D02*
X23730572Y17076185D01*
X23118000Y25133957D02*
X23117000Y25134957D01*
X22470000Y15530000D02*
X22470000Y16379885D01*
X23117000Y25965043D02*
X23118000Y25966043D01*
X23118000Y25966043D02*
X23118000Y28915100D01*
X25592000Y32506256D02*
X25592000Y45343800D01*
X23731985Y17076185D02*
X24420000Y17764200D01*
X23090115Y17000000D02*
X23654387Y17000000D01*
X23730572Y17076185D02*
X23731985Y17076185D01*
X23117000Y25134957D02*
X23117000Y25965043D01*
X23118000Y25074900D02*
X23118000Y25133957D01*
X22470000Y16379885D02*
X23090115Y17000000D01*
X24876000Y30673100D02*
X24876000Y31790256D01*
X24420000Y17764200D02*
X24420000Y23772900D01*
X22830000Y12660000D02*
X22830000Y15170000D01*
X22830000Y15170000D02*
X22470000Y15530000D01*
X24420000Y23772900D02*
X23118000Y25074900D01*
X25592000Y45343800D02*
X23925800Y47010000D01*
X24876000Y31790256D02*
X25592000Y32506256D01*
X23925800Y47010000D02*
X17720000Y47010000D01*
%TO.N,ICM_FSYNC*%
X11180000Y35925858D02*
X11180000Y39140000D01*
X12118000Y40078000D02*
X12118000Y41647243D01*
X9530918Y34276776D02*
X11180000Y35925858D01*
X12070943Y50301000D02*
X12571000Y50801057D01*
X11683000Y49913057D02*
X11689000Y49919057D01*
X12041057Y50301000D02*
X12070943Y50301000D01*
X9530918Y33995347D02*
X9530918Y34276776D01*
X12571000Y53022470D02*
X12180000Y53413470D01*
X11180000Y39140000D02*
X12118000Y40078000D01*
X11689000Y49919057D02*
X11689000Y49948943D01*
X12180000Y53413470D02*
X12180000Y53530000D01*
X11689000Y49948943D02*
X12041057Y50301000D01*
X12571000Y50801057D02*
X12571000Y53022470D01*
X11683000Y42082243D02*
X11683000Y49913057D01*
X12118000Y41647243D02*
X11683000Y42082243D01*
%TO.N,GPS_REQ*%
X28272000Y46942257D02*
X26670000Y48544257D01*
X27683000Y28237500D02*
X27683000Y30535800D01*
X25450000Y15110000D02*
X25450000Y15682900D01*
X27683000Y30535800D02*
X28383000Y31235800D01*
X27004000Y26242700D02*
X27026000Y26264700D01*
X28399000Y31343556D02*
X28399000Y38124800D01*
X28383000Y31235800D02*
X28383000Y31327556D01*
X26670000Y48544257D02*
X26670000Y49780000D01*
X27026000Y26264700D02*
X27026000Y27580500D01*
X28399000Y38124800D02*
X29399000Y39124800D01*
X28383000Y31327556D02*
X28399000Y31343556D01*
X26425000Y24093700D02*
X27004000Y24672700D01*
X26425000Y16657900D02*
X26425000Y24093700D01*
X29399000Y39124800D02*
X29399000Y41208100D01*
X28272000Y42335100D02*
X28272000Y46942257D01*
X25450000Y15682900D02*
X26425000Y16657900D01*
X27026000Y27580500D02*
X27683000Y28237500D01*
X29399000Y41208100D02*
X28272000Y42335100D01*
X27004000Y24672700D02*
X27004000Y26242700D01*
%TO.N,GPS_TX*%
X14654265Y46020000D02*
X14594265Y45960000D01*
X22717000Y24908800D02*
X22717000Y24967857D01*
X24475000Y31956356D02*
X25191000Y32672356D01*
X23550000Y17870000D02*
X24019000Y18339000D01*
X18168943Y46609000D02*
X17579943Y46020000D01*
X25191000Y32672356D02*
X25191000Y45177700D01*
X24475000Y30839200D02*
X24475000Y31956356D01*
X25191000Y45177700D02*
X23759700Y46609000D01*
X22717000Y26132143D02*
X22717000Y29081200D01*
X23260000Y17870000D02*
X23550000Y17870000D01*
X22717000Y29081200D02*
X24475000Y30839200D01*
X22716000Y24968857D02*
X22716000Y26131143D01*
X23759700Y46609000D02*
X18168943Y46609000D01*
X22716000Y26131143D02*
X22717000Y26132143D01*
X22717000Y24967857D02*
X22716000Y24968857D01*
X24019000Y23606800D02*
X22717000Y24908800D01*
X24019000Y18339000D02*
X24019000Y23606800D01*
X17579943Y46020000D02*
X14654265Y46020000D01*
%TO.N,ICM_INT2*%
X8754971Y34067929D02*
X10779000Y36091958D01*
X11282000Y41916143D02*
X11282000Y50362000D01*
X10779000Y39306100D02*
X11717000Y40244100D01*
X8754971Y33786499D02*
X8754971Y34067929D01*
X11717000Y40244100D02*
X11717000Y41481143D01*
X10779000Y36091958D02*
X10779000Y39306100D01*
X11717000Y41481143D02*
X11282000Y41916143D01*
X11282000Y50362000D02*
X11970000Y51050000D01*
%TO.N,GPS_RST*%
X23920000Y25749000D02*
X23920000Y27310000D01*
X24857363Y47212637D02*
X24857363Y48424038D01*
X25678000Y31458056D02*
X26394000Y32174056D01*
X23920000Y27310000D02*
X25678000Y29068000D01*
X26394000Y45676000D02*
X24857363Y47212637D01*
X24119000Y25550000D02*
X23920000Y25749000D01*
X26394000Y32174056D02*
X26394000Y45676000D01*
X25678000Y29068000D02*
X25678000Y31458056D01*
%TO.N,ICM_INT*%
X9360000Y52264034D02*
X9340784Y52283250D01*
X9184034Y52264034D02*
X9360000Y52264034D01*
X9678000Y51770068D02*
X9184034Y52264034D01*
X9678000Y41313750D02*
X9678000Y51770068D01*
X9326149Y40961899D02*
X9678000Y41313750D01*
%TO.N,GPS_PP1*%
X26024000Y16824000D02*
X26024000Y24259800D01*
X27982000Y31401900D02*
X27982000Y31493656D01*
X28970000Y41070000D02*
X27871000Y42169000D01*
X27871000Y42169000D02*
X27871000Y46776157D01*
X24477815Y15277815D02*
X26024000Y16824000D01*
X27998000Y31509656D02*
X27998000Y38290900D01*
X26603000Y24838800D02*
X26603000Y26408800D01*
X24477815Y15272185D02*
X24477815Y15277815D01*
X26030000Y48617157D02*
X26030000Y50900000D01*
X27282000Y28403600D02*
X27282000Y30701900D01*
X27282000Y30701900D02*
X27982000Y31401900D01*
X26024000Y24259800D02*
X26603000Y24838800D01*
X26603000Y26408800D02*
X26625000Y26430800D01*
X27998000Y38290900D02*
X28970000Y39262900D01*
X28970000Y39262900D02*
X28970000Y41070000D01*
X27871000Y46776157D02*
X26030000Y48617157D01*
X27982000Y31493656D02*
X27998000Y31509656D01*
X26625000Y27746600D02*
X27282000Y28403600D01*
X26625000Y26430800D02*
X26625000Y27746600D01*
%TO.N,FLASH_SCLK*%
X20740000Y38900000D02*
X20740000Y41690000D01*
X20740000Y41690000D02*
X20400000Y42030000D01*
X20400000Y42030000D02*
X19770000Y42660000D01*
X19770000Y42660000D02*
X15530000Y42660000D01*
%TO.N,GPS_SEL*%
X26795000Y32007956D02*
X26795000Y45842100D01*
X26530000Y31742956D02*
X26795000Y32007956D01*
X26079000Y28901900D02*
X26079000Y31200200D01*
X24622000Y26172085D02*
X24622000Y27444900D01*
X26079000Y31200200D02*
X26530000Y31651200D01*
X26120000Y46950000D02*
X26170000Y47000000D01*
X26120000Y46517100D02*
X26120000Y46950000D01*
X26530000Y31651200D02*
X26530000Y31742956D01*
X26795000Y45842100D02*
X26120000Y46517100D01*
X24622000Y27444900D02*
X26079000Y28901900D01*
%TO.N,Net-(J4-Pin_3)*%
X10480000Y54787100D02*
X11953900Y56261000D01*
X10915000Y40576300D02*
X10915000Y41148943D01*
X3195000Y33235000D02*
X3637450Y33677450D01*
X1940000Y33235000D02*
X3195000Y33235000D01*
X9977000Y39638300D02*
X10915000Y40576300D01*
X10915000Y41148943D02*
X10480000Y41583943D01*
X26500000Y55030000D02*
X26500000Y53510000D01*
X25269000Y56261000D02*
X26500000Y55030000D01*
X9977000Y36424158D02*
X9977000Y39638300D01*
X11953900Y56261000D02*
X25269000Y56261000D01*
X3637450Y33677450D02*
X5537450Y33677450D01*
X8462842Y34910000D02*
X9977000Y36424158D01*
X5537450Y33677450D02*
X6770000Y34910000D01*
X6770000Y34910000D02*
X8462842Y34910000D01*
X10480000Y41583943D02*
X10480000Y54787100D01*
%TO.N,GPS_RX*%
X22300000Y29231300D02*
X24074000Y31005300D01*
X24790000Y45011600D02*
X23593600Y46208000D01*
X24790000Y32838456D02*
X24790000Y45011600D01*
X23290000Y18980000D02*
X23618000Y19308000D01*
X23618000Y19308000D02*
X23618000Y23440700D01*
X18335043Y46208000D02*
X17487042Y45360000D01*
X24074000Y32122456D02*
X24790000Y32838456D01*
X14843208Y45359000D02*
X14345322Y45359000D01*
X17487042Y45360000D02*
X14844208Y45360000D01*
X24074000Y31005300D02*
X24074000Y32122456D01*
X14330000Y45360000D02*
X13530000Y46160000D01*
X23593600Y46208000D02*
X18335043Y46208000D01*
X14345322Y45359000D02*
X14344322Y45360000D01*
X14844208Y45360000D02*
X14843208Y45359000D01*
X14344322Y45360000D02*
X14330000Y45360000D01*
X13530000Y46160000D02*
X13530000Y47160000D01*
X22300000Y24758700D02*
X22300000Y29231300D01*
X23618000Y23440700D02*
X22300000Y24758700D01*
%TO.N,ICM_AD0*%
X9710000Y40260000D02*
X10079000Y40629000D01*
X11787800Y56662000D02*
X25812000Y56662000D01*
X26440000Y57290000D02*
X26440000Y57310000D01*
X10079000Y40629000D02*
X10079000Y54953200D01*
X25812000Y56662000D02*
X26440000Y57290000D01*
X10079000Y54953200D02*
X11787800Y56662000D01*
%TO.N,GPS_REF*%
X27180000Y31734100D02*
X27180000Y31825856D01*
X27180000Y46024200D02*
X27180000Y46900057D01*
X27180000Y46900057D02*
X25400000Y48680057D01*
X25801000Y26741000D02*
X25823000Y26763000D01*
X25801000Y25171000D02*
X25801000Y26741000D01*
X24062772Y16274185D02*
X24064185Y16274185D01*
X24064185Y16274185D02*
X25222000Y17432000D01*
X25400000Y48680057D02*
X25400000Y52070000D01*
X25222000Y17432000D02*
X25222000Y24592000D01*
X25222000Y24592000D02*
X25801000Y25171000D01*
X27196000Y31841856D02*
X27196000Y46008200D01*
X23430000Y12528083D02*
X23430000Y15641413D01*
X25430000Y52100000D02*
X25430000Y52240000D01*
X26480000Y28735800D02*
X26480000Y31034100D01*
X25823000Y28078800D02*
X26480000Y28735800D01*
X23918083Y12040000D02*
X23430000Y12528083D01*
X25823000Y26763000D02*
X25823000Y28078800D01*
X26480000Y31034100D02*
X27180000Y31734100D01*
X23430000Y15641413D02*
X24062772Y16274185D01*
X27196000Y46008200D02*
X27180000Y46024200D01*
X27180000Y31825856D02*
X27196000Y31841856D01*
X25400000Y52070000D02*
X25430000Y52100000D01*
%TO.N,Net-(J4-Pin_2)*%
X24530000Y55860000D02*
X25560000Y54830000D01*
X10881000Y41750043D02*
X10881000Y54621000D01*
X2774000Y32834000D02*
X3361100Y32834000D01*
X7396392Y33276450D02*
X10378000Y36258058D01*
X11316000Y41315043D02*
X10881000Y41750043D01*
X1940000Y31965000D02*
X1940000Y32000000D01*
X12120000Y55860000D02*
X24530000Y55860000D01*
X11316000Y40410200D02*
X11316000Y41315043D01*
X3803550Y33276450D02*
X7396392Y33276450D01*
X10378000Y36258058D02*
X10378000Y39472200D01*
X3361100Y32834000D02*
X3803550Y33276450D01*
X10881000Y54621000D02*
X12120000Y55860000D01*
X1940000Y32000000D02*
X2774000Y32834000D01*
X10378000Y39472200D02*
X11316000Y40410200D01*
%TO.N,GPS_FIX*%
X24273488Y12620000D02*
X23831000Y13062488D01*
X23831000Y13062488D02*
X23831000Y15475313D01*
X28470000Y39330000D02*
X28470000Y40650000D01*
X26202000Y26574900D02*
X26224000Y26596900D01*
X26881000Y30868000D02*
X27581000Y31568000D01*
X27597000Y31675756D02*
X27597000Y38457000D01*
X25623000Y17265900D02*
X25623000Y24425900D01*
X24228872Y15873185D02*
X24230285Y15873185D01*
X26202000Y25004900D02*
X26202000Y26574900D01*
X28219000Y40650000D02*
X28179000Y40690000D01*
X24230285Y15873185D02*
X25623000Y17265900D01*
X26224000Y26596900D02*
X26224000Y27912700D01*
X25623000Y24425900D02*
X26202000Y25004900D01*
X23831000Y15475313D02*
X24228872Y15873185D01*
X26224000Y27912700D02*
X26881000Y28569700D01*
X28470000Y40650000D02*
X28219000Y40650000D01*
X27597000Y38457000D02*
X28470000Y39330000D01*
X27581000Y31568000D02*
X27581000Y31659756D01*
X24760000Y12620000D02*
X24273488Y12620000D01*
X26881000Y28569700D02*
X26881000Y30868000D01*
X27581000Y31659756D02*
X27597000Y31675756D01*
%TO.N,Net-(U1-PD2_IN)*%
X15690000Y20470000D02*
X14310000Y20470000D01*
X15690000Y18090000D02*
X14310000Y18090000D01*
D25*
X14310000Y20470000D02*
X14310000Y21310000D01*
X14310000Y21310000D02*
X14060000Y21560000D01*
D23*
X17000000Y20470000D02*
X15690000Y20470000D01*
X14310000Y20470000D02*
X13000000Y20470000D01*
X13000000Y20470000D02*
X13000000Y18090000D01*
X14310000Y18090000D02*
X13000000Y18090000D01*
D25*
X15540000Y20620000D02*
X15690000Y20470000D01*
X14470000Y20470000D02*
X14310000Y20470000D01*
D23*
%TO.N,Net-(D2-K)*%
X15750000Y23425000D02*
X15145000Y23425000D01*
D25*
X13503473Y22980000D02*
X14700000Y22980000D01*
D23*
X15145000Y23425000D02*
X14700000Y22980000D01*
D25*
X13491469Y22967996D02*
X13503473Y22980000D01*
%TO.N,Net-(D1-K)*%
X15975000Y31120000D02*
X15750000Y30895000D01*
D23*
X15750000Y30895000D02*
X15145000Y30895000D01*
X15145000Y30895000D02*
X14700000Y30450000D01*
D25*
X16530000Y31660000D02*
X15990000Y31120000D01*
X15990000Y31120000D02*
X15975000Y31120000D01*
%TO.N,Net-(D3-K)*%
X10782000Y18492617D02*
X11012000Y18262616D01*
X10739673Y32128185D02*
X10739673Y29877900D01*
D23*
X14700000Y15580000D02*
X13110000Y15580000D01*
D25*
X10782000Y17227383D02*
X10782000Y16039000D01*
X9854000Y26760000D02*
X9854000Y27752013D01*
X11020488Y32409000D02*
X10739673Y32128185D01*
X11012000Y18262616D02*
X11012000Y17457383D01*
X15840000Y33290000D02*
X12604674Y33290000D01*
X10739673Y29877900D02*
X9854000Y28992226D01*
X9854000Y26760000D02*
X9854000Y22731974D01*
X10782000Y19622000D02*
X10782000Y18492617D01*
X12604674Y33290000D02*
X11723673Y32409000D01*
X11012000Y17457383D02*
X10782000Y17227383D01*
X11723673Y32409000D02*
X11020488Y32409000D01*
D23*
X15750000Y16025000D02*
X15145000Y16025000D01*
X10841000Y15980000D02*
X10820000Y16001000D01*
D25*
X10782000Y16039000D02*
X10841000Y15980000D01*
X9854000Y28992226D02*
X9854000Y26760000D01*
X9854000Y22731974D02*
X10574000Y22011973D01*
X16030000Y33100000D02*
X15840000Y33290000D01*
X10574000Y22011973D02*
X10574000Y19830000D01*
X10574000Y19830000D02*
X10782000Y19622000D01*
D23*
X15145000Y16025000D02*
X14700000Y15580000D01*
X13110000Y15580000D02*
X13030000Y15660000D01*
D25*
%TO.N,Net-(U1-PD1_IN)*%
X18010000Y27950000D02*
X18000000Y27940000D01*
D23*
X14310000Y25530000D02*
X13000000Y25530000D01*
X13000000Y27910000D02*
X13000000Y25530000D01*
X15690000Y27910000D02*
X14310000Y27910000D01*
D25*
X17030000Y27940000D02*
X17000000Y27910000D01*
X18000000Y27940000D02*
X17030000Y27940000D01*
D23*
X17000000Y27910000D02*
X15690000Y27910000D01*
X15690000Y25530000D02*
X14310000Y25530000D01*
X14310000Y27910000D02*
X13000000Y27910000D01*
%TO.N,FLASH_SID3*%
X13710000Y44660000D02*
X13810000Y44560000D01*
X21440000Y36480000D02*
X21740000Y36180000D01*
X21440000Y43140000D02*
X21440000Y36480000D01*
X20020000Y44560000D02*
X21440000Y43140000D01*
X13810000Y44560000D02*
X20020000Y44560000D01*
%TO.N,FLASH_SID1*%
X24190000Y42300000D02*
X23980000Y42510000D01*
X24190000Y34958527D02*
X24190000Y42300000D01*
%TO.N,+3.3V_LED*%
X16504000Y30005000D02*
X16509000Y30010000D01*
X15785000Y15100000D02*
X15750000Y15135000D01*
X15750000Y30005000D02*
X16504000Y30005000D01*
X16460000Y15100000D02*
X15785000Y15100000D01*
X16420000Y22520000D02*
X15765000Y22520000D01*
X15765000Y22520000D02*
X15750000Y22535000D01*
%TD*%
%TA.AperFunction,Conductor*%
%TO.N,GND*%
G36*
X29418834Y38192885D02*
G01*
X29474767Y38151013D01*
X29499184Y38085549D01*
X29499500Y38076703D01*
X29499500Y27617505D01*
X29479815Y27550466D01*
X29427011Y27504711D01*
X29357853Y27494767D01*
X29351310Y27495887D01*
X29277842Y27510500D01*
X29120158Y27510500D01*
X29120155Y27510500D01*
X28965510Y27479739D01*
X28965498Y27479736D01*
X28819827Y27419398D01*
X28819814Y27419391D01*
X28688711Y27331790D01*
X28688707Y27331787D01*
X28577213Y27220293D01*
X28577210Y27220289D01*
X28489609Y27089186D01*
X28489602Y27089173D01*
X28429264Y26943502D01*
X28429261Y26943490D01*
X28398500Y26788847D01*
X28398500Y11033500D01*
X28378815Y10966461D01*
X28326011Y10920706D01*
X28274500Y10909500D01*
X13330154Y10909500D01*
X13175509Y10878739D01*
X13175497Y10878736D01*
X13132832Y10861064D01*
X13132833Y10861063D01*
X13029823Y10818396D01*
X13029814Y10818391D01*
X12898712Y10730791D01*
X12898710Y10730788D01*
X11778213Y9610293D01*
X11778210Y9610289D01*
X11690609Y9479186D01*
X11690602Y9479173D01*
X11630264Y9333502D01*
X11630261Y9333490D01*
X11599500Y9178847D01*
X11599500Y9021154D01*
X11630261Y8866511D01*
X11630264Y8866499D01*
X11690602Y8720828D01*
X11690609Y8720815D01*
X11778210Y8589712D01*
X11778213Y8589708D01*
X11889707Y8478214D01*
X11889711Y8478211D01*
X12020814Y8390610D01*
X12020827Y8390603D01*
X12134541Y8343502D01*
X12166503Y8330263D01*
X12321153Y8299501D01*
X12321156Y8299500D01*
X12321158Y8299500D01*
X12478844Y8299500D01*
X12478845Y8299501D01*
X12633497Y8330263D01*
X12779179Y8390606D01*
X12910289Y8478211D01*
X13704259Y9272181D01*
X13765582Y9305666D01*
X13791940Y9308500D01*
X15666076Y9308500D01*
X15733115Y9288815D01*
X15778870Y9236011D01*
X15788814Y9166853D01*
X15787693Y9160309D01*
X15769500Y9068847D01*
X15769500Y8911154D01*
X15800261Y8756511D01*
X15800264Y8756499D01*
X15860602Y8610828D01*
X15860609Y8610815D01*
X15948210Y8479712D01*
X15948213Y8479708D01*
X16059707Y8368214D01*
X16059711Y8368211D01*
X16190814Y8280610D01*
X16190827Y8280603D01*
X16336498Y8220265D01*
X16336503Y8220263D01*
X16491153Y8189501D01*
X16491156Y8189500D01*
X16491158Y8189500D01*
X16648844Y8189500D01*
X16648845Y8189501D01*
X16803497Y8220263D01*
X16949179Y8280606D01*
X16949186Y8280612D01*
X16949190Y8280613D01*
X16975262Y8298034D01*
X16975266Y8298036D01*
X17043309Y8343502D01*
X17080289Y8368211D01*
X17191789Y8479711D01*
X17279394Y8610821D01*
X17339737Y8756503D01*
X17370500Y8911158D01*
X17370500Y9068842D01*
X17370500Y9068845D01*
X17370499Y9068847D01*
X17352307Y9160309D01*
X17358534Y9229901D01*
X17401397Y9285078D01*
X17467287Y9308322D01*
X17473924Y9308500D01*
X28736844Y9308500D01*
X28736845Y9308501D01*
X28891497Y9339263D01*
X29037179Y9399606D01*
X29168289Y9487211D01*
X29287820Y9606743D01*
X29349141Y9640226D01*
X29418833Y9635242D01*
X29474767Y9593371D01*
X29499184Y9527907D01*
X29499500Y9519060D01*
X29499500Y604500D01*
X29479815Y537461D01*
X29427011Y491706D01*
X29375500Y480500D01*
X20897703Y480500D01*
X20830664Y500185D01*
X20784909Y552989D01*
X20774965Y622147D01*
X20776086Y628691D01*
X20790499Y701154D01*
X20790500Y701156D01*
X20790500Y858845D01*
X20790499Y858847D01*
X20759738Y1013490D01*
X20759737Y1013497D01*
X20759735Y1013502D01*
X20699397Y1159173D01*
X20699390Y1159186D01*
X20611789Y1290289D01*
X20611786Y1290293D01*
X20500292Y1401787D01*
X20500288Y1401790D01*
X20369185Y1489391D01*
X20369172Y1489398D01*
X20223501Y1549736D01*
X20223489Y1549739D01*
X20068845Y1580500D01*
X20068842Y1580500D01*
X19911158Y1580500D01*
X19911155Y1580500D01*
X19756510Y1549739D01*
X19756498Y1549736D01*
X19610827Y1489398D01*
X19610814Y1489391D01*
X19479711Y1401790D01*
X19479707Y1401787D01*
X19368210Y1290290D01*
X19332343Y1236609D01*
X19278731Y1191804D01*
X19229241Y1181500D01*
X16919939Y1181500D01*
X16898696Y1187738D01*
X16876607Y1189317D01*
X16865821Y1197391D01*
X16852900Y1201185D01*
X16838402Y1217917D01*
X16820673Y1231188D01*
X16815964Y1243811D01*
X16807145Y1253989D01*
X16803993Y1275905D01*
X16796255Y1296652D01*
X16799118Y1309815D01*
X16797201Y1323147D01*
X16806399Y1343290D01*
X16811106Y1364925D01*
X16824375Y1382652D01*
X16826226Y1386703D01*
X16832242Y1393166D01*
X16910361Y1471284D01*
X16910362Y1471287D01*
X17294189Y1855114D01*
X17355510Y1888597D01*
X17357677Y1889048D01*
X17415612Y1900573D01*
X17513024Y1919949D01*
X17658706Y1980292D01*
X17789816Y2067897D01*
X17901316Y2179397D01*
X17988921Y2310507D01*
X17992777Y2319815D01*
X18002594Y2343520D01*
X18049264Y2456189D01*
X18080027Y2610844D01*
X18080027Y2768528D01*
X18080027Y2768531D01*
X18080026Y2768533D01*
X18049264Y2923183D01*
X18026490Y2978165D01*
X17988924Y3068859D01*
X17988917Y3068872D01*
X17920371Y3171457D01*
X24439499Y3171457D01*
X24477947Y2978171D01*
X24477950Y2978161D01*
X24553364Y2796093D01*
X24553371Y2796080D01*
X24662860Y2632219D01*
X24662863Y2632215D01*
X24802214Y2492864D01*
X24802218Y2492861D01*
X24966079Y2383372D01*
X24966092Y2383365D01*
X25125454Y2317356D01*
X25148165Y2307949D01*
X25148169Y2307949D01*
X25148170Y2307948D01*
X25341456Y2269500D01*
X25341459Y2269500D01*
X25538543Y2269500D01*
X25668582Y2295368D01*
X25731835Y2307949D01*
X25913914Y2383368D01*
X26077782Y2492861D01*
X26217139Y2632218D01*
X26326632Y2796086D01*
X26402051Y2978165D01*
X26418381Y3060262D01*
X26440500Y3171457D01*
X26440500Y3368544D01*
X26402052Y3561830D01*
X26402051Y3561831D01*
X26402051Y3561835D01*
X26387691Y3596503D01*
X26326635Y3743908D01*
X26326628Y3743921D01*
X26217139Y3907782D01*
X26217136Y3907786D01*
X26077785Y4047137D01*
X26077781Y4047140D01*
X25913920Y4156629D01*
X25913907Y4156636D01*
X25731839Y4232050D01*
X25731829Y4232053D01*
X25538543Y4270500D01*
X25538541Y4270500D01*
X25341459Y4270500D01*
X25341457Y4270500D01*
X25148170Y4232053D01*
X25148160Y4232050D01*
X24966092Y4156636D01*
X24966079Y4156629D01*
X24802218Y4047140D01*
X24802214Y4047137D01*
X24662863Y3907786D01*
X24662860Y3907782D01*
X24553371Y3743921D01*
X24553364Y3743908D01*
X24477950Y3561840D01*
X24477947Y3561830D01*
X24439500Y3368544D01*
X24439500Y3368541D01*
X24439500Y3171459D01*
X24439500Y3171457D01*
X24439499Y3171457D01*
X17920371Y3171457D01*
X17901316Y3199975D01*
X17901313Y3199979D01*
X17867945Y3233346D01*
X17863606Y3241292D01*
X17856357Y3246718D01*
X17847122Y3271478D01*
X17834459Y3294668D01*
X17835104Y3303700D01*
X17831941Y3312183D01*
X17837558Y3338005D01*
X17839443Y3364360D01*
X17845260Y3373413D01*
X17846793Y3380456D01*
X17867942Y3408707D01*
X17930520Y3471284D01*
X18002815Y3596503D01*
X18009577Y3608215D01*
X18050500Y3760942D01*
X18050500Y3919057D01*
X18050500Y4440235D01*
X18070185Y4507274D01*
X18071398Y4509126D01*
X18091621Y4539391D01*
X18159394Y4640821D01*
X18219737Y4786503D01*
X18250500Y4941158D01*
X18250500Y5098842D01*
X18250500Y5098845D01*
X18250499Y5098847D01*
X18234854Y5177500D01*
X18219737Y5253497D01*
X18186332Y5334145D01*
X18159397Y5399173D01*
X18159390Y5399186D01*
X18071789Y5530289D01*
X18071786Y5530293D01*
X17960292Y5641787D01*
X17960288Y5641790D01*
X17829185Y5729391D01*
X17829172Y5729398D01*
X17683501Y5789736D01*
X17683489Y5789739D01*
X17528845Y5820500D01*
X17528842Y5820500D01*
X17371158Y5820500D01*
X17371155Y5820500D01*
X17216510Y5789739D01*
X17216498Y5789736D01*
X17070827Y5729398D01*
X17070814Y5729391D01*
X16939711Y5641790D01*
X16939707Y5641787D01*
X16828213Y5530293D01*
X16828210Y5530289D01*
X16740609Y5399186D01*
X16740602Y5399173D01*
X16680264Y5253502D01*
X16680261Y5253490D01*
X16649500Y5098847D01*
X16649500Y4941154D01*
X16680261Y4786511D01*
X16680264Y4786499D01*
X16740602Y4640828D01*
X16740609Y4640815D01*
X16828602Y4509126D01*
X16849480Y4442449D01*
X16849500Y4440235D01*
X16849500Y4140097D01*
X16840855Y4110657D01*
X16834332Y4080670D01*
X16830577Y4075655D01*
X16829815Y4073058D01*
X16813181Y4052416D01*
X16693101Y3932336D01*
X16631778Y3898851D01*
X16605420Y3896017D01*
X16499798Y3896017D01*
X16432759Y3915702D01*
X16387004Y3968506D01*
X16377060Y4037664D01*
X16378181Y4044208D01*
X16389999Y4103627D01*
X16390000Y4103629D01*
X16390000Y4251372D01*
X16389999Y4251374D01*
X16361179Y4396260D01*
X16361178Y4396264D01*
X16317577Y4501525D01*
X15816777Y4000723D01*
X15315974Y3499923D01*
X15325751Y3450770D01*
X15325510Y3448083D01*
X15326660Y3445640D01*
X15322414Y3413484D01*
X15319524Y3381178D01*
X15317759Y3378227D01*
X15317515Y3376371D01*
X15310796Y3366575D01*
X15298777Y3346462D01*
X15295445Y3342527D01*
X15265095Y3312176D01*
X15255102Y3294870D01*
X15247919Y3286383D01*
X15227655Y3273029D01*
X15210094Y3256284D01*
X15197679Y3253273D01*
X15189580Y3247934D01*
X15174980Y3247766D01*
X15153276Y3242500D01*
X14865944Y3242500D01*
X14798905Y3262185D01*
X14753150Y3314989D01*
X14743206Y3384147D01*
X14772231Y3447703D01*
X14818490Y3481060D01*
X14864024Y3499922D01*
X14864024Y3499923D01*
X14540001Y3823946D01*
X14540000Y3823946D01*
X14215975Y3499923D01*
X14261511Y3481061D01*
X14315914Y3437219D01*
X14337978Y3370925D01*
X14320698Y3303226D01*
X14269561Y3255616D01*
X14214057Y3242500D01*
X14055197Y3242500D01*
X13988158Y3262185D01*
X13967516Y3278819D01*
X13807969Y3438366D01*
X13786785Y3477161D01*
X13122765Y4141181D01*
X13066555Y4197391D01*
X13340000Y4197391D01*
X13340000Y4157609D01*
X13355224Y4120855D01*
X13383355Y4092724D01*
X13420109Y4077500D01*
X13459891Y4077500D01*
X13496645Y4092724D01*
X13524776Y4120855D01*
X13540000Y4157609D01*
X13540000Y4177500D01*
X13793554Y4177500D01*
X13990000Y3981054D01*
X14186446Y4177500D01*
X14166555Y4197391D01*
X14440000Y4197391D01*
X14440000Y4157609D01*
X14455224Y4120855D01*
X14483355Y4092724D01*
X14520109Y4077500D01*
X14559891Y4077500D01*
X14596645Y4092724D01*
X14624776Y4120855D01*
X14640000Y4157609D01*
X14640000Y4177500D01*
X14893554Y4177500D01*
X15090000Y3981054D01*
X15286446Y4177500D01*
X15266555Y4197391D01*
X15540000Y4197391D01*
X15540000Y4157609D01*
X15555224Y4120855D01*
X15583355Y4092724D01*
X15620109Y4077500D01*
X15659891Y4077500D01*
X15696645Y4092724D01*
X15724776Y4120855D01*
X15740000Y4157609D01*
X15740000Y4197391D01*
X15724776Y4234145D01*
X15696645Y4262276D01*
X15659891Y4277500D01*
X15620109Y4277500D01*
X15583355Y4262276D01*
X15555224Y4234145D01*
X15540000Y4197391D01*
X15266555Y4197391D01*
X15090000Y4373946D01*
X14893554Y4177500D01*
X14640000Y4177500D01*
X14640000Y4197391D01*
X14624776Y4234145D01*
X14596645Y4262276D01*
X14559891Y4277500D01*
X14520109Y4277500D01*
X14483355Y4262276D01*
X14455224Y4234145D01*
X14440000Y4197391D01*
X14166555Y4197391D01*
X13990000Y4373946D01*
X13793554Y4177500D01*
X13540000Y4177500D01*
X13540000Y4197391D01*
X13524776Y4234145D01*
X13496645Y4262276D01*
X13459891Y4277500D01*
X13420109Y4277500D01*
X13383355Y4262276D01*
X13355224Y4234145D01*
X13340000Y4197391D01*
X13066555Y4197391D01*
X12762421Y4501526D01*
X12762420Y4501526D01*
X12718823Y4396272D01*
X12718820Y4396260D01*
X12690000Y4251374D01*
X12690000Y4185500D01*
X12670315Y4118461D01*
X12617511Y4072706D01*
X12566000Y4061500D01*
X12279097Y4061500D01*
X12212058Y4081185D01*
X12191416Y4097819D01*
X11561735Y4727500D01*
X13243554Y4727500D01*
X13440000Y4531054D01*
X13636446Y4727500D01*
X14343554Y4727500D01*
X14540000Y4531054D01*
X14736446Y4727500D01*
X15443554Y4727500D01*
X15640000Y4531054D01*
X15836446Y4727500D01*
X15640000Y4923946D01*
X15443554Y4727500D01*
X14736446Y4727500D01*
X14540000Y4923946D01*
X14343554Y4727500D01*
X13636446Y4727500D01*
X13440000Y4923946D01*
X13243554Y4727500D01*
X11561735Y4727500D01*
X10937861Y5351374D01*
X12690000Y5351374D01*
X12690000Y5203627D01*
X12718820Y5058741D01*
X12718822Y5058733D01*
X12762421Y4953476D01*
X13086446Y5277500D01*
X13086446Y5277501D01*
X13066556Y5297391D01*
X13340000Y5297391D01*
X13340000Y5257609D01*
X13355224Y5220855D01*
X13383355Y5192724D01*
X13420109Y5177500D01*
X13459891Y5177500D01*
X13496645Y5192724D01*
X13524776Y5220855D01*
X13540000Y5257609D01*
X13540000Y5277500D01*
X13793554Y5277500D01*
X13990000Y5081054D01*
X14186446Y5277500D01*
X14166555Y5297391D01*
X14440000Y5297391D01*
X14440000Y5257609D01*
X14455224Y5220855D01*
X14483355Y5192724D01*
X14520109Y5177500D01*
X14559891Y5177500D01*
X14596645Y5192724D01*
X14624776Y5220855D01*
X14640000Y5257609D01*
X14640000Y5277500D01*
X14893554Y5277500D01*
X15090000Y5081054D01*
X15286446Y5277500D01*
X15266555Y5297391D01*
X15540000Y5297391D01*
X15540000Y5257609D01*
X15555224Y5220855D01*
X15583355Y5192724D01*
X15620109Y5177500D01*
X15659891Y5177500D01*
X15696645Y5192724D01*
X15724776Y5220855D01*
X15740000Y5257609D01*
X15740000Y5277501D01*
X15993554Y5277501D01*
X15993554Y5277499D01*
X16317577Y4953476D01*
X16317578Y4953476D01*
X16361175Y5058725D01*
X16361179Y5058740D01*
X16389999Y5203627D01*
X16390000Y5203629D01*
X16390000Y5351372D01*
X16389999Y5351374D01*
X16361179Y5496260D01*
X16361178Y5496264D01*
X16317577Y5601525D01*
X15993554Y5277501D01*
X15740000Y5277501D01*
X15740000Y5297391D01*
X15724776Y5334145D01*
X15696645Y5362276D01*
X15659891Y5377500D01*
X15620109Y5377500D01*
X15583355Y5362276D01*
X15555224Y5334145D01*
X15540000Y5297391D01*
X15266555Y5297391D01*
X15090000Y5473946D01*
X14893554Y5277500D01*
X14640000Y5277500D01*
X14640000Y5297391D01*
X14624776Y5334145D01*
X14596645Y5362276D01*
X14559891Y5377500D01*
X14520109Y5377500D01*
X14483355Y5362276D01*
X14455224Y5334145D01*
X14440000Y5297391D01*
X14166555Y5297391D01*
X13990000Y5473946D01*
X13793554Y5277500D01*
X13540000Y5277500D01*
X13540000Y5297391D01*
X13524776Y5334145D01*
X13496645Y5362276D01*
X13459891Y5377500D01*
X13420109Y5377500D01*
X13383355Y5362276D01*
X13355224Y5334145D01*
X13340000Y5297391D01*
X13066556Y5297391D01*
X12762421Y5601526D01*
X12762420Y5601526D01*
X12718823Y5496272D01*
X12718820Y5496260D01*
X12690000Y5351374D01*
X10937861Y5351374D01*
X10877819Y5411416D01*
X10844334Y5472739D01*
X10841500Y5499097D01*
X10841500Y5827500D01*
X13243554Y5827500D01*
X13440000Y5631054D01*
X13636446Y5827500D01*
X14343554Y5827500D01*
X14540000Y5631054D01*
X14736446Y5827500D01*
X15443554Y5827500D01*
X15640000Y5631054D01*
X15836446Y5827500D01*
X15640000Y6023946D01*
X15443554Y5827500D01*
X14736446Y5827500D01*
X14540000Y6023946D01*
X14343554Y5827500D01*
X13636446Y5827500D01*
X13440000Y6023946D01*
X13243554Y5827500D01*
X10841500Y5827500D01*
X10841500Y6451374D01*
X12690000Y6451374D01*
X12690000Y6303627D01*
X12718820Y6158741D01*
X12718822Y6158733D01*
X12762421Y6053476D01*
X13086446Y6377500D01*
X13086446Y6377501D01*
X13066556Y6397391D01*
X13340000Y6397391D01*
X13340000Y6357609D01*
X13355224Y6320855D01*
X13383355Y6292724D01*
X13420109Y6277500D01*
X13459891Y6277500D01*
X13496645Y6292724D01*
X13524776Y6320855D01*
X13540000Y6357609D01*
X13540000Y6377500D01*
X13793554Y6377500D01*
X13990000Y6181054D01*
X14186446Y6377500D01*
X14166555Y6397391D01*
X14440000Y6397391D01*
X14440000Y6357609D01*
X14455224Y6320855D01*
X14483355Y6292724D01*
X14520109Y6277500D01*
X14559891Y6277500D01*
X14596645Y6292724D01*
X14624776Y6320855D01*
X14640000Y6357609D01*
X14640000Y6377500D01*
X14893554Y6377500D01*
X15090000Y6181054D01*
X15286446Y6377500D01*
X15266555Y6397391D01*
X15540000Y6397391D01*
X15540000Y6357609D01*
X15555224Y6320855D01*
X15583355Y6292724D01*
X15620109Y6277500D01*
X15659891Y6277500D01*
X15696645Y6292724D01*
X15724776Y6320855D01*
X15740000Y6357609D01*
X15740000Y6377501D01*
X15993554Y6377501D01*
X15993554Y6377499D01*
X16317577Y6053476D01*
X16317578Y6053476D01*
X16361175Y6158725D01*
X16361179Y6158740D01*
X16389999Y6303627D01*
X16390000Y6303629D01*
X16390000Y6451372D01*
X16389999Y6451374D01*
X16361179Y6596260D01*
X16361178Y6596264D01*
X16317577Y6701525D01*
X15993554Y6377501D01*
X15740000Y6377501D01*
X15740000Y6397391D01*
X15724776Y6434145D01*
X15696645Y6462276D01*
X15659891Y6477500D01*
X15620109Y6477500D01*
X15583355Y6462276D01*
X15555224Y6434145D01*
X15540000Y6397391D01*
X15266555Y6397391D01*
X15090000Y6573946D01*
X14893554Y6377500D01*
X14640000Y6377500D01*
X14640000Y6397391D01*
X14624776Y6434145D01*
X14596645Y6462276D01*
X14559891Y6477500D01*
X14520109Y6477500D01*
X14483355Y6462276D01*
X14455224Y6434145D01*
X14440000Y6397391D01*
X14166555Y6397391D01*
X13990000Y6573946D01*
X13793554Y6377500D01*
X13540000Y6377500D01*
X13540000Y6397391D01*
X13524776Y6434145D01*
X13496645Y6462276D01*
X13459891Y6477500D01*
X13420109Y6477500D01*
X13383355Y6462276D01*
X13355224Y6434145D01*
X13340000Y6397391D01*
X13066556Y6397391D01*
X12762421Y6701526D01*
X12762420Y6701526D01*
X12718823Y6596272D01*
X12718820Y6596260D01*
X12690000Y6451374D01*
X10841500Y6451374D01*
X10841500Y7055080D01*
X13115974Y7055080D01*
X13115974Y7055079D01*
X13440000Y6731054D01*
X13440001Y6731054D01*
X13764024Y7055079D01*
X13764022Y7055080D01*
X14215974Y7055080D01*
X14215974Y7055079D01*
X14540000Y6731054D01*
X14540001Y6731054D01*
X14864024Y7055079D01*
X14864022Y7055080D01*
X15315974Y7055080D01*
X15315974Y7055079D01*
X15640000Y6731054D01*
X15640001Y6731054D01*
X15964024Y7055079D01*
X15858767Y7098678D01*
X15858759Y7098680D01*
X15713872Y7127500D01*
X15566128Y7127500D01*
X15421240Y7098680D01*
X15421228Y7098677D01*
X15315974Y7055080D01*
X14864022Y7055080D01*
X14758767Y7098678D01*
X14758759Y7098680D01*
X14613872Y7127500D01*
X14466128Y7127500D01*
X14321240Y7098680D01*
X14321228Y7098677D01*
X14215974Y7055080D01*
X13764022Y7055080D01*
X13658767Y7098678D01*
X13658759Y7098680D01*
X13513872Y7127500D01*
X13366128Y7127500D01*
X13221240Y7098680D01*
X13221228Y7098677D01*
X13115974Y7055080D01*
X10841500Y7055080D01*
X10841500Y8188847D01*
X22349500Y8188847D01*
X22349500Y8031154D01*
X22380261Y7876511D01*
X22380264Y7876499D01*
X22440602Y7730828D01*
X22440609Y7730815D01*
X22528210Y7599712D01*
X22528213Y7599708D01*
X22639707Y7488214D01*
X22639711Y7488211D01*
X22770814Y7400610D01*
X22770827Y7400603D01*
X22916498Y7340265D01*
X22916503Y7340263D01*
X23071153Y7309501D01*
X23071156Y7309500D01*
X23071158Y7309500D01*
X23228844Y7309500D01*
X23228845Y7309501D01*
X23383497Y7340263D01*
X23529179Y7400606D01*
X23660289Y7488211D01*
X23771789Y7599711D01*
X23859394Y7730821D01*
X23919737Y7876503D01*
X23950500Y8031158D01*
X23950500Y8188842D01*
X23950500Y8188845D01*
X23950499Y8188847D01*
X23944250Y8220263D01*
X23919737Y8343497D01*
X23900224Y8390606D01*
X23859397Y8489173D01*
X23859390Y8489186D01*
X23771789Y8620289D01*
X23771786Y8620293D01*
X23660292Y8731787D01*
X23660288Y8731790D01*
X23529185Y8819391D01*
X23529172Y8819398D01*
X23383501Y8879736D01*
X23383489Y8879739D01*
X23228845Y8910500D01*
X23228842Y8910500D01*
X23071158Y8910500D01*
X23071155Y8910500D01*
X22916510Y8879739D01*
X22916498Y8879736D01*
X22770827Y8819398D01*
X22770814Y8819391D01*
X22639711Y8731790D01*
X22639707Y8731787D01*
X22528213Y8620293D01*
X22528210Y8620289D01*
X22440609Y8489186D01*
X22440602Y8489173D01*
X22380264Y8343502D01*
X22380261Y8343490D01*
X22349500Y8188847D01*
X10841500Y8188847D01*
X10841500Y11005300D01*
X10861185Y11072339D01*
X10913989Y11118094D01*
X10983147Y11128038D01*
X11034391Y11108402D01*
X11150814Y11030610D01*
X11150827Y11030603D01*
X11269186Y10981578D01*
X11296503Y10970263D01*
X11451153Y10939501D01*
X11451156Y10939500D01*
X11451158Y10939500D01*
X11608844Y10939500D01*
X11608845Y10939501D01*
X11763497Y10970263D01*
X11909179Y11030606D01*
X12040289Y11118211D01*
X12151789Y11229711D01*
X12239394Y11360821D01*
X12299737Y11506503D01*
X12330500Y11661158D01*
X12330500Y11818842D01*
X12330500Y11818845D01*
X12330499Y11818847D01*
X12330369Y11819501D01*
X12299737Y11973497D01*
X12268256Y12049500D01*
X12239397Y12119173D01*
X12239390Y12119186D01*
X12151789Y12250289D01*
X12151786Y12250293D01*
X12040292Y12361787D01*
X12040288Y12361790D01*
X11909185Y12449391D01*
X11909172Y12449398D01*
X11763501Y12509736D01*
X11763489Y12509739D01*
X11608845Y12540500D01*
X11608842Y12540500D01*
X11451158Y12540500D01*
X11451155Y12540500D01*
X11296510Y12509739D01*
X11296498Y12509736D01*
X11150827Y12449398D01*
X11150809Y12449388D01*
X11034390Y12371599D01*
X10967713Y12350721D01*
X10900333Y12369206D01*
X10853643Y12421185D01*
X10841500Y12474701D01*
X10841500Y12770500D01*
X10861185Y12837539D01*
X10913989Y12883294D01*
X10965500Y12894500D01*
X15355490Y12894500D01*
X15355500Y12894500D01*
X15357836Y12894752D01*
X15358372Y12894655D01*
X15358808Y12894678D01*
X15358813Y12894575D01*
X15426592Y12882351D01*
X15458777Y12859144D01*
X15469707Y12848214D01*
X15469711Y12848211D01*
X15600814Y12760610D01*
X15600827Y12760603D01*
X15746498Y12700265D01*
X15746503Y12700263D01*
X15901153Y12669501D01*
X15901156Y12669500D01*
X15901158Y12669500D01*
X16058844Y12669500D01*
X16058845Y12669501D01*
X16213497Y12700263D01*
X16359179Y12760606D01*
X16490289Y12848211D01*
X16501222Y12859146D01*
X16562540Y12892632D01*
X16600025Y12893967D01*
X16600086Y12894816D01*
X16604497Y12894501D01*
X16604500Y12894500D01*
X16604503Y12894500D01*
X19945990Y12894500D01*
X19946000Y12894500D01*
X20053456Y12906053D01*
X20104967Y12917259D01*
X20139783Y12928847D01*
X20207497Y12951384D01*
X20207501Y12951387D01*
X20207504Y12951387D01*
X20328543Y13029175D01*
X20381347Y13074930D01*
X20475567Y13183664D01*
X20535338Y13314541D01*
X20555023Y13381580D01*
X20555024Y13381584D01*
X20575500Y13524000D01*
X20575500Y28864598D01*
X20575500Y28864602D01*
X20566365Y28960262D01*
X20566012Y28962089D01*
X20557481Y29006355D01*
X20530404Y29098570D01*
X20458461Y29223173D01*
X20415269Y29278094D01*
X20369080Y29322134D01*
X20334145Y29382640D01*
X20337468Y29452431D01*
X20373451Y29505594D01*
X20381347Y29512435D01*
X20475567Y29621169D01*
X20535338Y29752046D01*
X20555023Y29819085D01*
X20555024Y29819089D01*
X20575500Y29961505D01*
X20575500Y30029214D01*
X20595185Y30096253D01*
X20647989Y30142008D01*
X20717147Y30151952D01*
X20780703Y30122927D01*
X20802602Y30098105D01*
X20808210Y30089711D01*
X20919707Y29978214D01*
X20919711Y29978211D01*
X21050814Y29890610D01*
X21050827Y29890603D01*
X21181199Y29836602D01*
X21196503Y29830263D01*
X21351153Y29799501D01*
X21351156Y29799500D01*
X21351158Y29799500D01*
X21508844Y29799500D01*
X21508845Y29799501D01*
X21663497Y29830263D01*
X21746897Y29864809D01*
X21750129Y29865156D01*
X21752763Y29867066D01*
X21784626Y29868865D01*
X21816364Y29872277D01*
X21819273Y29870821D01*
X21822522Y29871004D01*
X21850303Y29855289D01*
X21878844Y29841002D01*
X21880504Y29838204D01*
X21883336Y29836602D01*
X21898210Y29808362D01*
X21914496Y29780913D01*
X21914379Y29777662D01*
X21915896Y29774783D01*
X21913141Y29742983D01*
X21912002Y29711088D01*
X21910062Y29707448D01*
X21909866Y29705174D01*
X21904371Y29696765D01*
X21892488Y29674455D01*
X21887634Y29668171D01*
X21819480Y29600016D01*
X21777674Y29527605D01*
X21773517Y29520407D01*
X21773516Y29520404D01*
X21740424Y29463087D01*
X21740423Y29463085D01*
X21699499Y29310357D01*
X21699499Y29310355D01*
X21699499Y29142254D01*
X21699500Y29142241D01*
X21699500Y24845370D01*
X21699499Y24845352D01*
X21699499Y24679646D01*
X21699498Y24679646D01*
X21699499Y24679643D01*
X21740423Y24526915D01*
X21741876Y24524398D01*
X21741882Y24524377D01*
X21741887Y24524379D01*
X21819475Y24389991D01*
X21819481Y24389983D01*
X21938349Y24271115D01*
X21938355Y24271110D01*
X22981181Y23228284D01*
X23014666Y23166961D01*
X23017500Y23140603D01*
X23017500Y19816437D01*
X22997815Y19749398D01*
X22945011Y19703643D01*
X22940955Y19701877D01*
X22910826Y19689397D01*
X22910814Y19689391D01*
X22779711Y19601790D01*
X22779707Y19601787D01*
X22668213Y19490293D01*
X22668210Y19490289D01*
X22580609Y19359186D01*
X22580602Y19359173D01*
X22520264Y19213502D01*
X22520261Y19213490D01*
X22489500Y19058847D01*
X22489500Y18901154D01*
X22520261Y18746511D01*
X22520264Y18746499D01*
X22580602Y18600828D01*
X22580609Y18600815D01*
X22637054Y18516340D01*
X22657932Y18449663D01*
X22639448Y18382282D01*
X22637054Y18378558D01*
X22550609Y18249186D01*
X22550602Y18249173D01*
X22490264Y18103502D01*
X22490261Y18103490D01*
X22459500Y17948847D01*
X22459500Y17791154D01*
X22490261Y17636511D01*
X22490264Y17636499D01*
X22550602Y17490828D01*
X22550608Y17490817D01*
X22566605Y17466876D01*
X22587482Y17400199D01*
X22568997Y17332819D01*
X22551183Y17310305D01*
X22104803Y16863925D01*
X22104797Y16863919D01*
X22101286Y16860407D01*
X22101284Y16860405D01*
X21989480Y16748601D01*
X21958973Y16695761D01*
X21953330Y16685988D01*
X21953328Y16685985D01*
X21910424Y16611672D01*
X21910423Y16611670D01*
X21869499Y16458942D01*
X21869499Y16458940D01*
X21869499Y16290839D01*
X21869500Y16290826D01*
X21869500Y15616670D01*
X21869499Y15616652D01*
X21869499Y15450946D01*
X21869498Y15450946D01*
X21910423Y15298214D01*
X21910424Y15298213D01*
X21926363Y15270606D01*
X21973569Y15188842D01*
X21989481Y15161283D01*
X22108349Y15042415D01*
X22108355Y15042410D01*
X22193181Y14957584D01*
X22226666Y14896261D01*
X22229500Y14869903D01*
X22229500Y13239766D01*
X22209815Y13172727D01*
X22208602Y13170875D01*
X22120609Y13039186D01*
X22120602Y13039173D01*
X22060264Y12893502D01*
X22060261Y12893490D01*
X22029500Y12738847D01*
X22029500Y12581154D01*
X22060261Y12426511D01*
X22060264Y12426499D01*
X22120602Y12280828D01*
X22120609Y12280815D01*
X22208210Y12149712D01*
X22208213Y12149708D01*
X22319707Y12038214D01*
X22319711Y12038211D01*
X22450814Y11950610D01*
X22450827Y11950603D01*
X22596498Y11890265D01*
X22596503Y11890263D01*
X22751153Y11859501D01*
X22751156Y11859500D01*
X22751158Y11859500D01*
X22908843Y11859500D01*
X22937118Y11865125D01*
X23010025Y11879627D01*
X23079615Y11873400D01*
X23134793Y11830538D01*
X23148777Y11805462D01*
X23208685Y11660828D01*
X23208692Y11660815D01*
X23296293Y11529712D01*
X23296296Y11529708D01*
X23407790Y11418214D01*
X23407794Y11418211D01*
X23538897Y11330610D01*
X23538910Y11330603D01*
X23684581Y11270265D01*
X23684586Y11270263D01*
X23839236Y11239501D01*
X23839239Y11239500D01*
X23839241Y11239500D01*
X23996927Y11239500D01*
X23996928Y11239501D01*
X24151580Y11270263D01*
X24297262Y11330606D01*
X24428372Y11418211D01*
X24539872Y11529711D01*
X24627477Y11660821D01*
X24661497Y11742952D01*
X24705338Y11797356D01*
X24771632Y11819421D01*
X24776058Y11819500D01*
X24838844Y11819500D01*
X24838845Y11819501D01*
X24993497Y11850263D01*
X25139179Y11910606D01*
X25270289Y11998211D01*
X25381789Y12109711D01*
X25469394Y12240821D01*
X25529737Y12386503D01*
X25560500Y12541158D01*
X25560500Y12698842D01*
X25560500Y12698845D01*
X25560499Y12698847D01*
X25532911Y12837539D01*
X25529737Y12853497D01*
X25498526Y12928847D01*
X25939500Y12928847D01*
X25939500Y12771154D01*
X25970261Y12616511D01*
X25970264Y12616499D01*
X26030602Y12470828D01*
X26030609Y12470815D01*
X26118210Y12339712D01*
X26118213Y12339708D01*
X26229707Y12228214D01*
X26229711Y12228211D01*
X26360814Y12140610D01*
X26360827Y12140603D01*
X26506498Y12080265D01*
X26506503Y12080263D01*
X26661153Y12049501D01*
X26661156Y12049500D01*
X26661158Y12049500D01*
X26818844Y12049500D01*
X26818845Y12049501D01*
X26973497Y12080263D01*
X27119179Y12140606D01*
X27250289Y12228211D01*
X27361789Y12339711D01*
X27449394Y12470821D01*
X27509737Y12616503D01*
X27540500Y12771158D01*
X27540500Y12928842D01*
X27540500Y12928845D01*
X27540499Y12928847D01*
X27526509Y12999179D01*
X27509737Y13083497D01*
X27468247Y13183664D01*
X27449397Y13229173D01*
X27449390Y13229186D01*
X27361789Y13360289D01*
X27361786Y13360293D01*
X27250292Y13471787D01*
X27250288Y13471790D01*
X27119185Y13559391D01*
X27119172Y13559398D01*
X26973501Y13619736D01*
X26973489Y13619739D01*
X26818845Y13650500D01*
X26818842Y13650500D01*
X26661158Y13650500D01*
X26661155Y13650500D01*
X26506510Y13619739D01*
X26506498Y13619736D01*
X26360827Y13559398D01*
X26360814Y13559391D01*
X26229711Y13471790D01*
X26229707Y13471787D01*
X26118213Y13360293D01*
X26118210Y13360289D01*
X26030609Y13229186D01*
X26030602Y13229173D01*
X25970264Y13083502D01*
X25970261Y13083490D01*
X25939500Y12928847D01*
X25498526Y12928847D01*
X25489190Y12951387D01*
X25469397Y12999173D01*
X25469390Y12999186D01*
X25381789Y13130289D01*
X25381786Y13130293D01*
X25270292Y13241787D01*
X25270288Y13241790D01*
X25139185Y13329391D01*
X25139172Y13329398D01*
X24993501Y13389736D01*
X24993489Y13389739D01*
X24838845Y13420500D01*
X24838842Y13420500D01*
X24681158Y13420500D01*
X24681153Y13420500D01*
X24579691Y13400318D01*
X24510099Y13406545D01*
X24454922Y13449409D01*
X24431678Y13515298D01*
X24431500Y13521935D01*
X24431500Y14347685D01*
X24451185Y14414724D01*
X24503989Y14460479D01*
X24550642Y14470629D01*
X24550597Y14471088D01*
X24554541Y14471477D01*
X24555500Y14471685D01*
X24556659Y14471685D01*
X24556660Y14471686D01*
X24711312Y14502448D01*
X24786202Y14533469D01*
X24855668Y14540937D01*
X24918147Y14509662D01*
X24921333Y14506588D01*
X24939707Y14488214D01*
X24939711Y14488211D01*
X25070814Y14400610D01*
X25070827Y14400603D01*
X25216498Y14340265D01*
X25216503Y14340263D01*
X25371153Y14309501D01*
X25371156Y14309500D01*
X25371158Y14309500D01*
X25528844Y14309500D01*
X25528845Y14309501D01*
X25683497Y14340263D01*
X25829179Y14400606D01*
X25960289Y14488211D01*
X26071789Y14599711D01*
X26159394Y14730821D01*
X26219737Y14876503D01*
X26250500Y15031158D01*
X26250500Y15188842D01*
X26250500Y15188845D01*
X26250499Y15188847D01*
X26234236Y15270606D01*
X26219737Y15343497D01*
X26175319Y15450733D01*
X26167850Y15520202D01*
X26199125Y15582681D01*
X26202171Y15585838D01*
X26793713Y16177379D01*
X26793716Y16177380D01*
X26905520Y16289184D01*
X26955639Y16375996D01*
X26984577Y16426115D01*
X27025500Y16578842D01*
X27025500Y16736957D01*
X27025500Y23793603D01*
X27045185Y23860642D01*
X27061819Y23881284D01*
X27484520Y24303984D01*
X27563577Y24440916D01*
X27604501Y24593643D01*
X27604501Y24751758D01*
X27604501Y24759353D01*
X27604500Y24759371D01*
X27604500Y26087210D01*
X27608725Y26119304D01*
X27611483Y26129600D01*
X27626501Y26185643D01*
X27626501Y26343758D01*
X27626501Y26351353D01*
X27626500Y26351371D01*
X27626500Y27280404D01*
X27646185Y27347443D01*
X27662815Y27368081D01*
X28041506Y27746773D01*
X28041511Y27746776D01*
X28051714Y27756980D01*
X28051716Y27756980D01*
X28163520Y27868784D01*
X28234517Y27991755D01*
X28234518Y27991756D01*
X28242576Y28005713D01*
X28242576Y28005714D01*
X28242577Y28005715D01*
X28283500Y28158442D01*
X28283500Y28316557D01*
X28283500Y30235704D01*
X28303185Y30302743D01*
X28319815Y30323381D01*
X28741506Y30745073D01*
X28741511Y30745076D01*
X28751714Y30755280D01*
X28751716Y30755280D01*
X28863520Y30867084D01*
X28942577Y31004016D01*
X28983500Y31156743D01*
X28983500Y31188461D01*
X28987726Y31220559D01*
X28992057Y31236720D01*
X28993705Y31242872D01*
X28999500Y31264498D01*
X28999500Y31422613D01*
X28999500Y37824703D01*
X29019185Y37891742D01*
X29035819Y37912384D01*
X29287819Y38164384D01*
X29349142Y38197869D01*
X29418834Y38192885D01*
G37*
%TD.AperFunction*%
%TA.AperFunction,Conductor*%
G36*
X3576559Y32249672D02*
G01*
X3634423Y32210510D01*
X3653366Y32179011D01*
X3710602Y32040828D01*
X3710609Y32040815D01*
X3798210Y31909712D01*
X3798213Y31909708D01*
X3909707Y31798214D01*
X3909711Y31798211D01*
X4040814Y31710610D01*
X4040827Y31710603D01*
X4131212Y31673165D01*
X4186503Y31650263D01*
X4251147Y31637405D01*
X4341849Y31619362D01*
X4403760Y31586977D01*
X4405339Y31585426D01*
X4585139Y31405626D01*
X4585149Y31405615D01*
X4589479Y31401285D01*
X4589480Y31401284D01*
X4701284Y31289480D01*
X4782012Y31242872D01*
X4838215Y31210423D01*
X4990943Y31169499D01*
X4990946Y31169499D01*
X5156653Y31169499D01*
X5156669Y31169500D01*
X7555500Y31169500D01*
X7622539Y31149815D01*
X7668294Y31097011D01*
X7679500Y31045500D01*
X7679500Y22166670D01*
X7679499Y22166652D01*
X7679499Y22000946D01*
X7679498Y22000946D01*
X7679499Y22000943D01*
X7720423Y21848215D01*
X7724225Y21841630D01*
X7724228Y21841620D01*
X7724231Y21841621D01*
X7799479Y21711286D01*
X7799481Y21711283D01*
X7918349Y21592415D01*
X7918355Y21592410D01*
X8363181Y21147584D01*
X8396666Y21086261D01*
X8399500Y21059903D01*
X8399500Y19429766D01*
X8379815Y19362727D01*
X8378602Y19360875D01*
X8290609Y19229186D01*
X8290602Y19229173D01*
X8230264Y19083502D01*
X8230261Y19083490D01*
X8199500Y18928847D01*
X8199500Y18771154D01*
X8230261Y18616511D01*
X8230264Y18616499D01*
X8290602Y18470828D01*
X8290609Y18470816D01*
X8358602Y18369058D01*
X8379480Y18302381D01*
X8379500Y18300167D01*
X8379500Y4816670D01*
X8379499Y4816652D01*
X8379499Y4650946D01*
X8379498Y4650946D01*
X8417996Y4507274D01*
X8420423Y4498215D01*
X8430651Y4480500D01*
X8499480Y4361284D01*
X8544222Y4316542D01*
X8550631Y4307250D01*
X8551485Y4304656D01*
X8555940Y4298850D01*
X8557480Y4296184D01*
X8557482Y4296182D01*
X8676349Y4177315D01*
X8676355Y4177310D01*
X9101484Y3752181D01*
X9134969Y3690858D01*
X9129985Y3621166D01*
X9088113Y3565233D01*
X9022649Y3540816D01*
X9013803Y3540500D01*
X8616669Y3540500D01*
X8616653Y3540501D01*
X8609057Y3540501D01*
X8450943Y3540501D01*
X8299506Y3499923D01*
X8298215Y3499577D01*
X8298213Y3499576D01*
X8273298Y3485193D01*
X8273299Y3485192D01*
X8161287Y3420523D01*
X8085337Y3344573D01*
X8024013Y3311089D01*
X8021848Y3310638D01*
X7866508Y3279739D01*
X7866498Y3279736D01*
X7720827Y3219398D01*
X7720814Y3219391D01*
X7589711Y3131790D01*
X7589707Y3131787D01*
X7478213Y3020293D01*
X7478210Y3020289D01*
X7390609Y2889186D01*
X7390602Y2889173D01*
X7330264Y2743502D01*
X7330261Y2743490D01*
X7299500Y2588847D01*
X7299500Y2431154D01*
X7330261Y2276511D01*
X7330264Y2276499D01*
X7390602Y2130828D01*
X7390609Y2130815D01*
X7478210Y1999712D01*
X7478213Y1999708D01*
X7589707Y1888214D01*
X7589711Y1888211D01*
X7720814Y1800610D01*
X7720827Y1800603D01*
X7866498Y1740265D01*
X7866503Y1740263D01*
X7892944Y1735004D01*
X7932589Y1727117D01*
X7994500Y1694732D01*
X8029075Y1634016D01*
X8025335Y1564247D01*
X7984468Y1507575D01*
X7919450Y1481994D01*
X7908398Y1481500D01*
X2681229Y1481500D01*
X2614190Y1501185D01*
X2593548Y1517819D01*
X1606819Y2504549D01*
X1573334Y2565872D01*
X1570500Y2592230D01*
X1570500Y3908847D01*
X5059500Y3908847D01*
X5059500Y3751154D01*
X5090261Y3596511D01*
X5090264Y3596499D01*
X5150602Y3450828D01*
X5150609Y3450815D01*
X5238210Y3319712D01*
X5238213Y3319708D01*
X5349707Y3208214D01*
X5349711Y3208211D01*
X5480814Y3120610D01*
X5480827Y3120603D01*
X5605750Y3068859D01*
X5626503Y3060263D01*
X5781153Y3029501D01*
X5781156Y3029500D01*
X5781158Y3029500D01*
X5938844Y3029500D01*
X5938845Y3029501D01*
X6093497Y3060263D01*
X6239179Y3120606D01*
X6370289Y3208211D01*
X6481789Y3319711D01*
X6569394Y3450821D01*
X6629737Y3596503D01*
X6660500Y3751158D01*
X6660500Y3908842D01*
X6660500Y3908845D01*
X6660499Y3908847D01*
X6644030Y3991640D01*
X6629737Y4063497D01*
X6622624Y4080670D01*
X6569397Y4209173D01*
X6569390Y4209186D01*
X6481789Y4340289D01*
X6481786Y4340293D01*
X6370292Y4451787D01*
X6370288Y4451790D01*
X6239185Y4539391D01*
X6239172Y4539398D01*
X6093501Y4599736D01*
X6093489Y4599739D01*
X5938845Y4630500D01*
X5938842Y4630500D01*
X5781158Y4630500D01*
X5781155Y4630500D01*
X5626510Y4599739D01*
X5626498Y4599736D01*
X5480827Y4539398D01*
X5480814Y4539391D01*
X5349711Y4451790D01*
X5349707Y4451787D01*
X5238213Y4340293D01*
X5238210Y4340289D01*
X5150609Y4209186D01*
X5150602Y4209173D01*
X5090264Y4063502D01*
X5090261Y4063490D01*
X5059500Y3908847D01*
X1570500Y3908847D01*
X1570500Y6238847D01*
X6359500Y6238847D01*
X6359500Y6081154D01*
X6390261Y5926511D01*
X6390264Y5926499D01*
X6450602Y5780828D01*
X6450609Y5780815D01*
X6538210Y5649712D01*
X6538213Y5649708D01*
X6649707Y5538214D01*
X6649711Y5538211D01*
X6780814Y5450610D01*
X6780827Y5450603D01*
X6904992Y5399173D01*
X6926503Y5390263D01*
X7067202Y5362276D01*
X7081153Y5359501D01*
X7081156Y5359500D01*
X7081158Y5359500D01*
X7238844Y5359500D01*
X7238845Y5359501D01*
X7393497Y5390263D01*
X7539179Y5450606D01*
X7670289Y5538211D01*
X7781789Y5649711D01*
X7869394Y5780821D01*
X7929737Y5926503D01*
X7960500Y6081158D01*
X7960500Y6238842D01*
X7960500Y6238845D01*
X7960499Y6238847D01*
X7944186Y6320855D01*
X7929737Y6393497D01*
X7894942Y6477500D01*
X7869397Y6539173D01*
X7869390Y6539186D01*
X7781789Y6670289D01*
X7781786Y6670293D01*
X7670292Y6781787D01*
X7670288Y6781790D01*
X7539185Y6869391D01*
X7539172Y6869398D01*
X7393501Y6929736D01*
X7393489Y6929739D01*
X7238845Y6960500D01*
X7238842Y6960500D01*
X7081158Y6960500D01*
X7081155Y6960500D01*
X6926510Y6929739D01*
X6926498Y6929736D01*
X6780827Y6869398D01*
X6780814Y6869391D01*
X6649711Y6781790D01*
X6649707Y6781787D01*
X6538213Y6670293D01*
X6538210Y6670289D01*
X6450609Y6539186D01*
X6450602Y6539173D01*
X6390264Y6393502D01*
X6390261Y6393490D01*
X6359500Y6238847D01*
X1570500Y6238847D01*
X1570500Y27368847D01*
X3129500Y27368847D01*
X3129500Y27211154D01*
X3160261Y27056511D01*
X3160264Y27056499D01*
X3220602Y26910828D01*
X3220609Y26910815D01*
X3308210Y26779712D01*
X3308213Y26779708D01*
X3419707Y26668214D01*
X3419711Y26668211D01*
X3550814Y26580610D01*
X3550827Y26580603D01*
X3696498Y26520265D01*
X3696503Y26520263D01*
X3851153Y26489501D01*
X3851156Y26489500D01*
X3851158Y26489500D01*
X4008844Y26489500D01*
X4008845Y26489501D01*
X4163497Y26520263D01*
X4309179Y26580606D01*
X4440289Y26668211D01*
X4551789Y26779711D01*
X4639394Y26910821D01*
X4699737Y27056503D01*
X4730500Y27211158D01*
X4730500Y27368842D01*
X4730500Y27368845D01*
X4730499Y27368847D01*
X4720445Y27419391D01*
X4699737Y27523497D01*
X4660798Y27617505D01*
X4639397Y27669173D01*
X4639390Y27669186D01*
X4551789Y27800289D01*
X4551786Y27800293D01*
X4440292Y27911787D01*
X4440288Y27911790D01*
X4309185Y27999391D01*
X4309172Y27999398D01*
X4163501Y28059736D01*
X4163489Y28059739D01*
X4008845Y28090500D01*
X4008842Y28090500D01*
X3851158Y28090500D01*
X3851155Y28090500D01*
X3696510Y28059739D01*
X3696498Y28059736D01*
X3550827Y27999398D01*
X3550814Y27999391D01*
X3419711Y27911790D01*
X3419707Y27911787D01*
X3308213Y27800293D01*
X3308210Y27800289D01*
X3220609Y27669186D01*
X3220602Y27669173D01*
X3160264Y27523502D01*
X3160261Y27523490D01*
X3129500Y27368847D01*
X1570500Y27368847D01*
X1570500Y29570501D01*
X1590185Y29637540D01*
X1642989Y29683295D01*
X1694500Y29694501D01*
X2487871Y29694501D01*
X2487872Y29694501D01*
X2547483Y29700909D01*
X2682331Y29751204D01*
X2797546Y29837454D01*
X2883796Y29952669D01*
X2934091Y30087517D01*
X2940500Y30147127D01*
X2940499Y31242872D01*
X2934091Y31302483D01*
X2931514Y31309391D01*
X2883797Y31437329D01*
X2883795Y31437332D01*
X2874976Y31449113D01*
X2850558Y31514577D01*
X2859679Y31570872D01*
X2902051Y31673165D01*
X2914632Y31736418D01*
X2940500Y31866457D01*
X2940500Y32063544D01*
X2938877Y32071701D01*
X2939584Y32079614D01*
X2936808Y32087060D01*
X2942652Y32113919D01*
X2945101Y32141293D01*
X2950354Y32149309D01*
X2951665Y32155332D01*
X2972813Y32183580D01*
X2986423Y32197188D01*
X3047749Y32230668D01*
X3074098Y32233500D01*
X3274431Y32233500D01*
X3274447Y32233499D01*
X3282043Y32233499D01*
X3440155Y32233499D01*
X3440157Y32233499D01*
X3506713Y32251333D01*
X3576559Y32249672D01*
G37*
%TD.AperFunction*%
%TA.AperFunction,Conductor*%
G36*
X9962742Y2319815D02*
G01*
X9983384Y2303181D01*
X10593383Y1693181D01*
X10626868Y1631858D01*
X10621884Y1562166D01*
X10580012Y1506233D01*
X10514548Y1481816D01*
X10505702Y1481500D01*
X8291602Y1481500D01*
X8224563Y1501185D01*
X8178808Y1553989D01*
X8168864Y1623147D01*
X8197889Y1686703D01*
X8256667Y1724477D01*
X8267411Y1727117D01*
X8300370Y1733674D01*
X8333497Y1740263D01*
X8479179Y1800606D01*
X8610289Y1888211D01*
X8721789Y1999711D01*
X8809394Y2130821D01*
X8864124Y2262953D01*
X8907964Y2317356D01*
X8974258Y2339421D01*
X8978685Y2339500D01*
X9895703Y2339500D01*
X9962742Y2319815D01*
G37*
%TD.AperFunction*%
%TA.AperFunction,Conductor*%
G36*
X23360542Y45587815D02*
G01*
X23381184Y45571181D01*
X24153181Y44799184D01*
X24186666Y44737861D01*
X24189500Y44711503D01*
X24189500Y43434445D01*
X24169815Y43367406D01*
X24117011Y43321651D01*
X24064934Y43312938D01*
X24064934Y43310500D01*
X23901155Y43310500D01*
X23746510Y43279739D01*
X23746498Y43279736D01*
X23600827Y43219398D01*
X23600814Y43219391D01*
X23469711Y43131790D01*
X23469707Y43131787D01*
X23358213Y43020293D01*
X23358210Y43020289D01*
X23270609Y42889186D01*
X23270602Y42889173D01*
X23210264Y42743502D01*
X23210261Y42743490D01*
X23179500Y42588847D01*
X23179500Y42431154D01*
X23210261Y42276511D01*
X23210264Y42276499D01*
X23270602Y42130828D01*
X23270609Y42130815D01*
X23358210Y41999712D01*
X23358213Y41999708D01*
X23469708Y41888213D01*
X23469711Y41888211D01*
X23534391Y41844994D01*
X23579195Y41791383D01*
X23589500Y41741892D01*
X23589500Y35538293D01*
X23569815Y35471254D01*
X23568602Y35469402D01*
X23480609Y35337713D01*
X23480602Y35337700D01*
X23420264Y35192029D01*
X23420261Y35192017D01*
X23389500Y35037374D01*
X23389500Y34879681D01*
X23420261Y34725038D01*
X23420264Y34725026D01*
X23480602Y34579355D01*
X23480609Y34579342D01*
X23568210Y34448239D01*
X23568213Y34448235D01*
X23679707Y34336741D01*
X23679711Y34336738D01*
X23810814Y34249137D01*
X23810827Y34249130D01*
X23924251Y34202149D01*
X23956503Y34188790D01*
X24066987Y34166814D01*
X24089691Y34162297D01*
X24151602Y34129912D01*
X24186176Y34069197D01*
X24189500Y34040680D01*
X24189500Y33138554D01*
X24169815Y33071515D01*
X24153181Y33050873D01*
X23716453Y32614146D01*
X23655130Y32580661D01*
X23604583Y32580209D01*
X23552842Y32590500D01*
X23395158Y32590500D01*
X23395155Y32590500D01*
X23240510Y32559739D01*
X23240498Y32559736D01*
X23094827Y32499398D01*
X23094814Y32499391D01*
X22963711Y32411790D01*
X22963707Y32411787D01*
X22852213Y32300293D01*
X22852210Y32300289D01*
X22764609Y32169186D01*
X22764602Y32169173D01*
X22704264Y32023502D01*
X22704261Y32023490D01*
X22673500Y31868847D01*
X22673500Y31711154D01*
X22704261Y31556511D01*
X22704264Y31556499D01*
X22764602Y31410828D01*
X22764609Y31410815D01*
X22852210Y31279712D01*
X22852213Y31279708D01*
X22963707Y31168214D01*
X22963711Y31168211D01*
X23092228Y31082338D01*
X23137033Y31028726D01*
X23145740Y30959401D01*
X23115585Y30896373D01*
X23111018Y30891555D01*
X22367434Y30147971D01*
X22306111Y30114486D01*
X22236419Y30119470D01*
X22180486Y30161342D01*
X22156069Y30226806D01*
X22165191Y30283103D01*
X22199737Y30366503D01*
X22230500Y30521158D01*
X22230500Y30678842D01*
X22230500Y30678845D01*
X22230499Y30678847D01*
X22217325Y30745076D01*
X22199737Y30833497D01*
X22199735Y30833502D01*
X22139397Y30979173D01*
X22139390Y30979186D01*
X22051789Y31110289D01*
X22051786Y31110293D01*
X21940292Y31221787D01*
X21940288Y31221790D01*
X21809185Y31309391D01*
X21809172Y31309398D01*
X21663501Y31369736D01*
X21663489Y31369739D01*
X21508845Y31400500D01*
X21508842Y31400500D01*
X21351158Y31400500D01*
X21351155Y31400500D01*
X21196510Y31369739D01*
X21196498Y31369736D01*
X21050827Y31309398D01*
X21050814Y31309391D01*
X20919711Y31221790D01*
X20919707Y31221787D01*
X20808213Y31110293D01*
X20808209Y31110288D01*
X20802600Y31101893D01*
X20748986Y31057090D01*
X20679661Y31048384D01*
X20616634Y31078541D01*
X20579917Y31137985D01*
X20575500Y31170787D01*
X20575500Y32635530D01*
X20573682Y32652529D01*
X20564063Y32742455D01*
X20552968Y32793723D01*
X20519177Y32895800D01*
X20441651Y33017008D01*
X20396011Y33069910D01*
X20389971Y33075167D01*
X20287487Y33164360D01*
X20287484Y33164362D01*
X20273868Y33170616D01*
X20156736Y33224417D01*
X20089741Y33244247D01*
X20089739Y33244248D01*
X20089734Y33244249D01*
X20089731Y33244250D01*
X19947373Y33265032D01*
X19947364Y33265033D01*
X19947362Y33265033D01*
X18711421Y33267703D01*
X18711420Y33267703D01*
X18711419Y33267703D01*
X18690990Y33267127D01*
X18680775Y33266839D01*
X18678279Y33266693D01*
X18665795Y33265962D01*
X18635343Y33263252D01*
X18496375Y33226017D01*
X18496362Y33226013D01*
X18434742Y33199626D01*
X18432953Y33198908D01*
X18432130Y33198508D01*
X18309273Y33123621D01*
X18212494Y33017159D01*
X18209754Y33013674D01*
X18208414Y33014728D01*
X18158917Y32975398D01*
X18089398Y32968406D01*
X18027136Y33000110D01*
X18011533Y33018951D01*
X18011211Y33018710D01*
X18008566Y33022258D01*
X18008562Y33022265D01*
X17962922Y33075167D01*
X17962920Y33075169D01*
X17962916Y33075173D01*
X17854397Y33169617D01*
X17854394Y33169619D01*
X17852223Y33170616D01*
X17723646Y33229674D01*
X17709763Y33233783D01*
X17656653Y33249504D01*
X17656635Y33249507D01*
X17514287Y33270288D01*
X17514278Y33270289D01*
X17514276Y33270289D01*
X17507931Y33270303D01*
X16907961Y33271600D01*
X16840964Y33291430D01*
X16795323Y33344333D01*
X16793668Y33348148D01*
X16739397Y33479174D01*
X16739390Y33479186D01*
X16651789Y33610289D01*
X16651786Y33610293D01*
X16540292Y33721787D01*
X16540288Y33721790D01*
X16409185Y33809391D01*
X16409172Y33809398D01*
X16263501Y33869736D01*
X16263489Y33869739D01*
X16108845Y33900500D01*
X16108842Y33900500D01*
X15951158Y33900500D01*
X15951155Y33900500D01*
X15796510Y33869739D01*
X15790676Y33867969D01*
X15790471Y33868642D01*
X15749538Y33860500D01*
X13799098Y33860500D01*
X13732059Y33880185D01*
X13686304Y33932989D01*
X13676360Y34002147D01*
X13705385Y34065703D01*
X13711417Y34072181D01*
X13773975Y34134739D01*
X13870520Y34231284D01*
X13949577Y34368216D01*
X13990501Y34520943D01*
X13990501Y34679058D01*
X13990501Y34686653D01*
X13990500Y34686671D01*
X13990500Y34969903D01*
X14010185Y35036942D01*
X14026819Y35057584D01*
X14041401Y35072166D01*
X14223792Y35254558D01*
X14285113Y35288041D01*
X14354804Y35283057D01*
X14410738Y35241186D01*
X14426214Y35209328D01*
X14427257Y35209759D01*
X14430364Y35202256D01*
X14430365Y35202255D01*
X14505473Y35072165D01*
X14839957Y34737681D01*
X14946176Y34631462D01*
X15036450Y34579342D01*
X15071452Y34559133D01*
X15076266Y34556354D01*
X15221363Y34517476D01*
X15221365Y34517476D01*
X15844609Y34517476D01*
X15844611Y34517476D01*
X15989708Y34556354D01*
X16119798Y34631462D01*
X17217919Y35729583D01*
X17293027Y35859673D01*
X17331905Y36004770D01*
X17331905Y36154986D01*
X17331905Y36179238D01*
X17351590Y36246277D01*
X17368221Y36266917D01*
X17383194Y36281889D01*
X17470799Y36412999D01*
X17531142Y36558681D01*
X17561905Y36713336D01*
X17561905Y36745500D01*
X17581590Y36812539D01*
X17634394Y36858294D01*
X17685905Y36869500D01*
X18120709Y36869500D01*
X18187748Y36849815D01*
X18233503Y36797011D01*
X18243447Y36727853D01*
X18242326Y36721309D01*
X18216574Y36591847D01*
X18216574Y36434154D01*
X18247335Y36279511D01*
X18247338Y36279499D01*
X18307676Y36133828D01*
X18307683Y36133815D01*
X18395284Y36002712D01*
X18395287Y36002708D01*
X18506781Y35891214D01*
X18506785Y35891211D01*
X18637888Y35803610D01*
X18637901Y35803603D01*
X18783572Y35743265D01*
X18783577Y35743263D01*
X18938227Y35712501D01*
X18938230Y35712500D01*
X18938232Y35712500D01*
X19095918Y35712500D01*
X19095919Y35712501D01*
X19250571Y35743263D01*
X19389515Y35800815D01*
X19396246Y35803603D01*
X19396246Y35803604D01*
X19396253Y35803606D01*
X19527363Y35891211D01*
X19638863Y36002711D01*
X19726468Y36133821D01*
X19786811Y36279503D01*
X19809265Y36392384D01*
X19841650Y36454295D01*
X19877933Y36479007D01*
X19877573Y36479682D01*
X19882932Y36482548D01*
X19882944Y36482552D01*
X20014054Y36570157D01*
X20125554Y36681657D01*
X20213159Y36812767D01*
X20273502Y36958449D01*
X20304265Y37113104D01*
X20304265Y37270788D01*
X20304265Y37270791D01*
X20304264Y37270793D01*
X20273503Y37425436D01*
X20273502Y37425443D01*
X20264381Y37447463D01*
X20213162Y37571119D01*
X20213155Y37571132D01*
X20125554Y37702235D01*
X20125551Y37702239D01*
X20079051Y37748738D01*
X20045565Y37810061D01*
X20045116Y37860620D01*
X20047111Y37870648D01*
X20047111Y38028332D01*
X20047111Y38028335D01*
X20019473Y38167277D01*
X20025700Y38236869D01*
X20068563Y38292046D01*
X20134452Y38315291D01*
X20202450Y38299223D01*
X20224975Y38282045D01*
X20225001Y38282076D01*
X20225878Y38281357D01*
X20228771Y38279150D01*
X20229707Y38278214D01*
X20229711Y38278211D01*
X20360814Y38190610D01*
X20360827Y38190603D01*
X20492621Y38136013D01*
X20506503Y38130263D01*
X20621900Y38107309D01*
X20661153Y38099501D01*
X20661156Y38099500D01*
X20715500Y38099500D01*
X20782539Y38079815D01*
X20828294Y38027011D01*
X20839500Y37975500D01*
X20839500Y36566670D01*
X20839499Y36566652D01*
X20839499Y36400946D01*
X20839498Y36400946D01*
X20880422Y36248217D01*
X20897001Y36219501D01*
X20897002Y36219500D01*
X20922887Y36174666D01*
X20939500Y36112666D01*
X20939500Y36101154D01*
X20970261Y35946511D01*
X20970264Y35946499D01*
X21030602Y35800828D01*
X21030609Y35800815D01*
X21118210Y35669712D01*
X21118213Y35669708D01*
X21229707Y35558214D01*
X21229711Y35558211D01*
X21360814Y35470610D01*
X21360827Y35470603D01*
X21506498Y35410265D01*
X21506503Y35410263D01*
X21661153Y35379501D01*
X21661156Y35379500D01*
X21661158Y35379500D01*
X21818844Y35379500D01*
X21818845Y35379501D01*
X21973497Y35410263D01*
X22119179Y35470606D01*
X22250289Y35558211D01*
X22361789Y35669711D01*
X22449394Y35800821D01*
X22509737Y35946503D01*
X22540500Y36101158D01*
X22540500Y36258842D01*
X22540500Y36258845D01*
X22540499Y36258847D01*
X22536389Y36279511D01*
X22509737Y36413497D01*
X22482602Y36479007D01*
X22449397Y36559173D01*
X22449390Y36559186D01*
X22361789Y36690289D01*
X22361786Y36690293D01*
X22250292Y36801787D01*
X22250288Y36801790D01*
X22119185Y36889391D01*
X22119169Y36889399D01*
X22117038Y36890282D01*
X22116094Y36891043D01*
X22113809Y36892264D01*
X22114040Y36892698D01*
X22062638Y36934127D01*
X22040579Y37000423D01*
X22040500Y37004839D01*
X22040500Y43219058D01*
X22039749Y43221862D01*
X22029396Y43260501D01*
X21999577Y43371785D01*
X21960934Y43438716D01*
X21920520Y43508716D01*
X21808716Y43620520D01*
X21808715Y43620521D01*
X21804385Y43624851D01*
X21804374Y43624861D01*
X20507590Y44921645D01*
X20507588Y44921648D01*
X20388717Y45040519D01*
X20388716Y45040520D01*
X20288043Y45098643D01*
X20288042Y45098644D01*
X20251783Y45119578D01*
X20195881Y45134557D01*
X20099057Y45160501D01*
X19940943Y45160501D01*
X19933347Y45160501D01*
X19933331Y45160500D01*
X18436140Y45160500D01*
X18369101Y45180185D01*
X18323346Y45232989D01*
X18313402Y45302147D01*
X18342427Y45365703D01*
X18348459Y45372181D01*
X18547459Y45571181D01*
X18608782Y45604666D01*
X18635140Y45607500D01*
X23293503Y45607500D01*
X23360542Y45587815D01*
G37*
%TD.AperFunction*%
%TA.AperFunction,Conductor*%
G36*
X8199135Y33168363D02*
G01*
X8230718Y33167885D01*
X8235130Y33165789D01*
X8237321Y33165632D01*
X8261419Y33153299D01*
X8262597Y33152739D01*
X8262741Y33152644D01*
X8375792Y33077105D01*
X8377569Y33076369D01*
X8384157Y33071993D01*
X8402976Y33049599D01*
X8423843Y33029102D01*
X8425190Y33023165D01*
X8429108Y33018503D01*
X8432832Y32989485D01*
X8439305Y32960964D01*
X8437228Y32955242D01*
X8438004Y32949202D01*
X8425451Y32922782D01*
X8415475Y32895284D01*
X8410633Y32891592D01*
X8408021Y32886093D01*
X8391839Y32871077D01*
X7927582Y32406819D01*
X7866259Y32373334D01*
X7839901Y32370500D01*
X5370097Y32370500D01*
X5340656Y32379145D01*
X5310670Y32385668D01*
X5305654Y32389423D01*
X5303058Y32390185D01*
X5282416Y32406819D01*
X5254574Y32434661D01*
X5221089Y32495984D01*
X5220637Y32498152D01*
X5214748Y32527760D01*
X5220977Y32597352D01*
X5263841Y32652529D01*
X5329731Y32675772D01*
X5336366Y32675950D01*
X7309723Y32675950D01*
X7309739Y32675949D01*
X7317335Y32675949D01*
X7475446Y32675949D01*
X7475449Y32675949D01*
X7628177Y32716873D01*
X7685043Y32749705D01*
X7765108Y32795930D01*
X7876912Y32907734D01*
X7876912Y32907736D01*
X7887116Y32917939D01*
X7887120Y32917944D01*
X8106308Y33137133D01*
X8134024Y33152267D01*
X8160856Y33168942D01*
X8164463Y33168888D01*
X8167629Y33170616D01*
X8199135Y33168363D01*
G37*
%TD.AperFunction*%
%TA.AperFunction,Conductor*%
G36*
X5638942Y34840815D02*
G01*
X5684697Y34788011D01*
X5694641Y34718853D01*
X5665616Y34655297D01*
X5659584Y34648819D01*
X5325034Y34314269D01*
X5263711Y34280784D01*
X5237353Y34277950D01*
X3724120Y34277950D01*
X3724104Y34277951D01*
X3716508Y34277951D01*
X3558393Y34277951D01*
X3418186Y34240383D01*
X3405661Y34237026D01*
X3268737Y34157972D01*
X3268731Y34157968D01*
X3043618Y33932854D01*
X2982295Y33899369D01*
X2912603Y33904353D01*
X2856670Y33946225D01*
X2832253Y34011689D01*
X2841376Y34067988D01*
X2901570Y34213311D01*
X2901572Y34213319D01*
X2939999Y34406505D01*
X2940000Y34406508D01*
X2940000Y34603490D01*
X2918355Y34712310D01*
X2924583Y34781901D01*
X2967447Y34837078D01*
X3033337Y34860322D01*
X3039973Y34860500D01*
X5571903Y34860500D01*
X5638942Y34840815D01*
G37*
%TD.AperFunction*%
%TA.AperFunction,Conductor*%
G36*
X8489344Y52057196D02*
G01*
X8522126Y52056025D01*
X8524010Y52054717D01*
X8526300Y52054553D01*
X8552564Y52034892D01*
X8579518Y52016177D01*
X8581080Y52013545D01*
X8582233Y52012681D01*
X8597527Y51985823D01*
X8631386Y51904078D01*
X8631393Y51904065D01*
X8718994Y51772962D01*
X8718997Y51772958D01*
X8830491Y51661464D01*
X8830495Y51661461D01*
X8961601Y51573858D01*
X8961603Y51573857D01*
X8961605Y51573856D01*
X9000952Y51557558D01*
X9055354Y51513720D01*
X9077421Y51447427D01*
X9077500Y51442998D01*
X9077500Y44305460D01*
X9057815Y44238421D01*
X9005011Y44192666D01*
X8935853Y44182722D01*
X8884610Y44202357D01*
X8829183Y44239392D01*
X8829172Y44239398D01*
X8683501Y44299736D01*
X8683489Y44299739D01*
X8528845Y44330500D01*
X8528842Y44330500D01*
X8371158Y44330500D01*
X8371155Y44330500D01*
X8216510Y44299739D01*
X8216498Y44299736D01*
X8070827Y44239398D01*
X8070814Y44239391D01*
X7939711Y44151790D01*
X7939707Y44151787D01*
X7828213Y44040293D01*
X7828207Y44040285D01*
X7740607Y43909182D01*
X7740606Y43909181D01*
X7728377Y43879659D01*
X7716924Y43858232D01*
X7703494Y43838130D01*
X7703490Y43838125D01*
X7634916Y43735498D01*
X7634914Y43735494D01*
X7578343Y43598918D01*
X7578340Y43598908D01*
X7549500Y43453921D01*
X7549500Y39034604D01*
X7540062Y38987156D01*
X7536621Y38978847D01*
X7530262Y38963494D01*
X7530260Y38963489D01*
X7499500Y38808847D01*
X7499500Y38651154D01*
X7530261Y38496511D01*
X7530263Y38496503D01*
X7540061Y38472849D01*
X7549500Y38425396D01*
X7549500Y37934000D01*
X7529815Y37866961D01*
X7477011Y37821206D01*
X7425500Y37810000D01*
X7045000Y37810000D01*
X7045000Y37110000D01*
X6545000Y37110000D01*
X6545000Y37648216D01*
X6564685Y37715255D01*
X6607000Y37755603D01*
X6648365Y37779485D01*
X6755515Y37886635D01*
X6831281Y38017865D01*
X6870500Y38164234D01*
X6870500Y38315766D01*
X6831281Y38462135D01*
X6755515Y38593365D01*
X6648365Y38700515D01*
X6562672Y38749990D01*
X6517136Y38776281D01*
X6395614Y38808842D01*
X6370766Y38815500D01*
X6219234Y38815500D01*
X6072863Y38776281D01*
X5941635Y38700515D01*
X5941632Y38700513D01*
X5834487Y38593368D01*
X5834485Y38593365D01*
X5758719Y38462137D01*
X5741487Y38397825D01*
X5719500Y38315766D01*
X5719500Y38164234D01*
X5728603Y38130262D01*
X5758719Y38017864D01*
X5798153Y37949563D01*
X5834485Y37886635D01*
X5834486Y37886634D01*
X5838549Y37879597D01*
X5836346Y37878326D01*
X5856959Y37825017D01*
X5842923Y37756572D01*
X5794112Y37706580D01*
X5780845Y37700134D01*
X5771324Y37696191D01*
X5771315Y37696186D01*
X5607537Y37586752D01*
X5607533Y37586749D01*
X5468251Y37447467D01*
X5468248Y37447463D01*
X5358814Y37283685D01*
X5358807Y37283672D01*
X5283430Y37101693D01*
X5283430Y37101691D01*
X5275138Y37060000D01*
X6078012Y37060000D01*
X6060795Y37050060D01*
X6004940Y36994205D01*
X5965444Y36925796D01*
X5945000Y36849496D01*
X5945000Y36770504D01*
X5965444Y36694204D01*
X6004940Y36625795D01*
X6060795Y36569940D01*
X6078012Y36560000D01*
X5275138Y36560000D01*
X5284618Y36512337D01*
X5282545Y36511925D01*
X5283091Y36451643D01*
X5245850Y36392525D01*
X5182559Y36362927D01*
X5163803Y36361500D01*
X4096197Y36361500D01*
X4029158Y36381185D01*
X3983403Y36433989D01*
X3973459Y36503147D01*
X3975496Y36512315D01*
X3975382Y36512337D01*
X3984862Y36560000D01*
X3181988Y36560000D01*
X3199205Y36569940D01*
X3255060Y36625795D01*
X3294556Y36694204D01*
X3315000Y36770504D01*
X3315000Y36849496D01*
X3294556Y36925796D01*
X3255060Y36994205D01*
X3199205Y37050060D01*
X3181988Y37060000D01*
X3984862Y37060000D01*
X3976569Y37101691D01*
X3976569Y37101693D01*
X3901192Y37283672D01*
X3901185Y37283685D01*
X3791751Y37447463D01*
X3791748Y37447467D01*
X3652466Y37586749D01*
X3652462Y37586752D01*
X3488684Y37696186D01*
X3488671Y37696193D01*
X3306693Y37771570D01*
X3306681Y37771573D01*
X3113495Y37810000D01*
X2865000Y37810000D01*
X2865000Y37110000D01*
X2365000Y37110000D01*
X2365000Y37810000D01*
X2116504Y37810000D01*
X1923318Y37771573D01*
X1923306Y37771570D01*
X1741328Y37696193D01*
X1741315Y37696186D01*
X1577537Y37586752D01*
X1577533Y37586749D01*
X1438251Y37447467D01*
X1438248Y37447463D01*
X1328814Y37283685D01*
X1328807Y37283672D01*
X1253430Y37101693D01*
X1253430Y37101691D01*
X1245138Y37060000D01*
X2048012Y37060000D01*
X2030795Y37050060D01*
X1974940Y36994205D01*
X1935444Y36925796D01*
X1915000Y36849496D01*
X1915000Y36770504D01*
X1935444Y36694204D01*
X1974940Y36625795D01*
X2030795Y36569940D01*
X2048012Y36560000D01*
X1245138Y36560000D01*
X1253430Y36518310D01*
X1253430Y36518308D01*
X1284598Y36443062D01*
X1292067Y36373593D01*
X1260792Y36311114D01*
X1217492Y36281050D01*
X1205510Y36276087D01*
X1205498Y36276081D01*
X1082584Y36193952D01*
X1082580Y36193949D01*
X712181Y35823549D01*
X650858Y35790064D01*
X581166Y35795048D01*
X525233Y35836920D01*
X500816Y35902384D01*
X500500Y35911230D01*
X500500Y45700000D01*
X1245138Y45700000D01*
X2048012Y45700000D01*
X2030795Y45690060D01*
X1974940Y45634205D01*
X1935444Y45565796D01*
X1915000Y45489496D01*
X1915000Y45410504D01*
X1935444Y45334204D01*
X1974940Y45265795D01*
X2030795Y45209940D01*
X2048012Y45200000D01*
X1245138Y45200000D01*
X1253430Y45158310D01*
X1253430Y45158308D01*
X1328807Y44976329D01*
X1328814Y44976316D01*
X1438248Y44812538D01*
X1438251Y44812534D01*
X1577533Y44673252D01*
X1577537Y44673249D01*
X1741315Y44563815D01*
X1741328Y44563808D01*
X1923306Y44488431D01*
X1923318Y44488428D01*
X2116504Y44450001D01*
X2116508Y44450000D01*
X2365000Y44450000D01*
X2365000Y45150000D01*
X2865000Y45150000D01*
X2865000Y44450000D01*
X3113492Y44450000D01*
X3113495Y44450001D01*
X3306681Y44488428D01*
X3306693Y44488431D01*
X3488671Y44563808D01*
X3488684Y44563815D01*
X3652462Y44673249D01*
X3652466Y44673252D01*
X3791748Y44812534D01*
X3791751Y44812538D01*
X3901185Y44976316D01*
X3901192Y44976329D01*
X3976569Y45158308D01*
X3976569Y45158310D01*
X3984862Y45200000D01*
X3181988Y45200000D01*
X3199205Y45209940D01*
X3255060Y45265795D01*
X3294556Y45334204D01*
X3315000Y45410504D01*
X3315000Y45489496D01*
X3294556Y45565796D01*
X3255060Y45634205D01*
X3199205Y45690060D01*
X3181988Y45700000D01*
X3984862Y45700000D01*
X5275138Y45700000D01*
X6078012Y45700000D01*
X6060795Y45690060D01*
X6004940Y45634205D01*
X5965444Y45565796D01*
X5945000Y45489496D01*
X5945000Y45410504D01*
X5965444Y45334204D01*
X6004940Y45265795D01*
X6060795Y45209940D01*
X6078012Y45200000D01*
X5275138Y45200000D01*
X5283430Y45158310D01*
X5283430Y45158308D01*
X5358807Y44976329D01*
X5358814Y44976316D01*
X5468248Y44812538D01*
X5468251Y44812534D01*
X5607533Y44673252D01*
X5607537Y44673249D01*
X5771315Y44563815D01*
X5771328Y44563808D01*
X5780838Y44559869D01*
X5835243Y44516030D01*
X5857310Y44449736D01*
X5840033Y44382037D01*
X5836350Y44376595D01*
X5758719Y44242137D01*
X5719500Y44095766D01*
X5719500Y43944235D01*
X5758719Y43797864D01*
X5769383Y43779394D01*
X5834485Y43666635D01*
X5941635Y43559485D01*
X6072865Y43483719D01*
X6219234Y43444500D01*
X6219236Y43444500D01*
X6370764Y43444500D01*
X6370766Y43444500D01*
X6517135Y43483719D01*
X6648365Y43559485D01*
X6755515Y43666635D01*
X6831281Y43797865D01*
X6870500Y43944234D01*
X6870500Y44095766D01*
X6831281Y44242135D01*
X6755515Y44373365D01*
X6648365Y44480515D01*
X6634654Y44488431D01*
X6606998Y44504399D01*
X6558784Y44554967D01*
X6545000Y44611785D01*
X6545000Y45150000D01*
X7045000Y45150000D01*
X7045000Y44450000D01*
X7443492Y44450000D01*
X7443495Y44450001D01*
X7636681Y44488428D01*
X7636693Y44488431D01*
X7818671Y44563808D01*
X7818684Y44563815D01*
X7982462Y44673249D01*
X7982466Y44673252D01*
X8121748Y44812534D01*
X8121751Y44812538D01*
X8231185Y44976316D01*
X8231192Y44976329D01*
X8306569Y45158308D01*
X8306569Y45158310D01*
X8314862Y45200000D01*
X7511988Y45200000D01*
X7529205Y45209940D01*
X7585060Y45265795D01*
X7624556Y45334204D01*
X7645000Y45410504D01*
X7645000Y45489496D01*
X7624556Y45565796D01*
X7585060Y45634205D01*
X7529205Y45690060D01*
X7511988Y45700000D01*
X8314862Y45700000D01*
X8306569Y45741691D01*
X8306569Y45741693D01*
X8231192Y45923672D01*
X8231185Y45923685D01*
X8121751Y46087463D01*
X8121748Y46087467D01*
X7982466Y46226749D01*
X7982462Y46226752D01*
X7818684Y46336186D01*
X7818671Y46336193D01*
X7636693Y46411570D01*
X7636681Y46411573D01*
X7443495Y46450000D01*
X7045000Y46450000D01*
X7045000Y45750000D01*
X6545000Y45750000D01*
X6545000Y46450000D01*
X6146504Y46450000D01*
X5953318Y46411573D01*
X5953306Y46411570D01*
X5771328Y46336193D01*
X5771315Y46336186D01*
X5607537Y46226752D01*
X5607533Y46226749D01*
X5468251Y46087467D01*
X5468248Y46087463D01*
X5358814Y45923685D01*
X5358807Y45923672D01*
X5283430Y45741693D01*
X5283430Y45741691D01*
X5275138Y45700000D01*
X3984862Y45700000D01*
X3976569Y45741691D01*
X3976569Y45741693D01*
X3901192Y45923672D01*
X3901185Y45923685D01*
X3791751Y46087463D01*
X3791748Y46087467D01*
X3652466Y46226749D01*
X3652462Y46226752D01*
X3488684Y46336186D01*
X3488671Y46336193D01*
X3306693Y46411570D01*
X3306681Y46411573D01*
X3113495Y46450000D01*
X2865000Y46450000D01*
X2865000Y45750000D01*
X2365000Y45750000D01*
X2365000Y46450000D01*
X2116504Y46450000D01*
X1923318Y46411573D01*
X1923306Y46411570D01*
X1741328Y46336193D01*
X1741315Y46336186D01*
X1577537Y46226752D01*
X1577533Y46226749D01*
X1438251Y46087467D01*
X1438248Y46087463D01*
X1328814Y45923685D01*
X1328807Y45923672D01*
X1253430Y45741693D01*
X1253430Y45741691D01*
X1245138Y45700000D01*
X500500Y45700000D01*
X500500Y50532298D01*
X520185Y50599337D01*
X572989Y50645092D01*
X642147Y50655036D01*
X648667Y50653920D01*
X703854Y50642942D01*
X721157Y50639500D01*
X721158Y50639500D01*
X878844Y50639500D01*
X878845Y50639501D01*
X1033497Y50670263D01*
X1179179Y50730606D01*
X1179185Y50730610D01*
X1310875Y50818602D01*
X1377553Y50839480D01*
X1379766Y50839500D01*
X6873331Y50839500D01*
X6873347Y50839499D01*
X6880943Y50839499D01*
X7039054Y50839499D01*
X7039057Y50839499D01*
X7191785Y50880423D01*
X7263065Y50921577D01*
X7328716Y50959480D01*
X7440520Y51071284D01*
X7440520Y51071286D01*
X7450724Y51081489D01*
X7450728Y51081494D01*
X8395287Y52026054D01*
X8424075Y52041773D01*
X8452300Y52058519D01*
X8454593Y52058438D01*
X8456608Y52059537D01*
X8489344Y52057196D01*
G37*
%TD.AperFunction*%
%TA.AperFunction,Conductor*%
G36*
X19786942Y43939815D02*
G01*
X19807584Y43923181D01*
X20803181Y42927584D01*
X20817884Y42900657D01*
X20834477Y42874838D01*
X20835368Y42868638D01*
X20836666Y42866261D01*
X20839500Y42839903D01*
X20839500Y42739098D01*
X20819815Y42672059D01*
X20767011Y42626304D01*
X20697853Y42616360D01*
X20634297Y42645385D01*
X20627819Y42651417D01*
X20257590Y43021645D01*
X20257588Y43021648D01*
X20138717Y43140519D01*
X20138716Y43140520D01*
X20051904Y43190640D01*
X20051904Y43190641D01*
X20051900Y43190642D01*
X20001785Y43219577D01*
X19849057Y43260501D01*
X19690943Y43260501D01*
X19683347Y43260501D01*
X19683331Y43260500D01*
X16109766Y43260500D01*
X16042727Y43280185D01*
X16040875Y43281398D01*
X15909185Y43369391D01*
X15909172Y43369398D01*
X15763501Y43429736D01*
X15763489Y43429739D01*
X15608845Y43460500D01*
X15608842Y43460500D01*
X15451158Y43460500D01*
X15451155Y43460500D01*
X15296510Y43429739D01*
X15296498Y43429736D01*
X15150827Y43369398D01*
X15150814Y43369391D01*
X15019711Y43281790D01*
X15019707Y43281787D01*
X14908213Y43170293D01*
X14908210Y43170289D01*
X14820609Y43039186D01*
X14820602Y43039173D01*
X14760264Y42893502D01*
X14760261Y42893490D01*
X14729500Y42738847D01*
X14729500Y42581154D01*
X14760261Y42426511D01*
X14760264Y42426499D01*
X14820602Y42280828D01*
X14820609Y42280815D01*
X14908210Y42149712D01*
X14908213Y42149708D01*
X15019707Y42038214D01*
X15019711Y42038211D01*
X15150814Y41950610D01*
X15150827Y41950603D01*
X15296498Y41890265D01*
X15296503Y41890263D01*
X15451153Y41859501D01*
X15451156Y41859500D01*
X15451158Y41859500D01*
X15608844Y41859500D01*
X15608845Y41859501D01*
X15763497Y41890263D01*
X15909179Y41950606D01*
X15918503Y41956836D01*
X16040875Y42038602D01*
X16107553Y42059480D01*
X16109766Y42059500D01*
X19469903Y42059500D01*
X19536942Y42039815D01*
X19557583Y42023182D01*
X19838872Y41741892D01*
X20031284Y41549480D01*
X20103181Y41477583D01*
X20136666Y41416260D01*
X20139500Y41389902D01*
X20139500Y39479766D01*
X20119815Y39412727D01*
X20118602Y39410875D01*
X20030609Y39279186D01*
X20030602Y39279173D01*
X19970264Y39133502D01*
X19970261Y39133490D01*
X19939500Y38978847D01*
X19939500Y38821154D01*
X19967137Y38682213D01*
X19960910Y38612621D01*
X19918047Y38557444D01*
X19852157Y38534200D01*
X19784160Y38550268D01*
X19761635Y38567446D01*
X19761610Y38567414D01*
X19760728Y38568138D01*
X19757839Y38570341D01*
X19756903Y38571277D01*
X19756899Y38571280D01*
X19625796Y38658881D01*
X19625783Y38658888D01*
X19480112Y38719226D01*
X19480100Y38719229D01*
X19325456Y38749990D01*
X19325453Y38749990D01*
X19167769Y38749990D01*
X19167766Y38749990D01*
X19013121Y38719229D01*
X19013109Y38719226D01*
X18968962Y38700939D01*
X18921510Y38691500D01*
X15915892Y38691500D01*
X15770793Y38652622D01*
X15640705Y38577514D01*
X15640702Y38577512D01*
X15382181Y38318990D01*
X15320858Y38285505D01*
X15251166Y38290489D01*
X15195233Y38332361D01*
X15170816Y38397825D01*
X15170500Y38406671D01*
X15170500Y39589055D01*
X15170500Y39589057D01*
X15149952Y39665743D01*
X15129577Y39741785D01*
X15082989Y39822477D01*
X15050520Y39878716D01*
X14938716Y39990520D01*
X14938715Y39990521D01*
X14934385Y39994851D01*
X14934374Y39994861D01*
X14358819Y40570416D01*
X14325334Y40631739D01*
X14322500Y40658097D01*
X14322500Y42391156D01*
X14321500Y42406422D01*
X14321500Y42536630D01*
X14341185Y42603669D01*
X14342362Y42605469D01*
X14399394Y42690821D01*
X14459737Y42836503D01*
X14490500Y42991158D01*
X14490500Y43148842D01*
X14490500Y43148845D01*
X14490499Y43148847D01*
X14482186Y43190640D01*
X14459737Y43303497D01*
X14456836Y43310500D01*
X14399397Y43449173D01*
X14399390Y43449186D01*
X14311789Y43580289D01*
X14311786Y43580293D01*
X14200292Y43691787D01*
X14200288Y43691790D01*
X14139514Y43732398D01*
X14094709Y43786010D01*
X14086002Y43855335D01*
X14116156Y43918363D01*
X14175600Y43955082D01*
X14208405Y43959500D01*
X19719903Y43959500D01*
X19786942Y43939815D01*
G37*
%TD.AperFunction*%
%TA.AperFunction,Conductor*%
G36*
X29442539Y59459815D02*
G01*
X29488294Y59407011D01*
X29499500Y59355500D01*
X29499500Y42256198D01*
X29479815Y42189159D01*
X29427011Y42143404D01*
X29357853Y42133460D01*
X29294297Y42162485D01*
X29287819Y42168517D01*
X28908819Y42547517D01*
X28875334Y42608840D01*
X28872500Y42635198D01*
X28872500Y47021311D01*
X28872500Y47021314D01*
X28857666Y47076677D01*
X28831577Y47174042D01*
X28791477Y47243497D01*
X28752520Y47310973D01*
X28640716Y47422777D01*
X28640715Y47422778D01*
X28636385Y47427108D01*
X28636374Y47427118D01*
X27306819Y48756673D01*
X27273334Y48817996D01*
X27270500Y48844354D01*
X27270500Y49200235D01*
X27290185Y49267274D01*
X27291398Y49269126D01*
X27379390Y49400815D01*
X27379390Y49400816D01*
X27379394Y49400821D01*
X27439737Y49546503D01*
X27470500Y49701158D01*
X27470500Y49858842D01*
X27470500Y49858845D01*
X27470499Y49858847D01*
X27439738Y50013490D01*
X27439737Y50013497D01*
X27439735Y50013502D01*
X27379397Y50159173D01*
X27379390Y50159186D01*
X27291789Y50290289D01*
X27291786Y50290293D01*
X27180292Y50401787D01*
X27180288Y50401790D01*
X27049185Y50489391D01*
X27049172Y50489398D01*
X26903501Y50549736D01*
X26903497Y50549737D01*
X26902962Y50549844D01*
X26902709Y50549976D01*
X26897665Y50551506D01*
X26897955Y50552463D01*
X26841051Y50582227D01*
X26806476Y50642942D01*
X26805535Y50695653D01*
X26830500Y50821156D01*
X26830500Y50978845D01*
X26830499Y50978847D01*
X26799738Y51133490D01*
X26799737Y51133497D01*
X26799735Y51133502D01*
X26739397Y51279173D01*
X26739390Y51279186D01*
X26651789Y51410289D01*
X26651786Y51410293D01*
X26540292Y51521787D01*
X26540288Y51521790D01*
X26409185Y51609391D01*
X26409172Y51609398D01*
X26263501Y51669736D01*
X26263492Y51669739D01*
X26222980Y51677797D01*
X26161070Y51710183D01*
X26126496Y51770899D01*
X26130237Y51840668D01*
X26137818Y51857874D01*
X26139387Y51860811D01*
X26139394Y51860821D01*
X26199737Y52006503D01*
X26230500Y52161158D01*
X26230500Y52318842D01*
X26230500Y52318845D01*
X26230499Y52318847D01*
X26199738Y52473490D01*
X26199737Y52473497D01*
X26162099Y52564362D01*
X26154631Y52633829D01*
X26185906Y52696309D01*
X26245995Y52731961D01*
X26300853Y52733430D01*
X26421155Y52709500D01*
X26421158Y52709500D01*
X26578844Y52709500D01*
X26578845Y52709501D01*
X26733497Y52740263D01*
X26879179Y52800606D01*
X27010289Y52888211D01*
X27121789Y52999711D01*
X27209394Y53130821D01*
X27269737Y53276503D01*
X27300500Y53431158D01*
X27300500Y53588842D01*
X27300500Y53588845D01*
X27300499Y53588847D01*
X27291020Y53636499D01*
X27269737Y53743497D01*
X27249996Y53791156D01*
X27209397Y53889173D01*
X27209390Y53889186D01*
X27121398Y54020875D01*
X27100520Y54087553D01*
X27100500Y54089766D01*
X27100500Y54940941D01*
X27100501Y54940954D01*
X27100501Y55109055D01*
X27100501Y55109057D01*
X27059577Y55261785D01*
X27059575Y55261788D01*
X27059575Y55261790D01*
X27059574Y55261791D01*
X27024861Y55321915D01*
X27024860Y55321916D01*
X26980520Y55398716D01*
X26868716Y55510520D01*
X26868715Y55510521D01*
X26864385Y55514851D01*
X26864374Y55514861D01*
X26276916Y56102319D01*
X26272578Y56110263D01*
X26265333Y56115686D01*
X26256095Y56140449D01*
X26243431Y56163642D01*
X26244076Y56172669D01*
X26240913Y56181149D01*
X26246529Y56206973D01*
X26248415Y56233334D01*
X26254232Y56242387D01*
X26255763Y56249423D01*
X26276901Y56277662D01*
X26276907Y56277673D01*
X26292520Y56293284D01*
X26292521Y56293287D01*
X26479627Y56480394D01*
X26540949Y56513877D01*
X26543116Y56514328D01*
X26598111Y56525268D01*
X26673497Y56540263D01*
X26819179Y56600606D01*
X26950289Y56688211D01*
X27061789Y56799711D01*
X27149394Y56930821D01*
X27209737Y57076503D01*
X27240500Y57231158D01*
X27240500Y57388842D01*
X27240500Y57388845D01*
X27240499Y57388847D01*
X27209738Y57543490D01*
X27209737Y57543497D01*
X27209728Y57543519D01*
X27149397Y57689173D01*
X27149390Y57689186D01*
X27061789Y57820289D01*
X27061786Y57820293D01*
X26950292Y57931787D01*
X26950288Y57931790D01*
X26819185Y58019391D01*
X26819172Y58019398D01*
X26673501Y58079736D01*
X26673489Y58079739D01*
X26518845Y58110500D01*
X26518842Y58110500D01*
X26361158Y58110500D01*
X26361155Y58110500D01*
X26206510Y58079739D01*
X26206498Y58079736D01*
X26060827Y58019398D01*
X26060814Y58019391D01*
X25929711Y57931790D01*
X25929707Y57931787D01*
X25818213Y57820293D01*
X25818210Y57820289D01*
X25730609Y57689186D01*
X25730602Y57689173D01*
X25670264Y57543502D01*
X25670261Y57543490D01*
X25639500Y57388847D01*
X25638903Y57382782D01*
X25637395Y57382931D01*
X25630855Y57360657D01*
X25624332Y57330670D01*
X25620577Y57325655D01*
X25619815Y57323058D01*
X25603181Y57302416D01*
X25599584Y57298819D01*
X25538261Y57265334D01*
X25511903Y57262500D01*
X23147848Y57262500D01*
X23080809Y57282185D01*
X23035054Y57334989D01*
X23026231Y57362308D01*
X22999738Y57495492D01*
X22999737Y57495493D01*
X22999737Y57495497D01*
X22979846Y57543519D01*
X22939397Y57641173D01*
X22939390Y57641186D01*
X22851789Y57772289D01*
X22851786Y57772293D01*
X22740292Y57883787D01*
X22740288Y57883790D01*
X22609185Y57971391D01*
X22609172Y57971398D01*
X22463501Y58031736D01*
X22463489Y58031739D01*
X22308845Y58062500D01*
X22308842Y58062500D01*
X22151158Y58062500D01*
X22151155Y58062500D01*
X21996510Y58031739D01*
X21996498Y58031736D01*
X21850827Y57971398D01*
X21850814Y57971391D01*
X21719125Y57883398D01*
X21652447Y57862520D01*
X21650234Y57862500D01*
X21502940Y57862500D01*
X21462019Y57851536D01*
X21462019Y57851535D01*
X21424751Y57841549D01*
X21350214Y57821577D01*
X21350209Y57821574D01*
X21213290Y57742525D01*
X21213282Y57742519D01*
X21170583Y57699819D01*
X21109260Y57666334D01*
X21082902Y57663500D01*
X11708369Y57663500D01*
X11708353Y57663501D01*
X11700757Y57663501D01*
X11542643Y57663501D01*
X11435287Y57634735D01*
X11389910Y57622576D01*
X11389909Y57622575D01*
X11339796Y57593641D01*
X11339795Y57593640D01*
X11319265Y57581787D01*
X11252985Y57543521D01*
X11252982Y57543519D01*
X9197481Y55488018D01*
X9197479Y55488015D01*
X9150398Y55406466D01*
X9150396Y55406464D01*
X9118425Y55351091D01*
X9118423Y55351088D01*
X9094496Y55261791D01*
X9077499Y55198357D01*
X9077499Y55198355D01*
X9077499Y55030254D01*
X9077500Y55030241D01*
X9077500Y54458097D01*
X9057815Y54391058D01*
X9041181Y54370416D01*
X6747584Y52076819D01*
X6686261Y52043334D01*
X6659903Y52040500D01*
X1379766Y52040500D01*
X1312727Y52060185D01*
X1310875Y52061398D01*
X1179185Y52149391D01*
X1179172Y52149398D01*
X1033501Y52209736D01*
X1033489Y52209739D01*
X878845Y52240500D01*
X878842Y52240500D01*
X721158Y52240500D01*
X721155Y52240500D01*
X648691Y52226086D01*
X579100Y52232313D01*
X523922Y52275176D01*
X500678Y52341066D01*
X500500Y52347703D01*
X500500Y53618847D01*
X3859500Y53618847D01*
X3859500Y53461154D01*
X3890261Y53306511D01*
X3890264Y53306499D01*
X3950602Y53160828D01*
X3950609Y53160815D01*
X4038210Y53029712D01*
X4038213Y53029708D01*
X4149707Y52918214D01*
X4149711Y52918211D01*
X4280814Y52830610D01*
X4280827Y52830603D01*
X4372629Y52792578D01*
X4426503Y52770263D01*
X4577312Y52740265D01*
X4581153Y52739501D01*
X4581156Y52739500D01*
X4581158Y52739500D01*
X4738844Y52739500D01*
X4738845Y52739501D01*
X4893497Y52770263D01*
X5039179Y52830606D01*
X5170289Y52918211D01*
X5281789Y53029711D01*
X5369394Y53160821D01*
X5429737Y53306503D01*
X5460500Y53461158D01*
X5460500Y53618842D01*
X5460500Y53618845D01*
X5460499Y53618847D01*
X5440589Y53718940D01*
X5429737Y53773497D01*
X5422423Y53791154D01*
X5369397Y53919173D01*
X5369390Y53919186D01*
X5281789Y54050289D01*
X5281786Y54050293D01*
X5170292Y54161787D01*
X5170288Y54161790D01*
X5039185Y54249391D01*
X5039172Y54249398D01*
X4893501Y54309736D01*
X4893489Y54309739D01*
X4738845Y54340500D01*
X4738842Y54340500D01*
X4581158Y54340500D01*
X4581155Y54340500D01*
X4426510Y54309739D01*
X4426498Y54309736D01*
X4280827Y54249398D01*
X4280814Y54249391D01*
X4149711Y54161790D01*
X4149707Y54161787D01*
X4038213Y54050293D01*
X4038210Y54050289D01*
X3950609Y53919186D01*
X3950602Y53919173D01*
X3890264Y53773502D01*
X3890261Y53773490D01*
X3859500Y53618847D01*
X500500Y53618847D01*
X500500Y54981457D01*
X1359499Y54981457D01*
X1397947Y54788171D01*
X1397950Y54788161D01*
X1473364Y54606093D01*
X1473371Y54606080D01*
X1582860Y54442219D01*
X1582863Y54442215D01*
X1722214Y54302864D01*
X1722218Y54302861D01*
X1886079Y54193372D01*
X1886092Y54193365D01*
X2061750Y54120606D01*
X2068165Y54117949D01*
X2068169Y54117949D01*
X2068170Y54117948D01*
X2261456Y54079500D01*
X2261459Y54079500D01*
X2458543Y54079500D01*
X2596314Y54106905D01*
X2651835Y54117949D01*
X2833914Y54193368D01*
X2997782Y54302861D01*
X3137139Y54442218D01*
X3246632Y54606086D01*
X3322051Y54788165D01*
X3336110Y54858842D01*
X3360500Y54981457D01*
X3360500Y55178544D01*
X3322052Y55371830D01*
X3322051Y55371831D01*
X3322051Y55371835D01*
X3310918Y55398713D01*
X3246635Y55553908D01*
X3246628Y55553921D01*
X3137139Y55717782D01*
X3137136Y55717786D01*
X2997785Y55857137D01*
X2997781Y55857140D01*
X2833920Y55966629D01*
X2833907Y55966636D01*
X2651839Y56042050D01*
X2651829Y56042053D01*
X2458543Y56080500D01*
X2458541Y56080500D01*
X2261459Y56080500D01*
X2261457Y56080500D01*
X2068170Y56042053D01*
X2068160Y56042050D01*
X1886092Y55966636D01*
X1886079Y55966629D01*
X1722218Y55857140D01*
X1722214Y55857137D01*
X1582863Y55717786D01*
X1582860Y55717782D01*
X1473371Y55553921D01*
X1473364Y55553908D01*
X1397950Y55371840D01*
X1397947Y55371830D01*
X1359500Y55178544D01*
X1359500Y55178541D01*
X1359500Y54981459D01*
X1359500Y54981457D01*
X1359499Y54981457D01*
X500500Y54981457D01*
X500500Y57038847D01*
X3689500Y57038847D01*
X3689500Y56881154D01*
X3720261Y56726511D01*
X3720264Y56726499D01*
X3780602Y56580828D01*
X3780609Y56580815D01*
X3868210Y56449712D01*
X3868213Y56449708D01*
X3979707Y56338214D01*
X3979711Y56338211D01*
X4110814Y56250610D01*
X4110827Y56250603D01*
X4216161Y56206973D01*
X4256503Y56190263D01*
X4390335Y56163642D01*
X4411153Y56159501D01*
X4411156Y56159500D01*
X4411158Y56159500D01*
X4568844Y56159500D01*
X4568845Y56159501D01*
X4723497Y56190263D01*
X4836166Y56236933D01*
X4869172Y56250603D01*
X4869172Y56250604D01*
X4869179Y56250606D01*
X5000289Y56338211D01*
X5111789Y56449711D01*
X5199394Y56580821D01*
X5259737Y56726503D01*
X5290500Y56881158D01*
X5290500Y57038842D01*
X5290500Y57038845D01*
X5290499Y57038847D01*
X5259737Y57193497D01*
X5244138Y57231156D01*
X5199397Y57339173D01*
X5199390Y57339186D01*
X5111789Y57470289D01*
X5111786Y57470293D01*
X5000292Y57581787D01*
X5000288Y57581790D01*
X4869185Y57669391D01*
X4869172Y57669398D01*
X4723501Y57729736D01*
X4723489Y57729739D01*
X4568845Y57760500D01*
X4568842Y57760500D01*
X4411158Y57760500D01*
X4411155Y57760500D01*
X4256510Y57729739D01*
X4256498Y57729736D01*
X4110827Y57669398D01*
X4110814Y57669391D01*
X3979711Y57581790D01*
X3979707Y57581787D01*
X3868213Y57470293D01*
X3868210Y57470289D01*
X3780609Y57339186D01*
X3780602Y57339173D01*
X3720264Y57193502D01*
X3720261Y57193490D01*
X3689500Y57038847D01*
X500500Y57038847D01*
X500500Y59355500D01*
X520185Y59422539D01*
X572989Y59468294D01*
X624500Y59479500D01*
X29375500Y59479500D01*
X29442539Y59459815D01*
G37*
%TD.AperFunction*%
%TA.AperFunction,Conductor*%
G36*
X24296942Y55239815D02*
G01*
X24317584Y55223181D01*
X24725425Y54815340D01*
X24734486Y54798745D01*
X24747618Y54785137D01*
X24758027Y54755633D01*
X24758910Y54754017D01*
X24759361Y54751854D01*
X24763176Y54732678D01*
X24756950Y54663086D01*
X24714089Y54607908D01*
X24648200Y54584661D01*
X24594107Y54593922D01*
X24483501Y54639736D01*
X24483489Y54639739D01*
X24328845Y54670500D01*
X24328842Y54670500D01*
X24171158Y54670500D01*
X24171155Y54670500D01*
X24016510Y54639739D01*
X24016498Y54639736D01*
X23870827Y54579398D01*
X23870814Y54579391D01*
X23739711Y54491790D01*
X23739707Y54491787D01*
X23628213Y54380293D01*
X23628210Y54380289D01*
X23540609Y54249186D01*
X23540602Y54249173D01*
X23480264Y54103502D01*
X23480261Y54103490D01*
X23449500Y53948847D01*
X23449500Y53791154D01*
X23480261Y53636511D01*
X23480264Y53636499D01*
X23540602Y53490828D01*
X23540609Y53490815D01*
X23628602Y53359126D01*
X23649480Y53292449D01*
X23649500Y53290235D01*
X23649500Y47734500D01*
X23629815Y47667461D01*
X23577011Y47621706D01*
X23525500Y47610500D01*
X18299766Y47610500D01*
X18232727Y47630185D01*
X18230875Y47631398D01*
X18099185Y47719391D01*
X18099172Y47719398D01*
X17953501Y47779736D01*
X17953489Y47779739D01*
X17798845Y47810500D01*
X17798842Y47810500D01*
X17641158Y47810500D01*
X17641155Y47810500D01*
X17486510Y47779739D01*
X17486498Y47779736D01*
X17340827Y47719398D01*
X17340814Y47719391D01*
X17209711Y47631790D01*
X17209707Y47631787D01*
X17098213Y47520293D01*
X17098210Y47520289D01*
X17010609Y47389186D01*
X17010602Y47389173D01*
X16950264Y47243502D01*
X16950261Y47243490D01*
X16919500Y47088847D01*
X16919500Y46931154D01*
X16951451Y46770528D01*
X16949147Y46770070D01*
X16949671Y46710614D01*
X16912415Y46651505D01*
X16849118Y46621922D01*
X16830391Y46620500D01*
X15084234Y46620500D01*
X15017195Y46640185D01*
X15015388Y46641368D01*
X14973444Y46669394D01*
X14973437Y46669398D01*
X14827766Y46729736D01*
X14827754Y46729739D01*
X14673110Y46760500D01*
X14673107Y46760500D01*
X14515423Y46760500D01*
X14515418Y46760500D01*
X14432965Y46744099D01*
X14363373Y46750326D01*
X14308196Y46793189D01*
X14284952Y46859079D01*
X14294213Y46913168D01*
X14299737Y46926503D01*
X14330500Y47081158D01*
X14330500Y47238842D01*
X14330500Y47238845D01*
X14330499Y47238847D01*
X14329573Y47243502D01*
X14299737Y47393497D01*
X14285811Y47427118D01*
X14239397Y47539173D01*
X14239390Y47539186D01*
X14151789Y47670289D01*
X14151786Y47670293D01*
X14040292Y47781787D01*
X14040288Y47781790D01*
X13909185Y47869391D01*
X13909175Y47869396D01*
X13861620Y47889094D01*
X13807217Y47932935D01*
X13785152Y47999230D01*
X13794511Y48051105D01*
X13854737Y48196503D01*
X13885500Y48351158D01*
X13885500Y48508842D01*
X13885500Y48508845D01*
X13885499Y48508847D01*
X13854738Y48663490D01*
X13854737Y48663497D01*
X13801099Y48792992D01*
X13794397Y48809173D01*
X13794390Y48809186D01*
X13706789Y48940289D01*
X13706786Y48940293D01*
X13598110Y49048969D01*
X13564625Y49110292D01*
X13561935Y49142624D01*
X13562575Y49155902D01*
X13572501Y49192943D01*
X13572501Y49351057D01*
X13572500Y49351061D01*
X13572500Y53718940D01*
X13572501Y53718953D01*
X13572501Y53887056D01*
X13571932Y53889179D01*
X13531577Y54039784D01*
X13530541Y54041578D01*
X13452524Y54176710D01*
X13452518Y54176718D01*
X12834573Y54794663D01*
X12801088Y54855986D01*
X12800637Y54858153D01*
X12776110Y54981457D01*
X12769737Y55013497D01*
X12738856Y55088050D01*
X12731388Y55157516D01*
X12762663Y55219996D01*
X12822752Y55255648D01*
X12853418Y55259500D01*
X24229903Y55259500D01*
X24296942Y55239815D01*
G37*
%TD.AperFunction*%
%TD*%
%TA.AperFunction,Conductor*%
%TO.N,PD_GND*%
G36*
X15602177Y32768918D02*
G01*
X15669170Y32749089D01*
X15689586Y32732600D01*
X15722686Y32699500D01*
X15836814Y32633608D01*
X15964108Y32599500D01*
X15964110Y32599500D01*
X16095890Y32599500D01*
X16095892Y32599500D01*
X16223186Y32633608D01*
X16337314Y32699500D01*
X16368567Y32730753D01*
X16429889Y32764239D01*
X16456508Y32767073D01*
X17513184Y32764790D01*
X17580176Y32744961D01*
X17625816Y32692059D01*
X17635610Y32622879D01*
X17632686Y32608699D01*
X17610647Y32526447D01*
X17610647Y32394662D01*
X17644755Y32267366D01*
X17676155Y32212980D01*
X17710647Y32153239D01*
X17803833Y32060053D01*
X17811910Y32055390D01*
X17860125Y32004824D01*
X17873349Y31936217D01*
X17857301Y31886010D01*
X17854890Y31881834D01*
X17854887Y31881827D01*
X17820779Y31754533D01*
X17820779Y31622750D01*
X17854887Y31495454D01*
X17877076Y31457023D01*
X17920779Y31381327D01*
X18013965Y31288141D01*
X18128093Y31222249D01*
X18255387Y31188141D01*
X18255389Y31188141D01*
X18387169Y31188141D01*
X18387171Y31188141D01*
X18514465Y31222249D01*
X18628593Y31288141D01*
X18721779Y31381327D01*
X18787671Y31495455D01*
X18821779Y31622749D01*
X18821779Y31754533D01*
X18787671Y31881827D01*
X18721779Y31995955D01*
X18628593Y32089141D01*
X18620513Y32093806D01*
X18572299Y32144373D01*
X18559077Y32212980D01*
X18575133Y32263200D01*
X18577538Y32267366D01*
X18577539Y32267367D01*
X18611647Y32394661D01*
X18611647Y32526445D01*
X18590300Y32606114D01*
X18591963Y32675960D01*
X18631125Y32733823D01*
X18695354Y32761327D01*
X18710329Y32762204D01*
X19946270Y32759534D01*
X20013265Y32739704D01*
X20058905Y32686802D01*
X20070000Y32635534D01*
X20070000Y29961505D01*
X20050315Y29894466D01*
X19997511Y29848711D01*
X19928353Y29838767D01*
X19884000Y29854118D01*
X19840138Y29879442D01*
X19840135Y29879443D01*
X19712841Y29913551D01*
X19581057Y29913551D01*
X19453761Y29879443D01*
X19339635Y29813551D01*
X19339632Y29813549D01*
X19246451Y29720368D01*
X19246449Y29720365D01*
X19180557Y29606239D01*
X19146449Y29478943D01*
X19146449Y29347160D01*
X19180557Y29219864D01*
X19213503Y29162801D01*
X19246449Y29105737D01*
X19339635Y29012551D01*
X19453763Y28946659D01*
X19581057Y28912551D01*
X19581059Y28912551D01*
X19712839Y28912551D01*
X19712841Y28912551D01*
X19840135Y28946659D01*
X19883999Y28971985D01*
X19951898Y28988458D01*
X20017925Y28965607D01*
X20061117Y28910686D01*
X20070000Y28864598D01*
X20070000Y13524000D01*
X20050315Y13456961D01*
X19997511Y13411206D01*
X19946000Y13400000D01*
X16604500Y13400000D01*
X16537461Y13419685D01*
X16491706Y13472489D01*
X16480500Y13524000D01*
X16480500Y13535890D01*
X16480500Y13535892D01*
X16446392Y13663186D01*
X16380500Y13777314D01*
X16287314Y13870500D01*
X16230250Y13903446D01*
X16173187Y13936392D01*
X16109539Y13953446D01*
X16045892Y13970500D01*
X15914108Y13970500D01*
X15786812Y13936392D01*
X15672686Y13870500D01*
X15672683Y13870498D01*
X15579502Y13777317D01*
X15579500Y13777314D01*
X15513608Y13663188D01*
X15479500Y13535892D01*
X15479500Y13524000D01*
X15459815Y13456961D01*
X15407011Y13411206D01*
X15355500Y13400000D01*
X10896595Y13400000D01*
X10829556Y13419685D01*
X10783801Y13472489D01*
X10772595Y13524324D01*
X10777386Y15355824D01*
X10797246Y15422812D01*
X10850170Y15468429D01*
X10901386Y15479500D01*
X10906890Y15479500D01*
X10906892Y15479500D01*
X11034186Y15513608D01*
X11148314Y15579500D01*
X11241500Y15672686D01*
X11272219Y15725892D01*
X12529500Y15725892D01*
X12529500Y15594108D01*
X12540099Y15554552D01*
X12563608Y15466813D01*
X12596554Y15409750D01*
X12629500Y15352686D01*
X12722686Y15259500D01*
X12836814Y15193608D01*
X12964108Y15159500D01*
X12964110Y15159500D01*
X13095890Y15159500D01*
X13095892Y15159500D01*
X13223186Y15193608D01*
X13337314Y15259500D01*
X13337315Y15259502D01*
X13343179Y15262887D01*
X13405180Y15279500D01*
X13750500Y15279500D01*
X13817539Y15259815D01*
X13863294Y15207011D01*
X13874500Y15155500D01*
X13874500Y14835248D01*
X13886131Y14776771D01*
X13886132Y14776770D01*
X13930447Y14710448D01*
X13996769Y14666133D01*
X13996770Y14666132D01*
X14055247Y14654501D01*
X14055250Y14654500D01*
X14055252Y14654500D01*
X15344750Y14654500D01*
X15344751Y14654501D01*
X15403231Y14666133D01*
X15403235Y14666136D01*
X15408577Y14668348D01*
X15478046Y14675820D01*
X15488213Y14672835D01*
X15555247Y14659501D01*
X15555250Y14659500D01*
X15555252Y14659500D01*
X15944750Y14659500D01*
X15944751Y14659501D01*
X15964418Y14663413D01*
X16003228Y14671132D01*
X16003228Y14671133D01*
X16003231Y14671133D01*
X16031170Y14689802D01*
X16097845Y14710680D01*
X16162061Y14694087D01*
X16266810Y14633610D01*
X16266811Y14633610D01*
X16266814Y14633608D01*
X16394108Y14599500D01*
X16394110Y14599500D01*
X16525890Y14599500D01*
X16525892Y14599500D01*
X16653186Y14633608D01*
X16767314Y14699500D01*
X16860500Y14792686D01*
X16926392Y14906814D01*
X16960500Y15034108D01*
X16960500Y15165892D01*
X16926392Y15293186D01*
X16860500Y15407314D01*
X16767314Y15500500D01*
X16710250Y15533446D01*
X16653187Y15566392D01*
X16549747Y15594108D01*
X16525892Y15600500D01*
X16394108Y15600500D01*
X16394106Y15600500D01*
X16275727Y15568781D01*
X16205878Y15570444D01*
X16148015Y15609607D01*
X16120512Y15673836D01*
X16122017Y15712746D01*
X16125500Y15730252D01*
X16125500Y16319748D01*
X16125500Y16319751D01*
X16125499Y16319753D01*
X16113868Y16378230D01*
X16113867Y16378231D01*
X16069552Y16444553D01*
X16003230Y16488868D01*
X16003229Y16488869D01*
X15944752Y16500500D01*
X15944748Y16500500D01*
X15555252Y16500500D01*
X15555249Y16500500D01*
X15484791Y16486485D01*
X15484176Y16489573D01*
X15433998Y16484186D01*
X15408582Y16491651D01*
X15403229Y16493869D01*
X15344752Y16505500D01*
X15344748Y16505500D01*
X14055252Y16505500D01*
X14055247Y16505500D01*
X13996770Y16493869D01*
X13996769Y16493868D01*
X13930447Y16449553D01*
X13886132Y16383231D01*
X13886131Y16383230D01*
X13874500Y16324753D01*
X13874500Y16004500D01*
X13871949Y15995815D01*
X13873238Y15986853D01*
X13862259Y15962813D01*
X13854815Y15937461D01*
X13847974Y15931534D01*
X13844213Y15923297D01*
X13821978Y15909008D01*
X13802011Y15891706D01*
X13791496Y15889419D01*
X13785435Y15885523D01*
X13750500Y15880500D01*
X13552213Y15880500D01*
X13485174Y15900185D01*
X13444828Y15942497D01*
X13430500Y15967314D01*
X13337314Y16060500D01*
X13280250Y16093446D01*
X13223187Y16126392D01*
X13159539Y16143446D01*
X13095892Y16160500D01*
X12964108Y16160500D01*
X12836812Y16126392D01*
X12722686Y16060500D01*
X12722683Y16060498D01*
X12629502Y15967317D01*
X12629500Y15967314D01*
X12563608Y15853188D01*
X12530669Y15730254D01*
X12529500Y15725892D01*
X11272219Y15725892D01*
X11307392Y15786814D01*
X11341500Y15914108D01*
X11341500Y16045892D01*
X11307392Y16173186D01*
X11241500Y16287314D01*
X11148314Y16380500D01*
X11143584Y16383231D01*
X11114497Y16400026D01*
X11066283Y16450594D01*
X11052500Y16507411D01*
X11052500Y17063976D01*
X11072185Y17131015D01*
X11088819Y17151657D01*
X11241319Y17304157D01*
X11264242Y17359500D01*
X11282500Y17403577D01*
X11282500Y18316422D01*
X11254198Y18384748D01*
X11241319Y18415841D01*
X11216641Y18440519D01*
X11088818Y18568345D01*
X11055334Y18629668D01*
X11052500Y18656025D01*
X11052500Y19675805D01*
X11052500Y19675806D01*
X11019642Y19755131D01*
X11011319Y19775226D01*
X11011318Y19775227D01*
X11011318Y19775228D01*
X10880819Y19905727D01*
X10847334Y19967050D01*
X10844500Y19993408D01*
X10844500Y22065778D01*
X10844500Y22065779D01*
X10820376Y22124018D01*
X10804748Y22161749D01*
X10795311Y22209517D01*
X10796896Y22815667D01*
X10816755Y22882650D01*
X10869679Y22928267D01*
X10875704Y22930424D01*
X10875674Y22930496D01*
X10883180Y22933607D01*
X10883186Y22933608D01*
X10997314Y22999500D01*
X11090500Y23092686D01*
X11156392Y23206814D01*
X11190500Y23334108D01*
X11190500Y23465892D01*
X11156392Y23593186D01*
X11090500Y23707314D01*
X10997314Y23800500D01*
X10883186Y23866392D01*
X10883184Y23866393D01*
X10876500Y23869161D01*
X10822097Y23913002D01*
X10800031Y23979296D01*
X10799952Y23984047D01*
X10800140Y24055858D01*
X10802752Y25054777D01*
X10822611Y25121758D01*
X10864748Y25161831D01*
X10947314Y25209500D01*
X11040500Y25302686D01*
X11106392Y25416814D01*
X11140500Y25544108D01*
X11140500Y25675892D01*
X11106392Y25803186D01*
X11040500Y25917314D01*
X10947314Y26010500D01*
X10945273Y26011679D01*
X10867653Y26056494D01*
X10819438Y26107061D01*
X10805654Y26164202D01*
X10810991Y28204753D01*
X12529500Y28204753D01*
X12529500Y27615248D01*
X12541131Y27556771D01*
X12541132Y27556770D01*
X12585447Y27490448D01*
X12644391Y27451063D01*
X12689196Y27397451D01*
X12699500Y27347961D01*
X12699500Y26092040D01*
X12679815Y26025001D01*
X12644392Y25988939D01*
X12585448Y25949554D01*
X12541132Y25883231D01*
X12541131Y25883230D01*
X12529500Y25824753D01*
X12529500Y25235248D01*
X12541131Y25176771D01*
X12541132Y25176770D01*
X12585447Y25110448D01*
X12651769Y25066133D01*
X12651770Y25066132D01*
X12710247Y25054501D01*
X12710250Y25054500D01*
X12710252Y25054500D01*
X13289750Y25054500D01*
X13289751Y25054501D01*
X13304568Y25057448D01*
X13348229Y25066132D01*
X13348229Y25066133D01*
X13348231Y25066133D01*
X13414552Y25110448D01*
X13457278Y25174392D01*
X13463369Y25179482D01*
X13466667Y25186703D01*
X13489794Y25201567D01*
X13510890Y25219196D01*
X13520264Y25221148D01*
X13525445Y25224477D01*
X13560380Y25229500D01*
X13749620Y25229500D01*
X13816659Y25209815D01*
X13852722Y25174391D01*
X13895447Y25110448D01*
X13961769Y25066133D01*
X13961770Y25066132D01*
X14020247Y25054501D01*
X14020250Y25054500D01*
X14317324Y25054500D01*
X14384363Y25034815D01*
X14430118Y24982011D01*
X14440062Y24912853D01*
X14411037Y24849297D01*
X14405005Y24842819D01*
X14339502Y24777317D01*
X14339500Y24777314D01*
X14273608Y24663188D01*
X14239500Y24535892D01*
X14239500Y24404109D01*
X14273608Y24276813D01*
X14306554Y24219750D01*
X14339500Y24162686D01*
X14339502Y24162684D01*
X14385005Y24117181D01*
X14418490Y24055858D01*
X14413506Y23986166D01*
X14371634Y23930233D01*
X14306170Y23905816D01*
X14297324Y23905500D01*
X14055247Y23905500D01*
X13996770Y23893869D01*
X13996769Y23893868D01*
X13930447Y23849553D01*
X13886132Y23783231D01*
X13886131Y23783230D01*
X13874500Y23724753D01*
X13874500Y23539556D01*
X13854815Y23472517D01*
X13802011Y23426762D01*
X13732853Y23416818D01*
X13688502Y23432168D01*
X13684660Y23434386D01*
X13684657Y23434387D01*
X13684656Y23434388D01*
X13684655Y23434388D01*
X13557361Y23468496D01*
X13425577Y23468496D01*
X13298281Y23434388D01*
X13184155Y23368496D01*
X13184152Y23368494D01*
X13090971Y23275313D01*
X13090969Y23275310D01*
X13025077Y23161184D01*
X13006723Y23092684D01*
X12990969Y23033888D01*
X12990969Y22902104D01*
X12996182Y22882650D01*
X13025077Y22774809D01*
X13058023Y22717746D01*
X13090969Y22660682D01*
X13184155Y22567496D01*
X13298283Y22501604D01*
X13425577Y22467496D01*
X13425579Y22467496D01*
X13557359Y22467496D01*
X13557361Y22467496D01*
X13684655Y22501604D01*
X13688495Y22503821D01*
X13692148Y22504708D01*
X13692169Y22504716D01*
X13692170Y22504713D01*
X13756394Y22520297D01*
X13822422Y22497448D01*
X13865615Y22442529D01*
X13874500Y22396437D01*
X13874500Y22235248D01*
X13886131Y22176771D01*
X13890806Y22165487D01*
X13886780Y22163820D01*
X13900587Y22119631D01*
X13882060Y22052262D01*
X13838606Y22010108D01*
X13752692Y21960505D01*
X13752683Y21960498D01*
X13659502Y21867317D01*
X13659500Y21867314D01*
X13593608Y21753188D01*
X13559500Y21625892D01*
X13559500Y21494109D01*
X13593608Y21366813D01*
X13595345Y21363805D01*
X13659500Y21252686D01*
X13752686Y21159500D01*
X13866814Y21093608D01*
X13873853Y21089544D01*
X13872148Y21086593D01*
X13914278Y21052663D01*
X13936364Y20986376D01*
X13919105Y20918671D01*
X13913136Y20909544D01*
X13901834Y20893820D01*
X13895448Y20889552D01*
X13851544Y20823848D01*
X13850312Y20822132D01*
X13824363Y20801909D01*
X13799110Y20780804D01*
X13796617Y20780286D01*
X13795202Y20779182D01*
X13788300Y20778554D01*
X13749620Y20770500D01*
X13560380Y20770500D01*
X13493341Y20790185D01*
X13457278Y20825609D01*
X13414552Y20889553D01*
X13348230Y20933868D01*
X13348229Y20933869D01*
X13289752Y20945500D01*
X13289748Y20945500D01*
X12710252Y20945500D01*
X12710247Y20945500D01*
X12651770Y20933869D01*
X12651769Y20933868D01*
X12585447Y20889553D01*
X12541132Y20823231D01*
X12541131Y20823230D01*
X12529500Y20764753D01*
X12529500Y20175248D01*
X12541131Y20116771D01*
X12541132Y20116770D01*
X12585447Y20050448D01*
X12644391Y20011063D01*
X12689196Y19957451D01*
X12699500Y19907961D01*
X12699500Y18652040D01*
X12679815Y18585001D01*
X12644392Y18548939D01*
X12585448Y18509554D01*
X12541132Y18443231D01*
X12541131Y18443230D01*
X12529500Y18384753D01*
X12529500Y17795248D01*
X12541131Y17736771D01*
X12541132Y17736770D01*
X12585447Y17670448D01*
X12651769Y17626133D01*
X12651770Y17626132D01*
X12710247Y17614501D01*
X12710250Y17614500D01*
X12710252Y17614500D01*
X13289750Y17614500D01*
X13289751Y17614501D01*
X13304568Y17617448D01*
X13348229Y17626132D01*
X13348229Y17626133D01*
X13348231Y17626133D01*
X13414552Y17670448D01*
X13457278Y17734392D01*
X13463369Y17739482D01*
X13466667Y17746703D01*
X13489794Y17761567D01*
X13510890Y17779196D01*
X13520264Y17781148D01*
X13525445Y17784477D01*
X13560380Y17789500D01*
X13749620Y17789500D01*
X13816659Y17769815D01*
X13852722Y17734391D01*
X13895447Y17670448D01*
X13961769Y17626133D01*
X13961770Y17626132D01*
X14020247Y17614501D01*
X14020250Y17614500D01*
X14020252Y17614500D01*
X14599750Y17614500D01*
X14599751Y17614501D01*
X14614568Y17617448D01*
X14658229Y17626132D01*
X14658229Y17626133D01*
X14658231Y17626133D01*
X14724552Y17670448D01*
X14767278Y17734392D01*
X14820890Y17779196D01*
X14870380Y17789500D01*
X15129620Y17789500D01*
X15196659Y17769815D01*
X15232722Y17734391D01*
X15275447Y17670448D01*
X15341769Y17626133D01*
X15341770Y17626132D01*
X15400247Y17614501D01*
X15400250Y17614500D01*
X15400252Y17614500D01*
X15979750Y17614500D01*
X15979751Y17614501D01*
X15994568Y17617448D01*
X16038229Y17626132D01*
X16038231Y17626133D01*
X16090890Y17661319D01*
X16157567Y17682198D01*
X16224948Y17663714D01*
X16271638Y17611736D01*
X16275963Y17601553D01*
X16286644Y17572916D01*
X16286649Y17572907D01*
X16372809Y17457813D01*
X16372812Y17457810D01*
X16487906Y17371650D01*
X16487913Y17371646D01*
X16622620Y17321404D01*
X16622627Y17321402D01*
X16682155Y17315001D01*
X16682172Y17315000D01*
X16750000Y17315000D01*
X17250000Y17315000D01*
X17317828Y17315000D01*
X17317844Y17315001D01*
X17377372Y17321402D01*
X17377379Y17321404D01*
X17512086Y17371646D01*
X17512093Y17371650D01*
X17627187Y17457810D01*
X17627190Y17457813D01*
X17713350Y17572907D01*
X17713354Y17572914D01*
X17763596Y17707621D01*
X17763598Y17707628D01*
X17769999Y17767156D01*
X17770000Y17767173D01*
X17770000Y17840000D01*
X17250000Y17840000D01*
X17250000Y17315000D01*
X16750000Y17315000D01*
X16750000Y18340000D01*
X17250000Y18340000D01*
X17770000Y18340000D01*
X17770000Y18412828D01*
X17769999Y18412845D01*
X17763598Y18472373D01*
X17763596Y18472380D01*
X17713354Y18607087D01*
X17713350Y18607094D01*
X17627190Y18722188D01*
X17627187Y18722191D01*
X17512093Y18808351D01*
X17512086Y18808355D01*
X17377379Y18858597D01*
X17377372Y18858599D01*
X17317844Y18865000D01*
X17250000Y18865000D01*
X17250000Y18340000D01*
X16750000Y18340000D01*
X16750000Y18865000D01*
X16682155Y18865000D01*
X16622627Y18858599D01*
X16622620Y18858597D01*
X16487913Y18808355D01*
X16487906Y18808351D01*
X16372812Y18722191D01*
X16372809Y18722188D01*
X16286649Y18607094D01*
X16286645Y18607086D01*
X16275963Y18578447D01*
X16234091Y18522515D01*
X16168626Y18498099D01*
X16100353Y18512952D01*
X16090891Y18518681D01*
X16038230Y18553868D01*
X16038229Y18553869D01*
X15979752Y18565500D01*
X15979748Y18565500D01*
X15400252Y18565500D01*
X15400247Y18565500D01*
X15341770Y18553869D01*
X15341769Y18553868D01*
X15275447Y18509553D01*
X15232722Y18445609D01*
X15179110Y18400804D01*
X15129620Y18390500D01*
X14870380Y18390500D01*
X14803341Y18410185D01*
X14767278Y18445609D01*
X14724552Y18509553D01*
X14658230Y18553868D01*
X14658229Y18553869D01*
X14599752Y18565500D01*
X14599748Y18565500D01*
X14020252Y18565500D01*
X14020247Y18565500D01*
X13961770Y18553869D01*
X13961769Y18553868D01*
X13895447Y18509553D01*
X13852722Y18445609D01*
X13846630Y18440519D01*
X13843333Y18433297D01*
X13820205Y18418434D01*
X13799110Y18400804D01*
X13789735Y18398853D01*
X13784555Y18395523D01*
X13749620Y18390500D01*
X13560380Y18390500D01*
X13493341Y18410185D01*
X13457278Y18445609D01*
X13414551Y18509554D01*
X13355608Y18548939D01*
X13310804Y18602551D01*
X13300500Y18652040D01*
X13300500Y19907961D01*
X13320185Y19975000D01*
X13336288Y19995109D01*
X13346921Y20005873D01*
X13348231Y20006133D01*
X13414552Y20050448D01*
X13458867Y20116769D01*
X13459468Y20119794D01*
X13472168Y20132648D01*
X13492796Y20144076D01*
X13510890Y20159196D01*
X13525636Y20162267D01*
X13533287Y20166504D01*
X13542953Y20165872D01*
X13560380Y20169500D01*
X13749620Y20169500D01*
X13816659Y20149815D01*
X13852722Y20114391D01*
X13895447Y20050448D01*
X13961769Y20006133D01*
X13961770Y20006132D01*
X14020247Y19994501D01*
X14020250Y19994500D01*
X14020252Y19994500D01*
X14599750Y19994500D01*
X14599751Y19994501D01*
X14614568Y19997448D01*
X14658229Y20006132D01*
X14658229Y20006133D01*
X14658231Y20006133D01*
X14724552Y20050448D01*
X14767278Y20114392D01*
X14820890Y20159196D01*
X14870380Y20169500D01*
X15129620Y20169500D01*
X15196659Y20149815D01*
X15232722Y20114391D01*
X15275447Y20050448D01*
X15341769Y20006133D01*
X15341770Y20006132D01*
X15400247Y19994501D01*
X15400250Y19994500D01*
X15400252Y19994500D01*
X15979750Y19994500D01*
X15979751Y19994501D01*
X15994568Y19997448D01*
X16038229Y20006132D01*
X16038229Y20006133D01*
X16038231Y20006133D01*
X16104552Y20050448D01*
X16147278Y20114392D01*
X16153369Y20119482D01*
X16156667Y20126703D01*
X16179794Y20141567D01*
X16200890Y20159196D01*
X16210264Y20161148D01*
X16215445Y20164477D01*
X16250380Y20169500D01*
X16439620Y20169500D01*
X16506659Y20149815D01*
X16542722Y20114391D01*
X16585447Y20050448D01*
X16651769Y20006133D01*
X16651770Y20006132D01*
X16710247Y19994501D01*
X16710250Y19994500D01*
X16710252Y19994500D01*
X17289750Y19994500D01*
X17289751Y19994501D01*
X17304568Y19997448D01*
X17348229Y20006132D01*
X17348229Y20006133D01*
X17348231Y20006133D01*
X17414552Y20050448D01*
X17458867Y20116769D01*
X17458867Y20116771D01*
X17458868Y20116771D01*
X17470499Y20175248D01*
X17470500Y20175250D01*
X17470500Y20764751D01*
X17470499Y20764753D01*
X17458868Y20823230D01*
X17458867Y20823231D01*
X17414552Y20889553D01*
X17348230Y20933868D01*
X17348229Y20933869D01*
X17289752Y20945500D01*
X17289748Y20945500D01*
X16710252Y20945500D01*
X16710247Y20945500D01*
X16651770Y20933869D01*
X16651769Y20933868D01*
X16585447Y20889553D01*
X16542722Y20825609D01*
X16536630Y20820519D01*
X16533333Y20813297D01*
X16510205Y20798434D01*
X16489110Y20780804D01*
X16479735Y20778853D01*
X16474555Y20775523D01*
X16439620Y20770500D01*
X16250380Y20770500D01*
X16183341Y20790185D01*
X16147278Y20825609D01*
X16104552Y20889553D01*
X16038230Y20933868D01*
X16038229Y20933869D01*
X15979752Y20945500D01*
X15979748Y20945500D01*
X15400252Y20945500D01*
X15400247Y20945500D01*
X15341770Y20933869D01*
X15341769Y20933868D01*
X15275447Y20889553D01*
X15232722Y20825609D01*
X15179110Y20780804D01*
X15129620Y20770500D01*
X14870380Y20770500D01*
X14803341Y20790185D01*
X14785890Y20803739D01*
X14769756Y20818758D01*
X14768867Y20823231D01*
X14724552Y20889552D01*
X14658231Y20933867D01*
X14642808Y20936935D01*
X14620010Y20958158D01*
X14613132Y20969748D01*
X14602641Y20978203D01*
X14595651Y20999208D01*
X14584354Y21018245D01*
X14584834Y21031712D01*
X14580579Y21044498D01*
X14580500Y21048919D01*
X14580500Y21363805D01*
X14580498Y21363811D01*
X14563264Y21405418D01*
X14555794Y21474887D01*
X14558046Y21484952D01*
X14560500Y21494108D01*
X14560500Y21625892D01*
X14526392Y21753186D01*
X14460500Y21867314D01*
X14460497Y21867317D01*
X14459815Y21868499D01*
X14443342Y21936399D01*
X14466194Y22002426D01*
X14521115Y22045617D01*
X14567202Y22054500D01*
X15344750Y22054500D01*
X15344751Y22054501D01*
X15403231Y22066133D01*
X15403235Y22066136D01*
X15408577Y22068348D01*
X15478046Y22075820D01*
X15488213Y22072835D01*
X15496768Y22071134D01*
X15496769Y22071133D01*
X15550225Y22060500D01*
X15555247Y22059501D01*
X15555250Y22059500D01*
X15555252Y22059500D01*
X15944750Y22059500D01*
X15944751Y22059501D01*
X15959568Y22062448D01*
X16003229Y22071132D01*
X16003231Y22071133D01*
X16028685Y22088141D01*
X16095362Y22109020D01*
X16159577Y22092427D01*
X16226810Y22053610D01*
X16226811Y22053610D01*
X16226814Y22053608D01*
X16354108Y22019500D01*
X16354110Y22019500D01*
X16485890Y22019500D01*
X16485892Y22019500D01*
X16613186Y22053608D01*
X16727314Y22119500D01*
X16820500Y22212686D01*
X16886392Y22326814D01*
X16920500Y22454108D01*
X16920500Y22585892D01*
X16886392Y22713186D01*
X16820500Y22827314D01*
X16727314Y22920500D01*
X16656659Y22961293D01*
X16613187Y22986392D01*
X16542067Y23005448D01*
X16485892Y23020500D01*
X16354108Y23020500D01*
X16354106Y23020500D01*
X16281256Y23000980D01*
X16211407Y23002643D01*
X16153544Y23041806D01*
X16126041Y23106035D01*
X16125854Y23124160D01*
X16125500Y23124160D01*
X16125500Y23719751D01*
X16125499Y23719753D01*
X16113868Y23778230D01*
X16113867Y23778231D01*
X16069552Y23844553D01*
X16003230Y23888868D01*
X16003229Y23888869D01*
X15944752Y23900500D01*
X15944748Y23900500D01*
X15555252Y23900500D01*
X15555249Y23900500D01*
X15484791Y23886485D01*
X15484176Y23889573D01*
X15433998Y23884186D01*
X15408582Y23891651D01*
X15403229Y23893869D01*
X15344752Y23905500D01*
X15344748Y23905500D01*
X15182676Y23905500D01*
X15115637Y23925185D01*
X15069882Y23977989D01*
X15059938Y24047147D01*
X15088963Y24110703D01*
X15094995Y24117181D01*
X15140500Y24162686D01*
X15206392Y24276814D01*
X15240500Y24404108D01*
X15240500Y24535892D01*
X15206392Y24663186D01*
X15140500Y24777314D01*
X15047314Y24870500D01*
X14933186Y24936392D01*
X14824737Y24965451D01*
X14800049Y24980499D01*
X14773967Y24992978D01*
X14770580Y24998462D01*
X14765078Y25001815D01*
X14752444Y25027823D01*
X14737250Y25052422D01*
X14737365Y25058865D01*
X14734549Y25064662D01*
X14737981Y25093371D01*
X14738498Y25122281D01*
X14742417Y25130474D01*
X14742844Y25134038D01*
X14753727Y25154112D01*
X14767279Y25174394D01*
X14820893Y25219197D01*
X14870380Y25229500D01*
X15129620Y25229500D01*
X15196659Y25209815D01*
X15232722Y25174391D01*
X15275447Y25110448D01*
X15341769Y25066133D01*
X15341770Y25066132D01*
X15400247Y25054501D01*
X15400250Y25054500D01*
X15400252Y25054500D01*
X15979750Y25054500D01*
X15979751Y25054501D01*
X15994568Y25057448D01*
X16038229Y25066132D01*
X16038231Y25066133D01*
X16090890Y25101319D01*
X16157567Y25122198D01*
X16224948Y25103714D01*
X16271638Y25051736D01*
X16275963Y25041553D01*
X16286644Y25012916D01*
X16286649Y25012907D01*
X16372809Y24897813D01*
X16372812Y24897810D01*
X16487906Y24811650D01*
X16487913Y24811646D01*
X16622620Y24761404D01*
X16622627Y24761402D01*
X16682155Y24755001D01*
X16682172Y24755000D01*
X16750000Y24755000D01*
X17250000Y24755000D01*
X17317828Y24755000D01*
X17317844Y24755001D01*
X17377372Y24761402D01*
X17377379Y24761404D01*
X17512086Y24811646D01*
X17512093Y24811650D01*
X17627187Y24897810D01*
X17627190Y24897813D01*
X17713350Y25012907D01*
X17713354Y25012914D01*
X17763596Y25147621D01*
X17763598Y25147628D01*
X17769999Y25207156D01*
X17770000Y25207173D01*
X17770000Y25280000D01*
X17250000Y25280000D01*
X17250000Y24755000D01*
X16750000Y24755000D01*
X16750000Y25780000D01*
X17250000Y25780000D01*
X17770000Y25780000D01*
X17770000Y25852828D01*
X17769999Y25852845D01*
X17763598Y25912373D01*
X17763596Y25912380D01*
X17713354Y26047087D01*
X17713350Y26047094D01*
X17627190Y26162188D01*
X17627187Y26162191D01*
X17512093Y26248351D01*
X17512086Y26248355D01*
X17377379Y26298597D01*
X17377372Y26298599D01*
X17317844Y26305000D01*
X17250000Y26305000D01*
X17250000Y25780000D01*
X16750000Y25780000D01*
X16750000Y26305000D01*
X16682155Y26305000D01*
X16622627Y26298599D01*
X16622620Y26298597D01*
X16487913Y26248355D01*
X16487906Y26248351D01*
X16372812Y26162191D01*
X16372809Y26162188D01*
X16286649Y26047094D01*
X16286645Y26047086D01*
X16275963Y26018447D01*
X16234091Y25962515D01*
X16168626Y25938099D01*
X16100353Y25952952D01*
X16090891Y25958681D01*
X16038230Y25993868D01*
X16038229Y25993869D01*
X15979752Y26005500D01*
X15979748Y26005500D01*
X15400252Y26005500D01*
X15400247Y26005500D01*
X15341770Y25993869D01*
X15341769Y25993868D01*
X15275447Y25949553D01*
X15232722Y25885609D01*
X15179110Y25840804D01*
X15129620Y25830500D01*
X14870380Y25830500D01*
X14803341Y25850185D01*
X14767278Y25885609D01*
X14724552Y25949553D01*
X14658230Y25993868D01*
X14658229Y25993869D01*
X14599752Y26005500D01*
X14599748Y26005500D01*
X14020252Y26005500D01*
X14020247Y26005500D01*
X13961770Y25993869D01*
X13961769Y25993868D01*
X13895447Y25949553D01*
X13852722Y25885609D01*
X13846630Y25880519D01*
X13843333Y25873297D01*
X13820205Y25858434D01*
X13799110Y25840804D01*
X13789735Y25838853D01*
X13784555Y25835523D01*
X13749620Y25830500D01*
X13560380Y25830500D01*
X13493341Y25850185D01*
X13457278Y25885609D01*
X13414551Y25949554D01*
X13355608Y25988939D01*
X13310804Y26042551D01*
X13300500Y26092040D01*
X13300500Y27347961D01*
X13320185Y27415000D01*
X13336288Y27435109D01*
X13346921Y27445873D01*
X13348231Y27446133D01*
X13414552Y27490448D01*
X13458867Y27556769D01*
X13459468Y27559794D01*
X13472168Y27572648D01*
X13492796Y27584076D01*
X13510890Y27599196D01*
X13525636Y27602267D01*
X13533287Y27606504D01*
X13542953Y27605872D01*
X13560380Y27609500D01*
X13749620Y27609500D01*
X13816659Y27589815D01*
X13852722Y27554391D01*
X13895447Y27490448D01*
X13961769Y27446133D01*
X13961770Y27446132D01*
X14020247Y27434501D01*
X14020250Y27434500D01*
X14020252Y27434500D01*
X14599750Y27434500D01*
X14599751Y27434501D01*
X14614568Y27437448D01*
X14658229Y27446132D01*
X14658229Y27446133D01*
X14658231Y27446133D01*
X14724552Y27490448D01*
X14767278Y27554392D01*
X14820890Y27599196D01*
X14870380Y27609500D01*
X15129620Y27609500D01*
X15196659Y27589815D01*
X15232722Y27554391D01*
X15275447Y27490448D01*
X15341769Y27446133D01*
X15341770Y27446132D01*
X15400247Y27434501D01*
X15400250Y27434500D01*
X15400252Y27434500D01*
X15979750Y27434500D01*
X15979751Y27434501D01*
X15994568Y27437448D01*
X16038229Y27446132D01*
X16038229Y27446133D01*
X16038231Y27446133D01*
X16104552Y27490448D01*
X16147278Y27554392D01*
X16153369Y27559482D01*
X16156667Y27566703D01*
X16179794Y27581567D01*
X16200890Y27599196D01*
X16210264Y27601148D01*
X16215445Y27604477D01*
X16250380Y27609500D01*
X16439620Y27609500D01*
X16506659Y27589815D01*
X16542722Y27554391D01*
X16585447Y27490448D01*
X16651769Y27446133D01*
X16651770Y27446132D01*
X16710247Y27434501D01*
X16710250Y27434500D01*
X16710252Y27434500D01*
X17289750Y27434500D01*
X17289751Y27434501D01*
X17304568Y27437448D01*
X17348229Y27446132D01*
X17348229Y27446133D01*
X17348231Y27446133D01*
X17414552Y27490448D01*
X17458867Y27556769D01*
X17458866Y27556769D01*
X17465652Y27566923D01*
X17467625Y27565605D01*
X17500973Y27606985D01*
X17567267Y27629051D01*
X17634966Y27611772D01*
X17659375Y27592811D01*
X17702686Y27549500D01*
X17816814Y27483608D01*
X17944108Y27449500D01*
X17944110Y27449500D01*
X18075890Y27449500D01*
X18075892Y27449500D01*
X18203186Y27483608D01*
X18317314Y27549500D01*
X18410500Y27642686D01*
X18476392Y27756814D01*
X18510500Y27884108D01*
X18510500Y28015892D01*
X18476392Y28143186D01*
X18410500Y28257314D01*
X18317314Y28350500D01*
X18256692Y28385500D01*
X18203187Y28416392D01*
X18139539Y28433446D01*
X18075892Y28450500D01*
X17944108Y28450500D01*
X17816812Y28416392D01*
X17702686Y28350500D01*
X17628411Y28276225D01*
X17567087Y28242741D01*
X17497396Y28247726D01*
X17441462Y28289597D01*
X17437643Y28294994D01*
X17414552Y28329552D01*
X17348231Y28373867D01*
X17348230Y28373868D01*
X17348229Y28373869D01*
X17289752Y28385500D01*
X17289748Y28385500D01*
X16710252Y28385500D01*
X16710247Y28385500D01*
X16651770Y28373869D01*
X16651769Y28373868D01*
X16585447Y28329553D01*
X16542722Y28265609D01*
X16536630Y28260519D01*
X16533333Y28253297D01*
X16510205Y28238434D01*
X16489110Y28220804D01*
X16479735Y28218853D01*
X16474555Y28215523D01*
X16439620Y28210500D01*
X16250380Y28210500D01*
X16183341Y28230185D01*
X16147278Y28265609D01*
X16104552Y28329553D01*
X16038230Y28373868D01*
X16038229Y28373869D01*
X15979752Y28385500D01*
X15979748Y28385500D01*
X15400252Y28385500D01*
X15400247Y28385500D01*
X15341770Y28373869D01*
X15341769Y28373868D01*
X15275447Y28329553D01*
X15232722Y28265609D01*
X15179110Y28220804D01*
X15129620Y28210500D01*
X14870380Y28210500D01*
X14803341Y28230185D01*
X14767278Y28265609D01*
X14724552Y28329553D01*
X14658230Y28373868D01*
X14658229Y28373869D01*
X14599752Y28385500D01*
X14599748Y28385500D01*
X14020252Y28385500D01*
X14020247Y28385500D01*
X13961770Y28373869D01*
X13961769Y28373868D01*
X13895447Y28329553D01*
X13852722Y28265609D01*
X13846630Y28260519D01*
X13843333Y28253297D01*
X13820205Y28238434D01*
X13799110Y28220804D01*
X13789735Y28218853D01*
X13784555Y28215523D01*
X13749620Y28210500D01*
X13560380Y28210500D01*
X13493341Y28230185D01*
X13457278Y28265609D01*
X13414552Y28329553D01*
X13348230Y28373868D01*
X13348229Y28373869D01*
X13289752Y28385500D01*
X13289748Y28385500D01*
X12710252Y28385500D01*
X12710247Y28385500D01*
X12651770Y28373869D01*
X12651769Y28373868D01*
X12585447Y28329553D01*
X12541132Y28263231D01*
X12541131Y28263230D01*
X12529500Y28204753D01*
X10810991Y28204753D01*
X10814429Y29519077D01*
X10834288Y29586061D01*
X10850738Y29606420D01*
X10968992Y29724674D01*
X10994500Y29786258D01*
X11010173Y29824094D01*
X11010173Y31457023D01*
X11578815Y31457023D01*
X11578815Y31325239D01*
X11588755Y31288142D01*
X11612923Y31197944D01*
X11645869Y31140881D01*
X11678815Y31083817D01*
X11772001Y30990631D01*
X11886129Y30924739D01*
X12013423Y30890631D01*
X12013425Y30890631D01*
X12145205Y30890631D01*
X12145207Y30890631D01*
X12272501Y30924739D01*
X12386629Y30990631D01*
X12461890Y31065892D01*
X12939500Y31065892D01*
X12939500Y30934108D01*
X12946154Y30909275D01*
X12973608Y30806813D01*
X13005500Y30751576D01*
X13039500Y30692686D01*
X13132686Y30599500D01*
X13231521Y30542437D01*
X13246810Y30533610D01*
X13246814Y30533608D01*
X13374108Y30499500D01*
X13374110Y30499500D01*
X13505890Y30499500D01*
X13505892Y30499500D01*
X13633186Y30533608D01*
X13688499Y30565543D01*
X13756399Y30582017D01*
X13822426Y30559165D01*
X13865617Y30504245D01*
X13874500Y30458157D01*
X13874500Y29705248D01*
X13886131Y29646771D01*
X13886132Y29646770D01*
X13930447Y29580448D01*
X13996769Y29536133D01*
X13996770Y29536132D01*
X14055247Y29524501D01*
X14055250Y29524500D01*
X14055252Y29524500D01*
X15344750Y29524500D01*
X15344751Y29524501D01*
X15403231Y29536133D01*
X15403235Y29536136D01*
X15408577Y29538348D01*
X15478046Y29545820D01*
X15488213Y29542835D01*
X15555247Y29529501D01*
X15555250Y29529500D01*
X15555252Y29529500D01*
X15944750Y29529500D01*
X15944751Y29529501D01*
X15959568Y29532448D01*
X16003229Y29541132D01*
X16003229Y29541133D01*
X16003231Y29541133D01*
X16069552Y29585448D01*
X16069551Y29585448D01*
X16079707Y29592233D01*
X16081129Y29590104D01*
X16127196Y29615264D01*
X16196888Y29610286D01*
X16215555Y29601493D01*
X16315814Y29543608D01*
X16443108Y29509500D01*
X16443110Y29509500D01*
X16574890Y29509500D01*
X16574892Y29509500D01*
X16702186Y29543608D01*
X16816314Y29609500D01*
X16909500Y29702686D01*
X16975392Y29816814D01*
X17009500Y29944108D01*
X17009500Y30075892D01*
X16975392Y30203186D01*
X16909500Y30317314D01*
X16816314Y30410500D01*
X16708020Y30473024D01*
X16702187Y30476392D01*
X16598236Y30504245D01*
X16574892Y30510500D01*
X16443108Y30510500D01*
X16315814Y30476392D01*
X16315813Y30476392D01*
X16315811Y30476391D01*
X16315804Y30476389D01*
X16309977Y30473024D01*
X16242076Y30456555D01*
X16176051Y30479410D01*
X16132863Y30534334D01*
X16123985Y30581194D01*
X16124059Y30593010D01*
X16125500Y30600252D01*
X16125500Y30822057D01*
X16125502Y30822374D01*
X16135475Y30855566D01*
X16145185Y30888633D01*
X16145545Y30889081D01*
X16145608Y30889288D01*
X16145945Y30889577D01*
X16161815Y30909271D01*
X16375725Y31123182D01*
X16437048Y31156666D01*
X16463406Y31159500D01*
X16595890Y31159500D01*
X16595892Y31159500D01*
X16723186Y31193608D01*
X16837314Y31259500D01*
X16930500Y31352686D01*
X16996392Y31466814D01*
X17030500Y31594108D01*
X17030500Y31725892D01*
X16996392Y31853186D01*
X16930500Y31967314D01*
X16837314Y32060500D01*
X16765121Y32102181D01*
X16723187Y32126392D01*
X16622998Y32153237D01*
X16595892Y32160500D01*
X16464108Y32160500D01*
X16336812Y32126392D01*
X16222686Y32060500D01*
X16222683Y32060498D01*
X16129502Y31967317D01*
X16129500Y31967314D01*
X16063608Y31853188D01*
X16029500Y31725892D01*
X16029500Y31593408D01*
X16020854Y31563965D01*
X16014332Y31533982D01*
X16010577Y31528967D01*
X16009815Y31526369D01*
X15993185Y31505731D01*
X15894272Y31406818D01*
X15832952Y31373334D01*
X15806593Y31370500D01*
X15555249Y31370500D01*
X15484791Y31356485D01*
X15484176Y31359573D01*
X15433998Y31354186D01*
X15408582Y31361651D01*
X15403229Y31363869D01*
X15344752Y31375500D01*
X15344748Y31375500D01*
X14055252Y31375500D01*
X14055247Y31375500D01*
X13996770Y31363869D01*
X13996770Y31363868D01*
X13953804Y31335159D01*
X13887127Y31314282D01*
X13819747Y31332767D01*
X13797233Y31350581D01*
X13747316Y31400498D01*
X13747314Y31400500D01*
X13664410Y31448365D01*
X13633187Y31466392D01*
X13552819Y31487926D01*
X13505892Y31500500D01*
X13374108Y31500500D01*
X13246812Y31466392D01*
X13132686Y31400500D01*
X13132683Y31400498D01*
X13039502Y31307317D01*
X13039500Y31307314D01*
X12973608Y31193188D01*
X12958290Y31136019D01*
X12939500Y31065892D01*
X12461890Y31065892D01*
X12479815Y31083817D01*
X12545707Y31197945D01*
X12579815Y31325239D01*
X12579815Y31457023D01*
X12545707Y31584317D01*
X12479815Y31698445D01*
X12386629Y31791631D01*
X12295276Y31844374D01*
X12272502Y31857523D01*
X12181796Y31881827D01*
X12145207Y31891631D01*
X12013423Y31891631D01*
X11886127Y31857523D01*
X11772001Y31791631D01*
X11771998Y31791629D01*
X11678817Y31698448D01*
X11678815Y31698445D01*
X11612923Y31584319D01*
X11589113Y31495455D01*
X11578815Y31457023D01*
X11010173Y31457023D01*
X11010173Y31964778D01*
X11018817Y31994219D01*
X11025341Y32024205D01*
X11029095Y32029221D01*
X11029858Y32031817D01*
X11046492Y32052459D01*
X11096214Y32102181D01*
X11157537Y32135666D01*
X11183895Y32138500D01*
X11777477Y32138500D01*
X11777479Y32138500D01*
X11835717Y32162624D01*
X11876899Y32179681D01*
X12436468Y32739251D01*
X12497788Y32772733D01*
X12524408Y32775567D01*
X15602177Y32768918D01*
G37*
%TD.AperFunction*%
%TD*%
M02*
