%TF.GenerationSoftware,KiCad,Pcbnew,9.0.5*%
%TF.CreationDate,2025-11-01T11:22:36+01:00*%
%TF.ProjectId,horsesense,686f7273-6573-4656-9e73-652e6b696361,1.0*%
%TF.SameCoordinates,Original*%
%TF.FileFunction,Legend,Bot*%
%TF.FilePolarity,Positive*%
%FSLAX46Y46*%
G04 Gerber Fmt 4.6, Leading zero omitted, Abs format (unit mm)*
G04 Created by KiCad (PCBNEW 9.0.5) date 2025-11-01 11:22:36*
%MOMM*%
%LPD*%
G01*
G04 APERTURE LIST*
G04 Aperture macros list*
%AMRoundRect*
0 Rectangle with rounded corners*
0 $1 Rounding radius*
0 $2 $3 $4 $5 $6 $7 $8 $9 X,Y pos of 4 corners*
0 Add a 4 corners polygon primitive as box body*
4,1,4,$2,$3,$4,$5,$6,$7,$8,$9,$2,$3,0*
0 Add four circle primitives for the rounded corners*
1,1,$1+$1,$2,$3*
1,1,$1+$1,$4,$5*
1,1,$1+$1,$6,$7*
1,1,$1+$1,$8,$9*
0 Add four rect primitives between the rounded corners*
20,1,$1+$1,$2,$3,$4,$5,0*
20,1,$1+$1,$4,$5,$6,$7,0*
20,1,$1+$1,$6,$7,$8,$9,0*
20,1,$1+$1,$8,$9,$2,$3,0*%
G04 Aperture macros list end*
%ADD10C,0.150000*%
%ADD11C,0.254000*%
%ADD12C,0.127000*%
%ADD13C,0.200000*%
%ADD14C,0.120000*%
%ADD15C,0.010000*%
%ADD16C,0.100000*%
%ADD17R,1.000000X1.000000*%
%ADD18C,1.000000*%
%ADD19C,0.650000*%
%ADD20O,2.100000X1.000000*%
%ADD21O,1.800000X1.000000*%
%ADD22RoundRect,0.102000X-0.270000X0.275000X-0.270000X-0.275000X0.270000X-0.275000X0.270000X0.275000X0*%
%ADD23R,0.350000X0.550000*%
%ADD24R,1.250000X1.450000*%
G04 APERTURE END LIST*
D10*
X18912381Y26411724D02*
X18912381Y27051724D01*
X18912381Y27051724D02*
X18760000Y27051724D01*
X18760000Y27051724D02*
X18668571Y27021248D01*
X18668571Y27021248D02*
X18607619Y26960296D01*
X18607619Y26960296D02*
X18577142Y26899343D01*
X18577142Y26899343D02*
X18546666Y26777439D01*
X18546666Y26777439D02*
X18546666Y26686010D01*
X18546666Y26686010D02*
X18577142Y26564105D01*
X18577142Y26564105D02*
X18607619Y26503153D01*
X18607619Y26503153D02*
X18668571Y26442200D01*
X18668571Y26442200D02*
X18760000Y26411724D01*
X18760000Y26411724D02*
X18912381Y26411724D01*
X17998095Y27051724D02*
X18120000Y27051724D01*
X18120000Y27051724D02*
X18180952Y27021248D01*
X18180952Y27021248D02*
X18211428Y26990772D01*
X18211428Y26990772D02*
X18272381Y26899343D01*
X18272381Y26899343D02*
X18302857Y26777439D01*
X18302857Y26777439D02*
X18302857Y26533629D01*
X18302857Y26533629D02*
X18272381Y26472677D01*
X18272381Y26472677D02*
X18241904Y26442200D01*
X18241904Y26442200D02*
X18180952Y26411724D01*
X18180952Y26411724D02*
X18059047Y26411724D01*
X18059047Y26411724D02*
X17998095Y26442200D01*
X17998095Y26442200D02*
X17967619Y26472677D01*
X17967619Y26472677D02*
X17937142Y26533629D01*
X17937142Y26533629D02*
X17937142Y26686010D01*
X17937142Y26686010D02*
X17967619Y26746962D01*
X17967619Y26746962D02*
X17998095Y26777439D01*
X17998095Y26777439D02*
X18059047Y26807915D01*
X18059047Y26807915D02*
X18180952Y26807915D01*
X18180952Y26807915D02*
X18241904Y26777439D01*
X18241904Y26777439D02*
X18272381Y26746962D01*
X18272381Y26746962D02*
X18302857Y26686010D01*
X28264819Y57750953D02*
X27264819Y57750953D01*
X28264819Y57322382D02*
X27741009Y57322382D01*
X27741009Y57322382D02*
X27645771Y57370001D01*
X27645771Y57370001D02*
X27598152Y57465239D01*
X27598152Y57465239D02*
X27598152Y57608096D01*
X27598152Y57608096D02*
X27645771Y57703334D01*
X27645771Y57703334D02*
X27693390Y57750953D01*
X27598152Y56989048D02*
X27598152Y56608096D01*
X27264819Y56846191D02*
X28121961Y56846191D01*
X28121961Y56846191D02*
X28217200Y56798572D01*
X28217200Y56798572D02*
X28264819Y56703334D01*
X28264819Y56703334D02*
X28264819Y56608096D01*
X27598152Y56417619D02*
X27598152Y56036667D01*
X27264819Y56274762D02*
X28121961Y56274762D01*
X28121961Y56274762D02*
X28217200Y56227143D01*
X28217200Y56227143D02*
X28264819Y56131905D01*
X28264819Y56131905D02*
X28264819Y56036667D01*
X27598152Y55703333D02*
X28598152Y55703333D01*
X27645771Y55703333D02*
X27598152Y55608095D01*
X27598152Y55608095D02*
X27598152Y55417619D01*
X27598152Y55417619D02*
X27645771Y55322381D01*
X27645771Y55322381D02*
X27693390Y55274762D01*
X27693390Y55274762D02*
X27788628Y55227143D01*
X27788628Y55227143D02*
X28074342Y55227143D01*
X28074342Y55227143D02*
X28169580Y55274762D01*
X28169580Y55274762D02*
X28217200Y55322381D01*
X28217200Y55322381D02*
X28264819Y55417619D01*
X28264819Y55417619D02*
X28264819Y55608095D01*
X28264819Y55608095D02*
X28217200Y55703333D01*
X28217200Y54846190D02*
X28264819Y54750952D01*
X28264819Y54750952D02*
X28264819Y54560476D01*
X28264819Y54560476D02*
X28217200Y54465238D01*
X28217200Y54465238D02*
X28121961Y54417619D01*
X28121961Y54417619D02*
X28074342Y54417619D01*
X28074342Y54417619D02*
X27979104Y54465238D01*
X27979104Y54465238D02*
X27931485Y54560476D01*
X27931485Y54560476D02*
X27931485Y54703333D01*
X27931485Y54703333D02*
X27883866Y54798571D01*
X27883866Y54798571D02*
X27788628Y54846190D01*
X27788628Y54846190D02*
X27741009Y54846190D01*
X27741009Y54846190D02*
X27645771Y54798571D01*
X27645771Y54798571D02*
X27598152Y54703333D01*
X27598152Y54703333D02*
X27598152Y54560476D01*
X27598152Y54560476D02*
X27645771Y54465238D01*
X28169580Y53989047D02*
X28217200Y53941428D01*
X28217200Y53941428D02*
X28264819Y53989047D01*
X28264819Y53989047D02*
X28217200Y54036666D01*
X28217200Y54036666D02*
X28169580Y53989047D01*
X28169580Y53989047D02*
X28264819Y53989047D01*
X27645771Y53989047D02*
X27693390Y53941428D01*
X27693390Y53941428D02*
X27741009Y53989047D01*
X27741009Y53989047D02*
X27693390Y54036666D01*
X27693390Y54036666D02*
X27645771Y53989047D01*
X27645771Y53989047D02*
X27741009Y53989047D01*
X27217200Y52798572D02*
X28502914Y53655714D01*
X27217200Y51750953D02*
X28502914Y52608095D01*
X27598152Y50989048D02*
X28407676Y50989048D01*
X28407676Y50989048D02*
X28502914Y51036667D01*
X28502914Y51036667D02*
X28550533Y51084286D01*
X28550533Y51084286D02*
X28598152Y51179524D01*
X28598152Y51179524D02*
X28598152Y51322381D01*
X28598152Y51322381D02*
X28550533Y51417619D01*
X28217200Y50989048D02*
X28264819Y51084286D01*
X28264819Y51084286D02*
X28264819Y51274762D01*
X28264819Y51274762D02*
X28217200Y51370000D01*
X28217200Y51370000D02*
X28169580Y51417619D01*
X28169580Y51417619D02*
X28074342Y51465238D01*
X28074342Y51465238D02*
X27788628Y51465238D01*
X27788628Y51465238D02*
X27693390Y51417619D01*
X27693390Y51417619D02*
X27645771Y51370000D01*
X27645771Y51370000D02*
X27598152Y51274762D01*
X27598152Y51274762D02*
X27598152Y51084286D01*
X27598152Y51084286D02*
X27645771Y50989048D01*
X28264819Y50512857D02*
X27598152Y50512857D01*
X27264819Y50512857D02*
X27312438Y50560476D01*
X27312438Y50560476D02*
X27360057Y50512857D01*
X27360057Y50512857D02*
X27312438Y50465238D01*
X27312438Y50465238D02*
X27264819Y50512857D01*
X27264819Y50512857D02*
X27360057Y50512857D01*
X27598152Y50179524D02*
X27598152Y49798572D01*
X27264819Y50036667D02*
X28121961Y50036667D01*
X28121961Y50036667D02*
X28217200Y49989048D01*
X28217200Y49989048D02*
X28264819Y49893810D01*
X28264819Y49893810D02*
X28264819Y49798572D01*
X28264819Y49465238D02*
X27264819Y49465238D01*
X28264819Y49036667D02*
X27741009Y49036667D01*
X27741009Y49036667D02*
X27645771Y49084286D01*
X27645771Y49084286D02*
X27598152Y49179524D01*
X27598152Y49179524D02*
X27598152Y49322381D01*
X27598152Y49322381D02*
X27645771Y49417619D01*
X27645771Y49417619D02*
X27693390Y49465238D01*
X27598152Y48131905D02*
X28264819Y48131905D01*
X27598152Y48560476D02*
X28121961Y48560476D01*
X28121961Y48560476D02*
X28217200Y48512857D01*
X28217200Y48512857D02*
X28264819Y48417619D01*
X28264819Y48417619D02*
X28264819Y48274762D01*
X28264819Y48274762D02*
X28217200Y48179524D01*
X28217200Y48179524D02*
X28169580Y48131905D01*
X28264819Y47655714D02*
X27264819Y47655714D01*
X27645771Y47655714D02*
X27598152Y47560476D01*
X27598152Y47560476D02*
X27598152Y47370000D01*
X27598152Y47370000D02*
X27645771Y47274762D01*
X27645771Y47274762D02*
X27693390Y47227143D01*
X27693390Y47227143D02*
X27788628Y47179524D01*
X27788628Y47179524D02*
X28074342Y47179524D01*
X28074342Y47179524D02*
X28169580Y47227143D01*
X28169580Y47227143D02*
X28217200Y47274762D01*
X28217200Y47274762D02*
X28264819Y47370000D01*
X28264819Y47370000D02*
X28264819Y47560476D01*
X28264819Y47560476D02*
X28217200Y47655714D01*
X28169580Y46750952D02*
X28217200Y46703333D01*
X28217200Y46703333D02*
X28264819Y46750952D01*
X28264819Y46750952D02*
X28217200Y46798571D01*
X28217200Y46798571D02*
X28169580Y46750952D01*
X28169580Y46750952D02*
X28264819Y46750952D01*
X28217200Y45846191D02*
X28264819Y45941429D01*
X28264819Y45941429D02*
X28264819Y46131905D01*
X28264819Y46131905D02*
X28217200Y46227143D01*
X28217200Y46227143D02*
X28169580Y46274762D01*
X28169580Y46274762D02*
X28074342Y46322381D01*
X28074342Y46322381D02*
X27788628Y46322381D01*
X27788628Y46322381D02*
X27693390Y46274762D01*
X27693390Y46274762D02*
X27645771Y46227143D01*
X27645771Y46227143D02*
X27598152Y46131905D01*
X27598152Y46131905D02*
X27598152Y45941429D01*
X27598152Y45941429D02*
X27645771Y45846191D01*
X28264819Y45274762D02*
X28217200Y45370000D01*
X28217200Y45370000D02*
X28169580Y45417619D01*
X28169580Y45417619D02*
X28074342Y45465238D01*
X28074342Y45465238D02*
X27788628Y45465238D01*
X27788628Y45465238D02*
X27693390Y45417619D01*
X27693390Y45417619D02*
X27645771Y45370000D01*
X27645771Y45370000D02*
X27598152Y45274762D01*
X27598152Y45274762D02*
X27598152Y45131905D01*
X27598152Y45131905D02*
X27645771Y45036667D01*
X27645771Y45036667D02*
X27693390Y44989048D01*
X27693390Y44989048D02*
X27788628Y44941429D01*
X27788628Y44941429D02*
X28074342Y44941429D01*
X28074342Y44941429D02*
X28169580Y44989048D01*
X28169580Y44989048D02*
X28217200Y45036667D01*
X28217200Y45036667D02*
X28264819Y45131905D01*
X28264819Y45131905D02*
X28264819Y45274762D01*
X28264819Y44512857D02*
X27598152Y44512857D01*
X27693390Y44512857D02*
X27645771Y44465238D01*
X27645771Y44465238D02*
X27598152Y44370000D01*
X27598152Y44370000D02*
X27598152Y44227143D01*
X27598152Y44227143D02*
X27645771Y44131905D01*
X27645771Y44131905D02*
X27741009Y44084286D01*
X27741009Y44084286D02*
X28264819Y44084286D01*
X27741009Y44084286D02*
X27645771Y44036667D01*
X27645771Y44036667D02*
X27598152Y43941429D01*
X27598152Y43941429D02*
X27598152Y43798572D01*
X27598152Y43798572D02*
X27645771Y43703333D01*
X27645771Y43703333D02*
X27741009Y43655714D01*
X27741009Y43655714D02*
X28264819Y43655714D01*
X27217200Y42465239D02*
X28502914Y43322381D01*
X28264819Y42131905D02*
X27264819Y42131905D01*
X27264819Y42131905D02*
X27264819Y41750953D01*
X27264819Y41750953D02*
X27312438Y41655715D01*
X27312438Y41655715D02*
X27360057Y41608096D01*
X27360057Y41608096D02*
X27455295Y41560477D01*
X27455295Y41560477D02*
X27598152Y41560477D01*
X27598152Y41560477D02*
X27693390Y41608096D01*
X27693390Y41608096D02*
X27741009Y41655715D01*
X27741009Y41655715D02*
X27788628Y41750953D01*
X27788628Y41750953D02*
X27788628Y42131905D01*
X28264819Y41131905D02*
X27264819Y41131905D01*
X28264819Y40703334D02*
X27741009Y40703334D01*
X27741009Y40703334D02*
X27645771Y40750953D01*
X27645771Y40750953D02*
X27598152Y40846191D01*
X27598152Y40846191D02*
X27598152Y40989048D01*
X27598152Y40989048D02*
X27645771Y41084286D01*
X27645771Y41084286D02*
X27693390Y41131905D01*
X28264819Y40227143D02*
X27598152Y40227143D01*
X27264819Y40227143D02*
X27312438Y40274762D01*
X27312438Y40274762D02*
X27360057Y40227143D01*
X27360057Y40227143D02*
X27312438Y40179524D01*
X27312438Y40179524D02*
X27264819Y40227143D01*
X27264819Y40227143D02*
X27360057Y40227143D01*
X28264819Y39608096D02*
X28217200Y39703334D01*
X28217200Y39703334D02*
X28121961Y39750953D01*
X28121961Y39750953D02*
X27264819Y39750953D01*
X28264819Y39227143D02*
X27598152Y39227143D01*
X27264819Y39227143D02*
X27312438Y39274762D01*
X27312438Y39274762D02*
X27360057Y39227143D01*
X27360057Y39227143D02*
X27312438Y39179524D01*
X27312438Y39179524D02*
X27264819Y39227143D01*
X27264819Y39227143D02*
X27360057Y39227143D01*
X27598152Y38750953D02*
X28598152Y38750953D01*
X27645771Y38750953D02*
X27598152Y38655715D01*
X27598152Y38655715D02*
X27598152Y38465239D01*
X27598152Y38465239D02*
X27645771Y38370001D01*
X27645771Y38370001D02*
X27693390Y38322382D01*
X27693390Y38322382D02*
X27788628Y38274763D01*
X27788628Y38274763D02*
X28074342Y38274763D01*
X28074342Y38274763D02*
X28169580Y38322382D01*
X28169580Y38322382D02*
X28217200Y38370001D01*
X28217200Y38370001D02*
X28264819Y38465239D01*
X28264819Y38465239D02*
X28264819Y38655715D01*
X28264819Y38655715D02*
X28217200Y38750953D01*
X27598152Y37846191D02*
X28598152Y37846191D01*
X27645771Y37846191D02*
X27598152Y37750953D01*
X27598152Y37750953D02*
X27598152Y37560477D01*
X27598152Y37560477D02*
X27645771Y37465239D01*
X27645771Y37465239D02*
X27693390Y37417620D01*
X27693390Y37417620D02*
X27788628Y37370001D01*
X27788628Y37370001D02*
X28074342Y37370001D01*
X28074342Y37370001D02*
X28169580Y37417620D01*
X28169580Y37417620D02*
X28217200Y37465239D01*
X28217200Y37465239D02*
X28264819Y37560477D01*
X28264819Y37560477D02*
X28264819Y37750953D01*
X28264819Y37750953D02*
X28217200Y37846191D01*
X28217200Y36560477D02*
X28264819Y36655715D01*
X28264819Y36655715D02*
X28264819Y36846191D01*
X28264819Y36846191D02*
X28217200Y36941429D01*
X28217200Y36941429D02*
X28121961Y36989048D01*
X28121961Y36989048D02*
X27741009Y36989048D01*
X27741009Y36989048D02*
X27645771Y36941429D01*
X27645771Y36941429D02*
X27598152Y36846191D01*
X27598152Y36846191D02*
X27598152Y36655715D01*
X27598152Y36655715D02*
X27645771Y36560477D01*
X27645771Y36560477D02*
X27741009Y36512858D01*
X27741009Y36512858D02*
X27836247Y36512858D01*
X27836247Y36512858D02*
X27931485Y36989048D01*
X28264819Y35560477D02*
X28264819Y36131905D01*
X28264819Y35846191D02*
X27264819Y35846191D01*
X27264819Y35846191D02*
X27407676Y35941429D01*
X27407676Y35941429D02*
X27502914Y36036667D01*
X27502914Y36036667D02*
X27550533Y36131905D01*
X27360057Y35179524D02*
X27312438Y35131905D01*
X27312438Y35131905D02*
X27264819Y35036667D01*
X27264819Y35036667D02*
X27264819Y34798572D01*
X27264819Y34798572D02*
X27312438Y34703334D01*
X27312438Y34703334D02*
X27360057Y34655715D01*
X27360057Y34655715D02*
X27455295Y34608096D01*
X27455295Y34608096D02*
X27550533Y34608096D01*
X27550533Y34608096D02*
X27693390Y34655715D01*
X27693390Y34655715D02*
X28264819Y35227143D01*
X28264819Y35227143D02*
X28264819Y34608096D01*
X27217200Y33465239D02*
X28502914Y34322381D01*
X28264819Y33131905D02*
X27264819Y33131905D01*
X27741009Y33131905D02*
X27741009Y32560477D01*
X28264819Y32560477D02*
X27264819Y32560477D01*
X28264819Y31941429D02*
X28217200Y32036667D01*
X28217200Y32036667D02*
X28169580Y32084286D01*
X28169580Y32084286D02*
X28074342Y32131905D01*
X28074342Y32131905D02*
X27788628Y32131905D01*
X27788628Y32131905D02*
X27693390Y32084286D01*
X27693390Y32084286D02*
X27645771Y32036667D01*
X27645771Y32036667D02*
X27598152Y31941429D01*
X27598152Y31941429D02*
X27598152Y31798572D01*
X27598152Y31798572D02*
X27645771Y31703334D01*
X27645771Y31703334D02*
X27693390Y31655715D01*
X27693390Y31655715D02*
X27788628Y31608096D01*
X27788628Y31608096D02*
X28074342Y31608096D01*
X28074342Y31608096D02*
X28169580Y31655715D01*
X28169580Y31655715D02*
X28217200Y31703334D01*
X28217200Y31703334D02*
X28264819Y31798572D01*
X28264819Y31798572D02*
X28264819Y31941429D01*
X28264819Y31179524D02*
X27598152Y31179524D01*
X27788628Y31179524D02*
X27693390Y31131905D01*
X27693390Y31131905D02*
X27645771Y31084286D01*
X27645771Y31084286D02*
X27598152Y30989048D01*
X27598152Y30989048D02*
X27598152Y30893810D01*
X28217200Y30608095D02*
X28264819Y30512857D01*
X28264819Y30512857D02*
X28264819Y30322381D01*
X28264819Y30322381D02*
X28217200Y30227143D01*
X28217200Y30227143D02*
X28121961Y30179524D01*
X28121961Y30179524D02*
X28074342Y30179524D01*
X28074342Y30179524D02*
X27979104Y30227143D01*
X27979104Y30227143D02*
X27931485Y30322381D01*
X27931485Y30322381D02*
X27931485Y30465238D01*
X27931485Y30465238D02*
X27883866Y30560476D01*
X27883866Y30560476D02*
X27788628Y30608095D01*
X27788628Y30608095D02*
X27741009Y30608095D01*
X27741009Y30608095D02*
X27645771Y30560476D01*
X27645771Y30560476D02*
X27598152Y30465238D01*
X27598152Y30465238D02*
X27598152Y30322381D01*
X27598152Y30322381D02*
X27645771Y30227143D01*
X28217200Y29370000D02*
X28264819Y29465238D01*
X28264819Y29465238D02*
X28264819Y29655714D01*
X28264819Y29655714D02*
X28217200Y29750952D01*
X28217200Y29750952D02*
X28121961Y29798571D01*
X28121961Y29798571D02*
X27741009Y29798571D01*
X27741009Y29798571D02*
X27645771Y29750952D01*
X27645771Y29750952D02*
X27598152Y29655714D01*
X27598152Y29655714D02*
X27598152Y29465238D01*
X27598152Y29465238D02*
X27645771Y29370000D01*
X27645771Y29370000D02*
X27741009Y29322381D01*
X27741009Y29322381D02*
X27836247Y29322381D01*
X27836247Y29322381D02*
X27931485Y29798571D01*
X28217200Y28941428D02*
X28264819Y28798571D01*
X28264819Y28798571D02*
X28264819Y28560476D01*
X28264819Y28560476D02*
X28217200Y28465238D01*
X28217200Y28465238D02*
X28169580Y28417619D01*
X28169580Y28417619D02*
X28074342Y28370000D01*
X28074342Y28370000D02*
X27979104Y28370000D01*
X27979104Y28370000D02*
X27883866Y28417619D01*
X27883866Y28417619D02*
X27836247Y28465238D01*
X27836247Y28465238D02*
X27788628Y28560476D01*
X27788628Y28560476D02*
X27741009Y28750952D01*
X27741009Y28750952D02*
X27693390Y28846190D01*
X27693390Y28846190D02*
X27645771Y28893809D01*
X27645771Y28893809D02*
X27550533Y28941428D01*
X27550533Y28941428D02*
X27455295Y28941428D01*
X27455295Y28941428D02*
X27360057Y28893809D01*
X27360057Y28893809D02*
X27312438Y28846190D01*
X27312438Y28846190D02*
X27264819Y28750952D01*
X27264819Y28750952D02*
X27264819Y28512857D01*
X27264819Y28512857D02*
X27312438Y28370000D01*
X28217200Y27560476D02*
X28264819Y27655714D01*
X28264819Y27655714D02*
X28264819Y27846190D01*
X28264819Y27846190D02*
X28217200Y27941428D01*
X28217200Y27941428D02*
X28121961Y27989047D01*
X28121961Y27989047D02*
X27741009Y27989047D01*
X27741009Y27989047D02*
X27645771Y27941428D01*
X27645771Y27941428D02*
X27598152Y27846190D01*
X27598152Y27846190D02*
X27598152Y27655714D01*
X27598152Y27655714D02*
X27645771Y27560476D01*
X27645771Y27560476D02*
X27741009Y27512857D01*
X27741009Y27512857D02*
X27836247Y27512857D01*
X27836247Y27512857D02*
X27931485Y27989047D01*
X27598152Y27084285D02*
X28264819Y27084285D01*
X27693390Y27084285D02*
X27645771Y27036666D01*
X27645771Y27036666D02*
X27598152Y26941428D01*
X27598152Y26941428D02*
X27598152Y26798571D01*
X27598152Y26798571D02*
X27645771Y26703333D01*
X27645771Y26703333D02*
X27741009Y26655714D01*
X27741009Y26655714D02*
X28264819Y26655714D01*
X28217200Y26227142D02*
X28264819Y26131904D01*
X28264819Y26131904D02*
X28264819Y25941428D01*
X28264819Y25941428D02*
X28217200Y25846190D01*
X28217200Y25846190D02*
X28121961Y25798571D01*
X28121961Y25798571D02*
X28074342Y25798571D01*
X28074342Y25798571D02*
X27979104Y25846190D01*
X27979104Y25846190D02*
X27931485Y25941428D01*
X27931485Y25941428D02*
X27931485Y26084285D01*
X27931485Y26084285D02*
X27883866Y26179523D01*
X27883866Y26179523D02*
X27788628Y26227142D01*
X27788628Y26227142D02*
X27741009Y26227142D01*
X27741009Y26227142D02*
X27645771Y26179523D01*
X27645771Y26179523D02*
X27598152Y26084285D01*
X27598152Y26084285D02*
X27598152Y25941428D01*
X27598152Y25941428D02*
X27645771Y25846190D01*
X28217200Y24989047D02*
X28264819Y25084285D01*
X28264819Y25084285D02*
X28264819Y25274761D01*
X28264819Y25274761D02*
X28217200Y25369999D01*
X28217200Y25369999D02*
X28121961Y25417618D01*
X28121961Y25417618D02*
X27741009Y25417618D01*
X27741009Y25417618D02*
X27645771Y25369999D01*
X27645771Y25369999D02*
X27598152Y25274761D01*
X27598152Y25274761D02*
X27598152Y25084285D01*
X27598152Y25084285D02*
X27645771Y24989047D01*
X27645771Y24989047D02*
X27741009Y24941428D01*
X27741009Y24941428D02*
X27836247Y24941428D01*
X27836247Y24941428D02*
X27931485Y25417618D01*
X25224819Y52583809D02*
X26224819Y52250476D01*
X26224819Y52250476D02*
X25224819Y51917143D01*
X26224819Y51060000D02*
X26224819Y51631428D01*
X26224819Y51345714D02*
X25224819Y51345714D01*
X25224819Y51345714D02*
X25367676Y51440952D01*
X25367676Y51440952D02*
X25462914Y51536190D01*
X25462914Y51536190D02*
X25510533Y51631428D01*
X26129580Y50631428D02*
X26177200Y50583809D01*
X26177200Y50583809D02*
X26224819Y50631428D01*
X26224819Y50631428D02*
X26177200Y50679047D01*
X26177200Y50679047D02*
X26129580Y50631428D01*
X26129580Y50631428D02*
X26224819Y50631428D01*
X25224819Y49964762D02*
X25224819Y49869524D01*
X25224819Y49869524D02*
X25272438Y49774286D01*
X25272438Y49774286D02*
X25320057Y49726667D01*
X25320057Y49726667D02*
X25415295Y49679048D01*
X25415295Y49679048D02*
X25605771Y49631429D01*
X25605771Y49631429D02*
X25843866Y49631429D01*
X25843866Y49631429D02*
X26034342Y49679048D01*
X26034342Y49679048D02*
X26129580Y49726667D01*
X26129580Y49726667D02*
X26177200Y49774286D01*
X26177200Y49774286D02*
X26224819Y49869524D01*
X26224819Y49869524D02*
X26224819Y49964762D01*
X26224819Y49964762D02*
X26177200Y50060000D01*
X26177200Y50060000D02*
X26129580Y50107619D01*
X26129580Y50107619D02*
X26034342Y50155238D01*
X26034342Y50155238D02*
X25843866Y50202857D01*
X25843866Y50202857D02*
X25605771Y50202857D01*
X25605771Y50202857D02*
X25415295Y50155238D01*
X25415295Y50155238D02*
X25320057Y50107619D01*
X25320057Y50107619D02*
X25272438Y50060000D01*
X25272438Y50060000D02*
X25224819Y49964762D01*
D11*
X18567381Y22425682D02*
X18567381Y23695682D01*
X18567381Y23695682D02*
X18265000Y23695682D01*
X18265000Y23695682D02*
X18083571Y23635206D01*
X18083571Y23635206D02*
X17962619Y23514254D01*
X17962619Y23514254D02*
X17902142Y23393301D01*
X17902142Y23393301D02*
X17841666Y23151397D01*
X17841666Y23151397D02*
X17841666Y22969968D01*
X17841666Y22969968D02*
X17902142Y22728063D01*
X17902142Y22728063D02*
X17962619Y22607111D01*
X17962619Y22607111D02*
X18083571Y22486158D01*
X18083571Y22486158D02*
X18265000Y22425682D01*
X18265000Y22425682D02*
X18567381Y22425682D01*
X17357857Y23574730D02*
X17297381Y23635206D01*
X17297381Y23635206D02*
X17176428Y23695682D01*
X17176428Y23695682D02*
X16874047Y23695682D01*
X16874047Y23695682D02*
X16753095Y23635206D01*
X16753095Y23635206D02*
X16692619Y23574730D01*
X16692619Y23574730D02*
X16632142Y23453778D01*
X16632142Y23453778D02*
X16632142Y23332825D01*
X16632142Y23332825D02*
X16692619Y23151397D01*
X16692619Y23151397D02*
X17418333Y22425682D01*
X17418333Y22425682D02*
X16632142Y22425682D01*
X18617381Y29885682D02*
X18617381Y31155682D01*
X18617381Y31155682D02*
X18315000Y31155682D01*
X18315000Y31155682D02*
X18133571Y31095206D01*
X18133571Y31095206D02*
X18012619Y30974254D01*
X18012619Y30974254D02*
X17952142Y30853301D01*
X17952142Y30853301D02*
X17891666Y30611397D01*
X17891666Y30611397D02*
X17891666Y30429968D01*
X17891666Y30429968D02*
X17952142Y30188063D01*
X17952142Y30188063D02*
X18012619Y30067111D01*
X18012619Y30067111D02*
X18133571Y29946158D01*
X18133571Y29946158D02*
X18315000Y29885682D01*
X18315000Y29885682D02*
X18617381Y29885682D01*
X16682142Y29885682D02*
X17407857Y29885682D01*
X17045000Y29885682D02*
X17045000Y31155682D01*
X17045000Y31155682D02*
X17165952Y30974254D01*
X17165952Y30974254D02*
X17286904Y30853301D01*
X17286904Y30853301D02*
X17407857Y30792825D01*
D10*
X18922381Y18991724D02*
X18922381Y19631724D01*
X18922381Y19631724D02*
X18770000Y19631724D01*
X18770000Y19631724D02*
X18678571Y19601248D01*
X18678571Y19601248D02*
X18617619Y19540296D01*
X18617619Y19540296D02*
X18587142Y19479343D01*
X18587142Y19479343D02*
X18556666Y19357439D01*
X18556666Y19357439D02*
X18556666Y19266010D01*
X18556666Y19266010D02*
X18587142Y19144105D01*
X18587142Y19144105D02*
X18617619Y19083153D01*
X18617619Y19083153D02*
X18678571Y19022200D01*
X18678571Y19022200D02*
X18770000Y18991724D01*
X18770000Y18991724D02*
X18922381Y18991724D01*
X18008095Y19418391D02*
X18008095Y18991724D01*
X18160476Y19662200D02*
X18312857Y19205058D01*
X18312857Y19205058D02*
X17916666Y19205058D01*
D11*
X18517381Y14995682D02*
X18517381Y16265682D01*
X18517381Y16265682D02*
X18215000Y16265682D01*
X18215000Y16265682D02*
X18033571Y16205206D01*
X18033571Y16205206D02*
X17912619Y16084254D01*
X17912619Y16084254D02*
X17852142Y15963301D01*
X17852142Y15963301D02*
X17791666Y15721397D01*
X17791666Y15721397D02*
X17791666Y15539968D01*
X17791666Y15539968D02*
X17852142Y15298063D01*
X17852142Y15298063D02*
X17912619Y15177111D01*
X17912619Y15177111D02*
X18033571Y15056158D01*
X18033571Y15056158D02*
X18215000Y14995682D01*
X18215000Y14995682D02*
X18517381Y14995682D01*
X17368333Y16265682D02*
X16582142Y16265682D01*
X16582142Y16265682D02*
X17005476Y15781873D01*
X17005476Y15781873D02*
X16824047Y15781873D01*
X16824047Y15781873D02*
X16703095Y15721397D01*
X16703095Y15721397D02*
X16642619Y15660920D01*
X16642619Y15660920D02*
X16582142Y15539968D01*
X16582142Y15539968D02*
X16582142Y15237587D01*
X16582142Y15237587D02*
X16642619Y15116635D01*
X16642619Y15116635D02*
X16703095Y15056158D01*
X16703095Y15056158D02*
X16824047Y14995682D01*
X16824047Y14995682D02*
X17186904Y14995682D01*
X17186904Y14995682D02*
X17307857Y15056158D01*
X17307857Y15056158D02*
X17368333Y15116635D01*
D12*
%TO.C,D6*%
X12410000Y27970000D02*
X12410000Y25470000D01*
X17590000Y27970000D02*
X17590000Y25470000D01*
D13*
X13100000Y28720000D02*
G75*
G02*
X12900000Y28720000I-100000J0D01*
G01*
X12900000Y28720000D02*
G75*
G02*
X13100000Y28720000I100000J0D01*
G01*
D14*
%TO.C,TP4*%
X3060000Y55080000D02*
G75*
G02*
X1660000Y55080000I-700000J0D01*
G01*
X1660000Y55080000D02*
G75*
G02*
X3060000Y55080000I700000J0D01*
G01*
D15*
%TO.C,SYM1*%
X19809640Y57841674D02*
X20027950Y57837640D01*
X20223563Y57830536D01*
X20383532Y57820370D01*
X20494910Y57807153D01*
X20544750Y57790892D01*
X20550372Y57781024D01*
X20574485Y57707432D01*
X20606389Y57579769D01*
X20642591Y57412794D01*
X20679597Y57221260D01*
X20691382Y57156635D01*
X20746195Y56858158D01*
X20790247Y56623582D01*
X20825364Y56444774D01*
X20853374Y56313604D01*
X20876101Y56221941D01*
X20895374Y56161652D01*
X20913019Y56124606D01*
X20930861Y56102673D01*
X20933856Y56100123D01*
X20996288Y56064255D01*
X21110527Y56011178D01*
X21263171Y55946037D01*
X21440818Y55873975D01*
X21630066Y55800137D01*
X21817514Y55729667D01*
X21989758Y55667709D01*
X22133398Y55619407D01*
X22235032Y55589905D01*
X22281257Y55584347D01*
X22287255Y55588064D01*
X22345258Y55626533D01*
X22452243Y55698879D01*
X22598353Y55798393D01*
X22773733Y55918368D01*
X22968529Y56052096D01*
X23022124Y56088797D01*
X23214367Y56217854D01*
X23386295Y56329387D01*
X23527713Y56417031D01*
X23628425Y56474420D01*
X23678234Y56495188D01*
X23691329Y56490713D01*
X23755856Y56444065D01*
X23861227Y56352032D01*
X24000351Y56221205D01*
X24166135Y56058172D01*
X24351488Y55869526D01*
X24455235Y55761699D01*
X24616818Y55591209D01*
X24755220Y55441985D01*
X24863154Y55322042D01*
X24933334Y55239391D01*
X24958473Y55202046D01*
X24949154Y55176388D01*
X24905071Y55097393D01*
X24832976Y54982673D01*
X24742001Y54847193D01*
X24675612Y54750867D01*
X24543773Y54558557D01*
X24403754Y54353340D01*
X24276519Y54165897D01*
X24028155Y53798705D01*
X24194813Y53490474D01*
X24233280Y53417895D01*
X24299077Y53285905D01*
X24344504Y53183834D01*
X24361441Y53129283D01*
X24339690Y53111431D01*
X24256871Y53067099D01*
X24120326Y53001621D01*
X23938721Y52918638D01*
X23720721Y52821794D01*
X23474993Y52714733D01*
X23210201Y52601097D01*
X22935012Y52484532D01*
X22658090Y52368679D01*
X22388101Y52257183D01*
X22133710Y52153686D01*
X21903584Y52061834D01*
X21706388Y51985267D01*
X21550786Y51927631D01*
X21445446Y51892569D01*
X21399031Y51883724D01*
X21397675Y51884323D01*
X21354768Y51925522D01*
X21287568Y52011698D01*
X21210008Y52125058D01*
X21186325Y52160840D01*
X20961643Y52433101D01*
X20694032Y52658429D01*
X20394630Y52831490D01*
X20074577Y52946949D01*
X19745012Y52999470D01*
X19417075Y52983719D01*
X19125399Y52919915D01*
X18830868Y52805354D01*
X18568108Y52638347D01*
X18318506Y52409160D01*
X18238768Y52319107D01*
X18042309Y52027986D01*
X17909998Y51713497D01*
X17840651Y51384754D01*
X17833083Y51050870D01*
X17886112Y50720959D01*
X17998551Y50404135D01*
X18169218Y50109509D01*
X18396927Y49846198D01*
X18680495Y49623312D01*
X18750719Y49580460D01*
X19071688Y49434808D01*
X19405922Y49357453D01*
X19744765Y49346370D01*
X20079561Y49399531D01*
X20401653Y49514913D01*
X20702386Y49690488D01*
X20973103Y49924232D01*
X21205147Y50214119D01*
X21211400Y50223533D01*
X21290438Y50335692D01*
X21357636Y50419755D01*
X21399031Y50458149D01*
X21431485Y50453305D01*
X21525980Y50423184D01*
X21672439Y50369775D01*
X21862195Y50296720D01*
X22086580Y50207661D01*
X22336927Y50106240D01*
X22604568Y49996099D01*
X22880836Y49880880D01*
X23157063Y49764225D01*
X23424581Y49649776D01*
X23674724Y49541176D01*
X23898824Y49442065D01*
X24088213Y49356087D01*
X24234224Y49286882D01*
X24328189Y49238094D01*
X24361441Y49213364D01*
X24356937Y49192798D01*
X24324571Y49112004D01*
X24267822Y48992596D01*
X24194813Y48852174D01*
X24028155Y48543942D01*
X24276519Y48176750D01*
X24350063Y48068267D01*
X24487476Y47866488D01*
X24625110Y47665322D01*
X24742001Y47495454D01*
X24805704Y47401705D01*
X24884849Y47279858D01*
X24939029Y47189513D01*
X24959118Y47145386D01*
X24950589Y47126428D01*
X24898350Y47057900D01*
X24806376Y46952257D01*
X24683713Y46818694D01*
X24539409Y46666407D01*
X24382509Y46504591D01*
X24222061Y46342442D01*
X24067110Y46189154D01*
X23926705Y46053924D01*
X23809891Y45945946D01*
X23725715Y45874416D01*
X23683225Y45848529D01*
X23675141Y45850022D01*
X23609338Y45880832D01*
X23495492Y45946651D01*
X23343886Y46041117D01*
X23164804Y46157871D01*
X22968529Y46290552D01*
X22914390Y46327763D01*
X22723882Y46458427D01*
X22555460Y46573520D01*
X22418978Y46666335D01*
X22324292Y46730164D01*
X22281257Y46758300D01*
X22279413Y46758992D01*
X22226764Y46750688D01*
X22120108Y46718979D01*
X21972848Y46669007D01*
X21798385Y46605917D01*
X21610121Y46534854D01*
X21421459Y46460961D01*
X21245800Y46389383D01*
X21096547Y46325263D01*
X20987100Y46273745D01*
X20930861Y46239974D01*
X20927370Y46236591D01*
X20909706Y46212411D01*
X20891892Y46171574D01*
X20872104Y46105948D01*
X20848513Y46007402D01*
X20819293Y45867805D01*
X20782618Y45679024D01*
X20736662Y45432929D01*
X20679597Y45121387D01*
X20667586Y45056771D01*
X20630459Y44871665D01*
X20595282Y44715957D01*
X20565548Y44604401D01*
X20544750Y44551755D01*
X20527398Y44542948D01*
X20444047Y44528263D01*
X20305868Y44516626D01*
X20125809Y44508047D01*
X19916815Y44502532D01*
X19691835Y44500093D01*
X19463814Y44500736D01*
X19245700Y44504472D01*
X19050438Y44511309D01*
X18890977Y44521256D01*
X18780261Y44534322D01*
X18731240Y44550515D01*
X18723997Y44567048D01*
X18701169Y44649295D01*
X18668881Y44788319D01*
X18629540Y44973026D01*
X18585553Y45192321D01*
X18539326Y45435109D01*
X18514629Y45567675D01*
X18471801Y45794888D01*
X18434298Y45990460D01*
X18404160Y46143931D01*
X18383425Y46244842D01*
X18374130Y46282733D01*
X18372214Y46284157D01*
X18323537Y46308288D01*
X18221560Y46354291D01*
X18079814Y46416415D01*
X17911828Y46488911D01*
X17731132Y46566030D01*
X17551258Y46642020D01*
X17385734Y46711133D01*
X17248092Y46767618D01*
X17151860Y46805726D01*
X17110570Y46819706D01*
X17096042Y46813539D01*
X17026909Y46772499D01*
X16910542Y46698055D01*
X16756073Y46596189D01*
X16572633Y46472882D01*
X16369352Y46334118D01*
X16258025Y46257987D01*
X16062845Y46126604D01*
X15891550Y46013959D01*
X15753481Y45926059D01*
X15657979Y45868913D01*
X15614388Y45848529D01*
X15590742Y45862693D01*
X15520089Y45921940D01*
X15413162Y46019137D01*
X15279022Y46145363D01*
X15126730Y46291695D01*
X14965347Y46449211D01*
X14803934Y46608988D01*
X14651550Y46762105D01*
X14517257Y46899639D01*
X14410115Y47012668D01*
X14339186Y47092269D01*
X14313529Y47129520D01*
X14323505Y47150198D01*
X14369770Y47226126D01*
X14448507Y47348657D01*
X14553945Y47508957D01*
X14680316Y47698198D01*
X14821849Y47907547D01*
X15330168Y48655084D01*
X15073298Y49278204D01*
X14816427Y49901324D01*
X13920640Y50070197D01*
X13024853Y50239071D01*
X13024853Y52103576D01*
X14816427Y52441324D01*
X15073298Y53064444D01*
X15330168Y53687564D01*
X14821849Y54435100D01*
X14721638Y54583054D01*
X14590100Y54779195D01*
X14477753Y54949011D01*
X14390363Y55083683D01*
X14333699Y55174390D01*
X14313529Y55212315D01*
X14327873Y55235607D01*
X14387977Y55305230D01*
X14486613Y55410594D01*
X14614724Y55542771D01*
X14763254Y55692833D01*
X14923146Y55851852D01*
X15085342Y56010901D01*
X15240785Y56161052D01*
X15380419Y56293377D01*
X15495186Y56398948D01*
X15576030Y56468837D01*
X15613893Y56494118D01*
X15630160Y56488237D01*
X15702724Y56447517D01*
X15822146Y56373158D01*
X15979063Y56271188D01*
X16164116Y56147636D01*
X16367941Y56008529D01*
X16479105Y55932189D01*
X16672635Y55800867D01*
X16841533Y55688279D01*
X16976639Y55600427D01*
X17068796Y55543313D01*
X17108842Y55522941D01*
X17111061Y55523276D01*
X17161826Y55541246D01*
X17265488Y55582473D01*
X17408507Y55641210D01*
X17577340Y55711710D01*
X17758447Y55788227D01*
X17938286Y55865013D01*
X18103315Y55936321D01*
X18239993Y55996406D01*
X18334779Y56039519D01*
X18374130Y56059915D01*
X18377621Y56071982D01*
X18393365Y56145302D01*
X18419446Y56275978D01*
X18453825Y56453549D01*
X18494465Y56667555D01*
X18539326Y56907538D01*
X18563111Y57034021D01*
X18608493Y57266174D01*
X18650403Y57469156D01*
X18686436Y57631873D01*
X18714184Y57743230D01*
X18731240Y57792132D01*
X18748148Y57800916D01*
X18830762Y57815487D01*
X18968358Y57826935D01*
X19147991Y57835269D01*
X19356714Y57840498D01*
X19581579Y57842630D01*
X19809640Y57841674D01*
G36*
X19809640Y57841674D02*
G01*
X20027950Y57837640D01*
X20223563Y57830536D01*
X20383532Y57820370D01*
X20494910Y57807153D01*
X20544750Y57790892D01*
X20550372Y57781024D01*
X20574485Y57707432D01*
X20606389Y57579769D01*
X20642591Y57412794D01*
X20679597Y57221260D01*
X20691382Y57156635D01*
X20746195Y56858158D01*
X20790247Y56623582D01*
X20825364Y56444774D01*
X20853374Y56313604D01*
X20876101Y56221941D01*
X20895374Y56161652D01*
X20913019Y56124606D01*
X20930861Y56102673D01*
X20933856Y56100123D01*
X20996288Y56064255D01*
X21110527Y56011178D01*
X21263171Y55946037D01*
X21440818Y55873975D01*
X21630066Y55800137D01*
X21817514Y55729667D01*
X21989758Y55667709D01*
X22133398Y55619407D01*
X22235032Y55589905D01*
X22281257Y55584347D01*
X22287255Y55588064D01*
X22345258Y55626533D01*
X22452243Y55698879D01*
X22598353Y55798393D01*
X22773733Y55918368D01*
X22968529Y56052096D01*
X23022124Y56088797D01*
X23214367Y56217854D01*
X23386295Y56329387D01*
X23527713Y56417031D01*
X23628425Y56474420D01*
X23678234Y56495188D01*
X23691329Y56490713D01*
X23755856Y56444065D01*
X23861227Y56352032D01*
X24000351Y56221205D01*
X24166135Y56058172D01*
X24351488Y55869526D01*
X24455235Y55761699D01*
X24616818Y55591209D01*
X24755220Y55441985D01*
X24863154Y55322042D01*
X24933334Y55239391D01*
X24958473Y55202046D01*
X24949154Y55176388D01*
X24905071Y55097393D01*
X24832976Y54982673D01*
X24742001Y54847193D01*
X24675612Y54750867D01*
X24543773Y54558557D01*
X24403754Y54353340D01*
X24276519Y54165897D01*
X24028155Y53798705D01*
X24194813Y53490474D01*
X24233280Y53417895D01*
X24299077Y53285905D01*
X24344504Y53183834D01*
X24361441Y53129283D01*
X24339690Y53111431D01*
X24256871Y53067099D01*
X24120326Y53001621D01*
X23938721Y52918638D01*
X23720721Y52821794D01*
X23474993Y52714733D01*
X23210201Y52601097D01*
X22935012Y52484532D01*
X22658090Y52368679D01*
X22388101Y52257183D01*
X22133710Y52153686D01*
X21903584Y52061834D01*
X21706388Y51985267D01*
X21550786Y51927631D01*
X21445446Y51892569D01*
X21399031Y51883724D01*
X21397675Y51884323D01*
X21354768Y51925522D01*
X21287568Y52011698D01*
X21210008Y52125058D01*
X21186325Y52160840D01*
X20961643Y52433101D01*
X20694032Y52658429D01*
X20394630Y52831490D01*
X20074577Y52946949D01*
X19745012Y52999470D01*
X19417075Y52983719D01*
X19125399Y52919915D01*
X18830868Y52805354D01*
X18568108Y52638347D01*
X18318506Y52409160D01*
X18238768Y52319107D01*
X18042309Y52027986D01*
X17909998Y51713497D01*
X17840651Y51384754D01*
X17833083Y51050870D01*
X17886112Y50720959D01*
X17998551Y50404135D01*
X18169218Y50109509D01*
X18396927Y49846198D01*
X18680495Y49623312D01*
X18750719Y49580460D01*
X19071688Y49434808D01*
X19405922Y49357453D01*
X19744765Y49346370D01*
X20079561Y49399531D01*
X20401653Y49514913D01*
X20702386Y49690488D01*
X20973103Y49924232D01*
X21205147Y50214119D01*
X21211400Y50223533D01*
X21290438Y50335692D01*
X21357636Y50419755D01*
X21399031Y50458149D01*
X21431485Y50453305D01*
X21525980Y50423184D01*
X21672439Y50369775D01*
X21862195Y50296720D01*
X22086580Y50207661D01*
X22336927Y50106240D01*
X22604568Y49996099D01*
X22880836Y49880880D01*
X23157063Y49764225D01*
X23424581Y49649776D01*
X23674724Y49541176D01*
X23898824Y49442065D01*
X24088213Y49356087D01*
X24234224Y49286882D01*
X24328189Y49238094D01*
X24361441Y49213364D01*
X24356937Y49192798D01*
X24324571Y49112004D01*
X24267822Y48992596D01*
X24194813Y48852174D01*
X24028155Y48543942D01*
X24276519Y48176750D01*
X24350063Y48068267D01*
X24487476Y47866488D01*
X24625110Y47665322D01*
X24742001Y47495454D01*
X24805704Y47401705D01*
X24884849Y47279858D01*
X24939029Y47189513D01*
X24959118Y47145386D01*
X24950589Y47126428D01*
X24898350Y47057900D01*
X24806376Y46952257D01*
X24683713Y46818694D01*
X24539409Y46666407D01*
X24382509Y46504591D01*
X24222061Y46342442D01*
X24067110Y46189154D01*
X23926705Y46053924D01*
X23809891Y45945946D01*
X23725715Y45874416D01*
X23683225Y45848529D01*
X23675141Y45850022D01*
X23609338Y45880832D01*
X23495492Y45946651D01*
X23343886Y46041117D01*
X23164804Y46157871D01*
X22968529Y46290552D01*
X22914390Y46327763D01*
X22723882Y46458427D01*
X22555460Y46573520D01*
X22418978Y46666335D01*
X22324292Y46730164D01*
X22281257Y46758300D01*
X22279413Y46758992D01*
X22226764Y46750688D01*
X22120108Y46718979D01*
X21972848Y46669007D01*
X21798385Y46605917D01*
X21610121Y46534854D01*
X21421459Y46460961D01*
X21245800Y46389383D01*
X21096547Y46325263D01*
X20987100Y46273745D01*
X20930861Y46239974D01*
X20927370Y46236591D01*
X20909706Y46212411D01*
X20891892Y46171574D01*
X20872104Y46105948D01*
X20848513Y46007402D01*
X20819293Y45867805D01*
X20782618Y45679024D01*
X20736662Y45432929D01*
X20679597Y45121387D01*
X20667586Y45056771D01*
X20630459Y44871665D01*
X20595282Y44715957D01*
X20565548Y44604401D01*
X20544750Y44551755D01*
X20527398Y44542948D01*
X20444047Y44528263D01*
X20305868Y44516626D01*
X20125809Y44508047D01*
X19916815Y44502532D01*
X19691835Y44500093D01*
X19463814Y44500736D01*
X19245700Y44504472D01*
X19050438Y44511309D01*
X18890977Y44521256D01*
X18780261Y44534322D01*
X18731240Y44550515D01*
X18723997Y44567048D01*
X18701169Y44649295D01*
X18668881Y44788319D01*
X18629540Y44973026D01*
X18585553Y45192321D01*
X18539326Y45435109D01*
X18514629Y45567675D01*
X18471801Y45794888D01*
X18434298Y45990460D01*
X18404160Y46143931D01*
X18383425Y46244842D01*
X18374130Y46282733D01*
X18372214Y46284157D01*
X18323537Y46308288D01*
X18221560Y46354291D01*
X18079814Y46416415D01*
X17911828Y46488911D01*
X17731132Y46566030D01*
X17551258Y46642020D01*
X17385734Y46711133D01*
X17248092Y46767618D01*
X17151860Y46805726D01*
X17110570Y46819706D01*
X17096042Y46813539D01*
X17026909Y46772499D01*
X16910542Y46698055D01*
X16756073Y46596189D01*
X16572633Y46472882D01*
X16369352Y46334118D01*
X16258025Y46257987D01*
X16062845Y46126604D01*
X15891550Y46013959D01*
X15753481Y45926059D01*
X15657979Y45868913D01*
X15614388Y45848529D01*
X15590742Y45862693D01*
X15520089Y45921940D01*
X15413162Y46019137D01*
X15279022Y46145363D01*
X15126730Y46291695D01*
X14965347Y46449211D01*
X14803934Y46608988D01*
X14651550Y46762105D01*
X14517257Y46899639D01*
X14410115Y47012668D01*
X14339186Y47092269D01*
X14313529Y47129520D01*
X14323505Y47150198D01*
X14369770Y47226126D01*
X14448507Y47348657D01*
X14553945Y47508957D01*
X14680316Y47698198D01*
X14821849Y47907547D01*
X15330168Y48655084D01*
X15073298Y49278204D01*
X14816427Y49901324D01*
X13920640Y50070197D01*
X13024853Y50239071D01*
X13024853Y52103576D01*
X14816427Y52441324D01*
X15073298Y53064444D01*
X15330168Y53687564D01*
X14821849Y54435100D01*
X14721638Y54583054D01*
X14590100Y54779195D01*
X14477753Y54949011D01*
X14390363Y55083683D01*
X14333699Y55174390D01*
X14313529Y55212315D01*
X14327873Y55235607D01*
X14387977Y55305230D01*
X14486613Y55410594D01*
X14614724Y55542771D01*
X14763254Y55692833D01*
X14923146Y55851852D01*
X15085342Y56010901D01*
X15240785Y56161052D01*
X15380419Y56293377D01*
X15495186Y56398948D01*
X15576030Y56468837D01*
X15613893Y56494118D01*
X15630160Y56488237D01*
X15702724Y56447517D01*
X15822146Y56373158D01*
X15979063Y56271188D01*
X16164116Y56147636D01*
X16367941Y56008529D01*
X16479105Y55932189D01*
X16672635Y55800867D01*
X16841533Y55688279D01*
X16976639Y55600427D01*
X17068796Y55543313D01*
X17108842Y55522941D01*
X17111061Y55523276D01*
X17161826Y55541246D01*
X17265488Y55582473D01*
X17408507Y55641210D01*
X17577340Y55711710D01*
X17758447Y55788227D01*
X17938286Y55865013D01*
X18103315Y55936321D01*
X18239993Y55996406D01*
X18334779Y56039519D01*
X18374130Y56059915D01*
X18377621Y56071982D01*
X18393365Y56145302D01*
X18419446Y56275978D01*
X18453825Y56453549D01*
X18494465Y56667555D01*
X18539326Y56907538D01*
X18563111Y57034021D01*
X18608493Y57266174D01*
X18650403Y57469156D01*
X18686436Y57631873D01*
X18714184Y57743230D01*
X18731240Y57792132D01*
X18748148Y57800916D01*
X18830762Y57815487D01*
X18968358Y57826935D01*
X19147991Y57835269D01*
X19356714Y57840498D01*
X19581579Y57842630D01*
X19809640Y57841674D01*
G37*
D16*
%TO.C,D2*%
X15988000Y23880000D02*
X14188000Y23880000D01*
X15988000Y22080000D02*
X14188000Y22080000D01*
X16600000Y23480000D02*
X16600000Y23480000D01*
X16600000Y23380000D02*
X16600000Y23380000D01*
X16600000Y23480000D02*
G75*
G02*
X16600000Y23380000I0J-50000D01*
G01*
X16600000Y23380000D02*
G75*
G02*
X16600000Y23480000I0J50000D01*
G01*
%TO.C,D1*%
X15988000Y31350000D02*
X14188000Y31350000D01*
X15988000Y29550000D02*
X14188000Y29550000D01*
X16600000Y30950000D02*
X16600000Y30950000D01*
X16600000Y30850000D02*
X16600000Y30850000D01*
X16600000Y30950000D02*
G75*
G02*
X16600000Y30850000I0J-50000D01*
G01*
X16600000Y30850000D02*
G75*
G02*
X16600000Y30950000I0J50000D01*
G01*
D12*
%TO.C,D4*%
X12410000Y20530000D02*
X12410000Y18030000D01*
X17590000Y20530000D02*
X17590000Y18030000D01*
D13*
X13100000Y21280000D02*
G75*
G02*
X12900000Y21280000I-100000J0D01*
G01*
X12900000Y21280000D02*
G75*
G02*
X13100000Y21280000I100000J0D01*
G01*
D14*
%TO.C,TP3*%
X26140000Y3270000D02*
G75*
G02*
X24740000Y3270000I-700000J0D01*
G01*
X24740000Y3270000D02*
G75*
G02*
X26140000Y3270000I700000J0D01*
G01*
D16*
%TO.C,D3*%
X15988000Y16480000D02*
X14188000Y16480000D01*
X15988000Y14680000D02*
X14188000Y14680000D01*
X16600000Y16080000D02*
X16600000Y16080000D01*
X16600000Y15980000D02*
X16600000Y15980000D01*
X16600000Y16080000D02*
G75*
G02*
X16600000Y15980000I0J-50000D01*
G01*
X16600000Y15980000D02*
G75*
G02*
X16600000Y16080000I0J50000D01*
G01*
%TD*%
%LPC*%
D17*
%TO.C,J4*%
X1940000Y30695000D03*
D18*
X1940000Y31965000D03*
X1940000Y33235000D03*
X1940000Y34505000D03*
%TD*%
D19*
%TO.C,J1*%
X6295000Y44020000D03*
X6295000Y38240000D03*
D20*
X6795000Y45450000D03*
D21*
X2615000Y45450000D03*
D20*
X6795000Y36810000D03*
D21*
X2615000Y36810000D03*
%TD*%
D22*
%TO.C,D6*%
X13000000Y27910000D03*
X14310000Y27910000D03*
X15690000Y27910000D03*
X17000000Y27910000D03*
X17000000Y25530000D03*
X15690000Y25530000D03*
X14310000Y25530000D03*
X13000000Y25530000D03*
%TD*%
D18*
%TO.C,TP4*%
X2360000Y55080000D03*
%TD*%
D23*
%TO.C,D2*%
X15750000Y23425000D03*
D24*
X14700000Y22980000D03*
D23*
X15750000Y22535000D03*
%TD*%
%TO.C,D1*%
X15750000Y30895000D03*
D24*
X14700000Y30450000D03*
D23*
X15750000Y30005000D03*
%TD*%
D22*
%TO.C,D4*%
X13000000Y20470000D03*
X14310000Y20470000D03*
X15690000Y20470000D03*
X17000000Y20470000D03*
X17000000Y18090000D03*
X15690000Y18090000D03*
X14310000Y18090000D03*
X13000000Y18090000D03*
%TD*%
D18*
%TO.C,TP3*%
X25440000Y3270000D03*
%TD*%
D23*
%TO.C,D3*%
X15750000Y16025000D03*
D24*
X14700000Y15580000D03*
D23*
X15750000Y15135000D03*
%TD*%
%LPD*%
M02*
