%TF.GenerationSoftware,KiCad,Pcbnew,9.0.5*%
%TF.CreationDate,2025-11-23T16:16:19+01:00*%
%TF.ProjectId,horsesense,686f7273-6573-4656-9e73-652e6b696361,1.0*%
%TF.SameCoordinates,Original*%
%TF.FileFunction,Soldermask,Top*%
%TF.FilePolarity,Negative*%
%FSLAX46Y46*%
G04 Gerber Fmt 4.6, Leading zero omitted, Abs format (unit mm)*
G04 Created by KiCad (PCBNEW 9.0.5) date 2025-11-23 16:16:19*
%MOMM*%
%LPD*%
G01*
G04 APERTURE LIST*
G04 Aperture macros list*
%AMRoundRect*
0 Rectangle with rounded corners*
0 $1 Rounding radius*
0 $2 $3 $4 $5 $6 $7 $8 $9 X,Y pos of 4 corners*
0 Add a 4 corners polygon primitive as box body*
4,1,4,$2,$3,$4,$5,$6,$7,$8,$9,$2,$3,0*
0 Add four circle primitives for the rounded corners*
1,1,$1+$1,$2,$3*
1,1,$1+$1,$4,$5*
1,1,$1+$1,$6,$7*
1,1,$1+$1,$8,$9*
0 Add four rect primitives between the rounded corners*
20,1,$1+$1,$2,$3,$4,$5,0*
20,1,$1+$1,$4,$5,$6,$7,0*
20,1,$1+$1,$6,$7,$8,$9,0*
20,1,$1+$1,$8,$9,$2,$3,0*%
%AMFreePoly0*
4,1,23,0.500000,-0.750000,0.000000,-0.750000,0.000000,-0.745722,-0.065263,-0.745722,-0.191342,-0.711940,-0.304381,-0.646677,-0.396677,-0.554381,-0.461940,-0.441342,-0.495722,-0.315263,-0.495722,-0.250000,-0.500000,-0.250000,-0.500000,0.250000,-0.495722,0.250000,-0.495722,0.315263,-0.461940,0.441342,-0.396677,0.554381,-0.304381,0.646677,-0.191342,0.711940,-0.065263,0.745722,0.000000,0.745722,
0.000000,0.750000,0.500000,0.750000,0.500000,-0.750000,0.500000,-0.750000,$1*%
%AMFreePoly1*
4,1,23,0.000000,0.745722,0.065263,0.745722,0.191342,0.711940,0.304381,0.646677,0.396677,0.554381,0.461940,0.441342,0.495722,0.315263,0.495722,0.250000,0.500000,0.250000,0.500000,-0.250000,0.495722,-0.250000,0.495722,-0.315263,0.461940,-0.441342,0.396677,-0.554381,0.304381,-0.646677,0.191342,-0.711940,0.065263,-0.745722,0.000000,-0.745722,0.000000,-0.750000,-0.500000,-0.750000,
-0.500000,0.750000,0.000000,0.750000,0.000000,0.745722,0.000000,0.745722,$1*%
G04 Aperture macros list end*
%ADD10C,0.010000*%
%ADD11RoundRect,0.218750X-0.381250X0.218750X-0.381250X-0.218750X0.381250X-0.218750X0.381250X0.218750X0*%
%ADD12RoundRect,0.175000X0.725000X0.175000X-0.725000X0.175000X-0.725000X-0.175000X0.725000X-0.175000X0*%
%ADD13RoundRect,0.200000X0.700000X0.200000X-0.700000X0.200000X-0.700000X-0.200000X0.700000X-0.200000X0*%
%ADD14RoundRect,0.250000X0.450000X-0.262500X0.450000X0.262500X-0.450000X0.262500X-0.450000X-0.262500X0*%
%ADD15RoundRect,0.250000X0.475000X-0.250000X0.475000X0.250000X-0.475000X0.250000X-0.475000X-0.250000X0*%
%ADD16R,0.250000X0.250000*%
%ADD17RoundRect,0.250000X-0.250000X-1.500000X0.250000X-1.500000X0.250000X1.500000X-0.250000X1.500000X0*%
%ADD18RoundRect,0.250001X-0.499999X-1.449999X0.499999X-1.449999X0.499999X1.449999X-0.499999X1.449999X0*%
%ADD19R,1.500000X0.900000*%
%ADD20R,0.900000X1.500000*%
%ADD21C,0.600000*%
%ADD22R,3.900000X3.900000*%
%ADD23C,0.254000*%
%ADD24RoundRect,0.250000X0.250000X0.475000X-0.250000X0.475000X-0.250000X-0.475000X0.250000X-0.475000X0*%
%ADD25R,1.000000X1.000000*%
%ADD26C,1.000000*%
%ADD27FreePoly0,0.000000*%
%ADD28FreePoly1,0.000000*%
%ADD29RoundRect,0.250000X-0.262500X-0.450000X0.262500X-0.450000X0.262500X0.450000X-0.262500X0.450000X0*%
%ADD30RoundRect,0.250000X-0.250000X-0.475000X0.250000X-0.475000X0.250000X0.475000X-0.250000X0.475000X0*%
%ADD31RoundRect,0.250000X0.262500X0.450000X-0.262500X0.450000X-0.262500X-0.450000X0.262500X-0.450000X0*%
%ADD32RoundRect,0.062500X0.062500X-0.350000X0.062500X0.350000X-0.062500X0.350000X-0.062500X-0.350000X0*%
%ADD33RoundRect,0.062500X0.350000X-0.062500X0.350000X0.062500X-0.350000X0.062500X-0.350000X-0.062500X0*%
%ADD34R,2.700000X2.700000*%
%ADD35RoundRect,0.162500X-0.162500X0.650000X-0.162500X-0.650000X0.162500X-0.650000X0.162500X0.650000X0*%
%ADD36RoundRect,0.218750X0.218750X0.381250X-0.218750X0.381250X-0.218750X-0.381250X0.218750X-0.381250X0*%
%ADD37RoundRect,0.250000X-0.475000X0.250000X-0.475000X-0.250000X0.475000X-0.250000X0.475000X0.250000X0*%
%ADD38RoundRect,0.150000X0.150000X-0.512500X0.150000X0.512500X-0.150000X0.512500X-0.150000X-0.512500X0*%
%ADD39RoundRect,0.250000X-0.275000X0.450000X-0.275000X-0.450000X0.275000X-0.450000X0.275000X0.450000X0*%
%ADD40FreePoly0,180.000000*%
%ADD41FreePoly1,180.000000*%
%ADD42RoundRect,0.100000X-0.400000X-0.400000X0.400000X-0.400000X0.400000X0.400000X-0.400000X0.400000X0*%
%ADD43RoundRect,0.105000X-0.420000X-0.995000X0.420000X-0.995000X0.420000X0.995000X-0.420000X0.995000X0*%
%ADD44RoundRect,0.150000X-0.425000X0.150000X-0.425000X-0.150000X0.425000X-0.150000X0.425000X0.150000X0*%
%ADD45RoundRect,0.075000X-0.500000X0.075000X-0.500000X-0.075000X0.500000X-0.075000X0.500000X0.075000X0*%
%ADD46O,2.100000X1.000000*%
%ADD47O,1.800000X1.000000*%
%ADD48FreePoly0,270.000000*%
%ADD49FreePoly1,270.000000*%
%ADD50R,0.200000X0.600000*%
%ADD51R,0.250000X0.150000*%
%ADD52R,0.600000X0.200000*%
G04 APERTURE END LIST*
%TO.C,JP1*%
G36*
X22050000Y28860000D02*
G01*
X22350000Y28860000D01*
X22350000Y27360000D01*
X22050000Y27360000D01*
X22050000Y28860000D01*
G37*
D10*
%TO.C,MT1*%
X4487500Y31585000D02*
X3912500Y31585000D01*
X3912500Y31935000D01*
X4487500Y31935000D01*
X4487500Y31585000D01*
G36*
X4487500Y31585000D02*
G01*
X3912500Y31585000D01*
X3912500Y31935000D01*
X4487500Y31935000D01*
X4487500Y31585000D01*
G37*
X4487500Y31085000D02*
X3912500Y31085000D01*
X3912500Y31435000D01*
X4487500Y31435000D01*
X4487500Y31085000D01*
G36*
X4487500Y31085000D02*
G01*
X3912500Y31085000D01*
X3912500Y31435000D01*
X4487500Y31435000D01*
X4487500Y31085000D01*
G37*
X4487500Y30585000D02*
X3912500Y30585000D01*
X3912500Y30935000D01*
X4487500Y30935000D01*
X4487500Y30585000D01*
G36*
X4487500Y30585000D02*
G01*
X3912500Y30585000D01*
X3912500Y30935000D01*
X4487500Y30935000D01*
X4487500Y30585000D01*
G37*
X4487500Y30085000D02*
X3912500Y30085000D01*
X3912500Y30435000D01*
X4487500Y30435000D01*
X4487500Y30085000D01*
G36*
X4487500Y30085000D02*
G01*
X3912500Y30085000D01*
X3912500Y30435000D01*
X4487500Y30435000D01*
X4487500Y30085000D01*
G37*
X5037500Y31635000D02*
X4687500Y31635000D01*
X4687500Y32210000D01*
X5037500Y32210000D01*
X5037500Y31635000D01*
G36*
X5037500Y31635000D02*
G01*
X4687500Y31635000D01*
X4687500Y32210000D01*
X5037500Y32210000D01*
X5037500Y31635000D01*
G37*
X5037500Y29810000D02*
X4687500Y29810000D01*
X4687500Y30385000D01*
X5037500Y30385000D01*
X5037500Y29810000D01*
G36*
X5037500Y29810000D02*
G01*
X4687500Y29810000D01*
X4687500Y30385000D01*
X5037500Y30385000D01*
X5037500Y29810000D01*
G37*
X5537500Y31635000D02*
X5187500Y31635000D01*
X5187500Y32210000D01*
X5537500Y32210000D01*
X5537500Y31635000D01*
G36*
X5537500Y31635000D02*
G01*
X5187500Y31635000D01*
X5187500Y32210000D01*
X5537500Y32210000D01*
X5537500Y31635000D01*
G37*
X5537500Y29810000D02*
X5187500Y29810000D01*
X5187500Y30385000D01*
X5537500Y30385000D01*
X5537500Y29810000D01*
G36*
X5537500Y29810000D02*
G01*
X5187500Y29810000D01*
X5187500Y30385000D01*
X5537500Y30385000D01*
X5537500Y29810000D01*
G37*
X6037500Y31635000D02*
X5687500Y31635000D01*
X5687500Y32210000D01*
X6037500Y32210000D01*
X6037500Y31635000D01*
G36*
X6037500Y31635000D02*
G01*
X5687500Y31635000D01*
X5687500Y32210000D01*
X6037500Y32210000D01*
X6037500Y31635000D01*
G37*
X6037500Y29810000D02*
X5687500Y29810000D01*
X5687500Y30385000D01*
X6037500Y30385000D01*
X6037500Y29810000D01*
G36*
X6037500Y29810000D02*
G01*
X5687500Y29810000D01*
X5687500Y30385000D01*
X6037500Y30385000D01*
X6037500Y29810000D01*
G37*
X6812500Y31585000D02*
X6237500Y31585000D01*
X6237500Y31935000D01*
X6812500Y31935000D01*
X6812500Y31585000D01*
G36*
X6812500Y31585000D02*
G01*
X6237500Y31585000D01*
X6237500Y31935000D01*
X6812500Y31935000D01*
X6812500Y31585000D01*
G37*
X6812500Y31085000D02*
X6237500Y31085000D01*
X6237500Y31435000D01*
X6812500Y31435000D01*
X6812500Y31085000D01*
G36*
X6812500Y31085000D02*
G01*
X6237500Y31085000D01*
X6237500Y31435000D01*
X6812500Y31435000D01*
X6812500Y31085000D01*
G37*
X6812500Y30585000D02*
X6237500Y30585000D01*
X6237500Y30935000D01*
X6812500Y30935000D01*
X6812500Y30585000D01*
G36*
X6812500Y30585000D02*
G01*
X6237500Y30585000D01*
X6237500Y30935000D01*
X6812500Y30935000D01*
X6812500Y30585000D01*
G37*
X6812500Y30085000D02*
X6237500Y30085000D01*
X6237500Y30435000D01*
X6812500Y30435000D01*
X6812500Y30085000D01*
G36*
X6812500Y30085000D02*
G01*
X6237500Y30085000D01*
X6237500Y30435000D01*
X6812500Y30435000D01*
X6812500Y30085000D01*
G37*
%TO.C,JP2*%
G36*
X13760000Y10980000D02*
G01*
X13460000Y10980000D01*
X13460000Y12480000D01*
X13760000Y12480000D01*
X13760000Y10980000D01*
G37*
%TO.C,JP3*%
G36*
X5480000Y24110000D02*
G01*
X3980000Y24110000D01*
X3980000Y23810000D01*
X5480000Y23810000D01*
X5480000Y24110000D01*
G37*
%TD*%
D11*
%TO.C,L2*%
X2100000Y19952500D03*
X2100000Y17827500D03*
%TD*%
D12*
%TO.C,U10*%
X17680000Y15580000D03*
D13*
X17680000Y16680000D03*
X17680000Y17780000D03*
X17680000Y18880000D03*
X17680000Y19980000D03*
X17680000Y21080000D03*
X17680000Y22180000D03*
X17680000Y23280000D03*
D12*
X17680000Y24380000D03*
X8180000Y24380000D03*
D13*
X8180000Y23280000D03*
X8180000Y22180000D03*
X8180000Y21080000D03*
X8180000Y19980000D03*
X8180000Y18880000D03*
X8180000Y17780000D03*
X8180000Y16680000D03*
D12*
X8180000Y15580000D03*
%TD*%
D14*
%TO.C,R4*%
X18840000Y5090000D03*
X18840000Y6915000D03*
%TD*%
D15*
%TO.C,C24*%
X8060000Y56950000D03*
X8060000Y58850000D03*
%TD*%
D16*
%TO.C,IC1*%
X2170000Y22020000D03*
X2170000Y22420000D03*
X2170000Y22820000D03*
X1770000Y22820000D03*
X1770000Y22420000D03*
X1770000Y22020000D03*
%TD*%
D15*
%TO.C,C17*%
X23400000Y36810000D03*
X23400000Y38710000D03*
%TD*%
D14*
%TO.C,R29*%
X6040000Y53507500D03*
X6040000Y55332500D03*
%TD*%
D17*
%TO.C,J2*%
X24310000Y7980000D03*
X26310000Y7980000D03*
D18*
X21960000Y2230000D03*
X28660000Y2230000D03*
%TD*%
D19*
%TO.C,U9*%
X10700000Y58590000D03*
X10700000Y57320000D03*
X10700000Y56050000D03*
X10700000Y54780000D03*
X10700000Y53510000D03*
X10700000Y52240000D03*
X10700000Y50970000D03*
X10700000Y49700000D03*
X10700000Y48430000D03*
X10700000Y47160000D03*
X10700000Y45890000D03*
X10700000Y44620000D03*
X10700000Y43350000D03*
X10700000Y42080000D03*
D20*
X12465000Y40830000D03*
X13735000Y40830000D03*
X15005000Y40830000D03*
X16275000Y40830000D03*
X17545000Y40830000D03*
X18815000Y40830000D03*
X20085000Y40830000D03*
X21355000Y40830000D03*
X22625000Y40830000D03*
X23895000Y40830000D03*
X25165000Y40830000D03*
X26435000Y40830000D03*
D19*
X28200000Y42080000D03*
X28200000Y43350000D03*
X28200000Y44620000D03*
X28200000Y45890000D03*
X28200000Y47160000D03*
X28200000Y48430000D03*
X28200000Y49700000D03*
X28200000Y50970000D03*
X28200000Y52240000D03*
X28200000Y53510000D03*
X28200000Y54780000D03*
X28200000Y56050000D03*
X28200000Y57320000D03*
X28200000Y58590000D03*
D21*
X16550000Y51570000D03*
X16550000Y50170000D03*
X17250000Y52270000D03*
X17250000Y50870000D03*
X17250000Y49470000D03*
X17950000Y51570000D03*
D22*
X17950000Y50870000D03*
D21*
X17950000Y50170000D03*
X18650000Y52270000D03*
X18650000Y50870000D03*
X18650000Y49470000D03*
X19350000Y51570000D03*
X19350000Y50170000D03*
%TD*%
D23*
%TO.C,U1*%
X17400000Y34960000D03*
X17800000Y34960000D03*
X18200000Y34960000D03*
X18600000Y34960000D03*
X19000000Y34960000D03*
X17400000Y34560000D03*
X17800000Y34560000D03*
X18200000Y34560000D03*
X18600000Y34560000D03*
X19000000Y34560000D03*
X17400000Y34160000D03*
X17800000Y34160000D03*
X18200000Y34160000D03*
X18600000Y34160000D03*
X19000000Y34160000D03*
X17400000Y33760000D03*
X17800000Y33760000D03*
X18200000Y33760000D03*
X18600000Y33760000D03*
X19000000Y33760000D03*
%TD*%
D24*
%TO.C,C31*%
X3910000Y28420000D03*
X2010000Y28420000D03*
%TD*%
D25*
%TO.C,J4*%
X1940000Y30695000D03*
D26*
X1940000Y31965000D03*
X1940000Y33235000D03*
X1940000Y34505000D03*
%TD*%
D14*
%TO.C,R3*%
X18880000Y1387500D03*
X18880000Y3212500D03*
%TD*%
D27*
%TO.C,JP1*%
X21550000Y28110000D03*
D28*
X22850000Y28110000D03*
%TD*%
D29*
%TO.C,R6*%
X6527500Y49730000D03*
X8352500Y49730000D03*
%TD*%
D24*
%TO.C,C3*%
X14830000Y38780000D03*
X12930000Y38780000D03*
%TD*%
D30*
%TO.C,C19*%
X19830000Y20160000D03*
X21730000Y20160000D03*
%TD*%
D31*
%TO.C,R1*%
X2852500Y47610000D03*
X1027500Y47610000D03*
%TD*%
D30*
%TO.C,C10*%
X15700000Y9000000D03*
X17600000Y9000000D03*
%TD*%
D32*
%TO.C,U3*%
X13290000Y3315000D03*
X13790000Y3315000D03*
X14290000Y3315000D03*
X14790000Y3315000D03*
X15290000Y3315000D03*
X15790000Y3315000D03*
D33*
X16502500Y4027500D03*
X16502500Y4527500D03*
X16502500Y5027500D03*
X16502500Y5527500D03*
X16502500Y6027500D03*
X16502500Y6527500D03*
D32*
X15790000Y7240000D03*
X15290000Y7240000D03*
X14790000Y7240000D03*
X14290000Y7240000D03*
X13790000Y7240000D03*
X13290000Y7240000D03*
D33*
X12577500Y6527500D03*
X12577500Y6027500D03*
X12577500Y5527500D03*
X12577500Y5027500D03*
X12577500Y4527500D03*
X12577500Y4027500D03*
D34*
X14540000Y5277500D03*
%TD*%
D29*
%TO.C,R5*%
X6507500Y51700000D03*
X8332500Y51700000D03*
%TD*%
D30*
%TO.C,C13*%
X7150000Y3790000D03*
X9050000Y3790000D03*
%TD*%
%TO.C,C15*%
X2840000Y10510000D03*
X4740000Y10510000D03*
%TD*%
%TO.C,C21*%
X4260000Y20860000D03*
X6160000Y20860000D03*
%TD*%
%TO.C,C8*%
X14150000Y1470000D03*
X16050000Y1470000D03*
%TD*%
D15*
%TO.C,C1*%
X8260000Y30230000D03*
X8260000Y32130000D03*
%TD*%
D24*
%TO.C,C5*%
X14940000Y31040000D03*
X13040000Y31040000D03*
%TD*%
D26*
%TO.C,TP1*%
X10250000Y28480000D03*
%TD*%
D30*
%TO.C,C33*%
X16380000Y11770000D03*
X18280000Y11770000D03*
%TD*%
D24*
%TO.C,C14*%
X3830000Y3370000D03*
X1930000Y3370000D03*
%TD*%
%TO.C,C16*%
X28557500Y32340000D03*
X26657500Y32340000D03*
%TD*%
D30*
%TO.C,C18*%
X19860000Y24220000D03*
X21760000Y24220000D03*
%TD*%
D24*
%TO.C,C34*%
X27970000Y15430000D03*
X26070000Y15430000D03*
%TD*%
D35*
%TO.C,U8*%
X27990000Y24890000D03*
X26720000Y24890000D03*
X25450000Y24890000D03*
X24180000Y24890000D03*
X24180000Y17715000D03*
X25450000Y17715000D03*
X26720000Y17715000D03*
X27990000Y17715000D03*
%TD*%
D36*
%TO.C,L1*%
X10492500Y6280000D03*
X8367500Y6280000D03*
%TD*%
D37*
%TO.C,C37*%
X8100000Y55340000D03*
X8100000Y53440000D03*
%TD*%
D38*
%TO.C,U4*%
X2900000Y6005000D03*
X3850000Y6005000D03*
X4800000Y6005000D03*
X4800000Y8280000D03*
X2900000Y8280000D03*
%TD*%
D39*
%TO.C,SW1*%
X2475000Y58770000D03*
X2475000Y55170000D03*
X1035000Y58770000D03*
X1035000Y55170000D03*
%TD*%
D24*
%TO.C,C12*%
X13280000Y9110000D03*
X11380000Y9110000D03*
%TD*%
D40*
%TO.C,JP2*%
X14260000Y11730000D03*
D41*
X12960000Y11730000D03*
%TD*%
D24*
%TO.C,C32*%
X14840000Y36740000D03*
X12940000Y36740000D03*
%TD*%
D30*
%TO.C,C35*%
X19840000Y22190000D03*
X21740000Y22190000D03*
%TD*%
D24*
%TO.C,C11*%
X8060000Y1440000D03*
X6160000Y1440000D03*
%TD*%
%TO.C,C2*%
X6320000Y33660000D03*
X4420000Y33660000D03*
%TD*%
D42*
%TO.C,J3*%
X3250000Y15710000D03*
D43*
X4725000Y14210000D03*
D42*
X3250000Y12710000D03*
D43*
X1775000Y14210000D03*
%TD*%
D26*
%TO.C,TP2*%
X28350000Y11020000D03*
%TD*%
D30*
%TO.C,C22*%
X4050000Y18280000D03*
X5950000Y18280000D03*
%TD*%
D15*
%TO.C,C4*%
X20740000Y35140000D03*
X20740000Y37040000D03*
%TD*%
D44*
%TO.C,J1*%
X7370000Y44330000D03*
X7370000Y43530000D03*
D45*
X7370000Y42380000D03*
X7370000Y41380000D03*
X7370000Y40880000D03*
X7370000Y39880000D03*
D44*
X7370000Y38730000D03*
X7370000Y37930000D03*
X7370000Y37930000D03*
X7370000Y38730000D03*
D45*
X7370000Y39380000D03*
X7370000Y40380000D03*
X7370000Y41880000D03*
X7370000Y42880000D03*
D44*
X7370000Y43530000D03*
X7370000Y44330000D03*
D46*
X6795000Y45450000D03*
D47*
X2615000Y45450000D03*
D46*
X6795000Y36810000D03*
D47*
X2615000Y36810000D03*
%TD*%
D48*
%TO.C,JP3*%
X4730000Y24610000D03*
D49*
X4730000Y23310000D03*
%TD*%
D50*
%TO.C,U2*%
X16870000Y37780000D03*
D51*
X16695000Y38005000D03*
D50*
X17270000Y37780000D03*
X17670000Y37780000D03*
X18070000Y37780000D03*
X18470000Y37780000D03*
D52*
X18470000Y38430000D03*
D50*
X18470000Y39080000D03*
X18070000Y39080000D03*
X17670000Y39080000D03*
X17270000Y39080000D03*
X16870000Y39080000D03*
D52*
X16870000Y38430000D03*
%TD*%
D37*
%TO.C,C9*%
X11080000Y2890000D03*
X11080000Y990000D03*
%TD*%
D38*
%TO.C,U5*%
X26577500Y35132500D03*
X27527500Y35132500D03*
X28477500Y35132500D03*
X28477500Y37407500D03*
X26577500Y37407500D03*
%TD*%
D14*
%TO.C,R2*%
X4700000Y47337500D03*
X4700000Y49162500D03*
%TD*%
D24*
%TO.C,C6*%
X14930000Y33320000D03*
X13030000Y33320000D03*
%TD*%
D39*
%TO.C,SW2*%
X2465000Y53200000D03*
X2465000Y49600000D03*
X1025000Y53200000D03*
X1025000Y49600000D03*
%TD*%
D15*
%TO.C,C25*%
X5940000Y56970000D03*
X5940000Y58870000D03*
%TD*%
M02*
