%TF.GenerationSoftware,KiCad,Pcbnew,9.0.5*%
%TF.CreationDate,2025-11-01T11:22:36+01:00*%
%TF.ProjectId,horsesense,686f7273-6573-4656-9e73-652e6b696361,1.0*%
%TF.SameCoordinates,Original*%
%TF.FileFunction,Legend,Top*%
%TF.FilePolarity,Positive*%
%FSLAX46Y46*%
G04 Gerber Fmt 4.6, Leading zero omitted, Abs format (unit mm)*
G04 Created by KiCad (PCBNEW 9.0.5) date 2025-11-01 11:22:36*
%MOMM*%
%LPD*%
G01*
G04 APERTURE LIST*
G04 Aperture macros list*
%AMRoundRect*
0 Rectangle with rounded corners*
0 $1 Rounding radius*
0 $2 $3 $4 $5 $6 $7 $8 $9 X,Y pos of 4 corners*
0 Add a 4 corners polygon primitive as box body*
4,1,4,$2,$3,$4,$5,$6,$7,$8,$9,$2,$3,0*
0 Add four circle primitives for the rounded corners*
1,1,$1+$1,$2,$3*
1,1,$1+$1,$4,$5*
1,1,$1+$1,$6,$7*
1,1,$1+$1,$8,$9*
0 Add four rect primitives between the rounded corners*
20,1,$1+$1,$2,$3,$4,$5,0*
20,1,$1+$1,$4,$5,$6,$7,0*
20,1,$1+$1,$6,$7,$8,$9,0*
20,1,$1+$1,$8,$9,$2,$3,0*%
%AMFreePoly0*
4,1,23,0.500000,-0.750000,0.000000,-0.750000,0.000000,-0.745722,-0.065263,-0.745722,-0.191342,-0.711940,-0.304381,-0.646677,-0.396677,-0.554381,-0.461940,-0.441342,-0.495722,-0.315263,-0.495722,-0.250000,-0.500000,-0.250000,-0.500000,0.250000,-0.495722,0.250000,-0.495722,0.315263,-0.461940,0.441342,-0.396677,0.554381,-0.304381,0.646677,-0.191342,0.711940,-0.065263,0.745722,0.000000,0.745722,
0.000000,0.750000,0.500000,0.750000,0.500000,-0.750000,0.500000,-0.750000,$1*%
%AMFreePoly1*
4,1,23,0.000000,0.745722,0.065263,0.745722,0.191342,0.711940,0.304381,0.646677,0.396677,0.554381,0.461940,0.441342,0.495722,0.315263,0.495722,0.250000,0.500000,0.250000,0.500000,-0.250000,0.495722,-0.250000,0.495722,-0.315263,0.461940,-0.441342,0.396677,-0.554381,0.304381,-0.646677,0.191342,-0.711940,0.065263,-0.745722,0.000000,-0.745722,0.000000,-0.750000,-0.500000,-0.750000,
-0.500000,0.750000,0.000000,0.750000,0.000000,0.745722,0.000000,0.745722,$1*%
G04 Aperture macros list end*
%ADD10C,0.150000*%
%ADD11C,0.120000*%
%ADD12C,0.152400*%
%ADD13C,0.127000*%
%ADD14C,0.200000*%
%ADD15C,0.010000*%
%ADD16RoundRect,0.218750X-0.218750X-0.381250X0.218750X-0.381250X0.218750X0.381250X-0.218750X0.381250X0*%
%ADD17RoundRect,0.250000X0.450000X-0.262500X0.450000X0.262500X-0.450000X0.262500X-0.450000X-0.262500X0*%
%ADD18RoundRect,0.250000X0.475000X-0.250000X0.475000X0.250000X-0.475000X0.250000X-0.475000X-0.250000X0*%
%ADD19RoundRect,0.250000X0.250000X0.475000X-0.250000X0.475000X-0.250000X-0.475000X0.250000X-0.475000X0*%
%ADD20RoundRect,0.250000X-0.475000X0.250000X-0.475000X-0.250000X0.475000X-0.250000X0.475000X0.250000X0*%
%ADD21RoundRect,0.250000X-0.250000X-1.500000X0.250000X-1.500000X0.250000X1.500000X-0.250000X1.500000X0*%
%ADD22RoundRect,0.250001X-0.499999X-1.449999X0.499999X-1.449999X0.499999X1.449999X-0.499999X1.449999X0*%
%ADD23R,1.500000X0.900000*%
%ADD24R,0.900000X1.500000*%
%ADD25C,0.600000*%
%ADD26R,3.900000X3.900000*%
%ADD27C,0.254000*%
%ADD28R,1.000000X1.000000*%
%ADD29C,1.000000*%
%ADD30RoundRect,0.250000X-0.250000X-0.475000X0.250000X-0.475000X0.250000X0.475000X-0.250000X0.475000X0*%
%ADD31FreePoly0,0.000000*%
%ADD32FreePoly1,0.000000*%
%ADD33RoundRect,0.250000X-0.262500X-0.450000X0.262500X-0.450000X0.262500X0.450000X-0.262500X0.450000X0*%
%ADD34RoundRect,0.250000X0.262500X0.450000X-0.262500X0.450000X-0.262500X-0.450000X0.262500X-0.450000X0*%
%ADD35RoundRect,0.062500X0.062500X-0.350000X0.062500X0.350000X-0.062500X0.350000X-0.062500X-0.350000X0*%
%ADD36RoundRect,0.062500X0.350000X-0.062500X0.350000X0.062500X-0.350000X0.062500X-0.350000X-0.062500X0*%
%ADD37R,2.700000X2.700000*%
%ADD38O,2.004000X1.004000*%
%ADD39RoundRect,0.102000X0.400000X0.400000X-0.400000X0.400000X-0.400000X-0.400000X0.400000X-0.400000X0*%
%ADD40RoundRect,0.150000X0.512500X0.150000X-0.512500X0.150000X-0.512500X-0.150000X0.512500X-0.150000X0*%
%ADD41RoundRect,0.100000X0.425000X0.100000X-0.425000X0.100000X-0.425000X-0.100000X0.425000X-0.100000X0*%
%ADD42R,3.000000X3.000000*%
%ADD43RoundRect,0.218750X0.218750X0.381250X-0.218750X0.381250X-0.218750X-0.381250X0.218750X-0.381250X0*%
%ADD44RoundRect,0.250000X-0.275000X0.450000X-0.275000X-0.450000X0.275000X-0.450000X0.275000X0.450000X0*%
%ADD45FreePoly0,180.000000*%
%ADD46FreePoly1,180.000000*%
%ADD47RoundRect,0.100000X-0.400000X-0.400000X0.400000X-0.400000X0.400000X0.400000X-0.400000X0.400000X0*%
%ADD48RoundRect,0.105000X-0.420000X-0.995000X0.420000X-0.995000X0.420000X0.995000X-0.420000X0.995000X0*%
%ADD49C,0.650000*%
%ADD50RoundRect,0.150000X-0.425000X0.150000X-0.425000X-0.150000X0.425000X-0.150000X0.425000X0.150000X0*%
%ADD51RoundRect,0.075000X-0.500000X0.075000X-0.500000X-0.075000X0.500000X-0.075000X0.500000X0.075000X0*%
%ADD52O,2.100000X1.000000*%
%ADD53O,1.800000X1.000000*%
%ADD54R,0.200000X0.600000*%
%ADD55R,0.250000X0.150000*%
%ADD56R,0.600000X0.200000*%
%ADD57RoundRect,0.150000X0.150000X-0.512500X0.150000X0.512500X-0.150000X0.512500X-0.150000X-0.512500X0*%
G04 APERTURE END LIST*
D10*
X7903333Y10015181D02*
X7427143Y10015181D01*
X7427143Y10015181D02*
X7427143Y11015181D01*
X8189048Y10919943D02*
X8236667Y10967562D01*
X8236667Y10967562D02*
X8331905Y11015181D01*
X8331905Y11015181D02*
X8570000Y11015181D01*
X8570000Y11015181D02*
X8665238Y10967562D01*
X8665238Y10967562D02*
X8712857Y10919943D01*
X8712857Y10919943D02*
X8760476Y10824705D01*
X8760476Y10824705D02*
X8760476Y10729467D01*
X8760476Y10729467D02*
X8712857Y10586610D01*
X8712857Y10586610D02*
X8141429Y10015181D01*
X8141429Y10015181D02*
X8760476Y10015181D01*
X21014819Y8713334D02*
X20538628Y8380001D01*
X21014819Y8141906D02*
X20014819Y8141906D01*
X20014819Y8141906D02*
X20014819Y8522858D01*
X20014819Y8522858D02*
X20062438Y8618096D01*
X20062438Y8618096D02*
X20110057Y8665715D01*
X20110057Y8665715D02*
X20205295Y8713334D01*
X20205295Y8713334D02*
X20348152Y8713334D01*
X20348152Y8713334D02*
X20443390Y8665715D01*
X20443390Y8665715D02*
X20491009Y8618096D01*
X20491009Y8618096D02*
X20538628Y8522858D01*
X20538628Y8522858D02*
X20538628Y8141906D01*
X20348152Y9570477D02*
X21014819Y9570477D01*
X19967200Y9332382D02*
X20681485Y9094287D01*
X20681485Y9094287D02*
X20681485Y9713334D01*
X9779580Y57387143D02*
X9827200Y57339524D01*
X9827200Y57339524D02*
X9874819Y57196667D01*
X9874819Y57196667D02*
X9874819Y57101429D01*
X9874819Y57101429D02*
X9827200Y56958572D01*
X9827200Y56958572D02*
X9731961Y56863334D01*
X9731961Y56863334D02*
X9636723Y56815715D01*
X9636723Y56815715D02*
X9446247Y56768096D01*
X9446247Y56768096D02*
X9303390Y56768096D01*
X9303390Y56768096D02*
X9112914Y56815715D01*
X9112914Y56815715D02*
X9017676Y56863334D01*
X9017676Y56863334D02*
X8922438Y56958572D01*
X8922438Y56958572D02*
X8874819Y57101429D01*
X8874819Y57101429D02*
X8874819Y57196667D01*
X8874819Y57196667D02*
X8922438Y57339524D01*
X8922438Y57339524D02*
X8970057Y57387143D01*
X8970057Y57768096D02*
X8922438Y57815715D01*
X8922438Y57815715D02*
X8874819Y57910953D01*
X8874819Y57910953D02*
X8874819Y58149048D01*
X8874819Y58149048D02*
X8922438Y58244286D01*
X8922438Y58244286D02*
X8970057Y58291905D01*
X8970057Y58291905D02*
X9065295Y58339524D01*
X9065295Y58339524D02*
X9160533Y58339524D01*
X9160533Y58339524D02*
X9303390Y58291905D01*
X9303390Y58291905D02*
X9874819Y57720477D01*
X9874819Y57720477D02*
X9874819Y58339524D01*
X9208152Y59196667D02*
X9874819Y59196667D01*
X8827200Y58958572D02*
X9541485Y58720477D01*
X9541485Y58720477D02*
X9541485Y59339524D01*
X11907142Y14780420D02*
X11859523Y14732800D01*
X11859523Y14732800D02*
X11716666Y14685181D01*
X11716666Y14685181D02*
X11621428Y14685181D01*
X11621428Y14685181D02*
X11478571Y14732800D01*
X11478571Y14732800D02*
X11383333Y14828039D01*
X11383333Y14828039D02*
X11335714Y14923277D01*
X11335714Y14923277D02*
X11288095Y15113753D01*
X11288095Y15113753D02*
X11288095Y15256610D01*
X11288095Y15256610D02*
X11335714Y15447086D01*
X11335714Y15447086D02*
X11383333Y15542324D01*
X11383333Y15542324D02*
X11478571Y15637562D01*
X11478571Y15637562D02*
X11621428Y15685181D01*
X11621428Y15685181D02*
X11716666Y15685181D01*
X11716666Y15685181D02*
X11859523Y15637562D01*
X11859523Y15637562D02*
X11907142Y15589943D01*
X12288095Y15589943D02*
X12335714Y15637562D01*
X12335714Y15637562D02*
X12430952Y15685181D01*
X12430952Y15685181D02*
X12669047Y15685181D01*
X12669047Y15685181D02*
X12764285Y15637562D01*
X12764285Y15637562D02*
X12811904Y15589943D01*
X12811904Y15589943D02*
X12859523Y15494705D01*
X12859523Y15494705D02*
X12859523Y15399467D01*
X12859523Y15399467D02*
X12811904Y15256610D01*
X12811904Y15256610D02*
X12240476Y14685181D01*
X12240476Y14685181D02*
X12859523Y14685181D01*
X13335714Y14685181D02*
X13526190Y14685181D01*
X13526190Y14685181D02*
X13621428Y14732800D01*
X13621428Y14732800D02*
X13669047Y14780420D01*
X13669047Y14780420D02*
X13764285Y14923277D01*
X13764285Y14923277D02*
X13811904Y15113753D01*
X13811904Y15113753D02*
X13811904Y15494705D01*
X13811904Y15494705D02*
X13764285Y15589943D01*
X13764285Y15589943D02*
X13716666Y15637562D01*
X13716666Y15637562D02*
X13621428Y15685181D01*
X13621428Y15685181D02*
X13430952Y15685181D01*
X13430952Y15685181D02*
X13335714Y15637562D01*
X13335714Y15637562D02*
X13288095Y15589943D01*
X13288095Y15589943D02*
X13240476Y15494705D01*
X13240476Y15494705D02*
X13240476Y15256610D01*
X13240476Y15256610D02*
X13288095Y15161372D01*
X13288095Y15161372D02*
X13335714Y15113753D01*
X13335714Y15113753D02*
X13430952Y15066134D01*
X13430952Y15066134D02*
X13621428Y15066134D01*
X13621428Y15066134D02*
X13716666Y15113753D01*
X13716666Y15113753D02*
X13764285Y15161372D01*
X13764285Y15161372D02*
X13811904Y15256610D01*
X21807142Y31050420D02*
X21759523Y31002800D01*
X21759523Y31002800D02*
X21616666Y30955181D01*
X21616666Y30955181D02*
X21521428Y30955181D01*
X21521428Y30955181D02*
X21378571Y31002800D01*
X21378571Y31002800D02*
X21283333Y31098039D01*
X21283333Y31098039D02*
X21235714Y31193277D01*
X21235714Y31193277D02*
X21188095Y31383753D01*
X21188095Y31383753D02*
X21188095Y31526610D01*
X21188095Y31526610D02*
X21235714Y31717086D01*
X21235714Y31717086D02*
X21283333Y31812324D01*
X21283333Y31812324D02*
X21378571Y31907562D01*
X21378571Y31907562D02*
X21521428Y31955181D01*
X21521428Y31955181D02*
X21616666Y31955181D01*
X21616666Y31955181D02*
X21759523Y31907562D01*
X21759523Y31907562D02*
X21807142Y31859943D01*
X22759523Y30955181D02*
X22188095Y30955181D01*
X22473809Y30955181D02*
X22473809Y31955181D01*
X22473809Y31955181D02*
X22378571Y31812324D01*
X22378571Y31812324D02*
X22283333Y31717086D01*
X22283333Y31717086D02*
X22188095Y31669467D01*
X23092857Y31955181D02*
X23759523Y31955181D01*
X23759523Y31955181D02*
X23330952Y30955181D01*
X5764819Y50757143D02*
X5288628Y50423810D01*
X5764819Y50185715D02*
X4764819Y50185715D01*
X4764819Y50185715D02*
X4764819Y50566667D01*
X4764819Y50566667D02*
X4812438Y50661905D01*
X4812438Y50661905D02*
X4860057Y50709524D01*
X4860057Y50709524D02*
X4955295Y50757143D01*
X4955295Y50757143D02*
X5098152Y50757143D01*
X5098152Y50757143D02*
X5193390Y50709524D01*
X5193390Y50709524D02*
X5241009Y50661905D01*
X5241009Y50661905D02*
X5288628Y50566667D01*
X5288628Y50566667D02*
X5288628Y50185715D01*
X4860057Y51138096D02*
X4812438Y51185715D01*
X4812438Y51185715D02*
X4764819Y51280953D01*
X4764819Y51280953D02*
X4764819Y51519048D01*
X4764819Y51519048D02*
X4812438Y51614286D01*
X4812438Y51614286D02*
X4860057Y51661905D01*
X4860057Y51661905D02*
X4955295Y51709524D01*
X4955295Y51709524D02*
X5050533Y51709524D01*
X5050533Y51709524D02*
X5193390Y51661905D01*
X5193390Y51661905D02*
X5764819Y51090477D01*
X5764819Y51090477D02*
X5764819Y51709524D01*
X5764819Y52185715D02*
X5764819Y52376191D01*
X5764819Y52376191D02*
X5717200Y52471429D01*
X5717200Y52471429D02*
X5669580Y52519048D01*
X5669580Y52519048D02*
X5526723Y52614286D01*
X5526723Y52614286D02*
X5336247Y52661905D01*
X5336247Y52661905D02*
X4955295Y52661905D01*
X4955295Y52661905D02*
X4860057Y52614286D01*
X4860057Y52614286D02*
X4812438Y52566667D01*
X4812438Y52566667D02*
X4764819Y52471429D01*
X4764819Y52471429D02*
X4764819Y52280953D01*
X4764819Y52280953D02*
X4812438Y52185715D01*
X4812438Y52185715D02*
X4860057Y52138096D01*
X4860057Y52138096D02*
X4955295Y52090477D01*
X4955295Y52090477D02*
X5193390Y52090477D01*
X5193390Y52090477D02*
X5288628Y52138096D01*
X5288628Y52138096D02*
X5336247Y52185715D01*
X5336247Y52185715D02*
X5383866Y52280953D01*
X5383866Y52280953D02*
X5383866Y52471429D01*
X5383866Y52471429D02*
X5336247Y52566667D01*
X5336247Y52566667D02*
X5288628Y52614286D01*
X5288628Y52614286D02*
X5193390Y52661905D01*
X24976666Y11475181D02*
X24976666Y10760896D01*
X24976666Y10760896D02*
X24929047Y10618039D01*
X24929047Y10618039D02*
X24833809Y10522800D01*
X24833809Y10522800D02*
X24690952Y10475181D01*
X24690952Y10475181D02*
X24595714Y10475181D01*
X25405238Y11379943D02*
X25452857Y11427562D01*
X25452857Y11427562D02*
X25548095Y11475181D01*
X25548095Y11475181D02*
X25786190Y11475181D01*
X25786190Y11475181D02*
X25881428Y11427562D01*
X25881428Y11427562D02*
X25929047Y11379943D01*
X25929047Y11379943D02*
X25976666Y11284705D01*
X25976666Y11284705D02*
X25976666Y11189467D01*
X25976666Y11189467D02*
X25929047Y11046610D01*
X25929047Y11046610D02*
X25357619Y10475181D01*
X25357619Y10475181D02*
X25976666Y10475181D01*
X8928095Y39995181D02*
X8928095Y39185658D01*
X8928095Y39185658D02*
X8975714Y39090420D01*
X8975714Y39090420D02*
X9023333Y39042800D01*
X9023333Y39042800D02*
X9118571Y38995181D01*
X9118571Y38995181D02*
X9309047Y38995181D01*
X9309047Y38995181D02*
X9404285Y39042800D01*
X9404285Y39042800D02*
X9451904Y39090420D01*
X9451904Y39090420D02*
X9499523Y39185658D01*
X9499523Y39185658D02*
X9499523Y39995181D01*
X10023333Y38995181D02*
X10213809Y38995181D01*
X10213809Y38995181D02*
X10309047Y39042800D01*
X10309047Y39042800D02*
X10356666Y39090420D01*
X10356666Y39090420D02*
X10451904Y39233277D01*
X10451904Y39233277D02*
X10499523Y39423753D01*
X10499523Y39423753D02*
X10499523Y39804705D01*
X10499523Y39804705D02*
X10451904Y39899943D01*
X10451904Y39899943D02*
X10404285Y39947562D01*
X10404285Y39947562D02*
X10309047Y39995181D01*
X10309047Y39995181D02*
X10118571Y39995181D01*
X10118571Y39995181D02*
X10023333Y39947562D01*
X10023333Y39947562D02*
X9975714Y39899943D01*
X9975714Y39899943D02*
X9928095Y39804705D01*
X9928095Y39804705D02*
X9928095Y39566610D01*
X9928095Y39566610D02*
X9975714Y39471372D01*
X9975714Y39471372D02*
X10023333Y39423753D01*
X10023333Y39423753D02*
X10118571Y39376134D01*
X10118571Y39376134D02*
X10309047Y39376134D01*
X10309047Y39376134D02*
X10404285Y39423753D01*
X10404285Y39423753D02*
X10451904Y39471372D01*
X10451904Y39471372D02*
X10499523Y39566610D01*
X15868095Y33125181D02*
X15868095Y32315658D01*
X15868095Y32315658D02*
X15915714Y32220420D01*
X15915714Y32220420D02*
X15963333Y32172800D01*
X15963333Y32172800D02*
X16058571Y32125181D01*
X16058571Y32125181D02*
X16249047Y32125181D01*
X16249047Y32125181D02*
X16344285Y32172800D01*
X16344285Y32172800D02*
X16391904Y32220420D01*
X16391904Y32220420D02*
X16439523Y32315658D01*
X16439523Y32315658D02*
X16439523Y33125181D01*
X17439523Y32125181D02*
X16868095Y32125181D01*
X17153809Y32125181D02*
X17153809Y33125181D01*
X17153809Y33125181D02*
X17058571Y32982324D01*
X17058571Y32982324D02*
X16963333Y32887086D01*
X16963333Y32887086D02*
X16868095Y32839467D01*
X2317142Y26380420D02*
X2269523Y26332800D01*
X2269523Y26332800D02*
X2126666Y26285181D01*
X2126666Y26285181D02*
X2031428Y26285181D01*
X2031428Y26285181D02*
X1888571Y26332800D01*
X1888571Y26332800D02*
X1793333Y26428039D01*
X1793333Y26428039D02*
X1745714Y26523277D01*
X1745714Y26523277D02*
X1698095Y26713753D01*
X1698095Y26713753D02*
X1698095Y26856610D01*
X1698095Y26856610D02*
X1745714Y27047086D01*
X1745714Y27047086D02*
X1793333Y27142324D01*
X1793333Y27142324D02*
X1888571Y27237562D01*
X1888571Y27237562D02*
X2031428Y27285181D01*
X2031428Y27285181D02*
X2126666Y27285181D01*
X2126666Y27285181D02*
X2269523Y27237562D01*
X2269523Y27237562D02*
X2317142Y27189943D01*
X2650476Y27285181D02*
X3269523Y27285181D01*
X3269523Y27285181D02*
X2936190Y26904229D01*
X2936190Y26904229D02*
X3079047Y26904229D01*
X3079047Y26904229D02*
X3174285Y26856610D01*
X3174285Y26856610D02*
X3221904Y26808991D01*
X3221904Y26808991D02*
X3269523Y26713753D01*
X3269523Y26713753D02*
X3269523Y26475658D01*
X3269523Y26475658D02*
X3221904Y26380420D01*
X3221904Y26380420D02*
X3174285Y26332800D01*
X3174285Y26332800D02*
X3079047Y26285181D01*
X3079047Y26285181D02*
X2793333Y26285181D01*
X2793333Y26285181D02*
X2698095Y26332800D01*
X2698095Y26332800D02*
X2650476Y26380420D01*
X4221904Y26285181D02*
X3650476Y26285181D01*
X3936190Y26285181D02*
X3936190Y27285181D01*
X3936190Y27285181D02*
X3840952Y27142324D01*
X3840952Y27142324D02*
X3745714Y27047086D01*
X3745714Y27047086D02*
X3650476Y26999467D01*
X3606666Y35695181D02*
X3606666Y34980896D01*
X3606666Y34980896D02*
X3559047Y34838039D01*
X3559047Y34838039D02*
X3463809Y34742800D01*
X3463809Y34742800D02*
X3320952Y34695181D01*
X3320952Y34695181D02*
X3225714Y34695181D01*
X4511428Y35361848D02*
X4511428Y34695181D01*
X4273333Y35742800D02*
X4035238Y35028515D01*
X4035238Y35028515D02*
X4654285Y35028515D01*
X8907142Y14850420D02*
X8859523Y14802800D01*
X8859523Y14802800D02*
X8716666Y14755181D01*
X8716666Y14755181D02*
X8621428Y14755181D01*
X8621428Y14755181D02*
X8478571Y14802800D01*
X8478571Y14802800D02*
X8383333Y14898039D01*
X8383333Y14898039D02*
X8335714Y14993277D01*
X8335714Y14993277D02*
X8288095Y15183753D01*
X8288095Y15183753D02*
X8288095Y15326610D01*
X8288095Y15326610D02*
X8335714Y15517086D01*
X8335714Y15517086D02*
X8383333Y15612324D01*
X8383333Y15612324D02*
X8478571Y15707562D01*
X8478571Y15707562D02*
X8621428Y15755181D01*
X8621428Y15755181D02*
X8716666Y15755181D01*
X8716666Y15755181D02*
X8859523Y15707562D01*
X8859523Y15707562D02*
X8907142Y15659943D01*
X9288095Y15659943D02*
X9335714Y15707562D01*
X9335714Y15707562D02*
X9430952Y15755181D01*
X9430952Y15755181D02*
X9669047Y15755181D01*
X9669047Y15755181D02*
X9764285Y15707562D01*
X9764285Y15707562D02*
X9811904Y15659943D01*
X9811904Y15659943D02*
X9859523Y15564705D01*
X9859523Y15564705D02*
X9859523Y15469467D01*
X9859523Y15469467D02*
X9811904Y15326610D01*
X9811904Y15326610D02*
X9240476Y14755181D01*
X9240476Y14755181D02*
X9859523Y14755181D01*
X10192857Y15755181D02*
X10859523Y15755181D01*
X10859523Y15755181D02*
X10430952Y14755181D01*
X1907142Y24520420D02*
X1859523Y24472800D01*
X1859523Y24472800D02*
X1716666Y24425181D01*
X1716666Y24425181D02*
X1621428Y24425181D01*
X1621428Y24425181D02*
X1478571Y24472800D01*
X1478571Y24472800D02*
X1383333Y24568039D01*
X1383333Y24568039D02*
X1335714Y24663277D01*
X1335714Y24663277D02*
X1288095Y24853753D01*
X1288095Y24853753D02*
X1288095Y24996610D01*
X1288095Y24996610D02*
X1335714Y25187086D01*
X1335714Y25187086D02*
X1383333Y25282324D01*
X1383333Y25282324D02*
X1478571Y25377562D01*
X1478571Y25377562D02*
X1621428Y25425181D01*
X1621428Y25425181D02*
X1716666Y25425181D01*
X1716666Y25425181D02*
X1859523Y25377562D01*
X1859523Y25377562D02*
X1907142Y25329943D01*
X2288095Y25329943D02*
X2335714Y25377562D01*
X2335714Y25377562D02*
X2430952Y25425181D01*
X2430952Y25425181D02*
X2669047Y25425181D01*
X2669047Y25425181D02*
X2764285Y25377562D01*
X2764285Y25377562D02*
X2811904Y25329943D01*
X2811904Y25329943D02*
X2859523Y25234705D01*
X2859523Y25234705D02*
X2859523Y25139467D01*
X2859523Y25139467D02*
X2811904Y24996610D01*
X2811904Y24996610D02*
X2240476Y24425181D01*
X2240476Y24425181D02*
X2859523Y24425181D01*
X3716666Y25425181D02*
X3526190Y25425181D01*
X3526190Y25425181D02*
X3430952Y25377562D01*
X3430952Y25377562D02*
X3383333Y25329943D01*
X3383333Y25329943D02*
X3288095Y25187086D01*
X3288095Y25187086D02*
X3240476Y24996610D01*
X3240476Y24996610D02*
X3240476Y24615658D01*
X3240476Y24615658D02*
X3288095Y24520420D01*
X3288095Y24520420D02*
X3335714Y24472800D01*
X3335714Y24472800D02*
X3430952Y24425181D01*
X3430952Y24425181D02*
X3621428Y24425181D01*
X3621428Y24425181D02*
X3716666Y24472800D01*
X3716666Y24472800D02*
X3764285Y24520420D01*
X3764285Y24520420D02*
X3811904Y24615658D01*
X3811904Y24615658D02*
X3811904Y24853753D01*
X3811904Y24853753D02*
X3764285Y24948991D01*
X3764285Y24948991D02*
X3716666Y24996610D01*
X3716666Y24996610D02*
X3621428Y25044229D01*
X3621428Y25044229D02*
X3430952Y25044229D01*
X3430952Y25044229D02*
X3335714Y24996610D01*
X3335714Y24996610D02*
X3288095Y24948991D01*
X3288095Y24948991D02*
X3240476Y24853753D01*
X24157142Y17670420D02*
X24109523Y17622800D01*
X24109523Y17622800D02*
X23966666Y17575181D01*
X23966666Y17575181D02*
X23871428Y17575181D01*
X23871428Y17575181D02*
X23728571Y17622800D01*
X23728571Y17622800D02*
X23633333Y17718039D01*
X23633333Y17718039D02*
X23585714Y17813277D01*
X23585714Y17813277D02*
X23538095Y18003753D01*
X23538095Y18003753D02*
X23538095Y18146610D01*
X23538095Y18146610D02*
X23585714Y18337086D01*
X23585714Y18337086D02*
X23633333Y18432324D01*
X23633333Y18432324D02*
X23728571Y18527562D01*
X23728571Y18527562D02*
X23871428Y18575181D01*
X23871428Y18575181D02*
X23966666Y18575181D01*
X23966666Y18575181D02*
X24109523Y18527562D01*
X24109523Y18527562D02*
X24157142Y18479943D01*
X24538095Y18479943D02*
X24585714Y18527562D01*
X24585714Y18527562D02*
X24680952Y18575181D01*
X24680952Y18575181D02*
X24919047Y18575181D01*
X24919047Y18575181D02*
X25014285Y18527562D01*
X25014285Y18527562D02*
X25061904Y18479943D01*
X25061904Y18479943D02*
X25109523Y18384705D01*
X25109523Y18384705D02*
X25109523Y18289467D01*
X25109523Y18289467D02*
X25061904Y18146610D01*
X25061904Y18146610D02*
X24490476Y17575181D01*
X24490476Y17575181D02*
X25109523Y17575181D01*
X25442857Y18575181D02*
X26061904Y18575181D01*
X26061904Y18575181D02*
X25728571Y18194229D01*
X25728571Y18194229D02*
X25871428Y18194229D01*
X25871428Y18194229D02*
X25966666Y18146610D01*
X25966666Y18146610D02*
X26014285Y18098991D01*
X26014285Y18098991D02*
X26061904Y18003753D01*
X26061904Y18003753D02*
X26061904Y17765658D01*
X26061904Y17765658D02*
X26014285Y17670420D01*
X26014285Y17670420D02*
X25966666Y17622800D01*
X25966666Y17622800D02*
X25871428Y17575181D01*
X25871428Y17575181D02*
X25585714Y17575181D01*
X25585714Y17575181D02*
X25490476Y17622800D01*
X25490476Y17622800D02*
X25442857Y17670420D01*
X17904819Y2103334D02*
X17428628Y1770001D01*
X17904819Y1531906D02*
X16904819Y1531906D01*
X16904819Y1531906D02*
X16904819Y1912858D01*
X16904819Y1912858D02*
X16952438Y2008096D01*
X16952438Y2008096D02*
X17000057Y2055715D01*
X17000057Y2055715D02*
X17095295Y2103334D01*
X17095295Y2103334D02*
X17238152Y2103334D01*
X17238152Y2103334D02*
X17333390Y2055715D01*
X17333390Y2055715D02*
X17381009Y2008096D01*
X17381009Y2008096D02*
X17428628Y1912858D01*
X17428628Y1912858D02*
X17428628Y1531906D01*
X16904819Y2436668D02*
X16904819Y3055715D01*
X16904819Y3055715D02*
X17285771Y2722382D01*
X17285771Y2722382D02*
X17285771Y2865239D01*
X17285771Y2865239D02*
X17333390Y2960477D01*
X17333390Y2960477D02*
X17381009Y3008096D01*
X17381009Y3008096D02*
X17476247Y3055715D01*
X17476247Y3055715D02*
X17714342Y3055715D01*
X17714342Y3055715D02*
X17809580Y3008096D01*
X17809580Y3008096D02*
X17857200Y2960477D01*
X17857200Y2960477D02*
X17904819Y2865239D01*
X17904819Y2865239D02*
X17904819Y2579525D01*
X17904819Y2579525D02*
X17857200Y2484287D01*
X17857200Y2484287D02*
X17809580Y2436668D01*
X21366666Y30485181D02*
X21366666Y29770896D01*
X21366666Y29770896D02*
X21319047Y29628039D01*
X21319047Y29628039D02*
X21223809Y29532800D01*
X21223809Y29532800D02*
X21080952Y29485181D01*
X21080952Y29485181D02*
X20985714Y29485181D01*
X21842857Y29485181D02*
X21842857Y30485181D01*
X21842857Y30485181D02*
X22223809Y30485181D01*
X22223809Y30485181D02*
X22319047Y30437562D01*
X22319047Y30437562D02*
X22366666Y30389943D01*
X22366666Y30389943D02*
X22414285Y30294705D01*
X22414285Y30294705D02*
X22414285Y30151848D01*
X22414285Y30151848D02*
X22366666Y30056610D01*
X22366666Y30056610D02*
X22319047Y30008991D01*
X22319047Y30008991D02*
X22223809Y29961372D01*
X22223809Y29961372D02*
X21842857Y29961372D01*
X23366666Y29485181D02*
X22795238Y29485181D01*
X23080952Y29485181D02*
X23080952Y30485181D01*
X23080952Y30485181D02*
X22985714Y30342324D01*
X22985714Y30342324D02*
X22890476Y30247086D01*
X22890476Y30247086D02*
X22795238Y30199467D01*
X8313333Y46425181D02*
X7980000Y46901372D01*
X7741905Y46425181D02*
X7741905Y47425181D01*
X7741905Y47425181D02*
X8122857Y47425181D01*
X8122857Y47425181D02*
X8218095Y47377562D01*
X8218095Y47377562D02*
X8265714Y47329943D01*
X8265714Y47329943D02*
X8313333Y47234705D01*
X8313333Y47234705D02*
X8313333Y47091848D01*
X8313333Y47091848D02*
X8265714Y46996610D01*
X8265714Y46996610D02*
X8218095Y46948991D01*
X8218095Y46948991D02*
X8122857Y46901372D01*
X8122857Y46901372D02*
X7741905Y46901372D01*
X9170476Y47425181D02*
X8980000Y47425181D01*
X8980000Y47425181D02*
X8884762Y47377562D01*
X8884762Y47377562D02*
X8837143Y47329943D01*
X8837143Y47329943D02*
X8741905Y47187086D01*
X8741905Y47187086D02*
X8694286Y46996610D01*
X8694286Y46996610D02*
X8694286Y46615658D01*
X8694286Y46615658D02*
X8741905Y46520420D01*
X8741905Y46520420D02*
X8789524Y46472800D01*
X8789524Y46472800D02*
X8884762Y46425181D01*
X8884762Y46425181D02*
X9075238Y46425181D01*
X9075238Y46425181D02*
X9170476Y46472800D01*
X9170476Y46472800D02*
X9218095Y46520420D01*
X9218095Y46520420D02*
X9265714Y46615658D01*
X9265714Y46615658D02*
X9265714Y46853753D01*
X9265714Y46853753D02*
X9218095Y46948991D01*
X9218095Y46948991D02*
X9170476Y46996610D01*
X9170476Y46996610D02*
X9075238Y47044229D01*
X9075238Y47044229D02*
X8884762Y47044229D01*
X8884762Y47044229D02*
X8789524Y46996610D01*
X8789524Y46996610D02*
X8741905Y46948991D01*
X8741905Y46948991D02*
X8694286Y46853753D01*
X10833333Y37830420D02*
X10785714Y37782800D01*
X10785714Y37782800D02*
X10642857Y37735181D01*
X10642857Y37735181D02*
X10547619Y37735181D01*
X10547619Y37735181D02*
X10404762Y37782800D01*
X10404762Y37782800D02*
X10309524Y37878039D01*
X10309524Y37878039D02*
X10261905Y37973277D01*
X10261905Y37973277D02*
X10214286Y38163753D01*
X10214286Y38163753D02*
X10214286Y38306610D01*
X10214286Y38306610D02*
X10261905Y38497086D01*
X10261905Y38497086D02*
X10309524Y38592324D01*
X10309524Y38592324D02*
X10404762Y38687562D01*
X10404762Y38687562D02*
X10547619Y38735181D01*
X10547619Y38735181D02*
X10642857Y38735181D01*
X10642857Y38735181D02*
X10785714Y38687562D01*
X10785714Y38687562D02*
X10833333Y38639943D01*
X11166667Y38735181D02*
X11785714Y38735181D01*
X11785714Y38735181D02*
X11452381Y38354229D01*
X11452381Y38354229D02*
X11595238Y38354229D01*
X11595238Y38354229D02*
X11690476Y38306610D01*
X11690476Y38306610D02*
X11738095Y38258991D01*
X11738095Y38258991D02*
X11785714Y38163753D01*
X11785714Y38163753D02*
X11785714Y37925658D01*
X11785714Y37925658D02*
X11738095Y37830420D01*
X11738095Y37830420D02*
X11690476Y37782800D01*
X11690476Y37782800D02*
X11595238Y37735181D01*
X11595238Y37735181D02*
X11309524Y37735181D01*
X11309524Y37735181D02*
X11214286Y37782800D01*
X11214286Y37782800D02*
X11166667Y37830420D01*
X24017142Y23080420D02*
X23969523Y23032800D01*
X23969523Y23032800D02*
X23826666Y22985181D01*
X23826666Y22985181D02*
X23731428Y22985181D01*
X23731428Y22985181D02*
X23588571Y23032800D01*
X23588571Y23032800D02*
X23493333Y23128039D01*
X23493333Y23128039D02*
X23445714Y23223277D01*
X23445714Y23223277D02*
X23398095Y23413753D01*
X23398095Y23413753D02*
X23398095Y23556610D01*
X23398095Y23556610D02*
X23445714Y23747086D01*
X23445714Y23747086D02*
X23493333Y23842324D01*
X23493333Y23842324D02*
X23588571Y23937562D01*
X23588571Y23937562D02*
X23731428Y23985181D01*
X23731428Y23985181D02*
X23826666Y23985181D01*
X23826666Y23985181D02*
X23969523Y23937562D01*
X23969523Y23937562D02*
X24017142Y23889943D01*
X24969523Y22985181D02*
X24398095Y22985181D01*
X24683809Y22985181D02*
X24683809Y23985181D01*
X24683809Y23985181D02*
X24588571Y23842324D01*
X24588571Y23842324D02*
X24493333Y23747086D01*
X24493333Y23747086D02*
X24398095Y23699467D01*
X25445714Y22985181D02*
X25636190Y22985181D01*
X25636190Y22985181D02*
X25731428Y23032800D01*
X25731428Y23032800D02*
X25779047Y23080420D01*
X25779047Y23080420D02*
X25874285Y23223277D01*
X25874285Y23223277D02*
X25921904Y23413753D01*
X25921904Y23413753D02*
X25921904Y23794705D01*
X25921904Y23794705D02*
X25874285Y23889943D01*
X25874285Y23889943D02*
X25826666Y23937562D01*
X25826666Y23937562D02*
X25731428Y23985181D01*
X25731428Y23985181D02*
X25540952Y23985181D01*
X25540952Y23985181D02*
X25445714Y23937562D01*
X25445714Y23937562D02*
X25398095Y23889943D01*
X25398095Y23889943D02*
X25350476Y23794705D01*
X25350476Y23794705D02*
X25350476Y23556610D01*
X25350476Y23556610D02*
X25398095Y23461372D01*
X25398095Y23461372D02*
X25445714Y23413753D01*
X25445714Y23413753D02*
X25540952Y23366134D01*
X25540952Y23366134D02*
X25731428Y23366134D01*
X25731428Y23366134D02*
X25826666Y23413753D01*
X25826666Y23413753D02*
X25874285Y23461372D01*
X25874285Y23461372D02*
X25921904Y23556610D01*
X6583333Y46445181D02*
X6250000Y46921372D01*
X6011905Y46445181D02*
X6011905Y47445181D01*
X6011905Y47445181D02*
X6392857Y47445181D01*
X6392857Y47445181D02*
X6488095Y47397562D01*
X6488095Y47397562D02*
X6535714Y47349943D01*
X6535714Y47349943D02*
X6583333Y47254705D01*
X6583333Y47254705D02*
X6583333Y47111848D01*
X6583333Y47111848D02*
X6535714Y47016610D01*
X6535714Y47016610D02*
X6488095Y46968991D01*
X6488095Y46968991D02*
X6392857Y46921372D01*
X6392857Y46921372D02*
X6011905Y46921372D01*
X7535714Y46445181D02*
X6964286Y46445181D01*
X7250000Y46445181D02*
X7250000Y47445181D01*
X7250000Y47445181D02*
X7154762Y47302324D01*
X7154762Y47302324D02*
X7059524Y47207086D01*
X7059524Y47207086D02*
X6964286Y47159467D01*
X19629580Y8487143D02*
X19677200Y8439524D01*
X19677200Y8439524D02*
X19724819Y8296667D01*
X19724819Y8296667D02*
X19724819Y8201429D01*
X19724819Y8201429D02*
X19677200Y8058572D01*
X19677200Y8058572D02*
X19581961Y7963334D01*
X19581961Y7963334D02*
X19486723Y7915715D01*
X19486723Y7915715D02*
X19296247Y7868096D01*
X19296247Y7868096D02*
X19153390Y7868096D01*
X19153390Y7868096D02*
X18962914Y7915715D01*
X18962914Y7915715D02*
X18867676Y7963334D01*
X18867676Y7963334D02*
X18772438Y8058572D01*
X18772438Y8058572D02*
X18724819Y8201429D01*
X18724819Y8201429D02*
X18724819Y8296667D01*
X18724819Y8296667D02*
X18772438Y8439524D01*
X18772438Y8439524D02*
X18820057Y8487143D01*
X19724819Y9439524D02*
X19724819Y8868096D01*
X19724819Y9153810D02*
X18724819Y9153810D01*
X18724819Y9153810D02*
X18867676Y9058572D01*
X18867676Y9058572D02*
X18962914Y8963334D01*
X18962914Y8963334D02*
X19010533Y8868096D01*
X18724819Y10058572D02*
X18724819Y10153810D01*
X18724819Y10153810D02*
X18772438Y10249048D01*
X18772438Y10249048D02*
X18820057Y10296667D01*
X18820057Y10296667D02*
X18915295Y10344286D01*
X18915295Y10344286D02*
X19105771Y10391905D01*
X19105771Y10391905D02*
X19343866Y10391905D01*
X19343866Y10391905D02*
X19534342Y10344286D01*
X19534342Y10344286D02*
X19629580Y10296667D01*
X19629580Y10296667D02*
X19677200Y10249048D01*
X19677200Y10249048D02*
X19724819Y10153810D01*
X19724819Y10153810D02*
X19724819Y10058572D01*
X19724819Y10058572D02*
X19677200Y9963334D01*
X19677200Y9963334D02*
X19629580Y9915715D01*
X19629580Y9915715D02*
X19534342Y9868096D01*
X19534342Y9868096D02*
X19343866Y9820477D01*
X19343866Y9820477D02*
X19105771Y9820477D01*
X19105771Y9820477D02*
X18915295Y9868096D01*
X18915295Y9868096D02*
X18820057Y9915715D01*
X18820057Y9915715D02*
X18772438Y9963334D01*
X18772438Y9963334D02*
X18724819Y10058572D01*
X10158095Y4925181D02*
X10158095Y4115658D01*
X10158095Y4115658D02*
X10205714Y4020420D01*
X10205714Y4020420D02*
X10253333Y3972800D01*
X10253333Y3972800D02*
X10348571Y3925181D01*
X10348571Y3925181D02*
X10539047Y3925181D01*
X10539047Y3925181D02*
X10634285Y3972800D01*
X10634285Y3972800D02*
X10681904Y4020420D01*
X10681904Y4020420D02*
X10729523Y4115658D01*
X10729523Y4115658D02*
X10729523Y4925181D01*
X11110476Y4925181D02*
X11729523Y4925181D01*
X11729523Y4925181D02*
X11396190Y4544229D01*
X11396190Y4544229D02*
X11539047Y4544229D01*
X11539047Y4544229D02*
X11634285Y4496610D01*
X11634285Y4496610D02*
X11681904Y4448991D01*
X11681904Y4448991D02*
X11729523Y4353753D01*
X11729523Y4353753D02*
X11729523Y4115658D01*
X11729523Y4115658D02*
X11681904Y4020420D01*
X11681904Y4020420D02*
X11634285Y3972800D01*
X11634285Y3972800D02*
X11539047Y3925181D01*
X11539047Y3925181D02*
X11253333Y3925181D01*
X11253333Y3925181D02*
X11158095Y3972800D01*
X11158095Y3972800D02*
X11110476Y4020420D01*
X8333333Y47635181D02*
X8000000Y48111372D01*
X7761905Y47635181D02*
X7761905Y48635181D01*
X7761905Y48635181D02*
X8142857Y48635181D01*
X8142857Y48635181D02*
X8238095Y48587562D01*
X8238095Y48587562D02*
X8285714Y48539943D01*
X8285714Y48539943D02*
X8333333Y48444705D01*
X8333333Y48444705D02*
X8333333Y48301848D01*
X8333333Y48301848D02*
X8285714Y48206610D01*
X8285714Y48206610D02*
X8238095Y48158991D01*
X8238095Y48158991D02*
X8142857Y48111372D01*
X8142857Y48111372D02*
X7761905Y48111372D01*
X9238095Y48635181D02*
X8761905Y48635181D01*
X8761905Y48635181D02*
X8714286Y48158991D01*
X8714286Y48158991D02*
X8761905Y48206610D01*
X8761905Y48206610D02*
X8857143Y48254229D01*
X8857143Y48254229D02*
X9095238Y48254229D01*
X9095238Y48254229D02*
X9190476Y48206610D01*
X9190476Y48206610D02*
X9238095Y48158991D01*
X9238095Y48158991D02*
X9285714Y48063753D01*
X9285714Y48063753D02*
X9285714Y47825658D01*
X9285714Y47825658D02*
X9238095Y47730420D01*
X9238095Y47730420D02*
X9190476Y47682800D01*
X9190476Y47682800D02*
X9095238Y47635181D01*
X9095238Y47635181D02*
X8857143Y47635181D01*
X8857143Y47635181D02*
X8761905Y47682800D01*
X8761905Y47682800D02*
X8714286Y47730420D01*
X8517142Y7330420D02*
X8469523Y7282800D01*
X8469523Y7282800D02*
X8326666Y7235181D01*
X8326666Y7235181D02*
X8231428Y7235181D01*
X8231428Y7235181D02*
X8088571Y7282800D01*
X8088571Y7282800D02*
X7993333Y7378039D01*
X7993333Y7378039D02*
X7945714Y7473277D01*
X7945714Y7473277D02*
X7898095Y7663753D01*
X7898095Y7663753D02*
X7898095Y7806610D01*
X7898095Y7806610D02*
X7945714Y7997086D01*
X7945714Y7997086D02*
X7993333Y8092324D01*
X7993333Y8092324D02*
X8088571Y8187562D01*
X8088571Y8187562D02*
X8231428Y8235181D01*
X8231428Y8235181D02*
X8326666Y8235181D01*
X8326666Y8235181D02*
X8469523Y8187562D01*
X8469523Y8187562D02*
X8517142Y8139943D01*
X9469523Y7235181D02*
X8898095Y7235181D01*
X9183809Y7235181D02*
X9183809Y8235181D01*
X9183809Y8235181D02*
X9088571Y8092324D01*
X9088571Y8092324D02*
X8993333Y7997086D01*
X8993333Y7997086D02*
X8898095Y7949467D01*
X9802857Y8235181D02*
X10421904Y8235181D01*
X10421904Y8235181D02*
X10088571Y7854229D01*
X10088571Y7854229D02*
X10231428Y7854229D01*
X10231428Y7854229D02*
X10326666Y7806610D01*
X10326666Y7806610D02*
X10374285Y7758991D01*
X10374285Y7758991D02*
X10421904Y7663753D01*
X10421904Y7663753D02*
X10421904Y7425658D01*
X10421904Y7425658D02*
X10374285Y7330420D01*
X10374285Y7330420D02*
X10326666Y7282800D01*
X10326666Y7282800D02*
X10231428Y7235181D01*
X10231428Y7235181D02*
X9945714Y7235181D01*
X9945714Y7235181D02*
X9850476Y7282800D01*
X9850476Y7282800D02*
X9802857Y7330420D01*
X11153333Y32020420D02*
X11105714Y31972800D01*
X11105714Y31972800D02*
X10962857Y31925181D01*
X10962857Y31925181D02*
X10867619Y31925181D01*
X10867619Y31925181D02*
X10724762Y31972800D01*
X10724762Y31972800D02*
X10629524Y32068039D01*
X10629524Y32068039D02*
X10581905Y32163277D01*
X10581905Y32163277D02*
X10534286Y32353753D01*
X10534286Y32353753D02*
X10534286Y32496610D01*
X10534286Y32496610D02*
X10581905Y32687086D01*
X10581905Y32687086D02*
X10629524Y32782324D01*
X10629524Y32782324D02*
X10724762Y32877562D01*
X10724762Y32877562D02*
X10867619Y32925181D01*
X10867619Y32925181D02*
X10962857Y32925181D01*
X10962857Y32925181D02*
X11105714Y32877562D01*
X11105714Y32877562D02*
X11153333Y32829943D01*
X11486667Y32925181D02*
X12153333Y32925181D01*
X12153333Y32925181D02*
X11724762Y31925181D01*
X1429580Y7637143D02*
X1477200Y7589524D01*
X1477200Y7589524D02*
X1524819Y7446667D01*
X1524819Y7446667D02*
X1524819Y7351429D01*
X1524819Y7351429D02*
X1477200Y7208572D01*
X1477200Y7208572D02*
X1381961Y7113334D01*
X1381961Y7113334D02*
X1286723Y7065715D01*
X1286723Y7065715D02*
X1096247Y7018096D01*
X1096247Y7018096D02*
X953390Y7018096D01*
X953390Y7018096D02*
X762914Y7065715D01*
X762914Y7065715D02*
X667676Y7113334D01*
X667676Y7113334D02*
X572438Y7208572D01*
X572438Y7208572D02*
X524819Y7351429D01*
X524819Y7351429D02*
X524819Y7446667D01*
X524819Y7446667D02*
X572438Y7589524D01*
X572438Y7589524D02*
X620057Y7637143D01*
X1524819Y8589524D02*
X1524819Y8018096D01*
X1524819Y8303810D02*
X524819Y8303810D01*
X524819Y8303810D02*
X667676Y8208572D01*
X667676Y8208572D02*
X762914Y8113334D01*
X762914Y8113334D02*
X810533Y8018096D01*
X524819Y9494286D02*
X524819Y9018096D01*
X524819Y9018096D02*
X1001009Y8970477D01*
X1001009Y8970477D02*
X953390Y9018096D01*
X953390Y9018096D02*
X905771Y9113334D01*
X905771Y9113334D02*
X905771Y9351429D01*
X905771Y9351429D02*
X953390Y9446667D01*
X953390Y9446667D02*
X1001009Y9494286D01*
X1001009Y9494286D02*
X1096247Y9541905D01*
X1096247Y9541905D02*
X1334342Y9541905D01*
X1334342Y9541905D02*
X1429580Y9494286D01*
X1429580Y9494286D02*
X1477200Y9446667D01*
X1477200Y9446667D02*
X1524819Y9351429D01*
X1524819Y9351429D02*
X1524819Y9113334D01*
X1524819Y9113334D02*
X1477200Y9018096D01*
X1477200Y9018096D02*
X1429580Y8970477D01*
X24197142Y13580420D02*
X24149523Y13532800D01*
X24149523Y13532800D02*
X24006666Y13485181D01*
X24006666Y13485181D02*
X23911428Y13485181D01*
X23911428Y13485181D02*
X23768571Y13532800D01*
X23768571Y13532800D02*
X23673333Y13628039D01*
X23673333Y13628039D02*
X23625714Y13723277D01*
X23625714Y13723277D02*
X23578095Y13913753D01*
X23578095Y13913753D02*
X23578095Y14056610D01*
X23578095Y14056610D02*
X23625714Y14247086D01*
X23625714Y14247086D02*
X23673333Y14342324D01*
X23673333Y14342324D02*
X23768571Y14437562D01*
X23768571Y14437562D02*
X23911428Y14485181D01*
X23911428Y14485181D02*
X24006666Y14485181D01*
X24006666Y14485181D02*
X24149523Y14437562D01*
X24149523Y14437562D02*
X24197142Y14389943D01*
X24578095Y14389943D02*
X24625714Y14437562D01*
X24625714Y14437562D02*
X24720952Y14485181D01*
X24720952Y14485181D02*
X24959047Y14485181D01*
X24959047Y14485181D02*
X25054285Y14437562D01*
X25054285Y14437562D02*
X25101904Y14389943D01*
X25101904Y14389943D02*
X25149523Y14294705D01*
X25149523Y14294705D02*
X25149523Y14199467D01*
X25149523Y14199467D02*
X25101904Y14056610D01*
X25101904Y14056610D02*
X24530476Y13485181D01*
X24530476Y13485181D02*
X25149523Y13485181D01*
X26101904Y13485181D02*
X25530476Y13485181D01*
X25816190Y13485181D02*
X25816190Y14485181D01*
X25816190Y14485181D02*
X25720952Y14342324D01*
X25720952Y14342324D02*
X25625714Y14247086D01*
X25625714Y14247086D02*
X25530476Y14199467D01*
X13069580Y1363334D02*
X13117200Y1315715D01*
X13117200Y1315715D02*
X13164819Y1172858D01*
X13164819Y1172858D02*
X13164819Y1077620D01*
X13164819Y1077620D02*
X13117200Y934763D01*
X13117200Y934763D02*
X13021961Y839525D01*
X13021961Y839525D02*
X12926723Y791906D01*
X12926723Y791906D02*
X12736247Y744287D01*
X12736247Y744287D02*
X12593390Y744287D01*
X12593390Y744287D02*
X12402914Y791906D01*
X12402914Y791906D02*
X12307676Y839525D01*
X12307676Y839525D02*
X12212438Y934763D01*
X12212438Y934763D02*
X12164819Y1077620D01*
X12164819Y1077620D02*
X12164819Y1172858D01*
X12164819Y1172858D02*
X12212438Y1315715D01*
X12212438Y1315715D02*
X12260057Y1363334D01*
X12593390Y1934763D02*
X12545771Y1839525D01*
X12545771Y1839525D02*
X12498152Y1791906D01*
X12498152Y1791906D02*
X12402914Y1744287D01*
X12402914Y1744287D02*
X12355295Y1744287D01*
X12355295Y1744287D02*
X12260057Y1791906D01*
X12260057Y1791906D02*
X12212438Y1839525D01*
X12212438Y1839525D02*
X12164819Y1934763D01*
X12164819Y1934763D02*
X12164819Y2125239D01*
X12164819Y2125239D02*
X12212438Y2220477D01*
X12212438Y2220477D02*
X12260057Y2268096D01*
X12260057Y2268096D02*
X12355295Y2315715D01*
X12355295Y2315715D02*
X12402914Y2315715D01*
X12402914Y2315715D02*
X12498152Y2268096D01*
X12498152Y2268096D02*
X12545771Y2220477D01*
X12545771Y2220477D02*
X12593390Y2125239D01*
X12593390Y2125239D02*
X12593390Y1934763D01*
X12593390Y1934763D02*
X12641009Y1839525D01*
X12641009Y1839525D02*
X12688628Y1791906D01*
X12688628Y1791906D02*
X12783866Y1744287D01*
X12783866Y1744287D02*
X12974342Y1744287D01*
X12974342Y1744287D02*
X13069580Y1791906D01*
X13069580Y1791906D02*
X13117200Y1839525D01*
X13117200Y1839525D02*
X13164819Y1934763D01*
X13164819Y1934763D02*
X13164819Y2125239D01*
X13164819Y2125239D02*
X13117200Y2220477D01*
X13117200Y2220477D02*
X13069580Y2268096D01*
X13069580Y2268096D02*
X12974342Y2315715D01*
X12974342Y2315715D02*
X12783866Y2315715D01*
X12783866Y2315715D02*
X12688628Y2268096D01*
X12688628Y2268096D02*
X12641009Y2220477D01*
X12641009Y2220477D02*
X12593390Y2125239D01*
X8599580Y33673334D02*
X8647200Y33625715D01*
X8647200Y33625715D02*
X8694819Y33482858D01*
X8694819Y33482858D02*
X8694819Y33387620D01*
X8694819Y33387620D02*
X8647200Y33244763D01*
X8647200Y33244763D02*
X8551961Y33149525D01*
X8551961Y33149525D02*
X8456723Y33101906D01*
X8456723Y33101906D02*
X8266247Y33054287D01*
X8266247Y33054287D02*
X8123390Y33054287D01*
X8123390Y33054287D02*
X7932914Y33101906D01*
X7932914Y33101906D02*
X7837676Y33149525D01*
X7837676Y33149525D02*
X7742438Y33244763D01*
X7742438Y33244763D02*
X7694819Y33387620D01*
X7694819Y33387620D02*
X7694819Y33482858D01*
X7694819Y33482858D02*
X7742438Y33625715D01*
X7742438Y33625715D02*
X7790057Y33673334D01*
X8694819Y34625715D02*
X8694819Y34054287D01*
X8694819Y34340001D02*
X7694819Y34340001D01*
X7694819Y34340001D02*
X7837676Y34244763D01*
X7837676Y34244763D02*
X7932914Y34149525D01*
X7932914Y34149525D02*
X7980533Y34054287D01*
X20748095Y15535181D02*
X20748095Y14725658D01*
X20748095Y14725658D02*
X20795714Y14630420D01*
X20795714Y14630420D02*
X20843333Y14582800D01*
X20843333Y14582800D02*
X20938571Y14535181D01*
X20938571Y14535181D02*
X21129047Y14535181D01*
X21129047Y14535181D02*
X21224285Y14582800D01*
X21224285Y14582800D02*
X21271904Y14630420D01*
X21271904Y14630420D02*
X21319523Y14725658D01*
X21319523Y14725658D02*
X21319523Y15535181D01*
X22224285Y15535181D02*
X22033809Y15535181D01*
X22033809Y15535181D02*
X21938571Y15487562D01*
X21938571Y15487562D02*
X21890952Y15439943D01*
X21890952Y15439943D02*
X21795714Y15297086D01*
X21795714Y15297086D02*
X21748095Y15106610D01*
X21748095Y15106610D02*
X21748095Y14725658D01*
X21748095Y14725658D02*
X21795714Y14630420D01*
X21795714Y14630420D02*
X21843333Y14582800D01*
X21843333Y14582800D02*
X21938571Y14535181D01*
X21938571Y14535181D02*
X22129047Y14535181D01*
X22129047Y14535181D02*
X22224285Y14582800D01*
X22224285Y14582800D02*
X22271904Y14630420D01*
X22271904Y14630420D02*
X22319523Y14725658D01*
X22319523Y14725658D02*
X22319523Y14963753D01*
X22319523Y14963753D02*
X22271904Y15058991D01*
X22271904Y15058991D02*
X22224285Y15106610D01*
X22224285Y15106610D02*
X22129047Y15154229D01*
X22129047Y15154229D02*
X21938571Y15154229D01*
X21938571Y15154229D02*
X21843333Y15106610D01*
X21843333Y15106610D02*
X21795714Y15058991D01*
X21795714Y15058991D02*
X21748095Y14963753D01*
X18373333Y28590420D02*
X18325714Y28542800D01*
X18325714Y28542800D02*
X18182857Y28495181D01*
X18182857Y28495181D02*
X18087619Y28495181D01*
X18087619Y28495181D02*
X17944762Y28542800D01*
X17944762Y28542800D02*
X17849524Y28638039D01*
X17849524Y28638039D02*
X17801905Y28733277D01*
X17801905Y28733277D02*
X17754286Y28923753D01*
X17754286Y28923753D02*
X17754286Y29066610D01*
X17754286Y29066610D02*
X17801905Y29257086D01*
X17801905Y29257086D02*
X17849524Y29352324D01*
X17849524Y29352324D02*
X17944762Y29447562D01*
X17944762Y29447562D02*
X18087619Y29495181D01*
X18087619Y29495181D02*
X18182857Y29495181D01*
X18182857Y29495181D02*
X18325714Y29447562D01*
X18325714Y29447562D02*
X18373333Y29399943D01*
X19278095Y29495181D02*
X18801905Y29495181D01*
X18801905Y29495181D02*
X18754286Y29018991D01*
X18754286Y29018991D02*
X18801905Y29066610D01*
X18801905Y29066610D02*
X18897143Y29114229D01*
X18897143Y29114229D02*
X19135238Y29114229D01*
X19135238Y29114229D02*
X19230476Y29066610D01*
X19230476Y29066610D02*
X19278095Y29018991D01*
X19278095Y29018991D02*
X19325714Y28923753D01*
X19325714Y28923753D02*
X19325714Y28685658D01*
X19325714Y28685658D02*
X19278095Y28590420D01*
X19278095Y28590420D02*
X19230476Y28542800D01*
X19230476Y28542800D02*
X19135238Y28495181D01*
X19135238Y28495181D02*
X18897143Y28495181D01*
X18897143Y28495181D02*
X18801905Y28542800D01*
X18801905Y28542800D02*
X18754286Y28590420D01*
X19897142Y11410420D02*
X19849523Y11362800D01*
X19849523Y11362800D02*
X19706666Y11315181D01*
X19706666Y11315181D02*
X19611428Y11315181D01*
X19611428Y11315181D02*
X19468571Y11362800D01*
X19468571Y11362800D02*
X19373333Y11458039D01*
X19373333Y11458039D02*
X19325714Y11553277D01*
X19325714Y11553277D02*
X19278095Y11743753D01*
X19278095Y11743753D02*
X19278095Y11886610D01*
X19278095Y11886610D02*
X19325714Y12077086D01*
X19325714Y12077086D02*
X19373333Y12172324D01*
X19373333Y12172324D02*
X19468571Y12267562D01*
X19468571Y12267562D02*
X19611428Y12315181D01*
X19611428Y12315181D02*
X19706666Y12315181D01*
X19706666Y12315181D02*
X19849523Y12267562D01*
X19849523Y12267562D02*
X19897142Y12219943D01*
X20230476Y12315181D02*
X20849523Y12315181D01*
X20849523Y12315181D02*
X20516190Y11934229D01*
X20516190Y11934229D02*
X20659047Y11934229D01*
X20659047Y11934229D02*
X20754285Y11886610D01*
X20754285Y11886610D02*
X20801904Y11838991D01*
X20801904Y11838991D02*
X20849523Y11743753D01*
X20849523Y11743753D02*
X20849523Y11505658D01*
X20849523Y11505658D02*
X20801904Y11410420D01*
X20801904Y11410420D02*
X20754285Y11362800D01*
X20754285Y11362800D02*
X20659047Y11315181D01*
X20659047Y11315181D02*
X20373333Y11315181D01*
X20373333Y11315181D02*
X20278095Y11362800D01*
X20278095Y11362800D02*
X20230476Y11410420D01*
X21182857Y12315181D02*
X21801904Y12315181D01*
X21801904Y12315181D02*
X21468571Y11934229D01*
X21468571Y11934229D02*
X21611428Y11934229D01*
X21611428Y11934229D02*
X21706666Y11886610D01*
X21706666Y11886610D02*
X21754285Y11838991D01*
X21754285Y11838991D02*
X21801904Y11743753D01*
X21801904Y11743753D02*
X21801904Y11505658D01*
X21801904Y11505658D02*
X21754285Y11410420D01*
X21754285Y11410420D02*
X21706666Y11362800D01*
X21706666Y11362800D02*
X21611428Y11315181D01*
X21611428Y11315181D02*
X21325714Y11315181D01*
X21325714Y11315181D02*
X21230476Y11362800D01*
X21230476Y11362800D02*
X21182857Y11410420D01*
X7369580Y7477143D02*
X7417200Y7429524D01*
X7417200Y7429524D02*
X7464819Y7286667D01*
X7464819Y7286667D02*
X7464819Y7191429D01*
X7464819Y7191429D02*
X7417200Y7048572D01*
X7417200Y7048572D02*
X7321961Y6953334D01*
X7321961Y6953334D02*
X7226723Y6905715D01*
X7226723Y6905715D02*
X7036247Y6858096D01*
X7036247Y6858096D02*
X6893390Y6858096D01*
X6893390Y6858096D02*
X6702914Y6905715D01*
X6702914Y6905715D02*
X6607676Y6953334D01*
X6607676Y6953334D02*
X6512438Y7048572D01*
X6512438Y7048572D02*
X6464819Y7191429D01*
X6464819Y7191429D02*
X6464819Y7286667D01*
X6464819Y7286667D02*
X6512438Y7429524D01*
X6512438Y7429524D02*
X6560057Y7477143D01*
X7464819Y8429524D02*
X7464819Y7858096D01*
X7464819Y8143810D02*
X6464819Y8143810D01*
X6464819Y8143810D02*
X6607676Y8048572D01*
X6607676Y8048572D02*
X6702914Y7953334D01*
X6702914Y7953334D02*
X6750533Y7858096D01*
X6798152Y9286667D02*
X7464819Y9286667D01*
X6417200Y9048572D02*
X7131485Y8810477D01*
X7131485Y8810477D02*
X7131485Y9429524D01*
X25579580Y27197143D02*
X25627200Y27149524D01*
X25627200Y27149524D02*
X25674819Y27006667D01*
X25674819Y27006667D02*
X25674819Y26911429D01*
X25674819Y26911429D02*
X25627200Y26768572D01*
X25627200Y26768572D02*
X25531961Y26673334D01*
X25531961Y26673334D02*
X25436723Y26625715D01*
X25436723Y26625715D02*
X25246247Y26578096D01*
X25246247Y26578096D02*
X25103390Y26578096D01*
X25103390Y26578096D02*
X24912914Y26625715D01*
X24912914Y26625715D02*
X24817676Y26673334D01*
X24817676Y26673334D02*
X24722438Y26768572D01*
X24722438Y26768572D02*
X24674819Y26911429D01*
X24674819Y26911429D02*
X24674819Y27006667D01*
X24674819Y27006667D02*
X24722438Y27149524D01*
X24722438Y27149524D02*
X24770057Y27197143D01*
X25674819Y28149524D02*
X25674819Y27578096D01*
X25674819Y27863810D02*
X24674819Y27863810D01*
X24674819Y27863810D02*
X24817676Y27768572D01*
X24817676Y27768572D02*
X24912914Y27673334D01*
X24912914Y27673334D02*
X24960533Y27578096D01*
X24674819Y29006667D02*
X24674819Y28816191D01*
X24674819Y28816191D02*
X24722438Y28720953D01*
X24722438Y28720953D02*
X24770057Y28673334D01*
X24770057Y28673334D02*
X24912914Y28578096D01*
X24912914Y28578096D02*
X25103390Y28530477D01*
X25103390Y28530477D02*
X25484342Y28530477D01*
X25484342Y28530477D02*
X25579580Y28578096D01*
X25579580Y28578096D02*
X25627200Y28625715D01*
X25627200Y28625715D02*
X25674819Y28720953D01*
X25674819Y28720953D02*
X25674819Y28911429D01*
X25674819Y28911429D02*
X25627200Y29006667D01*
X25627200Y29006667D02*
X25579580Y29054286D01*
X25579580Y29054286D02*
X25484342Y29101905D01*
X25484342Y29101905D02*
X25246247Y29101905D01*
X25246247Y29101905D02*
X25151009Y29054286D01*
X25151009Y29054286D02*
X25103390Y29006667D01*
X25103390Y29006667D02*
X25055771Y28911429D01*
X25055771Y28911429D02*
X25055771Y28720953D01*
X25055771Y28720953D02*
X25103390Y28625715D01*
X25103390Y28625715D02*
X25151009Y28578096D01*
X25151009Y28578096D02*
X25246247Y28530477D01*
X6978095Y22075181D02*
X6978095Y21265658D01*
X6978095Y21265658D02*
X7025714Y21170420D01*
X7025714Y21170420D02*
X7073333Y21122800D01*
X7073333Y21122800D02*
X7168571Y21075181D01*
X7168571Y21075181D02*
X7359047Y21075181D01*
X7359047Y21075181D02*
X7454285Y21122800D01*
X7454285Y21122800D02*
X7501904Y21170420D01*
X7501904Y21170420D02*
X7549523Y21265658D01*
X7549523Y21265658D02*
X7549523Y22075181D01*
X7930476Y22075181D02*
X8597142Y22075181D01*
X8597142Y22075181D02*
X8168571Y21075181D01*
X24047142Y25100420D02*
X23999523Y25052800D01*
X23999523Y25052800D02*
X23856666Y25005181D01*
X23856666Y25005181D02*
X23761428Y25005181D01*
X23761428Y25005181D02*
X23618571Y25052800D01*
X23618571Y25052800D02*
X23523333Y25148039D01*
X23523333Y25148039D02*
X23475714Y25243277D01*
X23475714Y25243277D02*
X23428095Y25433753D01*
X23428095Y25433753D02*
X23428095Y25576610D01*
X23428095Y25576610D02*
X23475714Y25767086D01*
X23475714Y25767086D02*
X23523333Y25862324D01*
X23523333Y25862324D02*
X23618571Y25957562D01*
X23618571Y25957562D02*
X23761428Y26005181D01*
X23761428Y26005181D02*
X23856666Y26005181D01*
X23856666Y26005181D02*
X23999523Y25957562D01*
X23999523Y25957562D02*
X24047142Y25909943D01*
X24999523Y25005181D02*
X24428095Y25005181D01*
X24713809Y25005181D02*
X24713809Y26005181D01*
X24713809Y26005181D02*
X24618571Y25862324D01*
X24618571Y25862324D02*
X24523333Y25767086D01*
X24523333Y25767086D02*
X24428095Y25719467D01*
X25570952Y25576610D02*
X25475714Y25624229D01*
X25475714Y25624229D02*
X25428095Y25671848D01*
X25428095Y25671848D02*
X25380476Y25767086D01*
X25380476Y25767086D02*
X25380476Y25814705D01*
X25380476Y25814705D02*
X25428095Y25909943D01*
X25428095Y25909943D02*
X25475714Y25957562D01*
X25475714Y25957562D02*
X25570952Y26005181D01*
X25570952Y26005181D02*
X25761428Y26005181D01*
X25761428Y26005181D02*
X25856666Y25957562D01*
X25856666Y25957562D02*
X25904285Y25909943D01*
X25904285Y25909943D02*
X25951904Y25814705D01*
X25951904Y25814705D02*
X25951904Y25767086D01*
X25951904Y25767086D02*
X25904285Y25671848D01*
X25904285Y25671848D02*
X25856666Y25624229D01*
X25856666Y25624229D02*
X25761428Y25576610D01*
X25761428Y25576610D02*
X25570952Y25576610D01*
X25570952Y25576610D02*
X25475714Y25528991D01*
X25475714Y25528991D02*
X25428095Y25481372D01*
X25428095Y25481372D02*
X25380476Y25386134D01*
X25380476Y25386134D02*
X25380476Y25195658D01*
X25380476Y25195658D02*
X25428095Y25100420D01*
X25428095Y25100420D02*
X25475714Y25052800D01*
X25475714Y25052800D02*
X25570952Y25005181D01*
X25570952Y25005181D02*
X25761428Y25005181D01*
X25761428Y25005181D02*
X25856666Y25052800D01*
X25856666Y25052800D02*
X25904285Y25100420D01*
X25904285Y25100420D02*
X25951904Y25195658D01*
X25951904Y25195658D02*
X25951904Y25386134D01*
X25951904Y25386134D02*
X25904285Y25481372D01*
X25904285Y25481372D02*
X25856666Y25528991D01*
X25856666Y25528991D02*
X25761428Y25576610D01*
X18347142Y32170420D02*
X18299523Y32122800D01*
X18299523Y32122800D02*
X18156666Y32075181D01*
X18156666Y32075181D02*
X18061428Y32075181D01*
X18061428Y32075181D02*
X17918571Y32122800D01*
X17918571Y32122800D02*
X17823333Y32218039D01*
X17823333Y32218039D02*
X17775714Y32313277D01*
X17775714Y32313277D02*
X17728095Y32503753D01*
X17728095Y32503753D02*
X17728095Y32646610D01*
X17728095Y32646610D02*
X17775714Y32837086D01*
X17775714Y32837086D02*
X17823333Y32932324D01*
X17823333Y32932324D02*
X17918571Y33027562D01*
X17918571Y33027562D02*
X18061428Y33075181D01*
X18061428Y33075181D02*
X18156666Y33075181D01*
X18156666Y33075181D02*
X18299523Y33027562D01*
X18299523Y33027562D02*
X18347142Y32979943D01*
X18680476Y33075181D02*
X19299523Y33075181D01*
X19299523Y33075181D02*
X18966190Y32694229D01*
X18966190Y32694229D02*
X19109047Y32694229D01*
X19109047Y32694229D02*
X19204285Y32646610D01*
X19204285Y32646610D02*
X19251904Y32598991D01*
X19251904Y32598991D02*
X19299523Y32503753D01*
X19299523Y32503753D02*
X19299523Y32265658D01*
X19299523Y32265658D02*
X19251904Y32170420D01*
X19251904Y32170420D02*
X19204285Y32122800D01*
X19204285Y32122800D02*
X19109047Y32075181D01*
X19109047Y32075181D02*
X18823333Y32075181D01*
X18823333Y32075181D02*
X18728095Y32122800D01*
X18728095Y32122800D02*
X18680476Y32170420D01*
X20156666Y32741848D02*
X20156666Y32075181D01*
X19918571Y33122800D02*
X19680476Y32408515D01*
X19680476Y32408515D02*
X20299523Y32408515D01*
X5718094Y28831724D02*
X5718094Y29471724D01*
X5718094Y29471724D02*
X5931428Y29014581D01*
X5931428Y29014581D02*
X6144761Y29471724D01*
X6144761Y29471724D02*
X6144761Y28831724D01*
X6358095Y29471724D02*
X6723809Y29471724D01*
X6540952Y28831724D02*
X6540952Y29471724D01*
X7272381Y28831724D02*
X6906666Y28831724D01*
X7089523Y28831724D02*
X7089523Y29471724D01*
X7089523Y29471724D02*
X7028571Y29380296D01*
X7028571Y29380296D02*
X6967619Y29319343D01*
X6967619Y29319343D02*
X6906666Y29288867D01*
X24278095Y34165181D02*
X24278095Y33355658D01*
X24278095Y33355658D02*
X24325714Y33260420D01*
X24325714Y33260420D02*
X24373333Y33212800D01*
X24373333Y33212800D02*
X24468571Y33165181D01*
X24468571Y33165181D02*
X24659047Y33165181D01*
X24659047Y33165181D02*
X24754285Y33212800D01*
X24754285Y33212800D02*
X24801904Y33260420D01*
X24801904Y33260420D02*
X24849523Y33355658D01*
X24849523Y33355658D02*
X24849523Y34165181D01*
X25468571Y33736610D02*
X25373333Y33784229D01*
X25373333Y33784229D02*
X25325714Y33831848D01*
X25325714Y33831848D02*
X25278095Y33927086D01*
X25278095Y33927086D02*
X25278095Y33974705D01*
X25278095Y33974705D02*
X25325714Y34069943D01*
X25325714Y34069943D02*
X25373333Y34117562D01*
X25373333Y34117562D02*
X25468571Y34165181D01*
X25468571Y34165181D02*
X25659047Y34165181D01*
X25659047Y34165181D02*
X25754285Y34117562D01*
X25754285Y34117562D02*
X25801904Y34069943D01*
X25801904Y34069943D02*
X25849523Y33974705D01*
X25849523Y33974705D02*
X25849523Y33927086D01*
X25849523Y33927086D02*
X25801904Y33831848D01*
X25801904Y33831848D02*
X25754285Y33784229D01*
X25754285Y33784229D02*
X25659047Y33736610D01*
X25659047Y33736610D02*
X25468571Y33736610D01*
X25468571Y33736610D02*
X25373333Y33688991D01*
X25373333Y33688991D02*
X25325714Y33641372D01*
X25325714Y33641372D02*
X25278095Y33546134D01*
X25278095Y33546134D02*
X25278095Y33355658D01*
X25278095Y33355658D02*
X25325714Y33260420D01*
X25325714Y33260420D02*
X25373333Y33212800D01*
X25373333Y33212800D02*
X25468571Y33165181D01*
X25468571Y33165181D02*
X25659047Y33165181D01*
X25659047Y33165181D02*
X25754285Y33212800D01*
X25754285Y33212800D02*
X25801904Y33260420D01*
X25801904Y33260420D02*
X25849523Y33355658D01*
X25849523Y33355658D02*
X25849523Y33546134D01*
X25849523Y33546134D02*
X25801904Y33641372D01*
X25801904Y33641372D02*
X25754285Y33688991D01*
X25754285Y33688991D02*
X25659047Y33736610D01*
X6953333Y5105181D02*
X6477143Y5105181D01*
X6477143Y5105181D02*
X6477143Y6105181D01*
X7810476Y5105181D02*
X7239048Y5105181D01*
X7524762Y5105181D02*
X7524762Y6105181D01*
X7524762Y6105181D02*
X7429524Y5962324D01*
X7429524Y5962324D02*
X7334286Y5867086D01*
X7334286Y5867086D02*
X7239048Y5819467D01*
X9799580Y53757143D02*
X9847200Y53709524D01*
X9847200Y53709524D02*
X9894819Y53566667D01*
X9894819Y53566667D02*
X9894819Y53471429D01*
X9894819Y53471429D02*
X9847200Y53328572D01*
X9847200Y53328572D02*
X9751961Y53233334D01*
X9751961Y53233334D02*
X9656723Y53185715D01*
X9656723Y53185715D02*
X9466247Y53138096D01*
X9466247Y53138096D02*
X9323390Y53138096D01*
X9323390Y53138096D02*
X9132914Y53185715D01*
X9132914Y53185715D02*
X9037676Y53233334D01*
X9037676Y53233334D02*
X8942438Y53328572D01*
X8942438Y53328572D02*
X8894819Y53471429D01*
X8894819Y53471429D02*
X8894819Y53566667D01*
X8894819Y53566667D02*
X8942438Y53709524D01*
X8942438Y53709524D02*
X8990057Y53757143D01*
X8894819Y54090477D02*
X8894819Y54709524D01*
X8894819Y54709524D02*
X9275771Y54376191D01*
X9275771Y54376191D02*
X9275771Y54519048D01*
X9275771Y54519048D02*
X9323390Y54614286D01*
X9323390Y54614286D02*
X9371009Y54661905D01*
X9371009Y54661905D02*
X9466247Y54709524D01*
X9466247Y54709524D02*
X9704342Y54709524D01*
X9704342Y54709524D02*
X9799580Y54661905D01*
X9799580Y54661905D02*
X9847200Y54614286D01*
X9847200Y54614286D02*
X9894819Y54519048D01*
X9894819Y54519048D02*
X9894819Y54233334D01*
X9894819Y54233334D02*
X9847200Y54138096D01*
X9847200Y54138096D02*
X9799580Y54090477D01*
X8894819Y55042858D02*
X8894819Y55709524D01*
X8894819Y55709524D02*
X9894819Y55280953D01*
X2478095Y7775181D02*
X2478095Y6965658D01*
X2478095Y6965658D02*
X2525714Y6870420D01*
X2525714Y6870420D02*
X2573333Y6822800D01*
X2573333Y6822800D02*
X2668571Y6775181D01*
X2668571Y6775181D02*
X2859047Y6775181D01*
X2859047Y6775181D02*
X2954285Y6822800D01*
X2954285Y6822800D02*
X3001904Y6870420D01*
X3001904Y6870420D02*
X3049523Y6965658D01*
X3049523Y6965658D02*
X3049523Y7775181D01*
X3954285Y7441848D02*
X3954285Y6775181D01*
X3716190Y7822800D02*
X3478095Y7108515D01*
X3478095Y7108515D02*
X4097142Y7108515D01*
X4587200Y56806668D02*
X4634819Y56949525D01*
X4634819Y56949525D02*
X4634819Y57187620D01*
X4634819Y57187620D02*
X4587200Y57282858D01*
X4587200Y57282858D02*
X4539580Y57330477D01*
X4539580Y57330477D02*
X4444342Y57378096D01*
X4444342Y57378096D02*
X4349104Y57378096D01*
X4349104Y57378096D02*
X4253866Y57330477D01*
X4253866Y57330477D02*
X4206247Y57282858D01*
X4206247Y57282858D02*
X4158628Y57187620D01*
X4158628Y57187620D02*
X4111009Y56997144D01*
X4111009Y56997144D02*
X4063390Y56901906D01*
X4063390Y56901906D02*
X4015771Y56854287D01*
X4015771Y56854287D02*
X3920533Y56806668D01*
X3920533Y56806668D02*
X3825295Y56806668D01*
X3825295Y56806668D02*
X3730057Y56854287D01*
X3730057Y56854287D02*
X3682438Y56901906D01*
X3682438Y56901906D02*
X3634819Y56997144D01*
X3634819Y56997144D02*
X3634819Y57235239D01*
X3634819Y57235239D02*
X3682438Y57378096D01*
X3634819Y57711430D02*
X4634819Y57949525D01*
X4634819Y57949525D02*
X3920533Y58140001D01*
X3920533Y58140001D02*
X4634819Y58330477D01*
X4634819Y58330477D02*
X3634819Y58568572D01*
X4634819Y59473334D02*
X4634819Y58901906D01*
X4634819Y59187620D02*
X3634819Y59187620D01*
X3634819Y59187620D02*
X3777676Y59092382D01*
X3777676Y59092382D02*
X3872914Y58997144D01*
X3872914Y58997144D02*
X3920533Y58901906D01*
X10169580Y9107143D02*
X10217200Y9059524D01*
X10217200Y9059524D02*
X10264819Y8916667D01*
X10264819Y8916667D02*
X10264819Y8821429D01*
X10264819Y8821429D02*
X10217200Y8678572D01*
X10217200Y8678572D02*
X10121961Y8583334D01*
X10121961Y8583334D02*
X10026723Y8535715D01*
X10026723Y8535715D02*
X9836247Y8488096D01*
X9836247Y8488096D02*
X9693390Y8488096D01*
X9693390Y8488096D02*
X9502914Y8535715D01*
X9502914Y8535715D02*
X9407676Y8583334D01*
X9407676Y8583334D02*
X9312438Y8678572D01*
X9312438Y8678572D02*
X9264819Y8821429D01*
X9264819Y8821429D02*
X9264819Y8916667D01*
X9264819Y8916667D02*
X9312438Y9059524D01*
X9312438Y9059524D02*
X9360057Y9107143D01*
X10264819Y10059524D02*
X10264819Y9488096D01*
X10264819Y9773810D02*
X9264819Y9773810D01*
X9264819Y9773810D02*
X9407676Y9678572D01*
X9407676Y9678572D02*
X9502914Y9583334D01*
X9502914Y9583334D02*
X9550533Y9488096D01*
X9360057Y10440477D02*
X9312438Y10488096D01*
X9312438Y10488096D02*
X9264819Y10583334D01*
X9264819Y10583334D02*
X9264819Y10821429D01*
X9264819Y10821429D02*
X9312438Y10916667D01*
X9312438Y10916667D02*
X9360057Y10964286D01*
X9360057Y10964286D02*
X9455295Y11011905D01*
X9455295Y11011905D02*
X9550533Y11011905D01*
X9550533Y11011905D02*
X9693390Y10964286D01*
X9693390Y10964286D02*
X10264819Y10392858D01*
X10264819Y10392858D02*
X10264819Y11011905D01*
X4454819Y21273334D02*
X3978628Y20940001D01*
X4454819Y20701906D02*
X3454819Y20701906D01*
X3454819Y20701906D02*
X3454819Y21082858D01*
X3454819Y21082858D02*
X3502438Y21178096D01*
X3502438Y21178096D02*
X3550057Y21225715D01*
X3550057Y21225715D02*
X3645295Y21273334D01*
X3645295Y21273334D02*
X3788152Y21273334D01*
X3788152Y21273334D02*
X3883390Y21225715D01*
X3883390Y21225715D02*
X3931009Y21178096D01*
X3931009Y21178096D02*
X3978628Y21082858D01*
X3978628Y21082858D02*
X3978628Y20701906D01*
X3454819Y21606668D02*
X3454819Y22273334D01*
X3454819Y22273334D02*
X4454819Y21844763D01*
X14616666Y14205181D02*
X14616666Y13490896D01*
X14616666Y13490896D02*
X14569047Y13348039D01*
X14569047Y13348039D02*
X14473809Y13252800D01*
X14473809Y13252800D02*
X14330952Y13205181D01*
X14330952Y13205181D02*
X14235714Y13205181D01*
X15092857Y13205181D02*
X15092857Y14205181D01*
X15092857Y14205181D02*
X15473809Y14205181D01*
X15473809Y14205181D02*
X15569047Y14157562D01*
X15569047Y14157562D02*
X15616666Y14109943D01*
X15616666Y14109943D02*
X15664285Y14014705D01*
X15664285Y14014705D02*
X15664285Y13871848D01*
X15664285Y13871848D02*
X15616666Y13776610D01*
X15616666Y13776610D02*
X15569047Y13728991D01*
X15569047Y13728991D02*
X15473809Y13681372D01*
X15473809Y13681372D02*
X15092857Y13681372D01*
X16045238Y14109943D02*
X16092857Y14157562D01*
X16092857Y14157562D02*
X16188095Y14205181D01*
X16188095Y14205181D02*
X16426190Y14205181D01*
X16426190Y14205181D02*
X16521428Y14157562D01*
X16521428Y14157562D02*
X16569047Y14109943D01*
X16569047Y14109943D02*
X16616666Y14014705D01*
X16616666Y14014705D02*
X16616666Y13919467D01*
X16616666Y13919467D02*
X16569047Y13776610D01*
X16569047Y13776610D02*
X15997619Y13205181D01*
X15997619Y13205181D02*
X16616666Y13205181D01*
X10317142Y36330420D02*
X10269523Y36282800D01*
X10269523Y36282800D02*
X10126666Y36235181D01*
X10126666Y36235181D02*
X10031428Y36235181D01*
X10031428Y36235181D02*
X9888571Y36282800D01*
X9888571Y36282800D02*
X9793333Y36378039D01*
X9793333Y36378039D02*
X9745714Y36473277D01*
X9745714Y36473277D02*
X9698095Y36663753D01*
X9698095Y36663753D02*
X9698095Y36806610D01*
X9698095Y36806610D02*
X9745714Y36997086D01*
X9745714Y36997086D02*
X9793333Y37092324D01*
X9793333Y37092324D02*
X9888571Y37187562D01*
X9888571Y37187562D02*
X10031428Y37235181D01*
X10031428Y37235181D02*
X10126666Y37235181D01*
X10126666Y37235181D02*
X10269523Y37187562D01*
X10269523Y37187562D02*
X10317142Y37139943D01*
X10650476Y37235181D02*
X11269523Y37235181D01*
X11269523Y37235181D02*
X10936190Y36854229D01*
X10936190Y36854229D02*
X11079047Y36854229D01*
X11079047Y36854229D02*
X11174285Y36806610D01*
X11174285Y36806610D02*
X11221904Y36758991D01*
X11221904Y36758991D02*
X11269523Y36663753D01*
X11269523Y36663753D02*
X11269523Y36425658D01*
X11269523Y36425658D02*
X11221904Y36330420D01*
X11221904Y36330420D02*
X11174285Y36282800D01*
X11174285Y36282800D02*
X11079047Y36235181D01*
X11079047Y36235181D02*
X10793333Y36235181D01*
X10793333Y36235181D02*
X10698095Y36282800D01*
X10698095Y36282800D02*
X10650476Y36330420D01*
X11650476Y37139943D02*
X11698095Y37187562D01*
X11698095Y37187562D02*
X11793333Y37235181D01*
X11793333Y37235181D02*
X12031428Y37235181D01*
X12031428Y37235181D02*
X12126666Y37187562D01*
X12126666Y37187562D02*
X12174285Y37139943D01*
X12174285Y37139943D02*
X12221904Y37044705D01*
X12221904Y37044705D02*
X12221904Y36949467D01*
X12221904Y36949467D02*
X12174285Y36806610D01*
X12174285Y36806610D02*
X11602857Y36235181D01*
X11602857Y36235181D02*
X12221904Y36235181D01*
X4949580Y1107143D02*
X4997200Y1059524D01*
X4997200Y1059524D02*
X5044819Y916667D01*
X5044819Y916667D02*
X5044819Y821429D01*
X5044819Y821429D02*
X4997200Y678572D01*
X4997200Y678572D02*
X4901961Y583334D01*
X4901961Y583334D02*
X4806723Y535715D01*
X4806723Y535715D02*
X4616247Y488096D01*
X4616247Y488096D02*
X4473390Y488096D01*
X4473390Y488096D02*
X4282914Y535715D01*
X4282914Y535715D02*
X4187676Y583334D01*
X4187676Y583334D02*
X4092438Y678572D01*
X4092438Y678572D02*
X4044819Y821429D01*
X4044819Y821429D02*
X4044819Y916667D01*
X4044819Y916667D02*
X4092438Y1059524D01*
X4092438Y1059524D02*
X4140057Y1107143D01*
X5044819Y2059524D02*
X5044819Y1488096D01*
X5044819Y1773810D02*
X4044819Y1773810D01*
X4044819Y1773810D02*
X4187676Y1678572D01*
X4187676Y1678572D02*
X4282914Y1583334D01*
X4282914Y1583334D02*
X4330533Y1488096D01*
X5044819Y3011905D02*
X5044819Y2440477D01*
X5044819Y2726191D02*
X4044819Y2726191D01*
X4044819Y2726191D02*
X4187676Y2630953D01*
X4187676Y2630953D02*
X4282914Y2535715D01*
X4282914Y2535715D02*
X4330533Y2440477D01*
X6233333Y34930420D02*
X6185714Y34882800D01*
X6185714Y34882800D02*
X6042857Y34835181D01*
X6042857Y34835181D02*
X5947619Y34835181D01*
X5947619Y34835181D02*
X5804762Y34882800D01*
X5804762Y34882800D02*
X5709524Y34978039D01*
X5709524Y34978039D02*
X5661905Y35073277D01*
X5661905Y35073277D02*
X5614286Y35263753D01*
X5614286Y35263753D02*
X5614286Y35406610D01*
X5614286Y35406610D02*
X5661905Y35597086D01*
X5661905Y35597086D02*
X5709524Y35692324D01*
X5709524Y35692324D02*
X5804762Y35787562D01*
X5804762Y35787562D02*
X5947619Y35835181D01*
X5947619Y35835181D02*
X6042857Y35835181D01*
X6042857Y35835181D02*
X6185714Y35787562D01*
X6185714Y35787562D02*
X6233333Y35739943D01*
X6614286Y35739943D02*
X6661905Y35787562D01*
X6661905Y35787562D02*
X6757143Y35835181D01*
X6757143Y35835181D02*
X6995238Y35835181D01*
X6995238Y35835181D02*
X7090476Y35787562D01*
X7090476Y35787562D02*
X7138095Y35739943D01*
X7138095Y35739943D02*
X7185714Y35644705D01*
X7185714Y35644705D02*
X7185714Y35549467D01*
X7185714Y35549467D02*
X7138095Y35406610D01*
X7138095Y35406610D02*
X6566667Y34835181D01*
X6566667Y34835181D02*
X7185714Y34835181D01*
X916666Y12925181D02*
X916666Y12210896D01*
X916666Y12210896D02*
X869047Y12068039D01*
X869047Y12068039D02*
X773809Y11972800D01*
X773809Y11972800D02*
X630952Y11925181D01*
X630952Y11925181D02*
X535714Y11925181D01*
X1297619Y12925181D02*
X1916666Y12925181D01*
X1916666Y12925181D02*
X1583333Y12544229D01*
X1583333Y12544229D02*
X1726190Y12544229D01*
X1726190Y12544229D02*
X1821428Y12496610D01*
X1821428Y12496610D02*
X1869047Y12448991D01*
X1869047Y12448991D02*
X1916666Y12353753D01*
X1916666Y12353753D02*
X1916666Y12115658D01*
X1916666Y12115658D02*
X1869047Y12020420D01*
X1869047Y12020420D02*
X1821428Y11972800D01*
X1821428Y11972800D02*
X1726190Y11925181D01*
X1726190Y11925181D02*
X1440476Y11925181D01*
X1440476Y11925181D02*
X1345238Y11972800D01*
X1345238Y11972800D02*
X1297619Y12020420D01*
X23927142Y21060420D02*
X23879523Y21012800D01*
X23879523Y21012800D02*
X23736666Y20965181D01*
X23736666Y20965181D02*
X23641428Y20965181D01*
X23641428Y20965181D02*
X23498571Y21012800D01*
X23498571Y21012800D02*
X23403333Y21108039D01*
X23403333Y21108039D02*
X23355714Y21203277D01*
X23355714Y21203277D02*
X23308095Y21393753D01*
X23308095Y21393753D02*
X23308095Y21536610D01*
X23308095Y21536610D02*
X23355714Y21727086D01*
X23355714Y21727086D02*
X23403333Y21822324D01*
X23403333Y21822324D02*
X23498571Y21917562D01*
X23498571Y21917562D02*
X23641428Y21965181D01*
X23641428Y21965181D02*
X23736666Y21965181D01*
X23736666Y21965181D02*
X23879523Y21917562D01*
X23879523Y21917562D02*
X23927142Y21869943D01*
X24308095Y21869943D02*
X24355714Y21917562D01*
X24355714Y21917562D02*
X24450952Y21965181D01*
X24450952Y21965181D02*
X24689047Y21965181D01*
X24689047Y21965181D02*
X24784285Y21917562D01*
X24784285Y21917562D02*
X24831904Y21869943D01*
X24831904Y21869943D02*
X24879523Y21774705D01*
X24879523Y21774705D02*
X24879523Y21679467D01*
X24879523Y21679467D02*
X24831904Y21536610D01*
X24831904Y21536610D02*
X24260476Y20965181D01*
X24260476Y20965181D02*
X24879523Y20965181D01*
X25498571Y21965181D02*
X25593809Y21965181D01*
X25593809Y21965181D02*
X25689047Y21917562D01*
X25689047Y21917562D02*
X25736666Y21869943D01*
X25736666Y21869943D02*
X25784285Y21774705D01*
X25784285Y21774705D02*
X25831904Y21584229D01*
X25831904Y21584229D02*
X25831904Y21346134D01*
X25831904Y21346134D02*
X25784285Y21155658D01*
X25784285Y21155658D02*
X25736666Y21060420D01*
X25736666Y21060420D02*
X25689047Y21012800D01*
X25689047Y21012800D02*
X25593809Y20965181D01*
X25593809Y20965181D02*
X25498571Y20965181D01*
X25498571Y20965181D02*
X25403333Y21012800D01*
X25403333Y21012800D02*
X25355714Y21060420D01*
X25355714Y21060420D02*
X25308095Y21155658D01*
X25308095Y21155658D02*
X25260476Y21346134D01*
X25260476Y21346134D02*
X25260476Y21584229D01*
X25260476Y21584229D02*
X25308095Y21774705D01*
X25308095Y21774705D02*
X25355714Y21869943D01*
X25355714Y21869943D02*
X25403333Y21917562D01*
X25403333Y21917562D02*
X25498571Y21965181D01*
X24157142Y15610420D02*
X24109523Y15562800D01*
X24109523Y15562800D02*
X23966666Y15515181D01*
X23966666Y15515181D02*
X23871428Y15515181D01*
X23871428Y15515181D02*
X23728571Y15562800D01*
X23728571Y15562800D02*
X23633333Y15658039D01*
X23633333Y15658039D02*
X23585714Y15753277D01*
X23585714Y15753277D02*
X23538095Y15943753D01*
X23538095Y15943753D02*
X23538095Y16086610D01*
X23538095Y16086610D02*
X23585714Y16277086D01*
X23585714Y16277086D02*
X23633333Y16372324D01*
X23633333Y16372324D02*
X23728571Y16467562D01*
X23728571Y16467562D02*
X23871428Y16515181D01*
X23871428Y16515181D02*
X23966666Y16515181D01*
X23966666Y16515181D02*
X24109523Y16467562D01*
X24109523Y16467562D02*
X24157142Y16419943D01*
X24538095Y16419943D02*
X24585714Y16467562D01*
X24585714Y16467562D02*
X24680952Y16515181D01*
X24680952Y16515181D02*
X24919047Y16515181D01*
X24919047Y16515181D02*
X25014285Y16467562D01*
X25014285Y16467562D02*
X25061904Y16419943D01*
X25061904Y16419943D02*
X25109523Y16324705D01*
X25109523Y16324705D02*
X25109523Y16229467D01*
X25109523Y16229467D02*
X25061904Y16086610D01*
X25061904Y16086610D02*
X24490476Y15515181D01*
X24490476Y15515181D02*
X25109523Y15515181D01*
X25490476Y16419943D02*
X25538095Y16467562D01*
X25538095Y16467562D02*
X25633333Y16515181D01*
X25633333Y16515181D02*
X25871428Y16515181D01*
X25871428Y16515181D02*
X25966666Y16467562D01*
X25966666Y16467562D02*
X26014285Y16419943D01*
X26014285Y16419943D02*
X26061904Y16324705D01*
X26061904Y16324705D02*
X26061904Y16229467D01*
X26061904Y16229467D02*
X26014285Y16086610D01*
X26014285Y16086610D02*
X25442857Y15515181D01*
X25442857Y15515181D02*
X26061904Y15515181D01*
X18543333Y36010420D02*
X18495714Y35962800D01*
X18495714Y35962800D02*
X18352857Y35915181D01*
X18352857Y35915181D02*
X18257619Y35915181D01*
X18257619Y35915181D02*
X18114762Y35962800D01*
X18114762Y35962800D02*
X18019524Y36058039D01*
X18019524Y36058039D02*
X17971905Y36153277D01*
X17971905Y36153277D02*
X17924286Y36343753D01*
X17924286Y36343753D02*
X17924286Y36486610D01*
X17924286Y36486610D02*
X17971905Y36677086D01*
X17971905Y36677086D02*
X18019524Y36772324D01*
X18019524Y36772324D02*
X18114762Y36867562D01*
X18114762Y36867562D02*
X18257619Y36915181D01*
X18257619Y36915181D02*
X18352857Y36915181D01*
X18352857Y36915181D02*
X18495714Y36867562D01*
X18495714Y36867562D02*
X18543333Y36819943D01*
X19400476Y36581848D02*
X19400476Y35915181D01*
X19162381Y36962800D02*
X18924286Y36248515D01*
X18924286Y36248515D02*
X19543333Y36248515D01*
X8947142Y13310420D02*
X8899523Y13262800D01*
X8899523Y13262800D02*
X8756666Y13215181D01*
X8756666Y13215181D02*
X8661428Y13215181D01*
X8661428Y13215181D02*
X8518571Y13262800D01*
X8518571Y13262800D02*
X8423333Y13358039D01*
X8423333Y13358039D02*
X8375714Y13453277D01*
X8375714Y13453277D02*
X8328095Y13643753D01*
X8328095Y13643753D02*
X8328095Y13786610D01*
X8328095Y13786610D02*
X8375714Y13977086D01*
X8375714Y13977086D02*
X8423333Y14072324D01*
X8423333Y14072324D02*
X8518571Y14167562D01*
X8518571Y14167562D02*
X8661428Y14215181D01*
X8661428Y14215181D02*
X8756666Y14215181D01*
X8756666Y14215181D02*
X8899523Y14167562D01*
X8899523Y14167562D02*
X8947142Y14119943D01*
X9328095Y14119943D02*
X9375714Y14167562D01*
X9375714Y14167562D02*
X9470952Y14215181D01*
X9470952Y14215181D02*
X9709047Y14215181D01*
X9709047Y14215181D02*
X9804285Y14167562D01*
X9804285Y14167562D02*
X9851904Y14119943D01*
X9851904Y14119943D02*
X9899523Y14024705D01*
X9899523Y14024705D02*
X9899523Y13929467D01*
X9899523Y13929467D02*
X9851904Y13786610D01*
X9851904Y13786610D02*
X9280476Y13215181D01*
X9280476Y13215181D02*
X9899523Y13215181D01*
X10470952Y13786610D02*
X10375714Y13834229D01*
X10375714Y13834229D02*
X10328095Y13881848D01*
X10328095Y13881848D02*
X10280476Y13977086D01*
X10280476Y13977086D02*
X10280476Y14024705D01*
X10280476Y14024705D02*
X10328095Y14119943D01*
X10328095Y14119943D02*
X10375714Y14167562D01*
X10375714Y14167562D02*
X10470952Y14215181D01*
X10470952Y14215181D02*
X10661428Y14215181D01*
X10661428Y14215181D02*
X10756666Y14167562D01*
X10756666Y14167562D02*
X10804285Y14119943D01*
X10804285Y14119943D02*
X10851904Y14024705D01*
X10851904Y14024705D02*
X10851904Y13977086D01*
X10851904Y13977086D02*
X10804285Y13881848D01*
X10804285Y13881848D02*
X10756666Y13834229D01*
X10756666Y13834229D02*
X10661428Y13786610D01*
X10661428Y13786610D02*
X10470952Y13786610D01*
X10470952Y13786610D02*
X10375714Y13738991D01*
X10375714Y13738991D02*
X10328095Y13691372D01*
X10328095Y13691372D02*
X10280476Y13596134D01*
X10280476Y13596134D02*
X10280476Y13405658D01*
X10280476Y13405658D02*
X10328095Y13310420D01*
X10328095Y13310420D02*
X10375714Y13262800D01*
X10375714Y13262800D02*
X10470952Y13215181D01*
X10470952Y13215181D02*
X10661428Y13215181D01*
X10661428Y13215181D02*
X10756666Y13262800D01*
X10756666Y13262800D02*
X10804285Y13310420D01*
X10804285Y13310420D02*
X10851904Y13405658D01*
X10851904Y13405658D02*
X10851904Y13596134D01*
X10851904Y13596134D02*
X10804285Y13691372D01*
X10804285Y13691372D02*
X10756666Y13738991D01*
X10756666Y13738991D02*
X10661428Y13786610D01*
X9335180Y37113334D02*
X8620895Y37113334D01*
X8620895Y37113334D02*
X8478038Y37160953D01*
X8478038Y37160953D02*
X8382800Y37256191D01*
X8382800Y37256191D02*
X8335180Y37399048D01*
X8335180Y37399048D02*
X8335180Y37494286D01*
X8335180Y36113334D02*
X8335180Y36684762D01*
X8335180Y36399048D02*
X9335180Y36399048D01*
X9335180Y36399048D02*
X9192323Y36494286D01*
X9192323Y36494286D02*
X9097085Y36589524D01*
X9097085Y36589524D02*
X9049466Y36684762D01*
X11797142Y13390420D02*
X11749523Y13342800D01*
X11749523Y13342800D02*
X11606666Y13295181D01*
X11606666Y13295181D02*
X11511428Y13295181D01*
X11511428Y13295181D02*
X11368571Y13342800D01*
X11368571Y13342800D02*
X11273333Y13438039D01*
X11273333Y13438039D02*
X11225714Y13533277D01*
X11225714Y13533277D02*
X11178095Y13723753D01*
X11178095Y13723753D02*
X11178095Y13866610D01*
X11178095Y13866610D02*
X11225714Y14057086D01*
X11225714Y14057086D02*
X11273333Y14152324D01*
X11273333Y14152324D02*
X11368571Y14247562D01*
X11368571Y14247562D02*
X11511428Y14295181D01*
X11511428Y14295181D02*
X11606666Y14295181D01*
X11606666Y14295181D02*
X11749523Y14247562D01*
X11749523Y14247562D02*
X11797142Y14199943D01*
X12130476Y14295181D02*
X12749523Y14295181D01*
X12749523Y14295181D02*
X12416190Y13914229D01*
X12416190Y13914229D02*
X12559047Y13914229D01*
X12559047Y13914229D02*
X12654285Y13866610D01*
X12654285Y13866610D02*
X12701904Y13818991D01*
X12701904Y13818991D02*
X12749523Y13723753D01*
X12749523Y13723753D02*
X12749523Y13485658D01*
X12749523Y13485658D02*
X12701904Y13390420D01*
X12701904Y13390420D02*
X12654285Y13342800D01*
X12654285Y13342800D02*
X12559047Y13295181D01*
X12559047Y13295181D02*
X12273333Y13295181D01*
X12273333Y13295181D02*
X12178095Y13342800D01*
X12178095Y13342800D02*
X12130476Y13390420D01*
X13368571Y14295181D02*
X13463809Y14295181D01*
X13463809Y14295181D02*
X13559047Y14247562D01*
X13559047Y14247562D02*
X13606666Y14199943D01*
X13606666Y14199943D02*
X13654285Y14104705D01*
X13654285Y14104705D02*
X13701904Y13914229D01*
X13701904Y13914229D02*
X13701904Y13676134D01*
X13701904Y13676134D02*
X13654285Y13485658D01*
X13654285Y13485658D02*
X13606666Y13390420D01*
X13606666Y13390420D02*
X13559047Y13342800D01*
X13559047Y13342800D02*
X13463809Y13295181D01*
X13463809Y13295181D02*
X13368571Y13295181D01*
X13368571Y13295181D02*
X13273333Y13342800D01*
X13273333Y13342800D02*
X13225714Y13390420D01*
X13225714Y13390420D02*
X13178095Y13485658D01*
X13178095Y13485658D02*
X13130476Y13676134D01*
X13130476Y13676134D02*
X13130476Y13914229D01*
X13130476Y13914229D02*
X13178095Y14104705D01*
X13178095Y14104705D02*
X13225714Y14199943D01*
X13225714Y14199943D02*
X13273333Y14247562D01*
X13273333Y14247562D02*
X13368571Y14295181D01*
X19088095Y39615181D02*
X19088095Y38805658D01*
X19088095Y38805658D02*
X19135714Y38710420D01*
X19135714Y38710420D02*
X19183333Y38662800D01*
X19183333Y38662800D02*
X19278571Y38615181D01*
X19278571Y38615181D02*
X19469047Y38615181D01*
X19469047Y38615181D02*
X19564285Y38662800D01*
X19564285Y38662800D02*
X19611904Y38710420D01*
X19611904Y38710420D02*
X19659523Y38805658D01*
X19659523Y38805658D02*
X19659523Y39615181D01*
X20088095Y39519943D02*
X20135714Y39567562D01*
X20135714Y39567562D02*
X20230952Y39615181D01*
X20230952Y39615181D02*
X20469047Y39615181D01*
X20469047Y39615181D02*
X20564285Y39567562D01*
X20564285Y39567562D02*
X20611904Y39519943D01*
X20611904Y39519943D02*
X20659523Y39424705D01*
X20659523Y39424705D02*
X20659523Y39329467D01*
X20659523Y39329467D02*
X20611904Y39186610D01*
X20611904Y39186610D02*
X20040476Y38615181D01*
X20040476Y38615181D02*
X20659523Y38615181D01*
X9789580Y1512082D02*
X9837200Y1464463D01*
X9837200Y1464463D02*
X9884819Y1321606D01*
X9884819Y1321606D02*
X9884819Y1226368D01*
X9884819Y1226368D02*
X9837200Y1083511D01*
X9837200Y1083511D02*
X9741961Y988273D01*
X9741961Y988273D02*
X9646723Y940654D01*
X9646723Y940654D02*
X9456247Y893035D01*
X9456247Y893035D02*
X9313390Y893035D01*
X9313390Y893035D02*
X9122914Y940654D01*
X9122914Y940654D02*
X9027676Y988273D01*
X9027676Y988273D02*
X8932438Y1083511D01*
X8932438Y1083511D02*
X8884819Y1226368D01*
X8884819Y1226368D02*
X8884819Y1321606D01*
X8884819Y1321606D02*
X8932438Y1464463D01*
X8932438Y1464463D02*
X8980057Y1512082D01*
X9884819Y1988273D02*
X9884819Y2178749D01*
X9884819Y2178749D02*
X9837200Y2273987D01*
X9837200Y2273987D02*
X9789580Y2321606D01*
X9789580Y2321606D02*
X9646723Y2416844D01*
X9646723Y2416844D02*
X9456247Y2464463D01*
X9456247Y2464463D02*
X9075295Y2464463D01*
X9075295Y2464463D02*
X8980057Y2416844D01*
X8980057Y2416844D02*
X8932438Y2369225D01*
X8932438Y2369225D02*
X8884819Y2273987D01*
X8884819Y2273987D02*
X8884819Y2083511D01*
X8884819Y2083511D02*
X8932438Y1988273D01*
X8932438Y1988273D02*
X8980057Y1940654D01*
X8980057Y1940654D02*
X9075295Y1893035D01*
X9075295Y1893035D02*
X9313390Y1893035D01*
X9313390Y1893035D02*
X9408628Y1940654D01*
X9408628Y1940654D02*
X9456247Y1988273D01*
X9456247Y1988273D02*
X9503866Y2083511D01*
X9503866Y2083511D02*
X9503866Y2273987D01*
X9503866Y2273987D02*
X9456247Y2369225D01*
X9456247Y2369225D02*
X9408628Y2416844D01*
X9408628Y2416844D02*
X9313390Y2464463D01*
X26888095Y34185181D02*
X26888095Y33375658D01*
X26888095Y33375658D02*
X26935714Y33280420D01*
X26935714Y33280420D02*
X26983333Y33232800D01*
X26983333Y33232800D02*
X27078571Y33185181D01*
X27078571Y33185181D02*
X27269047Y33185181D01*
X27269047Y33185181D02*
X27364285Y33232800D01*
X27364285Y33232800D02*
X27411904Y33280420D01*
X27411904Y33280420D02*
X27459523Y33375658D01*
X27459523Y33375658D02*
X27459523Y34185181D01*
X28411904Y34185181D02*
X27935714Y34185181D01*
X27935714Y34185181D02*
X27888095Y33708991D01*
X27888095Y33708991D02*
X27935714Y33756610D01*
X27935714Y33756610D02*
X28030952Y33804229D01*
X28030952Y33804229D02*
X28269047Y33804229D01*
X28269047Y33804229D02*
X28364285Y33756610D01*
X28364285Y33756610D02*
X28411904Y33708991D01*
X28411904Y33708991D02*
X28459523Y33613753D01*
X28459523Y33613753D02*
X28459523Y33375658D01*
X28459523Y33375658D02*
X28411904Y33280420D01*
X28411904Y33280420D02*
X28364285Y33232800D01*
X28364285Y33232800D02*
X28269047Y33185181D01*
X28269047Y33185181D02*
X28030952Y33185181D01*
X28030952Y33185181D02*
X27935714Y33232800D01*
X27935714Y33232800D02*
X27888095Y33280420D01*
X6523333Y47565181D02*
X6190000Y48041372D01*
X5951905Y47565181D02*
X5951905Y48565181D01*
X5951905Y48565181D02*
X6332857Y48565181D01*
X6332857Y48565181D02*
X6428095Y48517562D01*
X6428095Y48517562D02*
X6475714Y48469943D01*
X6475714Y48469943D02*
X6523333Y48374705D01*
X6523333Y48374705D02*
X6523333Y48231848D01*
X6523333Y48231848D02*
X6475714Y48136610D01*
X6475714Y48136610D02*
X6428095Y48088991D01*
X6428095Y48088991D02*
X6332857Y48041372D01*
X6332857Y48041372D02*
X5951905Y48041372D01*
X6904286Y48469943D02*
X6951905Y48517562D01*
X6951905Y48517562D02*
X7047143Y48565181D01*
X7047143Y48565181D02*
X7285238Y48565181D01*
X7285238Y48565181D02*
X7380476Y48517562D01*
X7380476Y48517562D02*
X7428095Y48469943D01*
X7428095Y48469943D02*
X7475714Y48374705D01*
X7475714Y48374705D02*
X7475714Y48279467D01*
X7475714Y48279467D02*
X7428095Y48136610D01*
X7428095Y48136610D02*
X6856667Y47565181D01*
X6856667Y47565181D02*
X7475714Y47565181D01*
X11153333Y34080420D02*
X11105714Y34032800D01*
X11105714Y34032800D02*
X10962857Y33985181D01*
X10962857Y33985181D02*
X10867619Y33985181D01*
X10867619Y33985181D02*
X10724762Y34032800D01*
X10724762Y34032800D02*
X10629524Y34128039D01*
X10629524Y34128039D02*
X10581905Y34223277D01*
X10581905Y34223277D02*
X10534286Y34413753D01*
X10534286Y34413753D02*
X10534286Y34556610D01*
X10534286Y34556610D02*
X10581905Y34747086D01*
X10581905Y34747086D02*
X10629524Y34842324D01*
X10629524Y34842324D02*
X10724762Y34937562D01*
X10724762Y34937562D02*
X10867619Y34985181D01*
X10867619Y34985181D02*
X10962857Y34985181D01*
X10962857Y34985181D02*
X11105714Y34937562D01*
X11105714Y34937562D02*
X11153333Y34889943D01*
X12010476Y34985181D02*
X11820000Y34985181D01*
X11820000Y34985181D02*
X11724762Y34937562D01*
X11724762Y34937562D02*
X11677143Y34889943D01*
X11677143Y34889943D02*
X11581905Y34747086D01*
X11581905Y34747086D02*
X11534286Y34556610D01*
X11534286Y34556610D02*
X11534286Y34175658D01*
X11534286Y34175658D02*
X11581905Y34080420D01*
X11581905Y34080420D02*
X11629524Y34032800D01*
X11629524Y34032800D02*
X11724762Y33985181D01*
X11724762Y33985181D02*
X11915238Y33985181D01*
X11915238Y33985181D02*
X12010476Y34032800D01*
X12010476Y34032800D02*
X12058095Y34080420D01*
X12058095Y34080420D02*
X12105714Y34175658D01*
X12105714Y34175658D02*
X12105714Y34413753D01*
X12105714Y34413753D02*
X12058095Y34508991D01*
X12058095Y34508991D02*
X12010476Y34556610D01*
X12010476Y34556610D02*
X11915238Y34604229D01*
X11915238Y34604229D02*
X11724762Y34604229D01*
X11724762Y34604229D02*
X11629524Y34556610D01*
X11629524Y34556610D02*
X11581905Y34508991D01*
X11581905Y34508991D02*
X11534286Y34413753D01*
X4497200Y50046668D02*
X4544819Y50189525D01*
X4544819Y50189525D02*
X4544819Y50427620D01*
X4544819Y50427620D02*
X4497200Y50522858D01*
X4497200Y50522858D02*
X4449580Y50570477D01*
X4449580Y50570477D02*
X4354342Y50618096D01*
X4354342Y50618096D02*
X4259104Y50618096D01*
X4259104Y50618096D02*
X4163866Y50570477D01*
X4163866Y50570477D02*
X4116247Y50522858D01*
X4116247Y50522858D02*
X4068628Y50427620D01*
X4068628Y50427620D02*
X4021009Y50237144D01*
X4021009Y50237144D02*
X3973390Y50141906D01*
X3973390Y50141906D02*
X3925771Y50094287D01*
X3925771Y50094287D02*
X3830533Y50046668D01*
X3830533Y50046668D02*
X3735295Y50046668D01*
X3735295Y50046668D02*
X3640057Y50094287D01*
X3640057Y50094287D02*
X3592438Y50141906D01*
X3592438Y50141906D02*
X3544819Y50237144D01*
X3544819Y50237144D02*
X3544819Y50475239D01*
X3544819Y50475239D02*
X3592438Y50618096D01*
X3544819Y50951430D02*
X4544819Y51189525D01*
X4544819Y51189525D02*
X3830533Y51380001D01*
X3830533Y51380001D02*
X4544819Y51570477D01*
X4544819Y51570477D02*
X3544819Y51808572D01*
X3640057Y52141906D02*
X3592438Y52189525D01*
X3592438Y52189525D02*
X3544819Y52284763D01*
X3544819Y52284763D02*
X3544819Y52522858D01*
X3544819Y52522858D02*
X3592438Y52618096D01*
X3592438Y52618096D02*
X3640057Y52665715D01*
X3640057Y52665715D02*
X3735295Y52713334D01*
X3735295Y52713334D02*
X3830533Y52713334D01*
X3830533Y52713334D02*
X3973390Y52665715D01*
X3973390Y52665715D02*
X4544819Y52094287D01*
X4544819Y52094287D02*
X4544819Y52713334D01*
X4809580Y53957143D02*
X4857200Y53909524D01*
X4857200Y53909524D02*
X4904819Y53766667D01*
X4904819Y53766667D02*
X4904819Y53671429D01*
X4904819Y53671429D02*
X4857200Y53528572D01*
X4857200Y53528572D02*
X4761961Y53433334D01*
X4761961Y53433334D02*
X4666723Y53385715D01*
X4666723Y53385715D02*
X4476247Y53338096D01*
X4476247Y53338096D02*
X4333390Y53338096D01*
X4333390Y53338096D02*
X4142914Y53385715D01*
X4142914Y53385715D02*
X4047676Y53433334D01*
X4047676Y53433334D02*
X3952438Y53528572D01*
X3952438Y53528572D02*
X3904819Y53671429D01*
X3904819Y53671429D02*
X3904819Y53766667D01*
X3904819Y53766667D02*
X3952438Y53909524D01*
X3952438Y53909524D02*
X4000057Y53957143D01*
X4000057Y54338096D02*
X3952438Y54385715D01*
X3952438Y54385715D02*
X3904819Y54480953D01*
X3904819Y54480953D02*
X3904819Y54719048D01*
X3904819Y54719048D02*
X3952438Y54814286D01*
X3952438Y54814286D02*
X4000057Y54861905D01*
X4000057Y54861905D02*
X4095295Y54909524D01*
X4095295Y54909524D02*
X4190533Y54909524D01*
X4190533Y54909524D02*
X4333390Y54861905D01*
X4333390Y54861905D02*
X4904819Y54290477D01*
X4904819Y54290477D02*
X4904819Y54909524D01*
X3904819Y55814286D02*
X3904819Y55338096D01*
X3904819Y55338096D02*
X4381009Y55290477D01*
X4381009Y55290477D02*
X4333390Y55338096D01*
X4333390Y55338096D02*
X4285771Y55433334D01*
X4285771Y55433334D02*
X4285771Y55671429D01*
X4285771Y55671429D02*
X4333390Y55766667D01*
X4333390Y55766667D02*
X4381009Y55814286D01*
X4381009Y55814286D02*
X4476247Y55861905D01*
X4476247Y55861905D02*
X4714342Y55861905D01*
X4714342Y55861905D02*
X4809580Y55814286D01*
X4809580Y55814286D02*
X4857200Y55766667D01*
X4857200Y55766667D02*
X4904819Y55671429D01*
X4904819Y55671429D02*
X4904819Y55433334D01*
X4904819Y55433334D02*
X4857200Y55338096D01*
X4857200Y55338096D02*
X4809580Y55290477D01*
D11*
%TO.C,L2*%
X7670378Y12670000D02*
X8469622Y12670000D01*
X7670378Y11550000D02*
X8469622Y11550000D01*
%TO.C,R4*%
X18105000Y5775436D02*
X18105000Y6229564D01*
X19575000Y5775436D02*
X19575000Y6229564D01*
%TO.C,C24*%
X7325000Y57638748D02*
X7325000Y58161252D01*
X8795000Y57638748D02*
X8795000Y58161252D01*
%TO.C,C29*%
X6571252Y17045000D02*
X6048748Y17045000D01*
X6571252Y15575000D02*
X6048748Y15575000D01*
%TO.C,C17*%
X24115000Y31501252D02*
X24115000Y30978748D01*
X25585000Y31501252D02*
X25585000Y30978748D01*
%TO.C,R29*%
X5305000Y54192936D02*
X5305000Y54647064D01*
X6775000Y54192936D02*
X6775000Y54647064D01*
%TO.C,J2*%
X21250000Y8440000D02*
X22270000Y8440000D01*
X21250000Y4190000D02*
X21250000Y8440000D01*
X22270000Y8440000D02*
X22270000Y6840000D01*
X22270000Y6840000D02*
X23550000Y6840000D01*
X22970000Y620000D02*
X27650000Y620000D01*
X23550000Y6840000D02*
X23550000Y9730000D01*
X28350000Y8440000D02*
X28350000Y6840000D01*
X28350000Y6840000D02*
X27070000Y6840000D01*
X29370000Y8440000D02*
X28350000Y8440000D01*
X29370000Y4190000D02*
X29370000Y8440000D01*
%TO.C,U9*%
X10250000Y66230000D02*
X10250000Y60030000D01*
X10250000Y66230000D02*
X28650000Y66230000D01*
X10250000Y41380000D02*
X10250000Y40380000D01*
X10250000Y40380000D02*
X11750000Y40380000D01*
X28650000Y66230000D02*
X28650000Y60030000D01*
X28650000Y40380000D02*
X27150000Y40380000D01*
X28650000Y40380000D02*
X28650000Y41380000D01*
X10250000Y59355000D02*
X9750000Y59355000D01*
X10250000Y59855000D01*
X10250000Y59355000D01*
G36*
X10250000Y59355000D02*
G01*
X9750000Y59355000D01*
X10250000Y59855000D01*
X10250000Y59355000D01*
G37*
D12*
%TO.C,U1*%
X17044300Y33305900D02*
X19355700Y33305900D01*
X19355700Y35414100D02*
X17044300Y35414100D01*
D11*
%TO.C,C31*%
X3221252Y29155000D02*
X2698748Y29155000D01*
X3221252Y27685000D02*
X2698748Y27685000D01*
%TO.C,J4*%
X780000Y31505000D02*
X780000Y35250000D01*
X1273292Y31505000D02*
X780000Y31505000D01*
X1622077Y35250000D02*
X780000Y35250000D01*
X3100000Y35250000D02*
X2257923Y35250000D01*
X3100000Y31505000D02*
X2606708Y31505000D01*
X3100000Y31505000D02*
X3100000Y35250000D01*
X3100000Y30695000D02*
X3100000Y29885000D01*
X3100000Y29885000D02*
X1940000Y29885000D01*
%TO.C,C27*%
X2508748Y17065000D02*
X3031252Y17065000D01*
X2508748Y15595000D02*
X3031252Y15595000D01*
%TO.C,C26*%
X1285000Y22288748D02*
X1285000Y22811252D01*
X2755000Y22288748D02*
X2755000Y22811252D01*
%TO.C,C23*%
X27438748Y18835000D02*
X27961252Y18835000D01*
X27438748Y17365000D02*
X27961252Y17365000D01*
%TO.C,R3*%
X18145000Y2072936D02*
X18145000Y2527064D01*
X19615000Y2072936D02*
X19615000Y2527064D01*
%TO.C,JP1*%
X20800000Y27810000D02*
X20800000Y28410000D01*
X21500000Y29110000D02*
X22900000Y29110000D01*
X22900000Y27110000D02*
X21500000Y27110000D01*
X23600000Y28410000D02*
X23600000Y27810000D01*
X20800000Y28410000D02*
G75*
G02*
X21500000Y29110000I699999J1D01*
G01*
X21500000Y27110000D02*
G75*
G02*
X20800000Y27810000I-1J699999D01*
G01*
X22900000Y29110000D02*
G75*
G02*
X23600000Y28410000I0J-700000D01*
G01*
X23600000Y27810000D02*
G75*
G02*
X22900000Y27110000I-700000J0D01*
G01*
%TO.C,R6*%
X7212936Y50465000D02*
X7667064Y50465000D01*
X7212936Y48995000D02*
X7667064Y48995000D01*
%TO.C,C3*%
X14141252Y39515000D02*
X13618748Y39515000D01*
X14141252Y38045000D02*
X13618748Y38045000D01*
%TO.C,C19*%
X27418748Y24215000D02*
X27941252Y24215000D01*
X27418748Y22745000D02*
X27941252Y22745000D01*
%TO.C,R1*%
X2167064Y48345000D02*
X1712936Y48345000D01*
X2167064Y46875000D02*
X1712936Y46875000D01*
%TO.C,C10*%
X16388748Y9735000D02*
X16911252Y9735000D01*
X16388748Y8265000D02*
X16911252Y8265000D01*
%TO.C,U3*%
X12430000Y7387500D02*
X12905000Y7387500D01*
X12430000Y6912500D02*
X12430000Y7387500D01*
X12430000Y3642500D02*
X12430000Y3467500D01*
X12905000Y3167500D02*
X12670000Y3167500D01*
X16650000Y7387500D02*
X16175000Y7387500D01*
X16650000Y6912500D02*
X16650000Y7387500D01*
X16650000Y3642500D02*
X16650000Y3167500D01*
X16650000Y3167500D02*
X16175000Y3167500D01*
X12430000Y3167500D02*
X12100000Y2927500D01*
X12100000Y3407500D01*
X12430000Y3167500D01*
G36*
X12430000Y3167500D02*
G01*
X12100000Y2927500D01*
X12100000Y3407500D01*
X12430000Y3167500D01*
G37*
%TO.C,R5*%
X7192936Y52435000D02*
X7647064Y52435000D01*
X7192936Y50965000D02*
X7647064Y50965000D01*
%TO.C,C13*%
X7838748Y4525000D02*
X8361252Y4525000D01*
X7838748Y3055000D02*
X8361252Y3055000D01*
%TO.C,C7*%
X14151252Y33165000D02*
X13628748Y33165000D01*
X14151252Y31695000D02*
X13628748Y31695000D01*
%TO.C,C15*%
X1748748Y2845000D02*
X2271252Y2845000D01*
X1748748Y1375000D02*
X2271252Y1375000D01*
%TO.C,C21*%
X27448748Y14785000D02*
X27971252Y14785000D01*
X27448748Y13315000D02*
X27971252Y13315000D01*
%TO.C,C8*%
X14838748Y2205000D02*
X15361252Y2205000D01*
X14838748Y735000D02*
X15361252Y735000D01*
%TO.C,C1*%
X7525000Y30918748D02*
X7525000Y31441252D01*
X8995000Y30918748D02*
X8995000Y31441252D01*
D13*
%TO.C,U6*%
X13300000Y26220000D02*
X14010000Y26220000D01*
X14010000Y16120000D02*
X13300000Y16120000D01*
X19850000Y26220000D02*
X20560000Y26220000D01*
X19850000Y16120000D02*
X20560000Y16120000D01*
D14*
X23730000Y16370000D02*
G75*
G02*
X23530000Y16370000I-100000J0D01*
G01*
X23530000Y16370000D02*
G75*
G02*
X23730000Y16370000I100000J0D01*
G01*
D11*
%TO.C,C5*%
X18438748Y31365000D02*
X18961252Y31365000D01*
X18438748Y29895000D02*
X18961252Y29895000D01*
%TO.C,TP1*%
X7000000Y27370000D02*
G75*
G02*
X5600000Y27370000I-700000J0D01*
G01*
X5600000Y27370000D02*
G75*
G02*
X7000000Y27370000I700000J0D01*
G01*
%TO.C,C33*%
X17068748Y12505000D02*
X17591252Y12505000D01*
X17068748Y11035000D02*
X17591252Y11035000D01*
%TO.C,C14*%
X4645000Y5618748D02*
X4645000Y6141252D01*
X6115000Y5618748D02*
X6115000Y6141252D01*
%TO.C,C16*%
X27921252Y28525000D02*
X27398748Y28525000D01*
X27921252Y27055000D02*
X27398748Y27055000D01*
%TO.C,U7*%
X5970000Y20627500D02*
X5170000Y20627500D01*
X5970000Y20627500D02*
X6770000Y20627500D01*
X5970000Y17507500D02*
X5170000Y17507500D01*
X5970000Y17507500D02*
X6770000Y17507500D01*
X7510000Y17227500D02*
X7030000Y17227500D01*
X7270000Y17557500D01*
X7510000Y17227500D01*
G36*
X7510000Y17227500D02*
G01*
X7030000Y17227500D01*
X7270000Y17557500D01*
X7510000Y17227500D01*
G37*
%TO.C,C18*%
X27418748Y26245000D02*
X27941252Y26245000D01*
X27418748Y24775000D02*
X27941252Y24775000D01*
%TO.C,C34*%
X21858748Y33915000D02*
X22381252Y33915000D01*
X21858748Y32445000D02*
X22381252Y32445000D01*
D13*
%TO.C,MT1*%
X3862500Y32260000D02*
X4417500Y32260000D01*
X3862500Y32205000D02*
X3862500Y32260000D01*
X3862500Y29760000D02*
X3862500Y29815000D01*
X4417500Y29760000D02*
X3862500Y29760000D01*
X6307500Y32260000D02*
X6862500Y32260000D01*
X6862500Y32260000D02*
X6862500Y32205000D01*
X6862500Y29760000D02*
X6307500Y29760000D01*
X6862500Y29760000D02*
X6862500Y29815000D01*
D14*
X3462500Y31760000D02*
G75*
G02*
X3262500Y31760000I-100000J0D01*
G01*
X3262500Y31760000D02*
G75*
G02*
X3462500Y31760000I100000J0D01*
G01*
D11*
%TO.C,U8*%
X22480000Y39630000D02*
X28700000Y39630000D01*
X22480000Y39385000D02*
X22480000Y39630000D01*
X22480000Y34410000D02*
X22480000Y34655000D01*
X28700000Y39630000D02*
X28700000Y39385000D01*
X28700000Y34655000D02*
X28700000Y34410000D01*
X28700000Y34410000D02*
X22480000Y34410000D01*
X29560000Y34870000D02*
X29230000Y35110000D01*
X29560000Y35350000D01*
X29560000Y34870000D01*
G36*
X29560000Y34870000D02*
G01*
X29230000Y35110000D01*
X29560000Y35350000D01*
X29560000Y34870000D01*
G37*
%TO.C,L1*%
X9829622Y6840000D02*
X9030378Y6840000D01*
X9829622Y5720000D02*
X9030378Y5720000D01*
%TO.C,C37*%
X7365000Y54651252D02*
X7365000Y54128748D01*
X8835000Y54651252D02*
X8835000Y54128748D01*
%TO.C,U4*%
X2330000Y6547500D02*
X1530000Y6547500D01*
X2330000Y6547500D02*
X3130000Y6547500D01*
X2330000Y3427500D02*
X1530000Y3427500D01*
X2330000Y3427500D02*
X3130000Y3427500D01*
X3870000Y3147500D02*
X3390000Y3147500D01*
X3630000Y3477500D01*
X3870000Y3147500D01*
G36*
X3870000Y3147500D02*
G01*
X3390000Y3147500D01*
X3630000Y3477500D01*
X3870000Y3147500D01*
G37*
%TO.C,SW1*%
X3265000Y59520000D02*
X3265000Y58720000D01*
X3305000Y58720000D02*
X3265000Y58720000D01*
X3305000Y58720000D02*
X3305000Y55220000D01*
%TO.C,C12*%
X12591252Y9845000D02*
X12068748Y9845000D01*
X12591252Y8375000D02*
X12068748Y8375000D01*
%TO.C,R7*%
X1285000Y18832936D02*
X1285000Y19287064D01*
X2755000Y18832936D02*
X2755000Y19287064D01*
%TO.C,JP2*%
X12210000Y11430000D02*
X12210000Y12030000D01*
X12910000Y12730000D02*
X14310000Y12730000D01*
X14310000Y10730000D02*
X12910000Y10730000D01*
X15010000Y12030000D02*
X15010000Y11430000D01*
X12210000Y12030000D02*
G75*
G02*
X12910000Y12730000I700000J0D01*
G01*
X12910000Y10730000D02*
G75*
G02*
X12210000Y11430000I0J700000D01*
G01*
X14310000Y12730000D02*
G75*
G02*
X15010000Y12030000I1J-699999D01*
G01*
X15010000Y11430000D02*
G75*
G02*
X14310000Y10730000I-699999J-1D01*
G01*
%TO.C,C32*%
X14151252Y37475000D02*
X13628748Y37475000D01*
X14151252Y36005000D02*
X13628748Y36005000D01*
%TO.C,C11*%
X7371252Y2175000D02*
X6848748Y2175000D01*
X7371252Y705000D02*
X6848748Y705000D01*
%TO.C,C2*%
X5631252Y34395000D02*
X5108748Y34395000D01*
X5631252Y32925000D02*
X5108748Y32925000D01*
%TO.C,J3*%
X2190000Y12140000D02*
X2990000Y12140000D01*
X2190000Y11940000D02*
X2190000Y12140000D01*
X2390000Y9140000D02*
X2190000Y9340000D01*
X2990000Y9140000D02*
X2390000Y9140000D01*
X2990000Y9140000D02*
X2990000Y8640000D01*
X4390000Y12140000D02*
X5190000Y12140000D01*
X4390000Y9140000D02*
X4390000Y8640000D01*
X5190000Y12140000D02*
X5190000Y11940000D01*
X5190000Y9340000D02*
X5190000Y9140000D01*
X5190000Y9140000D02*
X4390000Y9140000D01*
%TO.C,TP2*%
X29050000Y11020000D02*
G75*
G02*
X27650000Y11020000I-700000J0D01*
G01*
X27650000Y11020000D02*
G75*
G02*
X29050000Y11020000I700000J0D01*
G01*
%TO.C,C20*%
X27418748Y22175000D02*
X27941252Y22175000D01*
X27418748Y20705000D02*
X27941252Y20705000D01*
%TO.C,C22*%
X27448748Y16775000D02*
X27971252Y16775000D01*
X27448748Y15305000D02*
X27971252Y15305000D01*
%TO.C,C4*%
X20005000Y35828748D02*
X20005000Y36351252D01*
X21475000Y35828748D02*
X21475000Y36351252D01*
%TO.C,C28*%
X3001252Y14975000D02*
X2478748Y14975000D01*
X3001252Y13505000D02*
X2478748Y13505000D01*
%TO.C,J1*%
X3790000Y45800000D02*
X5490000Y45800000D01*
X3790000Y36460000D02*
X5490000Y36460000D01*
%TO.C,C30*%
X6571252Y14965000D02*
X6048748Y14965000D01*
X6571252Y13495000D02*
X6048748Y13495000D01*
%TO.C,U2*%
X16510000Y39280000D02*
X16510000Y38800000D01*
X18830000Y39270000D02*
X18830000Y38790000D01*
X18830000Y38060000D02*
X18830000Y37580000D01*
X16500000Y37190000D02*
X16220000Y37470000D01*
X16500000Y37470000D01*
X16500000Y37190000D01*
G36*
X16500000Y37190000D02*
G01*
X16220000Y37470000D01*
X16500000Y37470000D01*
X16500000Y37190000D01*
G37*
%TO.C,C9*%
X10345000Y2201252D02*
X10345000Y1678748D01*
X11815000Y2201252D02*
X11815000Y1678748D01*
%TO.C,U5*%
X26047500Y31110000D02*
X26047500Y31910000D01*
X26047500Y31110000D02*
X26047500Y30310000D01*
X29167500Y31110000D02*
X29167500Y31910000D01*
X29167500Y31110000D02*
X29167500Y30310000D01*
X26097500Y29810000D02*
X25767500Y29570000D01*
X25767500Y30050000D01*
X26097500Y29810000D01*
G36*
X26097500Y29810000D02*
G01*
X25767500Y29570000D01*
X25767500Y30050000D01*
X26097500Y29810000D01*
G37*
%TO.C,R2*%
X3965000Y48022936D02*
X3965000Y48477064D01*
X5435000Y48022936D02*
X5435000Y48477064D01*
%TO.C,C6*%
X14151252Y35245000D02*
X13628748Y35245000D01*
X14151252Y33775000D02*
X13628748Y33775000D01*
%TO.C,SW2*%
X3255000Y53950000D02*
X3255000Y53150000D01*
X3295000Y53150000D02*
X3255000Y53150000D01*
X3295000Y53150000D02*
X3295000Y49650000D01*
%TO.C,C25*%
X5205000Y57658748D02*
X5205000Y58181252D01*
X6675000Y57658748D02*
X6675000Y58181252D01*
%TD*%
%LPC*%
%TO.C,JP1*%
G36*
X22050000Y28860000D02*
G01*
X22350000Y28860000D01*
X22350000Y27360000D01*
X22050000Y27360000D01*
X22050000Y28860000D01*
G37*
D15*
%TO.C,MT1*%
X4487500Y31585000D02*
X3912500Y31585000D01*
X3912500Y31935000D01*
X4487500Y31935000D01*
X4487500Y31585000D01*
G36*
X4487500Y31585000D02*
G01*
X3912500Y31585000D01*
X3912500Y31935000D01*
X4487500Y31935000D01*
X4487500Y31585000D01*
G37*
X4487500Y31085000D02*
X3912500Y31085000D01*
X3912500Y31435000D01*
X4487500Y31435000D01*
X4487500Y31085000D01*
G36*
X4487500Y31085000D02*
G01*
X3912500Y31085000D01*
X3912500Y31435000D01*
X4487500Y31435000D01*
X4487500Y31085000D01*
G37*
X4487500Y30585000D02*
X3912500Y30585000D01*
X3912500Y30935000D01*
X4487500Y30935000D01*
X4487500Y30585000D01*
G36*
X4487500Y30585000D02*
G01*
X3912500Y30585000D01*
X3912500Y30935000D01*
X4487500Y30935000D01*
X4487500Y30585000D01*
G37*
X4487500Y30085000D02*
X3912500Y30085000D01*
X3912500Y30435000D01*
X4487500Y30435000D01*
X4487500Y30085000D01*
G36*
X4487500Y30085000D02*
G01*
X3912500Y30085000D01*
X3912500Y30435000D01*
X4487500Y30435000D01*
X4487500Y30085000D01*
G37*
X5037500Y31635000D02*
X4687500Y31635000D01*
X4687500Y32210000D01*
X5037500Y32210000D01*
X5037500Y31635000D01*
G36*
X5037500Y31635000D02*
G01*
X4687500Y31635000D01*
X4687500Y32210000D01*
X5037500Y32210000D01*
X5037500Y31635000D01*
G37*
X5037500Y29810000D02*
X4687500Y29810000D01*
X4687500Y30385000D01*
X5037500Y30385000D01*
X5037500Y29810000D01*
G36*
X5037500Y29810000D02*
G01*
X4687500Y29810000D01*
X4687500Y30385000D01*
X5037500Y30385000D01*
X5037500Y29810000D01*
G37*
X5537500Y31635000D02*
X5187500Y31635000D01*
X5187500Y32210000D01*
X5537500Y32210000D01*
X5537500Y31635000D01*
G36*
X5537500Y31635000D02*
G01*
X5187500Y31635000D01*
X5187500Y32210000D01*
X5537500Y32210000D01*
X5537500Y31635000D01*
G37*
X5537500Y29810000D02*
X5187500Y29810000D01*
X5187500Y30385000D01*
X5537500Y30385000D01*
X5537500Y29810000D01*
G36*
X5537500Y29810000D02*
G01*
X5187500Y29810000D01*
X5187500Y30385000D01*
X5537500Y30385000D01*
X5537500Y29810000D01*
G37*
X6037500Y31635000D02*
X5687500Y31635000D01*
X5687500Y32210000D01*
X6037500Y32210000D01*
X6037500Y31635000D01*
G36*
X6037500Y31635000D02*
G01*
X5687500Y31635000D01*
X5687500Y32210000D01*
X6037500Y32210000D01*
X6037500Y31635000D01*
G37*
X6037500Y29810000D02*
X5687500Y29810000D01*
X5687500Y30385000D01*
X6037500Y30385000D01*
X6037500Y29810000D01*
G36*
X6037500Y29810000D02*
G01*
X5687500Y29810000D01*
X5687500Y30385000D01*
X6037500Y30385000D01*
X6037500Y29810000D01*
G37*
X6812500Y31585000D02*
X6237500Y31585000D01*
X6237500Y31935000D01*
X6812500Y31935000D01*
X6812500Y31585000D01*
G36*
X6812500Y31585000D02*
G01*
X6237500Y31585000D01*
X6237500Y31935000D01*
X6812500Y31935000D01*
X6812500Y31585000D01*
G37*
X6812500Y31085000D02*
X6237500Y31085000D01*
X6237500Y31435000D01*
X6812500Y31435000D01*
X6812500Y31085000D01*
G36*
X6812500Y31085000D02*
G01*
X6237500Y31085000D01*
X6237500Y31435000D01*
X6812500Y31435000D01*
X6812500Y31085000D01*
G37*
X6812500Y30585000D02*
X6237500Y30585000D01*
X6237500Y30935000D01*
X6812500Y30935000D01*
X6812500Y30585000D01*
G36*
X6812500Y30585000D02*
G01*
X6237500Y30585000D01*
X6237500Y30935000D01*
X6812500Y30935000D01*
X6812500Y30585000D01*
G37*
X6812500Y30085000D02*
X6237500Y30085000D01*
X6237500Y30435000D01*
X6812500Y30435000D01*
X6812500Y30085000D01*
G36*
X6812500Y30085000D02*
G01*
X6237500Y30085000D01*
X6237500Y30435000D01*
X6812500Y30435000D01*
X6812500Y30085000D01*
G37*
%TO.C,JP2*%
G36*
X13760000Y10980000D02*
G01*
X13460000Y10980000D01*
X13460000Y12480000D01*
X13760000Y12480000D01*
X13760000Y10980000D01*
G37*
%TD*%
D16*
%TO.C,L2*%
X7007500Y12110000D03*
X9132500Y12110000D03*
%TD*%
D17*
%TO.C,R4*%
X18840000Y5090000D03*
X18840000Y6915000D03*
%TD*%
D18*
%TO.C,C24*%
X8060000Y56950000D03*
X8060000Y58850000D03*
%TD*%
D19*
%TO.C,C29*%
X7260000Y16310000D03*
X5360000Y16310000D03*
%TD*%
D20*
%TO.C,C17*%
X24850000Y32190000D03*
X24850000Y30290000D03*
%TD*%
D17*
%TO.C,R29*%
X6040000Y53507500D03*
X6040000Y55332500D03*
%TD*%
D21*
%TO.C,J2*%
X24310000Y7980000D03*
X26310000Y7980000D03*
D22*
X21960000Y2230000D03*
X28660000Y2230000D03*
%TD*%
D23*
%TO.C,U9*%
X10700000Y58590000D03*
X10700000Y57320000D03*
X10700000Y56050000D03*
X10700000Y54780000D03*
X10700000Y53510000D03*
X10700000Y52240000D03*
X10700000Y50970000D03*
X10700000Y49700000D03*
X10700000Y48430000D03*
X10700000Y47160000D03*
X10700000Y45890000D03*
X10700000Y44620000D03*
X10700000Y43350000D03*
X10700000Y42080000D03*
D24*
X12465000Y40830000D03*
X13735000Y40830000D03*
X15005000Y40830000D03*
X16275000Y40830000D03*
X17545000Y40830000D03*
X18815000Y40830000D03*
X20085000Y40830000D03*
X21355000Y40830000D03*
X22625000Y40830000D03*
X23895000Y40830000D03*
X25165000Y40830000D03*
X26435000Y40830000D03*
D23*
X28200000Y42080000D03*
X28200000Y43350000D03*
X28200000Y44620000D03*
X28200000Y45890000D03*
X28200000Y47160000D03*
X28200000Y48430000D03*
X28200000Y49700000D03*
X28200000Y50970000D03*
X28200000Y52240000D03*
X28200000Y53510000D03*
X28200000Y54780000D03*
X28200000Y56050000D03*
X28200000Y57320000D03*
X28200000Y58590000D03*
D25*
X16550000Y51570000D03*
X16550000Y50170000D03*
X17250000Y52270000D03*
X17250000Y50870000D03*
X17250000Y49470000D03*
X17950000Y51570000D03*
D26*
X17950000Y50870000D03*
D25*
X17950000Y50170000D03*
X18650000Y52270000D03*
X18650000Y50870000D03*
X18650000Y49470000D03*
X19350000Y51570000D03*
X19350000Y50170000D03*
%TD*%
D27*
%TO.C,U1*%
X17400000Y34960000D03*
X17800000Y34960000D03*
X18200000Y34960000D03*
X18600000Y34960000D03*
X19000000Y34960000D03*
X17400000Y34560000D03*
X17800000Y34560000D03*
X18200000Y34560000D03*
X18600000Y34560000D03*
X19000000Y34560000D03*
X17400000Y34160000D03*
X17800000Y34160000D03*
X18200000Y34160000D03*
X18600000Y34160000D03*
X19000000Y34160000D03*
X17400000Y33760000D03*
X17800000Y33760000D03*
X18200000Y33760000D03*
X18600000Y33760000D03*
X19000000Y33760000D03*
%TD*%
D19*
%TO.C,C31*%
X3910000Y28420000D03*
X2010000Y28420000D03*
%TD*%
D28*
%TO.C,J4*%
X1940000Y30695000D03*
D29*
X1940000Y31965000D03*
X1940000Y33235000D03*
X1940000Y34505000D03*
%TD*%
D30*
%TO.C,C27*%
X1820000Y16330000D03*
X3720000Y16330000D03*
%TD*%
D18*
%TO.C,C26*%
X2020000Y21600000D03*
X2020000Y23500000D03*
%TD*%
D30*
%TO.C,C23*%
X26750000Y18100000D03*
X28650000Y18100000D03*
%TD*%
D17*
%TO.C,R3*%
X18880000Y1387500D03*
X18880000Y3212500D03*
%TD*%
D31*
%TO.C,JP1*%
X21550000Y28110000D03*
D32*
X22850000Y28110000D03*
%TD*%
D33*
%TO.C,R6*%
X6527500Y49730000D03*
X8352500Y49730000D03*
%TD*%
D19*
%TO.C,C3*%
X14830000Y38780000D03*
X12930000Y38780000D03*
%TD*%
D30*
%TO.C,C19*%
X26730000Y23480000D03*
X28630000Y23480000D03*
%TD*%
D34*
%TO.C,R1*%
X2852500Y47610000D03*
X1027500Y47610000D03*
%TD*%
D30*
%TO.C,C10*%
X15700000Y9000000D03*
X17600000Y9000000D03*
%TD*%
D35*
%TO.C,U3*%
X13290000Y3315000D03*
X13790000Y3315000D03*
X14290000Y3315000D03*
X14790000Y3315000D03*
X15290000Y3315000D03*
X15790000Y3315000D03*
D36*
X16502500Y4027500D03*
X16502500Y4527500D03*
X16502500Y5027500D03*
X16502500Y5527500D03*
X16502500Y6027500D03*
X16502500Y6527500D03*
D35*
X15790000Y7240000D03*
X15290000Y7240000D03*
X14790000Y7240000D03*
X14290000Y7240000D03*
X13790000Y7240000D03*
X13290000Y7240000D03*
D36*
X12577500Y6527500D03*
X12577500Y6027500D03*
X12577500Y5527500D03*
X12577500Y5027500D03*
X12577500Y4527500D03*
X12577500Y4027500D03*
D37*
X14540000Y5277500D03*
%TD*%
D33*
%TO.C,R5*%
X6507500Y51700000D03*
X8332500Y51700000D03*
%TD*%
D30*
%TO.C,C13*%
X7150000Y3790000D03*
X9050000Y3790000D03*
%TD*%
D19*
%TO.C,C7*%
X14840000Y32430000D03*
X12940000Y32430000D03*
%TD*%
D30*
%TO.C,C15*%
X1060000Y2110000D03*
X2960000Y2110000D03*
%TD*%
%TO.C,C21*%
X26760000Y14050000D03*
X28660000Y14050000D03*
%TD*%
%TO.C,C8*%
X14150000Y1470000D03*
X16050000Y1470000D03*
%TD*%
D18*
%TO.C,C1*%
X8260000Y30230000D03*
X8260000Y32130000D03*
%TD*%
D38*
%TO.C,U6*%
X21780000Y16770000D03*
X21780000Y17870000D03*
X21780000Y18970000D03*
X21780000Y20070000D03*
X21780000Y21170000D03*
X21780000Y22270000D03*
X21780000Y23370000D03*
X21780000Y24470000D03*
X21780000Y25570000D03*
X12080000Y25570000D03*
X12080000Y24470000D03*
X12080000Y23370000D03*
X12080000Y22270000D03*
X12080000Y21170000D03*
X12080000Y20070000D03*
X12080000Y18970000D03*
X12080000Y17870000D03*
X12080000Y16770000D03*
D39*
X14730000Y16770000D03*
X15830000Y16770000D03*
X16930000Y16770000D03*
X18030000Y16770000D03*
X19130000Y16770000D03*
X19130000Y25570000D03*
X18030000Y25570000D03*
X16930000Y25570000D03*
X15830000Y25570000D03*
X14730000Y25570000D03*
%TD*%
D30*
%TO.C,C5*%
X17750000Y30630000D03*
X19650000Y30630000D03*
%TD*%
D29*
%TO.C,TP1*%
X6300000Y27370000D03*
%TD*%
D30*
%TO.C,C33*%
X16380000Y11770000D03*
X18280000Y11770000D03*
%TD*%
D18*
%TO.C,C14*%
X5380000Y4930000D03*
X5380000Y6830000D03*
%TD*%
D19*
%TO.C,C16*%
X28610000Y27790000D03*
X26710000Y27790000D03*
%TD*%
D40*
%TO.C,U7*%
X7107500Y18117500D03*
X7107500Y19067500D03*
X7107500Y20017500D03*
X4832500Y20017500D03*
X4832500Y18117500D03*
%TD*%
D30*
%TO.C,C18*%
X26730000Y25510000D03*
X28630000Y25510000D03*
%TD*%
%TO.C,C34*%
X21170000Y33180000D03*
X23070000Y33180000D03*
%TD*%
D41*
%TO.C,U8*%
X28440000Y35115000D03*
X28440000Y36385000D03*
X28440000Y37655000D03*
X28440000Y38925000D03*
X22740000Y38925000D03*
X22740000Y37655000D03*
X22740000Y36385000D03*
X22740000Y35115000D03*
D42*
X25590000Y37020000D03*
%TD*%
D43*
%TO.C,L1*%
X10492500Y6280000D03*
X8367500Y6280000D03*
%TD*%
D20*
%TO.C,C37*%
X8100000Y55340000D03*
X8100000Y53440000D03*
%TD*%
D40*
%TO.C,U4*%
X3467500Y4037500D03*
X3467500Y4987500D03*
X3467500Y5937500D03*
X1192500Y5937500D03*
X1192500Y4037500D03*
%TD*%
D44*
%TO.C,SW1*%
X2475000Y58770000D03*
X2475000Y55170000D03*
X1035000Y58770000D03*
X1035000Y55170000D03*
%TD*%
D19*
%TO.C,C12*%
X13280000Y9110000D03*
X11380000Y9110000D03*
%TD*%
D17*
%TO.C,R7*%
X2020000Y18147500D03*
X2020000Y19972500D03*
%TD*%
D45*
%TO.C,JP2*%
X14260000Y11730000D03*
D46*
X12960000Y11730000D03*
%TD*%
D19*
%TO.C,C32*%
X14840000Y36740000D03*
X12940000Y36740000D03*
%TD*%
%TO.C,C11*%
X8060000Y1440000D03*
X6160000Y1440000D03*
%TD*%
%TO.C,C2*%
X6320000Y33660000D03*
X4420000Y33660000D03*
%TD*%
D47*
%TO.C,J3*%
X3690000Y12140000D03*
D48*
X5165000Y10640000D03*
D47*
X3690000Y9140000D03*
D48*
X2215000Y10640000D03*
%TD*%
D29*
%TO.C,TP2*%
X28350000Y11020000D03*
%TD*%
D30*
%TO.C,C20*%
X26730000Y21440000D03*
X28630000Y21440000D03*
%TD*%
%TO.C,C22*%
X26760000Y16040000D03*
X28660000Y16040000D03*
%TD*%
D18*
%TO.C,C4*%
X20740000Y35140000D03*
X20740000Y37040000D03*
%TD*%
D19*
%TO.C,C28*%
X3690000Y14240000D03*
X1790000Y14240000D03*
%TD*%
D49*
%TO.C,J1*%
X6295000Y44020000D03*
X6295000Y38240000D03*
D50*
X7370000Y44330000D03*
X7370000Y43530000D03*
D51*
X7370000Y42380000D03*
X7370000Y41380000D03*
X7370000Y40880000D03*
X7370000Y39880000D03*
D50*
X7370000Y38730000D03*
X7370000Y37930000D03*
X7370000Y37930000D03*
X7370000Y38730000D03*
D51*
X7370000Y39380000D03*
X7370000Y40380000D03*
X7370000Y41880000D03*
X7370000Y42880000D03*
D50*
X7370000Y43530000D03*
X7370000Y44330000D03*
D52*
X6795000Y45450000D03*
D53*
X2615000Y45450000D03*
D52*
X6795000Y36810000D03*
D53*
X2615000Y36810000D03*
%TD*%
D19*
%TO.C,C30*%
X7260000Y14230000D03*
X5360000Y14230000D03*
%TD*%
D54*
%TO.C,U2*%
X16870000Y37780000D03*
D55*
X16695000Y38005000D03*
D54*
X17270000Y37780000D03*
X17670000Y37780000D03*
X18070000Y37780000D03*
X18470000Y37780000D03*
D56*
X18470000Y38430000D03*
D54*
X18470000Y39080000D03*
X18070000Y39080000D03*
X17670000Y39080000D03*
X17270000Y39080000D03*
X16870000Y39080000D03*
D56*
X16870000Y38430000D03*
%TD*%
D20*
%TO.C,C9*%
X11080000Y2890000D03*
X11080000Y990000D03*
%TD*%
D57*
%TO.C,U5*%
X26657500Y29972500D03*
X27607500Y29972500D03*
X28557500Y29972500D03*
X28557500Y32247500D03*
X26657500Y32247500D03*
%TD*%
D17*
%TO.C,R2*%
X4700000Y47337500D03*
X4700000Y49162500D03*
%TD*%
D19*
%TO.C,C6*%
X14840000Y34510000D03*
X12940000Y34510000D03*
%TD*%
D44*
%TO.C,SW2*%
X2465000Y53200000D03*
X2465000Y49600000D03*
X1025000Y53200000D03*
X1025000Y49600000D03*
%TD*%
D18*
%TO.C,C25*%
X5940000Y56970000D03*
X5940000Y58870000D03*
%TD*%
%LPD*%
M02*
